<?xml version="1.0" encoding="UTF-8"?>
<svg id="Camada_1" data-name="Camada 1" xmlns="http://www.w3.org/2000/svg" viewBox="0 0 1024 1024">
  <defs>
    <style>
      .cls-1 {
        fill: #fff;
      }
    </style>
  </defs>
  <path d="M348.48,1012.5h-4.9l3.04-3.32h1.96s1.3-1.42,1.3-1.42c.71-.78,2.23-1.59,3.31-2.1l8.13-3.84c2.62,1.13,2.2.46,2.75.37.1-.02.24-.92.34-1.34l23.32-9.1c.25-.1.85-.66.9-.74,5.56-2.15,11.35-4.61,16.02-8.25,3.88-3.03,5.75-3.64,5.95-3.8l4.2-3.52c.91-.76,2.3-1.37,2.86-2.19,1.94-2.84,4.96-4.15,7.44-6.41l4.04-4.62,5.67-6.41,6.11-7.08c4.12-4.77,8.88-9.96,12.68-14.94.3-.4,1.35-1.09,1.64-1.4s.04-1.43-.36-1.32-1.5.4-1.75.64l-2.16,2.11-4.22,2.15c-2.21,1.13-1.34-.37-3.74,2.08-6.04,6.15-15.38,9.52-17.66,11.21-1.07.79-1.94,1.42-3,2.1l-6.43,4.14-4.88,3.54c-2.36,1.71-4.43,4-6.93,5.46-1.24.72-2.36,1.37-3.38,2.25l-1.65,1.42c-.88.76-1.67,1.77-2.68,2.06-2.77.79-4.52,2.8-6.23,5.15-1.06,1.46-6.22,2.21-11.05,8.28-1.65,2.07-.29-1.2-5.84,3.07-2.16,1.66-.85-.19-4.71,2.69l-1.98.79c-.88.35-1.92.54-2.82.56l-3.46.07c-.81.02-5.72-1.02-5.75-1.65l-.08-1.62c0-.1.2-.73.25-.83l.4-.81c1.41-2.89,3.98.31,7.91-1.78l4.63-2.47,7.8-4.16c7.15-3.81,2.21-2.4,7.73-4.87,1.71-.77,3.48-2.58,5.07-3.85,4.24-3.39,3.3-3.47,5.51-5.1.26-.19,1.11-.63,1.36-.9l3.87-4.32c2.75-3.07,6.1-5.68,8.17-9.31,1.09-1.91,1.93-4.39,4.4-4.93l1.41-1.92c.84-1.14.08,1.31,1.19,1.3.2,0,1.11-.63,1.19-.79l.34-.68.31-.63.38-.77,8.08-4.8c-5.52,3.28,6.53-4.35,1.16-1.47,2.95.9,3.36-2.44,5.06-3.15,1.6-.67,3.78-1.02,4.7-3.33,1.09-.26,2.88-.71,3.5-1.42,1.67-1.95,4.07-2.34,5.8-3.68l7.4-5.71c2.26-1.74,7.37-6.24,8.8-8.37,1.21-1.79.22.1,3.36-2.55l2.96-2.5,2.82-2.59c1.73-1.59,3.35-2.94,5.03-4.59l2.6-2.56c1.23-1.22,3.21-2.28,4.96-3.39.5-.32,1.1-1.52,1.59-2.12,1.75-2.16,4.37-3.85,6.34-5.95,2.68-2.86,10.54-11.21,12.87-12.79l2.27-1.54c2.32-4.07,5.77-7.41,8.65-11.36,6.9-9.44,12.16-19.14,15.38-30.34.27-.93,1.77-2.17,1.65-3.35-.26-2.52.25-4.69.7-7.15l1.22-6.62c2.12-11.5.04-10.73,1.17-21.44.21-1.98.13-4.58-.22-6.54l-2.12-11.8c-.46-2.53-1.99-5.74-.16-8.31.09-1.15-1.31-3.03-1.5-4.1l-2.24-12.51c-.77-4.28-2.13-16.17-2.33-20.67l-.59-12.98c-.09-2.02-.57-4.16-.49-6.21l.21-5.31c.04-.94.39-2.32.52-3.58.11-1.13.55-1.94,1.91-2.67,1.06-.57,2.96,1.46,3.04,3.66l.22,6.15.08,4.91c.08,4.66.19,8.94.89,13.52,1.69,10.97,1.42,4.08,3.04,11.91.59,2.87,2.69,5.9,2.07,9.11-.5,2.58.55,4.64,2.36,6.24,1.92,5.54.1,7.44,2.09,9.83.36.43-.67,1.79-.89,1.41l-.9-1.54-.34-.6c-1.58-2.81.97-2.14-2.33-8.12-1.19-2.15-1.86-3.06-2.48-5.52l-.35-1.4c-.07-.27-.86-.33-1.02-.11-1.16,1.68.37,2.73.67,4.96.36,2.72.53,5.47,1.1,8.06l.88,4c.43,1.97-.07,4.8.47,6.69l1.57,5.52c.61,2.16.83,4.25.82,6.62-.03,3.9,1.83,5.28.75,16.27-.12,1.26.02,2.4.06,3.79.08,2.28-1.28,10.7-1.75,13.42s-.43,5.68-1.1,8.49c-1.03,4.37-2.06,8.7-3.77,12.83-.51,1.23-1.87,2.63-2.24,4.17-.66,2.71-1.92,4.86-3.19,7.18l-.78,2.72c-.72,2.5-2.88,4-4.1,5.9-1.51,2.35-2.96,4.53-4.67,6.89l-5.46,7.55c-.8,1.11-1.57,2-2.53,2.92l-11.84,11.28-2.29,2.66-8.58,7.9-3.17,2.92-3.5,3.33c-.95.9,1.68,1.87,2.04,3.43,1.11,4.83-6.6,7.33-3.67,8.7.5.23,1.39-.83,1.79-1.31l.47-.56c.63-.74,3.09-1.64,2.95-1.54l7.7-5.67c1.91-1.41,4.47-2.17,6.27-3.94,2.26-2.22,4.67-3.97,6.98-5.97,2.98-2.58,5.24-5.78,8.51-8.05,2.18-1.51,3.62-4.08,5.53-5.9,2.71-2.59,5.03-4.91,6.96-8.22.77-1.31,3.06-2.68,3.69-3.93,1.26-2.48,3.49-3.84,4.75-5.74,1.82-2.74,3.65-5.22,5.69-7.8,1.55-1.97,2.27-4.99,4.56-7.28,1.19-1.19,2.36-3.54,3.27-5.03l6.14-10.02,4.08-6.91,9.22-17.35c1.44-2.72,2.23-5.53,3.17-8.45l3.56-11.16c.97-3.04,1.43-6.08,1.86-9.19.84-6.03-1.07-11.66,3.42-13.84.62-.3,1.8-1.56,1.86-2.14l1.07-10.28c.37-3.57-.81-6.1-2.11-8.99l-2.98-6.63-3.26-5.68-2.71-5.38c-.73-1.45-1.56-3.23-2.1-4.7l-3.34-9c-1.35-3.65-2.76-15-3.15-19.31l-.72-7.91-.59-6.59c-.32-3.57-.31-7.32-.04-10.93.3-3.96.03-7.59.17-11.53l.54-15.48v-9.46c0-5.96-.49-11.33.07-17.39l-4.23-.17c-2.41,3.09-1.77,6.17-1.88,9.55-.12,3.69-1.56,7.52-.61,11.12.32,1.19.64,2.44.41,3.53-.78,3.71.03,7.11.12,10.81l.09,4.03c.07,2.82.04,5.64-.1,8.49l-.31,6.64-.28,13.22-.67,11.61c-.23,3.98-.92,7.58-1.2,11.41l-.93,12.62c-.36,4.94-.76,9.69-1.51,14.47-.44,2.8-.31,5.57-.53,8.54l-1.06,14.2c-.28,3.8.18,7.49,0,11.27l-.27,5.71c-.03.59-.18,1.75-.63,1.9l-1.7.55c-.08.03-.44.52-.53.59l-1.66,1.42c-.71.61-3.3-.84-.77-7.56.77-2.05.28-4.84.71-6.98.52-2.57.72-4.63.47-7.33-.21-2.25.43-4.94.41-7.27l-.05-4.32c-.05-4.43.62-8.7.93-13.17l.39-5.59,1.43-11.4c.58-4.66.15-9.16.93-13.7,1.34-7.83.6-7.4,1.12-13.82.13-1.61.3-3.41.21-4.85-.15-2.39.08-4.32.22-6.73l.52-9.21c.13-2.21.86-4.45.61-6.75-.9-8.39.9-3.16,1.24-8.93.11-1.94-.3-3.6-.48-5.6-.33-3.8.21-10.5-.25-12.95-1.98-10.63,3.41-15.46,1.54-17.46-.99-1.05-3.84,2.18-4.64,3.07-2.69,1.67-5.07,3.17-7.25,5.81-1.87,2.27-.27-1.02-4.43,2.54l-1.86,1.59-2.43,3.02-2.97,3.49c-1.38,1.62-2.73,2.96-4.09,4.59l-5.14,6.15c-.8.96-2.41,1.66-2.55,3.16-.06.57-.94,1.69-1.51,1.92-2.53,1.03-2.73,4.33-6.53,8.93l-3.21,3.89-3,4.48c-2.27,3.39-5.19,6.14-7.34,9.6l-6,9.64c-2.28,3.66-4.84,7.35-7.63,10.61-2.78,3.25-4.63,6.7-6.89,10.21l-1.23,1.91c-.46.71-1.5,1.71-2.19,2.02-2.33,1.06,1.32,1.73-2.72,4.84s-3,6.77-6.63,9.69c-5,4.03-.57,3.6-4.79,6.87l-.96.75c-.19.15-1.04-.35-.92-.56l1.09-1.92c2.29-4.04,4.78-7.7,7.56-11.44l.06-1.1c.05-.93,1.3-2.45,2.09-3.06,2.42-1.87,2.37-4.5,3.59-6.55l3.81-6.41c.81-1.37,2.39-2.92,3.57-4.27,1.33-1.53,1.96-3.79,3.1-5.4l3.59-5.05c4.34-6.11,4.78-9.43,9.51-15.22,1.08-1.32,2.04-2.39,2.88-3.81,3.26-5.47,7.28-10.2,11.05-15.33l5.47-7.45c1.94-2.64,3.58-5.7,6.17-7.92.44-.38,1.15-1.52,1.54-2.03l4.74-6.15,5.27-5.75,3.98-4.1c3.01-3.1,10.55-5.8,9.02-8.57-3.34.07-4.23-2-5.57-4.66l-2.37-4.72-1.61-4.97c-.12-.72-.28-2.6-.36-3.42-.24-2.38-4.51,2.84-6.74,3.06-3.1.3-5.7.35-8.5,1.62l-5.45,2.47c-3.28,1.49-5.26,3.72-8.09,4.32-3.36.71-5.89,2.31-8.93,3.54l-6.85,2.77c-2.6,1.05-5.08,1.99-7.71,3.39-7.77,4.13-9.47,3.85-16.72,6.42l-5.47,1.93-2.87.97c-5.74.42-5.82,1.78-11.85,3.56l-4.69,1.38-4.24.91-12.68,3.36c-.41.11-1.37.67-1.19.99l.74,1.35c.62,1.12-3.89,5.03-5.92,6.19l-5.81,3.3c-.9.51-2.78.98-3.88,1.48l-7.3,3.29-9.06,3.02c-1.61.54-2.99.92-4.66,1.36l-11.71,3.09c-1.77.47-2.4,1.98-1.76,3.93l-1.12.44.02-1.13.02-1.31-4.16-1.15c-.71.17-2.22.67-2.89.77l-10.58,1.59c-3.66.55-7.84,1.37-10.62,3.88l-2.96,2.67-3.36,3.17c-.9.84-1.76,1.9-2.73,2.7l-4.64,3.86c-.82.82-1.04,3.42-1.15,4.63l1.39.99c.31.22.61,1.28.45,1.7l-1.8,4.71c-2.02,5.29-5.4,9.97-9.22,14.15-2.14,2.35-3.05.17-7.2,8.43-1.05,2.09-8.49,17.12-6.6,17.98.52.23,2.05.39,2.58.8,1.81,1.38,3.31,5.69,1.09,7.39-.33.25-1.29.27-1.41-.03l-.75-1.85c-.26-.63-2.03-1.27-2.68-1.07-.56.18-1.27,1.03-1.69,1.79l-2.41,4.39c-.36,2.98-.68,5.76-1.47,8.58l-1.55,5.59c-1.28,4.62-1.61,8.94-2.04,13.69-.2,2.22-.81,4.56-.72,7l.29,8.12c.14,3.99-.15,7.71-.43,11.73-.1,1.39.82,3.79.85,5.32.14,6.48,1.97,12.16,4.51,18.05.46,1.07.81,2.96,1.19,4.19,1.95,6.42,2.25,4.37,3.83,11.14l1.92,8.2c.56,2.41,1.17,4.55,2.04,6.97.29.8.45,2.49.91,3.09l2.05,2.67c1.01,1.32-1.8.91-.08,4.36.36.73,1.27,1.96,1.5,2.63l2.13,6.42c.61,1.84.07,4.31-.64,6.24-.49,1.31,1.57,3.04,2.37,5.83,1.12,3.91,1.96,7.79,3.61,11.49l2.33,5.24,2.31,5.05,1.72,3.63,3.16,7.34c.86,2,1.33,3.68,2.6,5.49,1.76,2.5,2.82,5.83,3.4,8.74.11.53.94,1.35,1.28,1.74l2.19,2.46c2.92,3.29.22,6.22,3.46,7.54.44.18.87,1.08,1.23,1.66l1.7,2.75c2.07,7.77,4.68,6.57,5.39,15.02.38.42,1.07,1.45,1.12,1.93.12,1.21,1.28,1.96,1.91,2.92,1.75,2.71,4.46,6.64,7,8.31.6.86-.52,1.78-.65,1.83l-.88.34c-6.5-2.58-3.82-3.95-8.37-6.47-2.98-1.64,1.45.39-3.65-3.94-.23-.2-.88-.36-1.15-.35l-1.66.09c-.97-1.89-1.64-3.41-2.67-5.02-1.92-3-2.62-6.59-3.78-10.07l-.26-.77c-.08-.24-.24-.72-.29-.84-5.29-4.18-2.2-4.59-5.57-9.28l-.43-.6-.4-.71c-.05-.08-.32-.2-.82-.45-.99-.5-1-1.47-1.22-3.08-.44-3.16-2.67-4.79-4.32-10.58-.77-2.73-2.77-5.3-3.69-7.99-.56-1.62-.82-3.24-1.69-4.62-.77-1.23-1.1-2.45-1.58-3.83l-4.26-12.36-3.05-8.5-2.73-6.3-1.32-3.24c-.49-1.21-1.7-2.73-2.36-4.07s-.82-3.21-1.88-4.59c-3.14-4.09-.98-5.76-2.81-8.37l-.45-.65c.05-1.27-.13-2.57-.53-3.38l-.38-.78-.36-.72c-.04-.08-.39-.39-.63-.61-.44-3.73-1.08-7.13-2.57-10.85l-3.99-9.91c-.34-.85.2-3.59-1.42-5.24-1.25-5.42-.36-5.6-1.68-12.47l-.56-2.92c-.13-.65-1.98-.54-2.65-.56l-1.1-.04-1.02-.02c-.49-.01-.33-3.01.84-4.39l.61-.72c-.27-2.24-.57-4.66-.03-6.93,1-4.19.29-8.83,1.82-12.65,5.28-13.19-.1-12.56,1.92-17.22,1.62-3.72,1.62-8.13,2.48-12.12l1.6-7.37c.45-2.07,1.6-4.37,1.82-6.56.47-4.64,2.11-8.34,3.82-12.59l4.25-10.57c1-2.49,1.49-4.83,2.87-7.28l2.74-4.83c.98-1.73-2.48-2.81-2.11-4.39,1.43-5.96,9.27-15.91,14.02-20.67,1.57-1.57,2.38-3.07,3.67-4.99,2.99-4.43,8.08-8.05,11.78-11.85,2.79-2.86-7.43.1-7.58.13l-12.1,2.6c-1.15.8-2.67,2.16-3.94,2.9l-4.98,2.93c-2.09,1.23-2.58-2.25-5.93-2.52-7.36-.59-15.15-.86-22.1,1.7-2.53.93-3.9.7-6.64.32-3.5-.49-7.59-.56-11.19-.52l-15.63.18c-8.3.09-15.79,1.22-23.48-.47-3.47-.76-6.54-3.87-6.4-4.21l.63-1.54c.82-2.01,2.42-3.26,4.67-2.47l1.35,3.54c2.82.55,5.86,1.32,8.69,1.23l5.52-.17c1.95-.06,4.03-.31,6-.2l4.18.22c2.89.15,11.59.86,13.4-.66.14-.12-.27-.94-.45-1.01l-6.15-2.57c-2.18-.91-3.82-1.94-5.92-2.79l-3.45-1.4-5.02-2.53-4.06-2.04-6.2-2.81-3.46-1.54c-4.11-1.83-8.04-3.86-11.96-6.05-2.81-1.58-5.39-3.32-8.3-4.62l-3.54-1.59c-2.5-1.12-5.2-2.45-7.43-3.92l-3.11-2.04c-1.3-.86-2.62-1.36-4.38-1.58l-1.83-2.06-4.34-2.66-4.18-2.91-6.27-4.21c-1.19-.8-2.59-1.8-3.75-2.69l-7.7-5.91-6.17-5.21-4.58-3.36c-5.46-4-10.46-8.08-15.64-12.4-1.46-1.21-3.7-1.82-5.15-3.35-1.85-1.94-4-3.72-6.73-3.99-2.91-.28,1.02-2.17-4.97-2.96-1.22-.16-.68-.01-1.57-.51-3.91-2.17-3.11.99-4.95-1.46-.62-.82-2.78-1.39-3.62-1.84-2-1.05.23-.96-6.49-3.5-5.69-2.15-1.51-1.2-7.1-4.99-2.38-1.61-4.52-2.94-7.15-4.44-1.35-.84-2.48-2.81-3.83-3.9-.63-.5-1.31-1.51-1.03-2.01,2.38-4.21,10.89,2.82,12.51,3.57l6.18,2.89c2.51,1.17,4.49,2.67,7.16,3.72,1.89.74,3.61,2.08,5.3,3.07l5.45,3.21,3.75,2.46,6.31,3.48c3.1,1.71,7.19,1.58,10.54,3.09l4.33,1.96c.37.17,1.74.4,2.25.51.35.08.16.51-.23,1.43l-6.19-.66c-1.33-.14-1.83-1.01-2.84.06,0,.07.3,1.12.38,1.18l4.95,3.78,10.05,8.01c1.98,1.58,3.89,3.69,6.26,4.55,4.81,1.76,1.24,2.57,8.44,6.64.4.23,1.11.83,1.35,1.24,1.11,1.91,3.47.78,5.29-.18,2.34-1.23,4.45,1.68,6.67,2.13,1.6.33,2.32,1.15,3.57,1.91l10.58,6.43,6.24,3.26c2.09,1.09,4.21,1.87,6.31,2.88l5.7,2.74c3.29,1.58,4.42,1.23,4.83,2.19,1.55,3.64,4.51.53,6.7,3.65l4.9,1.88c1.44,3.11,1.76-.34,5.72,2.97l2.65,2.22c.39.33.8,1.64,1.24,1.6l2.24-.23c2.72-.27,2.63,2.95,7.78,2.15s3.06,1.91,9.82,2.72c2.1.25,6.27,1.27,7.95,1.87.47.17,1.57,1.25,2.17,1.1,1.49-.39,3.94.5,4.49,2.54,4.34-1.18,5.22,1.36,10.1,2.86,1.89.58,4.36.41,5.83,1.37,4.07,2.65,3.43,1.52,7.71,3.9,5.43,3.02,9.3,2.21,15.02,1.23l5.54-.94,5.1-.55,7.22-1.54,9.26-2c3.09-.67,8.72-1.59,10.83-3.64l2.84-2.76c1.17-1.14,2.44-1.7,3.97-2.48,5.53-2.8,8.18-5.29,13.18-8.33l4.29-2.61,7.13-4.54c2.33-1.48,4.74-2.51,7.33-3.59s5.31-2.87,8.14-3.68l9.24-2.65,4.72-1.41c3.43-1.03,6.55-2.31,9.95-3.72l.3-3.57c.06-.74,1.27-1.32,2.28-1.36,2.53-.11,4.17,0,5.54,2.55.47-.38,1.39-1.52,1.84-1.81l5.6-3.65c2.29-1.49,4.4-2.62,6.83-3.85,1.85-.94,3.73-2.68,5.72-3.44,1.72-.66,2.91-1.39,4.4-2.28l6.19-3.71c3.63-2.18,7.01-4,10.29-6.78,3.59-3.04,7.56-5.18,11.84-6.63-.16-.43-.56-1.29-.75-1.36l-3.74-1.36-3.41.23c-1.28-1.9-5.41-4.03-7.86-4.28-.9-.09-2.32-.94-3.12-1.13-8.5-2.02-5.38-2-11.95-3.74-2.45-.65-4.98-1.48-7.4-1.95l-9.4-1.86-5.11-1.12-4.14-.92-9.28-1.86-7.76-1.34c-2.9-.5-5.29-1.17-8.24-1.35-2.45-.15-5.03-.26-7.46-.57l-7.55-.97c-6.43-.82-12.6-.84-19.1-1.69l-12.85-1.68-12.08-1.05-13.83-1.03-12.67-1.44-8.38-1.06-10.14-1.7-7.06-1.26c-6.12-1.09-11.61-2.58-17.66-4.52l-8.31-2.65c-.41-.13-1.36-.85-1.72-.92-2.1-.4-5.47-1.3-7.56-2.32l-5.16-2.49c-.95-.46-2.74-.94-3.58-1.41l-4.76-2.7c-3.5-1.99-6.97-3.89-10.28-6.17-1.89-1.3-3.72-2.85-5.88-3.6-.79-.27-1.91-.63-1.75-1.07l.35-.99c.12-.33,1.04-1.02,1.34-.86l2.28,1.21c.24.13.64.35.73.38l2.81.77,4,2.43,2.29,1.68,3.82,2.53c2.25-.1,2.91,1.21,4.63,1.95l7.02,3.02c4.17,1.79,7.88,4.3,12.47,4.69,1.98.17,4.16,1.65,6.1,2.23,2.97.89,5.6,1.76,8.55,2.92l2.66-.91c.31.36,1.09,1.68,1.5,1.75l5.84,1.06,5.83,1.08c1.79.33,3.39.4,5.44.57,1.28.11,9.1,2.59,11.45,2.36,5.43-.55,5.32.84,12.31,1.25.96.06,2.72-.3,3.84-.11,4.38.75,8.13,1.14,12.55,1.23,1.28.03,3.02.62,4.46,1.11.67.23,2.15-.36,2.86-.36,2.74.01,6.11.39,8.97.89,4.67.82,1.31-1.64,5.03-.13,5.16,2.09,5.75,1.32,8.18,1.29,2.84-.03,5.97.37,8.86.73.71.09,2.34.93,3.18.78,7.23-1.29,5.57.73,8.84-.55.53-.21,1.27-.44,1.63-.33.27.08.51.62.91,1.26l5.98.49c.67.05,1.98.76,2.55.97l4.04.06c2.65.04,5,.43,7.58.85s5.59-.01,7.93.83c1.42.51,2.48.98,4,1.03,1.27.04,2.62.8,3.67,1.04l6.59,1.53,5.91,1,7.54,1.88,9.81,2.2c3,.67,6.12,2.56,8.94,2.99s4.48,1.61,6.97,2.53,15.03,3.57,16.17,4.16c4.36,2.24,7.55-1.29,10.33-1.69,4.36-.62,8.45-.98,12.19-2.94l.93-.49c.2-.1-.25-1.11-.47-1.22-2.55-1.35-6.23-4.03-8.82-5.78l-5.78-3.91-4.82-3.23-2.96-2.4-3.86-2.68c-2.58-1.78-5.22-3.41-7.6-5.35l-4.73-3.85-5.12-4.33c-4.27-3.61-5.58-3.8-10.82-9.11-1.18-1.19-2.57-2.28-4.04-2.94-1.95-4.27-3.03-2.03-5.84-4.34-2.14-1.76-5.25-3.94-7.38-5.22-.16-.1-.68-.89-.75-1.11-1.16-3.37-3.84.89-6.51-3.87-.17-.3-.3-1.06-.31-1.39-.02-.57,2.49.09,2.01-.14l4.58,2.19c.09.04.59.49.68.5l1.65.29c.76.13-.63-2.42-.19-2l-3.49-3.3c-5.16-4.89-1.94-5.02-10.27-10.95-1.88-1.34-3.61-2.94-5.41-4.51-4.41-3.83-6.06-7.55-8.61-11.79-1.75-2.91-2.87-5.45-4.08-8.62l-1.43-3.72c-1.38-3.59-3-7.32-6.28-9.56l-7.41-5.06c-2.02-1.38-3.7-2.19-6.44-2.02-.47-.79-1.3-2.85-2.05-3.39-3.35-2.41-6.84-4.88-10.35-7.08-1.87-1.17-4.2-1.52-5.97-3.15-1.49-1.38-3.53-1.99-5.37-2.77-2.23-.95-4.47-2.56-6.86-2.85-2.01-.24-3.43-.78-5.3-1.21l-8.27-1.9-3.74-1.28c-6.72-2.31-19.16-3.53-26.49-4.08-1.91-.14-3.73-.5-5.67-.43l-11.33.46-12.01,1.55c-1.6.21-3.43.49-5.09.79l-15.65,2.76c-3.24.57-6.26.84-9.29,2.15-5.73,2.47-12.3,2.64-15.35,5.66l-1.36,1.34c-.22.21-1.11.46-1.31.22l-1.1-1.36-4.45.84c-2.94.55-5.42,1.03-8.25,1.86-1.03.3-2.71.41-3.72.95-1.65.88-3.08,1.53-4.79,1.83l-5.15.89-6.92,1.13c-2.09.34-4.56,2.15-6.5,2.34-1.43.14-2.41.16-3.46,1.05-4.02,3.42-1.38.06-7.95,4.04l-7.2,4.36-3.63,1.86-9.23,5.23c-.9.51-2.31,2.46-3.49,2.45-2.98-.03-3.69,3.32-5.47,4.21-4,2-3.72.95-8.47,5.42-1.65,1.55-2.23-.38-3.97,1.97l-1.72,2.34c-1.99,1-3.6,2.22-5.29,3.77l-4.22,1.88c-2.98,1.33,1.01,2.3-3.32,3.62-1.27.39-3.24.63-4.27,1.06l-5.08,2.15-8.92,3.54c-1.06.42-2.5,1.36-3.66,1.65l-4.52,1.12c-3.41.84-6.67,1.42-10.12,1.95-2,.31-4.13,1.03-6.2,1.04-2.34.01-3.93,1.28-5.92,2.1-2.61,1.07-5.5.41-7.3,3.58-.52.91-2.11,1.99-3,2.79l-3.27,2.93c-.59.53-.41,2.31.24,2.68l.81.46,3.84,2.27c2.17,1.28,3.9,2.89,5.74,4.7l3.79,3.75c1.46,1.44,2.62,3.4,4.19,4.75,2.02,1.73,3.98,3.34,6.11,4.91l4.05,2.99c6.79,5,2.32,4.22,8.78,6.65,1.21,3.7.43.99,7.18,5.41,1.44.94,3.31,1.83,4.64,2.82,2.63,1.96,4.78,3.81,7.63,5.53,1.46.88,3.49,3.18,5.07,3.47,3.55.66,5.88,1.75,8.91,3.27l14.32,7.19,2.69,1.92,3.62,2.41,5.47,3.94c.22.16.83.82.86,1.11l.29,3.11c.03.33-.71,1-1.03.86l-1.63-.69c-.65-.28-1.51-1.88-2.13-2.31l-7.94-5.51c-1.5-1.04-3.7-1.51-5.4-2.28l-6.51-2.95c-2.32-1.05-3.62-3.04-6.67-3.1-1.68-.03-3.84-1.87-5.51-2.51-4.63-1.77-7.35-4.55-12.92-7.53-2.47-1.32-4.37-2.84-6.6-4.51-3.68-2.76-7.7-4.98-11.08-8.41-.8-.81-2.12-1.69-3.03-2.48-5.03-4.43-1.98-.84-6.77-5.23l-5.75-5.28-2.94-3.03c-1.23-1.27-2.47-2.51-3.82-3.64l-12.04-10.14c-2.58.15-4.21,2.12-5.99,3.67-1.47,1.28-4.63,1.53-6.36.92-1.2-.43-1.83-1.68-1.54-2.74.54-1.95,1.74-3.09,2.89-4.64l2.57-3.47c.49-2.49-1.37-4.07-2.09-5.77-2.52-5.93,4.28-14.65,3.75-9.51-.29,2.88-.35,5.65-.1,8.85.11,1.35,3.98,2.92,5.69,2l4.02-2.15,14.36-15.39,4.38-4.53c6.35-6.58,7.78-7.62,12.52-15.75,1.18-2.02,3.4-4.24,4.95-6.25,1.93-2.51,4.9-4.17,7.03-6.42,4.73-4.98,8.89-4.78,13.68-10.38l-.64-1.66c-.07-.18-.84.23-1.06.22l-5.07-.32c-2.44-.15-4.78.15-6.84.86l-.61-.54c-.66-.58,1.28-1.47,1.51-1.49l3.89-.34,1.01-.09.85-.07.81-.07.78.02c.13,0,.79.12,1,.1,14.82-1.89,8.49-1.45,13.33-5.11l15.93-12.03c3.62-2.73,13.95-7.97,18.44-9.68l5.34-2.03,6.9-1.37c.45-.09,1.57.34,1.6.76l.09,1.14c.01.13-.09.77-.13.9l-.25.78c-2.71,1.73-5.31,3.4-7.3,6.69,3.71-.27,6.69-2.44,10.04-3.9l5.48-2.38c2.49-1.08,10.92-5.17,10.89-5.16l4.75-1.74c4.88-1.79,5.35-2.49,10.99-4.64l8.05-3.07c2.53-.96,5-1.78,7.54-2.56l5.79-1.76c1.62-.49,3.42-1.4,5.11-1.55,1.93-.17,3.22-1.17,4.81-1.67,10.02-3.15,11.87-3.21,22.25-4.87,1.61-.26,3.57.73,5.3-.33,1.11-.69,2.25-.28,3.61-.17l11.42.95,8.16,1.17c2.22.32,4.93,1.29,6.87,2.31,1.22.64,2.42.65,3.64,1.03l7.71,2.37c1.05.32,2.57,1.33,3.72.9.54-.2,1.13,1.15.97,1.61-.05.16-.78.43-.94.44l-1.69.08c-2.53.12-3.13-1.42-6.02-2.63l-3.49-1.46c-.72-.3-2.53-.11-3.35-.19-3.1-1.34-6.8-2-10.24-1.44-3.75-2.1-7.33-.94-13.68-1.44-3.08-.24-7.69-.63-10.46.14-2.37.67-5,.75-7.51,1.16-1.27.21-2.26.81-3.73.31-.99-.33-1.96,1.18-2.72,1.42l-5.33,1.7-4.03,1.29-5.77,1.13c-4.49.88-6.7,2.92-9.51,3.14-.63.05-1.77,1.3-2.38,1.54l-7.37,2.88c-2.17.85-7.56,1.79-8.54,2.98-2.52,3.05-4.22,1.4-10.79,4.89l-3.35,1.78-4.62,2.55c-1.76.33-3.17.45-4.48,1.77l-2.2.06c-2.81.07.3.52-4.58,3.03l-7.87,4.04-4.39,2.25c-2.99,1.53-6.02,2.89-9.1,4.35l-5.72,2.71c-3.45,1.63-2.37,2.41-9.23,4.99.27.28,1.18.67,1.63.69l5.65.24,16.87.38c10.58.24,30.76-2.63,40.45-6.8,2.89-1.24,6.23-1.59,9.3-2.37,1.52-.39,3.11-.88,4.71-1.09l6.4-.85c1.64-.22,3.78-.82,5.29-1.28.47-.68,1.06-1.35,1.49-1.25,2.44.57,3.81-.38,8.37-1.57l5.26-1.37,5.59-1.46c1.99-.52,3.9-1.09,5.99-1.44l5.15-.87,11.18-2.08,13.82-2.09,4.09-.41c3.82-.38,8.06-.97,11.82-.46,3.09.42,5.49,1.08,8.76.17l5.11,1.21c3.56.84.31-2.15-5.6-2.8l-1.16-.13c-.28-.03-.76-.09-.89-.12l-6.43-1.72c-4.07-1.09.4-2.24-6.21-1.25l-.99-.33c-2.05-.67-3.9-1.19-5.94-1.67l-.88-.21-18.81-4.54c-6.26-1.51-1.09.17-6.69-1.23l-8.39-2.1c-1.45-.36-3.8-2.34-2.96-4.15s4.86-3.34,6.75-2.64l3.84,1.42,3.61,1.14c.41.13,1.63-.34,1.88,0l1.05,1.41c.55.74,2.38.64,3.65.32l3.22,1.5c3,1.4,9.47,3.03,12.75,3.65l7.06,1.33c1.64.31,3.18.81,4.8,1.38l4.83,1.7,4.58,1.66c1.36.49,2.25.77,3.88.32,2.22-.61,1.79,1.77,4.21,1.88,2,.1,4.39.13,5.51,1.5,2.57,3.13,3.52.1,5.59,1.84,2.47,2.07,5.45,2.26,8.43,3.03s7.95,4.47,11.14,4.63c1.86-2.33-9.52-6.49-9.13-10.22.27-2.59,8.38-2.76,13.14-.44l7.65,3.73c.37.18,10,8.69,11.56,10.07l7.14,6.32c.98.86,1.77,1.35,2.62,2.34,1.09,1.26,2.31,2.47,3.5,3.59l2.56,2.41c1.17,1.1,2.09,2.06,3.25,3.37l3.47,1.42c.39.16.99.35,1.29.44,1.06.32-.04-4.08-.1-4.9-.14-1.85.23-4.2-.96-5.82-.71-.97-.62-1.83-.69-3.3l-1.13-3.25c.31-1.54-.03-2.5-.48-3.98-.59-1.95-.23-4.6-.53-6.67l-.89-6-.7-4.73c-.25-1.68-.13-3.56-.16-5.62l-1.04-.11-.36,1.03c-.05.15-.25.67-.3.75-2.21,3.52-2.77,5.25-5.99,4.63l-.91-.18c-1.29-4.68-1.64-9.44-1.31-14.41.28-4.17.17-8.37.73-12.42.46-3.35.95-6.46.52-9.9-.07-.55-.32-1.4.02-1.51l1.5-.49c.82-.27,1-1.8,1.12-2.86l.5-4.36c.16-1.43.44-2.7.99-4.08.99-2.49.09-5.78.8-8.31l1.98-7.03c.64-2.28,1.16-4.59,1.38-6.97l.43-4.66c.3-3.22,1.99-8.06,1.03-8.33l-1.16-.33c-.37-.11-1.03-.64-.99-1.02.04-.35.17-1.15.26-1.45l3.27-10.83c.44-1.45,1.09-2.79,1.62-4.21l2.21-5.93,1.63-3.54,1.55-3.27,1-2.46,2.8-7.24c.76-1.98,1.03-5.17,2.19-6.64,1.48-1.87,2.16-2.37,1.69-5.1-.29-1.67,1.73-4.11,2.47-5.78l2.96-6.7,1.29-3.67.61-1.57c.1-.27,1.1-.2,1.4-.28l1-.25c-.23-1.62-.23-2.96.41-4.28l1.88-3.83c.58-1.18,1.1-2.77,1.75-3.85.72-1.2,1.45-2.29,1.28-4-.05-.53,1.14-1.13,1.52-1.68.5-.72.73-2.71,1.34-3.4,2.02-2.27.11-2.66,1.79-3.78l.66-.44c2.25-4.98,4.58-6.67,6.52-11.41,1.32-3.21,2.48-6.41,4.3-9.19s3.09-5.76,4.26-8.92c.83-2.24,1.24-.17,2.71-3.19,1.01-2.07,4.67-9.7,6.56-10.51,1.91-5.49,6.5-8.26,7.48-11.99.15-.57,1.48-1.26,1.93-1.84l5.78-7.37,3.79-4.83,3.68-4.21c2.6-2.97,1.36-3.72,1.96-3.69l1.25.06,1.87-3.3c.39-.69.86-1.68,1.2-2.37,1.33-.46,2.17-1.25,3.08-2.41l5.93-7.56c.77-.98,1.72-2.16,2.24-3.16,3-5.75,2.01-1.47,6.84-9.52,2.2-3.66,4-7.4,6.38-10.68,2.86-3.95,3.56-6.22,6.56-10.51,1.69-2.42,3.16-4.8,4.99-7.11s3.09-5.6,5.07-7.79c1.25-1.38,1.82-2.04,2.4-3.83.72-2.22,1.39-4.29,1.97-6.61l.49-1.96-3.02.15c-1.14-1.62-1.35-4.79.76-5.66,1.68-.69,5.05-.82,6.72-.35,5.57,5.52-1.11,10.11-1.57,14.21-.32,2.94-1.84,4.17-3.5,6.27-1.84,2.33-3.52,5.19-4.97,7.83-2.42,4.4-2.79,2.11-6.03,8.97s-3,3.43-6.35,9.29l-4.04,7.07c-.74,1.3-2.18,2.29-2.49,4.01-.65,3.51-4.06,5.76-5.34,8.85-.9,2.17-3.45,8.35-4.73,10l-2.32,3c.09-.11-5.66,8.93-6.49,9.53-1.52,1.48-2.44,2.63-3.49,4.25l-3.51,5.44-2.2,3.3c-1.66,2.48-3.1,4.84-4.67,7.32l-2.3,3.63-5.61,9.98c-.88,1.57-2.01,3.31-3.03,4.88-.83,1.27-2.49,2.55-2.05,4.36s-2.25,1.6-2.34,3.85c-.05,1.42-2.12,1.88-2.56,2.67-.96,1.73-2,3.77-3.14,5.44-1.54,2.25-5.66,3.13-6.93,1.36-.19-.27-.53-1.34-.61-1.58-.34-1.06-1.33,2.07-1.82,3.03-1.16,2.27-2.41,4.43-3.29,6.59l-1.61,3.97-1.56,3.68c-.48,1.14.52,4.05-3.01,8.27-.63.76-1.66,2.47-1.95,3.39-.96,3.12-2.13,6.14-3.44,9.03l-3.64,8.03-1.73,3.9c-.57,1.27-.83,2.76-1.3,4.19-.38,1.17-4.36,9.14-5.12,10.32-1.36,2.12-1.45,5.27-2.54,7.49-2.45,4.98-2.94,7.74-5.53,13.9l-3.28,7.8c-.54,1.28-.86,2.99-1.29,4.34l-2.87,9.2c-.81,2.58-1.12,4.73-1.44,7.5-.34,2.98-1.48,6.16-2.08,9.12l-1.78,8.9-1.09,6.45c-1.1,6.55-2.12,5.61-2.47,13.71-.13,3.04-1.75,6.23-1.54,9.34.11,1.54.16,2.64-.28,4-.77,2.4-.41,5.01-.53,7.62-.1,2.02-.39,3.98-.26,5.99.17,2.61-.09,5.82.64,5.43.15-.08.92-.37.98-.53l1.33-4.08c.64-1.96.36-5.14.77-9.08l1.37-13.28c.14-1.36.76-2.96.97-4.25.52-3.15.57-6.35,1.42-9.36l1.33-4.74,2.28-8.01c.36-.31,1.93-.49,1.88-.97l-.25-2.33c-.08-.72-.35-2.51-.03-3.18.6-1.27,3.65-6.2,4.5-4.98l.64.92.47.67c.89,1.28.93,2.21.76,3.83-.39,3.75.39,7.78-.66,11.38-.43,1.47-1.11,2.93-1.2,4.4-.27,4.35-2.59,13.19-3.86,17.42-.8,2.64-.49,5.54-2.08,8.11-.96,1.55-.94,3.83-1.51,5.42-1.05,2.95-2.23,5.47-1.89,8.74l1.76,16.74.51,4.2c.69,5.68,1.74,11.24,2.96,16.86.34,1.58.92,2.94.8,4.65s.57,2.91.99,4.36l1.48,5.16c.42,1.48-.15,4.01.85,5.08l2.74,2.94c1.94,2.08,3.93,4.57,5.65,6.85.82.55,2.93,1.12,3.64,1.89,2.95,3.21,6.86,5.18,10.43,7.64l4.44,3.06,5.94,3.4,8.16,5.43c1.83,1.22,3.44,2.33,5.16,3.84,3.67,3.23-.98,6.38,3.95,8.14,1.22.44,2.47,1.57,3.24,2.67.88,1.27,6.55,5.44,8.32,6.67,2.03,1.41,3.65,2.99,5.41,4.54l5.64,4.95c.1.09,6.73,5.02,4.1,1.56l-8.24-10.85c-1.54-2.03-4.09-6.44-5.06-9.08-.41-1.11-1.77-2.3-2.39-3.39-1.36-2.37-2.5-4.68-3.57-7.11l-5.98-13.58-3.57-7.99-2.91-1.43-2.19-7.82c-2.15,2.5-3.07,3.83-5.33,4.94s-5.15,1.53-5.58.61c-.12-.26-.3-1.16-.28-1.57l.47-7.47c.3-4.78,1.22-10.3,1.86-15.02.27-1.98-2.53,1.39-10.39.41-1.43-.18-4.22-2.18-4.31-3.72-.16-2.92.02-5.72.15-8.48l.55-12.39c.04-.95.29-2.19-.27-2.87-2.54-3.13-5.49,5.07-11.03,2.89-2.7-2.37,0-3.26-.85-6.17-.07-.23.49-.38,1.02-.57s1.06-1.47,1.43-1.92l4.73-5.73s6.87-6.4,7.55-4.21c1.41,4.58,3.34-.1,3.81,7.63,1.77,1.49,4.07,3.45,4.79,5.45l1.62,4.47c.5,1.37,1.04,2.63,1.65,3.99,1.45,3.2,1.89,7.12,4.33,9.74,1.02,1.1,1.77,3.03,1.67,4.19-.05.57,1.59,1.54,1.59,2.01,0,1.56-.09,4.91,1.03,6.24l3.53,4.2c.68.81,1.63,2.68,2.22,3.76.6,3.36.54,7.29,3.28,9.84,6.18,5.72,1.87,8.49,2.21,8.99l.88,1.29,2.47,3.62c-.7,4.06,1.84,6.76,3.22,10.06l4,9.52c1.4,3.33,3.61,5.93,5.69,8.84l5.68,7.93,6.67,8.87,3.95,4c1.83,1.85,3.79,3.59,5.66,5.33l3.9,3.61,4.06,3.56c1,.87,2.51,1.37,3.81,1.18.91-.13,2.23-1.41,2.44-2.5-.94-2.19-3.15-3.85-3.88-5.9-2.9-8.12-2.35-2.07-4.73-9.31-.69-2.1-1.7-4.34-2.15-6.31-.66-2.89-1.53-4.57-3.15-7.24s-2.96-7.31-3.38-10.71c-1.01-8.17.33-15.79-2.7-21.92l-4.47-9.04c-2.33-4.71-2.43-6.2-4.71-9.4-.95-1.34-1.73-3.53-2.13-5.23-1.41-6.01-1.9-2.51-4.31-14.43l-1.6-7.93c-.04-.22-.42-.73-.55-.61s-.81.66-.83.84l-.58,5.29c-.21,1.88-3.98,2.4-5.03,2.53-.8.1-2.37-1.16-2.32-1.97l.75-11.81.91-7.08c.41-3.14.89-10.94,2.58-13.83.81-1.38,3.36-4.09,4.77-3.21l4.31,2.7c1.32.82,1.47,3.82,1.88,5.25l.41,1.42c.75,2.62,2.51-4.91,4.83-7.95l3.33-4.36c3.5-4.58,1.98-3.79,6.62-6.7,1.53-.96,4.69-1.5,6.29-.74,3.95,1.88,2.6,9.78,2.39,13.58l-.3,5.71c-.09,1.63-.41,2.41-1.24,3.89-1.1,1.98-1.43,5.3-4.65,5.48l-5.23.3c-.62,2.09-1.32,4.93-1.22,7.08.15,3.27,3.44,4.43,6.01,4.3,2.36-.12,3,3.08,3.41,4.78l1.5,6.25c.53,2.2,1.15,3.83,1,6.08-.12,1.81-.62,3.92-.56,5.65l.21,6.18c.05,1.57.75,4.44,1.48,5.69l2.7,4.58c.42.72.53,2.39.62,3.36l.41,4.22c.61,6.36.28,8.04.81,14.54.58,7.23-4.48,5.21-3.04,8.77l1.77,4.38c.83.35,2.53.85,2.67,1.57,1,5.16-1.39.56,2.13,9.44.52,1.32,1.45,3.24,2.02,4.37-.02,2.5.32,4.94,1.33,7.33l1.91,4.53c.66,1.56,1.16,3.01,2.28,4.3l2.21,2.54c.55,1.38,1.28,2.55,2.25,3.63l3.8,4.23c2.34,2.61,4.42,9.58,6.82,10.09,3.43.73,5.69,2.33,6.17,5.94l3.1,2.82c.16.18.52-.85.38-1.12l-4.73-9.32c-1.66-3.27-3.42-4.51-5.21-8.44l-4.44-9.73c-1.67-3.66.87-2.15-.77-4.99-2.85-4.94-3.75-4.69-2.71-8.16l-1.61-1.31c.05-2.16-.18-3.84-.6-5.91l-1.01-5.05c-.34-1.69-.82-2.82-2.27-4.02l1.07-2.68c-1.39-1.49-.99-2.67-.8-4.45.22-1.97-1.17-4.36-1.4-6.34-.29-2.57-.12-5.34-.64-7.75-.83-3.88-.85-9.69-1.48-14.89l-2.16-17.79c-.3-2.45-.02-4.86-.61-7.36s.29-5.87-.44-8.16c-.6-1.9-1.3-3.14-.69-5.17s-.14-3.78-.95-5.63l-.48-3.74c-.12-.96.24-2.82-.06-3.77-.66-2.07-1.06-5.08-.2-6.52.19-.32,1.84-.72,1.84-.37l-.02,1.11c-.03,2.02.04,3.91.11,6.06l.16,5.08,1.51.43c.18.05.14-.71.13-.97l-.54-11.45c-.14-2.87-.69-5.87-.41-8.6.58-5.7-.41-7.68-.03-15.2.18-3.53.07-6.71-.17-10.23l-.3-4.23c-.12-1.7-.06-3.99.2-5.71.5-3.29.03-6.01-.18-9.18l-.59-8.7c-.03-.43-.45-1.47-.11-1.62l1.41-.61c.72-.31,1.09-1.81.81-2.82l-1.87-6.81c-.79-2.89.63-1.48,1.39-7.43l.94-7.4.33-3.01c.03-.27-.62-1.11-.83-1.28-.13-.1-.33-.11-.38.07l-.31,1.24c-.11.43-1.12,1.34-1.35,1.03-.2-1.72-.14-3.88.19-4.92l2.24-.99c-1.55-2.69-2.38-4.88-1.96-7.61l1.5-1.62-.91-2.09c-.19-.44.86-1.26,1.29-1.68l.59-5.16.88-6.8c.08-.65,2.62-1.11.91,5.62-.64,2.52-.97,5.06-1.39,7.76-.46,2.99-2.5,5.89.02,8.62l1.06-6c.27-1.51.99-3.33,1.89-4.97l-1.14,10.61c-.27,2.56-.48,4.91-.59,7.36l-.41,9.75c-.08,1.99.01,3.61.17,5.65.47,6.16.21,12.65.13,18.72-.79.57-1.62,1.16-2.03,1.59-1.01,1.04,2.07,3.18,1.78,4.82l-.52,2.95c.7.73,1.29,1.61,1.26,2.18l-.31,4.84c-.05.8-.5,2.29-.71,3.27l1.59,1.86c-.69,1.76-.79,2.67-.78,4.22l.05,10.47.02,4.63v4.4c.01.87.25,2.23.48,3.11-.91,2.49-1.02,4.9.08,7.37l-.1,4.46-.03,7.52c0,1.91,1.2,4.59,1.01,6.41-.28,2.68-.28,4.48.2,7.07.43,2.35.37,5.04.47,7.55.18,4.83.94,9.37,1.59,14.08.57,4.12.98,7.9,1.86,12,.31,1.44-.02,7.59,1.33,7.46.3-.03,1.09-.63,1.12-.91l.36-3.66,1.09-6.94c.48-3.08.98-6.3,1.7-9.23.34-1.39.72-2.35.86-3.87.75-8.32,5.09-15.35.38-22.02,2.78-8.07-1-1.62,1.68-10.22.68-2.2.95-3.93,1.36-6.22l1.11-6.17c.55-3.08,2.22-5.6,1.39-5.3l-.92.34c-1.05.38-2.44.54-3.83.65l-3.04.24c-.34.03-1.34-.42-1.51-.74-2.77-5.09,4.55-7.1,8.29-10.7,1.39-1.34,2.05-2.15,4.14-2.55,3.41-.66,4.34-6.47,6.6-10.13.35-.57,2.26-1.1,2.7-.67s.86,1.2,1.33,2.02l1.81,3.22-2.78,8.01c-1.37,3.96,4.99,5.02,1.2,21.45-.32,1.38-.45,4.38-.64,5.73-.03.2.76.61.96.59l2.47-.23c7.82-.73,8.03-4.66,10.01-4,2.75.92,3.68,5.96,2.4,7.4-2.38.46-4.27,1.23-6.3,2.4-3.78,2.18-14.32,3.28-17.38,2.3l-.87-.28c-.18-.06-.32.73-.3.93l.11,1.23.08.87c.01.12.17.86.28,1.07,3.33,7.13,1.66,13.04,1.16,20.42l-.41,5.96c-.12,1.77-.23,3.49-.42,5.24l-1.28,11.72-1.42,15.79c-.33,3.67-.88,7.44-1.65,10.95-.51,2.32-1.35,4.34-1.56,6.75l-.91,10.54c-.23,2.66.4,5.48,1.88,7.57,2.24,3.17,2.23,5.24,3.22,4.84l1.22-.5,2.42-.92c1.51,3.71,1.86,6.77,2.49,10.46.36,2.11,1.08,4.32,1.19,6.53.32,6.38,8.82,18.79,8.69,15.1l-.04-1.23c-.12-3.42.11-8.43.48-11.56-.08.68-.33-4.46.38-9.39l1.91-13.33.42-2.6.56-2.46c.29-1.68.58-3.06.98-4.67,1.99-8.05,1.06-11.47,3.29-19.84.33-1.23.27-2.73.04-3.96l-1.42-.05-.48,1.53c-.05.17-.57-.2-.68-.34l-.56-.7c-.05-.06-.52-.44-.62-.51-2-.08-4.35.38-4.65-1.98-.11-.83-.91-1.97-1.65-2.85l1.4-8.07.41-6.25c.15-2.22,1.46-4.41.21-6.76l1.21-1.86c-.58-1.81,2.08-6.31,4.45-6.18,1.08.06,1.81,1.81,2.49,2.7,1.13,1.5,1.39,2.26.96,4.17-.71,3.13-1.33,6.38-1.65,9.58l-.56,5.64,1.71,1.58.43-2.28c.04-.21.46-.1.89.01,1.48,6.38,4.24-4.37,9.31-3.19,1.02.24,1.67,2.44,2.14,3.25.17.29,1.01.82,1.26,1.05.19.17.08.83-.05,1.05l-.47.78-.8,9.09c-.29,3.29-1.31,6.12-2.08,9.3l-4.69,19.41c-.38,1.57-1.05,2.86-1.7,4.42-.84,2.02-.79,4.91-1.52,7.03s-1.29,3.86-1.88,6.13l-1.71,6.52c-.05.21,1.19.86,1.3.67l2.54-4.23,4.86-7.51,2.69-4.13,5.05-7.92c1.17-1.84,2.19-3.39,3.02-5.51s2.04-4.25,3.04-6.41c3.26-6.99,1.63-4.83,5.79-12.59.86-1.61,1.08-4.44,3.5-8.13,1-1.53,2.41-3.51,3.15-5.07,1.14-2.41,1.8-4.02,3.66-6.05,1.28-1.4,1.76-4.27,2.97-5.91.42-.57,1.76-1.55,1.86-2.26.2-1.52,1.35-3.34,2.33-4.63.59-.77.78-3.27,1.76-3.69,2.41-1.03,3.18-3.29,4.32-5.23.76-1.29,2.49-2.06,2.66-4.03.11-1.21.97-2.51,1.81-3.47l.32-1.68c.13-.67.25-1.42.59-1.35l1.49.29,1.82-3.48c2.03-1.54,2.58-3.52,3.82-5.31l2.46-3.56c2.34-3.39,4.46-6.59,6.5-10.09.48-.82,1.42-2.18,2.2-3.13l5.77-7.14c1.25-1.55,1.2-4.21,3.44-5.26l1.88-.88c.47-.22.29-1.88.58-2.31,1.37-2,2.95-4.56,4.13-6.62l2.09-3.67c1.04-1.83,2.91-3.66,4.39-5.43,1.99-2.39,4.75-4.3,6.59-6.86.81-1.12,1.43-2.12,2.34-3.16l4.25-4.78,9.2-8.73c-.2.19,2.34-1.34,2.92-3.97l1.89-8.64c.38-1.72.59-3.21.85-4.89l1.23-7.84c.36-2.32.78-4.7.87-7.04l.63-15.3c.03-.83-1.47-1.73-1.78-2.35l-1.89-3.75c-.94-1.86-1.08-3.6-1.42-5.78-.38-2.45-1.85-5.08-2.56-7.57-.44-1.55-.82-2.67-1.42-4.22-.56-1.46-.18-3.91-.39-5.64l-.75-6.33-.87-6.58-.97-6.54c-.68-4.59-1.58-9.13-2.86-13.46l-2.66-8.96-1.34-4.01c-.71-2.13-1.89-3.6-3.01-5.59l-5.38-9.6c-.87-1.55-2.38-2.23-2.17-4.49.07-.78-1.48-1.87-1.88-2.5-3.88-6.09-4.18-8.16-8.04-13.49l-5.44-7.51-5.1-6.51-7.8-8.51c-1.44-1.57-2.47-3.24-3.89-4.7l-6.64-6.75-4.29-5.74c-1.17-1.57-2.51-2.53-3.65-3.97-1.6-2.03-2.89-3.96-4.34-6.11l-2.39-3.55-3.82-6.4c-.63-1.06-1.67-2.32-2.4-3.4l-4.3-6.36c-1.38-2.04-2.89-4.19-4.41-6.09-1.69-2.11-2.9-4.32-4.46-6.55-1.25-1.79-3.38-3.57-4.96-5.49-2.97-3.61-9.85-2.6-11.39-3.64-.72-.48.53-2.6,1.35-2.87.71-.23,2.02.11,3,.4l5.9,1.77c4.09,1.22,4.24,4.12,4.8,2.95.14-.28.47-.95.25-1.14l-.69-.63c-.06-.06-.59-.26-.78-.34-1.85-2.28-3.66-4.56-5.83-6.49-1.08-.96-2.2-1.83-2.92-3-2.3-3.75-3.73-2.89-3.99-4.82-.13-.95-1.52-1.66-2.45-2.5l-5.36-4.83c-.32-.29-1.43.49-1.45.84l-.07,1.2-1.27.78c-3.72-1.83-1.09-4.99-1.78-7.82l-4.54-3.07c-.82-.56-2.29-1.26-3.12-1.72l-1.31-3.83c-3.75-.55-5.64-8.5-4.48-10.25,2.56-3.88,9.33,2.74,10.12,6.22l5.82,4.17c1.48,1.06,2.33,3.18,2.76,5,.55,2.31,2.01,3.48,3.46,5.1l2.86,3.2c.18.2.94.41.98.17.03-.16.21-.87.29-1.02l.88-1.82c7.38-1.67,6.14,4.05,11.47,10.99,1.03,1.34,1.98,2.3,2.68,3.85.54,1.19,2.1,2.11,2.82,3.02l4.09,5.11c2.49,3.11,4.88,6.34,8.17,8.85,1.9,1.45,3.24,3.07,4.08,5.34l2.84,1.17c1.33,1.91,3.04,3,4.56,4.46,3.29,3.16,5.63,7.17,8.08,10.97l2.4,3.72,2.85,1.93,3.38,4.65c.67.92,1.33,1.77,2.1,2.53l4.52,4.49c.98.97,1.94,2.85,2.87,4.08l10.38,13.62,3.56,5.43,2.08,3.46,3.99,6.45,3.1,5.51c1.02,1.82,2.18,3.37,2.98,5.4,1.59,4.05,4.72,9.41,6.18,13.92l3.09,9.54c.43,1.33.8,2.71,1.08,4.18l1.21,6.43c.19,1.02.35,2.83.64,3.64,2.82,8.09.54,4.29,2.83,13.61l2.44,9.93c.43,1.75.5,4.06,1.14,5.74,2.58,6.83-.14,2.06,2.02,9.29s2.63,11.03,4.97,19.04c.38,1.3.6,3.12.87,4.52l2.04,10.97c.74,3.96.73,9.45,2.03,11.69.82,1.41.54,2.96.12,4.56-1.71,6.56-1.47,9.78-3.16,14.67-.15.45-1.22,1.57-1.07,2.06,1.08,3.66-2.1,2.83-1.03,6.07.1.3.69-.35,1.03-.72,2.65-2.01,5.11-4.05,7.71-6.26l7.55-6.43c.61-.52,2.03-1.14,2.7-1.65l2.94-2.21,5.62-4.8c3.5-2.99,8.12-5.1,9.18-7.36.34-.74,2.35-1.03,2.97-1.5l3.47-2.62,7.49-5.57c2.12-1.58,4.22-3.27,6.59-4.83l5.7-3.76c1.65-1.09,3.04-2.33,4.7-3.27l6.18-3.47c1.35-.76,2.89-2.84,4.53-3.13l2.06-.37c.4-.07.47-1.15.62-1.88,2.6-.8,5-1.82,6.92-3.83l4.88-2.05c.59-.25,1.59-1.77,2.24-1.88,2.7-.47,5.55-2.04,7.91-3.31l4.31-2.3,6.01-3.06c1.13-.58,3.02-1.04,4.28-1.55l4.39-1.77,4.79-2.56c2.27-1.21,4.42-1.86,6.72-2.98l8.09-3.93c1.37-.67,3.2-2.17,4.34-2.98.45-.32,2.41.03,2.35.57-.05.45-.5,1.02-1,1.6-4.58,5.28-2.12-.31-5.75,3.75l-3.62,4.05-1.59-1.14c-.22-.16-.82.47-1.15.72l-4.18,3.16c-1.3.98-4.06.6-5.29,3.2-.15.32.76.69,1.09.55.25-.1.91-.43,1.13-.58l1.6-1.02c1.18-.75,2.74-1.08,4.37-1.65.89-.31,2.34-1.61,3.3-2.09,2.72-1.37,5.05-3.17,7.66-4.74l4.13-2.47,7.88-4.63c6.78-3.98,2.82-5.62,8.71-6.51,7.69-1.17,7.87-4.89,13.33-6.86,1.17-.42,1.93-1.07,3-1.7l4.74-2.82c3.88-2.31,6.04-3.26,9.74-5.63,1.21-.77,2.32-2.17,3.7-2.75,2.67-1.14,4.49-2.96,6.48-5.08l5.06-1.43c.9-.25,2.53.86,2.9,1.68s.57,2.73.18,3.42l-1.97,3.5c-.14.26-.27,1.24-.29,1.51s.77.19,1,.02c.15-.11.57-.56.75-.64l3.04-1.31c2.67-1.85,5.42-3.38,8.36-4.75l1.56-.72c.21-.1,2.17,2.55,2.31,3.82.09.81-.62,2.35-1.46,2.79l-7.08,3.75c-.55.29-.99,2.26-1,2.87-.01.52,1.48,1.01,2.07.9l6.77-1.23c2.12-.38,4.14-.28,6.27.24l2.86-.91c.33-.03,1.28.3,1.5.07s.57-1.22.89-1.24l2.96-.18s.38.25.63.44l-.31.95-2.87,1.21c-.08.03-.8-.25-.92-.27l-.86-.14c-4.23,2.69-2.97,1.43-6.24,1.58l-.88.04-10.27,1.66c-1.22.2-2.29.05-3.33.31l-5.59,1.4c-5.81,1.45-1.72,1.02-9.48,3.49l-6.57,2.09c-1.55,1.67-3.09,2.43-5.31,2.74-.59.56-1.7,1.57-2.33,1.94l-5.13,3.02c-1.75,1.03-4.11.71-5.62,2.64-1.65,2.1,2.18,6.27,3.79,8.28.59.73-.29,2.53,1.73,2.86,1.73.29.68,4.42,7.43,6.46.26.08-.54,2.3.16,2.4l2.16.31c2.13.31-.83,1.42,4.95,2.59.49.1.45,1.57.28,2.3-2.11.22-5.53.07-7.43-1.36-3.23-2.44-6.2-4.73-9.05-7.47l-2.86-2.75-1.39-2.43c-2.06-.86-1.22-1.99-2.2-3.84l-2.27-4.31c-.23-.43-.93-1.68-1.42-1.47-3.64,1.63-2.93,4.04-9.17,1.56-1.8-.72-3.6.93-5.09,1.14-4.28.6-7,3.09-10.46,4.99-2.62,1.44-5.33,2.51-7.75,4.56-1,.85-3.05,1.43-4.14,2.25-1.37,1.03-2.2,1.28-3.91,1.8s-3.54,1.78-5.17,2.54l-3.13,1.44c-8.66,4-7.91,7.27-11.68,5.9-1.15-.42-1.8.61-2.9,1.08l-7.58,3.23c-3.63,1.55-6.64,3.78-10.15,5.45l-9.16,4.35c-2.56,1.21-4.61,2.9-6.84,4.51-2.09,1.51-3.82,2.52-3.84,5.3l-6.86,4.59c-.35.23-1.09,1.19-1.53,1.1-3.75-.79-7.56,4.34-8.94,7.02-.86,1.66-2.04.05-4.23,2.23-1.28,1.28-2.31,1.76-3.96,2.81-2.8,1.78-5.48,6.29-6.52,4.64-.26-.41-.54-.98-.77-.89l-1.2.42c-1.77.61-3.59,1.43-4.59,2.98s-3.18.88-3.93,1.61c-1.09,1.05-2.12,2.25-3.36,3.11-5.78,3.98-2.09,3.65-6.11,5.35l-3.18,1.35-2.38,3.21c-.35.47-7.71,5.77-8.75,7.33l-2.22.69c-3.72,2.47-5.65-1.48-6.02.48l-2.98,15.55c-.9,4.68-2.92,10.11-7.75,11.71l-1.96,3.53c-.21.38-1.36.86-1.58.52s-.35-1.5-.15-1.88l1.52-2.88c.14-.26.21-.85.22-1.1.12-2.33-6.05,4.08-6.1,4.13-1.21,1.16-2.51,1.92-3.68,2.82l-2.68,2.06c-.7.54-1.59,1.39-2.24,2.11l-3.81,4.14c-1.68,1.83-3.96,2.59-5.34,4.84-.48.78-1.87,2.02-2.68,2.68-2.68,2.2-3.74,4.94-6.68,8.41l-2.95,3.5-2.87,3.65c-1.42,1.8-3,3.65-3.09,5.99,0,.71,0,1.36,0,.88l-1.26-.69c-.66-.36-.97,1.8-1.46,2.38-.73.85-1.71,1.98-2.22,2.99-.89,1.76-2.1,3.34-2.79,5.02-2.72,6.64-3.13,4.63-5.13,9.5l-1.63,3.96-1.86,4.61c-.79,1.96-1.7,3.84-2.67,5.79-.73,1.46-5.2,13.49-3.9,14.97l7.32-6.68c3.69-3.37,6.1-4.88,10.31-6.64.76-.32,1.99-1.38,2.67-1.59l3.9-1.21c1.99,1.97,1.32,4.53.22,7.11l-2.56,5.98-4.43,6.59-6.06,7.44-8.57,11.25c-.46.6-.81,1.22-1.28,1.99l-4.02,6.58-1.63-.46c-.47-.13.44,1.32-1.38,4.2l-2.63,4.17c-1.71.67-1.9,1.14-2.5,2.8s-4.58,6.91-6.26,8.11c-.02,2.05-1.21,2.97-2.42,4.62.41-.56-7.41,11.49-7.47,11.6l-4.28,7c-1.01,1.65-2.01,2.25-2.52,4.38-.33,1.4-2.09,2.99-2.83,4.31l-2.56,4.62c-2.19,3.96-4.79,9.45-5.05,13.93-.03.6-1.08,2.04-1.64,1.84l-2.24-.77c-4.73-1.63.08-3.42-3.07-6.7-.43-.44-1.62-1.15-2.05-.9l-1.88,1.1c-2.31,1.35-3.63,5.97-2.92,8.07l6.78.16c2.12,1.63,4.21,2.86,7,3.24,5.06.68,13.93-4.5,13.86-4.49l4.1-.98.03-1.62c0-.37-.01-1,.25-1l1.17-.03c.92-.02,2.53-.69,3.5-1.29l6.68-4.14c3.62-2.24-.1-3.46,3.07-4.04,2.04-.37,3.49-2.19,5.19-3.18.74-.43,4.37-1.71,6.4-3.56l8.07-7.36c1.31-1.2,2.36-2.3,3.51-3.62.8-.92,2.63-1.38,3.04-2.98l2.84-1.55c1.35-1.72,2.87-2.19,4.56-3.58l3.67-3.04c1.74-1.44,3.71-2,8.3-6.89l2.94-3.13c3.72-3.97,4.6-2.75,8.31-7.34.52-.64,2.01-1.43,2.74-2l7.4-7.71c1.53-1.6,2.54-3.46,5.09-3.9l2.3-3.57c1.86-.66,2.19-2.8,3.22-3.66l2.86-2.38c1.11-.93,2.11-1.8,3.13-2.92l3.66-4.03c.29-.32,1.6-.53,1.69-.91.72-3.29,1.52-1.56,4.22-4.78,1.36-1.63,2.63-3.2,4.05-4.56l5.43-5.17c.48-.46,2.56-5.14,4.46-4.08,1.44-1.38,3.18-3.42,4.11-5.29.76-1.52,1.06-1.58,2.65-2.48,1.23-.7,2.58-2.51,3.8-3.59l2.32-2.06c1.9-1.69,2.99-3.37,5.04-4.77,2.46-1.68,3.15-5.7,7.91-6.88.38-.63.46.05.54,1.03l-.36.66c-.05.1-.34.35-.48.49l-2.26,2.25-15.31,14.61c-.76.72-2.13,1.64-2.61,2.36-1.25,1.89-2.34,3.22-3.84,4.77l-7.72,7.97c-1.75,1.81-4.09,3.26-5.25,5.56-.38.75-.66.97-1.59,1.47-1.14.61-2.29,2.76-3.48,3.38l-1.91,1c-.41.22-.26,1.86-.68,2.27-1.14,1.1-3.83,3.05-3.8,4.96,0,.57.08.96-.1.97-3.36.16-3.88,2.61-5.94,4.42s-3.8,3.45-5.57,5.49c-.44.51-1.59,1.33-2.02,2.02-1.16,1.89-2.79,3.58-4.73,4.66-2.06,1.15-2.78,3.7-4.07,4.73l-6.5,5.18c-1.92,1.53-3.28,2.78-4.8,4.84-1.18,1.6-4.09,2.57-4.81,4.49l-.45,1.19c-.05.14-.65-.2-1.09-.4l-4.05,4.25c-.82.86-2.62,1.97-2.87,2.94-.23.91-.14,1.71-.51,1.82l-1.45.42c-.84.24-2.57,1.12-3.29,1.67-.53.4-.56,2.28-.62,2.91l-2.21.77c-.24.08-.6.93-.6,1.18s.23.65.46.57c4.14-1.54,5.52-.06,10.48-1.68,1.33-.44,2.66-1.16,3.72-.53.67.4,1.55,1.77,1.71,2.41l-5.13,2.14-8.66,1.94-7.18,2.97-9.94,5.86c-2.42,1.43-4.62,2.87-6.6,4.82l-3.37,1.57c-1.83,2.46-3.77,3.99-6.57,5.08-1.63.64-2.94,2.09-4.32,3.06l-7.54,5.27c-1.28.42-3.77-.05-5.29.38l-9.22,2.59-2.49-.79-.51,2.03c-.06.23.15,1.11.37,1.09l1.16-.14c4.99-.6,1.24,2.97,8.87,1.16,3.07-.73,6.11-2.39,9.14-2.69l5.03-.49c7.54-.73,4.45-2.48,8.01-2.24,2.66.18,5.18.18,7.84.24l4.14.1,12.95-.15c5.05-.06,9.75-.12,14.8-.22l7.04-.13,4.19-.14,5.1-.46c1.03-.09,3.25.52,4.2.13,1.93-.8,3.4-.9,5.35.14l2.32-1.49c6.01.99,10.22-3.66,10.2,2.24,0,1.36,1.31,1.68,2.83,1.68,1.77,0,4.22.83,5.73.62,2-.28,3.15-.02,5.2.36,1.27.23,3.58-.71,5.24-.25,1.46.4,3.21.23,4.6.12l1.25.98c2.81-.23,5.54-.06,8.39.31l9.59,1.27,11.1,1.37,4.85.28,5.46.62c.57.07,1.33.24,1.99.48.71.25,2.38-.13,3.19-.02l13.45,1.83c.4.19,1.19,1.12,1.5.84l1.19-1.1,2.63-2.42c1.92-1.76,3.27-4.78,4.61-2.93.41.56-1.41.53-3.31,4.83-1.44,3.25,1.11,1.35,6.12,2.45,7.06,1.55,10.49-3.13,9.41-4.04-.26-.22-1.06-.79-1.4-.93l-4.33-1.83c-.36-.15-8.83-5.18-12.15-6.82-1.12-.55-9.28-5.23-6.58-6.25,8.03.19,9.2,1.6,16.41,5.63l4.24,2.37,5.06,2.82c1.1.62,2.75,2.24,3.98,2.42,1.75.25,2.8-2.63,3.93-3.05,2.32-.86,3.56-2.3,5.05-3.92,1.65-.7,5.78-3.8,6.75-5.44.42-.71,1.27-1.7,1.89-1.82,2.55-.48,3.42-2.2,5.02-3.66,3.42-3.12,4.28-3.57,7.74-6.24l5.94-4.58c2.34-1.81,4.84-3.45,7.18-5.33l8.35-6.71c1.56-1.26,3-2.19,4.49-3.52l4.14-3.72c4.32-3.88,7.59-7.79,10.77-12.57.89-1.33,1.79-2.04,2.36-3.84s2.04-3.28,1.6-5.74c-.36-1.98-.28-3.97.25-5.76l1.08.33c.58,1.23,1.06,2.15,1.8,3.2.69-1.8.92-2.77,1.47-3.99l1.63-3.58,2.11-4.79,2.38-5.63c3.23-7.66,2.85-3.84,5.04-12.53.62-2.46,2.22-4.78,2.5-7.4.21-1.95,1.37-3.95,1.87-5.85.46-1.74.64-3.14,1.52-4.56,3.09-5.02,1.47-4.54,3.75-10.68.48-1.29,1.1-2.85,1.45-4.13l2.6-9.76,1.57-5.4,1.65-8.46,2.27-6.84c.53-1.6.86-3.61,1.25-5.25l.23-.99c.06-.26,1.19-.43,1.2-.17v1.36c.03,5.17-2.73,9.81-3.34,14.79-.43,3.55-.88,6.8-1.6,10.39l-2.15,10.81c.62-.09.94-.79,1.42-1.5l3.9-5.8c1.12-1.66,1.92-3.09,2.94-4.76l5.58-9.13c2.43-3.98,3.14-5.81,5.23-9.1,1.41-2.2,2.83-4.29,3.94-6.69l4.12-8.88c.79-1.7,2.3-3.61,2.79-5.52l4.73-18.58c.18-.71,2.18-3.98,3.96-11.48,1.15-4.86,3.6-11.76,4.09-15.23.3-2.1,1.04-3.96,1.43-6.04l2.54-13.51c.5-2.67.66-5.12,1.18-7.65l1.68-8.09c1.31-6.31,2.11-12.49,1.79-19.03-.13-2.71.67-5.54.7-8.14l.08-9.86-.2-10.99c-.1-5.26,1.71-4.09-.72-12.16-1.58-2.05-2.85-3.58-3.24-5.97l-1.17-.45c-2.36-.92-1.76-4.43-.94-4.58l4.63-.86.67,1,1.62,3.51c.15.33.6.87.82,1.09.14.15.73-.05.75-.26l.17-1.29c.37-2.72.22-5.04-.25-7.7l-1.61-9.12c-.17-.98.32-3.11-1.47-3.16-.97-.03-2.29.91-3.43,1.77l-3.95-.38c-.28-.03-.93-.38-.81-.58l.51-.82,6.52-1.72.91-.23c.72-.18.77-.12.91-1.04-1.83-3.96-2.72-8.21-.69-12.12l.73-.27c.11-.04.76-.13.88-.13h1.05s1.01,0,1.01,0c.1,0,.75.17.82.24l.5.47.51.48c1.22,2.03,2.37,3.43,3.95,5.13-.3,1.64-3.15-1-3.96-.02-.44.52-.52,2.35-.34,3.01l.25.93.31,1.09c5.53,1.03,6.89-2.24,9.36-1.54.33.09.62,1.04.3,1.18l-1.48.68-2.89,1.59c-1.27-.17-3.22-.18-3.97.65-1.44,1.61,1.11,7.09,1.17,8.56l.21,5.06c.08,2.07.7,3.7,1.48,5.59.22,1.01-.12,3.33.01,4.37l.51,3.92c.8,6.18.81,9.2.08,15.67-.14,1.19.58,2.93.65,4.03.13,1.98.28,3.93.26,5.92l-.03,4.53-.08,7.4c-.01,1.22-1.94,3.37-2.01,4.63l-.39,7.28c-.09,1.62-.28,3.1-.56,4.7l-.97,5.67c-.25,1.45-.2,3.24-.38,4.8-.71,6.01-1.6,6.32-1.13,10.62l.59,5.43c.16,1.48-.01,2.94.33,4.45l.93,4.11c.47,2.07-.61,4.66.14,7.05.47,1.51-.34,3.92-1.04,5.42l-3.83.48c-2-2.66-2.87-5.88-4.09-7.56-.13-.18-1.38.44-1.51.94l-1.46,5.46c-.51,1.92-1.96,3.6.07,5.68.16.16.1.14-.85.54-2.47,2.6.11,1.11-2.7,8.19-.98,2.47-2.03,5.22-2.49,7.65-.28,1.45-.65,2.34-1,3.87l-1.01,4.46-2.22,5.39c-4.32,10.46-.61,8.04-5.54,14.9-.99,2.24-.75,5.63-1.48,8.06l-1.77,5.89-2.66,5.96c-1.52,3.4-2.31,7-3.99,10.24-.51.99-1.86,2.1-2.19,3.38-.88,3.46-1.56,7.24-3.91,9.87-3.45,3.86-1.46,3.38-5.96,8.15l-4.16,4.4c-.84.89-2.35,2.09-3.41,2.87l-3.8,2.79c-1.12.83-1.88,2.03-2.75,3.36-.53.81-2.09,2.2-2.14,3.07-.11,1.69-.27,3.29-1.01,4.66l-1.95,3.59c-.28.52-1.47,1.41-1.51,2-.29,4.51-1.94,3.56-1.94,3.55l-.38-1.37c.15-.05-.46.17-1.13.42-1.16.35,3.03,7-.35,4.55l-.54-.39c-.92-.67-.64,7-2.05,8.83l-1.53,1.98c-.65.84-1.1,2.84-1.55,3.85l-.86,1.96-3.42,5.85c-.2.34.66,1.06.89.84l1.38-1.34.06,2.1c.04,1.31-3.29-.15-3.78,2.27-.61,3-2.25,6.52-3.59,9.17l-1.97,3.89c.13,2.5-1.34,3.96-3.04,5.06,0,4.23-1.36,6.17-4.19,9.36-1.7,1.92-2.43,5.29-4.29,6.92-1.22,1.08-2.12,1.62-2.78,2.97-1.02,2.07-2.19,4.19-3.63,5.87-1.26,1.46-2.12,3.05-3.21,4.37l-3.11,3.75c-1.18,1.43-3.58,2.2-4.35,4.16l-3.24,1.03c-.98.93-1.84,1.77-3.4,1.28-.59-.19.31-1.37,1.03-2.01,4.72-4.16,8.67-10.47,12.33-15.54.52-.71,2.09-1.3,2.4-2.15.45-1.24.87-2.26,1.4-3.08l3.4-5.2,2.53-3.87c.99-1.51,2.15-3.1,2.72-5.04.14-.49-1.17-.89-1.45-.58-2.07,2.4.05,3.13-1.57,3.53-.86.21-2.35.39-2.54.94l-.85,2.56c-4.68-.69-2.74,3.66-5.19,3.39-.73-.08-2.29-.14-3.04-.08-.7.05-.84,2.11-1.41,2.61l-4.46,3.92c-1.51,1.33-3.27,2.65-4.97,3.88-1.89,1.36-4.4,1.77-5.8,3.9-3.08,4.67-5.33,2.98-7.15,6.86-1.25.76-3.49,2.08-4.71,3.08l-2.62,2.15-6.26,6.35-1.96-.2c-.66-.07,1.13,2.39-4.45,4.9l-.91.41c-.14.06-.08.48-.05.74l5.54,4.19c1.58,1.2,4.95,1.04,6.43,2.72,2.1,2.38,4.5,3.34,7.6,3.83,1.05.2,1.88,2.72,2.7,3.43,2.94,2.52,5.24,5.14,7.25,5.87l3.87,4.47c1.1,1.27.7,3.86,3.62,3.71-1.04-5.07-4.73-6.42-3.39-9.52,6.6,1.76,10.46,13.99,13.07,17.08l2.48,2.93c.53.63.76,2.33,1.46,3.08,2.67,2.86,4.19,5.96,4.82,9.87.21,1.3,1.7,1.93,2.85,2.78,1.55,1.14,1.93,4.36,2.96,5.85,1.47,2.15,2.67,3.64,3.15,6.34.37,2.04,2.47,3.75,3.16,5.73l2.33,6.7c.52,1.5,1,2.53,1.27,4.25s2.08,3.26,2.59,4.76c.44,1.27.74,2.94,1.09,4.37,2.47,10.27,1.82,1.63,4.35,8.87.5,1.44,1.5,3.57,2.15,4.7,1.42.78,2.2,1.55,2.56,2.93l1.74,6.76,1.25,4.78,1.62,5.79c.1.37,1.35.93,1.18,1.24l-.67,1.21c-.15.27-.39,1.01-.15,1.11l1.38.62c1.82.81.03,1.15,1.61,5.48l2,5.48,2.62,8.34c.9,2.88,2.02,5.49,3.17,8.4.88,2.23,2.31,9.03,2.46,9.25,1.51,2.23,1.82,4.68,2.35,7.2l.93,4.42,2.04.81c-.25,2.03.79,3.55,1.97,4.68-.42,2.79.22,5.78,1.17,8.45.85,2.4,1.39,4.76,3.48,6.38l.67,4.77c1.07.34,2.68.83,3.26,1.26l.67,4.82c.06.42-1.35,1.18-1.61.87l-1.16-1.44c-.16-.2-.69-.62-.89-.78-1.44-1.12-.3,5.09-.12,5.75l1.65,6.31c.27,1.04,1.23,2.76,1.65,3.71.83,4.57,2.3,8.6,4.27,12.76l3.24,6.84c1.39,2.93,2.88,5.75,4.43,8.62,2.43-.17,4.92.54,5.83,2.6s-1.44,4.12-1.62,5.87c-.48,1.41,1.34,8.39,1.25,8.41-.34.06-1.41.38-1.72.23-.8-.4-1.63-2.34-2.27-2.97-1.3-1.28-2.32-2.15-2.54-4.27l-9.78.95c-5.75.56-11.28-1.45-17.06-2.34-.29.28-.57.46-.45.58s.79.74.93.79l9.03,3.06c2.1.71,4.06,1.3,6.15,1.81l7.07,1.73,5.65,1.41c4.47,1.12,8.44,1.79,13.3,1.29s3.57-6.96,6.24-6.43c.78,1.5,1.8,3.98,1.97,5.41-1.13,1.59-1.55,2.65-1.83,4.49-.07.02-1.04.02-1.13.11l-1.9,1.83c-8.63.47-9.43.46-17.85-1.5l-2.69-.63c-4.48-1.04-7.93-2.56-13.04-3.97l-4.64-1.28c-3.33-.92-6.16-2.65-9.43-3.49l-5.56-1.43-4.78-1.77-9.61-3.51c-1.29-.47-2.74-1.03-3.98-1.41l-6.95-2.14c-4.42-1.36-8.9-2.6-13.45-3.38-10.37-1.78-23.87-7.12-32.87-6.1-1.07.12-1.79.79-2.98.3-2.37-.97-5.14.1-7.58-.04-7.23-.43-2.72,1.29-7.7.01-1.92.67-4.18.4-6.43.35l-12.42-.25-6.16-.27-12.19-.47-7.46-.63-8.32-.47c-5.26-.3-10.4-.47-15.57-1.58-1.16-.25-2.59-.18-3.52-.16-2.23-.39-4.45-.72-6.81-.97l-4.5-.48-13.56-1.33-8.46-1.01c-3.35-.4-6.59-.5-9.86-1.21-3.75-.81-7.56-.94-11.37-1.17l-2.09-1.59c-2.2.47-3.79.2-5.83-.24-1.13-.25-3.39.1-4.63-.21l-6.93-1.73c-1.5-.37-3.95-2.31-5.31-3.32l-5.48-4.09c-.87-.65-2.08-1.49-2.81-2.14l-4.26-3.79-3.18-2.83c-5.72-5.08-3.42-4.26-7.74-8.21-1.56-1.43-3.14-2.86-4.57-4.32l-3.54-3.62-3.56-3.88-3.6-4.41-6.9-7.61c-.96-1.06-1.88-2.41-2.9-3.51l-2.62-2.81-2.55-3.16-6.42-8-3.25-5.51-2.89,4.79c.83,4.52.05,9.26-.63,14.02l-1.08,7.6c-.44,3.12-.54,6.12-.75,9.3-.23,3.52-3.93.94-4.96,3.44-1.46,3.54-2.26,6.69-3.42,10.15-.46,1.37-1.73,3.16-2.35,4.55-1.24,2.79-2.8,4.98-4.49,7.51-1.24,1.85-1.83,4.56-2.91,6.66-.58,1.13-2.24,2.6-2.66,3.71-1.34,3.53-4.26,5.48-5.9,8.59l-2.73,5.16-3.65,5.58-7.11,10.73c-.49.73-2.35,1.66-2.61,2.51-.66,2.2-3.22,3.14-4.13,4.77-4.97,8.89-6.1,8.95-12.37,16.16-2.5,2.87-4.79,5.46-7.56,7.99l-6.26,5.74c-2.79,2.56-5.69,5.01-8.94,6.94-4.76,2.84-.19,1.08-5.48,4.47l-5.76,3.69c-2.87,1.84-5.96,2.76-8.84,4.74s-6.47,3.48-8.63,5.91l-7.58,8.52c-1.65,1.86-3.24,4.15-4.72,6.27-1.33,1.9-3.16,3.14-4.67,4.84-2.16,2.44-3.65,5.54-6.2,7.78-1.8,1.58-3.16,3.55-4.66,5.41l-5.35,6.63-3.23,3.14c-3.37,3.27-6.11,6.44-9.67,9.41l-8.7,7.26c-1.26,1.05-2.94,2.35-4.21,3.08l-7.11,4.09-6.72,4.57c-.97.66-14.75,5.97-15.19,6.08-2.46.61-4.29,1.02-6.41,1.79l-6.33,2.32c-1.5.55-2.79,1.12-4.25,1.84s-3.75,1.08-5.02,1.94c-1.63,1.11-2.86,1.79-4.54,2.64s-3.48,2.71-5.36,2.83c-1.63.11-2.86.28-3.09,1.65ZM673.37,213.38l-1.14-4.05-3.97-7.55-5.02-9.56c-.74-1.4-1.44-3.38-2.25-4.62l-4.01-6.18-2.27-3.63-2.68-3.79c-1.78-2.51-4.03-4.88-5.56-7.48-4.9-8.27-3.45-4.23-7.05-8.9l-4.57-5.94c-1.86-2.42-4.22-4.7-6.75-6.26-2.46-6.84-2.92-2.37-7.44-9.1-.98-1.45-2.65-2.58-3.68-3.71-4.88-5.37-4.62-3.6-10.33-10.66-1.12-1.38-1.7-1.93-3.2-3.1-1.03-.8-7.04-7.18-6.53-5.19.05.21.21,1.04.34,1.22l2.98,3.85,4.3,5.74c1.91,2.55,3.85,5.03,4.65,8.35,3.03,1.13,3.95,4.01,4.55,6.81,1.14.86,2.13,2.02,2.98,3.17,4.62,6.3,4.36,3.93,6.88,9.18,1.25,2.6,4.99,3.8,6.58,8.78,2.3,2.06,5.62,3.64,7.18,6.09,1.93,3.02,3.42,5.54,6.37,7.53,2.54,1.7,3.33,5.36,5.51,7.38.9.83,2.19,1.5,2.89,2.5l6.68,9.51,2.7,3.64,4.4,6.74c2.4,3.68,4.6,7.09,6.2,11.31.23.6,1.13,1.56,1.63,2.01.87-1.69.1-2.34-.39-4.09ZM454.37,198.43c.64-.93,2.38-1.78,2.5-3.05.24-2.62,2.6-3.87,3.51-5.83.99-2.14,1.63-4.12,3.13-6.04l3.74-4.8c.54-.54,1.41-1.13,1.74-1.64s-.03-2.23-.34-2.75l-4.67,5.7c-2.71,3.31-9.82,14.13-12.19,18.17l-1.89,3.23c-.86,1.47-1.51,3.18-2.25,5.23,2.55,1.38,3.8-3.98,6.71-8.23ZM875.47,247.38c4.59-1.51,8.53-3.81,12.74-6.01,1.87-.98,4.06-1.65,4.59-3.83-2.79-.33-3.83,1.61-5.62,2.53l-7.89,4.07c-1.59.82-3.47,1.12-3.82,3.24ZM757.3,307.3c3.51.34,9.8-5.06,13.56-7.25l4.44-2.58,6.73-3.93c1.87-1.09,3.72-1.92,5.68-2.92l3.64-1.86c3.7-1.89,7.13-3.79,10.9-5.51,9.22-4.22,7.93-6.41,11.05-7.77l5.99-2.6c.67-.29,1.99-1.02,2.13-1.65s-.02-2.17-.15-2.61c-1.45,2.23-2.2,2.5-4.05,3.34-5.75,2.63-4.69,2.87-11.66,5.67-8.58,3.45-4.09,3.24-9.95,5.1-1.03.33-2.6.89-3.42,1.35l-7.19,4.08c-1.16.66-3.48,1.19-4.39,1.89-1.32,1.02-2.68,2.18-4.06,3.03l-9.13,5.61c-.93.57-2.79,1.87-3.6,2.62l-6.54,6ZM401.97,363.91c.25-.61,1.06-1.6,1.09-2.24l.21-4.26c.07-1.35.26-2.5.48-3.97l.73-4.89c.04-.27-1-.67-1.09-.4l-.42,1.34c-.53,1.68-.92,3.25-1.28,4.95l-.92,4.41-1.56,7.56c-1.06,5.11-1.32,2.41-1.93,9.54-.05.55,1.06,1.8,1.48,1.49,1.6-1.2.89-8.01,3.2-13.52ZM663.7,389.49c3.75-2.49,6.87-4.42,9.78-6.99,1.98-1.74,4.03-3.4,6.48-4.49,4.73-2.1,4.36-6.6,5.47-10.23.51-1.68.98-2.91,1.03-4.82-2.98,2.01-4.95,4.26-7.29,6.76l-4.79,5.09c-1.24,1.31-2.23,2.11-3.09,3.54l-3.01,4.98-3.28.31-1.3,5.85ZM495.22,397.59l3.29,3.28c1.94-3.98,2.25-7.67,2.4-11.54.03-.68.42-2.26-.15-2.2-3.43.38-5.08,3.01-6.83,5.37-1.99,2.67-3.83,5.34-3.91,8.88,2.41.16,1.24-1.93,2.8-3.64.37-.41,1.91-.63,2.39-.14ZM436.42,418.09l-1.14-4.05c-.1-.37-.74-1.26-1.04-1.04s-.77,1.05-.8,1.48l-.68,10.05c-.1,1.51,1.2,2.47,2.51,2.79,1.05.26,2.41.35,3.09-.13,1.78-1.26-.76-4.94-1.93-9.1ZM372.92,428.04l-4.22-3.69c-5.56-4.86-4.78-1.53-5.48-5.24l-8.66-3.55-1.06.81,3.65,3.06c1.14.96,1.69,2.09,2.28,3.87l4.71,1.18c2.07,1.4,4.1,2.57,6.38,3.62l1.35,1.05c.31.24,1.37-.82,1.06-1.09ZM147.94,432.11c5.74-3.26,5.05-3.83,11.1-7.9,1.43-.96,2.68-1.47,3.33-3.04-1.37.11-3.37.32-4.25.86-1.37.94-2.41,1.62-3.73,2.39l-4.15,2.42-4.17,3.55c-1.96,1.67-8.58,2.26-8.98,6.77,3.69-1.04,7.54-3.17,10.85-5.04ZM499.95,440.43l-.78-8.68c-.08-.91-1.29-2.61-1.29-3.66,0-.94-2.37-3.46-4.5-1.9-.8.58.29,2,.38,2.86.52,4.86-1.5,13.84,6.14,16.86.12-1.83.22-3.66.06-5.48ZM898.21,466.36c-1.57,1.48-2.06,3.5-2.07,5.54,6.39-1.95,14.16-12.85,16.91-18.91l2.69-5.91c.96-2.12,1.69-4.29,2.57-6.53l4.81-12.34c-.87-.15-1.46-.3-1.58-.04s-.4,1.06-.57,1.34l-3.88,6.58c-1.1,1.87-2,3.57-3.23,5.13-.65,2.05-1.79,3.83-3.02,5.64l-2.83,4.18-2.3,3.15-4.62,6.37c-1.09,1.51-1.27,4.27-2.89,5.79ZM119.98,482.48l3.58-1.8,5.6-2.93,6.68-3.82,3.97-2.51,4.05-2.5,5.73-3.82,20.76-12.59c4.02-2.44,8.32-4.14,10.82-6.33-8.45-.58-9.95.26-18.67-.15-5.12-.24-2.23-1.14-11.55-1.32-2.82-.05-5.58,0-8.36-.46-6.19-1.02-8.9,2.5-12.05,4.85l-4.23,3.16c-2.46,1.84-4.6,3.86-7.22,5.46l-6.52,3.99c-.81.5-2.77,1.2-3.38,1.86l-3.23,3.43c-.73.78-1.65,2.79-2.54,3.29-2.94,1.66-5.13,3.77-7.35,6.29l-3.46,3.93-4.86,5.67c.71,1.5,2.66.48,4.09.56l17.16.95c1.67-.86,3.54-1.74,5.3-2.3,2.05-.65,3.73-1.95,5.67-2.92ZM499.39,454.26c-1.12-1.56-1.84-2.58-2.86-3.66l1.01,4.81c.08.39,1.11,1.42,1.22,1.04l.62-2.18ZM535.23,483.29l.95-7.28.56-5.46.91-8.94c.31-3.04,1.32-5.93.02-8.77-1.14,4.58-.48,7.07-1.42,10.39-1.7,6.03-1.86,12.26-2.66,18.43-.36,2.8-1.4,5.25.39,7.91.88-2,.95-3.93,1.26-6.28ZM597.54,495.35l5.51-5.38c.42-.41,2.46-.44,2.45-1.04-.02-1.25,1.04-2.76,2.27-3.39l1.63-10.32c1.34-2.05,1.8-4.25,2.32-6.67l.93-4.29c-2.52,2.86-3.7,5.72-5.36,8.68l-2.51,4.48c-1.09,1.94-1.83,3.84-2.68,5.83-.91,2.13-2.68,3.85-2.9,6.52-.34,4.02-4.26,4.36-1.65,5.59ZM461.85,523.13c-1.07-1.14-1.69-1.94-2.86-2.82-2.94-2.19,3.74-3.01.38-6.14l-3.13-2.91-4.16-3.87c-.92-.86-1.79-1.92-2.63-2.83l-4.6-4.92c-1.32-1.41-2.67-3.15-3.98-4.37-1.88-1.76-3.18-3.37-4.85-5.35l-2.47-2.9-6.64-7.9c-2.89-3.44-3.64-3.12-7.73-7.74-1.11-1.25-2.01-1.76-3.55-2.68-1.13-.67-2.34-2.54-4.01-2.71-.26.54.14,2.01.72,2.24,1.99.78,2.49,3.52,3.54,5.02l4.56,6.48,2.06,2.23,2.08,3.08,2.99,4.43c2.83,4.19,7.76,6.29,11.85,9.22l2.68,4.21-2.7.72,4.19,4.28,6.47,7.47c1.94,2.24,3.86,3.7,6.14,5.55l5.23,4.22c-.16,1.1,5.4,4.28,5.16,2.68-1.27-1.7-3.28-3.12-4.75-4.69ZM574.87,558.84l4.3-7.37c3.58-6.14,5.88-7.24,9.42-13.91,1.32-2.48,2.86-4.23,4.96-6.13l2.48-4.79c.96-1.85,1.65-3.25,2.86-4.75,2.83-3.52,3.67-5.13,6.53-8.96l3.4-4.54,3.89-5.67,2.23-3.25,2.34-4.54,5.34-7.55c2.04-2.89,4.38-5.67,6.87-8.42.85-.94,1.22-2.23,1.81-3.3l4.51-8.25c-5.95,1.42-3.38,1.94-7.3,4.77-.71.52-2.46,1.14-3.12,1.74l-7.48,6.92c-1.1,1.02-2.31,1.72-2.95,3.13-1.04,2.29-3.03,3.19-4.63,4.89l-2.87,3.04-4.81,5.3c-.84.92-2.25,2.06-2.92,2.9l-6,7.59-4.1,5.06c-1.29,1.59-4.52,11.64-6.06,14.4-.83,1.48-1.16,2.71-1.72,4.35l-4.21,12.22c-.84,2.43-1.58,5.24-2.01,7.8,2.22,3.72-4.22,4.27-.78,7.3ZM91.52,491.89l1.98-3.23c-6.22-.18-8.58-.63-11.7,4.73,3.83.73,4.83-1.19,9.72-1.5ZM102.05,489.97c-1.61-2.66-10.22.76-9.7,2.59,3.59-.04,6.59-1.03,9.7-2.59ZM446.55,492.64l-2.6-2.56c-.16-.16-.97-.44-1.2-.53s-.77.87-.65,1.08c.63,1.1,3.04,2.87,4.45,2.01ZM480.46,523.65l3.07,2.52c3.71.86-2.95-6.19-3.69-6.96l-2.94-3.05c-4.3-4.46-6.47-5.98-11.37-9.67l-6.34-4.77-10.45-7.66c-.28-.2-1.46.13-1.5.38s-.06.67.1.87,1.15.53,1.21.79c1.11,4.61,6.29,4.52,8.02,7.15,1.47,2.24,3.94,6.35,6.21,7.13.98.34,1.86,1.54,2.68,2.08,3.16,2.12,6.27,4.56,8.68,7.37,1.12-.07,2.21.2,3.02.91l3.3,2.89ZM531.14,565.21l.56,3.97c1.26-.42,2.23-.79,2.8-.89l6.16-.52-8.51-4.96c-4.4-2.56-7.57-6.23-11.32-9.67l-2.27-2.08-2.62-3.01-3.6-3.92-5.84-5.65-8.86-10.11-6.29-5.69c-.67-.61-1.85-1.53-2.26-.89,2,7.83,1.23,2.04,4.21,7.94.87,1.71,1.61,4.01,2.15,5.66,2.43,1.24,10.31,7.59,11.93,9.19l2.53,2.49c5.44,5.36,1.26,3.38,6.85,7.06,1.52,1,2.94,3.72,4.49,5.02l2.81,2.36c2.75,2.31,4.8,6.8,5.69,5.58l1.39-1.89ZM491.13,541.91c.85-4.01-2.4-5.21-4.33-7.06-1.3-1.24-2.12-3.81-4.64-2.41l3.93,3.93,5.04,5.54ZM568.37,554.17l1.52-3.87c.89-2.28,1.7-4.6,2.51-6.96l2.75-7.95c-2.93.75-2.94,3.93-4.19,6.07l-2.95,5.08c-1.73,2.97-1.7,12.86.36,7.63ZM513.59,558.28l-2.74-2.62c-2.93-2.8-6.92-7.43-8.86-9.1l-4.44-3.8,1.84,4.34c1.14,2.69,3.92,4.55,5.73,6.66,2.2,2.56,4.19,4.13,7.1,5.64,1.37.71,2.29,3.32,4.68,2.96-1-1.23-2.11-2.93-3.31-4.07ZM517.56,578.35c.91.46,3.13-.71,3.57-1.94l-2.83-2.64-1.59-1.46c-.31-.28-1.56.31-1.84.62l-2.53,2.75c-.23.25-.42,1.27-.09,1.28l1.41.03c1.21.03,2.3.56,3.91,1.36ZM545.89,574.66c.1-3.12-7.2-.8-8.49-.48-.64,2.72,8.43,2.4,8.49.48ZM477.31,595.48c2.56-.63,4.94-2.19,7.37-3.06,1.97-.71,4.08-1.11,5.94-2l3.14-1.51,7.07-3.51c-10.31-4.23-11.01-.29-15.9.8-7.31,1.63-3.44,1.79-9.39,4.59l-8.23,3.87c-.55.26-1.9,1.14-1.68,1.63l1.03,2.29,6.4-2.05,4.26-1.04ZM552.39,594.75c4.86,1.27,2.71-1.85,8.51-1.01,1.16-6.24.31-2.86-.07-7.92-.07-.89-3.24-.43-2.96.58.55.84,2.03,1.34,1.97,2l-.26,2.81c-1.36.35-3.57.48-4.69-.11l-5.34-2.81c-2.03-1.07-3.93-2.2-6.35-2.31l-.42,7.96c-.29,5.47,3.3-.84,9.6.81ZM581.34,685.55c.88,4.22,1.04,11.45,1.11,11.65.56,1.62.88,2.98,1.04,4.83,1.75,20.3,4.84,16.07,6.4,19.44,2.57,5.56,4.11,8.89,5.24,14.6l1.09,5.52c.44,2.24.67,4.53.96,6.84l-1.6,3.44-3.66.07c-.27,0-1.05.07-.99.27,1.34,4.52,11.12,12.85,15.14,16.73l4.06,3.93,3.36,3.09c.35.32.83,1.48,1.29,1.46l1.79-.08c.13,1.7,6.49,6.15,8.13,7.11l4.75,2.77c3.42,2,6.99,3.89,10.8,4.82,1.99-1.15.22,1.18,3.39,2.34l7.77,2.83,1.71.62,7.45,2.62c.94.33,2.13.95,2.95,1.47,3.72.6,7.65-.56,11.46-.29,2.21.16,5.04-.42,6.79-.1l5.74,1.05,11.38,2.58c1.8.41,4.39.52,6.09.81,1.36,1.48,2.64,1.34,4.52,1.72l8.65,1.75c2.71.55,5.66,1.81,8.3,1.79,2.25-.01,2.89.34,4.91,1.42,1.44.76,4.37.64,6.09,1.44,2.35,1.09,5.08.75,7.37,1.37,2.85.77,5.14.57,8.29.98l4,.52c3.16.41,6.47,1.99,9.76,1.45,2.13-.35,3.65-.05,5.63.34s3.86.61,5.6,1.64c1.42.84,2.89,1.32,4.47.82s2.8.61,4.04.9c2.44.55,4.79.97,7.08,1.63l7.77,2.23,5.16,1.67c2.65.86,4.5,1.42,6.98,2.82,3.99,2.26,7.32,1.58,11.34,3.05,3.09,1.13,5.92,1.13,9.05.74l7.44-.93c1.35-.17,2.11.08,3.14-.78,2.63-2.19,10.89-2.1,14.62-1.31l6.18,1.32,6.79,1.15,5.51,1.45,8.64,2.41,7.35,2.25,8.67,2.44c4.08,1.15,8.19,1.5,12.41,2.2,1.84.3,4.6,1.95,6.4.66,1-1.2-.45-1.86-2.18-6.06l-6.25-15.13c-.68-1.65-1.15-3.51-1.64-5.14l-2.98-9.9-1.13-3.92-2.86-10.44-1.44-5.08-2.13-7.1-2.97-10.69-2.11-7.3c-.46-1.59-.79-3.03-1.15-4.81-.67-3.35-1.87-6.65-2.95-10l-1.3-4.03-4.12-11.69-2.87-8.68-1.86-5.26c-.51-1.44-1.32-3.28-1.68-4.63-.86-3.21-1.92-5.66-2.96-8.72l-2.82-8.25c-.64-1.88-1.41-3.25-2.08-5.1l-2.1-5.81-2.06-5.54-2.29-6.17c-.51-1.37-1.37-2.94-2.04-4.31l-.37-.75c-.06-.13-.88.51-.85.65.17.96.91,2.52,1.36,3.78l1.87,5.21c.7,1.95,1.56,3.43,2.09,5.45.46,1.76.76,3.42,1.1,5.18.47,2.42,2.49,4.77,2.25,7.26l-1.43-.22c-.61-1.39-1.52-2.94-1.85-4.04l-1.51-5.09c-1.21-4.1-4.06-10.43-3.97-10.11l-1.24-4.19-2.94-6.57c-3.05-6.82-4.81-10.95-8.53-17.44-1.31-2.3-2.46-4.51-3.91-6.67l-7.04-10.53c-1.37-2.05-3.09-3.9-4.64-5.85l-2.25-2.86c-1.53-1.94-3.16-3.72-4.89-5.59-1.31-1.43-2.48-3.17-4.02-4.51-8.71-7.63-6.12-3.88-14.46-10.71-1.03-.85-3.39-1.69-4.75-2.53l-5.3-3.26c-1.93-1.19-3.35-1.39-5.16.34l-.83.8c-.83.8,3.74-.25,3.7,1.28l-.07,2.74c-.47.86-1.05,1.36-.83.13l-.94-1.83c-.18-.35-1.32.58-1.66.8-3.48-1.49-7.01-.03-10.41,1.81l-2.89.06c.62,1.8-8.96,2.15-10.47,1.23l-4.77-2.91c.12-1.25.27-2.6-.25-3.16-.74-.79-2.3-.62-3.35-.72l-26.97-2.59-9.95-1.33c-6.57-.88-12.95-.77-19.5-1.51l-6.07-.68-13.07-.2-15.44-.67c-10.65-.46-17.59,1.73-21.6,1.53l-12.11-.6-8.13-.49c-10.73-.65-8.91.56-19.63.19l-4.09-.14c-2.11-.07-3.93.34-6.1.69l-3.07.49-3.89.95c2.28,1.15,3.97,3.01,4.7,5.59l2.65,9.36c.99,3.48,2.89,6.2,4.71,9.2,1.6,2.65,2.99,5.29,4.82,7.79,2.61,3.55,6.1,8.39,7.12,12.53,1.14,1.15,3.06,2.44,3.93,3.96l5.11,8.93c1.57,2.74,3.51,4.97,5.57,7.28.85.95,1.55,2.32,2.69,2.98,1.74,1.01,2.01,2.63,2.89,4.25.54.99,1.35,2.44,1.87,3.67.28.67,1.93.67,2.73.51l.37,2.6c2.08,1.08,3.64,2.29,5.01,4.16.72.98,2.45,2.34,3.17,3.14.35.38.34,1.86.53,2.33s1.37.56,2.01.94c1.96,1.16,3.88,3.11,5.44,4.58l1.57-.75c.14,2.36.65,3.56,2.58,3.98,1.64.35,2.02,2.69,2.94,3.32l2.97,2.05c6.38,4.4.77,1.29,7.13,6.07.96.72,1.36,1.35,1.82,2.81l3.63.16c1.34,2.45,3.06,3.91,5.86,4.32,1.56.23,2.54,1.57,3.79,2.53,1,.77,3.18,1.38,6.46,3.65,1.07.74,3.94.99,4.79,1.98,1.33,1.56,2.17,2.19,4.46,1.95,1.15.44,3.12,1.33,4.39,1.95l4.13,2.01c1.97.96,4.88,1.63,6.96,1.86.69.08,1.58,1.72,2.21,1.64.53-.07,1.66-.46,2.27-.64l6.74,2.18,7.06,2.01c1.63.46,2.93-.46,3.63,2.25l1.63-1.49c1.72.85,3.67,1.68,5.45,2.14,4.38,1.11,7.2.2,6.97,3.54-2.63-.4-5.11-.93-7.72-1.57-2.07-.51-5.19,0-6.97-1.07s-3.31-.32-4.93-.69l-12.07-2.74c-3.1-.7-6.19-2.41-9.15-3.25-6.88-1.95-6.9-2.94-14.05-5.2.62,4.73,2.98.28,5.25,5.98h2.85c.61,0,.98,1.84,1.49,2.19l3.47,2.38c2.04-.99,3.35.07,4.76,1.37l2.74,2.54,1.97-.78.89,2.6c2.48.29,4.43,1.26,6.15,2.61l2.73-.22c1.05,3.29.21,1.64,3.44,4.1.17.13,0,.89-.21.84s-.97-.23-1.22-.34l-4.76-2.21-6.44-3.15c-.67-.33-1.82-1.22-2.5-1.7-2.42.09-3.91-2.01-4.93-3.98-1.6.23-3.7.29-5.06-.54l-5.32-3.23c-2.96-1.8-5.71-3.43-8.3-5.72l-3.48-3.08c-3.63-.35-5.35-2.89-7.89-4.46l-6.86-4.26c-3.7-2.3-3.22-3.61-7.25-6.2-2.94-1.89-6.77-4.47-9.21-6.86l-2.77-.86-.57-1.89c-.1-.34-1.27.17-1.64.19-.77-1.77-1.96-3.68-3.78-3.78-.27-.73-1.06-2.26-1.8-2.31l-2.84-.17c-.87-2.85-3.73-4.68-6.33-5.83-.2-1.8-1.55-2.65-2.92-3.81-1.18-1-8.97-9.6-9.26-10.03l-3.85-5.68-2.43-3.1c-.72-.91-1.75-2.11-2.42-2.89-.46-1.45-.98-3.02-1.81-4.27l-3.87-5.81-2.28-3.01c-.49-1.76-1.69-3.6-2.89-5.27-1.27-1.77-2.48-4.29-3.65-6.24-.32-.53-.24-2.29-.8-2.53l-1.95-.83-2.15-3.29c-3.53-5.4-1.72-3.3-5.42-8.22-3.04-4.04-4.06-7.42-5.65-12.09-.99-2.9-.94-5.92-3.38-8.47l-.82,5.89c-7.6,2.73-8.92,1.72-13.72-1.75l-5.22-3.77.67,11.5c1.45-.57,2.77-1.04,3.53-.8.71,1.37,1.36,3.74,1.14,4.97-1.88,3.41-1.97,7.04-1.26,10.75l3.53,18.38c.41,2.14,1.84,3.71,1.49,6.15-.4,2.73.44,5.41.72,8.07l.79,7.6c.44,4.2.98,8.16,1.58,12.28.26,1.77.34,3.57.76,5.56ZM468.24,610.84c3.28-1.37,7.16-1.81,10.32-3.48,1.4-.74,2.59-1.35,4.23-2.05l5.88-2.5c1.69-.72,3.56-.11,4.3-2.43-6.94.2-13.18,1.35-18.82,3.31-1.63.57-3.37.6-5.18,1.61l-10.6,5.99c-3.06,1.73-5.67,3.48-8.65,5.62,6.93-1.43,12.65-3.62,18.52-6.07ZM433.09,621.51c2.05-.48,3.7-.99,5.69-1.68,1.07-.37,3.57,0,4.55-.47l4-1.9-2.5-.93c-.3-4.09,4.4-4.01,3.51-6.74-.6-1.86-.32-2.7.14-5.04l-5.42,3.13-4.19,2.37c-1.5.85-3.1,1.96-4.36,3.05l-2.11-.24c-.46-.05-.94,1.24-1.41,1.42-1.21.47-2.17,2.01-3.18,2.75l-11.14,8.26c3.78-.52,6.8-1.72,10.11-2.5l6.29-1.48ZM398.56,628.8c1.45-.55,2.31-.91,3.63-1.68-1.7-.34-2.58.19-3.9.5-2.6.6-5.25.82-7.24,2.77,6.88.27,4.47-.44,7.5-1.58ZM406.43,633.92c1.91-.24,3.7-.37,5.27-1.03l4.83-2.03c.3-.13.8-.49,1.03-.69.15-.13-.17-.67-.37-.72s-1.07-.09-1.29-.03l-10.31,2.71c-1.78.47-3.33,1.4-4.8,2.64,2.1.15,3.68-.61,5.64-.85ZM366.79,649.38c2.87-.3,4.08-2.03,4.49-4.99l1.02,2.03c.15.31,1.28-.3,1.56-.52l7.69-5.99-.08-4.29c-3.63-.07-5.39,3.33-8.03,4.66-3.17,1.6-6.35,2.51-8.94,5.23-1.98,2.07-5.12,2.15-7.35,4.87l9.64-1ZM396.65,640.12c-4.45-.7-8.28,1.03-10.97,4.36,2.11.13,10.72-1.64,10.97-4.36ZM577.18,717.47c.78-.63,3.81-1,3.53-2.37l-1.56-7.62c-1.05-5.14-1.43-10.11-1.91-15.29-.27-2.87-.75-5.82-.6-8.48-.22-.17-1.09-1.29-1.08-1.77l.19-7.2c-.47-.99-1.42-2.74-1.59-3.71l-.62-3.42c.01-2.11-.32-4.06-.59-6.21-.41-3.19-.64-6.29-1.25-9.44l-.97-5.01-.29-1.5c-.06-.3-.85-.32-.89-.02l-.22,1.72c-1.21,9.52-2.02,16.1-2.16,25.91l-.16,11.37.98,8.88c.13,1.15.76,2.74.73,4.12-.11,3.98,1.15,9.02,2.38,12.83l1.71,5.32,1.4,4.58c2.22.74,2.09-1.95,2.98-2.68ZM273.08,655.18c-4.18-1.3-6.38-3.19-9.75-3.05-1.4-1.39-2.98-2.44-5.5-1.35.54,1.31,1.44,1.9,2.66,2.67l15.56,9.77,11.31-2.07c-7.31-2.23-7.96-4.01-14.28-5.98ZM581.37,722.05c0-.3-.86-.85-1.11-.67-1.74,1.26-.38,4.01.05,5.63.47,1.77-.1,3.45,1.68,4.49,1.01-2.49-.48-3.68-.62-9.45ZM593.36,745.5l-1.85-6.69-.48-2.71-2.31-8.25c-.39-1.37-.75-3.17-2.79-2.6,2.07,9.06-.75,7.55,1.27,15.33.75,2.91,1.86,3.13,6.17,4.93ZM671.62,816.47c-8.13-2.53-4.86-2.34-12.6-4.69-1.94-.59-3.74-1.07-5.71-.59-.46-1.39-1.37-1.96-2.74-2.3l-7.3-1.78c-1.12-.27-2.53-.99-2.88-2.14-.23-.75.49-2.25,1.06-3.2l5.7-.57c-2.81-1.56-5.05-2.24-7.77-3.3-3.35-1.3-6.53-3.38-9.82-5.05l-6.27-3.19c-1.04-.53-2.15-1.69-3.15-1.01l4.31,4.43,2.71,2.71,9.9,9.86c.84.84,1.06,2.08,2.75,2.78,1.07.45,2.9,1.75,3.67,2.52l3.03,3.04c4.83,4.84,8.37,7.26,14.78,5.93l5.84-1.21,1.99.17,2.5-2.42ZM290.15,800.77c.39-2.37.4-4.12.33-6.23-.52.09-1.41.48-1.38.83l.12,1.23c.23,1.55.31,2.84.93,4.17ZM695.15,809.04c-2.61-1.21-5.02-1.39-7.49-1.99-3.07-.75-10.3-2.43-13.86-1.24,3.75,1.32,7.43,2.36,11.29,2.91l3.48.49c2.13.3,4.23.07,6.58-.17ZM784.22,831.01l10.33.31c-.69-2.55-6.61-4.27-9.57-.82-.31-1.7-.47-3.41-.61-5.26-4.61-2.25-10.07-3.09-14.93-3.28l-.6-1.42c-.1-.23-.99.65-1.24.63l-5.04-.45c-1.64-.15-4.06-.28-5.49-.53-1.59-.28-1.25-1.25-9.56-1.99-1.09-.1-2.86,0-3.74-.2l-3.73-.85-12.99-3.19c-1.62-.4-3.53-.34-4.8-1.25-.54-.39-2.33-.72-2.85-.36s-.99,1.11-1.67,2.11l-8.29.61c-6.21.46-12.76.26-18.81-.18-.55-.04-1.53.45-1.64.81-.09.27.2,1,.48.99l1.36-.03c.76-.02,2.09.72,3.04,1.01,3.45,1.08,7.01,1.93,10.63,2.42,2.34.32,4.32,1.54,6.55,1.72l8.01.65c-1.1-.09,16.76,2.15,16.89,2.16l25.07,3.64,6.07.48,5.06.98c.76.15,2.29.2,3.19.3l8.89.97ZM756.4,833.85c-2.47-2.93-5.83-2.32-8.89-2.54l-5.69-.42c-1.13-.08-2.28-.69-3.51-.77-8.77-.52-13.85-2.46-17.2-2.62l-4.35-.2c-7.1-.33-13.81-2.01-20.77-3.71l-4.54-1.11-10.14-2.79c-3.91-1.07-8.25,1.27-11.87,2.74,2.35,2.88,3.05.5,11.54,3.15,3.43,1.07,6.91,1.29,10.46,1.73l9.3,1.15,4.13.48c3.27.38,5.89.36,10.09.9l20.84,2.67c1.67.21,3.2.23,4.94.34l15.67.99ZM804.76,835.46c1.88-.23,3.17-.35,4.7-.73-2.45-1.79-4.67-2.62-7.3-3.39l-1.29,4.59,3.89-.47ZM907.81,850.82c7.18,3.05,9.2-.22,15.76.5l1.16.18c1.66.26-1.03-2.75-11.21-2.87-1.89-.02-3.19-.29-5.02-.69l-12.02-2.68c-3.88-.86-7.37-2.12-11.16-3.31l-14.77-4.6-5.48-1.26c-1.2-.28-3.19-.02-4.44.15-3.41-1.78-7.54-1.97-11.18-.41-1.59.68-3.79-.81-4.98,1.64l5.9,1.07,6.11,1.19,8.23,1.82c4.23.94,5.98.47,9.09,1.67,10.58,4.09,6.88.89,15.78,4.29.84.32,2.18.94,2.9,1.28,1.78-.14,3.91.04,5.71.44l5.93,1.33c.81.18,2.78.17,3.67.27ZM308.43,849.25l-2.71-7.22c-.11-.29-1.08-.5-1.39-.56-.2-.03-.32.93-.21,1.13,3.75,6.62-.7,6.3,5.2,11.64.56-1.64-.09-2.85-.89-4.99ZM311.64,863.4c1.04-2.59-.09-5.23-2.11-6.58.02,2.51.79,4.59,2.11,6.58Z"/>
  <path d="M399.76,831.29c-1.49,3.44.06,8.29-3.83,12.74-.31-2.9-.1-5.41.43-7.86l.9-4.17,1.27-2.36c-.7-1.89-.22-3.08.54-4.64l7.52-15.51c.38-.79,3.56-5.75,4-6.92,1.31-3.49,3.49-6.01,5.33-9.18l5.86-10.07c.88-1.51-.28-2.57,4.01-4.5.18-.08.36.25.97.85-1.16,1.84-2.3,3.33-3.68,4.97-5.08,6.01-3.02,6.59-7.85,13.14-3.8,5.15-1.95,5.74-4.22,7.74-1.15,1.01-1.31,2.61-2.01,3.75-.9,1.46-2.14,2.84-2.83,4.55l-2.6,6.48c-.83,2.07-2.57,4.32-2.77,6.64-.15,1.82-.38,2.82-1.05,4.36Z"/>
  <path d="M217,516.48l-4.98-3.53c-1.97-1.4-4.45-2.53-5.96-4.42-2.62-3.3-3.06-.64-4.76-2.07-.2-.17-.19-.74,0-.91s.97-.5,1.28-.51l3.87-.13c.5,2.59,1.6,3.93,4.25,3.97.72.01,1.66,1.07,2.39,1.63,4.36,3.36,4.99,2.66,5.26,6.14.03.36-1.06.04-1.36-.17Z"/>
  <path d="M433.08,768.09c-3.69,5.57-.83,7.5-5.9,8.02.38-3.8,2.68-5.65,4.92-9.11l4.38-6.76c.15-.22,1.04-.53,1.09-.33.07.26.16,1.15-.02,1.42l-4.48,6.77Z"/>
  <path d="M514.37,347.19c.93,2.61-.32,4.83-2.27,5.72l.63-7.38c.43-5.1-1.3-8.5,0-9.22.42-.23,1.62.81,1.65,1.29l.31,5.74c.05.97-.73,2.67-.31,3.86Z"/>
  <path d="M450.17,741.14l-3.69,5.04c-1.76-1.94.78-3.11,1.66-4.57l7.24-11.98c1.42,2.27-.1,4.35-1.36,5.96-1.36,1.74-2.41,3.58-3.85,5.55Z"/>
  <path d="M515.52,384.57c-3.6,7.73,1.11,9.68-1.63,13.52l-1.94-4.38c.87-3.26,1.14-6.62.07-10.19,1.14.2,2.3.56,3.5,1.05Z"/>
  <path d="M514.77,381.16l-1.52-2.46c-.95-1.54-1.53-2.99-1.07-4.69l3.26.67c.14,2.2.06,4.1-.68,6.48Z"/>
  <path d="M752.59,431.99c-.35.63-4.38,3.28-4.73,2.22l2.34-3.05c.46-.61,1.38-1.78,2.15-1.38.46.24.5,1.75.25,2.21Z"/>
  <path d="M743.32,439.98l-3.89,3.51c-1.23-2.85,4.65-6.49,4.4-4.65-.03.24-.29.95-.51,1.15Z"/>
  <path d="M515.39,356.56c0,1.96-.21,3.57-1.32,5.22l-1.45-4.62c.46-.27,1.82-.55,2.77-.61Z"/>
  <path d="M761.19,423.83l-3.88,3.08c-.23-1.35,1.34-4.58,3.77-4.51.34,0,.38,1.23.11,1.44Z"/>
  <path d="M440.16,753.98c.93.44,1.51,3.82-.86,4.75-.28.11-.77-1.03-.65-1.3l1.51-3.44Z"/>
  <path d="M194.35,498.2c-.4.12-1.75.13-2.32-.01s-.57-1.95.03-2.3c.68-.2,1.62,1.01,2.29,2.31Z"/>
  <path class="cls-1" d="M581.34,685.55c-.42-1.99-.5-3.79-.76-5.56-.6-4.11-1.14-8.08-1.58-12.28l-.79-7.6c-.28-2.66-1.11-5.35-.72-8.07.35-2.44-1.08-4.01-1.49-6.15l-3.53-18.38c-.71-3.71-.62-7.34,1.26-10.75.22-1.24-.43-3.6-1.14-4.97-.76-.24-2.08.22-3.53.8l-.67-11.5,5.22,3.77c4.8,3.47,6.12,4.47,13.72,1.75l.82-5.89c2.44,2.55,2.39,5.56,3.38,8.47,1.59,4.68,2.61,8.06,5.65,12.09,3.71,4.92,1.89,2.82,5.42,8.22l2.15,3.29,1.95.83c.56.24.49,2.01.8,2.53,1.17,1.95,2.38,4.46,3.65,6.24,1.2,1.68,2.4,3.51,2.89,5.27l2.28,3.01,3.87,5.81c.83,1.25,1.35,2.82,1.81,4.27.67.77,1.7,1.97,2.42,2.89l2.43,3.1,3.85,5.68c.29.43,8.08,9.03,9.26,10.03,1.36,1.16,2.71,2,2.92,3.81,2.6,1.15,5.45,2.97,6.33,5.83l2.84.17c.74.04,1.53,1.58,1.8,2.31,1.82.1,3.01,2.01,3.78,3.78.37-.02,1.53-.53,1.64-.19l.57,1.89,2.77.86c2.43,2.38,6.27,4.97,9.21,6.86,4.03,2.59,3.55,3.9,7.25,6.2l6.86,4.26c2.53,1.57,4.25,4.11,7.89,4.46l3.48,3.08c2.59,2.29,5.33,3.92,8.3,5.72l5.32,3.23c1.36.83,3.47.77,5.06.54,1.02,1.98,2.51,4.07,4.93,3.98.68.49,1.84,1.38,2.5,1.7l6.44,3.15,4.76,2.21c.25.11,1.01.3,1.22.34s.38-.71.21-.84c-3.23-2.46-2.39-.82-3.44-4.1l-2.73.22c-1.71-1.35-3.66-2.32-6.15-2.61l-.89-2.6-1.97.78-2.74-2.54c-1.41-1.31-2.71-2.36-4.76-1.37l-3.47-2.38c-.51-.35-.88-2.2-1.49-2.2h-2.85c-2.28-5.69-4.64-1.24-5.25-5.97,7.15,2.25,7.17,3.25,14.05,5.2,2.96.84,6.05,2.55,9.15,3.25l12.07,2.74c1.61.37,3.19-.35,4.93.69s4.9.57,6.97,1.07c2.61.64,5.09,1.17,7.72,1.57.23-3.35-2.59-2.43-6.97-3.54-1.78-.45-3.74-1.29-5.45-2.14l-1.63,1.49c-.71-2.71-2-1.79-3.63-2.25l-7.06-2.01-6.74-2.18c-.61.18-1.74.57-2.27.64-.62.08-1.52-1.56-2.21-1.64-2.07-.24-4.98-.9-6.96-1.86l-4.13-2.01c-1.28-.62-3.24-1.5-4.39-1.95-2.29.24-3.13-.4-4.46-1.95-.84-.99-3.71-1.23-4.79-1.98-3.28-2.27-5.46-2.88-6.46-3.65-1.24-.96-2.23-2.3-3.79-2.53-2.81-.41-4.53-1.86-5.86-4.32l-3.63-.16c-.46-1.47-.87-2.1-1.82-2.81-6.36-4.78-.75-1.67-7.13-6.07l-2.97-2.05c-.91-.63-1.3-2.97-2.94-3.32-1.93-.42-2.43-1.62-2.58-3.98l-1.57.75c-1.56-1.48-3.48-3.42-5.44-4.58-.65-.38-1.82-.46-2.01-.94s-.18-1.95-.53-2.33c-.72-.8-2.45-2.16-3.17-3.14-1.37-1.87-2.93-3.08-5.01-4.16l-.37-2.6c-.8.16-2.45.16-2.73-.51-.52-1.23-1.33-2.67-1.87-3.67-.89-1.62-1.15-3.24-2.89-4.25-1.14-.66-1.84-2.03-2.69-2.98-2.06-2.31-4-4.54-5.57-7.28l-5.11-8.93c-.87-1.52-2.79-2.82-3.93-3.96-1.02-4.14-4.52-8.98-7.12-12.53-1.83-2.49-3.22-5.14-4.82-7.79-1.81-3-3.72-5.72-4.71-9.2l-2.65-9.36c-.73-2.58-2.42-4.45-4.7-5.59l3.89-.95,3.07-.49c2.18-.34,4-.76,6.1-.69l4.09.14c10.73.37,8.9-.84,19.63-.19l8.13.49,12.11.6c4.01.2,10.95-1.99,21.6-1.53l15.44.67,13.07.2,6.07.68c6.55.74,12.93.63,19.5,1.51l9.95,1.33,26.97,2.59c1.05.1,2.61-.07,3.35.72.52.56.37,1.91.25,3.16l4.77,2.91c1.51.92,11.09.57,10.47-1.23l2.89-.06c3.4-1.84,6.93-3.3,10.41-1.81.34-.23,1.48-1.15,1.66-.8l.94,1.83c-.21,1.23.36.73.83-.13l.07-2.74c.04-1.53-4.53-.48-3.7-1.28l.83-.8c1.81-1.74,3.23-1.53,5.16-.34l5.3,3.26c1.36.84,3.72,1.68,4.75,2.53,8.34,6.84,5.75,3.09,14.46,10.71,1.53,1.34,2.71,3.09,4.02,4.51,1.73,1.88,3.36,3.65,4.89,5.59l2.25,2.86c1.54,1.96,3.26,3.8,4.64,5.85l7.04,10.53c1.44,2.16,2.59,4.38,3.91,6.67,3.72,6.49,5.48,10.62,8.53,17.44l2.94,6.57,1.24,4.19c-.1-.33,2.75,6.01,3.97,10.11l1.51,5.09c.33,1.11,1.24,2.66,1.85,4.04l1.43.22c.24-2.49-1.78-4.85-2.25-7.26-.34-1.75-.64-3.42-1.1-5.18-.53-2.02-1.39-3.5-2.09-5.45l-1.87-5.21c-.45-1.26-1.19-2.82-1.36-3.78-.03-.14.79-.78.85-.65l.37.75c.68,1.37,1.53,2.94,2.04,4.31l2.29,6.17,2.06,5.54,2.1,5.81c.67,1.85,1.44,3.22,2.08,5.1l2.82,8.25c1.05,3.06,2.11,5.51,2.96,8.72.36,1.35,1.17,3.19,1.68,4.63l1.86,5.26,2.87,8.68,4.12,11.69,1.3,4.03c1.08,3.34,2.28,6.65,2.95,10,.36,1.78.69,3.21,1.15,4.81l2.11,7.3,2.97,10.69,2.13,7.1,1.44,5.08,2.86,10.44,1.13,3.92,2.98,9.9c.49,1.63.96,3.49,1.64,5.14l6.25,15.13c1.73,4.2,3.18,4.86,2.18,6.06-1.8,1.28-4.56-.36-6.4-.66-4.22-.7-8.33-1.05-12.41-2.2l-8.67-2.44-7.35-2.25-8.64-2.41-5.51-1.45-6.79-1.15-6.18-1.32c-3.72-.8-11.98-.88-14.62,1.31-1.03.86-1.8.61-3.14.78l-7.44.93c-3.12.39-5.96.39-9.05-.74-4.01-1.47-7.35-.8-11.34-3.05-2.48-1.4-4.34-1.97-6.98-2.82l-5.16-1.67-7.77-2.23c-2.29-.66-4.65-1.08-7.08-1.63-1.25-.28-2.45-1.39-4.04-.9s-3.05.02-4.47-.82c-1.74-1.03-3.61-1.25-5.6-1.64s-3.51-.69-5.63-.34c-3.29.54-6.61-1.05-9.76-1.45l-4-.52c-3.15-.41-5.44-.21-8.29-.98-2.3-.62-5.03-.27-7.37-1.37-1.72-.8-4.65-.68-6.09-1.44-2.03-1.08-2.67-1.43-4.91-1.42-2.64.02-5.6-1.25-8.3-1.79l-8.65-1.75c-1.88-.38-3.16-.24-4.52-1.72-1.7-.3-4.28-.4-6.09-.81l-11.38-2.58-5.74-1.05c-1.75-.32-4.59.25-6.79.1-3.81-.27-7.75.89-11.46.29-.82-.52-2.02-1.14-2.95-1.47l-7.45-2.62-1.71-.62-7.77-2.83c-3.17-1.16-1.4-3.49-3.39-2.34-3.81-.94-7.38-2.83-10.8-4.82l-4.75-2.77c-1.64-.96-8-5.41-8.13-7.11l-1.79.08c-.45.02-.94-1.13-1.29-1.46l-3.36-3.09-4.06-3.93c-4.02-3.89-13.8-12.22-15.14-16.73-.06-.2.71-.26.99-.27l3.66-.07,1.6-3.44c-.29-2.31-.51-4.6-.96-6.84l-1.09-5.52c-1.13-5.71-2.67-9.04-5.24-14.6-1.56-3.37-4.65.85-6.4-19.44-.16-1.85-.48-3.21-1.04-4.83-.07-.2-.23-7.43-1.11-11.65Z"/>
  <path class="cls-1" d="M119.98,482.48c-1.94.97-3.62,2.27-5.67,2.92-1.75.56-3.63,1.44-5.3,2.3l-17.16-.95c-1.43-.08-3.38.95-4.09-.56l4.86-5.67,3.46-3.93c2.22-2.52,4.41-4.63,7.35-6.29.89-.5,1.81-2.52,2.54-3.29l3.23-3.43c.62-.66,2.57-1.36,3.38-1.86l6.52-3.99c2.62-1.6,4.76-3.63,7.22-5.46l4.23-3.16c3.15-2.35,5.86-5.87,12.05-4.85,2.77.46,5.53.41,8.36.46,9.33.17,6.43,1.08,11.55,1.32,8.72.41,10.22-.43,18.67.15-2.5,2.19-6.8,3.9-10.82,6.33l-20.76,12.59-5.73,3.82-4.05,2.5-3.97,2.51-6.68,3.82-5.6,2.93-3.58,1.8Z"/>
  <path class="cls-1" d="M574.87,558.84c-3.44-3.02,3-3.57.78-7.3.43-2.55,1.17-5.36,2.01-7.8l4.21-12.22c.56-1.64.9-2.87,1.72-4.35,1.54-2.76,4.77-12.81,6.06-14.4l4.1-5.06,6-7.59c.67-.84,2.08-1.98,2.92-2.9l4.81-5.3,2.87-3.04c1.6-1.7,3.6-2.6,4.63-4.89.64-1.41,1.85-2.11,2.95-3.13l7.48-6.92c.65-.6,2.4-1.23,3.12-1.74,3.93-2.84,1.35-3.36,7.3-4.77l-4.51,8.25c-.58,1.07-.95,2.36-1.81,3.3-2.49,2.75-4.83,5.53-6.87,8.42l-5.34,7.55-2.34,4.54-2.23,3.25-3.89,5.67-3.4,4.54c-2.86,3.83-3.7,5.45-6.53,8.96-1.21,1.5-1.9,2.89-2.86,4.75l-2.48,4.79c-2.1,1.91-3.65,3.65-4.96,6.13-3.54,6.68-5.84,7.77-9.42,13.91l-4.3,7.37Z"/>
  <path class="cls-1" d="M673.37,213.38c.49,1.75,1.26,2.4.39,4.09-.5-.45-1.4-1.41-1.63-2.01-1.6-4.22-3.8-7.63-6.2-11.31l-4.4-6.74-2.7-3.64-6.68-9.51c-.71-1-1.99-1.67-2.89-2.5-2.19-2.02-2.98-5.68-5.51-7.38-2.95-1.98-4.43-4.5-6.37-7.53-1.56-2.45-4.89-4.03-7.18-6.09-1.59-4.98-5.34-6.18-6.58-8.78-2.52-5.25-2.26-2.89-6.88-9.18-.85-1.15-1.84-2.31-2.98-3.17-.6-2.79-1.52-5.68-4.55-6.81-.8-3.32-2.74-5.8-4.65-8.35l-4.3-5.74-2.98-3.85c-.13-.17-.29-1-.34-1.22-.51-1.99,5.5,4.39,6.53,5.19,1.51,1.17,2.08,1.72,3.2,3.1,5.71,7.06,5.45,5.29,10.33,10.66,1.03,1.13,2.7,2.26,3.68,3.71,4.53,6.73,4.99,2.26,7.44,9.1,2.53,1.56,4.89,3.84,6.75,6.26l4.57,5.94c3.59,4.67,2.14.63,7.05,8.9,1.54,2.6,3.79,4.97,5.56,7.48l2.68,3.79,2.27,3.63,4.01,6.18c.81,1.24,1.51,3.22,2.25,4.62l5.02,9.56,3.97,7.55,1.14,4.05Z"/>
  <path class="cls-1" d="M784.22,831.01l-8.89-.97c-.89-.1-2.43-.15-3.19-.3l-5.06-.98-6.07-.48-25.07-3.64c-.13-.02-17.99-2.25-16.89-2.16l-8.01-.65c-2.23-.18-4.21-1.4-6.55-1.72-3.62-.49-7.18-1.34-10.63-2.42-.95-.3-2.28-1.03-3.04-1.01l-1.36.03c-.28,0-.57-.72-.48-.99.11-.36,1.09-.85,1.64-.81,6.05.43,12.6.64,18.81.18l8.29-.61c.68-1,1.15-1.75,1.67-2.11s2.3-.04,2.85.36c1.27.91,3.18.86,4.8,1.25l12.99,3.19,3.73.85c.88.2,2.66.1,3.74.2,8.31.74,7.98,1.71,9.56,1.99,1.44.25,3.85.39,5.49.53l5.04.45c.25.02,1.14-.86,1.24-.63l.6,1.42c4.86.19,10.32,1.03,14.93,3.28.14,1.85.29,3.55.61,5.26,2.97-3.44,8.88-1.73,9.57.82l-10.33-.31Z"/>
  <path class="cls-1" d="M577.18,717.47c-.9.73-.77,3.42-2.98,2.68l-1.4-4.58-1.71-5.32c-1.23-3.81-2.49-8.85-2.38-12.83.04-1.38-.6-2.97-.73-4.12l-.98-8.88.16-11.37c.14-9.81.95-16.38,2.16-25.91l.22-1.72c.04-.3.83-.28.89.02l.29,1.5.97,5.01c.61,3.15.84,6.25,1.25,9.44.28,2.15.61,4.1.59,6.21l.62,3.42c.18.98,1.12,2.73,1.59,3.71l-.19,7.2c-.01.48.86,1.6,1.08,1.77-.16,2.66.33,5.6.6,8.48.48,5.18.86,10.16,1.91,15.29l1.56,7.62c.28,1.36-2.75,1.74-3.53,2.37Z"/>
  <path class="cls-1" d="M461.85,523.13c1.47,1.57,3.48,2.99,4.75,4.69.24,1.6-5.32-1.58-5.16-2.68l-5.23-4.22c-2.29-1.85-4.21-3.31-6.14-5.55l-6.47-7.47-4.19-4.28,2.7-.72-2.68-4.21c-4.09-2.93-9.02-5.03-11.85-9.22l-2.99-4.43-2.08-3.08-2.06-2.23-4.56-6.48c-1.06-1.5-1.56-4.24-3.54-5.02-.58-.23-.97-1.7-.72-2.24,1.67.17,2.88,2.03,4.01,2.71,1.54.92,2.44,1.43,3.55,2.68,4.09,4.62,4.84,4.3,7.73,7.74l6.64,7.9,2.47,2.9c1.68,1.97,2.98,3.58,4.85,5.35,1.31,1.23,2.66,2.97,3.98,4.37l4.6,4.92c.85.91,1.71,1.97,2.63,2.83l4.16,3.87,3.13,2.91c3.36,3.13-3.32,3.95-.38,6.14,1.18.88,1.8,1.68,2.86,2.82Z"/>
  <path class="cls-1" d="M671.62,816.47l-2.5,2.42-1.99-.17-5.84,1.21c-6.41,1.33-9.95-1.08-14.78-5.93l-3.03-3.04c-.77-.77-2.6-2.08-3.67-2.52-1.69-.7-1.9-1.94-2.75-2.78l-9.9-9.86-2.71-2.71-4.31-4.43c.99-.68,2.11.48,3.15,1.01l6.27,3.19c3.29,1.67,6.48,3.75,9.82,5.05,2.72,1.06,4.96,1.73,7.77,3.3l-5.7.57c-.57.95-1.28,2.45-1.06,3.2.35,1.15,1.76,1.87,2.88,2.14l7.3,1.78c1.38.34,2.28.91,2.74,2.3,1.96-.48,3.76,0,5.71.59,7.75,2.35,4.47,2.16,12.6,4.69Z"/>
  <path class="cls-1" d="M907.81,850.82c-.89-.1-2.86-.09-3.67-.27l-5.93-1.33c-1.8-.4-3.93-.58-5.71-.44-.73-.34-2.06-.96-2.9-1.28-8.91-3.4-5.2-.2-15.78-4.29-3.11-1.2-4.86-.73-9.09-1.67l-8.23-1.82-6.11-1.19-5.9-1.07c1.19-2.45,3.39-.96,4.98-1.64,3.64-1.56,7.77-1.37,11.18.41,1.25-.17,3.24-.43,4.44-.15l5.48,1.26,14.77,4.6c3.79,1.18,7.28,2.44,11.16,3.31l12.02,2.68c1.83.41,3.13.67,5.02.69,10.18.12,12.87,3.14,11.21,2.87l-1.16-.18c-6.56-.72-8.58,2.55-15.76-.5Z"/>
  <path class="cls-1" d="M756.4,833.85l-15.67-.99c-1.74-.11-3.27-.12-4.94-.34l-20.84-2.67c-4.2-.54-6.81-.52-10.09-.9l-4.13-.48-9.3-1.15c-3.55-.44-7.02-.66-10.46-1.73-8.48-2.65-9.19-.27-11.54-3.15,3.62-1.47,7.96-3.81,11.87-2.74l10.14,2.79,4.54,1.11c6.96,1.7,13.67,3.37,20.77,3.71l4.35.2c3.35.16,8.42,2.1,17.2,2.62,1.23.07,2.38.68,3.51.77l5.69.42c3.06.22,6.43-.39,8.89,2.54Z"/>
  <path class="cls-1" d="M531.14,565.21l-1.39,1.89c-.9,1.22-2.94-3.26-5.69-5.58l-2.81-2.36c-1.54-1.3-2.97-4.02-4.49-5.02-5.59-3.68-1.41-1.69-6.85-7.06l-2.53-2.49c-1.62-1.6-9.5-7.95-11.93-9.19-.54-1.65-1.28-3.95-2.15-5.66-2.99-5.9-2.21-.1-4.21-7.94.41-.64,1.58.28,2.26.89l6.29,5.69,8.86,10.11,5.84,5.65,3.6,3.92,2.62,3.01,2.27,2.08c3.76,3.44,6.93,7.11,11.32,9.67l8.51,4.96-6.16.52c-.57.1-1.53.47-2.8.89l-.56-3.97Z"/>
  <path class="cls-1" d="M433.09,621.51l-6.29,1.48c-3.31.78-6.33,1.98-10.11,2.5l11.14-8.26c1-.75,1.97-2.29,3.18-2.75.46-.18.95-1.47,1.41-1.42l2.11.24c1.26-1.09,2.86-2.2,4.36-3.05l4.19-2.37,5.42-3.13c-.46,2.35-.74,3.18-.14,5.04.89,2.73-3.81,2.65-3.51,6.74l2.5.93-4,1.9c-.99.47-3.48.1-4.55.47-2,.69-3.65,1.2-5.69,1.68Z"/>
  <path class="cls-1" d="M757.3,307.3l6.54-6c.81-.74,2.67-2.05,3.6-2.62l9.13-5.61c1.38-.85,2.73-2.01,4.06-3.03.91-.7,3.23-1.23,4.39-1.89l7.19-4.08c.82-.47,2.39-1.02,3.42-1.35,5.86-1.85,1.36-1.64,9.95-5.1,6.97-2.8,5.91-3.05,11.66-5.67,1.84-.84,2.59-1.11,4.05-3.34.13.43.3,1.98.15,2.61s-1.46,1.36-2.13,1.65l-5.99,2.6c-3.12,1.35-1.83,3.55-11.05,7.77-3.77,1.73-7.2,3.62-10.9,5.51l-3.64,1.86c-1.96,1-3.81,1.83-5.68,2.92l-6.73,3.93-4.44,2.58c-3.75,2.19-10.05,7.59-13.56,7.25Z"/>
  <path class="cls-1" d="M898.21,466.36c1.62-1.52,1.79-4.28,2.89-5.79l4.62-6.37,2.3-3.15,2.83-4.18c1.23-1.81,2.36-3.59,3.02-5.64,1.23-1.55,2.13-3.25,3.23-5.13l3.88-6.58c.17-.28.44-1.08.57-1.34s.72-.11,1.58.04l-4.81,12.34c-.87,2.24-1.6,4.41-2.57,6.53l-2.69,5.91c-2.76,6.06-10.52,16.96-16.91,18.91,0-2.04.5-4.06,2.07-5.54Z"/>
  <path class="cls-1" d="M477.31,595.48l-4.26,1.04-6.4,2.05-1.03-2.29c-.22-.49,1.13-1.37,1.68-1.63l8.23-3.87c5.96-2.8,2.08-2.96,9.39-4.59,4.89-1.09,5.59-5.04,15.9-.8l-7.07,3.51-3.14,1.51c-1.86.9-3.97,1.3-5.94,2-2.44.88-4.81,2.43-7.37,3.06Z"/>
  <path class="cls-1" d="M480.46,523.65l-3.3-2.89c-.81-.71-1.9-.98-3.02-.91-2.41-2.81-5.52-5.25-8.68-7.37-.81-.54-1.7-1.74-2.68-2.08-2.27-.78-4.73-4.89-6.21-7.13-1.73-2.64-6.91-2.54-8.02-7.15-.06-.26-1.05-.58-1.21-.79s-.14-.61-.1-.87,1.22-.59,1.5-.38l10.45,7.66,6.34,4.77c4.9,3.68,7.06,5.2,11.37,9.67l2.94,3.05c.74.76,7.41,7.82,3.69,6.96l-3.07-2.52Z"/>
  <path class="cls-1" d="M468.24,610.84c-5.88,2.45-11.59,4.64-18.52,6.07,2.99-2.14,5.59-3.89,8.65-5.62l10.6-5.99c1.8-1.02,3.55-1.05,5.18-1.61,5.64-1.96,11.88-3.1,18.82-3.31-.75,2.33-2.61,1.71-4.3,2.43l-5.88,2.5c-1.64.7-2.83,1.31-4.23,2.05-3.16,1.67-7.04,2.11-10.32,3.48Z"/>
  <path class="cls-1" d="M663.7,389.49l1.3-5.85,3.28-.31,3.01-4.98c.86-1.43,1.86-2.23,3.09-3.54l4.79-5.09c2.35-2.49,4.32-4.75,7.29-6.76-.05,1.91-.52,3.14-1.03,4.82-1.11,3.62-.74,8.12-5.47,10.23-2.45,1.09-4.51,2.75-6.48,4.49-2.92,2.57-6.03,4.51-9.78,6.99Z"/>
  <path class="cls-1" d="M273.08,655.18c6.32,1.97,6.97,3.75,14.28,5.98l-11.31,2.07-15.56-9.77c-1.22-.77-2.13-1.36-2.66-2.67,2.52-1.09,4.1-.04,5.5,1.35,3.37-.14,5.57,1.74,9.75,3.05Z"/>
  <path class="cls-1" d="M597.54,495.35c-2.6-1.23,1.31-1.57,1.65-5.59.23-2.66,1.99-4.39,2.9-6.52.85-2,1.59-3.89,2.68-5.83l2.51-4.48c1.66-2.96,2.84-5.81,5.36-8.68l-.93,4.29c-.53,2.42-.98,4.62-2.32,6.67l-1.63,10.32c-1.22.63-2.29,2.14-2.27,3.39.01.6-2.03.63-2.45,1.04l-5.51,5.38Z"/>
  <path class="cls-1" d="M366.79,649.38l-9.64,1c2.23-2.72,5.37-2.8,7.35-4.87,2.59-2.72,5.77-3.64,8.94-5.23,2.64-1.33,4.4-4.73,8.03-4.66l.08,4.29-7.69,5.99c-.28.22-1.41.83-1.56.52l-1.02-2.03c-.42,2.96-1.62,4.69-4.49,4.99Z"/>
  <path class="cls-1" d="M552.39,594.75c-6.3-1.64-9.89,4.66-9.6-.81l.42-7.96c2.41.1,4.32,1.24,6.35,2.31l5.34,2.81c1.12.59,3.32.45,4.69.11l.26-2.81c.06-.66-1.42-1.16-1.97-2-.28-1.01,2.89-1.47,2.96-.58.38,5.05,1.23,1.68.07,7.92-5.8-.83-3.65,2.28-8.51,1.01Z"/>
  <path class="cls-1" d="M499.95,440.43c.16,1.82.07,3.66-.06,5.48-7.64-3.02-5.62-12-6.14-16.86-.09-.87-1.18-2.28-.38-2.86,2.13-1.57,4.5.96,4.5,1.9,0,1.05,1.21,2.75,1.29,3.66l.78,8.68Z"/>
  <path class="cls-1" d="M454.37,198.43c-2.92,4.24-4.16,9.61-6.71,8.23.73-2.05,1.39-3.76,2.25-5.23l1.89-3.23c2.36-4.04,9.47-14.86,12.19-18.17l4.67-5.7c.3.52.67,2.24.34,2.75s-1.2,1.1-1.74,1.64l-3.74,4.8c-1.5,1.92-2.13,3.89-3.13,6.04-.91,1.96-3.27,3.21-3.51,5.83-.12,1.26-1.86,2.12-2.5,3.05Z"/>
  <path class="cls-1" d="M495.22,397.59c-.48-.48-2.02-.26-2.39.14-1.56,1.7-.39,3.8-2.8,3.64.08-3.54,1.92-6.21,3.91-8.88,1.75-2.35,3.4-4.99,6.83-5.37.56-.06.17,1.52.15,2.2-.14,3.87-.46,7.56-2.4,11.54l-3.29-3.28Z"/>
  <path class="cls-1" d="M147.94,432.11c-3.3,1.87-7.16,4.01-10.85,5.04.4-4.51,7.02-5.1,8.98-6.77l4.17-3.55,4.15-2.42c1.32-.77,2.36-1.45,3.73-2.39.88-.54,2.88-.74,4.25-.86-.64,1.57-1.9,2.08-3.33,3.04-6.04,4.07-5.35,4.64-11.1,7.9Z"/>
  <path class="cls-1" d="M593.36,745.5c-4.31-1.8-5.41-2.02-6.17-4.93-2.02-7.78.8-6.27-1.27-15.33,2.05-.57,2.41,1.23,2.79,2.6l2.31,8.25.48,2.71,1.85,6.69Z"/>
  <path class="cls-1" d="M372.92,428.04c.31.27-.75,1.33-1.06,1.09l-1.35-1.05c-2.27-1.05-4.3-2.22-6.38-3.62l-4.71-1.18c-.59-1.78-1.14-2.92-2.28-3.87l-3.65-3.06,1.06-.81,8.66,3.55c.7,3.72-.08.38,5.48,5.24l4.22,3.69Z"/>
  <path class="cls-1" d="M401.97,363.91c-2.31,5.51-1.6,12.32-3.2,13.52-.42.32-1.53-.94-1.48-1.49.62-7.13.87-4.43,1.93-9.54l1.56-7.56.92-4.41c.35-1.7.75-3.27,1.28-4.95l.42-1.34c.08-.26,1.13.13,1.09.4l-.73,4.89c-.22,1.48-.41,2.62-.48,3.97l-.21,4.26c-.03.64-.84,1.64-1.09,2.24Z"/>
  <path class="cls-1" d="M513.59,558.28c1.19,1.14,2.3,2.84,3.31,4.07-2.38.36-3.3-2.25-4.68-2.96-2.9-1.51-4.9-3.08-7.1-5.64-1.81-2.11-4.59-3.96-5.73-6.66l-1.84-4.34,4.44,3.8c1.95,1.67,5.93,6.3,8.86,9.1l2.74,2.62Z"/>
  <path class="cls-1" d="M535.23,483.29c-.31,2.36-.38,4.28-1.26,6.28-1.78-2.66-.75-5.11-.39-7.91.8-6.17.96-12.4,2.66-18.43.94-3.32.27-5.81,1.42-10.39,1.31,2.84.29,5.72-.02,8.77l-.91,8.94-.56,5.46-.95,7.28Z"/>
  <path class="cls-1" d="M436.42,418.09c1.18,4.17,3.72,7.84,1.93,9.1-.68.48-2.04.39-3.09.13-1.31-.32-2.61-1.28-2.51-2.79l.68-10.05c.03-.43.5-1.26.8-1.48s.94.67,1.04,1.04l1.14,4.05Z"/>
  <path class="cls-1" d="M568.37,554.17c-2.06,5.23-2.08-4.66-.36-7.63l2.95-5.08c1.25-2.14,1.25-5.33,4.19-6.07l-2.75,7.95c-.82,2.36-1.62,4.69-2.51,6.96l-1.52,3.87Z"/>
  <path class="cls-1" d="M695.15,809.04c-2.35.24-4.45.47-6.58.17l-3.48-.49c-3.86-.54-7.54-1.59-11.29-2.91,3.56-1.2,10.79.48,13.86,1.24,2.47.6,4.88.78,7.49,1.99Z"/>
  <path class="cls-1" d="M91.52,491.89c-4.89.3-5.89,2.22-9.72,1.5,3.11-5.36,5.48-4.91,11.7-4.73l-1.98,3.23Z"/>
  <path class="cls-1" d="M517.56,578.35c-1.6-.8-2.69-1.33-3.91-1.36l-1.41-.03c-.33,0-.15-1.02.09-1.28l2.53-2.75c.29-.31,1.54-.9,1.84-.62l1.59,1.46,2.83,2.64c-.44,1.23-2.65,2.4-3.57,1.94Z"/>
  <path class="cls-1" d="M875.47,247.38c.35-2.12,2.23-2.42,3.82-3.24l7.89-4.07c1.79-.92,2.83-2.86,5.62-2.53-.53,2.18-2.72,2.85-4.59,3.83-4.21,2.2-8.14,4.5-12.74,6.01Z"/>
  <path class="cls-1" d="M406.43,633.92c-1.96.25-3.54,1-5.64.85,1.47-1.23,3.03-2.17,4.8-2.64l10.31-2.71c.23-.06,1.1-.01,1.29.03s.52.58.37.72c-.23.2-.73.56-1.03.69l-4.83,2.03c-1.57.66-3.36.79-5.27,1.03Z"/>
  <path class="cls-1" d="M396.65,640.12c-.26,2.71-8.86,4.48-10.97,4.36,2.69-3.33,6.52-5.06,10.97-4.36Z"/>
  <path class="cls-1" d="M308.43,849.25c.8,2.13,1.44,3.35.89,4.99-5.89-5.34-1.45-5.01-5.2-11.64-.11-.2,0-1.16.21-1.13.3.05,1.28.27,1.39.56l2.71,7.22Z"/>
  <path class="cls-1" d="M491.13,541.91l-5.04-5.54-3.93-3.93c2.52-1.4,3.34,1.17,4.64,2.41,1.93,1.85,5.19,3.05,4.33,7.06Z"/>
  <path class="cls-1" d="M804.76,835.46l-3.89.47,1.29-4.59c2.63.77,4.85,1.59,7.3,3.39-1.53.38-2.82.5-4.7.73Z"/>
  <path class="cls-1" d="M545.89,574.66c-.06,1.92-9.13,2.24-8.49-.48,1.29-.32,8.58-2.64,8.49.48Z"/>
  <path class="cls-1" d="M102.05,489.97c-3.12,1.56-6.12,2.55-9.7,2.59-.52-1.83,8.09-5.25,9.7-2.59Z"/>
  <path class="cls-1" d="M581.37,722.05c.14,5.77,1.63,6.95.62,9.45-1.78-1.04-1.2-2.72-1.68-4.49-.43-1.61-1.8-4.36-.05-5.63.25-.18,1.11.37,1.11.67Z"/>
  <path class="cls-1" d="M398.56,628.8c-3.03,1.14-.62,1.86-7.5,1.58,1.99-1.96,4.64-2.17,7.24-2.77,1.32-.3,2.2-.83,3.9-.5-1.32.77-2.18,1.14-3.63,1.68Z"/>
  <path class="cls-1" d="M311.64,863.4c-1.32-1.99-2.09-4.07-2.11-6.58,2.02,1.36,3.15,3.99,2.11,6.58Z"/>
  <path class="cls-1" d="M446.55,492.64c-1.41.85-3.82-.92-4.45-2.01-.12-.21.42-1.17.65-1.08s1.04.37,1.2.53l2.6,2.56Z"/>
  <path class="cls-1" d="M499.39,454.26l-.62,2.18c-.11.38-1.14-.64-1.22-1.04l-1.01-4.81c1.01,1.08,1.73,2.1,2.86,3.66Z"/>
  <path class="cls-1" d="M290.15,800.77c-.61-1.34-.7-2.63-.93-4.17l-.12-1.23c-.03-.35.86-.74,1.38-.83.07,2.11.06,3.86-.33,6.23Z"/>
</svg>