<?xml version="1.0" encoding="UTF-8"?>
<svg id="Camada_1" data-name="Camada 1" xmlns="http://www.w3.org/2000/svg" viewBox="0 0 1024 1024">
  <defs>
    <style>
      .cls-1 {
        fill: #fff;
      }
    </style>
  </defs>
  <path class="cls-1" d="M269.47,1024V0h485.05v1024h-485.05ZM511.2,488.49c1.49.62,3.29,1.2,4.61,1.64l8.71,2.9c6.12,2.04,3.33,7.03,4.95,13.98l1.28,5.49,1.08,4.44c.65,2.66.6,5.02.59,7.82-.02,3.97.37,7.9.09,12.02-.13,1.98,1.22,3.44,1.55,5.06.94,4.68.41,9.7.43,14.53l.09,22.92c.23.86,1.17,2.76,1.13,3.67l-.29,7.09c1.22.52,3.18.52,4.11-.11.37-2.01,2.35-4.74,2.44-6.42l.8-15.46c.44-8.47-1.98-10.85.1-16.67.63-1.77-.61-4.11-.73-5.96l-.39-5.94.09-4.45c.17-8.63-3.18-31.21-4.39-40.29,2.15-.38,4.94-.27,6.85-.95,2.36-.85,5.22-1.63,7.1-2.66l5.44-2.96c1.95-1.06,3.44-2.79,5.93-3.46s7.99-5.22,9.39-8.37l2.88-6.48c1.51-3.41,1.13-8.11-.46-11.52-2.32-4.96-4.53-3.05-4.88-4.07-1.53-4.47-1.52-3.01-5.32-5.31l-11.37-6.87c-1.65-1-4-1.17-4.79-3.37,8.7-1.08,14.1-4.16,22.95-6.96,2.18-.69,3.74-1.18,5.6-2.65l4.03-1.81,1.84-4.72c.7-1.8.83-3.45,3.51-3.42l.69-3.49c1.1-.31,2.17-.32,2.23-.88l.26-2.44c.05-.44,1.2-.58,1.62-.45,1.28.42,1.38,7.56,7.68,7.01.9-.08,2.37,1.42,3.15,1.73,8.93,3.47,16.65,3.86,26.41,3.78,2.56-.02,4.5.44,6.92.92l8.26,1.64c3.32.66,12.37.12,15.22-1.7l4.31-2.75c.35-.37.4-1.99.91-2.19l2.25-.9c1.88-6.25,2.12-4.97-.19-11.23-3.13-8.48-12.68-11.96-10.52-12.84,2.52-1.03,3.27.28,4.92-.46,2.29-1.02,6.05-2.08,7.9-3.45l6.16-4.54c1.11-.82,3.23-1.92,4.09-2.82,3.91-4.12,11.14-12.96,12.59-17.89l1.67-5.65c.28-.94-.84-2.89-.99-3.83-.49-3.12-2.45-4.52-5.09-5.53-8.61-3.29-5.51-4.53-16.6-7.01-3.51-.79-6.6-3.23-10.49-2.84-12.64,1.28-12.47,3.99-15.3,4-3.46.01-6.6,1.1-9.9,1.62-1.97.31-2.89.37-4.33,1.91-1.33,1.42-4.49,1.09-6.05,2.19l-6.1,4.3c-4.11,2.9-.26,6.12-1.99,5.37l-.96-.42c-.64-.27-1.7-1.32-2.26-1.1-3.27,1.28-3.82,4-3.92,4.12-1.04,1.31-2.91,2.57-3.72,4.27-1.12,2.36-2.42,4.1-4.59,5.5-3.69,2.38-.42,2.6-5.26,8.13l-5.06-3.98c-4.92-3.87-11.11-2.66-16.49-.93-4.36,1.4-8.45,2.46-12.31,4.97l-4.62.28c-1.77,1.07-6.18,2.11-8.15,1.46l-4.02,2.24-6.83,3.8c-1.16.64-3.08,1.72-3.87,1.39-.53-1.39-1.65-3.13-1.82-4.1-.92-5.06-2.56-9.88-4.89-14.49-1.35-2.67-2.1-5.81-3.14-8.5l-1.73-4.5c-.68-1.77-1.38-3.65-2.13-5.4l-3.17-7.4c-.72-1.68-1.21-4.04-1.61-5.93l-2.39-1.18c-.58-.29-.64-2.22-.5-2.88.75-3.56-1.6-6.57-2.54-9.43l-1.68-5.08-1.04-7.86c-.24-1.83-.6-3.27-.79-5.07l-1.99-19.18c-.06-.58-.45-1.79-.88-2.08-.72-.49-6.32.96-8.25,3.72l.46,11.64c.1,2.62.9,5.23,1.42,7.79,1.82,8.95.05,5.69,1.75,11.9l1.35,4.93c.49,1.8.69,4.22,1.36,5.85l4.17,10.09c.56,1.35,1.68,2.69,2.51,4.05s.47,4.46,1.23,5.87c1.07,1.98,1.86,3.64,2.76,5.59.77,1.65,2,3.22,1.89,5.24-.16,2.78,1.27,4.44,3.59,5.75l.16,4.1c4.64,7.14,2.89,9.99,6.77,18.21l1.51,3.2c.45.96-6.19,6.67-7.92,7.55-1.28,2.14-4.13,5.35-6.55,4.47-.64-.23-1.53-1.32-1.92-1.66-2.2-1.86-3.17-4.4-4.36-6.86l-1.75-3.63c-.9-1.87-.89-4.01-1.98-5.72l-2.06-3.24c-2.38-3.75-3.07-8.52-4.08-12.87l-1.45-6.21-1.3-4.86c-.32-1.19-1.04-3.09-1.28-4.22-.51-3.76.36-7.95-1.53-11.21-3.06-5.28.67.54-1.4-6.79l-2.02-7.15c-1.34-4.74-1.89-9.25-3.94-13.9-2.65-6.01.08-11.49.8-17.69.28-2.37-.92-6.02.42-7.95,2.85-.3,5.43-5.44,5.21-6.81-.13-.85-2.05-1.95-2.49-2.74l2.15-4.44,3.03-6.38c1.43-3.01,3.17-5.36,4.05-8.59,1.49-5.48,5.8-15.45,6.86-19.65l1.37-5.47.96-3.98c.67-2.78.29-6.51-.38-9.38-.4-1.71-3.34-2.91-4.48-3.96-2.28-2.11-4.46-3.56-7.64-3.65-1.62-.05-5.48-.72-5.59-2.9-.29-5.36.03-10.91,1.03-16.34l2.09-11.34c.39-2.11,1.07-3.9-.05-5.97l1.34-4.75,2.31-.78c.44-.15-1.1-1.75-1.06-2.26.34-4.02,1.23-10.16,2.05-14.44.43-2.23.44-4.39,1-6.3.79-2.71.97-4.67.85-7.45-.14-3.54-.11-6.5-1.79-9.77,7.27-3.05,4.51-3.99,10.18-5.06l.99-1.95c.24-.47,1.89-.35,2.31-.69,1.72-1.41,4.14-2.85,6.18-3.54l1.28-2.71c2.68-1.02,4.89-2.64,6.56-4.9.64-.55,2.35-1.45,2.95-2.05l6.67-6.69c2.57-2.58,4.05-6.2,5.89-9.45,1.01-1.78,1.53-3.29,1.82-5.47.32-2.42,1.67-5.4.18-7.62-1.17-1.75-1.2-3.69-.44-5.81-5.33.11,1.1-3.42-12.57-11.9-2.87-1.78-5.43-4.46-8.77-5.35-3.55-.94-8.47-.15-11.41,1.67-6.25,3.87-3.45.32-10.91,4.64l-1.66,2.12c-1.63,1.28-2.79,2.61-4.12,4.05-1.71,1.86-2.83,3.19-3.7,5.8-.45,1.36-1.75,3.04-2.46,4.45-.86,1.69-1.53,2.9-3.78,3-.15-3.42.38-6.27.6-9.51l.44-6.43c.36-5.29.9-10.42,2.33-15.39.93-3.23.99-6.43.95-9.93-.06-5.26-2.97-9.95-6.93-13.12-.69-.55-1.62-2.22-2.14-2.96-11.13-5.4-11.81-1.99-14.04-1.73-4.63.55-9.21.32-13.29,2.82-1.66,1.02-3.33,3.82-5.02,4.58-3.07,1.39-5.23,2.97-7.92,4.94-3.23,2.37-6.54,4.39-5.72,9.52l1.27,7.93c1.36,8.46,5.57,15.75,11.87,21.3l2.34.34c.47.07.9,1.72.9,2.24-.05,4.06,4.26,1.38,4.36,4.67-4.24-.22-6.91,1.27-10.1,3.44-1.25.85-2.69,1.63-3.61,2.89-4.37,5.94-4.47-1.37-11.6,9.36-.54.82-2.26,2.15-2.34,3.02-.21,2.4.06,8.94.45,11.05.75,4.15,8.5,12.73,11.7,16.07,4.89,5.1,1.91,5,8.83,10.16,11.6,4.25,8.63,4.17,20.14.94l7.09-1.99c.21,1.76.59,4.09.44,5.82l-.37,4.28c-.3,3.5-1.05,6.88-1.75,10.26-.39,1.9-1.82,4.64-1.58,6.33.39,2.73-.59,3.92-1,6.17l-1.38,7.59-1.58,5.95c-.16.62.27,2.29-.23,2.59l-2.03,1.21c.51,1.49.4,2.4.19,3.69l-1.48,9.06c-.34,2.09-.51,4.34-.67,6.58l-.42,6.08c-.22,3.16-.35,6.05-.36,9.33l-1.7,3.57-4.97-.84c-.61-2.21-1.58-4.17-3.62-4.55l-5.61-1.05c-1.1-.81-1.9-1.06-2.99-1.46-10.1-3.72-10.17-2.21-19.99-1.18-.78.08-2.14,1.09-2.95,1.28l-7.07,1.67-9.12,6.44-2.1,3.68-2.59,4.72c-.85,1.54.83,4.38-1.59,5.48.1,3.24,2.31,10.57,3.45,13.29l2.94,7.05c3.82,9.15,17.31,12.6,26.29,14.4,1.21.24,3.16,1.45,4.51,2.01,6.69,2.73,2.63-2.12,9.8,3.21.29.22,1.3.49,1.57.29.2-.15.39-.52.22-.71l-.84-1.03c-.32-.4-.85-1.12-1.08-1.47-.17-.26.65-.99.94-.88l1.62.62,4.93-2.7.89-5.16c-1.25-1.62-4.12-3.01-5.91-2.65-.65.97-1.56,1.81-2.6,2.03l-3.54.72-10.55-1.77c-3.57-.6-7.4-1.89-10.62-2.9,1.02-4.16-5.94-.81-9.71-10.79-.74-1.95-.99-3.76-1.5-5.93l-1.78-7.61c1.64-11.17,12.15-14.14,20.94-16.93,2.26-.72,3.49-.58,6.02.35,2.02.74,7.46.66,7.18,1.9l-.39,1.69c-.14.63.57,1.86,1.22,1.87,1.92.05,1.73-4.24,3.08-3.15,5.11,4.14,3,1.4,5.23,5.01s4.2,7.7,6.07,11.64c1.47,3.1,1.41-3.68,3.77,8.86,1.14,6.09,4.82,11.55,8.36,16.85.85,1.27.63,2.89,2.12,3.79,3.21,1.94,2.75,6.59,4.24,9.03,1.34,2.2,1.96,3.69,2.61,6.12l1.67,6.19c.79,2.92,1.18,5.67-1.91,7.61-1.53.96-1.42,3.38-2.23,4.74-.93,1.56-2.43,2.93-3.02,4.82l-2.53,1.3c-.27,3.45-3.18,4.31-5.46,6.13-2.02,1.61-3.69,4.17-6.04,5.38l-5.78,2.97c-1.36.7-3.29,1.76-4.71,2.28-6.99,2.53-17.6,3.63-25.67,3.66-1.28,0-2.41-2.76-3.19-3.72-2.15-2.66-5.34-4.57-6.87-9.42-.91-2.91,1.45-6.01,3.33-7.94,3.45-3.54,7.76-5.42,11.99-7.92l4.73-2.79c11.98.34,10.06-2.52,21.44-2.56,2.75,0,5.94-.98,8.57-.15,4.05,1.28,7.8.09,9.7-3.99-1.01-1.69-2.83-3.9-4.43-4.83-8.76,1.86-10.02.42-18.54,2.22-7.21,1.52-3.05-.4-10.57,2.7-6.34-1.09-18.76,3.45-22.41,8.37-4,.9-6.9,4.04-9.46,7.2-1.06,1.31-1.64,1.69-2.02,3.67-3.09,6.64-1.06,5.16-.2,9.61s1.93,6.15,5.62,9.44c2,1.78,3.81,2.93,6.56,3.5l3.32,3.59c1.15.18,3.39.33,4.38.6,3.84,2.17,6.4-1.35,10.75-.73,4.89.69,9.04-.75,13.37-2.04,3.8-1.13,6.76-1.77,9.72-4.89,1.55-1.63,4.87-2.51,6.56-4.12,2.9-2.76,5.38-5.28,8.05-8.13.74-.78,1.53-1.58,2.19-1.87.57-.25,2.38.55,2.67,1.09,6.66,12.17,4.14,11.25,6.56,22.17l1.54,6.94c.43,1.93,1.21,3.82,2.4,5.28-.81,3.01-.01,6.2,1.02,9.34.71,2.18.5,5.1,1.83,6.96-7.17,1.05-2.87,2.06-8.93.83-1.68-.34-5.22.05-6.82.73-3.78,1.61-7.74,2.41-7.95,2.7-.25.34-.5,1.58-.82,1.91l-4.54,4.7c.41,3.17.05,6.5.6,9.17l2.26,11.07c1.52,7.43,2.74,6.39,4.02,14.16l2.21,4.67c4.38,9.24,5.32,7.41,11.32,15.02l-5.05,2.41c-1.41,6.09-2.08,1.95-5.95,6.7-1.44,1.77-3.04,2.47-4.96,3.64s-4.81,4.24-7.74,1.9-6.41-6.44-7.28-10.48c-.43-2-.27-4.95-.18-6.96l.36-8.4c.11-2.66.06-7.16-2.51-8.81-9.4-6.02-25.61-3.13-35.05,1.19-7.86.07-9.67,10.82-9.92,16.93-.11,2.68-.78,5.65.02,8.4,4.6,15.97-1.12,6.13,11.58,22.74l5.3,1.13c1.56,1.88,3.08,2.76,5.36,2.98l5.02.5c3.37.34,7.26.22,10.55-.49l9.3-1.98c-.72,3.14-3.65,3.11-5.1,4.84-2.34,2.79-4.68,5.37-7.78,7.57l.02,3.55c0,.84-1.27,1.94-1.86,2.88-2.21,3.53-2.59,9.3-.15,12.84,1.32,1.93,2.86,3.49,3.75,5.57,1.13,2.62,3.16,3.66,5.41,5.04,4.01,2.45,9.87,3.24,13.61,1.95l4.56-1.58c1.32-.46,2.59-1.36,3.66-2.32l7.84-7.02c3.16-2.83,7.68-8.08,11.66-12.07,1.23-1.23,2.31-2.81,3.41-4.32,1.01-1.39,3.87-1.88,6.54-6.56s2.53-6.75,4.09-6.82-.98,1.14,2.61,4.93l5.28,5.57,7.17,2.98ZM523.33,297.96l2.49,3.59c1.39,2,3.28,3.29,5.03,4.87,3.78,3.42,9,6.53,13.94,7.57,2.69.57,5.96,1.76,8.58,1.7l9.38-.24c4.32-.11,8.26-1.81,11.49-4.44,1.92.65,4.93.67,6.03-.81,3.42-4.58,5.88-3.82,7.68-11.75.11-.49,1.29-1.37,1.11-1.84l-.81-2.03-2.19-6.07c-.6-1.67-1.51-2.97-2.4-4.54s-.87-4.1-2.39-5.54c-2.03-1.93-3.9-4.22-5.93-5.92l-4.01-3.35c-2.59-2.16-10.19-5.7-13.92-6.01l-8.53-.7c-3.47-.28-6.67-.46-10.41-.99l-4.64.96c-4.56-3.84-5.87,1.45-8.48-2.96,2.43-.73,4.62-1.32,6.88-2.18,9.17-3.5,2.58.61,11.06-2.87,2.83-1.16,5.89-1.81,8.78-2.79l6.97-2.37,10.1-3.62c3.33-1.19,5.95-2.95,8.91-4.85,6.68-4.29,12-7.79,12.46-17.45.12-2.41-.78-4.57-1.52-6.78-.99-2.96-2.59-4.28-4.23-6.42l-3.8-4.95c-.1-.13-2.2-7.7-11.02-7.49-6.04.14-11.05,3.27-16.06,6.11-2.02,1.14-4.09,2.09-6.12,3.38l-4.29,2.74-4.81,3.55-6.81,4.79c-1.19.84-2.96,2.37-4.12,3.45-2.55,2.37-4.89,3.77-7.76,5.69-2.08,1.39-3.74,4.58-6.01,6.39-1.12.89-1.1,2.8-1.3,4.45l-3.94,4.04-2.6,7.04c-1.12,3.03-1.75,6.27-2.49,9.63,1.14,2.38,2.68,5.19,4.18,7.41,1.71,2.53,5.46.97,7.55-.5,1.11-.72,4.07.14,5.11.96l3.75,2.94c2.29-.42,3.99-.2,6.26.18,3.64.62,7.71-.68,11.34-.35s7.43,1.01,10.97,1.05c7.9.1,13.68,3.86,18.32,9.86.93,1.2,2.68,2.18,3.52,3.77.78,1.48,3.21,3.02,3.67,4.57,1.54,5.26-.03,3.57.65,8.85.1.75.51,2.16.08,2.49l-1.8,1.36c-1.73,3.55-11.64,6.77-15.11,5.07-3.69,1.62-7.51,1.1-11.37.4-4.85-.87-8.28-2.45-12.36-5.32-1.72-1.21-4.36-1.72-5.5-3.84-1.36-2.52-3.77-5.38-4.46-8.07l-2.41-9.32c-.39-1.53.25-2.95-1.49-3.69-.92-.39-2.64-.67-3.41.22-6.06,7.02-2.42,7.7-.96,14.26.59,2.63,1.7,4.58,3.19,6.72ZM639.09,966.04c-2.2-3.3-2.15-6.14-.27-9.65,1.12-2.09-3.93-5.61-5.97-10.13l-2.58-5.73c-4.3-9.55-2.42-5.92-3.64-13.28l-1.1-6.66c-.43-2.64-.58-5.46-1.21-8.27-.57-2.53-.19-5.17-.46-7.56-.39-3.41-1.07-6.89-1.67-10.28s-.96-6.66-1.39-10.15l-1.35-10.95-.8-7.78.41-7.03c.2-3.35-.56-6.3-1.05-9.46l-2.97-19.36c-.31-1.99-.42-3.71-.62-5.85-.16-1.71-1.62-4.35-2.11-6.24-1.59-6.03-1.21-6.97-3.16-12.69-1.45-4.25-2.59-8.53-3.58-13.02-.78-3.54-1.81-6.84-2.85-10.38-.67-2.31-2.08-4.88-2.42-7.17-.28-1.9-.43-3.5-.9-5.11l-1.26-4.36c-.79-2.73-1.42-5.58-2.44-8.23-1.65-4.29-.25-5.11-.91-10.8-.15-1.32-1.19-3.89-1.91-4.97-.75-1.14-2.21-2.21-2.16-3.92.09-3.14-.63-5.79-1.78-8.65-.46-1.14-.35-4.23.8-4.3,1.78-.1,3.29.02,4.62-.73,1.73-.98,3.88-.94,5.59-1.72,2.72-1.25,5.78-3.94,7.48-6.34,1.49-2.11,2.64-4.45,4.43-6.15,2.48-2.36,3.12-4.56,3.19-8,.05-2.48.55-5.17.92-7.77.39-2.8-.19-5.77-.22-8.64-.02-1.94-.03-3.54-1.21-4.96-.4-.48-.94-1.94-.56-2.32l1.32-1.35c1.25-1.28,2.94-1.9,4.75-1.63,9.36-6.08,9.74-2.3,14.68-4.71,2.77-1.35,6.24-2.28,9.34-2.51,7.2-.54,15.4-4.61,19.08-10.86,1.97.69,6.37-7.99,6.46-10.16.22-5.07-.14-7.69-1.69-12.4-.57-1.72-2.03-3.59-2.72-5.26-2.42-5.88-5.88-7.69-10.95-10.79-9.8-5.99-13.31-5.37-23.96-3.18l-5.64,1.16c-.44.09-1.54.06-1.73-.33s-.21-1.5-.04-1.95l2.28-6.06c2.89-7.68,3.52-15.96.7-23.89-1.23-3.45-4.04-5.87-6.66-8.72-4.52-1.08-9.18-2.62-13.98-2.63-5.52-.02-13.22,1.98-17.05,1.9-3.24-.06-6.19-.32-9.39-.16l-5.24.26c-.91.04-6.39,3.41-7.55,5.25-2.95,4.68-6.06,8.78-9.51,13.01-.01.01-3.66,6-4.53,7.13l-2.42,3.15-6.39,8.96c-1.7,2.38-3.17,4.51-4.41,7.19l-1.75,3.8c-2.35,5.08-5.68-4.4-8.58-7.71-2.15-2.46-2.71-3.23-1.77-6.51.49-1.77-1.55-5.21-1.79-7.18-.43-3.55-1.15-6.29-1.92-9.58.19.8-2.72-14.53-2.54-12.63l-.77-8.22c-.34-3.66-1.08-6.94-1.65-10.56l-2.28-14.46-1.46-5.56-1.05-5.6-1.56-8.29-1.61-9.36-2.23-8.2c-.9-3.31-.78-6.58-3.21-11.47-.91-1.84-1.11-5.28-2.76-6.46-2.12-1.52-5.5-.31-7.18,1.42.74,8.54,5.6,16.59,5.26,23.99-.09,1.85.63,2.84,1,4.33l2.53,10.21.69,4.83,3.02,13.38c.58,2.59.57,5.4.8,8.1.91,10.59,3.04,14.66,4.02,22.77.7,5.79,1.25,11.18,2.55,16.91l1.3,5.67.89,3.76c.1.4.24,1.64-.15,1.56-5.68-1.06-1.15-.88-9.72-1.89-3.17-.38-6.84-2.16-10.03-1.53s-5.94,1.29-9.26,1.22c-10.35-.23-13.42,3.48-16.92,13.12-3.71-.82-6.75-3.18-9.95-5.44l-2.83-2-4.56-3.9c-5.48-4.69-5.02-5.07-7.43-11.02-4.55,1.4-6.38-3.57-13.49-6.16-5.08-1.85-9.92.38-14.8,1.22-4.01.69-11.26,1.84-14.88,3.42-2.82,1.23-5.66,1.67-8.53,2.58-3.06.98-6.02,2.34-9.04,3.6-1.94.82-2.74,4.1-2.01,5.88,5.55,13.57-.69,7.89,13.77,21.72l3.19,3.05,6.1,5.43,7.12,5.96,5.38,5.1,4.25,1.11c2.33,2.65,8.49,5.28,11.84,6.42,4.86,1.65,8.9.38,8.45,1.74-1.17,3.5-3,2.65-3.14,6.73-.22,6.2,7.37,5.61,9.67,6.81,1.59.83,1.91,1.27,3.79,1.13,2.31-.18,5.48-.23,7.45.14,2.6,2.13,11,3.37,14.56,3.93,4.08.64,11.5,5.08,12.58,5.31,2.82.6,4.26,1.48,6.6,2.55,1.9.87,5.38,1.36,7.81,1.99,5.51,1.43,13.25-5.63,16.1-2.07.37,4.55,1.33,8.93,2.62,13.34,1.38,4.73,2.26,9.41,3.4,14.21s2.66,9.27,4.06,14.04c.75,2.53.61,4.87,1.97,7.37.69,1.41-.02,4.57.47,6.25.75,2.61,2.08,5.16,2.64,7.7.71,3.2,1.56,5.98,2.29,9.07l3.25,13.8c.9,3.84,1.88,7.2,2.51,11.27,2.31,14.98,5.68,17.42,7.99,28.13.34,1.57.68,3.79,1.21,5.25l5.2,14.18c3.91,10.66,7.99,16.17,11.09,26.1,1.13,3.64,3.4,6.24,5.9,8.97l2.69,7.88c.33.96,1.81,2.74,2.2,3.63-.19,1.62.03,2.78.9,3.96l3.12,4.19c1.8,2.42,2.21,5.96,3.47,8.72,2.75,6.02,3.76,4.53,7.74,15.26,1.03,2.77,2.79,4.72,4.49,6.97,1.97,2.61,3.5,5.74,5.32,8.49l2.89,4.4,2.89,5.8,5.73,8.57c5.94,8.89,3.89,6.87,8.59,15.21.85,1.5,1.58,4.37,2.55,5.57,1.6,1.97,3.52,3.97,4.79,6.2l4.82,8.44c.61,1.07,2.99,1.92,4.15,2.37l1.57,2.49c1.19-.43,2.81-1.11,3.98-1.77l.05-8.18c-3.46-.31-4.39-3.25-6.04-5.71Z"/>
  <path d="M511.2,488.49l-7.17-2.98-5.28-5.57c-3.59-3.79-.99-5-2.61-4.93s-1.32,1.97-4.09,6.82-5.54,5.17-6.54,6.56c-1.1,1.51-2.18,3.09-3.41,4.32-3.98,3.98-8.5,9.24-11.66,12.07l-7.84,7.02c-1.07.96-2.34,1.86-3.66,2.32l-4.56,1.58c-3.74,1.3-9.6.51-13.61-1.95-2.25-1.38-4.28-2.42-5.41-5.04-.89-2.08-2.43-3.64-3.75-5.57-2.43-3.54-2.06-9.31.15-12.84.59-.95,1.87-2.05,1.86-2.88l-.02-3.55c3.1-2.19,5.44-4.77,7.78-7.57,1.45-1.73,4.39-1.7,5.1-4.84l-9.3,1.98c-3.29.7-7.18.82-10.55.49l-5.02-.5c-2.28-.23-3.8-1.1-5.36-2.98l-5.3-1.13c-12.7-16.6-6.99-6.77-11.58-22.74-.79-2.75-.13-5.72-.02-8.4.25-6.11,2.07-16.86,9.92-16.93,9.44-4.33,25.65-7.22,35.05-1.19,2.58,1.65,2.62,6.16,2.51,8.81l-.36,8.4c-.09,2.02-.25,4.96.18,6.96.86,4.04,4.3,8.1,7.28,10.48s5.73-.67,7.74-1.9,3.53-1.87,4.96-3.64c3.87-4.75,4.54-.61,5.95-6.7l5.05-2.41c-5.99-7.61-6.94-5.79-11.32-15.02l-2.21-4.67c-1.29-7.77-2.51-6.73-4.02-14.16l-2.26-11.07c-.54-2.67-.19-5.99-.6-9.17l4.54-4.7c.32-.33.57-1.57.82-1.91.21-.28,4.16-1.09,7.95-2.7,1.6-.68,5.14-1.07,6.82-.73,6.06,1.23,1.75.22,8.93-.83-1.33-1.86-1.12-4.78-1.83-6.96-1.03-3.14-1.82-6.33-1.02-9.34-1.19-1.46-1.97-3.34-2.4-5.28l-1.54-6.94c-2.42-10.91.1-10-6.56-22.17-.3-.54-2.11-1.34-2.67-1.09-.66.29-1.45,1.08-2.19,1.87-2.67,2.84-5.14,5.37-8.05,8.13-1.69,1.61-5.01,2.49-6.56,4.12-2.96,3.11-5.92,3.76-9.72,4.89-4.33,1.29-8.48,2.73-13.37,2.04-4.35-.62-6.92,2.91-10.75.73-1-.27-3.23-.42-4.38-.6l-3.32-3.59c-2.76-.56-4.56-1.71-6.56-3.5-3.69-3.29-4.76-4.98-5.62-9.44s-2.89-2.97.2-9.61c.38-1.98.96-2.36,2.02-3.67,2.56-3.16,5.46-6.3,9.46-7.2,3.66-4.92,16.07-9.46,22.41-8.37,7.52-3.1,3.36-1.18,10.57-2.7,8.52-1.79,9.78-.36,18.54-2.22,1.6.93,3.42,3.14,4.43,4.83-1.9,4.08-5.64,5.27-9.7,3.99-2.63-.83-5.82.14-8.57.15-11.37.04-9.45,2.9-21.44,2.56l-4.73,2.79c-4.24,2.5-8.55,4.39-11.99,7.92-1.88,1.93-4.24,5.03-3.33,7.94,1.52,4.85,4.71,6.76,6.87,9.42.78.96,1.9,3.72,3.19,3.72,8.06-.04,18.67-1.13,25.67-3.66,1.42-.51,3.35-1.58,4.71-2.28l5.78-2.97c2.35-1.21,4.02-3.77,6.04-5.38,2.28-1.82,5.19-2.68,5.46-6.13l2.53-1.3c.59-1.89,2.09-3.26,3.02-4.82.81-1.36.7-3.78,2.23-4.74,3.1-1.94,2.7-4.7,1.91-7.61l-1.67-6.19c-.66-2.43-1.27-3.92-2.61-6.12-1.49-2.44-1.03-7.09-4.24-9.03-1.49-.9-1.27-2.52-2.12-3.79-3.54-5.3-7.22-10.75-8.36-16.85-2.36-12.55-2.3-5.76-3.77-8.86-1.86-3.94-3.74-7.87-6.07-11.64s-.12-.88-5.23-5.01c-1.35-1.09-1.15,3.2-3.08,3.15-.65-.02-1.36-1.24-1.22-1.87l.39-1.69c.28-1.24-5.16-1.16-7.18-1.9-2.53-.92-3.76-1.07-6.02-.35-8.79,2.79-19.3,5.76-20.94,16.93l1.78,7.61c.51,2.17.76,3.98,1.5,5.93,3.77,9.99,10.73,6.64,9.71,10.79,3.23,1.01,7.05,2.3,10.62,2.9l10.55,1.77,3.54-.72c1.03-.21,1.95-1.05,2.6-2.03,1.79-.36,4.66,1.02,5.91,2.65l-.89,5.16-4.93,2.7-1.62-.62c-.29-.11-1.11.62-.94.88.23.35.75,1.07,1.08,1.47l.84,1.03c.16.2-.03.57-.22.71-.27.2-1.28-.07-1.57-.29-7.16-5.34-3.11-.48-9.8-3.21-1.35-.55-3.29-1.76-4.51-2.01-8.98-1.81-22.47-5.25-26.29-14.4l-2.94-7.05c-1.14-2.72-3.35-10.05-3.45-13.29,2.41-1.1.74-3.94,1.59-5.48l2.59-4.72,2.1-3.68,9.12-6.44,7.07-1.67c.81-.19,2.17-1.2,2.95-1.28,9.82-1.03,9.88-2.54,19.99,1.18,1.09.4,1.89.65,2.99,1.46l5.61,1.05c2.04.38,3,2.34,3.62,4.55l4.97.84,1.7-3.57c.01-3.28.14-6.16.36-9.33l.42-6.08c.16-2.25.33-4.5.67-6.58l1.48-9.06c.21-1.28.32-2.19-.19-3.69l2.03-1.21c.5-.3.07-1.97.23-2.59l1.58-5.95,1.38-7.59c.41-2.25,1.38-3.44,1-6.17-.24-1.69,1.19-4.43,1.58-6.33.7-3.38,1.45-6.76,1.75-10.26l.37-4.28c.15-1.73-.23-4.05-.44-5.82l-7.09,1.99c-11.51,3.23-8.54,3.31-20.14-.94-6.92-5.17-3.94-5.07-8.83-10.16-3.21-3.34-10.95-11.92-11.7-16.07-.38-2.11-.66-8.65-.45-11.05.08-.87,1.79-2.2,2.34-3.02,7.13-10.72,7.24-3.42,11.6-9.36.92-1.25,2.36-2.04,3.61-2.89,3.19-2.17,5.85-3.67,10.1-3.44-.11-3.29-4.41-.62-4.36-4.67,0-.52-.43-2.17-.9-2.24l-2.34-.34c-6.31-5.55-10.52-12.84-11.87-21.3l-1.27-7.93c-.82-5.12,2.49-7.14,5.72-9.52,2.69-1.97,4.85-3.55,7.92-4.94,1.68-.76,3.35-3.56,5.02-4.58,4.08-2.5,8.65-2.27,13.29-2.82,2.23-.27,2.91-3.67,14.04,1.73.51.74,1.45,2.4,2.14,2.96,3.95,3.17,6.87,7.86,6.93,13.12.04,3.5-.02,6.7-.95,9.93-1.42,4.97-1.96,10.1-2.33,15.39l-.44,6.43c-.22,3.24-.75,6.09-.6,9.51,2.25-.1,2.92-1.31,3.78-3,.71-1.4,2.01-3.08,2.46-4.45.86-2.6,1.99-3.94,3.7-5.8,1.33-1.45,2.49-2.77,4.12-4.05l1.66-2.12c7.46-4.32,4.66-.77,10.91-4.64,2.94-1.82,7.87-2.62,11.41-1.67,3.34.89,5.89,3.57,8.77,5.35,13.67,8.48,7.24,12.01,12.57,11.9-.77,2.12-.73,4.07.44,5.81,1.49,2.23.14,5.21-.18,7.62-.29,2.19-.81,3.69-1.82,5.47-1.84,3.25-3.31,6.87-5.89,9.45l-6.67,6.69c-.6.6-2.31,1.5-2.95,2.05-1.67,2.26-3.88,3.88-6.56,4.9l-1.28,2.71c-2.04.69-4.46,2.13-6.18,3.54-.42.34-2.07.22-2.31.69l-.99,1.95c-5.67,1.07-2.91,2.01-10.18,5.06,1.68,3.28,1.65,6.23,1.79,9.77.11,2.78-.07,4.74-.85,7.45-.55,1.91-.57,4.07-1,6.3-.82,4.27-1.71,10.42-2.05,14.44-.04.5,1.49,2.11,1.06,2.26l-2.31.78-1.34,4.75c1.12,2.06.44,3.86.05,5.97l-2.09,11.34c-1,5.44-1.32,10.99-1.03,16.34.12,2.18,3.97,2.85,5.59,2.9,3.18.1,5.36,1.54,7.64,3.65,1.14,1.05,4.08,2.25,4.48,3.96.67,2.87,1.04,6.6.38,9.38l-.96,3.98-1.37,5.47c-1.05,4.2-5.37,14.17-6.86,19.65-.88,3.23-2.61,5.58-4.05,8.59l-3.03,6.38-2.15,4.44c.44.78,2.35,1.88,2.49,2.74.22,1.37-2.36,6.51-5.21,6.81-1.35,1.93-.15,5.58-.42,7.95-.73,6.2-3.45,11.68-.8,17.69,2.05,4.65,2.6,9.16,3.94,13.9l2.02,7.15c2.07,7.33-1.66,1.51,1.4,6.79,1.89,3.26,1.02,7.45,1.53,11.21.24,1.13.96,3.03,1.28,4.22l1.3,4.86,1.45,6.21c1.02,4.35,1.7,9.12,4.08,12.87l2.06,3.24c1.09,1.71,1.08,3.85,1.98,5.72l1.75,3.63c1.19,2.46,2.16,5,4.36,6.86.39.33,1.28,1.42,1.92,1.66,2.42.88,5.27-2.33,6.55-4.47,1.73-.88,8.37-6.6,7.92-7.55l-1.51-3.2c-3.88-8.22-2.13-11.07-6.77-18.21l-.16-4.1c-2.32-1.3-3.75-2.97-3.59-5.75.12-2.01-1.12-3.58-1.89-5.24-.91-1.95-1.69-3.6-2.76-5.59-.76-1.41-.41-4.52-1.23-5.87s-1.95-2.7-2.51-4.05l-4.17-10.09c-.67-1.62-.86-4.05-1.36-5.85l-1.35-4.93c-1.7-6.21.07-2.95-1.75-11.9-.52-2.57-1.32-5.17-1.42-7.79l-.46-11.64c1.93-2.77,7.53-4.21,8.25-3.72.42.29.82,1.5.88,2.08l1.99,19.18c.19,1.8.54,3.23.79,5.07l1.04,7.86,1.68,5.08c.94,2.86,3.29,5.87,2.54,9.43-.14.66-.08,2.59.5,2.88l2.39,1.18c.4,1.89.89,4.25,1.61,5.93l3.17,7.4c.75,1.76,1.45,3.63,2.13,5.4l1.73,4.5c1.04,2.7,1.79,5.83,3.14,8.5,2.33,4.61,3.97,9.43,4.89,14.49.17.97,1.29,2.7,1.82,4.1.78.32,2.71-.75,3.87-1.39l6.83-3.8,4.02-2.24c1.97.65,6.38-.39,8.15-1.46l4.62-.28c3.87-2.51,7.95-3.57,12.31-4.97,5.38-1.72,11.57-2.94,16.49.93l5.06,3.98c4.84-5.54,1.57-5.75,5.26-8.13,2.18-1.4,3.47-3.14,4.59-5.5.81-1.7,2.68-2.96,3.72-4.27.1-.12.65-2.84,3.92-4.12.56-.22,1.63.82,2.26,1.1l.96.42c1.73.75-2.12-2.47,1.99-5.37l6.1-4.3c1.56-1.1,4.72-.77,6.05-2.19,1.43-1.54,2.35-1.6,4.33-1.91,3.29-.52,6.43-1.6,9.9-1.62,2.83,0,2.66-2.72,15.3-4,3.9-.39,6.98,2.05,10.49,2.84,11.08,2.48,7.99,3.72,16.6,7.01,2.64,1.01,4.6,2.42,5.09,5.53.15.94,1.27,2.89.99,3.83l-1.67,5.65c-1.45,4.94-8.68,13.77-12.59,17.89-.85.9-2.98,2.01-4.09,2.82l-6.16,4.54c-1.86,1.37-5.61,2.42-7.9,3.45-1.64.73-2.39-.57-4.92.46-2.15.88,7.4,4.36,10.52,12.84,2.31,6.25,2.07,4.98.19,11.23l-2.25.9c-.5.2-.56,1.83-.91,2.19l-4.31,2.75c-2.85,1.82-11.9,2.36-15.22,1.7l-8.26-1.64c-2.43-.48-4.36-.94-6.92-.92-9.76.08-17.48-.31-26.41-3.78-.79-.31-2.26-1.8-3.15-1.73-6.3.55-6.4-6.59-7.68-7.01-.41-.14-1.57,0-1.62.45l-.26,2.44c-.06.56-1.12.57-2.23.88l-.69,3.49c-2.68-.03-2.81,1.62-3.51,3.42l-1.84,4.72-4.03,1.81c-1.86,1.47-3.42,1.96-5.6,2.65-8.85,2.8-14.25,5.88-22.95,6.96.79,2.2,3.14,2.38,4.79,3.37l11.37,6.87c3.8,2.3,3.79.84,5.32,5.31.35,1.02,2.56-.89,4.88,4.07,1.59,3.4,1.98,8.11.46,11.52l-2.88,6.48c-1.4,3.15-6.86,7.69-9.39,8.37s-3.98,2.4-5.93,3.46l-5.44,2.96c-1.89,1.03-4.75,1.81-7.1,2.66-1.9.68-4.7.57-6.85.95,1.21,9.08,4.56,31.66,4.39,40.29l-.09,4.45.39,5.94c.12,1.85,1.36,4.19.73,5.96-2.08,5.82.34,8.2-.1,16.67l-.8,15.46c-.09,1.68-2.07,4.41-2.44,6.42-.92.63-2.88.62-4.11.11l.29-7.09c.04-.92-.91-2.81-1.13-3.67l-.09-22.92c-.02-4.83.51-9.85-.43-14.53-.33-1.62-1.68-3.08-1.55-5.06.28-4.12-.11-8.05-.09-12.02.01-2.81.06-5.16-.59-7.82l-1.08-4.44-1.28-5.49c-1.62-6.95,1.18-11.94-4.95-13.98l-8.71-2.9c-1.32-.44-3.11-1.02-4.61-1.64ZM459,87.54c-.54,1.88,2.71,3.22,4.23,2.06l3.62,2.18c1.43.86,3.86,1.88,4.96.6-.11-2.96.07-5.57.71-8.32-.48-2.59-.51-5.15.05-7.84.94-4.44-.14-9.51,1.3-13.68.71-2.05,1.91-3.79,2.1-6.16l.73-8.99c-2.62-3.78-5.34-8.03-8.95-10.21-6.22-3.75-18.44,2.11-23.77,5.44-5.75,3.6-8.75,8.48-5.4,15.19.69,3.78,2.42,7.08,4.39,10.36l2.09,3.47c1.16,1.92,9.83,9.85,13.5,6.9l2.02,4.18c.56,1.16-1.21,3.56-1.58,4.83ZM496.02,129.19l4.14-2.84c1.35-.93,3.14-1.5,4.81-1.85l.77-3.52c7.01-1.97,9.44-5.68,14.74-9.9,2.16-1.72,4.36-3.43,4.79-6.3l3.52-2.41,2.86-7.96c.42-1.17-.15-3.83.5-4.97,1.39-2.44-.11-3.6-1.23-5.27l-3.01-4.5c-2.37-3.54-4.69-5.75-8.77-7.59-1.89-.85-3.4-3.82-6.13-2.63-2.06.9-4.43,2.49-6.58,3.21-2.63.89-4.14,2.08-6.3,3.64-5.7,4.09-4.11,2.91-7.46,7.52-3.75,5.16-7.04,10.18-8.03,16.88l8.17,7.35c1.43,1.28,3.2,2.93,4.38,4.41,1.53,2.06.14,6.67-1.51,8.14s-4.04-.25-5.19-1.36l-4.58-4.4c-2.33-2.24-3.71-5.5-4.69-4.25-.28.36-.37,1.59-.13,1.98,3.56,5.82.61,4.3,3.79,10.53,4.09,3.77,6.07,4.76,11.15,6.08ZM465.26,136.89c.78.22,2.94-.38,2.9-1.03s-.19-1.79-.33-2.87l4.06-2.8c.56-.39,2.06-.68,3.09-1.08l-4.52-5.32-.51-4.73c.91-.39,2.03-.62,2.04-1.12l.05-1.9.4-8.7,2.86-2.2c-6.41-6.49-14.42-8.47-22.76-8.86-9.11-.43-5.81-.4-15.27,4.98-2.05,1.16-6.58,4.38-6.99,6.36-1.31,6.38,1.61,11.55,6.54,15.36,1.47,1.13,3.08,3.3,4.32,4.84l.97,3.47c2.12,1.51,3.39,3.45,4.43,6.12,3.24,1.48,10.22,1.38,13.31.82,1.46-.27,3.16-1.95,5.4-1.33ZM477.07,210.13c-.68-4.35.67-7.2,1.26-11.08l.98-6.44c.47-3.08,1.16-5.95,1.86-9.08.35-1.55.38-3.15.98-4.66,1.05-2.63.16-6.09.89-8.71,2.4-8.55-.44-8,3.24-15.13-.87-5.93,3.06-5.97-.82-9.5l1.17-3.77c-.5-.34-2.34-.52-2.81-.06-3.05,2.96-2.59,4.87-2.93,6.77l-1.79,9.87c-.37,2.02-.97,3.81-1.72,5.87-.35.96-.27,2.89-.53,4.03l-2.53,11.05-1.89,8.96c-.35,1.67-.73,3.51-.95,5.21l-.65,4.96-1.31,7.24-1.2,6.61c-.37,2.05-2.57,5.11,0,7.15l5.35-3.76c2.19-1.54,3.98-1.64,3.38-5.5ZM482.46,272.59c1.7-1.83,2.62-3.73,3.19-6.26.56-.94,1.68-2.62,2.03-3.7l1.49-4.52c-1.98,6.01,5.55-13.44,2.62-6.94,1.95-4.33,5-11.26,5.01-16.35,0-1.39.89-3.42.23-4.65s-7.84-6.17-8.42-3.33l-1.04,5.17-3.86-.46-2.47,1.22c-.83-5.48-3.58-1.2-3.65-6.21-.01-.91-.64-2.48-1.37-2.73-2.66-.94-2.64,2.36-6.51,3.68l-1.45,3.77c2.07,1.36,3.3,2.98,3.62,5.16l.6,4.05c-4.9,2.36-6.18-1.38-10.73-.64l.43,4.66c-.23.5-1.15,1.51-.92,1.94.18.34.8,1.18.94,1.59l1.53,4.42c.78,2.26,1.11,4.64,2.07,6.84l2,4.64c1.4,1.15,2.71,2.04,3.39,3.84.32.84,1.56,2.08,1.94,2.91l3.46,7.52c.34.74.9,1.8,1.3,2.25s2.02.34,2.18-.03c.13-5.48,2.46-2.56,2.37-7.84ZM638.82,377.04c2.01,1.16,3.36,3.92,4.73,5.62,3.05-.32,5.09,1.38,5.71,4.41,5.86,3.17,11.2-.18,16.63-2.72,1.36-.64,1.88-1.23,2.25-3.01.63-.44,2.75-1.18,3.46-1.88l4.41-4.3c1.08-1.06,1.61-1.78,2.47-3.32,1.11-1.97,4.04-3.98,5.46-5.74l.87-8.74c-1.97-.73-4.56-1.5-6.54-2.37l-6.88-3.01c-6.85-3-12.47-2.55-19.47-.63l-4.63,1.27-4.66,1.25c-1.84.49-4.7.52-6.62.54-4.57,1.16-4.91,3.97-7.19,3.81-3.25-.23-5.46,2.89-7.8,5.45-1.13,1.24-4.23,1.51-4.87,3.68l-2.98,1.97-4.98,6.01c-1.2,1.45-2,3.28-3.24,5.46l10.2-5.53c6.73-3.65,6.29-3,13.64-2.6,3.54.19,6.59,2.39,10.03,4.39ZM633.19,417.08c1.99.12,3.67.13,5.5.49l5.71,1.12c3.15.62,6.26-.07,9.67-.53,2.31-.31,7.09-.6,7.01-4s-4.03-6.55-6.35-8.88l-5.04-5.05c-.73-.73-2.14-2.33-2.76-3.13-1.14-2.82-2.89-4.41-6.09-4.81l-4.83-.6-2.77-5.85.53-3.88c-9.59-4.48-14.48-.8-21.3,4.7l-3.18,2.57c-.89.72-3.34,1.93-4.27.73-1.33-1.71.58-4.13-.47-6.44-.12-.26-1.09.02-1.19.29l-1.74,4.66c-2.75,7.37-4.4,3.53-5.87,9.74,1.52.86,4.05,1.16,5.73,1.32l2.16,4.46-3,.78c-.81.21-2.04,1.18-2.25,2.01-.19.73,1.15,1.87,1.61,2.59,1.94,3.02,5.39,2.84,8.21,4.06,4.5,1.95,9.28,3.26,13.97,2.29,2.78-.58,11.91,1.42,11.03,1.37ZM523.58,433.11l1.83-1.85,5.05-1.02c1.62.93,4.16,4.14,6.13,3.89,10.1-1.29,8.58-2.61,18.03-5.09l7.91-2.08c9.64-2.53,1.43-1.24,10.16-4.63,4.51-1.75,6.21-6.47,8.86-9.79,1.77-2.22,2.83-3.8,3.82-6.39,2.29-6,4.99-12.43,2.67-19.06-.87-2.49-5.45-4.56-7.74-4.12-2.72.52-4.75,1.06-7.02,1.84l-12.65,4.35c-2.84.98-5.64,2.28-8.42,3.03-1.94.52-4.02.69-5.8,1.6-2.22,1.13-4.51,2.1-6.55,3.27l-9.96,5.74c-1.34.78-2.77,2.7-4.14,3.95-2.67,2.44-6.09,5.06-7.44,8.34l.38,3.99c-2.78.29-3.41,1.5-4.96,2.96-1.02.97-2.05,1.87-2.58,3.15-1.28,3.13-2.41,5.79-3.3,8.97,2.48-1.07,2.08-2.56,3.17-4.39,5.93-.9,6.46,2.53,12.55,3.33ZM487.71,425.14c1.58,2.97-1.5,7.55.66,7.84,2.32.31,0-2.26,4.81-7.2.59-.61-.29-2.67-.51-3.2,1.5-1.04,4.36-5.41,4.18-7.33-.42-4.66-.13-9.21.36-13.6-4.8-3.27-4.08-13.31-10.58-16.28-3.69-1.69-18.77-.84-20.62,2.68-1.78,7.86-.94,6.23.08,10.5.65,2.71.47,6.1,1.49,8.61.92,2.27,1.73,4.34,2.3,6.61.24.95,1.58,2.43,1.96,3.32.78,1.82,1.53,3.49,2.65,5.16,1.23,1.83,2.22,4.59,3.73,6.08l3.23,3.2c2.34,1.15,1.53-7.8,6.26-6.39ZM500.69,432.16c.69-1.57,1.03-3.8,1.76-5.27l2.07-4.16,2.09-4.5.79-1.75c.18-.39-1.14-.91-1.57-.91s-.89.64-1.17,1.25c-2.49,5.51-4.55,10.04-7.63,14.94-1.4,1.6-2.71,2.92-1.53,4.84.49-.35,1.6-1.25,1.66-.86l.29,2.07c.1.7.34,2.11.89,2.12,4.85.03.05-2.51,2.35-7.78ZM429.33,465.68c2.8-.32,5.86-.59,8.4-1.38l8.04-2.48c.47-.15,1.56-.77,1.48-1.21-.32-1.74-2.81-2.09-6.1-9.96-1.68-4-1.18-8.45-1.53-12.81-.17-2.08-1.36-3.81.18-5.95l-1.48-5.36c-1.42-1.47-4.2-1.41-6.26-1.53-2.46-.15-5.36-.92-7.51-.32-10.59,2.96-2.42-.7-13.41,4.16-2.85,1.26-4.26,4.07-3.74,7.38.47,3.02-2.36,9.06,2.69,17.87,2.48,2.5,4.38,4.8,6.2,7.84l3.87,3.2c3.02.19,6.2.9,9.16.56ZM528.62,481.27c1.5-2.15,4.57-1,5.63,1.01.62,1.17,2.29,4.05,3.59,3.78l5.97-1.23c1.83-.38,3.41-1.24,5.03-2.25s4.32-1.69,5.83-2.86c2.34-1.8,4.27-3.01,7.27-3.95l3.68-3.99c3.01-3.26,2.5-9.44-.24-12.79-2.58-3.16-16.18-9.95-17.54-10.85l-5.48-3.63c-3.73-.59-7.69-1.98-11.3-1.69-3.91.31-7.76,1.07-10.26-2.75l-9.05-1.94-4.19,3.57c1.47,3.04,7.49.8,9.28,4.79-3.09,4.1-4.14.76-4.48,6.69-2.35,1.29-3.86.13-8.71,2.35l-1.78,3.72,1.12,10.46c.98,1.22,2.59,2.98,3.89,4.31,13.08,13.44,3.37,1.26,15.2,10.11l5.72.7.85-3.57ZM505.93,442.94c-2.5-1.16-5.65-1.26-4.94.84.57,1.68,4.6.49,4.94-.84ZM489.32,452.8c2.6.05,5.94-2.92,7.77-5.23-7.99.89-10.02-3.85-17.55,2.03l-5.32,4.16c.74,1.21,2.58,1.18,3.72.3,1.92-1.48,3.64-1.39,5.86-1.35l5.53.1ZM458.38,504.39l4.16-1.45c-.56-4.35,3.32-4.68,5.48-6.65l4.56-4.17c2.26-2.07,4.32-4.11,6.46-6.31,1.12-1.15,2.23-2.99,3.35-4.26l4.16-4.73c1.99-2.26.32-9.51,2.1-15.56l-13.79,2.41c-3.07.54-5.77,2-8.6,3.14-5.05,2.04-8.27,5.53-11.97,8.9-1.49,1.36-3.2,2.36-4.51,4.01-3.7,4.63-8.44,8.33-10.59,14.19-.84,2.28-1.2,8.83,2.77,9.3,2.37,5.43,12.96,5.63,16.42,1.18Z"/>
  <path d="M639.09,966.04c1.64,2.47,2.58,5.41,6.04,5.71l-.05,8.18c-1.17.65-2.79,1.33-3.98,1.77l-1.57-2.49c-1.15-.45-3.54-1.31-4.15-2.37l-4.82-8.44c-1.27-2.23-3.19-4.23-4.79-6.2-.98-1.2-1.71-4.07-2.55-5.57-4.7-8.33-2.65-6.31-8.59-15.21l-5.73-8.57-2.89-5.8-2.89-4.4c-1.81-2.76-3.35-5.88-5.32-8.49-1.7-2.25-3.46-4.2-4.49-6.97-3.98-10.73-4.99-9.24-7.74-15.26-1.26-2.76-1.67-6.3-3.47-8.72l-3.12-4.19c-.88-1.17-1.09-2.34-.9-3.96-.39-.9-1.87-2.67-2.2-3.63l-2.69-7.88c-2.5-2.73-4.77-5.33-5.9-8.97-3.09-9.93-7.17-15.43-11.09-26.1l-5.2-14.18c-.53-1.46-.87-3.67-1.21-5.25-2.31-10.71-5.68-13.15-7.99-28.13-.63-4.06-1.6-7.43-2.51-11.27l-3.25-13.8c-.73-3.09-1.57-5.87-2.29-9.07-.56-2.53-1.89-5.08-2.64-7.7-.48-1.68.22-4.84-.47-6.25-1.37-2.5-1.23-4.84-1.97-7.37-1.4-4.77-2.93-9.25-4.06-14.04s-2.02-9.48-3.4-14.21c-1.29-4.41-2.25-8.79-2.62-13.34-2.84-3.56-10.59,3.5-16.1,2.07-2.43-.63-5.92-1.12-7.81-1.99-2.34-1.07-3.78-1.95-6.6-2.55-1.08-.23-8.51-4.67-12.58-5.31-3.56-.56-11.96-1.8-14.56-3.93-1.96-.37-5.14-.31-7.45-.14-1.88.14-2.2-.3-3.79-1.13-2.3-1.2-9.89-.61-9.67-6.81.14-4.07,1.97-3.23,3.14-6.73.45-1.36-3.59-.09-8.45-1.74-3.36-1.14-9.52-3.77-11.84-6.42l-4.25-1.11-5.38-5.1-7.12-5.96-6.1-5.43-3.19-3.05c-14.46-13.83-8.22-8.15-13.77-21.72-.73-1.78.07-5.06,2.01-5.88,3.01-1.26,5.97-2.63,9.04-3.6,2.87-.92,5.72-1.35,8.53-2.58,3.62-1.59,10.88-2.73,14.88-3.42,4.88-.85,9.72-3.07,14.8-1.22,7.11,2.59,8.94,7.57,13.49,6.16,2.42,5.95,1.95,6.34,7.43,11.02l4.56,3.9,2.83,2c3.21,2.26,6.25,4.63,9.95,5.44,3.5-9.64,6.57-13.36,16.92-13.12,3.32.08,6.05-.58,9.26-1.22s6.86,1.15,10.03,1.53c8.58,1.02,4.04.83,9.72,1.89.39.07.25-1.16.15-1.56l-.89-3.76-1.3-5.67c-1.31-5.72-1.86-11.12-2.55-16.91-.97-8.1-3.1-12.18-4.02-22.77-.23-2.7-.22-5.51-.8-8.1l-3.02-13.38-.69-4.83-2.53-10.21c-.37-1.48-1.09-2.47-1-4.33.35-7.4-4.52-15.45-5.26-23.99,1.67-1.73,5.05-2.94,7.18-1.42,1.66,1.19,1.85,4.63,2.76,6.46,2.44,4.89,2.31,8.16,3.21,11.47l2.23,8.2,1.61,9.36,1.56,8.29,1.05,5.6,1.46,5.56,2.28,14.46c.57,3.62,1.31,6.9,1.65,10.56l.77,8.22c-.18-1.9,2.73,13.43,2.54,12.63.77,3.29,1.49,6.03,1.92,9.58.24,1.97,2.28,5.42,1.79,7.18-.93,3.28-.38,4.05,1.77,6.51,2.89,3.31,6.23,12.78,8.58,7.71l1.75-3.8c1.24-2.68,2.72-4.82,4.41-7.19l6.39-8.96,2.42-3.15c.86-1.12,4.51-7.11,4.53-7.13,3.46-4.24,6.57-8.34,9.51-13.01,1.16-1.84,6.64-5.21,7.55-5.25l5.24-.26c3.2-.16,6.15.1,9.39.16,3.83.08,11.53-1.92,17.05-1.9,4.8.01,9.46,1.55,13.98,2.63,2.62,2.85,5.43,5.27,6.66,8.72,2.82,7.93,2.19,16.22-.7,23.89l-2.28,6.06c-.17.46-.15,1.56.04,1.95s1.29.42,1.73.33l5.64-1.16c10.64-2.19,14.15-2.81,23.96,3.18,5.07,3.1,8.52,4.91,10.95,10.79.69,1.67,2.15,3.54,2.72,5.26,1.55,4.71,1.91,7.33,1.69,12.4-.09,2.17-4.5,10.85-6.46,10.16-3.68,6.25-11.88,10.32-19.08,10.86-3.11.23-6.57,1.16-9.34,2.51-4.94,2.41-5.31-1.37-14.68,4.71-1.81-.27-3.5.35-4.75,1.63l-1.32,1.35c-.38.38.17,1.84.56,2.32,1.18,1.42,1.19,3.02,1.21,4.96.03,2.88.61,5.85.22,8.64-.37,2.6-.87,5.29-.92,7.77-.06,3.44-.71,5.64-3.19,8-1.78,1.7-2.93,4.04-4.43,6.15-1.7,2.4-4.76,5.1-7.48,6.34-1.71.78-3.86.74-5.59,1.72-1.33.76-2.84.63-4.62.73-1.15.07-1.26,3.16-.8,4.3,1.15,2.86,1.87,5.5,1.78,8.65-.05,1.71,1.41,2.78,2.16,3.92s1.76,3.65,1.91,4.97c.66,5.7-.74,6.51.91,10.8,1.02,2.65,1.65,5.5,2.44,8.23l1.26,4.36c.47,1.62.62,3.22.9,5.11.34,2.29,1.74,4.87,2.42,7.17,1.03,3.54,2.06,6.84,2.85,10.38.99,4.48,2.13,8.76,3.58,13.02,1.95,5.71,1.58,6.66,3.16,12.69.5,1.9,1.95,4.53,2.11,6.24.2,2.13.31,3.86.62,5.85l2.97,19.36c.49,3.17,1.25,6.11,1.05,9.46l-.41,7.03.8,7.78,1.35,10.95c.43,3.5.77,6.69,1.39,10.15s1.28,6.87,1.67,10.28c.27,2.39-.1,5.02.46,7.56.63,2.82.78,5.64,1.21,8.27l1.1,6.66c1.22,7.36-.67,3.73,3.64,13.28l2.58,5.73c2.04,4.52,7.09,8.04,5.97,10.13-1.88,3.51-1.93,6.35.27,9.65ZM602.82,679.22c-2.46-1.76-6.68-3.53-9.7-3.74l-8.35-.58c-2.33-.16-4.16-.41-6.06-1.75-1.66-1.17-3.08-3.28-1.79-5.23l3.44-5.23c-4.25-2.58-7.44-5.22-11.49-7.23-1.66-.82-3.72-1-5.29-2.3-1.95-1.61-4.21-1.85-6.56-2.56-4.86-2.95-9.61-5.59-14.82-7.08l.61-5.11c.15-1.25,1.96-3.28,3.13-4l7.94.23c2.53.07,3.55.23,5.91-.53,2.21-.71,4.7-1.23,6.99-1.87l5.64-1.56c2.55-.7,5.06-1.44,7.47-2.55,3.73-1.71,7.31-2.24,11.25-3.18l6.86-1.63c3.42-.81,6.37-1.31,9.3-4.61l3.95-4.45c1.25-1.4,1.9-3.29,2.76-5.02l2.74-5.5c2.89-5.8,2.3-7.99.5-14.85-.9-3.42-1.67-5.27-5.03-6.76-2.16-.96-3.98-1.42-6.64-1.27-2.9.16-6.62-1.22-9.26.41-5.6,3.45-2.74-.64-13.3,1.87l-7.99,1.9c-1.6,2.74-3.19,4.43-5.27,6.59-3.65,3.79-7.42,8.17-10.64,12.37-.55.71-.51,3.18-1.33,3.31-1.48.24-3.23.74-3.92,1.63-.54.7-.06,2.78.03,3.82-1.7,2.85-3.88,6.45-5.58,9.52l-5.73,10.34c-1.05,1.9-1.63,5.2-2.19,7.65-.33,1.43.26,4.7.88,5.99l3.04,4.15c.57.77,1.76,1.72,1.67,2.46-.1.9-1.23,1.98-2.06,2.41-.61.31-.88,2.15-1.28,2.7-5.48,7.63,2.24,12.94-.3,17.76-1.25,2.37-.37,3,.15,5.01,1.12,4.28,2.04,8.06,4.95,11.55l3.3,3.96,1.79,3.93c2.26.66,3.4,1.65,5.12,2.78,1.83,1.21,4.14,2.62,6.04,3.62l6.98,3.68c1.93,1.02,14.12,4.21,17.49,4.35,12.28.53,9.45-2.2,12.03-5.13,4.42-5.02,2.2-4.84,6.68-13.85.61-1.24.42-13.22-4.07-16.43ZM456.98,648.67c1.4-1.5,4.41-2.18,6.05-3.3l5.98-4.07c4.02-2.74,4.87-1.58,5.24-3.09.63-2.59-4.98-2.86-6.83-5.34-3.81-5.13-2.72-4.83-8.89-9.28l-5.77-4.17c-5.69-4.11-10.43-8.84-14.44-14.68-1.12-1.63-2.98-2.63-4.82-2.8-7.28-6.83-19.07-1.1-24.41-.51-3.16.35-5.55.76-8.05,2.67-1.73,1.32-4.04,2.36-5.86,3.5-2.68,1.68-.46,5.16,1.39,6.54,1.37,1.02,2.25,3.04,3.15,4.62.77,1.35,2.72,2.33,3.61,3.35,2.56,2.92,5.01,5.54,7.75,8.22,7,6.84,5.31,5,12.24,9.24l7.75,4.76c3.16,1.94,7.09,2.53,10.68,3.75l8.58,2.91c2.93.99,4.53-.03,6.66-2.31ZM529.52,636.77c-1.48-1.05-.43-3.3-.88-4.1-1.44-2.58-3.03-5.19-4.68-7.62-1.91-2.83-8.35-6.67-11.6-8.09-2.59-1.13-5.97-.67-8.32-2.21-5.3-3.48-3.99,2.09-9.04-1.27-2.08-1.39-4.21.82-6.08,1.45-2.25.75-5.17,1.52-6.79,3.29-.18,5.08,2.75,10.16,7.26,12.3,1.81.86,4.38,1.22,5.96,2.38,2.94,2.17,6.51,1.8,9.44,3.03,1.73.73,3.08,3.33,5.81,3.41,1.7.05,4.77,1.04,6.3,1.76,4.92,2.35,10.55,1.26,12.64-4.35ZM616.34,664.59c7.54-.09,8.66-3.12,14.49-3.63,5.66-3.75,9.77-.88,16.76-3.06,2.82-.88,4.95-3.64,7.29-5.22,1.9-1.28,2.64-2.5,3.28-4.73.36-1.25,1.8-3.13,1.9-4.53.18-2.4.14-5.89-.9-7.85l-3.08-5.78c-11.65-7.1-12.25-6.82-25.67-5.71-1.51.13-4.01-.09-5.15.44l-5.33,2.45c-2.18,1-4.75,1.88-6.79,3.01-2.44,1.34-4.34,3.09-7.06,3.46-1.08,1.96-2.77,3.87-4.84,5.03-2.37,1.32-4.35,2.77-6.7,4.28l-5.72,3.65-.47,2.8c-1.67.43-4.03,1.59-4.65,2.96.43,2.79,2.71,4.08,4.69,5.41.83.55,1.9,1.59,2.73,2.09,3.06,1.83,6.11,3.82,8.95,5.95.87.65,3.45.22,4.42.58,3.69,1.4,10.12,1.19,11.86-1.59ZM574.34,643.42c2.37,1.54,3.49.06,4.89-1.06l3.73-3.01c3.28-2.64,7.3-2.05,6.76-4.36-.12-.51-1.44-.84-1.98-.65l-7.26,2.56c-5.43,1.91-10.35,3.7-16.16,4.66-.62,2.59,8.21,5.09,10.03,1.87ZM498.5,675.17c4.01.69,6.95.89,10.64-.08,2.61-.68,5.28-1.41,7.79-2.35,6.06-2.28,5.16-.27,12.89-3.95.55-3.84-.87-6.74-3.62-9.13-3.43-2.98-3.04-8.23-13.86-6.49-3.14.5-5.9-.15-8.57-1.16-2.43-.92-4.9-1.62-6.99-2.93l-7.76-4.89c-.63-.39-1.66-2.23-2.33-1.96-6.3,2.6-11.86,6.77-17.63,10.61-.38.25-15.79,8.28-10.4,10.44,2.71,1.09,6.53,1.44,9.53,1.99,2.76.5,5.43,1.34,8.11,2.06l6.01,1.61c2.49.67,4.51,1.36,6.72,2.61l5.02,2.85,4.46.77ZM616.94,917.88c-.09-1.09-1.59-3.05-1.25-4.16.84-2.72.39-4.53-.47-7.04l-.37-4.55c-.23-2.83-2.36-5.59-1.89-8.41.58-3.5-.31-6.3-.78-9.58l-1.55-10.77c-.49-3.4-.63-6.52.01-9.89l-1.76-2.86c1.75-5.55.15-10.6-.62-15.96l-2.53-17.53c-.26-1.77-.48-3.36-1.03-4.92l-3.07-8.58v-4.41c-1.13-1.38-1.17-3.11-1.71-4.64-1.52-4.25-2.47-8.32-2.87-12.87-.81-.98-1.75-2.57-2.09-3.9l-2.93-11.35-1.62-6.82c-.65-2.74-1.22-4.97-1.28-8.06-.03-1.65-2.02-4.26-1.89-5.81.29-3.48-1.26-4.94-2.46-7.75-.74-1.73-4.71-15.56-5.25-18.21s-1.55-3.52-2.89-5.4c-2.02-2.84-3.93-5.28-7.59-5.58-8.75-.71-3.81-2.47-9.82-4.39-3.51-1.12-6.03-4.08-9.12-6.13-1.22-.81-2.13-2.31-3.12-3.23-5.61-5.15-9.52-11.12-12.34-18.19-.94-2.35-3.57-3.69-2.19-7.51l-7.27,1.33c1.33,4.39,2.12,8.2,3.83,11.9,3.18,6.87,4.21,17.14,5.8,22.8l1.97,7.01c.81,2.88.67,5.59,1.45,8.52l3.46,13.02c.74,2.77,1.15,4.42,2.04,6.96,1.95,5.56,3.23,11.58,4.49,17.45l1.17,5.44,1.51,6.68c.51,2.25.95,4.69,1.63,6.79l1.93,5.96c1.04,3.21,1.58,6.12,2.15,9.52l2.29,5,2.05,6.65c1.21,3.91,2.77,7.44,4.11,11.35l1.74,5.06,3.75,9.66c.6,1.54,2.71,3.36,3.52,4.96l.53,3.39,2.15,3.95c2.01,3.69,3.25,7.72,5.12,11.48l5.86,11.78c1.69,3.4,3.16,6.86,5.05,10.17,4.18,7.32,7.61,8.66,10,19.79.68,1.62,3.34,3.28,4.18,4.85l3.67,6.92c.95,1.8,2,3.36,3.13,5.2,1.65,2.68,3.45,9.01,5.22,7.36.32-.3.58-1.65.36-2.05-2.39-4.41-2.03-5.98-2.39-10.4Z"/>
  <path d="M523.33,297.96c-1.48-2.14-2.6-4.09-3.19-6.72-1.46-6.56-5.1-7.24.96-14.26.77-.9,2.49-.61,3.41-.22,1.74.73,1.1,2.16,1.49,3.69l2.41,9.32c.69,2.68,3.1,5.55,4.46,8.07,1.15,2.12,3.79,2.63,5.5,3.84,4.08,2.87,7.51,4.45,12.36,5.32,3.86.69,7.68,1.22,11.37-.4,3.47,1.71,13.39-1.52,15.11-5.07l1.8-1.36c.43-.33.02-1.74-.08-2.49-.68-5.27.89-3.59-.65-8.85-.45-1.54-2.89-3.09-3.67-4.57-.84-1.58-2.59-2.57-3.52-3.77-4.64-6.01-10.41-9.76-18.32-9.86-3.54-.05-7.26-.72-10.97-1.05s-7.69.97-11.34.35c-2.27-.38-3.97-.6-6.26-.18l-3.75-2.94c-1.04-.82-4-1.68-5.11-.96-2.09,1.47-5.84,3.03-7.55.5-1.5-2.22-3.04-5.03-4.18-7.41.74-3.36,1.37-6.61,2.49-9.63l2.6-7.04,3.94-4.04c.19-1.65.18-3.56,1.3-4.45,2.27-1.81,3.93-5,6.01-6.39,2.87-1.92,5.21-3.32,7.76-5.69,1.16-1.08,2.93-2.61,4.12-3.45l6.81-4.79,4.81-3.55,4.29-2.74c2.03-1.3,4.1-2.24,6.12-3.38,5.01-2.84,10.02-5.97,16.06-6.11,8.82-.21,10.92,7.36,11.02,7.49l3.8,4.95c1.64,2.14,3.24,3.47,4.23,6.42.74,2.21,1.64,4.37,1.52,6.78-.47,9.66-5.78,13.17-12.46,17.45-2.95,1.89-5.58,3.66-8.91,4.85l-10.1,3.62-6.97,2.37c-2.89.98-5.95,1.63-8.78,2.79-8.49,3.48-1.89-.62-11.06,2.87-2.26.86-4.46,1.45-6.88,2.18,2.61,4.41,3.92-.88,8.48,2.96l4.64-.96c3.74.53,6.94.7,10.41.99l8.53.7c3.73.31,11.33,3.84,13.92,6.01l4.01,3.35c2.04,1.7,3.9,3.99,5.93,5.92,1.52,1.44,1.54,4.03,2.39,5.54s1.8,2.87,2.4,4.54l2.19,6.07.81,2.03c.18.46-1,1.34-1.11,1.84-1.81,7.93-4.26,7.16-7.68,11.75-1.1,1.48-4.11,1.45-6.03.81-3.23,2.63-7.16,4.33-11.49,4.44l-9.38.24c-2.62.07-5.89-1.13-8.58-1.7-4.95-1.05-10.16-4.16-13.94-7.57-1.75-1.58-3.64-2.87-5.03-4.87l-2.49-3.59ZM524.11,250.95c2.33,1.1,3.98-.02,6.07-.65l7.45-2.26,2.7,1.87,1.14-2.14c.23-.42,1.43-.54,2.06-.47,2.41.26,4-1.41,5.91-2.1l8.49-3.05c7.11-2.55,4.61-.98,9.55-3.36,5.54-2.67,10.23-5.78,13.8-10.87,1.23-1.76,1.65-3.04.96-5.42-.65-2.22-.66-5.67-2.62-7.17-4.28-3.27-1.83-4.49-7.18-9.41-1.24-1.14-4.09-.58-5.5-.14l-6,1.84-1.43,2.39c-2.96-.45-4.62,1.39-6.06,3.5-1.46.5-4.21,1.03-5.37,1.95l-4.35,3.48-3.78,2.94c-2.71,2.11-6.53,3.45-8.92,5.79-1.5,1.47-2.72,3.21-4.3,4.59-4.37,3.82-7.35,8.57-10.22,13.47-.6,1.02-1.38,2.09-1.75,3.28l-2,6.52c-.1.33.56,1.9.8,1.66s.83-.97,1.13-1.18l4.54-3.12c.63-.43,1.28-2.13,1.96-2.27s2.22.02,2.87.33Z"/>
  <path class="cls-1" d="M523.58,433.11c-6.09-.8-6.62-4.23-12.55-3.33-1.09,1.83-.69,3.32-3.17,4.39.88-3.18,2.02-5.84,3.3-8.97.53-1.29,1.55-2.19,2.58-3.15,1.55-1.46,2.18-2.68,4.96-2.96l-.38-3.99c1.35-3.29,4.77-5.91,7.44-8.34,1.37-1.25,2.8-3.17,4.14-3.95l9.96-5.74c2.04-1.18,4.33-2.14,6.55-3.27,1.78-.91,3.86-1.08,5.8-1.6,2.78-.75,5.58-2.05,8.42-3.03l12.65-4.35c2.27-.78,4.3-1.32,7.02-1.84,2.3-.44,6.87,1.63,7.74,4.12,2.32,6.63-.38,13.06-2.67,19.06-.99,2.59-2.04,4.17-3.82,6.39-2.65,3.32-4.35,8.04-8.86,9.79-8.73,3.38-.52,2.09-10.16,4.63l-7.91,2.08c-9.46,2.48-7.93,3.79-18.03,5.09-1.97.25-4.51-2.96-6.13-3.89l-5.05,1.02-1.83,1.85Z"/>
  <path class="cls-1" d="M528.62,481.27l-.85,3.57-5.72-.7c-11.83-8.85-2.12,3.32-15.2-10.11-1.3-1.33-2.91-3.09-3.89-4.31l-1.12-10.46,1.78-3.72c4.85-2.22,6.36-1.06,8.71-2.35.35-5.93,1.39-2.59,4.48-6.69-1.79-3.99-7.81-1.75-9.28-4.79l4.19-3.57,9.05,1.94c2.5,3.81,6.36,3.06,10.26,2.75,3.61-.29,7.58,1.1,11.3,1.69l5.48,3.63c1.36.9,14.97,7.69,17.54,10.85,2.74,3.35,3.25,9.53.24,12.79l-3.68,3.99c-3,.94-4.94,2.15-7.27,3.95-1.51,1.16-4.17,1.82-5.83,2.86s-3.2,1.87-5.03,2.25l-5.97,1.23c-1.31.27-2.97-2.6-3.59-3.78-1.06-2.01-4.12-3.16-5.63-1.01Z"/>
  <path class="cls-1" d="M496.02,129.19c-5.09-1.32-7.06-2.32-11.15-6.08-3.18-6.23-.23-4.71-3.79-10.53-.24-.39-.15-1.62.13-1.98.98-1.25,2.36,2.01,4.69,4.25l4.58,4.4c1.15,1.11,3.46,2.91,5.19,1.36s3.04-6.09,1.51-8.14c-1.18-1.48-2.95-3.12-4.38-4.41l-8.17-7.35c.99-6.7,4.28-11.72,8.03-16.88,3.35-4.61,1.76-3.42,7.46-7.52,2.17-1.56,3.68-2.75,6.3-3.64,2.15-.72,4.51-2.31,6.58-3.21,2.73-1.19,4.24,1.78,6.13,2.63,4.09,1.83,6.4,4.05,8.77,7.59l3.01,4.5c1.12,1.67,2.62,2.83,1.23,5.27-.65,1.15-.08,3.8-.5,4.97l-2.86,7.96-3.52,2.41c-.43,2.87-2.63,4.58-4.79,6.3-5.3,4.22-7.73,7.93-14.74,9.9l-.77,3.52c-1.67.35-3.46.92-4.81,1.85l-4.14,2.84Z"/>
  <path class="cls-1" d="M638.82,377.04c-3.44-2-6.49-4.2-10.03-4.39-7.36-.4-6.91-1.05-13.64,2.6l-10.2,5.53c1.24-2.19,2.04-4.01,3.24-5.46l4.98-6.01,2.98-1.97c.64-2.17,3.75-2.44,4.87-3.68,2.34-2.56,4.55-5.68,7.8-5.45,2.28.16,2.62-2.65,7.19-3.81,1.91-.02,4.78-.04,6.62-.54l4.66-1.25,4.63-1.27c7-1.91,12.62-2.37,19.47.63l6.88,3.01c1.98.87,4.58,1.64,6.54,2.37l-.87,8.74c-1.42,1.77-4.35,3.77-5.46,5.74-.86,1.54-1.39,2.26-2.47,3.32l-4.41,4.3c-.71.7-2.83,1.44-3.46,1.88-.37,1.78-.89,2.37-2.25,3.01-5.43,2.54-10.77,5.89-16.63,2.72-.62-3.03-2.66-4.72-5.71-4.41-1.37-1.7-2.72-4.46-4.73-5.62Z"/>
  <path class="cls-1" d="M633.19,417.08c.89.05-8.25-1.94-11.03-1.37-4.69.97-9.47-.35-13.97-2.29-2.82-1.22-6.27-1.04-8.21-4.06-.46-.71-1.8-1.86-1.61-2.59.22-.83,1.45-1.8,2.25-2.01l3-.78-2.16-4.46c-1.69-.17-4.21-.46-5.73-1.32,1.47-6.2,3.13-2.37,5.87-9.74l1.74-4.66c.1-.27,1.08-.55,1.19-.29,1.06,2.31-.85,4.73.47,6.44.93,1.2,3.38,0,4.27-.73l3.18-2.57c6.82-5.5,11.7-9.18,21.3-4.7l-.53,3.88,2.77,5.85,4.83.6c3.2.4,4.95,1.98,6.09,4.81.62.79,2.03,2.4,2.76,3.13l5.04,5.05c2.32,2.32,6.27,5.39,6.35,8.88s-4.69,3.7-7.01,4c-3.41.45-6.52,1.14-9.67.53l-5.71-1.12c-1.83-.36-3.51-.37-5.5-.49Z"/>
  <path class="cls-1" d="M459,87.54c.37-1.28,2.14-3.67,1.58-4.83l-2.02-4.18c-3.67,2.95-12.34-4.98-13.5-6.9l-2.09-3.47c-1.98-3.28-3.7-6.58-4.39-10.36-3.34-6.71-.34-11.59,5.4-15.19,5.32-3.33,17.54-9.19,23.77-5.44,3.61,2.18,6.33,6.43,8.95,10.21l-.73,8.99c-.19,2.37-1.39,4.11-2.1,6.16-1.44,4.17-.36,9.24-1.3,13.68-.57,2.69-.54,5.25-.05,7.84-.64,2.75-.82,5.36-.71,8.32-1.1,1.28-3.54.26-4.96-.6l-3.62-2.18c-1.51,1.16-4.76-.18-4.23-2.06Z"/>
  <path class="cls-1" d="M465.26,136.89c-2.24-.62-3.94,1.06-5.4,1.33-3.09.56-10.07.66-13.31-.82-1.05-2.67-2.32-4.6-4.43-6.12l-.97-3.47c-1.24-1.54-2.85-3.71-4.32-4.84-4.93-3.81-7.85-8.98-6.54-15.36.41-1.98,4.94-5.2,6.99-6.36,9.46-5.38,6.16-5.42,15.27-4.98,8.34.4,16.35,2.37,22.76,8.86l-2.86,2.2-.4,8.7-.05,1.9c-.01.51-1.12.73-2.04,1.12l.51,4.73,4.52,5.32c-1.02.4-2.52.69-3.09,1.08l-4.06,2.8c.14,1.08.29,2.22.33,2.87s-2.13,1.25-2.9,1.03Z"/>
  <path class="cls-1" d="M458.38,504.39c-3.45,4.45-14.04,4.25-16.42-1.18-3.97-.47-3.61-7.02-2.77-9.3,2.15-5.86,6.88-9.57,10.59-14.19,1.32-1.65,3.02-2.65,4.51-4.01,3.7-3.37,6.91-6.86,11.97-8.9,2.83-1.14,5.53-2.6,8.6-3.14l13.79-2.41c-1.78,6.05-.11,13.29-2.1,15.56l-4.16,4.73c-1.11,1.27-2.23,3.11-3.35,4.26-2.14,2.19-4.2,4.24-6.46,6.31l-4.56,4.17c-2.16,1.97-6.04,2.3-5.48,6.65l-4.16,1.45Z"/>
  <path class="cls-1" d="M429.33,465.68c-2.96.34-6.14-.37-9.16-.56l-3.87-3.2c-1.83-3.04-3.72-5.34-6.2-7.84-5.05-8.8-2.21-14.85-2.69-17.87-.52-3.31.89-6.12,3.74-7.38,10.99-4.86,2.82-1.19,13.41-4.16,2.15-.6,5.05.17,7.51.32,2.06.12,4.84.07,6.26,1.53l1.48,5.36c-1.55,2.14-.35,3.87-.18,5.95.35,4.36-.15,8.81,1.53,12.81,3.3,7.86,5.79,8.21,6.1,9.96.08.44-1.01,1.06-1.48,1.21l-8.04,2.48c-2.54.78-5.6,1.05-8.4,1.38Z"/>
  <path class="cls-1" d="M482.46,272.59c.09,5.28-2.24,2.36-2.37,7.84-.16.36-1.79.47-2.18.03s-.96-1.52-1.3-2.25l-3.46-7.52c-.38-.83-1.63-2.08-1.94-2.91-.68-1.8-1.99-2.69-3.39-3.84l-2-4.64c-.95-2.21-1.28-4.58-2.07-6.84l-1.53-4.42c-.14-.41-.76-1.25-.94-1.59-.23-.43.69-1.44.92-1.94l-.43-4.66c4.56-.73,5.83,3.01,10.73.64l-.6-4.05c-.32-2.18-1.55-3.8-3.62-5.16l1.45-3.77c3.87-1.32,3.85-4.62,6.51-3.68.72.26,1.35,1.82,1.37,2.73.07,5.01,2.82.73,3.65,6.21l2.47-1.22,3.86.46,1.04-5.17c.57-2.85,7.76,2.11,8.42,3.33s-.22,3.26-.23,4.65c-.02,5.1-3.06,12.02-5.01,16.35,2.92-6.5-4.6,12.95-2.62,6.94l-1.49,4.52c-.36,1.09-1.48,2.76-2.03,3.7-.57,2.53-1.49,4.43-3.19,6.26Z"/>
  <path class="cls-1" d="M487.71,425.14c-4.73-1.41-3.92,7.54-6.26,6.39l-3.23-3.2c-1.51-1.49-2.5-4.25-3.73-6.08-1.12-1.67-1.87-3.34-2.65-5.16-.38-.89-1.72-2.37-1.96-3.32-.57-2.28-1.38-4.35-2.3-6.61-1.02-2.52-.84-5.9-1.49-8.61-1.02-4.27-1.85-2.64-.08-10.5,1.85-3.52,16.92-4.37,20.62-2.68,6.5,2.97,5.78,13.02,10.58,16.28-.49,4.38-.78,8.94-.36,13.6.17,1.92-2.68,6.28-4.18,7.33.23.54,1.1,2.6.51,3.2-4.81,4.94-2.49,7.51-4.81,7.2-2.16-.29.92-4.87-.66-7.84Z"/>
  <path class="cls-1" d="M477.07,210.13c.61,3.87-1.19,3.97-3.38,5.5l-5.35,3.76c-2.58-2.04-.38-5.1,0-7.15l1.2-6.61,1.31-7.24.65-4.96c.22-1.7.6-3.54.95-5.21l1.89-8.96,2.53-11.05c.26-1.14.18-3.07.53-4.03.75-2.06,1.35-3.85,1.72-5.87l1.79-9.87c.35-1.9-.12-3.81,2.93-6.77.47-.45,2.31-.28,2.81.06l-1.17,3.77c3.88,3.53-.05,3.57.82,9.5-3.68,7.13-.84,6.57-3.24,15.13-.73,2.62.15,6.08-.89,8.71-.6,1.51-.64,3.11-.98,4.66-.7,3.14-1.39,6-1.86,9.08l-.98,6.44c-.59,3.88-1.94,6.73-1.26,11.08Z"/>
  <path class="cls-1" d="M489.32,452.8l-5.53-.1c-2.22-.04-3.94-.13-5.86,1.35-1.14.88-2.98.91-3.72-.3l5.32-4.16c7.53-5.88,9.55-1.13,17.55-2.03-1.83,2.31-5.17,5.27-7.77,5.23Z"/>
  <path class="cls-1" d="M500.69,432.16c-2.3,5.27,2.5,7.81-2.35,7.78-.55,0-.79-1.42-.89-2.12l-.29-2.07c-.05-.39-1.17.52-1.66.86-1.18-1.93.13-3.24,1.53-4.84,3.08-4.9,5.14-9.43,7.63-14.94.28-.61.73-1.25,1.17-1.25s1.75.52,1.57.91l-.79,1.75-2.09,4.5-2.07,4.16c-.73,1.47-1.08,3.7-1.76,5.27Z"/>
  <path class="cls-1" d="M505.93,442.94c-.34,1.33-4.37,2.52-4.94.84-.71-2.1,2.44-2,4.94-.84Z"/>
  <path class="cls-1" d="M616.94,917.88c.35,4.41,0,5.99,2.39,10.4.22.4-.04,1.75-.36,2.05-1.77,1.66-3.57-4.68-5.22-7.36-1.13-1.84-2.17-3.4-3.13-5.2l-3.67-6.92c-.83-1.57-3.5-3.23-4.18-4.85-2.39-11.13-5.82-12.47-10-19.79-1.89-3.31-3.36-6.77-5.05-10.17l-5.86-11.78c-1.87-3.76-3.11-7.79-5.12-11.48l-2.15-3.95-.53-3.39c-.81-1.61-2.93-3.42-3.52-4.96l-3.75-9.66-1.74-5.06c-1.34-3.91-2.9-7.44-4.11-11.35l-2.05-6.65-2.29-5c-.57-3.4-1.12-6.31-2.15-9.52l-1.93-5.96c-.68-2.1-1.12-4.53-1.63-6.79l-1.51-6.68-1.17-5.44c-1.26-5.87-2.54-11.9-4.49-17.45-.89-2.54-1.3-4.19-2.04-6.96l-3.46-13.02c-.78-2.93-.64-5.63-1.45-8.52l-1.97-7.01c-1.59-5.66-2.62-15.94-5.8-22.8-1.71-3.7-2.5-7.51-3.83-11.9l7.27-1.33c-1.38,3.82,1.26,5.16,2.19,7.51,2.82,7.07,6.73,13.04,12.34,18.19.99.91,1.91,2.42,3.12,3.23,3.09,2.05,5.61,5.01,9.12,6.13,6.01,1.92,1.07,3.68,9.82,4.39,3.67.3,5.58,2.74,7.59,5.58,1.34,1.89,2.35,2.75,2.89,5.4s4.51,16.48,5.25,18.21c1.2,2.81,2.75,4.27,2.46,7.75-.13,1.55,1.86,4.17,1.89,5.81.06,3.09.63,5.32,1.28,8.06l1.62,6.82,2.93,11.35c.34,1.33,1.28,2.92,2.09,3.9.41,4.55,1.36,8.62,2.87,12.87.55,1.53.58,3.26,1.71,4.64v4.41s3.07,8.58,3.07,8.58c.56,1.56.78,3.15,1.03,4.92l2.53,17.53c.77,5.36,2.37,10.41.62,15.96l1.76,2.86c-.65,3.37-.5,6.49-.01,9.89l1.55,10.77c.47,3.28,1.36,6.08.78,9.58-.47,2.82,1.67,5.58,1.89,8.41l.37,4.55c.86,2.51,1.31,4.32.47,7.04-.34,1.11,1.16,3.07,1.25,4.16Z"/>
  <path class="cls-1" d="M602.82,679.22c4.49,3.21,4.68,15.19,4.07,16.43-4.48,9-2.26,8.82-6.68,13.85-2.59,2.94.25,5.67-12.03,5.13-3.37-.15-15.56-3.34-17.49-4.35l-6.98-3.68c-1.9-1-4.21-2.41-6.04-3.62-1.72-1.13-2.86-2.12-5.12-2.78l-1.79-3.93-3.3-3.96c-2.91-3.49-3.84-7.27-4.95-11.55-.52-2-1.41-2.63-.15-5.01,2.55-4.82-5.17-10.13.3-17.76.4-.55.66-2.39,1.28-2.7.84-.43,1.96-1.51,2.06-2.41.08-.74-1.11-1.69-1.67-2.46l-3.04-4.15c-.62-1.29-1.21-4.56-.88-5.99.56-2.45,1.14-5.75,2.19-7.65l5.73-10.34c1.7-3.07,3.88-6.67,5.58-9.52-.08-1.05-.57-3.12-.03-3.82.69-.89,2.44-1.39,3.92-1.63.83-.14.79-2.6,1.33-3.31,3.23-4.2,7-8.58,10.64-12.37,2.08-2.16,3.67-3.85,5.27-6.59l7.99-1.9c10.56-2.5,7.7,1.58,13.3-1.87,2.64-1.62,6.36-.25,9.26-.41,2.66-.14,4.47.31,6.64,1.27,3.37,1.49,4.13,3.34,5.03,6.76,1.81,6.87,2.39,9.05-.5,14.85l-2.74,5.5c-.86,1.73-1.52,3.61-2.76,5.02l-3.95,4.45c-2.93,3.3-5.88,3.79-9.3,4.61l-6.86,1.63c-3.94.94-7.52,1.46-11.25,3.18-2.41,1.11-4.92,1.84-7.47,2.55l-5.64,1.56c-2.29.63-4.78,1.16-6.99,1.87-2.35.76-3.37.6-5.91.53l-7.94-.23c-1.17.72-2.98,2.75-3.13,4l-.61,5.11c5.21,1.49,9.95,4.13,14.82,7.08,2.35.71,4.61.94,6.56,2.56,1.58,1.3,3.64,1.48,5.29,2.3,4.06,2.01,7.25,4.65,11.49,7.23l-3.44,5.23c-1.29,1.95.13,4.05,1.79,5.23,1.9,1.34,3.73,1.59,6.06,1.75l8.35.58c3.02.21,7.24,1.98,9.7,3.74Z"/>
  <path class="cls-1" d="M456.98,648.67c-2.13,2.28-3.73,3.3-6.66,2.31l-8.58-2.91c-3.59-1.22-7.52-1.81-10.68-3.75l-7.75-4.76c-6.92-4.25-5.23-2.4-12.24-9.24-2.74-2.68-5.18-5.3-7.75-8.22-.89-1.01-2.84-2-3.61-3.35-.9-1.58-1.78-3.59-3.15-4.62-1.85-1.38-4.07-4.86-1.39-6.54,1.82-1.14,4.14-2.18,5.86-3.5,2.5-1.91,4.89-2.32,8.05-2.67,5.34-.58,17.13-6.32,24.41.51,1.84.17,3.7,1.16,4.82,2.8,4.01,5.84,8.75,10.57,14.44,14.68l5.77,4.17c6.17,4.45,5.08,4.15,8.89,9.28,1.84,2.48,7.45,2.75,6.83,5.34-.37,1.51-1.22.35-5.24,3.09l-5.98,4.07c-1.64,1.12-4.65,1.8-6.05,3.3Z"/>
  <path class="cls-1" d="M616.34,664.59c-1.74,2.78-8.17,2.99-11.86,1.59-.97-.37-3.55.07-4.42-.58-2.83-2.13-5.89-4.12-8.95-5.95-.83-.5-1.9-1.54-2.73-2.09-1.98-1.33-4.26-2.62-4.69-5.41.62-1.37,2.97-2.53,4.65-2.96l.47-2.8,5.72-3.65c2.35-1.5,4.33-2.95,6.7-4.28,2.07-1.16,3.76-3.07,4.84-5.03,2.72-.37,4.62-2.11,7.06-3.46,2.04-1.13,4.61-2.01,6.79-3.01l5.33-2.45c1.14-.52,3.64-.31,5.15-.44,13.42-1.11,14.02-1.4,25.67,5.71l3.08,5.78c1.04,1.96,1.08,5.45.9,7.85-.1,1.4-1.54,3.28-1.9,4.53-.65,2.23-1.38,3.45-3.28,4.73-2.34,1.58-4.47,4.34-7.29,5.22-6.99,2.18-11.1-.69-16.76,3.06-5.83.51-6.95,3.55-14.49,3.63Z"/>
  <path class="cls-1" d="M498.5,675.17l-4.46-.77-5.02-2.85c-2.21-1.25-4.23-1.94-6.72-2.61l-6.01-1.61c-2.68-.72-5.34-1.56-8.11-2.06-3-.54-6.82-.9-9.53-1.99-5.39-2.16,10.02-10.19,10.4-10.44,5.78-3.84,11.33-8.01,17.63-10.61.67-.28,1.71,1.56,2.33,1.96l7.76,4.89c2.09,1.32,4.56,2.02,6.99,2.93,2.68,1.01,5.44,1.66,8.57,1.16,10.82-1.73,10.42,3.52,13.86,6.49,2.75,2.38,4.17,5.29,3.62,9.13-7.73,3.69-6.83,1.67-12.89,3.95-2.5.94-5.18,1.67-7.79,2.35-3.69.97-6.64.77-10.64.08Z"/>
  <path class="cls-1" d="M529.52,636.77c-2.09,5.6-7.72,6.69-12.64,4.35-1.53-.73-4.61-1.71-6.3-1.76-2.73-.08-4.08-2.68-5.81-3.41-2.93-1.24-6.5-.86-9.44-3.03-1.57-1.16-4.14-1.52-5.96-2.38-4.51-2.14-7.44-7.22-7.26-12.3,1.62-1.78,4.54-2.54,6.79-3.29,1.87-.63,4-2.83,6.08-1.45,5.05,3.36,3.74-2.22,9.04,1.27,2.35,1.55,5.73,1.08,8.32,2.21,3.25,1.41,9.69,5.26,11.6,8.09,1.64,2.43,3.24,5.03,4.68,7.62.45.8-.6,3.05.88,4.1Z"/>
  <path class="cls-1" d="M574.34,643.42c-1.82,3.22-10.65.72-10.03-1.87,5.81-.96,10.74-2.75,16.16-4.66l7.26-2.56c.54-.19,1.86.14,1.98.65.54,2.31-3.48,1.72-6.76,4.36l-3.73,3.01c-1.39,1.12-2.52,2.6-4.89,1.06Z"/>
  <path class="cls-1" d="M524.11,250.95c-.65-.31-2.19-.47-2.87-.33s-1.33,1.84-1.96,2.27l-4.54,3.12c-.3.21-.9.94-1.13,1.18s-.9-1.32-.8-1.66l2-6.52c.37-1.2,1.15-2.27,1.75-3.28,2.87-4.9,5.85-9.65,10.22-13.47,1.58-1.38,2.79-3.12,4.3-4.59,2.38-2.34,6.21-3.68,8.92-5.79l3.78-2.94,4.35-3.48c1.15-.92,3.91-1.45,5.37-1.95,1.44-2.12,3.1-3.96,6.06-3.5l1.43-2.39,6-1.84c1.41-.43,4.26-1,5.5.14,5.35,4.92,2.9,6.13,7.18,9.41,1.96,1.5,1.97,4.95,2.62,7.17.7,2.38.28,3.66-.96,5.42-3.57,5.09-8.27,8.21-13.8,10.87-4.94,2.38-2.44.81-9.55,3.36l-8.49,3.05c-1.91.68-3.49,2.35-5.91,2.1-.63-.07-1.84.05-2.06.47l-1.14,2.14-2.7-1.87-7.45,2.26c-2.09.64-3.74,1.76-6.07.65Z"/>
</svg>