<?xml version="1.0" encoding="UTF-8"?>
<svg id="Camada_1" data-name="Camada 1" xmlns="http://www.w3.org/2000/svg" viewBox="0 0 1024 1024">
  <defs>
    <style>
      .cls-1 {
        fill: #fff;
      }
    </style>
  </defs>
  <path class="cls-1" d="M0,1009.6V43.08h1024v966.87H0v-.36ZM935.73,693.16c.31-4.88,0-8.89-.61-13.71s-.66-9.71-2.07-14.49c-2.06-6.96-1.97-9.49-3.73-14.28-1.03-2.8-1.86-6.55-3.01-9.23-6.03-8.07-3.47-14.48-6.5-18.97-2.77-4.1-3.18-8.8-4.73-13.43l-3.63-10.85c-.25-.74-2.49-17.3-5.42-23.39-1.81-3.76-2.53-8.6-1.79-12.76,9.3-.32.76,7.04,6.73,11.16,1.77,1.22,4.78.58,6.42-.89,2.84-2.55,3.38-5.43,3.02-9.13l-.83-8.52-1.94-18.49c-.37-3.51-.22-7.23-.79-10.68-1.37-8.2-.6-15.64.33-23.72,1.71-14.8,2.23-29.06,1.47-43.9-.22-4.18-.21-8.87-.84-12.88-.64-4.09-2.43-7.36-1.49-11.71.36-1.68-.87-5.12-.7-6.92,1.16-12.3-.08-15.72-2.63-27.43-.57-2.62-1.11-4.95-1.96-7.43l-4.02-11.76c-2.93-8.56-5.93-8.99-4.89-18.31.5-4.51.21-8.5.02-12.93-.86-20.07-5.5-22.27-7.15-41.32l-.87-10.09c-.44-5.07.31-10.4-1.39-15.22-1.29-3.64-3.05-8.09-5.22-10.76-1.71-2.1-1.17-2.9-1.87-5.22-1.61-5.33-5.16-11.29-8.11-16.45-1.64-2.87-3.48-4.79-4.1-8.15-.34-1.82-1.57-3.44-2.7-5.06-1.9-2.73-3.81-6.6-5.73-8.98-12.43-4.74-17.18-22.96-26.56-35.18-2.85-3.71-7.31-7.33-11.17-9.9-3.09-2.06-6.65-3.38-9.98-5.1-5.32-2.75-8.42-2.1-16.54-4.91-6.02-2.08-13.75-4.11-20.2-5.61-9.62-2.23-24.19,1.34-32.61,6.64-2.3,1.45-7.63,2.72-9.87,1.31-3.44-3.52-6.16-6.32-10.16-8.9l-3.56-4.11c-3.37-.46-5.17-4.14-7.92-5.6-6.8-3.6-15.6-6.79-23.21-5.97-3.89.42-5.79,1.45-9.74-.45s-11.55-.65-16.65-1.57c-6.22-1.13-12.14-2.38-18.34-3.86-10.47-2.5-6.13-3.13-16.93-1.99-3.29.35-6.32.78-9.5,1.32l-12.72,2.19c-2.28.39-5.55.7-7.8.61-14-.59-32.65,2.49-44.65,9.87l-11.07,6.81c-6.2,3.81-13.08,8.06-19.43,11.46-1.32.7-2.93,1.93-4.1,2.88l-11.85,9.63,1.86,5.68c3.89.52,7.48.96,9.69-2.04,3.64-4.93,10.45-8.97,15.8-12.23l9.74-5.94,13.49-8.54c10.4-6.58,2.47-3.18,15.24-6.25,8.39-2.02,11.6-.3,19.36-2.19,4.13-1.01,7.66-1.25,11.65-1.63l17.81-1.69,7.94-.52c5.29-.34,16.28.14,19.82,3.22.19.17-.33,1.21-.48,1.52-8.61,3.85-18.47,3.78-27.83,5.68l-8,1.62-14.25,1.42c-3.32.33-6.45.47-9.52,1.24l-8.52,2.13c-3.4.85-14.4.48-14.05,5.59.08,1.11,1.44,3.38,2.53,3.09l6.88-1.85c6.96-1.87,13.31-2.45,20.38-3.4l10.07-1.35c4.18-.56,7.92-1.16,12.2-1.09,5.68.09,19.16-2.58,24.91-3.74,5.26-1.05,9.69-1.72,14.55-3.8,10.81-4.61,23.88-2.9,35.05,0,5.06,1.31,6.29-.41,14.38,4.25,1.62,1.85,2.79,3.29,5.68,3.85l5.37,5.85c3,3.27,4.24,6.77,6.08,10.72s7.44,6.86,7.21,12.22c-.1,2.29-.97,5.83.09,7.75.48.88,1.88,1.9,1.62,2.49l-1.18,2.71c5.18,10.07-1.89,3.43,4.95,18.98,1.33,3.01,2.11,12.71.78,16.13l-2.8,7.21-5.33,11.6c-1.73,3.76-3.09,6.97-5.24,10.66-.59,1.02-1.23,3.35-1.71,4.71-4.54,3.6-9.89,4.8-15.44,6.26-3.88,1.02-7.49,3.46-11.25,4.88-3.48,1.32-6.46,2.65-9.6,4.62-3.68,2.3-8,3.97-11.33,6.71-13.07,10.7-9.31,10.43-17.13,22.04-2.44,3.63-3.96,9.49-7.62,12.11-2.88,2.05-4.58-2.54-5.75-3.91l-9.48-11.08c-2.97-3.47-6.32-6.67-9.68-9.66-1.58-1.41-3.45-2.11-4.75-4.07-.94-1.41-3.11-2.1-4.7-2.94l-17.31-9.14c-4.04-2.13-7.93-3.78-12.59-4.65-4.27-.8-21.6.16-27.1.76-2.07.23-5.2-.6-5.65-2.88l-2.06-10.37c-1.36-6.82-3.03-10.14-6.08-15.89l-3.72-7.04c-3.77-7.13-4.75-18.1-7.98-26.03l-4.89-5.88-5.87-9.17-7.16-9.02-7.8-10.29-8.13-10.22c-3.59-4.52-7.18-7.83-11.36-11.9l-7.38-7.17-6-4.18c-1.93-1.35-4.4-4.18-6.13-5.62-3.74-1.15-11.51-5.12-14.21-7.57-2.83-2.58-7.13-3.36-10.36-5.17s-5.17-4.21-9.16-4.57c-1.23-.11-3.2-1.92-4.45-2.39-3.16-1.19-7.25-2.61-10.53-2.77l-12.98-.63c-6.08-.29-11.77.26-17.81-1.27-3.17-.81-6.88.04-9.82-.2-4.57-.37-7.41-.36-11.36,1.95l-11.32,6.63-8.24,3.12c-2.68,1.01-5.02,2.79-7.51,3.9l-6.52,2.9c-3.82,1.7-8.75,5.42-12.64,6.2-8.07,1.63-13.75,4.15-20.79,8.01-4.12,2.26-9.59,2.51-14.03,5.35-2.04,1.3-12.63,2.17-18.87,6.19l-22.16,14.27-8.98,3.88-8.15,4.66c-1.62.93-3.83,2.13-5.17,3.28-3.85,3.31-19.76,15.32-21.87,18.88l-5.51,9.29c-1.75,2.96-4.32,4.56-6.02,7.61l-3.36,6.04-3.04,5.46c-4.12,7.4-.72,4.23-6.17,15.08-1.55,3.08-2.93,6.45-5.05,9.35s-2.65,5.11-3.25,8.38c-.5,2.74-5.37,1.47-6.65-.77-1.19-2.08-8.56-3.55-13.96-6.01-4.4-2-9.23-2.77-13.97-3.91-9.11-2.19-5.83.63-12.93-2.47-3.55-1.55-6.17,1.79-9.15,2.62-5.39,1.51-9.55,3.29-13.57,7.28-1.15,1.15-2.51,2.39-2.97,3.98l-2.46,8.4c-.62,2.11-2.22,4.75-1.97,6.98.36,3.23-1.71,5.97-1.87,8.6l-.84,13.61c-.2,3.27,0,6.78-.47,9.9-.6,3.98.41,6.99.69,10.91l.92,12.72,1.19,8.06c1.61,10.85.46,9.32,2.8,22.13.7,3.83.79,7.48,2.58,11.15l2.49,5.11c.43,3.32.79,7.3,1.92,10.31l4.15,11.01c1.7,4.52,4.19,8.32,6.91,12.25l3.79,5.48c1.86,2.69,3.85,5.1,6,7.55l9.07,10.35c1.13,1.29,1.23,5.09,1.63,6.9,3.74,4.14,5.75,9.23,7.86,14.41s8.04,12.06,11.99,23.63l2.41,7.06c1.35,3.96,3.83,8.01,4.39,12.3.85,6.55,4.29,17.01,6.95,23.09l2.45,5.6,4.09,8.89c1.09,2.36,1.36,4.67,2.06,7.31l2.37,9.01c.64,2.43,1.4,4.76,1.9,7.28l1.29,6.6,2.15,8.18c1.45,5.5,1.5,11.57,4.17,16.71,1.7,3.26,2.4,6.21,3.1,9.95.74,3.97,2.23,8.13,2.46,12.19l.49,8.75c.45,8.03.44,16.02-.1,24.11-.14,2.14-1.27,4.8-1.18,7.14.15,3.78-.07,7.14-.4,10.75l-.84,9.24c-.45,5.01.89,9.54,1.04,14.41l.54,16.95c-.04-1.18,2.29,19.57,2.24,19.29.89,4.68,1.6,9.44,2.16,14.18.15,1.25,1.28,3.85,1.87,5.04,5.84,11.75,2.61,5.75,6.46,17.72,1.5,4.65,3.8,8.64,6.5,12.77l3.65,5.58,6.64,8.9c3.89,5.21,6.97,10.47,11.55,15.03l5.71,5.69c2.65,2.64,4.54,6.25,6.85,8.85,3.69,4.16,7.19,7.94,10.65,12.26,2.42,3.02,9.84,10.72,12.19,12.64l11.73,9.62,5.2,4.27c10.52,8.63,6.22,2.56,16.21,12.45,8.62,8.54,19.24,11.37,27.76,18.33l4.85,3.97c5.17,4.22,3.77-3.92,16.51-4.22l2.93-.07c.54-.01.53,2.26.91,2.71l6.34,7.52c2.25.13,5.54.13,7.37-.05,3.91-.37,2.51-3.9,3.27-6.13,2.91-8.52,28.41-9.4,36.15-8.43l12.83,1.6c3.69.46,7.17,1.07,10.95,1.29,4.9.28,12.87.28,17.26,3.31l9.59,6.63c2.29,1.58,4.8,4.47,7.19,5.28,4.76,1.61,8.58,2.97,13.21,4.94,2.98.39,7.89.08,10.94-.85l9.44-2.88c2.85-.87,8.79-3.89,11.4-.86l7.57,8.77,5.42,6.3c2.98,3.46,6.69,6.44,9.96,9.85l5.59,5.82c1.43,1.49,2.73,3.43,4.37,4.78l10.22,8.44c1.85,1.52,3.34,2.09,5.67,2.95,12.35,4.55,11.22,7.08,24.46,8.36,14.62,1.41,30.76-1.33,44.51-6.07,4.35-1.5,8.1-3.66,11.97-5.66,3.04-1.57,6.21-2.85,9.09-4.57l10-5.99c3.24-1.94,6.24-3.98,9.27-6.32l4.85-3.76c8.73-6.76,19.06-11.07,29.42-14.68,2.69-.94,5.89-1.33,8.61-2.11l9.33-2.67,21.67-3.49,10.71-1.09,14.87-4.08,7.96-1.71c3.11-.67,6.05-.71,8.86-2.21,9.87-5.26,18.24-7.03,26.49-12,5.36-3.23,11.09-5.83,15.96-9.67,2.59-2.05,4.42-5.75,7.55-6.63.03-1.41.34-2.37.89-3.23l2-3.12c2.81-2.92,3.12-6.82,5.7-9.53l6.16-6.49c16.89-17.8,5.45-9.08,13.78-20.37l7.58-10.26c2.65-7.85,2.65-2.02,5.44-9.84,2.2-6.17,5.05-19.14,5.73-20.49l4.34-8.58c2.13-4.21,5.25-8.09,7.69-12.14l6.97-11.57,3.82-6.16,5.02-7.22c2.06-2.97,3.54-7.13,4.96-10.62,5.24-12.91,6.11-8.5,9.12-17.21l1.83-5.29,3.48-10.06c4.84-14,2-15.39,2.43-22.3Z"/>
  <path d="M935.73,693.16c-.43,6.91,2.41,8.29-2.43,22.3l-3.48,10.06-1.83,5.29c-3.01,8.71-3.88,4.3-9.12,17.21-1.42,3.49-2.89,7.65-4.96,10.62l-5.02,7.22-3.82,6.16-6.97,11.57c-2.44,4.05-5.56,7.93-7.69,12.14l-4.34,8.58c-.68,1.35-3.53,14.32-5.73,20.49-2.79,7.82-2.79,1.98-5.44,9.84l-7.58,10.26c-8.33,11.29,3.11,2.56-13.78,20.37l-6.16,6.49c-2.57,2.71-2.88,6.62-5.7,9.53l-2,3.12c-.55.86-.86,1.82-.89,3.23-3.13.88-4.95,4.58-7.55,6.63-4.87,3.84-10.6,6.44-15.96,9.67-8.25,4.97-16.62,6.74-26.49,12-2.81,1.5-5.75,1.55-8.86,2.21l-7.96,1.71-14.87,4.08-10.71,1.09-21.67,3.49-9.33,2.67c-2.73.78-5.92,1.17-8.61,2.11-10.36,3.61-20.7,7.92-29.42,14.68l-4.85,3.76c-3.03,2.34-6.03,4.38-9.27,6.32l-10,5.99c-2.88,1.72-6.05,3-9.09,4.57-3.87,1.99-7.61,4.16-11.97,5.66-13.75,4.74-29.89,7.48-44.51,6.07-13.24-1.28-12.11-3.81-24.46-8.36-2.33-.86-3.83-1.42-5.67-2.95l-10.22-8.44c-1.64-1.35-2.94-3.29-4.37-4.78l-5.59-5.82c-3.27-3.41-6.99-6.39-9.96-9.85l-5.42-6.3-7.57-8.77c-2.61-3.02-8.56,0-11.4.86l-9.44,2.88c-3.05.93-7.96,1.24-10.94.85-4.63-1.97-8.45-3.33-13.21-4.94-2.39-.81-4.9-3.7-7.19-5.28l-9.59-6.63c-4.39-3.03-12.36-3.03-17.26-3.31-3.78-.22-7.26-.83-10.95-1.29l-12.83-1.6c-7.74-.96-33.24-.09-36.15,8.43-.76,2.23.64,5.75-3.27,6.13-1.83.17-5.12.17-7.37.05l-6.34-7.52c-.38-.45-.37-2.72-.91-2.71l-2.93.07c-12.73.3-11.34,8.44-16.51,4.22l-4.85-3.97c-8.52-6.96-19.14-9.79-27.76-18.33-9.98-9.89-5.68-3.82-16.21-12.45l-5.2-4.27-11.73-9.62c-2.34-1.92-9.77-9.62-12.19-12.64-3.46-4.32-6.96-8.1-10.65-12.26-2.31-2.6-4.2-6.21-6.85-8.85l-5.71-5.69c-4.58-4.56-7.66-9.82-11.55-15.03l-6.64-8.9-3.65-5.58c-2.7-4.13-5-8.11-6.5-12.77-3.85-11.97-.62-5.97-6.46-17.72-.59-1.19-1.72-3.8-1.87-5.04-.56-4.74-1.28-9.5-2.16-14.18.05.28-2.27-20.47-2.24-19.29l-.54-16.95c-.16-4.87-1.5-9.4-1.04-14.41l.84-9.24c.33-3.6.55-6.97.4-10.75-.09-2.34,1.04-5,1.18-7.14.54-8.09.55-16.08.1-24.11l-.49-8.75c-.23-4.06-1.72-8.22-2.46-12.19-.7-3.74-1.4-6.69-3.1-9.95-2.68-5.14-2.73-11.21-4.17-16.71l-2.15-8.18-1.29-6.6c-.49-2.52-1.26-4.85-1.9-7.28l-2.37-9.01c-.69-2.64-.97-4.95-2.06-7.31l-4.09-8.89-2.45-5.6c-2.66-6.08-6.1-16.54-6.95-23.09-.56-4.29-3.04-8.34-4.39-12.3l-2.41-7.06c-3.95-11.58-9.95-18.63-11.99-23.63s-4.12-10.27-7.86-14.41c-.4-1.82-.5-5.62-1.63-6.9l-9.07-10.35c-2.15-2.45-4.14-4.86-6-7.55l-3.79-5.48c-2.72-3.93-5.21-7.73-6.91-12.25l-4.15-11.01c-1.13-3.01-1.49-7-1.92-10.31l-2.49-5.11c-1.79-3.66-1.88-7.32-2.58-11.15-2.33-12.81-1.19-11.28-2.8-22.13l-1.19-8.06-.92-12.72c-.28-3.91-1.29-6.93-.69-10.91.47-3.12.27-6.63.47-9.9l.84-13.61c.16-2.63,2.23-5.37,1.87-8.6-.25-2.23,1.35-4.87,1.97-6.98l2.46-8.4c.47-1.59,1.82-2.84,2.97-3.98,4.01-3.99,8.17-5.77,13.57-7.28,2.98-.83,5.6-4.17,9.15-2.62,7.09,3.09,3.81.27,12.93,2.47,4.74,1.14,9.58,1.91,13.97,3.91,5.39,2.46,12.77,3.93,13.96,6.01,1.28,2.24,6.14,3.51,6.65.77.6-3.27,1.18-5.56,3.25-8.38s3.51-6.26,5.05-9.35c5.45-10.86,2.05-7.69,6.17-15.08l3.04-5.46,3.36-6.04c1.7-3.05,4.26-4.65,6.02-7.61l5.51-9.29c2.12-3.57,18.02-15.58,21.87-18.88,1.34-1.15,3.54-2.35,5.17-3.28l8.15-4.66,8.98-3.88,22.16-14.27c6.24-4.02,16.83-4.88,18.87-6.19,4.45-2.85,9.91-3.09,14.03-5.35,7.04-3.87,12.72-6.38,20.79-8.01,3.89-.79,8.82-4.5,12.64-6.2l6.52-2.9c2.49-1.11,4.84-2.89,7.51-3.9l8.24-3.12,11.32-6.63c3.95-2.31,6.79-2.32,11.36-1.95,2.95.24,6.65-.6,9.82.2,6.04,1.53,11.74.98,17.81,1.27l12.98.63c3.28.16,7.37,1.58,10.53,2.77,1.25.47,3.22,2.28,4.45,2.39,3.99.36,6.01,2.81,9.16,4.57s7.53,2.58,10.36,5.17,10.47,6.42,14.21,7.57c1.73,1.44,4.2,4.28,6.13,5.62l6,4.18,7.38,7.17c4.19,4.07,7.77,7.38,11.36,11.9l8.13,10.22,7.8,10.29,7.16,9.02,5.87,9.17,4.89,5.88c3.24,7.93,4.21,18.91,7.98,26.03l3.72,7.04c3.04,5.76,4.72,9.07,6.08,15.89l2.06,10.37c.45,2.28,3.58,3.11,5.65,2.88,5.5-.61,22.84-1.56,27.1-.76,4.66.87,8.55,2.52,12.59,4.65l17.31,9.14c1.59.84,3.76,1.53,4.7,2.94,1.3,1.96,3.17,2.67,4.75,4.07,3.36,2.99,6.71,6.19,9.68,9.66l9.48,11.08c1.17,1.37,2.87,5.97,5.75,3.91,3.66-2.61,5.18-8.48,7.62-12.11,7.82-11.61,4.06-11.33,17.13-22.04,3.34-2.73,7.66-4.4,11.33-6.71,3.15-1.97,6.12-3.3,9.6-4.62,3.76-1.42,7.37-3.87,11.25-4.88,5.55-1.46,10.9-2.66,15.44-6.26.48-1.36,1.11-3.69,1.71-4.71,2.15-3.68,3.51-6.89,5.24-10.66l5.33-11.6,2.8-7.21c1.33-3.42.54-13.12-.78-16.13-6.84-15.55.23-8.9-4.95-18.98l1.18-2.71c.26-.6-1.13-1.61-1.62-2.49-1.05-1.92-.19-5.47-.09-7.75.23-5.36-5.33-8.17-7.21-12.22s-3.08-7.45-6.08-10.72l-5.37-5.85c-2.89-.56-4.06-2-5.68-3.85-8.09-4.66-9.32-2.94-14.38-4.25-11.17-2.89-24.24-4.61-35.05,0-4.87,2.08-9.3,2.74-14.55,3.8-5.75,1.15-19.23,3.82-24.91,3.74-4.28-.07-8.03.53-12.2,1.09l-10.07,1.35c-7.07.95-13.42,1.53-20.38,3.4l-6.88,1.85c-1.09.29-2.45-1.97-2.53-3.09-.35-5.11,10.64-4.74,14.05-5.59l8.52-2.13c3.08-.77,6.2-.91,9.52-1.24l14.25-1.42,8-1.62c9.37-1.9,19.22-1.83,27.83-5.68.15-.31.67-1.35.48-1.52-3.54-3.09-14.54-3.57-19.82-3.22l-7.94.52-17.81,1.69c-3.99.38-7.51.62-11.65,1.63-7.76,1.89-10.97.17-19.36,2.19-12.77,3.07-4.85-.33-15.24,6.25l-13.49,8.54-9.74,5.94c-5.34,3.26-12.15,7.3-15.8,12.23-2.22,3-5.8,2.56-9.69,2.04l-1.86-5.68,11.85-9.63c1.17-.95,2.78-2.17,4.1-2.88,6.35-3.4,13.23-7.64,19.43-11.46l11.07-6.81c12-7.38,30.64-10.47,44.65-9.87,2.25.1,5.52-.22,7.8-.61l12.72-2.19c3.18-.55,6.21-.98,9.5-1.32,10.8-1.14,6.45-.52,16.93,1.99,6.2,1.48,12.12,2.74,18.34,3.86,5.1.93,12.78-.3,16.65,1.57s5.86.87,9.74.45c7.6-.82,16.41,2.37,23.21,5.97,2.74,1.45,4.55,5.13,7.92,5.6l3.56,4.11c4,2.58,6.72,5.39,10.16,8.9,2.24,1.41,7.57.13,9.87-1.31,8.42-5.3,22.99-8.87,32.61-6.64,6.45,1.49,14.18,3.53,20.2,5.61,8.12,2.8,11.22,2.16,16.54,4.91,3.33,1.72,6.89,3.04,9.98,5.1,3.86,2.57,8.32,6.19,11.17,9.9,9.38,12.22,14.12,30.43,26.56,35.18,1.92,2.38,3.83,6.25,5.73,8.98,1.13,1.61,2.36,3.23,2.7,5.06.63,3.35,2.46,5.28,4.1,8.15,2.95,5.15,6.5,11.11,8.11,16.45.7,2.32.16,3.12,1.87,5.22,2.18,2.67,3.94,7.12,5.22,10.76,1.7,4.82.96,10.15,1.39,15.22l.87,10.09c1.65,19.05,6.29,21.25,7.15,41.32.19,4.43.48,8.42-.02,12.93-1.04,9.32,1.96,9.75,4.89,18.31l4.02,11.76c.85,2.48,1.39,4.81,1.96,7.43,2.54,11.71,3.79,15.12,2.63,27.43-.17,1.81,1.06,5.25.7,6.92-.94,4.35.85,7.62,1.49,11.71.62,4.01.62,8.7.84,12.88.77,14.84.24,29.1-1.47,43.9-.93,8.08-1.7,15.52-.33,23.72.57,3.44.42,7.17.79,10.68l1.94,18.49.83,8.52c.36,3.7-.18,6.59-3.02,9.13-1.64,1.47-4.65,2.11-6.42.89-5.97-4.12,2.57-11.48-6.73-11.16-.73,4.16-.02,9,1.79,12.76,2.93,6.09,5.17,22.64,5.42,23.39l3.63,10.85c1.55,4.63,1.96,9.33,4.73,13.43,3.04,4.49.47,10.9,6.5,18.97,1.15,2.68,1.98,6.44,3.01,9.23,1.76,4.79,1.67,7.32,3.73,14.28,1.41,4.78,1.45,9.58,2.07,14.49s.91,8.84.61,13.71ZM353.93,309.94c1.89,2.19,3.32,3.36,5.84,3.54,6.34.44.88,2.07,13.41,5.09,7.8,1.88,14.56,4.79,20.68,10.06,1.92,1.66,5.36,3.12,6.84,5.09l8.24,10.96c2.27,3.02,4.13,4.13,7.9,5.61,1.83.72,3.99,3.05,6.2,3.25s5.17-.92,6.31-3.1c2.53-4.82,4.94-9.08,7.97-13.67,1.84-2.78,4.94-5.12,6.99-7.77l4.37-5.67c6.44-8.36,13.24-9.88,22.67-15.83,3.94-2.49,7.81-4.54,11.94-6.66,15.94-8.2,27.42-2.29,40.33-4.73l11.87-2.24c2.44-.46,6.09-1.2,7.27-3.38.78-1.45,1.12-5.4.32-6.81l-4.62-8.14-3.1-6.78c1.25-6.77-6.02-19.45-9.48-25.02-1.48-2.39-.52-6.68-5.16-7.17-.48-6.04-3.81-10.38-6.64-15.3-3.25-5.67-4.01-9-7.79-14.38-5.53-7.86-4.67-3.44-9.68-9.45l-4.94-5.91c-2.86-3.42-5.93-6.48-9.46-9.01-1.15-1.68-2.49-2.71-4.18-3.93-8.06-5.8-10.1-9.73-20.67-15.56-2.45-1.35-4.55-2.41-6.73-3.96l-6.22-4.43c-4.04-.34-7.96-1.57-11.6-3.5-4.76-2.53-10.14-1.48-15.42-1.87s-9.8-1.03-14.87.3c-2.39.63-4.91-.03-7.38,0-10.64.13-28.88,2.65-38.88,6.94l-8.05,3.45c-5.28,2.27-10.12,5.04-15.25,7.66l-10.35,5.28-11.3,5.75-10.2,5.65c-2.8,1.55-5.02,3.31-7.55,5.27-2.03,1.58-5.04,2.84-7.35,4.24l-10.17,6.21-13.89,9.59c-4.56,3.15-17.03,10.43-21.85,12.42s-8.57,4.53-12.68,7.26l-8.55,5.67c-13.72,9.11-22.73,15.82-23.88,32.9-.33,4.87-.59,9.4.11,14.27.25,1.71-.06,4.72.43,6.16,5.39,15.89,4.21,4.82,7.9,17.28,2.16,1.49,5.4,4.28,7.8,5.15l10.22,3.72,7.49,1.87c2.67.67,5.17,1.69,7.7,2.08,2.78.43,3.6-2.2,4.77-3.72l5.6-7.3,5-2.49c.97-4.7,10.44-10.97,15.37-11.15l12.02-.43c3.34-.12,6.29-.47,9.6-.1,4.39.49,9.05.66,13.2,1.92l6.68,2.02c7.37,2.23,14.5,3.71,22.02,4.98l10.5,1.77c1.59.27,3.97,2.94,5.41,3.42,2.21.73,5.52,1.02,6.89,2.61ZM776.81,176.38c1.41,1.79,4.95,2.45,6.53,2.36.44-.02,1.19-1.5.9-1.82-1.5-1.71-5.72-1.75-7.44-.54ZM227.93,219.76c9.2-4.82,15.96-6.99,23.07-12.01,4.08-2.89,7.88-5.29,12.27-7.92,8.08-4.85,7.87-6.86,16.69-12.44l7.67-4.84c.63-.4,1.37-2.37.88-2.81-3.46-3.09-2.34,4.37-9.61,4.64-2.56.09-4.97,1.97-7.07,3.39l-13.33,8.95-7.53,3.9c-4.24,2.2-7.63,5.93-12.52,7.31-4.59,1.3-7.93,3.35-10.94,7.07l-3.64,4.49c1.54.44,3.25.71,4.07.28ZM882.84,349.7c.37.86,2.35,1.89,3.15,1.55s1.24-2.49,1.04-3.39l-1.91-8.52-2.21-7.47-3.49-14.49-3.9-8.87-4.74-10c3.77,7.95-13.92-34.52-11.15-26.59l-3.14-9.01-2.59-8.09c-4.48-13.97-5.2-18.84-11.89-32.03-2.64-5.21-5.78-10.28-9.01-15.13-1.54-2.32-3.57-4.35-4.1-7.08-.84-4.29-3.84-4.99-7-6.31s-6.22-3.32-9.46-.18c-3.85-2.24-7.96-3.46-12.51-3.47-6.91-.02-12.81-2.97-19.3-4.67-4.5-1.18-9.73.83-14.05-1.15-1.14-.52-3.03-1.4-3.99-1.27-1.94.26-5.55,4.36-4.76,5.37,3.61,4.59,6.65,3.85,8.05,4.69l6.16,3.7c5.91,3.55,11.81,6.24,18.12,9.14l4.16,4.99c3.89.23,6.85,1.56,8.76,4.72,1.66,2.75,4.47,4.14,6.87,6.14,3.51,2.92,6.94,6.39,9.96,9.83,1.73,1.97,2.59,4.33,5.09,5.69,4.58,2.5,2.6,4.39,9.17,9.22,1.19,3.53,2.99,6.27,6.11,8.2.22,5.06,3.46,8.54,6.23,12.35l5.16,7.09c1.8,2.47,3.04,6.12,4.42,9.02l5.79,12.17c.99,2.07,1.36,4.5,2.02,6.81l2.2,7.62c.92,3.2,4.23,6.96,4.08,10.22-.19,4.25,1.92,5.44,3.51,8.44,3.52,6.62,6.04,13.7,9.14,20.77ZM899.85,544.78c.93-11.56-2.85-10.18-1.64-30.02.79-12.95,2.77-14.34,3.46-21.35l1.85-18.66c.82-8.27-.69-11.66-1.96-18.06-2.18-11.06-1.29-14.07-3.44-24.52-1.85-8.97-.65-8.89-3.5-19.96-.71-2.78-1.51-5.71-2.4-8.34l-4.68-13.85-2.52-7.52c-3.36-10.01-6.39-13.65-8.27-23.07-.48-2.41-3.23-4.18-4.17-6.38l-3.65-8.57c-1.69-3.97-3.54-7.57-4.84-11.74l-2.58-8.26c-.52-1.66-2.72-4.36-3.48-5.95-.42-4.34-1.11-8.39-3.9-11.41l-5.62-14.14c-1.07-2.68-2.34-5.16-3.65-7.79l-4.3-8.56-5.75-11.62c-6.93-4.3-.69-5.59-7.95-11.18-2.03-3.59-4.38-6.47-7.22-9.2-4.55-4.38-8.14-9.62-13.68-12.88-1.64-.97-2.27-2.24-3.36-3.65-5.84-7.62-14.2-12.39-22.25-17.06l-7.34-4.26c-5.64-3.27-20.06-11.53-26.36-10.98-.46,4.04,1.48,6.61,2.59,9.72l3.8,10.65.89,6.31c.43,3.06,1.38,5.17,1.96,8.31,1.71,9.23,8.18,15.1,3.8,28.27-1.39,4.18-2.68,8.5-4.5,12.6-3.84,8.65-7.58,8.34-7.57,12.96,0,.99,2.01,2.08,3.23,2.2,8.75.9,16.24,5.08,23.55,9.35,9.82,5.73,8.9,6.41,15.17,14.89,2.05,2.77,3.83,5.27,5.52,8.04,2.8,4.6,5.97,8.62,7.45,13.9,2.81,2.52,3.93,5.85,5.73,9.23l8.34,15.66,5.77,14.13,4.29,9.48c1.79,3.95,4.93,6.74,6.53,10.81l2.17,5.49c.7,1.79,2.47,3.01,2.36,4.67-.2,2.99,1.93,3.74,3.06,5.6,1.71,2.8,3.25,5.82,4.72,8.87.58,1.2,1.04,3.67,1.78,4.68,1.9,2.6,3.39,5.15,5.02,7.86l5.89,9.82c1.16,1.93,2.07,5.11,3.77,6.86,4.02,4.14,5.6,8.7,8.06,13.74,1.12,2.3,3.01,4.58,3.98,7.2,1.69,4.58,3.88,8.74,5.07,13.43,1.99,7.87,3.59,15.41,5.06,23.34,1.77,9.54.79,15.45,4.5,25.53l5.99,16.24c.66,1.17,5.1.5,5.21-.86ZM882.18,294.04c1.87-3.78.92-6.58-.01-9.83-5.24-18.23-2.86-5.65-7-16.16-2.28-5.79-5.82-12.79-8.37-18.08-.38-.79-2.77-1.87-2.98-1.2-.16.53-.33,1.96-.18,2.6l1.77,7.61c.38,1.63,2.86,4.31,3.6,5.94-.68,3.36,1.27,5.2,2.24,7.63l3.08,7.75,4.27,11.85c.44,1.21,3.07,2.94,3.58,1.91ZM749.58,256.41c-.66-.23-2.53.57-2.8,1.23l-3.88,9.5c-.29.7,2.11,2.24,2.63,1.74,3.23-3.07,7.16-11.37,4.05-12.47ZM242.1,563.97c.26,5.82.92,11.36-.09,17.07,2.07,4.36,3.21,8.7,2.69,13.62-.26,2.43,1.91,4.84,2.37,6.72,1.97,8.04,3.92,15.56,7.1,23.15,7.03,16.8,2.07,8.3,5.2,17.43l3.27,9.54,3.39,15.31,1.88,8.5c.65,2.92.95,5.67,1.8,8.51.62,2.06,1.57,4.62,1.92,6.56l2.44,13.51c2.48,13.76,1.8,25.64,5.46,41.07.67,2.84,3.66,5.64,3.7,8.81.06,4.98,1.4,10.47,3.16,14.96.68,1.74.73,3.94,1.11,5.6,2.48,10.95.81,10.95,2.71,19.09l3.28,14.06c.91,3.91,3.13,9.09,4.68,12.57.28.63,1.88,2,2.02,2.76.53,2.91,2.96,6.79,5.73,8.86,2.37,1.76,7.65,9.9,12.27,14.11l8.17,7.46c2.81,2.57,5.21,5.32,9.58,3.51.16-3.01,1.01-7.04.74-10.13-.57-6.5-.2-12.25-.02-18.65l.59-21.1.67-22.33,1.53-12.7c.67-5.53.33-10.98-.25-16.59l-1.14-11-2.1-15.65-2.35-14.81c-.9-5.67.52-10.89.93-16.35l.76-10.03c.71-9.41,3.54-14.24,4.88-21.5l1.32-7.17c.72-3.88,2.39-6.91,3.95-10.4l3.58-8,4.29-9.38c1.25-2.74,2.88-5.19,2.97-8.49s-.64-7.39-.1-10.62l2.72-16.21,2.82-6.95,1.08-5.46c1-5.07,3.95-9.55,6.16-14.16,1.33-2.77,2.67-5.31,4.23-7.92l5.63-9.43c1.74-2.92,1.96-4.77,1.44-8.17-1.47-9.7-4.36-20.37-8.53-29.4-.94-2.03-1.23-5.27-2.47-7.53-1.65-3.02-2.19-6.53-3.52-9.54l-4.76-10.78c-1.42-3.22-3.36-6.11-5.05-9.2l-4.45-8.11c-3.03-5.52-5.63-10.11-9.51-15.11l-7.17-9.25-5.14-9.14c-1.23-2.18-3.57-3.63-4.67-5.94-2.99-6.24-7.17-12.54-11.33-17.94l-8.43-10.94c-7.97-10.34.88-.92-10.88-13.29l-7.62-8.02c-2.99-3.15-5.82-5.56-8.57-8.74l-6.58-7.6-6.82-8.23c-1.7-2.05-3.85-4.25-5.89-6.23-9.36-9.08-7.63-3.63-12.91-10.16-2.5-3.1-8.06-.54-11.11-4.44l-12.88-5.33-14.93-4.35c-12.39.67-22.85-3.02-31.94-11.25-1.68-1.52-3.63-2.63-5.15-4.76-1.14-1.6-3.41-2.94-5-4.33-3.49-3.06-7.52-4.89-11.33-7.36-4.19-2.73-8.38-5.24-12.92-7.75l-10.06-5.56c-1.15-.63-3.32-1.52-4.35-1.16-.9.32-2.64,1.71-3,2.61l-5.81,14.41c-1.12,2.78-2.92,6.19-3.77,8.9-.09,13.04-1.97,6.28-1.2,18.98l.69,11.47c.26,4.24,1.25,8.13,2.18,12.38.56,2.58-.19,6.16.56,8.67.59,1.96,1.89,4.23,2.32,6.17.81,3.65-.71,8.37.68,11.5,1.13,2.54,2.19,4.71,2.72,7.38l1.46,7.33c1.21,6.07,5.73,12.19,6.24,22.88.3,1.62,1.6,4.3,2.33,6.06l5.71,13.77c.99,2.38,1.43,4.48,2.35,7.2l3.97,11.76c.23.69,1.71,1.86,2.11,2.36l8.94,11.16,8.52,10.53c1.52,1.87,7.87,15.59,8.94,18.75,1.8,5.32,1.99,11.16,5.49,15.47,1.02,1.26.44,4.91.95,6.48,2.03,6.2,3.64,12.97,4.4,19.68,1.13,9.98,2.02,5.75,3.49,11.99l1.66,7.04c1.63,6.91,5.1,13,3.44,20.52,4.65,5.48,3.79,11.97,5.1,18.3,1.66,8.02,7.54,23.58,9.6,34.03l2.92,14.8,1.55,14.89c.64,6.16,1.45,12.33,1.74,18.5s-.28,12.56,1.54,18.65c.54,1.8-.04,3.79.16,5.6l1.85,17.17c.24,2.23.76,4.38,1.12,6.5l1.35,8.05c.62,3.69,1.63,7.16,2.56,10.88l2.9,11.48c1.1,4.34,1.94,7.83,5.36,11.2,1.79,1.76,2.16,5.72,3.35,7.36,2.22,3.08,4.03,6.08,5.8,9.31l3.53,6.41,3.88,7.3c1.9,3.58,3.55,5.87,6.58,8.7,3.36,3.15,6.58,6.85,10.2,9.84,4.48,3.7,8.43,7.66,13.65,10.31,3.92,1.99,7.39,4.45,11.12,6.7,1.98,1.19,4.68,2.04,6.22,3.84,2.42,2.83,6.38,3.94,9.4,1.47-2.15-1.89-3.4-2.98-4.77-4.61-9.49-11.27-2.05-4.98-9.84-17.18-1.91-2.99-4.14-7.05-4.37-10.48l-.32-4.92c-1.53-4.02-1.47-8.54-1.99-13.04l-1.22-10.55c-1.09-9.41-3.24-4.44-5.74-19.34-1.03-6.13-1.48-4.34-3.24-13.7l-2.03-10.78-2.1-21.85-4.16-23.71c-.83-4.72-1.83-9.61-2.97-14.15l-2.57-10.3c-.81-3.27-1.47-6.28-1.77-9.72-1.13-13.29-3.15-5.47-3.4-14.23-.21-7.2-4.74-14.8-6.08-18.76l-5.04-14.86-2.44-8.68c-.87-3.1-.89-6.27-1.03-9.65-.12-2.92-2.04-6.37-.88-9.21.93-2.28,1.19-4.32.52-6.6-1.87-6.38-1.48-12.07-.94-18.57.13-1.54-.59-4.65-.72-6.38l-.67-9.38-1.05-13.71c-.26-3.37-.88-7.27,2.78-9.67,2.28,4.27,1.94,8.65,2.47,12.86.68,5.46,3.09,8.26,2.27,13.4-.65,4.05-.47,7.51-.29,11.49l.51,11.33ZM182.77,289.98c3.23-.97,3.03-6.26.61-7.02-1.08-.01-2.38,2.14-2.46,3.18-.09,1.09.84,4.13,1.85,3.83ZM728.54,318.05c2.14-1.5,5.63-1.99,8-2.85,6.49-2.34,7,.51,16.69,2.86,5.53,1.34,14.12,3.87,18.47,7.32,6.49,5.15,9.45,7.35,14.44,13.92,3.62,4.76,6.39,10.18,11.13,13.99,3.97,3.2,8.76,8.13,11.87,12.47.59.82,2.28,1.62,2.97,1.1,2.4-1.81-2.61-8.75-3.99-10.73-1.99-2.84-2.58-5.85-4.25-8.85l-4.47-8.04c-1.66-3-4.58-5.47-6.02-8.27-5.8-11.31-14.15-26.86-27.43-31.51l-18.95-6.63c-1.24-.44-4.06-2.75-5.1-1.13-5.5,8.55-9.5,15.18-18.09,21.27-2.94,2.08-8.54,2.3-11.95,1.55-4.67-9.09,5.76-14.55,5.31-17.66-.14-.94-2.44-2.28-3.42-1.96-12.07,3.96-6.61,4.38-16.51,8.78l-7.58,3.37c-2.95,1.31-6.94,4.94-9.19,7.44l-7.53,8.41c-1.56,1.74-2.43,5.08-3.65,7.16-3.16,5.41-5.89,10.52-8.77,16.23-1.04,2.06-3.9,5.79-2.92,7.74,1.64,3.27,5.51,1.08,7.58.63,4.25-.93,7.7-2.09,11.48-3.73,8.17-3.54,16.21-6.98,23.07-12.76l10.03-8.45c2.6-2.2,5.45-3.84,7.91-6.57,3.13-3.47,1.63,1.35,10.88-5.13ZM265.85,330.47c.57-2.54,2.84-3.78,3.79-5.44,2.46-4.26,4.29-7.8,8.22-10.6s7.42-5.63,12.48-6.85l6.22-1.49c.55-.13,1.49-1.17,1.84-1.61,4.18-5.23-23.82-.69-25.74-.45-11.14,1.43-14.76,8.99-21.45,15.28-.72.67-1.67,2.13-1.49,2.93.77,3.57,3.76,1.54,8.14,8.21,1.02,1.55,2.72,2.54,4.43,2.59,1.14.03,3.29-1.33,3.57-2.58ZM530.81,405.17l9.18,4.8c5.92,3.1,8.63,7.68,10.54,13.88,1.07,3.45,3.4,6.11,2.27,10.52-.38,1.48,2.85,3.81,4.12,2.97l9.07-5.97,8.91-6.52c8.57-6.27,2.29-2.88,10.65-8.72l6.75-4.71,6.55-4.85,8.51-6.48c4.46-3.4,8.68-6.12,12.87-10.08.88-.83,2.96-2.12,4.12-2.92,7.88-5.41,18.77-17.17,16.89-26.72l-11.84-18.07-5.68-12.17c-1.33-2.85-.86-6.37-3.75-8.69l-11.55-9.27c-2.82-2.26-10.16-2.19-14.09-1.88-13.56,1.06-14-.58-24.2-.43-2.6.04-4.87-.29-7.15-1.38-6.89-3.29-5.64,4.73-13.05-2.69-6.52-.24-13.79-.33-20.37-.09-6.74.24-12.49,3.21-18.4,5.74l-9.6,4.11c-3.06,1.31-6.21,2.99-9.32,3.95l-6.59,2.04c-6.41,1.98-11.91,4.65-17.09,8.77-2.17,1.72-5.53,2.78-7.28,4.85s-3.36,3.2-5.35,4.83c-1.71,1.4-3.91,5.18-4.5,7.42-1.39,5.31-4.63,10.74-10.76,10.52-2.03-.07-3.66-.05-4.95,1.83-1.09,1.59-2.26,3.81-2.08,5.41.55,4.78,5.3,4.15,10.69,16.56,1.06,2.45,4.91,4.59,5.87,7.27,1.1,3.08,2.48,4.89,4.51,7.35,2.2,2.66,2.87,7.58,4.94,10.36,2.25,3.04,4.82-.26,6.66-1.27,3.24-1.78,6.69-2.34,8.95-5.67.7-1.03.49-3.63-.12-4.63-2.02-3.34-9.77,2.29-13.71-3.41-.65-.95-.6-3.92.33-4.78,3.65-3.36,10.53-5.65,15.19-2.29l4.89,3.53c5.99,14.31,25.22-2.07,38.52,10.34l8.69,3.13,1.75,3.52ZM491.12,309.04l-.88-2.19c-1.73.21-4.04,1.71-4.28,3.08-.14.82,2.02,2.18,2.64,1.76s1.15-1.05,2.52-2.66ZM432.11,494.43c1.72-2.78,4.9-4.31,6.9-6.58,6.69-7.61,6.52-8.41,15.59-15.31,5.95-4.53,6.6-7.68,3.7-16.08l-2.96-8.57c-.7-2.03-1.06-4.91-1.94-6.82-5.42-11.76-1.97-9.73-7.81-23.07-.96-2.19-3.35-4.74-4.09-6.86-2.02-5.74-4.37-10.29-8.02-15.16-1.17-1.56-1.91-5.04-3.42-6.55-9.72-9.73-5.53-10.68-13.81-19.76l-3.42-3.75-8.46-9.34c-2.61-2.88-4.99-5.62-8.7-7.03-5.51-5.75-4.6-1.05-12.04-7.83l-13.15-11.98c-2.09-1.9-4.71-1.26-7.11-2.46l-14-7.03c-2.04-1.03-47.01-10.39-51.31-4.74-7.5-.36-12.85,4.34-17.91,9.01-2.38,2.2-3.92,3.54-5.1,6.73l-2.49,6.76c-.87,2.36.65,5.02,2.49,6.29l3.94,2.73,7.45,5.37c8.29,5.98,11.6,14.9,17.63,22.54,8.66,10.96,6.84,6,13.94,14.53,2.33,2.8,5.64,5.29,7.94,8.37,3.38,4.54,7.2,8.72,10.07,13.39,8.3,13.47,6.55,13.71,11.22,22.33l3.03,5.61c1.66,3.07,3.43,6.04,5.36,8.99l20.57,31.41c5.39,8.22,2.2,6.71,7.62,13.2,2.12,5.61,4.37,11.3,6.19,17.14l1.67,5.38,3.28,11.87c.83,3.01,5.13.71,6.52-.65,6.5-6.35,12.24-13.41,18.17-20.25,3.71-4.28,9.4-6.88,12.47-11.83ZM742.83,324.48c-1.27-.4-4.43-.61-5.7-.41-.79.13-1.31,2.94-.63,3.36,1.84,1.16,4.91.41,6.77-.16.57-.17.12-2.62-.44-2.8ZM738.61,702.28l5.06-13.46c1.24-3.31,1.7-7.97,4.06-10.63,8.31-9.38-.23-3.23,6.22-18.16,5.43-12.57,4-13.76,7.17-22.7l3.9-10.99c1.21-3.4-.56-8.21,2.29-11.58,4.92-5.81,1.22-11.13,4.31-16.24,7.08-11.72,1.96-3.26,5.11-16.99.68-2.96-.18-7.25.86-9.92,1.16-2.95,2.14-5.21,1.89-8.32l-.7-8.68-.52-14.17c-.07-1.92-2.6-6.08-.2-7.4,4.05-2.22,5.03,9.14,5.18,11.61l.71,11.47.6,9.52c.21,3.32-2.02,7.66-2.41,11.17-.78,7.09-1.44,8.7-1.91,16.2-4.48,12-5.6,23.03-8.84,34.69-2.34,8.43-3.09,17.23-6.04,25.35-.75,2.08-1.69,4.06-2.32,6.32-.87,3.13-1.73,6.27-2.79,9.23l-2.3,6.42-2.51,8.8c-2.34,8.2-6.84,15.58-7.58,24.33-.45,5.31-3.79,9.56-5.35,14.54-.62,1.97-1.04,4.88-1.41,7-.51,2.88-1.51,5.02-2.44,7.66l-6.55,18.61c-.88,2.5,1.16,6.08.91,8.47-.2,1.91-.79,5.15-1.5,6.6l-2.41,4.95c-1.3,2.68-2.27,6.55-3.77,8.88-3.02,4.67-4.07,9.06-6.05,14.01-2.47,6.14-10.15,18.84-14.01,26.66l-3.52,7.15-6.09,10.15c-1.54,2.57-2.49,5.95-3.99,8.21l-5.23,7.86c-2.27,3.41-5.16,6.76-6.83,10.6-1.06,2.45-2.52,3.9-4.16,5.92l-4.85,5.95c-5.15,6.31-12.44,10.99-20.28,12.84l-7.22,1.71c-4.05.96-8.83.12-13.74-.15l3.42,6.51,6.89,1.61c2.59,2.22,4.88,3.67,8.01,4.48,11.13,2.88,12.59,4.33,24.57,2.74l10.8-1.43,14.61-.66c5.91-.27,11.47.41,17.35.11l11.57-.59c1.6-.08,4.48-1.64,6.15-2.32l8.13-3.3c5.35-2.17,10.01-4.74,15.44-6.81,1.85-.71,3.89-1.78,5.8-2.68,4.65-2.21,7.08-2.19,13.92-5.3,11.99-5.46,12.56-3.83,17.6-5.95,15.48-6.53,15.83.31,28.5-11.32,19.67-18.04,14.31-19.09,20.24-26.84,6.82-8.91,5.23-9.5,13.18-18.19,3.49-3.83,4.83-8.03,7.34-12.47l6.07-10.74,3.32-7.91c-.04.09,6.69-9.44,8.08-15.34.59-2.52,1.74-5.13,2.87-7.29l.49-28.86.11-6.06c.08-4.67.11-9.39.55-14.08l.75-7.86c.2-2.11.15-4.23-.02-6.4l-.7-8.64c-.22-2.67-.86-5.22-1.27-7.86-1.17-7.41-.3-7.58-2.12-15.23-.72-3.03-.25-6.99-.54-10.27l-.65-7.28-.84-9.91c-.52-6.07-.04-12.06.09-17.9l.49-22.82c.1-4.86-.04-9.4.02-14.26.09-7.98.93-18.85-1.27-26.8-.92-3.32-2.03-6.7-2.7-10-2.96-14.48-5.18-15.48-9.04-28.91-.67-2.31-1.2-4.34-2.26-6.41l-9.37-18.37c-1.69-3.32-4.1-6.09-6.39-8.7-1.16-1.32-1.97-4.9-3.15-6.03-.55-.53-11.27-12.04-10.34-10.67l-4.2-6.23c-1.9-2.81-3.82-4.06-5.04-7.31-.96-2.53-3.95-5.18-4.75-7.7-1.17-3.69-2.96-5.53-5.1-8.8-1.16-1.77-2.18-5.57-3.25-7.77l-2.87-5.9c-1.14-2.34-2.82-4.35-4.03-6.77l-6.71-13.38-11.92-18.75-9.59-13.85c-2.5-3.61-3.77-7.24-5-11.58-.53-1.9-2.06-4.28-2.73-6.24l-4.12-12.07c-1.6-4.69-2.41-7.9-6.98-10.81-2.4-1.53-4.43-5.77-8.01-5.97-12.88-.73-11.05-.98-25.02.9-3.55.48-15.84,6-18.38,7.78l-11.29,7.89c-3.58,2.5-7.57,4.27-10.91,7.02l-6.3,5.21-6.52,5.59c-3.93,3.37-6.8,3.14-5.88,10.47.36,2.84-.71,3.8-2.56,5.29-7.47,6.03-6.74-3.26-13.65,3.5-2.08,2.04-4.32,4.49-6.37,6.29-3.35,2.94-6.51,4.94-8.61,8.91-1.4,2.64-3.21,5.23-4.79,7.85l-3.49,5.77c-1.34,2.21-2.73,4.29-4.47,6.14l-3.49,3.7c-6.67,7.06-10.22,10.26-18.76,14.81-10.53,5.61-22.01,8.13-33.88,9.56l-17.61,2.12c-3.08.37-5.93.86-8.64,2.18l-9.65,4.68c-3.88,1.88-7.09,4.13-10.78,6.41l-19.03,11.72c-17.48,10.76-30.09.59-27.52,17.28-.8,2.41-1.93,4.68-2.52,6.9-1.89,7.15.59,9.81-3.19,12.98-2.66,2.23-8.79-.37-9.87-1.63-.59-.69-.31-2.66-.2-3.82l.83-8.86c-.89-.68-3.44-.17-4.44.77l-6.33,5.97-6.26,6.57c-2.11,2.21-3.92,5.24-6.51,6.93-2.38,1.55-3.86,4-5.77,5.65-4.94,4.28-10,7.55-13.14,13.53-1.48,2.82-4.45,4.66-6.43,6.92-2.84,3.25-3.84,8.14-6.33,11.66-1.11,1.57-1.59,3.11-2.34,4.89-2.65,6.31-5.86,12.41-9.59,18.06-1.37,2.07-2.35,3.76-3.45,5.99-2.66,5.36-4.1,2.9-8.9,12.92l-3.42,7.14-3.01,7.18c-3.3,7.85-4.85,12.68-6.55,21.17l-1.45,7.23c-.54,2.7-.62,6.08-.84,9.03s-.78,5.22-1.25,7.94-.55,5.79-.9,8.55l-1.36,10.71-.89,11.29-2.15,22.09-.59,10.02c-.49,8.4-.7,16.09-2.17,24.33-.75,4.24.15,9.14-.34,13.46-.55,4.77-2.01,9.5-1.2,14.31.14.84,5.13,17.25,6.74,18,.98,1.28,5.57.69,5.98-.66-.16-3.36.44-7.22,3.18-9.24,3.88-2.86,7.79-.32,10.66,2.32,8.48,7.81,8.37,16.41,11.82,28.43.83,2.9,1.6,5.13,1.62,8.35.02,2.85.64,5.57.99,8.57.18,1.57-4.17,2.67-5.05,1.18-3.37-5.72-3.79-11.87-5.06-17.99-2.13-10.25-.58-11.5-4.6-18.16-1.48-2.46-5.74-.31-6.29,2.14-.72,3.19.83,5.92,1.39,8.9l1.85,9.76c.59,3.13-.11,7.1.63,10.12l2.28,9.28c2.38,9.72.98,10.14,4.49,15.29,1.6,2.35,1.04,5.5-1.05,7.17-1.45,1.16-4.17,3.24-6.41,1.63-1.74-1.26-3.55-3.12-5.06-4.65-.23-11.58-7.41-14.83-4.57-24.82.81-2.83-.57-5.79-1.36-8.32l-2.95-9.55c-.39-1.25-2.16-2.7-3.29-2.91-7.45-1.38-4.2,13.4-3.42,19.51.35,2.73.66,5.39,1.23,8.01l2.93,13.47,1.46,7.83c.67,3.57,2.85,11.06,5.98,11.83,3.71.9,9.27-2.69,16.43-2.57,12.31,2.74,24,3.39,36.57,3.65l6.52.14c7.7.16,15.25,1.15,22.74-.97,3.82-1.08,7.67-1.81,11.08-3.88,5.16-3.12,10.58-4.33,16.77-3.96,2.69.16,5.97-1.16,8.59-1.24l14.82-.48c1.82-.06,3.55.16,5.37.5l7.73,1.45c11.33,2.13,25.47,8.88,40.49,3.63l17.78-6.21,7.06-2.4c1.91-.65,4.5-3.32,6.52-3.67,4.17-.71,12.79-2.3,15.77-3.7,2.11-1,4.47-2.11,6.59-2.64l7.49-1.9c8.24-2.09,15.81-.4,21.26-4.56,2.87-2.19,6.44-4.8,8.67-7.59l10.4-13.02c2.19-2.75,4.06-6.05,6.75-8.27l5.13-4.24,6.7-6.15,7.49-6.78,6.96-6.54c4.22-3.97,8.51-7.53,12.31-11.94,5.09-5.91,10.83-10.24,17.82-13.72,1.43-2.46,2.78-5.82,3.65-8.52l3.33-10.38c.75-2.33,2.32-5.12,2.77-7.45-.02.1,6.92-19.7,7.14-20.75l3.24-15.61ZM858.36,492.22c.46.89,3.14-.12,3.44-1.06.55-1.75-2.56-9.76-3.12-10.86l-9.25-18.06-3.68-6.88-4.52-9.07-10.25-19.01c-2.14-3.96-4.68-7.51-5.99-11.79-4.36-14.15.1-3.43-6.14-17.93l-2.34-5.43c-2.36-5.49-4.73-10.57-8.45-15.27-1.74-2.21-3.72-3.73-5.67-5.87l-9.15-10.07c-2.55-2.81-6.2-4.97-8.52-7.83-4.65-5.75-8.22-12.28-15.53-15.64.31,2.39,1.3,3.92,2.54,5.67,2.11,2.99,1.85,7.27,3.2,10.45.89,2.12,2.06,4.16,2.73,6.36,1.71,5.56,5.28,13.98,7.34,19.74,3.8,2.88,5.7,5.99,8.23,9.85l5.6,8.5,4.79,6.71c3.77,5.28,6.52,10.74,9.11,16.7l3.01,6.93c1.34,3.08,2.84,6.32,4.39,9.16l7.3,13.35c2.03,3.71,4.71,7.13,6.97,10.74,1.59,2.53,3.52,4.44,5.73,6.62,1.79,1.76,2.99,5.39,4.9,6.97,6.56,5.44,9.35,9.41,13.32,17.03ZM118.32,414.27c1.9-1.12.5-2.76-.02-4.18-1.12-3.04-.37-7.66-1.68-10.53l-3.29-7.18c-.19-.42-1-1.43-1.31-1.7s-.95.22-1.24.52-.09,1.78.21,2.12c1.36,1.53,1.48,4.25,1.97,6.67l1.77,8.69c.31,1.51,2.67,4.25,3.58,5.61ZM534.87,447.06c-2.2-3.96-2.29-8.25.28-11.76.77-1.46,1.7-5.18,1.25-6.76l-1.42-5.01c-8.33-9.24-8.31-8.39-17.33-14.72-4.45-3.12-9.06-4.48-14.63-4.08-4.15.3-9.13-.59-12.98.59-2.83.87-4.66,1.72-7.76,1.63-4.62-.14-11.79,8.14-14.49,11.01-4.23,4.52-2.71,9.11-.65,14.32,2.19,5.53,3.06,12.43,4.01,18.49.55,3.52.93,4.78,3.44,6.5,3.12,2.14,4.78-.86,7.5-1.19,6.97-.84,14.44-.56,21.7-.27,6.4.25,26.71-2.95,31.07-8.74ZM590.69,428.6c2.99-3.06,4.9-4.92,7.4-7.2,8.11-7.41,10.42-3.51,14.64-14.77-2.07-.95-3.91.66-5.16,2.12l-3.36,1.58-8.09,7.72-11.61,8.87c2.18.83,4.67,1.54,6.19,1.69ZM490.96,472.09c2.52-2.21,5.28-3.95,4.95-7.96-5.21-.51-10.29-.37-15.08,1.05-4.52,1.34-6.99,6.07-4.87,10.36,5-.3,11.84-.68,15-3.46ZM412.96,528.55c-2.67-2.32-9.42,6.76-10.47,9.74-.38,1.09,1.63,3.67,2.82,3.73,5.07-4.22,7.93-6.61,7.65-13.47ZM900.58,742.67c-.27-7.49.74-14.11,1.88-21.08l1.43-8.7c1.37-8.35.54-9.61,2.15-18.55.38-2.13-.01-5.37.54-7.38,1.38-4.99,2.11-9.37,2.08-14.5l-.09-14.26c-.04-6.4-3.13-10.96-9.63-12.22-5-7.96-.8-19.36-10.4-20.66.85,4.48,1.35,7.73,1.08,11.43-.32,4.43.88,8.88.84,12.97-.09,9.74.1,18.83,1.81,28.45.63,3.55,1.85,6.68,2.08,10.32l.63,10.09c.56,8.91,2.16,22.14-.49,32.02-1.19,4.42-.04,9.77-.7,14.41-.24,1.66-.42,3.98.34,5.03,4.04.36,6.59-3.18,6.44-7.38ZM916.15,731.78l4.27-9.76c2.94-6.71,4.54-12.94,4.86-20.36.43-9.73,0-18.13-1.51-27.91-.5-3.24-.08-7.31-1.5-10.24-3.61-7.46.42-9.59-4.71-8.68-.6.11-.7,1.85-.64,2.53l.91,11.53c.35,4.43.01,14.4-1.44,18.06s-2.25,7.23-.9,11.28c-1.15,7.33-2.65,14.61-3.36,21.99-.5,5.14-.85,9.8-1.73,15.48,2.31.94,4.64-1.37,5.76-3.93ZM347.41,716.27l.75-12.48c.26-4.31.87-8.52,1.36-12.83.45-3.96.62-7.06,2.41-10.92l-1.03-8.05c-1.89-.15-3.24,1.66-3.24,3.15-2.12,2.5-4.08,9.1-.75,12.26-7.9,11.3-2.84,10.47-5.53,18.94-1.75,5.49,3.8,12.26,6.03,9.93ZM337.7,898c-.79-5.05-1.47-9.1-.18-12.95.43-1.31,1.05-3.4.14-4.07-10.4-7.66-12.33-6.44-21.33-17.62-1.56-1.93-4.9-3.51-6.59-5.31-2.83-3.02-6.67-2.43-9.95-4.02-6.56-3.19-12.97-7.25-19-11.36-1.81-1.23-1.45-4.5-5.07-4.63-2.63-.09-4.98-3.1-7.01-4.64l-5.33-4.06-4.06-3.09c-2.85-2.17-5.87-5.86-8.45-7.54-3.07-2-3.72-2.4-5.39-5.08-4.07-6.52-9.25-11.97-11.88-19.62-.81-2.35-3.29-5-4.9-7.11-2.17-2.84-3.46-6.43-5.38-9.48l-3.83-6.07-2.75-4.22c-2.96,2.96-.66,5.04-.16,7.55.92,4.61,4.06,14.71,6.28,17.33l5.29,6.24c2.17,2.56,3.75,6.73,5.89,8.85,1.38,1.36,2.61,2.22,3.66,3.69l3.66,5.1c4.84-.61,4.37,5.47,6.12,7.34,5.47,5.86,11.05,10.63,15.15,17.52,1.75,2.94,5.04,5.42,7.07,7.84,2.96,3.53,5.42,6.35,9.31,8.75,3.6,2.22,6.1,6.47,9.32,9.07l6.73,5.43c3.97,3.2,8.61,5.54,12.31,9.16,2.75,2.69,6.01,4.35,9.1,6.63l7.33,5.39c5.57,4.1,6.22,4.41,13.89,5ZM577.18,880.96l7.26.7c3.01.29,6.49,2.21,9.67,2.35l18.48.81c4.97.22,9.28-.84,13.97-2.49,19.4-6.86,15.55-10.37,27.94-17.86,4.56-2.75,8.8-5.53,12.74-9.29,5.28-5.02,10.63-9.83,15.31-15.39l5.6-6.65c1.34-1.59,2.24-4,3.35-5.8,8.45-13.77,3.18-6.26,9.33-17.85,3.2-6.04,5.94-12.14,8.76-18.41.73-1.63-.84-5.69-2.51-5.17-3.32,2.24-5.75,5.63-8.47,8.56s-5.6,5.82-8.62,8.48l-15.45,13.63c-2.59,2.28-4.71,2.73-6.3,6.45-.87,2.02-4.51,4.35-6.17,6.19l-7.83,8.66c-21.44,23.72-25.65,15.24-47.91,21.87l-16.6,4.95-26.58,9.01c-.56.19-1.75,1.1-1.69,1.66.41,3.89,12.05,5.24,15.71,5.6ZM351.3,870.06c6.49,2.01,0-23.62-2.3-24.48l-3.26,5.63c-1.43,2.48.85,6.74.82,9.66-.03,3.64,1.12,8.06,4.74,9.18ZM659.32,877.3l3.91-5.22c.38-.51.61-2.59.03-2.66s-2.17.01-2.82.46l-12.87,8.91c-1.61,1.12-5.1.76-5.98,2.79-.39.9.46,3.06,1.31,3.27,5.03,1.24,15.08-5.76,16.43-7.56ZM520.97,887.12l12.76.4c4.45.14,23.02,2.5,24.93-5.1-6.44-1.18-12.79-2.97-18.91-2.8l-10.26.28c-7.32.2-14.21.74-21.45,1.15-5.47.31-10.73-1.24-16.45.57l-7.66-2.57c-12.29-4.12-15.26-.4-22.93-.82-5.34-.29-9.81-1.15-15.2,1.46.53,3.69,6.44,5.99,8.83,6.45,5.21.99,9.33,2.29,14.22,3.88,8.25,2.68,18.78,4.1,21.62,5.02,3.85,1.25,9.98,3.23,12.93-1.09,1.44-2.11,2.43-3.94,4.97-5.21,4.76-2.38,7.78-1.78,12.6-1.62ZM455.46,896.83c.02-1.28-1.45-3.64-3.04-4.1l-19.34-5.53-8.31-.31c-1.9-.07-3.95-.35-5.1,1.02-3.22,3.85-7.92,4.36-12.41,2.08-2.5-1.27-5.33-1.88-8.34-1.36-6.34,1.09-5.43-6.13-24.19.06,1.86,1.96,3.45,3.43,5.13,4.88l15.87,1.07c6.69.45,12.92,2.24,19.68,2.41l14.75.37,12.04,1.61c3.36.45,13.18,3.19,13.25-2.19ZM801.11,900.07c2.39-1.33,4.98-3.1,7.91-3.04l5.39-3.15c1.12-3.72,7.81-6.2,6.26-7-3.27-1.68-13.39,5.24-16.91,7.54-1.74,1.13-14.93,6.83-11.69,7.48,2,.4,7.65-1.06,9.04-1.83ZM524.65,905.54c7.87,1.11,15.25-.16,22.86-1.66l10.02-1.98c5.45-1.08,11.82.21,17.01-1.77,1-.38,2.85-2.02,4.03-2.28s2.23-.93,2.4-1.61c.84-3.4-7.83-1.2-12.92-1.05l-7.86.22c-18.04.51-20.22,2.47-39.16,1.39-3.08-.18-5.25-.61-8.91-.06-.57,1.6,12.24,8.75,12.52,8.79ZM465.93,896.23l-8.19-.26c1.12,2.96,2.64,3.9,4.31,3.83,2.13-.09,4.35-1.17,3.88-3.57ZM631.18,923.56c6.55-.6,30.34.13,27.11-5.51-3.94-.65-7.31-1.46-10.42-2.7l-6.77-2.7-11.43-5.03-7.31-3.38c-13.85-6.4-12.74-4.63-23.82-1.8-12.39,3.17-4.67,3.71-24.71,6.52-3.81.53-7.51,1.16-11.53,1.01-3.39-.13-6.72,0-9.72.82,1.13,4.83,4.75,5.12,8.03,6.05l12.61,3.58,7.3,2.53c7.64,2.65,15.91.71,23.84,1.54,5.38.56,10.33.57,15.75.07l11.07-1.01ZM375.32,906.04c.89-1.38.15-3.29-.71-3.81-.82-.49-3.72-.53-3.68.33.06,1.34.47,2.88.94,3.5s2.97.7,3.44-.02ZM503.57,916.58c-1.63-4.22-16.3-5.32-19.05-5.44l-16.24-.66c-.18,2.41-.17,4.59.13,7.05l11,2.11c8.82,3.97,15.94,2.98,24.15-3.06ZM677.96,936.2l4.51-2.96c3.22-2.11,6.51-3.77,8.71-7.72-4.03-1.43-7.42.31-11.21.61-4.12.33-8.11.61-12.24,1.27l-11.77,1.88c-4.02.64-8.16,1.2-12.33,1.5l-10.7.78-7.87.66c-6.67.56-13.1.73-19.7.35l-5.4-.31c-3.12-.18-6.6-.07-9.59-.54-3.34-.53-6.14-1.18-9.56-1.12-2.44.05-4.62-.82-6.9-1.36-7.34-1.75-14.17-3.76-21.08-6.86-10.09-4.54-7.06-.53-15.48-5.99-1.5-.97-8.42-3.54-9.16-.69-1.13,4.35,2.66,7.41,3.33,8.57,2.34,4.08,4.84,7.2,8.67,10.19,1.63,1.28,3.31,4.05,4.9,5.57l8.42,8.08c2.36,2.27,4.55,4.25,6.58,7.07,1.16,1.6,3.52,2.28,5.3,3.34,6.06,3.6,12.1,6.57,18.71,9.39,10.35,4.41,31.78-.44,43.37-3.27,6.17-1.51,15.46-4.58,20.34-8.37,2.78-2.17,5.75-3.65,8.78-5.44l8.2-4.86,13.18-9.78Z"/>
  <path class="cls-1" d="M738.61,702.28l-3.24,15.61c-.22,1.05-7.16,20.85-7.14,20.75-.45,2.34-2.02,5.13-2.77,7.45l-3.33,10.38c-.87,2.7-2.22,6.07-3.65,8.52-6.98,3.48-12.73,7.82-17.82,13.72-3.8,4.41-8.08,7.97-12.31,11.94l-6.96,6.54-7.49,6.78-6.7,6.15-5.13,4.24c-2.69,2.22-4.56,5.52-6.75,8.27l-10.4,13.02c-2.23,2.8-5.81,5.4-8.67,7.59-5.45,4.17-13.02,2.47-21.26,4.56l-7.49,1.9c-2.12.54-4.48,1.65-6.59,2.64-2.97,1.41-11.6,2.99-15.77,3.7-2.02.34-4.61,3.02-6.52,3.67l-7.06,2.4-17.78,6.21c-15.02,5.24-29.16-1.5-40.49-3.63l-7.73-1.45c-1.83-.34-3.55-.56-5.37-.5l-14.82.48c-2.62.08-5.9,1.4-8.59,1.24-6.19-.37-11.61.84-16.77,3.96-3.41,2.06-7.26,2.8-11.08,3.88-7.48,2.11-15.04,1.13-22.74.97l-6.52-.14c-12.57-.26-24.26-.91-36.57-3.65-7.16-.12-12.72,3.48-16.43,2.57-3.13-.76-5.31-8.25-5.98-11.83l-1.46-7.83-2.93-13.47c-.57-2.61-.88-5.28-1.23-8.01-.78-6.11-4.03-20.89,3.42-19.51,1.13.21,2.9,1.66,3.29,2.91l2.95,9.55c.78,2.53,2.16,5.49,1.36,8.32-2.84,9.99,4.34,13.25,4.57,24.82,1.5,1.53,3.32,3.39,5.06,4.65,2.24,1.62,4.96-.47,6.41-1.63,2.09-1.67,2.65-4.83,1.05-7.17-3.51-5.15-2.11-5.58-4.49-15.29l-2.28-9.28c-.74-3.02-.04-6.99-.63-10.12l-1.85-9.76c-.56-2.98-2.11-5.7-1.39-8.9.55-2.45,4.81-4.59,6.29-2.14,4.02,6.66,2.47,7.91,4.6,18.16,1.27,6.12,1.69,12.27,5.06,17.99.88,1.49,5.23.4,5.05-1.18-.35-3-.97-5.72-.99-8.57-.02-3.23-.79-5.45-1.62-8.35-3.46-12.02-3.35-20.62-11.82-28.43-2.87-2.64-6.78-5.18-10.66-2.32-2.74,2.02-3.33,5.88-3.18,9.24-.41,1.35-5,1.93-5.98.66-1.61-.76-6.6-17.16-6.74-18-.81-4.8.66-9.53,1.2-14.31.49-4.32-.41-9.22.34-13.46,1.47-8.25,1.68-15.93,2.17-24.33l.59-10.02,2.15-22.09.89-11.29,1.36-10.71c.35-2.76.43-5.87.9-8.55s1.04-5.09,1.25-7.94.3-6.33.84-9.03l1.45-7.23c1.7-8.49,3.25-13.31,6.55-21.17l3.01-7.18,3.42-7.14c4.8-10.02,6.24-7.56,8.9-12.92,1.11-2.23,2.09-3.92,3.45-5.99,3.72-5.65,6.93-11.75,9.59-18.06.75-1.78,1.23-3.33,2.34-4.89,2.49-3.52,3.49-8.41,6.33-11.66,1.98-2.26,4.95-4.09,6.43-6.92,3.14-5.98,8.2-9.25,13.14-13.53,1.91-1.65,3.39-4.1,5.77-5.65,2.59-1.68,4.4-4.72,6.51-6.93l6.26-6.57,6.33-5.97c1-.94,3.54-1.44,4.44-.77l-.83,8.86c-.11,1.16-.39,3.13.2,3.82,1.07,1.26,7.21,3.87,9.87,1.63,3.78-3.17,1.29-5.84,3.19-12.98.59-2.22,1.72-4.49,2.52-6.9-2.57-16.69,10.04-6.52,27.52-17.28l19.03-11.72c3.69-2.27,6.9-4.52,10.78-6.41l9.65-4.68c2.72-1.32,5.57-1.81,8.64-2.18l17.61-2.12c11.88-1.43,23.35-3.95,33.88-9.56,8.53-4.55,12.09-7.74,18.76-14.81l3.49-3.7c1.74-1.84,3.14-3.93,4.47-6.14l3.49-5.77c1.59-2.62,3.39-5.21,4.79-7.85,2.1-3.97,5.26-5.97,8.61-8.91,2.05-1.8,4.29-4.25,6.37-6.29,6.92-6.77,6.18,2.52,13.65-3.5,1.85-1.49,2.92-2.45,2.56-5.29-.92-7.33,1.95-7.1,5.88-10.47l6.52-5.59,6.3-5.21c3.33-2.75,7.32-4.52,10.91-7.02l11.29-7.89c2.54-1.78,14.83-7.3,18.38-7.78,13.97-1.88,12.15-1.63,25.02-.9,3.58.2,5.61,4.44,8.01,5.97,4.57,2.91,5.38,6.12,6.98,10.81l4.12,12.07c.67,1.96,2.19,4.35,2.73,6.24,1.22,4.34,2.5,7.97,5,11.58l9.59,13.85,11.92,18.75,6.71,13.38c1.21,2.42,2.89,4.43,4.03,6.77l2.87,5.9c1.07,2.2,2.09,6,3.25,7.77,2.14,3.27,3.93,5.11,5.1,8.8.8,2.52,3.79,5.17,4.75,7.7,1.23,3.25,3.15,4.5,5.04,7.31l4.2,6.23c-.93-1.38,9.79,10.13,10.34,10.67,1.18,1.14,1.99,4.71,3.15,6.03,2.29,2.6,4.69,5.37,6.39,8.7l9.37,18.37c1.06,2.07,1.6,4.1,2.26,6.41,3.86,13.43,6.08,14.44,9.04,28.91.67,3.3,1.78,6.68,2.7,10,2.2,7.95,1.36,18.82,1.27,26.8-.05,4.87.09,9.4-.02,14.26l-.49,22.82c-.13,5.84-.6,11.83-.09,17.9l.84,9.91.65,7.28c.29,3.29-.18,7.24.54,10.27,1.82,7.65.95,7.81,2.12,15.23.42,2.64,1.06,5.19,1.27,7.86l.7,8.64c.18,2.17.22,4.29.02,6.4l-.75,7.86c-.45,4.69-.47,9.41-.55,14.08l-.11,6.06-.49,28.86c-1.14,2.16-2.28,4.77-2.87,7.29-1.39,5.9-8.12,15.43-8.08,15.34l-3.32,7.91-6.07,10.74c-2.51,4.44-3.85,8.64-7.34,12.47-7.94,8.7-6.35,9.28-13.18,18.19-5.93,7.74-.57,8.8-20.24,26.84-12.67,11.63-13.02,4.79-28.5,11.32-5.04,2.12-5.61.49-17.6,5.95-6.84,3.11-9.27,3.09-13.92,5.3-1.91.91-3.95,1.98-5.8,2.68-5.43,2.07-10.1,4.64-15.44,6.81l-8.13,3.3c-1.67.68-4.55,2.24-6.15,2.32l-11.57.59c-5.89.3-11.44-.38-17.35-.11l-14.61.66-10.8,1.43c-11.98,1.59-13.45.14-24.57-2.74-3.13-.81-5.42-2.26-8.01-4.48l-6.89-1.61-3.42-6.51c4.91.27,9.69,1.11,13.74.15l7.22-1.71c7.84-1.85,15.13-6.53,20.28-12.84l4.85-5.95c1.65-2.02,3.1-3.47,4.16-5.92,1.66-3.85,4.56-7.2,6.83-10.6l5.23-7.86c1.5-2.26,2.45-5.64,3.99-8.21l6.09-10.15,3.52-7.15c3.85-7.83,11.54-20.52,14.01-26.66,1.99-4.94,3.04-9.34,6.05-14.01,1.5-2.32,2.47-6.2,3.77-8.88l2.41-4.95c.71-1.45,1.3-4.69,1.5-6.6.25-2.4-1.78-5.98-.91-8.47l6.55-18.61c.93-2.64,1.93-4.78,2.44-7.66.37-2.12.79-5.03,1.41-7,1.56-4.98,4.9-9.23,5.35-14.54.74-8.75,5.23-16.12,7.58-24.33l2.51-8.8,2.3-6.42c1.06-2.96,1.92-6.1,2.79-9.23.63-2.26,1.57-4.24,2.32-6.32,2.95-8.12,3.7-16.92,6.04-25.35,3.23-11.66,4.36-22.7,8.84-34.69.48-7.5,1.13-9.12,1.91-16.2.39-3.51,2.62-7.85,2.41-11.17l-.6-9.52-.71-11.47c-.15-2.47-1.13-13.83-5.18-11.61-2.4,1.32.13,5.48.2,7.4l.52,14.17.7,8.68c.25,3.11-.73,5.37-1.89,8.32-1.05,2.67-.18,6.95-.86,9.92-3.15,13.73,1.97,5.27-5.11,16.99-3.09,5.11.61,10.42-4.31,16.24-2.85,3.37-1.08,8.18-2.29,11.58l-3.9,10.99c-3.17,8.94-1.74,10.13-7.17,22.7-6.45,14.93,2.08,8.78-6.22,18.16-2.36,2.66-2.82,7.32-4.06,10.63l-5.06,13.46Z"/>
  <path class="cls-1" d="M242.1,563.97l-.51-11.33c-.18-3.99-.36-7.44.29-11.49.82-5.14-1.59-7.94-2.27-13.4-.53-4.22-.19-8.59-2.47-12.86-3.66,2.41-3.04,6.31-2.78,9.67l1.05,13.71.67,9.38c.12,1.74.85,4.84.72,6.38-.54,6.5-.93,12.19.94,18.57.67,2.28.41,4.32-.52,6.6-1.16,2.84.76,6.29.88,9.21.14,3.38.16,6.55,1.03,9.65l2.44,8.68,5.04,14.86c1.34,3.95,5.87,11.55,6.08,18.76.25,8.76,2.27.94,3.4,14.23.29,3.45.95,6.46,1.77,9.72l2.57,10.3c1.13,4.55,2.14,9.43,2.97,14.15l4.16,23.71,2.1,21.85,2.03,10.78c1.76,9.36,2.22,7.57,3.24,13.7,2.5,14.9,4.65,9.93,5.74,19.34l1.22,10.55c.52,4.5.45,9.02,1.99,13.04l.32,4.92c.23,3.43,2.46,7.49,4.37,10.48,7.8,12.2.36,5.91,9.84,17.18,1.37,1.63,2.62,2.73,4.77,4.61-3.02,2.46-6.98,1.35-9.4-1.47-1.54-1.8-4.24-2.65-6.22-3.84-3.74-2.25-7.21-4.72-11.12-6.7-5.22-2.65-9.17-6.61-13.65-10.31-3.62-2.99-6.83-6.68-10.2-9.84-3.02-2.83-4.67-5.12-6.58-8.7l-3.88-7.3-3.53-6.41c-1.77-3.23-3.58-6.23-5.8-9.31-1.19-1.64-1.56-5.6-3.35-7.36-3.42-3.37-4.27-6.86-5.36-11.2l-2.9-11.48c-.94-3.71-1.94-7.18-2.56-10.88l-1.35-8.05c-.35-2.11-.88-4.27-1.12-6.5l-1.85-17.17c-.19-1.81.38-3.8-.16-5.6-1.81-6.1-1.24-12.24-1.54-18.65s-1.1-12.34-1.74-18.5l-1.55-14.89-2.92-14.8c-2.06-10.45-7.94-26.02-9.6-34.03-1.31-6.33-.45-12.82-5.1-18.3,1.66-7.52-1.81-13.61-3.44-20.52l-1.66-7.04c-1.47-6.24-2.36-2.01-3.49-11.99-.76-6.71-2.38-13.49-4.4-19.68-.51-1.57.07-5.22-.95-6.48-3.5-4.31-3.69-10.15-5.49-15.47-1.07-3.16-7.42-16.88-8.94-18.75l-8.52-10.53-8.94-11.16c-.4-.5-1.88-1.67-2.11-2.36l-3.97-11.76c-.92-2.73-1.36-4.82-2.35-7.2l-5.71-13.77c-.73-1.76-2.03-4.44-2.33-6.06-.51-10.69-5.03-16.8-6.24-22.88l-1.46-7.33c-.53-2.67-1.59-4.84-2.72-7.38-1.39-3.13.13-7.86-.68-11.5-.43-1.94-1.73-4.21-2.32-6.17-.75-2.51,0-6.09-.56-8.67-.93-4.24-1.92-8.14-2.18-12.38l-.69-11.47c-.77-12.7,1.12-5.94,1.2-18.98.85-2.71,2.65-6.12,3.77-8.9l5.81-14.41c.36-.9,2.1-2.29,3-2.61,1.03-.36,3.2.53,4.35,1.16l10.06,5.56c4.54,2.51,8.72,5.02,12.92,7.75,3.81,2.48,7.84,4.3,11.33,7.36,1.58,1.39,3.85,2.73,5,4.33,1.52,2.13,3.47,3.23,5.15,4.76,9.08,8.23,19.55,11.92,31.94,11.25l14.93,4.35,12.88,5.33c3.05,3.89,8.61,1.34,11.11,4.44,5.28,6.53,3.55,1.08,12.91,10.16,2.04,1.98,4.19,4.18,5.89,6.23l6.82,8.23,6.58,7.6c2.76,3.19,5.58,5.59,8.57,8.74l7.62,8.02c11.76,12.37,2.91,2.95,10.88,13.29l8.43,10.94c4.16,5.4,8.34,11.7,11.33,17.94,1.11,2.31,3.45,3.76,4.67,5.94l5.14,9.14,7.17,9.25c3.88,5,6.47,9.58,9.51,15.11l4.45,8.11c1.69,3.08,3.63,5.97,5.05,9.2l4.76,10.78c1.33,3,1.87,6.52,3.52,9.54,1.24,2.26,1.53,5.49,2.47,7.53,4.17,9.03,7.06,19.7,8.53,29.4.52,3.4.3,5.26-1.44,8.17l-5.63,9.43c-1.56,2.62-2.9,5.15-4.23,7.92-2.21,4.61-5.16,9.09-6.16,14.16l-1.08,5.46-2.82,6.95-2.72,16.21c-.54,3.23.19,7.2.1,10.62s-1.72,5.75-2.97,8.49l-4.29,9.38-3.58,8c-1.56,3.49-3.24,6.52-3.95,10.4l-1.32,7.17c-1.34,7.27-4.17,12.09-4.88,21.5l-.76,10.03c-.41,5.46-1.83,10.68-.93,16.35l2.35,14.81,2.1,15.65,1.14,11c.58,5.61.92,11.05.25,16.59l-1.53,12.7-.67,22.33-.59,21.1c-.18,6.4-.55,12.15.02,18.65.27,3.09-.58,7.12-.74,10.13-4.38,1.8-6.77-.95-9.58-3.51l-8.17-7.46c-4.62-4.22-9.9-12.35-12.27-14.11-2.78-2.06-5.2-5.95-5.73-8.86-.14-.76-1.74-2.13-2.02-2.76-1.55-3.49-3.77-8.66-4.68-12.57l-3.28-14.06c-1.9-8.14-.23-8.14-2.71-19.09-.38-1.67-.43-3.87-1.11-5.6-1.76-4.49-3.1-9.98-3.16-14.96-.04-3.17-3.03-5.98-3.7-8.81-3.66-15.43-2.98-27.31-5.46-41.07l-2.44-13.51c-.35-1.94-1.29-4.5-1.92-6.56-.86-2.84-1.16-5.58-1.8-8.51l-1.88-8.5-3.39-15.31-3.27-9.54c-3.13-9.13,1.83-.63-5.2-17.43-3.18-7.6-5.13-15.11-7.1-23.15-.46-1.88-2.63-4.29-2.37-6.72.52-4.93-.62-9.27-2.69-13.62,1.01-5.71.35-11.25.09-17.07Z"/>
  <path class="cls-1" d="M353.93,309.94c-1.37-1.58-4.67-1.87-6.89-2.61-1.44-.48-3.82-3.15-5.41-3.42l-10.5-1.77c-7.51-1.27-14.65-2.75-22.02-4.98l-6.68-2.02c-4.15-1.25-8.81-1.42-13.2-1.92-3.31-.37-6.26-.02-9.6.1l-12.02.43c-4.92.18-14.4,6.45-15.37,11.15l-5,2.49-5.6,7.3c-1.16,1.52-1.99,4.15-4.77,3.72-2.53-.39-5.03-1.41-7.7-2.08l-7.49-1.87-10.22-3.72c-2.39-.87-5.64-3.66-7.8-5.15-3.69-12.46-2.51-1.39-7.9-17.28-.49-1.44-.19-4.45-.43-6.16-.7-4.88-.44-9.4-.11-14.27,1.14-17.08,10.16-23.79,23.88-32.9l8.55-5.67c4.11-2.73,8.02-5.33,12.68-7.26s17.29-9.27,21.85-12.42l13.89-9.59,10.17-6.21c2.3-1.4,5.31-2.66,7.35-4.24,2.52-1.96,4.75-3.72,7.55-5.27l10.2-5.65,11.3-5.75,10.35-5.28c5.13-2.62,9.97-5.39,15.25-7.66l8.05-3.45c10-4.29,28.24-6.81,38.88-6.94,2.46-.03,4.98.62,7.38,0,5.08-1.33,9.77-.68,14.87-.3s10.66-.65,15.42,1.87c3.63,1.93,7.56,3.16,11.6,3.5l6.22,4.43c2.18,1.55,4.28,2.61,6.73,3.96,10.57,5.82,12.6,9.75,20.67,15.56,1.7,1.22,3.04,2.26,4.18,3.93,3.52,2.52,6.6,5.58,9.46,9.01l4.94,5.91c5.01,6.01,4.16,1.59,9.68,9.45,3.78,5.38,4.54,8.71,7.79,14.38,2.82,4.92,6.16,9.26,6.64,15.3,4.64.49,3.68,4.78,5.16,7.17,3.46,5.57,10.72,18.26,9.48,25.02l3.1,6.78,4.62,8.14c.8,1.41.46,5.36-.32,6.81-1.18,2.18-4.83,2.92-7.27,3.38l-11.87,2.24c-12.91,2.44-24.39-3.48-40.33,4.73-4.13,2.13-8.01,4.18-11.94,6.66-9.44,5.96-16.23,7.48-22.67,15.83l-4.37,5.67c-2.05,2.66-5.15,5-6.99,7.77-3.04,4.59-5.45,8.85-7.97,13.67-1.14,2.18-4.11,3.3-6.31,3.1s-4.37-2.52-6.2-3.25c-3.77-1.49-5.63-2.59-7.9-5.61l-8.24-10.96c-1.48-1.97-4.92-3.43-6.84-5.09-6.12-5.27-12.88-8.18-20.68-10.06-12.52-3.02-7.06-4.65-13.41-5.09-2.52-.17-3.95-1.35-5.84-3.54Z"/>
  <path class="cls-1" d="M432.11,494.43c-3.07,4.95-8.76,7.55-12.47,11.83-5.93,6.84-11.68,13.9-18.17,20.25-1.39,1.36-5.69,3.66-6.52.65l-3.28-11.87-1.67-5.38c-1.81-5.84-4.07-11.53-6.19-17.14-5.41-6.49-2.23-4.98-7.62-13.2l-20.57-31.41c-1.93-2.95-3.7-5.92-5.36-8.99l-3.03-5.61c-4.66-8.62-2.91-8.86-11.22-22.33-2.87-4.66-6.69-8.84-10.07-13.39-2.3-3.08-5.6-5.57-7.94-8.37-7.1-8.52-5.28-3.56-13.94-14.53-6.03-7.64-9.34-16.56-17.63-22.54l-7.45-5.37-3.94-2.73c-1.84-1.27-3.36-3.93-2.49-6.29l2.49-6.76c1.17-3.19,2.72-4.53,5.1-6.73,5.06-4.68,10.41-9.37,17.91-9.01,4.3-5.65,49.27,3.71,51.31,4.74l14,7.03c2.4,1.21,5.02.56,7.11,2.46l13.15,11.98c7.44,6.78,6.54,2.08,12.04,7.83,3.72,1.42,6.09,4.15,8.7,7.03l8.46,9.34,3.42,3.75c8.28,9.08,4.09,10.03,13.81,19.76,1.51,1.52,2.25,4.99,3.42,6.55,3.65,4.87,6,9.42,8.02,15.16.74,2.12,3.13,4.66,4.09,6.86,5.84,13.34,2.39,11.31,7.81,23.07.88,1.91,1.24,4.79,1.94,6.82l2.96,8.57c2.9,8.41,2.25,11.56-3.7,16.08-9.07,6.9-8.9,7.7-15.59,15.31-2,2.27-5.18,3.8-6.9,6.58Z"/>
  <path class="cls-1" d="M530.81,405.17l-1.75-3.52-8.69-3.13c-13.3-12.42-32.53,3.96-38.52-10.34l-4.89-3.53c-4.66-3.36-11.54-1.07-15.19,2.29-.93.86-.98,3.83-.33,4.78,3.93,5.7,11.68.06,13.71,3.41.61,1,.82,3.59.12,4.63-2.26,3.33-5.71,3.89-8.95,5.67-1.84,1.01-4.41,4.31-6.66,1.27-2.06-2.78-2.74-7.7-4.94-10.36-2.03-2.47-3.42-4.28-4.51-7.35-.95-2.68-4.8-4.82-5.87-7.27-5.39-12.41-10.14-11.78-10.69-16.56-.18-1.6.99-3.82,2.08-5.41,1.29-1.88,2.93-1.9,4.95-1.83,6.12.22,9.37-5.2,10.76-10.52.59-2.25,2.78-6.03,4.5-7.42,1.99-1.63,3.62-2.78,5.35-4.83s5.11-3.13,7.28-4.85c5.19-4.12,10.68-6.79,17.09-8.77l6.59-2.04c3.11-.96,6.25-2.64,9.32-3.95l9.6-4.11c5.91-2.53,11.66-5.49,18.4-5.74,6.58-.24,13.86-.15,20.37.09,7.42,7.41,6.16-.61,13.05,2.69,2.28,1.09,4.54,1.42,7.15,1.38,10.2-.15,10.64,1.49,24.2.43,3.93-.31,11.27-.38,14.09,1.88l11.55,9.27c2.89,2.32,2.42,5.84,3.75,8.69l5.68,12.17,11.84,18.07c1.89,9.55-9,21.31-16.89,26.72-1.16.8-3.24,2.09-4.12,2.92-4.19,3.96-8.41,6.68-12.87,10.08l-8.51,6.48-6.55,4.85-6.75,4.71c-8.37,5.84-2.08,2.45-10.65,8.72l-8.91,6.52-9.07,5.97c-1.27.84-4.5-1.5-4.12-2.97,1.13-4.41-1.2-7.06-2.27-10.52-1.92-6.2-4.62-10.79-10.54-13.88l-9.18-4.8Z"/>
  <path class="cls-1" d="M899.85,544.78c-.11,1.36-4.54,2.03-5.21.86l-5.99-16.24c-3.71-10.07-2.73-15.99-4.5-25.53-1.47-7.93-3.07-15.47-5.06-23.34-1.19-4.69-3.38-8.85-5.07-13.43-.97-2.61-2.86-4.9-3.98-7.2-2.46-5.04-4.04-9.59-8.06-13.74-1.7-1.75-2.61-4.93-3.77-6.86l-5.89-9.82c-1.63-2.72-3.12-5.26-5.02-7.86-.74-1.01-1.2-3.49-1.78-4.68-1.47-3.04-3.02-6.07-4.72-8.87-1.13-1.86-3.26-2.61-3.06-5.6.11-1.66-1.66-2.89-2.36-4.67l-2.17-5.49c-1.61-4.07-4.75-6.86-6.53-10.81l-4.29-9.48-5.77-14.13-8.34-15.66c-1.8-3.37-2.92-6.7-5.73-9.23-1.48-5.28-4.65-9.3-7.45-13.9-1.69-2.77-3.48-5.27-5.52-8.04-6.27-8.48-5.35-9.16-15.17-14.89-7.31-4.27-14.8-8.45-23.55-9.35-1.22-.13-3.23-1.21-3.23-2.2,0-4.62,3.73-4.31,7.57-12.96,1.82-4.11,3.11-8.42,4.5-12.6,4.38-13.17-2.09-19.04-3.8-28.27-.58-3.14-1.53-5.25-1.96-8.31l-.89-6.31-3.8-10.65c-1.11-3.1-3.04-5.67-2.59-9.72,6.3-.54,20.72,7.71,26.36,10.98l7.34,4.26c8.05,4.67,16.41,9.44,22.25,17.06,1.09,1.42,1.72,2.69,3.36,3.65,5.53,3.26,9.13,8.5,13.68,12.88,2.84,2.73,5.19,5.61,7.22,9.2,7.26,5.59,1.01,6.88,7.95,11.18l5.75,11.62,4.3,8.56c1.32,2.63,2.59,5.11,3.65,7.79l5.62,14.14c2.79,3.02,3.48,7.07,3.9,11.41.76,1.6,2.96,4.29,3.48,5.95l2.58,8.26c1.3,4.16,3.15,7.76,4.84,11.74l3.65,8.57c.94,2.2,3.69,3.96,4.17,6.38,1.89,9.42,4.91,13.05,8.27,23.07l2.52,7.52,4.68,13.85c.89,2.63,1.69,5.56,2.4,8.34,2.85,11.06,1.65,10.98,3.5,19.96,2.15,10.45,1.25,13.46,3.44,24.52,1.26,6.4,2.78,9.78,1.96,18.06l-1.85,18.66c-.7,7.01-2.67,8.4-3.46,21.35-1.21,19.83,2.57,18.45,1.64,30.02Z"/>
  <path class="cls-1" d="M677.96,936.2l-13.18,9.78-8.2,4.86c-3.02,1.79-5.99,3.27-8.78,5.44-4.87,3.8-14.17,6.87-20.34,8.37-11.59,2.83-33.02,7.68-43.37,3.27-6.61-2.82-12.65-5.78-18.71-9.39-1.77-1.05-4.14-1.73-5.3-3.34-2.03-2.82-4.22-4.8-6.58-7.07l-8.42-8.08c-1.59-1.52-3.26-4.3-4.9-5.57-3.82-2.99-6.32-6.11-8.67-10.19-.67-1.16-4.45-4.22-3.33-8.57.74-2.86,7.66-.28,9.16.69,8.41,5.46,5.39,1.46,15.48,5.99,6.9,3.1,13.73,5.11,21.08,6.86,2.28.54,4.46,1.41,6.9,1.36,3.42-.07,6.22.59,9.56,1.12,2.99.47,6.47.37,9.59.54l5.4.31c6.59.37,13.02.21,19.7-.35l7.87-.66,10.7-.78c4.18-.3,8.31-.86,12.33-1.5l11.77-1.88c4.12-.66,8.12-.94,12.24-1.27,3.8-.3,7.18-2.04,11.21-.61-2.19,3.95-5.49,5.61-8.71,7.72l-4.51,2.96Z"/>
  <path class="cls-1" d="M728.54,318.05c-9.24,6.49-7.75,1.66-10.88,5.13-2.46,2.73-5.3,4.37-7.91,6.57l-10.03,8.45c-6.86,5.78-14.89,9.23-23.07,12.76-3.78,1.64-7.22,2.8-11.48,3.73-2.06.45-5.94,2.65-7.58-.63-.97-1.94,1.88-5.68,2.92-7.74,2.88-5.71,5.6-10.82,8.77-16.23,1.22-2.08,2.09-5.42,3.65-7.16l7.53-8.41c2.24-2.5,6.24-6.13,9.19-7.44l7.58-3.37c9.9-4.4,4.43-4.82,16.51-8.78.98-.32,3.28,1.02,3.42,1.96.45,3.1-9.97,8.56-5.31,17.66,3.41.74,9.01.53,11.95-1.55,8.59-6.08,12.58-12.72,18.09-21.27,1.04-1.62,3.86.69,5.1,1.13l18.95,6.63c13.28,4.65,21.64,20.2,27.43,31.51,1.43,2.8,4.35,5.27,6.02,8.27l4.47,8.04c1.67,3,2.26,6.01,4.25,8.85,1.38,1.97,6.39,8.92,3.99,10.73-.69.52-2.39-.28-2.97-1.1-3.11-4.34-7.9-9.28-11.87-12.47-4.74-3.81-7.51-9.23-11.13-13.99-4.99-6.57-7.95-8.78-14.44-13.92-4.35-3.45-12.93-5.98-18.47-7.32-9.69-2.35-10.21-5.2-16.69-2.86-2.37.85-5.85,1.34-8,2.85Z"/>
  <path class="cls-1" d="M577.18,880.96c-3.66-.35-15.3-1.71-15.71-5.6-.06-.56,1.12-1.47,1.69-1.66l26.58-9.01,16.6-4.95c22.25-6.63,26.46,1.85,47.91-21.87l7.83-8.66c1.67-1.84,5.31-4.17,6.17-6.19,1.6-3.72,3.72-4.17,6.3-6.45l15.45-13.63c3.02-2.66,5.87-5.52,8.62-8.48s5.15-6.31,8.47-8.56c1.67-.52,3.24,3.54,2.51,5.17-2.82,6.27-5.56,12.37-8.76,18.41-6.15,11.59-.88,4.08-9.33,17.85-1.1,1.8-2.01,4.21-3.35,5.8l-5.6,6.65c-4.68,5.56-10.04,10.37-15.31,15.39-3.94,3.75-8.18,6.53-12.74,9.29-12.39,7.49-8.54,11-27.94,17.86-4.69,1.66-9,2.71-13.97,2.49l-18.48-.81c-3.18-.14-6.66-2.06-9.67-2.35l-7.26-.7Z"/>
  <path class="cls-1" d="M882.84,349.7c-3.1-7.07-5.62-14.16-9.14-20.77-1.6-3-3.7-4.18-3.51-8.44.15-3.26-3.16-7.01-4.08-10.22l-2.2-7.62c-.67-2.31-1.04-4.74-2.02-6.81l-5.79-12.17c-1.38-2.9-2.62-6.56-4.42-9.02l-5.16-7.09c-2.77-3.81-6.01-7.29-6.23-12.35-3.12-1.93-4.92-4.67-6.11-8.2-6.57-4.83-4.6-6.72-9.17-9.22-2.5-1.37-3.36-3.72-5.09-5.69-3.02-3.44-6.46-6.91-9.96-9.83-2.4-2-5.21-3.39-6.87-6.14-1.9-3.15-4.87-4.49-8.76-4.72l-4.16-4.99c-6.31-2.9-12.21-5.59-18.12-9.14l-6.16-3.7c-1.4-.84-4.44-.1-8.05-4.69-.8-1.01,2.81-5.11,4.76-5.37.96-.13,2.85.75,3.99,1.27,4.33,1.99,9.55-.03,14.05,1.15,6.49,1.7,12.38,4.65,19.3,4.67,4.55.01,8.66,1.23,12.51,3.47,3.23-3.14,6.22-1.17,9.46.18s6.16,2.02,7,6.31c.53,2.73,2.56,4.77,4.1,7.08,3.23,4.86,6.37,9.93,9.01,15.13,6.69,13.19,7.4,18.06,11.89,32.03l2.59,8.09,3.14,9.01c-2.76-7.93,14.93,34.54,11.15,26.59l4.74,10,3.9,8.87,3.49,14.49,2.21,7.47,1.91,8.52c.2.9-.24,3.05-1.04,3.39s-2.77-.7-3.15-1.55Z"/>
  <path class="cls-1" d="M534.87,447.06c-4.36,5.79-24.68,9-31.07,8.74-7.27-.29-14.73-.57-21.7.27-2.72.33-4.37,3.33-7.5,1.19-2.51-1.72-2.89-2.99-3.44-6.5-.94-6.06-1.82-12.96-4.01-18.49-2.06-5.21-3.58-9.8.65-14.32,2.69-2.88,9.87-11.15,14.49-11.01,3.1.09,4.93-.76,7.76-1.63,3.84-1.18,8.82-.29,12.98-.59,5.57-.4,10.19.96,14.63,4.08,9.02,6.33,9,5.48,17.33,14.72l1.42,5.01c.45,1.58-.48,5.3-1.25,6.76-2.57,3.51-2.48,7.8-.28,11.76Z"/>
  <path class="cls-1" d="M858.36,492.22c-3.97-7.62-6.75-11.59-13.32-17.03-1.91-1.58-3.1-5.21-4.9-6.97-2.21-2.18-4.14-4.09-5.73-6.62-2.27-3.61-4.94-7.03-6.97-10.74l-7.3-13.35c-1.55-2.84-3.05-6.07-4.39-9.16l-3.01-6.93c-2.59-5.96-5.34-11.43-9.11-16.7l-4.79-6.71-5.6-8.5c-2.54-3.85-4.43-6.96-8.23-9.85-2.06-5.76-5.63-14.18-7.34-19.74-.68-2.2-1.84-4.24-2.73-6.36-1.34-3.18-1.09-7.46-3.2-10.45-1.24-1.75-2.22-3.28-2.54-5.67,7.31,3.36,10.87,9.89,15.53,15.64,2.32,2.86,5.96,5.02,8.52,7.83l9.15,10.07c1.95,2.14,3.92,3.67,5.67,5.87,3.72,4.7,6.08,9.79,8.45,15.27l2.34,5.43c6.24,14.5,1.78,3.78,6.14,17.93,1.32,4.28,3.86,7.83,5.99,11.79l10.25,19.01,4.52,9.07,3.68,6.88,9.25,18.06c.56,1.1,3.68,9.12,3.12,10.86-.3.94-2.98,1.95-3.44,1.06Z"/>
  <path class="cls-1" d="M337.7,898c-7.67-.59-8.32-.9-13.89-5l-7.33-5.39c-3.1-2.28-6.35-3.94-9.1-6.63-3.7-3.61-8.34-5.95-12.31-9.16l-6.73-5.43c-3.22-2.6-5.72-6.84-9.32-9.07-3.88-2.4-6.34-5.22-9.31-8.75-2.03-2.42-5.32-4.9-7.07-7.84-4.1-6.89-9.68-11.66-15.15-17.52-1.74-1.87-1.28-7.95-6.12-7.34l-3.66-5.1c-1.05-1.47-2.28-2.32-3.66-3.69-2.14-2.11-3.72-6.29-5.89-8.85l-5.29-6.24c-2.22-2.62-5.36-12.71-6.28-17.33-.5-2.5-2.8-4.58.16-7.55l2.75,4.22,3.83,6.07c1.92,3.05,3.21,6.64,5.38,9.48,1.61,2.11,4.09,4.75,4.9,7.11,2.63,7.65,7.82,13.1,11.88,19.62,1.67,2.68,2.32,3.08,5.39,5.08,2.58,1.68,5.59,5.37,8.45,7.54l4.06,3.09,5.33,4.06c2.02,1.54,4.38,4.55,7.01,4.64,3.62.13,3.26,3.4,5.07,4.63,6.03,4.11,12.44,8.17,19,11.36,3.28,1.59,7.12,1,9.95,4.02,1.69,1.8,5.03,3.38,6.59,5.31,9,11.18,10.94,9.96,21.33,17.62.91.67.3,2.76-.14,4.07-1.28,3.85-.6,7.9.18,12.95Z"/>
  <path class="cls-1" d="M631.18,923.56l-11.07,1.01c-5.42.5-10.37.49-15.75-.07-7.93-.83-16.19,1.11-23.84-1.54l-7.3-2.53-12.61-3.58c-3.29-.93-6.9-1.22-8.03-6.05,3.01-.82,6.33-.95,9.72-.82,4.02.16,7.72-.47,11.53-1.01,20.03-2.81,12.32-3.34,24.71-6.52,11.07-2.84,9.97-4.6,23.82,1.8l7.31,3.38,11.43,5.03,6.77,2.7c3.11,1.24,6.48,2.05,10.42,2.7,3.23,5.64-20.56,4.91-27.11,5.51Z"/>
  <path class="cls-1" d="M900.58,742.67c.15,4.2-2.4,7.74-6.44,7.38-.75-1.04-.57-3.37-.34-5.03.66-4.64-.48-9.99.7-14.41,2.65-9.88,1.05-23.11.49-32.02l-.63-10.09c-.23-3.65-1.45-6.77-2.08-10.32-1.71-9.61-1.9-18.71-1.81-28.45.04-4.09-1.16-8.54-.84-12.97.27-3.7-.23-6.95-1.08-11.43,9.6,1.3,5.4,12.7,10.4,20.66,6.5,1.26,9.59,5.82,9.63,12.22l.09,14.26c.03,5.13-.7,9.51-2.08,14.5-.56,2.01-.16,5.25-.54,7.38-1.61,8.93-.78,10.2-2.15,18.55l-1.43,8.7c-1.15,6.97-2.15,13.59-1.88,21.08Z"/>
  <path class="cls-1" d="M520.97,887.12c-4.82-.15-7.84-.76-12.6,1.62-2.54,1.27-3.53,3.11-4.97,5.21-2.95,4.32-9.08,2.34-12.93,1.09-2.84-.92-13.37-2.34-21.62-5.02-4.89-1.59-9.01-2.89-14.22-3.88-2.39-.45-8.29-2.75-8.83-6.45,5.39-2.61,9.85-1.75,15.2-1.46,7.67.42,10.64-3.3,22.93.82l7.66,2.57c5.72-1.82,10.98-.27,16.45-.57,7.24-.41,14.13-.95,21.45-1.15l10.26-.28c6.13-.17,12.47,1.61,18.91,2.8-1.91,7.6-20.48,5.24-24.93,5.1l-12.76-.4Z"/>
  <path class="cls-1" d="M916.15,731.78c-1.12,2.56-3.45,4.87-5.76,3.93.88-5.67,1.23-10.34,1.73-15.48.72-7.38,2.21-14.67,3.36-21.99-1.35-4.05-.61-7.47.9-11.28s1.8-13.63,1.44-18.06l-.91-11.53c-.05-.68.05-2.43.64-2.53,5.13-.91,1.11,1.22,4.71,8.68,1.42,2.93.99,7,1.5,10.24,1.52,9.78,1.94,18.18,1.51,27.91-.33,7.42-1.93,13.65-4.86,20.36l-4.27,9.76Z"/>
  <path class="cls-1" d="M265.85,330.47c-.28,1.25-2.43,2.61-3.57,2.58-1.71-.04-3.41-1.04-4.43-2.59-4.38-6.67-7.37-4.64-8.14-8.21-.17-.8.78-2.26,1.49-2.93,6.7-6.3,10.31-13.86,21.45-15.28,1.92-.25,29.92-4.78,25.74.45-.35.44-1.29,1.48-1.84,1.61l-6.22,1.49c-5.06,1.21-8.5,4.01-12.48,6.85s-5.76,6.34-8.22,10.6c-.95,1.65-3.22,2.9-3.79,5.44Z"/>
  <path class="cls-1" d="M455.46,896.83c-.06,5.38-9.89,2.64-13.25,2.19l-12.04-1.61-14.75-.37c-6.77-.17-12.99-1.96-19.68-2.41l-15.87-1.07c-1.68-1.45-3.27-2.91-5.13-4.88,18.76-6.19,17.85,1.03,24.19-.06,3.01-.52,5.83.09,8.34,1.36,4.48,2.28,9.18,1.77,12.41-2.08,1.14-1.37,3.2-1.09,5.1-1.02l8.31.31,19.34,5.53c1.59.46,3.06,2.82,3.04,4.1Z"/>
  <path class="cls-1" d="M524.65,905.54c-.28-.04-13.09-7.19-12.52-8.79,3.66-.55,5.83-.12,8.91.06,18.94,1.08,21.12-.88,39.16-1.39l7.86-.22c5.08-.14,13.76-2.35,12.92,1.05-.17.68-1.18,1.35-2.4,1.61s-3.03,1.9-4.03,2.28c-5.19,1.97-11.56.69-17.01,1.77l-10.02,1.98c-7.61,1.5-14.99,2.76-22.86,1.66Z"/>
  <path class="cls-1" d="M227.93,219.76c-.83.43-2.53.16-4.07-.28l3.64-4.49c3.02-3.72,6.36-5.77,10.94-7.07,4.9-1.38,8.29-5.12,12.52-7.31l7.53-3.9,13.33-8.95c2.11-1.41,4.52-3.29,7.07-3.39,7.27-.27,6.15-7.73,9.61-4.64.49.44-.25,2.41-.88,2.81l-7.67,4.84c-8.82,5.57-8.61,7.59-16.69,12.44-4.39,2.63-8.19,5.03-12.27,7.92-7.1,5.02-13.86,7.19-23.07,12.01Z"/>
  <path class="cls-1" d="M503.57,916.58c-8.21,6.05-15.34,7.03-24.15,3.06l-11-2.11c-.31-2.46-.31-4.64-.13-7.05l16.24.66c2.75.11,17.42,1.22,19.05,5.44Z"/>
  <path class="cls-1" d="M882.18,294.04c-.51,1.03-3.14-.7-3.58-1.91l-4.27-11.85-3.08-7.75c-.96-2.43-2.91-4.27-2.24-7.63-.74-1.63-3.22-4.3-3.6-5.94l-1.77-7.61c-.15-.64.02-2.06.18-2.6.2-.67,2.59.41,2.98,1.2,2.55,5.29,6.09,12.29,8.37,18.08,4.14,10.51,1.77-2.07,7,16.16.93,3.25,1.88,6.05.01,9.83Z"/>
  <path class="cls-1" d="M347.41,716.27c-2.23,2.32-7.78-4.45-6.03-9.93,2.7-8.47-2.37-7.64,5.53-18.94-3.34-3.16-1.37-9.76.75-12.26,0-1.49,1.35-3.3,3.24-3.15l1.03,8.05c-1.8,3.86-1.96,6.96-2.41,10.92-.49,4.31-1.1,8.53-1.36,12.83l-.75,12.48Z"/>
  <path class="cls-1" d="M490.96,472.09c-3.16,2.77-10,3.16-15,3.46-2.12-4.28.36-9.02,4.87-10.36,4.8-1.43,9.87-1.56,15.08-1.05.32,4-2.44,5.75-4.95,7.96Z"/>
  <path class="cls-1" d="M351.3,870.06c-3.62-1.12-4.77-5.55-4.74-9.18.03-2.92-2.26-7.19-.82-9.66l3.26-5.63c2.3.86,8.79,26.49,2.3,24.48Z"/>
  <path class="cls-1" d="M590.69,428.6c-1.52-.15-4.01-.86-6.19-1.69l11.61-8.87,8.09-7.72,3.36-1.58c1.26-1.46,3.1-3.07,5.16-2.12-4.22,11.26-6.53,7.37-14.64,14.77-2.5,2.29-4.41,4.14-7.4,7.2Z"/>
  <path class="cls-1" d="M659.32,877.3c-1.35,1.8-11.4,8.8-16.43,7.56-.85-.21-1.7-2.37-1.31-3.27.88-2.03,4.37-1.68,5.98-2.79l12.87-8.91c.65-.45,2.24-.53,2.82-.46s.36,2.15-.03,2.66l-3.91,5.22Z"/>
  <path class="cls-1" d="M801.11,900.07c-1.39.77-7.05,2.23-9.04,1.83-3.24-.65,9.96-6.34,11.69-7.48,3.52-2.3,13.64-9.22,16.91-7.54,1.55.8-5.14,3.28-6.26,7l-5.39,3.15c-2.93-.07-5.52,1.71-7.91,3.04Z"/>
  <path class="cls-1" d="M412.96,528.55c.28,6.86-2.58,9.26-7.65,13.47-1.18-.06-3.2-2.64-2.82-3.73,1.05-2.98,7.8-12.06,10.47-9.74Z"/>
  <path class="cls-1" d="M118.32,414.27c-.91-1.36-3.27-4.1-3.58-5.61l-1.77-8.69c-.49-2.41-.61-5.14-1.97-6.67-.3-.34-.5-1.82-.21-2.12s.93-.79,1.24-.52,1.12,1.29,1.31,1.7l3.29,7.18c1.32,2.87.56,7.49,1.68,10.53.52,1.42,1.93,3.06.02,4.18Z"/>
  <path class="cls-1" d="M749.58,256.41c3.1,1.1-.83,9.39-4.05,12.47-.52.5-2.92-1.04-2.63-1.74l3.88-9.5c.27-.66,2.14-1.46,2.8-1.23Z"/>
  <path class="cls-1" d="M742.83,324.48c.56.18,1.01,2.63.44,2.8-1.86.56-4.94,1.32-6.77.16-.68-.43-.15-3.24.63-3.36,1.27-.2,4.43,0,5.7.41Z"/>
  <path class="cls-1" d="M182.77,289.98c-1.01.3-1.94-2.74-1.85-3.83s1.37-3.2,2.46-3.18c2.43.76,2.62,6.05-.61,7.02Z"/>
  <path class="cls-1" d="M465.93,896.23c.47,2.4-1.74,3.48-3.88,3.57-1.67.07-3.19-.87-4.31-3.83l8.19.26Z"/>
  <path class="cls-1" d="M776.81,176.38c1.71-1.21,5.94-1.17,7.44.54.29.32-.46,1.8-.9,1.82-1.58.09-5.12-.57-6.53-2.36Z"/>
  <path class="cls-1" d="M375.32,906.04c-.47.72-2.97.63-3.44.02s-.88-2.16-.94-3.5c-.04-.87,2.86-.83,3.68-.33.86.52,1.6,2.43.71,3.81Z"/>
  <path class="cls-1" d="M491.12,309.04c-1.37,1.61-1.89,2.25-2.52,2.66s-2.79-.95-2.64-1.76c.24-1.37,2.55-2.87,4.28-3.08l.88,2.19Z"/>
</svg>