<?xml version="1.0" encoding="UTF-8"?>
<svg id="Camada_1" data-name="Camada 1" xmlns="http://www.w3.org/2000/svg" viewBox="0 0 1024 1024">
  <defs>
    <style>
      .cls-1 {
        fill: #fff;
      }
    </style>
  </defs>
  <path class="cls-1" d="M0,970.49V55.78h1024v914.72H0ZM600.24,895.35c-.26-2.03,2.07-1.1,7.37-3.81,8.37-4.29,3.05-7.36,14.2-13.61,2.84-1.59,5.24-2.13,8.5-1.87,1.61.13,3.94-.68,5.58.14,3.04,1.52,5.94,1.01,9.08,1.13s5.3-.17,8.13-1.43,5.93-1.88,8.35-4.29,4.13-.18,4.19-2.59l.08-3.55c.01-.49-.98-1.18-1.51-1.27l-4.3-.72c-.14-.02-.68-.15-.82-.2l-4.55-1.53c2.41-3.03,4.02-5.51,4.81-8.8,1.38-5.72,5.6-8.49,9.86-11.83,2.15-1.69,4.05-3.55,8.18-5.11l.48-7.62.16-13.19c.02-1.24,1.73-3.32,1.43-4.51-.99-3.88.37-6.45,1.59-9.67.6-1.59.97-4.06,1.27-5.82l.93-5.57c.43-2.61.92-5.41.91-8-.02-6.34,1.06-5.21,2.29-11.2.73-3.55,1.41-7.11,1.69-10.55.23-2.81.71-5.3,1.13-7.93s.59-5.11,1.14-7.69c.5-2.34-2.87-4.36-5.04-4.49-.75-.04-1.89-.64-1.87-1.3l.47-14.74c.05-1.55.35-2.53.16-4.07-.3-2.52.28-5.27.51-8.04.27-3.19,2.51-6.04,5.08-7.75l.56-5.45-.72-.92-1.41.04-1.19.03c-.31,0-1.43-.26-1.41-.58s.13-.85.27-1.34l1.5-5.08c3.57-2.09,7.57-6.66,9.45-9.57l2.65-1.78c2.11-1.42,4.95.76,5.73,2.97,3.05,8.65,4.07,3.69,3.91,16.97l-4.87,4.09c-4.98,4.18-3.34,6.54-2.79,6.23,5.26-2.96,4.73.35,6.96-2.07,7.87-8.53,10.98-8.26,8.86-16.14l-1.16-4.32-1.63-4.04-5.29-9.65c1.66,3.03-3.5-8.87-1.24-6.1,2.72,3.34,6.94,2.8,9.84.64l1.96-6.65c.52-1.75,7.92-6.42,9.25-11.4.24-.91,2.17-1.23,3.39-1.2,2.41.05,1.02-2.2,3.11-3.39s4.12-3.45,5.42-5.86l4.97-4.74c2.13-2.04,4.39-4.04,6.84-5.93.81-.62,3.21-1.06,3.9-1.76,1.98-8.23,5.08-3.7,7.33-7.47,1.15-1.93,2.69-2.57,4.61-3.45l4.46-2.05c2.34-1.08,7.64-3.54,5.66-6.88-.65-1.1-1.57-2.16-2.37-2.33-3.04-.65-3.2,2.6-4.25,1.61-.15-.14-.43-.5-.29-.66l.77-.83,4.37-4.7c1.7-4.28,4.39-6.47,7.91-9.22l3.64-2.86,11.03-6.55,3.2-1.01c3.5-4.74,8.26-7.85,13.14-10.84.77-.86,1.87-2.66,3.18-2.96,1.79-.42,2.42-2.58,3.52-3.35,2.36-1.65,4.58-3.09,6.73-5l6.02-5.36,10.06-8.94c1.67-1.48,2.15-3.17,4.67-4s4.57-3.89,6.89-5.27c5.89-3.51,6.67-5.1,13.26-9.13l6.44-3.94c2.87-1.76,5.54-3.43,8.17-5.53,1.89-1.51,3.82-2.76,5.72-4.17l3.8-2.8,5.31-4.01c1.03-.78,2.54-2.51,3.49-3.35,2.44-.51,3.16-1.95,4.85-3.54.71-.66,1.95-1.4,2.54-2.22,6.03-8.45,9.12-6.67,14.82-17.03l3.47-6.3c1.81-3.29,5.94-5.24,6.27-9.58,2.59-3.04,6.42-10.7,7.75-14.58,2.5-7.29,3.23-6.2,5.41-12.07l.64-1.36c1.28-2.71-1.35-1.7,2.25-4.75,1.02-.86.51-3.94.95-5.35l2.98-9.58,3.17-11.16.63-3.85c.35-2.11,1.92-4.44,2.24-6.56l1.23-8.31c.5-3.38,2.63-1.83,2.17-3.18l-.94-2.79c.63-9.6,2.71-10.72,1.96-21.38l2.06-5.93c.53-1.52-.19-13.52-.53-16.03-1.07-7.75,2.34-3.05-2.33-16.29-.82-2.34-1.4-4.92-2.36-7.03l-1.92-4.2-2.43-6.25c-.81-2.07-4.03-3.08-3.68-6.03-3.59-.03-7.49-9.05-8.67-10.45-1.65-1.95-3.4-3.97-5.17-5.71l-6.35-6.25c-1.21-1.2-2.61-3.13-3.93-4.22-4.7-3.88-14.68-11.78-19.76-13.99l-5.05-2.2c-2.74-1.19-5.53-2.89-8.58-3.17-2.43-.22-3.8-1.37-5.59-2.79-7.03-2.14-9.39-2.47-16.76-4.99l-5.99-2.04-7.29-2.33-5.5-1.36c-1.23-.31-3.3-1.37-4.42-1.5l-10.24-1.21c-3.72-.44-12.95,3.1-16.79,4.65l-8.99,3.62c-1.82.73-3.72,1.01-5.77,1.44-7.48,1.56-9.26,2.57-16.57,4.1l-5.2,1.08c-1.78,2.59-4.03,2.63-7.04,2.07-3.47-.64-8.13,3.15-13.3,3.54l-4.29,3.14c-1,.73-2.17,2.11-3.22,2.25-9.28,1.25-6.08,4.62-7.62,5.17-.42.15-1.79.27-2.26.51-3.7,1.84-8.31,4.06-11.98,6.46-2.13,1.39-3.93,2.91-6.06,4.35l-3.88,2.62c-2.53,1.71-4.24,3.55-6.92,5.23-2.08,1.29-4.52,3.57-6.21,5.48l-5.95,6.73c-5.45,6.17-3.09,5.52-6.57,9.77-2.1,2.56-4.31,5.46-6.77,7.51-2.66-.58-2.73-3.25-2.69-5.28l.22-10.96c.04-2.17.03-4.12-.26-6.23l-1.13-8.51c-.55-4.13-1.3-8.98-2.47-12.87l-2.85-9.5-3.07-9.08c-.62-1.82-2.59-2.64-1.44-5.25.92-2.09-1.22-3.75-1.95-5.35-1.04-2.31-7.13-17.06-7.58-18.57l-1.38-4.66c-.48-1.61-1.2-3.1-1.93-4.59l-7.64-15.4c-.73-1.46-1.52-2.77-2.39-4.11l-4.28-6.66c-.63-.97-1.83-1.97-1.61-2.98l.3-1.4c.12-.57-2.79-.11-3.02-2.09s-1.67-3.15-2.57-4.58c-2.52-4-4.97-7.48-9.33-9.89-1.14-.63-2.34-2.12-3.19-3.26l-3.48-.76c-5.5-3.64-5.4-2.02-11.13-6.21-7.62-1.08-8.97-4.05-17.1-4.56l-5.77-3.02c-1.59-.83-3.42-3.09-4.61-4.19-2.18-.02-3.4-.32-4.94-1.39-3.45-2.39-8.03-3.27-12.34-3.34l-11.01-.17c-5.64-.09-9.94,1.89-14.31,4.71-7.04,4.55-2.8,3.31-11.6,5.94l-2.02,3.18-5.77,1.54c-2.01.54-3.67,1.41-5.71,1.95l-7.46,1.99c-7.7,2.05-5.99,4.79-9.95,4.65s-6.22,1.61-8.93,3.61c-2.38,1.75-5.49,2.88-8.1,4.4l-8.56,4.99-4.69,2.52-4.64,2.44c-.92.48-9.34,3.51-10.26,3.69-3.98.79-7.51,1.81-11.39,2.84-5.63,1.5-11.85-.34-17.53.41-6.81.9-9.87-.85-18.1-.64-2.77.07-5.21-.01-8-.1-3.87-.12-7.94,1.06-11.92,1.33-4.62.31-8.81,1.55-13.31,2.44-2.67.53-5.01,1.47-7.43,2.21-5,1.53-9.61,2.76-14.49,4.81-3.01,1.26-9.69-1.63-17.22,3.1-1.25.78-3.39.89-4.57,1.5l-7.23,3.72c-11.02,5.68-5.18,4.16-14.3,9.46-.6,2.4-2.79,3.4-4.36,5.02l-3.53,3.63c-1.28,1.31-2.43,3.73-3.9,4.71-1.65,1.1-2.3,1.84-3.09,3.59-1.12,2.48-4.68,2.88-6.56,4.48l-8.8,7.46c-4.17,6.94-4.99,6.04-8.68,13.76-.7,1.47-2.5,3.44-2.93,4.76l-1.65,7.15c-.61,2.63-1.88,5.32-1.54,8.07.28,2.24-.89,4.18-1.19,6.27l-1.19,8.2c-.57,3.9-.37,14.52.16,18.31.41,2.88,2.71,5.1,1.88,8.5-.61,2.51,2.58,4.74,3.74,12.34.57,3.77,1.52,6.92,2.71,10.42l2.65,7.81c.97,2.87,2.08,5.28,3.45,7.91,2.28,4.36,3.07,9.67,6.19,13.53,4.16,5.16,8.08,10,12.57,14.83,1.93,2.08,5.75,3.95,6.8,6.74.13.35-.54,1.42-.8,1.25-3.18-2.13-.58-1.84-3.78-3.04-2.55-.96-4.02-2.29-6.03-4.01-5.36-4.57-7.59-2.22-12.31-6.79-.82-.79-3.07-1.83-3.55-2.84-1.49-3.14-4.24-3.45-6.86-4.84-2.1-1.11-4.17-1.56-6.38-2.32-5.03-1.73-9.14-4.62-14.94-4.32-2.37.12-5.54-.88-7.94-.58-8.79,1.1-8.44-3.45-14.54-2.76-3.89.44-7.84.02-11.68.77-1.63.31-3.65,1.43-5.41,1.92-1.98.55-3.7,1.61-5.43,2.56l-6.81,3.72-10.6,6.24-4.44,2.66c-5.79,3.47-4.37,2.08-11.56,5.35-6.11,2.78-11.65,5.63-16.67,10.28l-2.52,2.33c-5.47,5.06-6.92,3.4-17.18,13.87-.65.67-1.55,2.48-2.14,3.19l-3.05,3.69c-7.43,8.98-3.74,2.77-10.12,9.54-3.46,3.68-6.58,7.21-9.3,11.5-.67,1.05-1.29,3.06-1.92,3.94-6.02,8.36-6.67,9.76-11.02,19.22-.89.65-1.87,1.66-2.49,2.9-6.41,12.78-4.37,6.63-10.68,17.34l-2.09,3.55c-1.41,2.4-2.11,4.81-3.32,7.23-5.42,10.88-2.21,10.17-7.41,17.18.19,8.71-2.02,5.41-1.79,12.4.05,1.45-.43,2.96-.78,4.45l-1.07,4.63,1.12,13.13c.32,3.74,3.33,7.11,3.43,11.05.09,3.53.85,6.95,2.49,9.98l2.09,3.87c-.6,5.34,1.38,8.4,3.7,12.19.85,1.38,1.07,3.45,2.74,4.32,1.95,1.01,2.03,2.97.95,4.79l1.91,2.68c1.31,1.84,2.04,3.73,3.36,5.5,4.48,6.03,9.78,8.28,14.76,11.02l3.62,1.99c3.58,1.97,6.76,3.21,10.1,5.4,4.35,2.85,10.49,3.39,14.52,4.94l3.74.93,4.16,1.5,6.44.67c-.28-.03,11.5,3.91,17.09,4.43,2.33.22,3.63.52,5.72,1.15,7.16,2.16,11.96,1.37,18.11,4.44l3.96,1.98c2.37,1.18,4.44,1.95,6.43,3.66,2.37,2.04,5.68,2.58,8.61,3.55,6.26,2.07,3.14,2.5,10.29,3.85,2.01.38,4.39,2.3,6.41,3.21,2.85,1.28,6.13,3.36,10.42,5.38,3.76,1.77,9.17,2.18,14.93,5.96,1.8,1.18,4.81.97,6.93,1.75,1.24.45,2.95,1.96,4.05,1.53,2.51-1,4.28-.57,5.87,1.23l3.45-.48c4.6,3.11,15.36,5.79,19.25,7.16l14.4,5.07,8.01,2.73c5.14,1.75,10,2.44,14.89,5.1,6.56,3.57,11.22,3.77,18.54,4.27l8.25.57c3.98.27,8.01-1.17,11.96-1.42l4.64-.29c1.37-2.36,9.98-3.34,12.57-3.79,2.02-.35,4.31-2.7,6.78-2.8l6.58-.26c1.21-.05,3.17.81,4.34.87,3.71.19,7.21.3,10.67.24,3.12-.05,6.2-.39,8.81,1.98l2.79,2.52c3.44,5.57,7.51,10.17,12.19,14.65,1.88,1.8,3.5,3.72,5.79,5.12,3.16,1.93,8.69,3.67,10.57,5.19,1.75,1.41,2.9,2.35,5.2,3.24.87,1.17.48,3.94.04,6.13,3.2,2.03,5.84.18,8.29,5.41-1.74,8.71,1.66,5.4-1.78,16.45-.55,1.75-1.11,2.99-2.91,3.78l.49,4.19-3.08,1.87c2.44,7.13-2.89,11.51-2.3,19.7,2.86,1.42,5.82,2.52,7.99.37l1.55-1.53c2.01-1.98,2.38,6,2.28,6.38l-2.31,9.7c-.39,1.63-1.38,3.43-1.45,4.99-.17,3.81-1.15,6.95-1.86,10.65-1.42,7.36-1,15.21.2,22.6.32,1.99,1.73,4.15,1.6,6.36-.18,2.85.7,5.13,1.71,7.47,1.43,3.31,3.13,4.14,6.43,5.45,1.61.64,3.98,2.28,5.69,3.27,5.62,3.27,3.59.96,10.37,4.26,4.34,2.11,8.84,4.06,12.61,7.08,3.24,2.59,6.37,3.06,10.29,4.15l8.56,2.37c7.94,2.2,5.55-.16,9.76,2.64,2.3,1.53,4.79,2.95,7.39,3.99,1.21.48,2.27,1.57,3.31,2.12l8.86,4.77c3.79,2.04,6.96,4.67,10.71,6.79l7.72,4.38,3.98,2.66c2.23,1.49,5.01,1.84,7.31,3.12,2.06,1.15,10.33,9.5,16.37,8.02,1.64-10.74,2.76-1.65,1.24-13.47Z"/>
  <path d="M600.24,895.35c1.52,11.81.4,2.72-1.24,13.47-6.05,1.48-14.31-6.87-16.37-8.02-2.3-1.28-5.08-1.64-7.31-3.12l-3.98-2.66-7.72-4.38c-3.74-2.12-6.92-4.75-10.71-6.79l-8.86-4.77c-1.03-.56-2.1-1.64-3.31-2.12-2.6-1.04-5.09-2.46-7.39-3.99-4.21-2.8-1.83-.44-9.76-2.64l-8.56-2.37c-3.92-1.09-7.04-1.55-10.29-4.15-3.77-3.01-8.27-4.97-12.61-7.08-6.78-3.3-4.75-.98-10.37-4.26-1.71-1-4.07-2.63-5.69-3.27-3.3-1.31-5-2.14-6.43-5.45-1.01-2.35-1.89-4.62-1.71-7.47.14-2.21-1.27-4.37-1.6-6.36-1.2-7.39-1.62-15.24-.2-22.6.71-3.69,1.69-6.84,1.86-10.65.07-1.56,1.06-3.37,1.45-4.99l2.31-9.7c.09-.39-.28-8.37-2.28-6.38l-1.55,1.53c-2.17,2.14-5.13,1.04-7.99-.37-.59-8.19,4.74-12.57,2.3-19.7l3.08-1.87-.49-4.19c1.79-.79,2.36-2.02,2.91-3.78,3.45-11.05.05-7.75,1.78-16.45-2.45-5.22-5.09-3.38-8.29-5.41.44-2.19.83-4.96-.04-6.13-2.3-.89-3.45-1.83-5.2-3.24-1.88-1.52-7.41-3.26-10.57-5.19-2.29-1.4-3.91-3.32-5.79-5.12-4.68-4.47-8.74-9.08-12.19-14.65l-2.79-2.52c-2.61-2.36-5.7-2.03-8.81-1.98-3.45.06-6.96-.05-10.67-.24-1.17-.06-3.13-.92-4.34-.87l-6.58.26c-2.47.1-4.76,2.45-6.78,2.8-2.59.45-11.2,1.43-12.57,3.79l-4.64.29c-3.96.25-7.99,1.69-11.96,1.42l-8.25-.57c-7.32-.5-11.98-.71-18.54-4.27-4.89-2.66-9.75-3.35-14.89-5.1l-8.01-2.73-14.4-5.07c-3.89-1.37-14.65-4.05-19.25-7.16l-3.45.48c-1.59-1.8-3.36-2.23-5.87-1.23-1.09.43-2.8-1.08-4.05-1.53-2.11-.77-5.13-.57-6.93-1.75-5.76-3.78-11.17-4.19-14.93-5.96-4.29-2.02-7.58-4.09-10.42-5.38-2.02-.91-4.4-2.83-6.41-3.21-7.15-1.35-4.03-1.78-10.29-3.85-2.93-.97-6.25-1.51-8.61-3.55-1.99-1.71-4.06-2.48-6.43-3.66l-3.96-1.98c-6.15-3.07-10.95-2.28-18.11-4.44-2.09-.63-3.39-.93-5.72-1.15-5.59-.52-17.36-4.46-17.09-4.43l-6.44-.67-4.16-1.5-3.74-.93c-4.04-1.56-10.17-2.09-14.52-4.94-3.34-2.19-6.51-3.43-10.1-5.4l-3.62-1.99c-4.98-2.74-10.28-4.98-14.76-11.02-1.32-1.77-2.05-3.66-3.36-5.5l-1.91-2.68c1.07-1.83,1-3.78-.95-4.79-1.68-.87-1.9-2.93-2.74-4.32-2.32-3.79-4.3-6.85-3.7-12.19l-2.09-3.87c-1.64-3.02-2.4-6.44-2.49-9.98-.1-3.95-3.11-7.31-3.43-11.05l-1.12-13.13,1.07-4.63c.35-1.5.83-3,.78-4.45-.23-6.99,1.98-3.69,1.79-12.4,5.2-7.01,1.99-6.3,7.41-17.18,1.21-2.42,1.91-4.84,3.32-7.23l2.09-3.55c6.31-10.72,4.27-4.56,10.68-17.34.62-1.24,1.6-2.25,2.49-2.9,4.35-9.46,5-10.86,11.02-19.22.63-.87,1.26-2.89,1.92-3.94,2.72-4.29,5.83-7.82,9.3-11.5,6.38-6.77,2.69-.55,10.12-9.54l3.05-3.69c.59-.71,1.49-2.52,2.14-3.19,10.26-10.47,11.71-8.81,17.18-13.87l2.52-2.33c5.02-4.65,10.56-7.5,16.67-10.28,7.19-3.28,5.78-1.89,11.56-5.35l4.44-2.66,10.6-6.24,6.81-3.72c1.73-.95,3.45-2.01,5.43-2.56,1.76-.49,3.78-1.6,5.41-1.92,3.84-.74,7.8-.32,11.68-.77,6.1-.69,5.75,3.86,14.54,2.76,2.4-.3,5.57.71,7.94.58,5.79-.31,9.91,2.59,14.94,4.32,2.21.76,4.28,1.21,6.38,2.32,2.62,1.39,5.36,1.7,6.86,4.84.48,1.01,2.73,2.05,3.55,2.84,4.72,4.57,6.95,2.21,12.31,6.79,2.01,1.72,3.48,3.05,6.03,4.01,3.19,1.2.59.91,3.78,3.04.25.17.93-.9.8-1.25-1.05-2.79-4.87-4.66-6.8-6.74-4.49-4.83-8.42-9.67-12.57-14.83-3.11-3.86-3.9-9.17-6.19-13.53-1.37-2.62-2.48-5.04-3.45-7.91l-2.65-7.81c-1.19-3.49-2.13-6.65-2.71-10.42-1.16-7.6-4.36-9.83-3.74-12.34.83-3.4-1.48-5.62-1.88-8.5-.53-3.79-.73-14.4-.16-18.31l1.19-8.2c.3-2.09,1.47-4.02,1.19-6.27-.35-2.76.93-5.44,1.54-8.07l1.65-7.15c.42-1.32,2.23-3.29,2.93-4.76,3.69-7.72,4.52-6.82,8.68-13.76l8.8-7.46c1.89-1.6,5.44-2,6.56-4.48.79-1.75,1.44-2.49,3.09-3.59,1.48-.98,2.63-3.39,3.9-4.71l3.53-3.63c1.57-1.62,3.76-2.62,4.36-5.02,9.12-5.3,3.28-3.78,14.3-9.46l7.23-3.72c1.18-.61,3.32-.71,4.57-1.5,7.53-4.73,14.21-1.83,17.22-3.1,4.87-2.04,9.49-3.27,14.49-4.81,2.42-.74,4.76-1.69,7.43-2.21,4.5-.89,8.7-2.13,13.31-2.44,3.98-.27,8.05-1.45,11.92-1.33,2.79.09,5.23.17,8,.1,8.23-.21,11.29,1.54,18.1.64,5.68-.75,11.9,1.09,17.53-.41,3.88-1.03,7.41-2.05,11.39-2.84.91-.18,9.34-3.21,10.26-3.69l4.64-2.44,4.69-2.52,8.56-4.99c2.61-1.52,5.72-2.65,8.1-4.4,2.71-2,5.14-3.74,8.93-3.61s2.25-2.6,9.95-4.65l7.46-1.99c2.03-.54,3.7-1.41,5.71-1.95l5.77-1.54,2.02-3.18c8.8-2.63,4.57-1.38,11.6-5.94,4.37-2.83,8.67-4.8,14.31-4.71l11.01.17c4.31.07,8.89.95,12.34,3.34,1.54,1.07,2.76,1.37,4.94,1.39,1.19,1.1,3.02,3.36,4.61,4.19l5.77,3.02c8.12.51,9.48,3.47,17.1,4.56,5.74,4.19,5.63,2.58,11.13,6.21l3.48.76c.85,1.14,2.05,2.63,3.19,3.26,4.36,2.41,6.81,5.88,9.33,9.89.9,1.43,2.33,2.53,2.57,4.58s3.15,1.52,3.02,2.09l-.3,1.4c-.21,1.01.99,2.01,1.61,2.98l4.28,6.66c.87,1.35,1.67,2.65,2.39,4.11l7.64,15.4c.74,1.49,1.46,2.98,1.93,4.59l1.38,4.66c.45,1.51,6.54,16.26,7.58,18.57.72,1.6,2.86,3.26,1.95,5.35-1.15,2.61.82,3.43,1.44,5.25l3.07,9.08,2.85,9.5c1.17,3.9,1.92,8.75,2.47,12.87l1.13,8.51c.28,2.11.3,4.06.26,6.23l-.22,10.96c-.04,2.03.04,4.7,2.69,5.28,2.46-2.04,4.67-4.95,6.77-7.51,3.48-4.24,1.12-3.6,6.57-9.77l5.95-6.73c1.69-1.91,4.13-4.19,6.21-5.48,2.69-1.67,4.39-3.52,6.92-5.23l3.88-2.62c2.13-1.44,3.94-2.96,6.06-4.35,3.67-2.4,8.28-4.62,11.98-6.46.47-.23,1.83-.35,2.26-.51,1.53-.55-1.67-3.92,7.62-5.17,1.05-.14,2.22-1.52,3.22-2.25l4.29-3.14c5.18-.38,9.83-4.17,13.3-3.54,3.01.55,5.26.51,7.04-2.07l5.2-1.08c7.31-1.52,9.1-2.53,16.57-4.1,2.05-.43,3.95-.71,5.77-1.44l8.99-3.62c3.85-1.55,13.08-5.09,16.79-4.65l10.24,1.21c1.12.13,3.19,1.2,4.42,1.5l5.5,1.36,7.29,2.33,5.99,2.04c7.37,2.52,9.73,2.85,16.76,4.99,1.78,1.41,3.16,2.56,5.59,2.79,3.05.28,5.84,1.98,8.58,3.17l5.05,2.2c5.08,2.21,15.06,10.11,19.76,13.99,1.32,1.09,2.71,3.03,3.93,4.22l6.35,6.25c1.77,1.74,3.52,3.76,5.17,5.71,1.18,1.4,5.08,10.41,8.67,10.45-.35,2.95,2.87,3.96,3.68,6.03l2.43,6.25,1.92,4.2c.97,2.11,1.54,4.7,2.36,7.03,4.68,13.24,1.27,8.54,2.33,16.29.34,2.5,1.06,14.51.53,16.03l-2.06,5.93c.76,10.66-1.33,11.78-1.96,21.38l.94,2.79c.45,1.35-1.67-.19-2.17,3.18l-1.23,8.31c-.31,2.12-1.89,4.45-2.24,6.56l-.63,3.85-3.17,11.16-2.98,9.58c-.44,1.41.07,4.49-.95,5.35-3.61,3.05-.98,2.03-2.25,4.75l-.64,1.36c-2.17,5.87-2.91,4.78-5.41,12.07-1.33,3.87-5.16,11.54-7.75,14.58-.33,4.35-4.47,6.3-6.27,9.58l-3.47,6.3c-5.7,10.36-8.8,8.58-14.82,17.03-.58.82-1.83,1.56-2.54,2.22-1.69,1.58-2.41,3.03-4.85,3.54-.95.84-2.46,2.57-3.49,3.35l-5.31,4.01-3.8,2.8c-1.91,1.4-3.83,2.65-5.72,4.17-2.63,2.11-5.3,3.78-8.17,5.53l-6.44,3.94c-6.59,4.03-7.37,5.62-13.26,9.13-2.32,1.38-4.38,4.44-6.89,5.27s-3,2.51-4.67,4l-10.06,8.94-6.02,5.36c-2.15,1.91-4.36,3.35-6.73,5-1.1.77-1.73,2.93-3.52,3.35-1.31.31-2.41,2.1-3.18,2.96-4.88,2.99-9.63,6.1-13.14,10.84l-3.2,1.01-11.03,6.55-3.64,2.86c-3.51,2.75-6.21,4.94-7.91,9.22l-4.37,4.7-.77.83c-.14.16.13.51.29.66,1.05.99,1.21-2.26,4.25-1.61.8.17,1.72,1.23,2.37,2.33,1.98,3.35-3.32,5.81-5.66,6.88l-4.46,2.05c-1.92.88-3.46,1.53-4.61,3.45-2.25,3.77-5.36-.76-7.33,7.47-.69.7-3.09,1.14-3.9,1.76-2.46,1.89-4.71,3.89-6.84,5.93l-4.97,4.74c-1.29,2.41-3.33,4.67-5.42,5.86s-.7,3.44-3.11,3.39c-1.23-.03-3.15.29-3.39,1.2-1.33,4.98-8.74,9.65-9.25,11.4l-1.96,6.65c-2.89,2.16-7.11,2.7-9.84-.64-2.26-2.77,2.91,9.13,1.24,6.1l5.29,9.65,1.63,4.04,1.16,4.32c2.12,7.89-.99,7.61-8.86,16.14-2.23,2.42-1.7-.9-6.96,2.07-.55.31-2.19-2.05,2.79-6.23l4.87-4.09c.16-13.28-.86-8.32-3.91-16.97-.78-2.21-3.63-4.38-5.73-2.97l-2.65,1.78c-1.88,2.91-5.88,7.48-9.45,9.57l-1.5,5.08c-.15.49-.25,1.03-.27,1.34s1.1.58,1.41.58l1.19-.03,1.41-.04.72.92-.56,5.45c-2.57,1.71-4.81,4.56-5.08,7.75-.24,2.77-.81,5.52-.51,8.04.18,1.54-.12,2.51-.16,4.07l-.47,14.74c-.02.66,1.12,1.25,1.87,1.3,2.17.13,5.54,2.16,5.04,4.49-.55,2.58-.74,5.16-1.14,7.69s-.9,5.12-1.13,7.93c-.28,3.44-.96,7-1.69,10.55-1.23,6-2.32,4.87-2.29,11.2,0,2.59-.48,5.39-.91,8l-.93,5.57c-.29,1.76-.67,4.23-1.27,5.82-1.22,3.22-2.58,5.79-1.59,9.67.3,1.19-1.42,3.27-1.43,4.51l-.16,13.19-.48,7.62c-4.12,1.56-6.02,3.42-8.18,5.11-4.26,3.34-8.47,6.11-9.86,11.83-.79,3.29-2.4,5.78-4.81,8.8l4.55,1.53c.14.05.68.18.82.2l4.3.72c.54.09,1.53.78,1.51,1.27l-.08,3.55c-.06,2.4-1.87.28-4.19,2.59s-5.46,2.99-8.35,4.29-5,1.55-8.13,1.43-6.04.4-9.08-1.13c-1.64-.82-3.97-.01-5.58-.14-3.25-.26-5.66.27-8.5,1.87-11.15,6.25-5.83,9.32-14.2,13.61-5.29,2.71-7.63,1.79-7.37,3.81ZM494.31,426.46c.64,2.76,5.74,1.82,6.93.31.21-.26,1.81-.36,1.89-.03l.37,1.49c.44,1.76,2.3,1.93,1.59,2.45l-.71.52-3.48,2.57c-2.96-.25-5.77.25-8.28,2.1.51,7.19,1.03,14.04,4.16,20.28,1.42,2.83,3.18,5.22,4.64,7.95l3.77,7.07c.89,1.67,3.98,7.32,6.25,7.29l3.08,5.97,3.29.4c.7,3.85,5.16,10.2,8.31,11.47.29.12,1.24-.16,1.24-.43v-1.12c-.01-2.76,2.65-4.61,3.49-6.9.95-2.59,1.78-4.9,3.07-7.35,1.11-2.09,1.29-4.51,1.79-6.72,1.78-7.94.7-6.4,2.5-13.85,1.03-4.27,1.71-8.22.8-12.65-.56-2.75-.08-5.53-.28-8.23l-.51-6.88-.59-7.15c-.1-1.18-.49-3.67-.89-4.82l-6.04-17.36-1.19-4.25c-3.67-13.09-5.03-16.69-4.15-30.86.22-3.47,2.32-6.59-.77-9.8,2.66.16,3.53-.82,3.62-3.05.06-1.43,1.08-3.63,1.21-5,.53-5.61-1.54-9.92,1.28-16.86,1.29-1.96,2.79-4.37,2.54-6.89,5.12-4.11,2.64-7.05,8.91-8.62l5.4-4.6,6.25-2.63c.75-.31,1.68-1.76,2.54-2.7.54-.6-.34-2.04-1-2.67-1.74-1.68-3.03-2.63-5.43-1.03-1.26.84-3.18,1.47-4.63,2.22l-5.15,2.67c-2.55,1.32-6.91,1.77-9.06-.34-.38-4.54,3.29-7.9,5.86-11.12,2.21-2.76,5.61-3.95,7.96-6.44l3.37-3.57c2.4-2.54,4.56-4.27,8.56-2.83,5.98,2.15,3.21,9.4,6.57,9.26,2.43-.11,4.81,1.85,6.4,3.67,2.57,2.96,2.67,6.06.45,9.23-1.36,1.95-1.89,5.38-3.79,6.95-4.38,3.61-8.37,7.37-11.54,11.99-1.32.67-3.86,1.85-4.61,3.01-.69,2.97-1.58,5.73-3.9,7.58-2.89,2.32-3.17,5.68-4.71,8.58-1.09,2.06-3.76,7.54-1.93,10.01l-.43,4.67-4.41,2.64-1.39,12.02c-.17,1.45.3,3.32-.15,4.72-.9,2.76-.36,5.14.25,7.74l1.88,7.99,1.26,4.01c1.21,3.87,2.05,7.59,3.4,11.42.83,2.36,1.55,4.72,2.18,7.12l1.72,6.5c.62,2.35.63,5.3.98,7.91.93,7.09,2.05,14.08,1.48,21.26l-.53,6.63c-.32,4.09-.49,8.43-1.42,12.34l-2.18,9.24-3.5,4.59c-.22,2.55-.46,4.78-1.94,6.91-1.31,1.89-1.19,4.65-1.78,6.51-.46,1.46-3.81,2.67-3.28,5.23.09.45.42,1.62.79,1.46.27-.12.96-.49,1.23-.71,6.38-4.96,9.05-1.01,15.96-9.62.96-.59,3.49-.82,4.38-1.54l3.34-2.73c3.19-2.6,5.69-6.01,8.71-8.85l6.99-6.57c1.8-1.69,2.94-3.54,4.46-5.59,1.33-1.8,2.02-3.67,2.89-5.49,1.13-2.36,4.1-2.74,3.79-6.74s1.21-8.2,1.95-12.11c.45-2.4.07-5.27.31-7.64.59-5.85-.9-10.86-2.21-16.32l-2.02-8.39c-1.03-4.29-2.89-14.81-2.81-18.46.01-.52-1.14-1.57-1.02-2.02l.53-1.92,1.71-6.91c.76-3.08,1.95-5.82,4.63-7.63,3.55-2.39-3.59-5.9,3.78-14.44,2.85-1.91,6.33-2.3,8.02-5.47l.46-3.32,4.06-.81c.87-6.09,6.91-4.06,7.4-9.72.13-1.52,1.43-1.17,4.01-2.13.54-.2.52-1.57.61-2.57.12-1.26,1.64-2.12,3.07-2.19l2.32-.1c.4-.02.75,1.06.97,1.5l1.44,2.93c.96,1.96-3.93,6.66-5.65,8.36-4.31,4.25-2.64,3.92-7.67,8.78l-4.93,4.76c-.28.28-1.31,1.48-.94,1.52.3.03,1.14.09,1.47.08l6.73-.21c8.69-.28,6.25-1.55,12.68,6.66.31,1.4.55,3.66.99,4.96,2.56,7.56.59,7.52,3.24,16.99l3.02,10.74c.59,2.1.89,8.14-.32,9.77l.29,3.11c-1.33.64-4.35.89-4.78-.63-.52-1.83-1.11-3.39-2.09-4.9,1.71-4.73-2.24-8.69-3.15-12.58l-2.85-12.18c-.99-4.25-1.62-14.27-7.1-13.44-2.19.33-4.55.45-6.43.93-3.46.88-6.37,1.73-10.06,1.79-4.27.07-.13,3.22-2.55,5.1-3.97,3.08-.06,4.62-3.13,7.27l.02,10.12c0,3.87,1.34,8.05,1.97,11.94l2.6,15.91c.25,1.52.38,3.43.44,4.92l.42,9.84-.87,10.84c-.6,7.46-2.04,4.84-2.86,14.06l-2.88.54-1.6,6.59c-.26,1.07-1.36,3.01-2.01,3.82l-2.96,3.67c-.22.27-6.22,6.75-6.22,6.76-2.87,2.26-5.31,4.37-7.89,6.88-6.34,6.16-17.07,13.85-24.73,18.03-2.36,1.29-4.04,2.96-7.04,3.54-1.31.97-.54,4.47-1.17,5.88-1.7,3.83-2.07,7.42-2.67,11.56-.52,3.64-3.33,7.12-4.33,10.61-.48,1.65-.93,2.94-1.68,4.33l-3.45,6.38c-.85,1.57-1.67,2.85-2.71,4.51l-3.11,4.97c-.26.41.87,1.37,1.22,1.14,4.62-3.14.38-1.6,6.33-3.31,3.45-.99,6.65-3.77,10.11-4.41l6.89-1.29c2.68-.5,5.17-1,7.56-2.44,2.05-1.23,4.66-2.64,6.22-4.1,2.19-2.05,3.4-2.79,6.26-3.43,3.11-.69,6.18-3.51,9.24-4.42,1.92-.57,4.07-.97,5.63-1.84,1.78-.99,3.5-3.66,5.44-4.06,2.82-.57,4.65-1.45,7.09-3.05,5.49-3.61,2.57-.95,8.71-4.08,5.81-2.96,4.96-4.85,9.93-6.35,7.78-2.35,7.4-2.71,15.55-4.54l4.36-.98c2.72-.61.06-.78-.06-5.04-.04-1.51-.3-3.33,1.58-3.84,9.33-2.54,8.99-.34,17.16,1.05l6.97,1.19c1.24.21,3.16,1.27,4.4,1.17,2.4-.19,4.86-.07,6.84.52.66.19,1.96-.37,2.52-.43l10.91-1.14c4.05-.42,8.13-.92,12.02-2.01l5.46-1.53c2.61-.73,5.57-1.43,8.05-2.34l7.58-2.78,4.14-1.55c1.19-.44,2.92-1.47,4.14-1.74,15.28-3.39,20.78,8.45,23.82,9.71l9.66,4c.5.21,6.22,4.66,12.82,6.38,2.26.59,5.23,1.7,6.57,3.44,1.13,6.3-2.58,11.33-7.39,14.7.02-.01-5.97,5.29-4.93,6.91l2.25,3.5-1.29.61-2.93-3.58-3.44,3.41-8.44,8.75c-1.02,1.06-1.24,2.39-2.73,3.71l-9.98,8.82c-1.46,1.29-3.38,1.32-4.16,3.05-.7,1.55-.19,3.13.15,4.9l.57,2.93c.51,2.62,1.33,4.99,1.86,7.56s2.14.59,5.06,3.59c1.13,1.16,2.4,2.23,3.32,3.32,2.87,3.39,5.8,9.56,9.58,6.59,1.52-1.19,3.15-3.03,4.68-3.89-2.24,1.25,22.26-11.2,17.38-9.3l4.71-1.84,4.53-2.76c5.15-3.14,2.28-3.31,7.89-5.77,6.36-7.48,6.59-6.14,12.56-10.39l13.45-9.58c1-.71,2.3-1.85,3.21-2.05l1.63-.36c.2-.04.04-.73.04-1l-.02-1.14c0-.17,1.4-.07,1.53-.17l9.95-8.2c4.38-3.61,1.89-1.02,6.04-4.45l5.41-4.46,11.02-9.11c2.23-1.84,4.01-3.5,6.02-5.56.95-.97,2.8-2.09,3.96-3.07,3.22-2.73,8.83-9.16,11.41-12.81l6.54-9.23c1.12-1.58,1.94-3.34,2.83-4.87,1.65-2.82,4.37-4.85,5.37-8.24.47-1.58,2.11-2.81,2.85-4.11l4.38-7.62c1.5-2.6,1.29-6.07,4.04-8.14,1.79-1.34,1.42-3.78,2.19-5.51,1.21-2.71,2.53-5.56,3.86-7.97l2.56-4.65,1.65-3.44c3.8-7.91,2.24-6.6,5.65-14.42,2.44-5.61,1.15-7.17,2.14-12.55.71-3.87-.34-7.92-.42-11.76l-.14-6.71-.11-5.33c-.12-5.85-.74-9.88-.83-16.15-.03-2.04-.49-4.18-1.13-6.01.29-5.84,0-11.43-2.22-17.09-1.18-2.99-2.2-6.23-3.52-9.12l-2.88-6.29-3.11-5.37c-1.56-2.69-2.6-5.28-4.28-7.93s-3.6-8.08-5.23-11.17l-4.98-9.42c-2.36-4.48-6.29-8.23-9.46-12.19l-7.57-9.43c-5.86-7.3-10.15-4.19-10.71-4.64l-1.7-1.35c-.83-.66-4.15-.56-5.5-.52l-13.55.41c-2.49.07-4.33.03-6.79-.22-4.41-.45-9.16,1.96-13.48,2.74l-5.04.91c-2.27.41-4.05,1.1-6.31,2.12-8.65.68-4.5,1.12-11.15,3.42l-9.9,3.42c-3.39,1.17-6,1.85-9.33,3.64.24-.13-18.94,7.52-17.41,7.2l-6.77,1.4c-1.21.25-2.57,1.68-3.69,2.51l-7.03-1.2c4.13-4.08,4.73-5.99,9.08-5.72,2.37.15,4.92-2.23,7.1-2.9,6-1.85,9.07-.93,10.56-4.3,1.53.14,3.54-.05,5.19-.81,8.59-3.95,5.93-.71,11.5-4.55,4.02-2.77,6.5-1.1,9.99-3.51,4.69-3.24,10.37-4.15,15.67-5.81,5.9-1.86,9.22-2.8,15.75-3.36,10.9-.93,4.38-1.79,17.46-1.52l10.1.2.37-1.65-6.76-1.84c-1.11-.3-3.5-.21-4.02-1.09-.86-1.44-1.75-2.35-2.99-3.24-5.35-3.86-4.84.44-6.84-3.62-3.34.62-7.11-.99-10.51-1.24l-13.62-1.01c-1.14,1.01-2.72,2.27-4.32,2.56-1.9.34-3.35,1.51-4.93,2.11l-7.15,2.72c-6.21,2.36-10.93,6.77-17.43,10.43-2.46,1.39-4.58,2.53-6.95,4.13-.94.63-3.31,1.09-3.79,2.05-.68,1.38-1.59,2.51-2.93,2.39-2.1-.18-2.51,1.79-3.74,2.65-4.84,3.42-9.28,6.73-13.25,11.38l-4.45,1.35c-2.05,6.05-3.44,3.42-6.25,9.23l-3.24,1.06c-.45,2.69-1.47,4.21-3.18,6.24s-2.86,4.97-4.09,4.1c-.71-.92-.79-.97-.34-.19l-.1,1.54c-4.53,9.21-2.97,3.02-8.05,11.39l-2.86,4.71-1.8,3.17-2.78,4.9c-.88,1.55-1.82,3.63-3.23,4.86-.62.54-.52,2.54-.82,3.26l-2.31,5.3-4.45,9.08c-.91,1.86-1.62,3.58-2.34,5.53l-2.98,8.08-3.49,8.97c-.63,1.62-1.77,3.32-2.35,5.09-.41,1.25-1.1,3.25-1.74,4.1-1.9,1.81-3.96,6.44-4.94,8.99-.66,1.72-1.95,3.42-2.9,5.14l-4.86,8.86c-2.11,3.84-4.01,7.54-6.26,11.35l-4.36,7.38c-1.42,2.4-2.37,4.83-3.77,7.23-.93,1.59-1.25,2.66-.69,5.05.04-.02-.57.29-1.06.55-.88-.24-1.52.7-1.78,1.68l-1,3.78c-1.73,1.05-3.7,2.43-4.13,4l-1.41,5.18c-.78,2.86-1.28,5.19-3.51,6.82-2.39,1.76-4.62,1.6-7.81,1.4-1.55-.1-4.21,6.72-4.06,8.26-3.54.98-5.72,4.67-5.81,8.38l-3.29,3.22c-1.26,1.24-1.6,1.86-2.77,3.41l-4.14,5.53c-3.88,5.18-.58-2.44-10.46,12.21-.74,1.09-3,2.27-4.48,2.72-7.94-4.33-.56-9.68-3.37-10.52-1.09-.33-2.54-.64-2.88-1.35-1.87-3.86,3-6.19,5.95-9.41,4.33-4.73,2.25-3.49,6.36-7.95,1.96-1.21,3.86-3.03,5.52-4.76s3.65-2.8,4.03-5.25l4.36-1.76c1-.33,3.28-.23,4.51-.32,6.12-5.26,2.38-9.42,7.82-12.01.94-.71,1.17-3.49,1.11-4.71l-4.31-.35c-.74-12.09,1.56-9.54,3.42-14.38.59-1.54.59-3.95,1.2-5.25l2.16-4.61c.86-1.82.91-4.07,1.86-5.83l2.61-4.86c1.37-2.55,2.14-4.82,3.6-7.31,3.15-5.39.7-7.65,4.43-8.23,3.03-.47.02-4.14,3.17-5.74,2.22-1.13,2.04-3.33,2.95-5.13,1.55-3.05,2.89-5.89,3.72-9.36.59-2.47,1.78-4.91,2.71-7.33l2.16-5.56,3.13-9.5c.58-1.77.23-4.56-.29-6.14-3.07.67-3.23,4.24-4.65,5.3-2.44,1.12-3.84,1.65-4.94,4.31-1.47,3.54-3.82,2.72-2.59,8.33l-5.25,4.46-4.99-1.91-1.82-5.78,1.85-4.31c2.39-1.14,4.02-2.59,5.23-4.82.99-1.82,2.89-2.86,4.44-4.27,4.86-4.44,7.4-10.74,11.7-13.44,2.5-1.57,2.82-4.7,1.87-7.58-.49-1.5.51-3.67.37-4.85l-.71-5.99c-.28-2.39-1.6-5.43-.94-7.68,1.95-6.68-1.67-5.19-.11-11.16,2.05-7.84-.92-11.22-1.36-14.13l-.91-6.05c-2.37-15.82,1.95-11.35-2.3-27.24-.72-2.67-1.21-5.99-1.77-8.85l-1.75-9c-1.76-9.02-5.32-16.89-10.11-24.73-1.27-2.08-2.2-4.8-3.38-7.04l-4.42-8.33c-1.68-3.16-5.65-5.53-6.8-9.16-.64-2-1.4-3.15-2.79-4.62-3.2-3.41-5.73-8.04-10.56-9.51-2.2-.67-3.46-1.51-5.06-3.33l-3.93-2.6c-.89-.59-2.37-1.14-3.51-1.43-1.61-3.52-9.85-9.67-13.27-11.81l-2.55-1.59c-.62-.39-2.31,1.02-3.11.93-2.64-.27-6.75-.91-9.57-.82-2,.06-3.27-.1-5.1-.3-2.68-.29-5.3-.29-8.2-.45-13.84-.76-8.25,3.67-10.65,3.39-.57-.07-1.77-.38-2.26-.67-5-2.99-5.23,2.19-7.91.59-1.82-1.09-2.74.48-3.95.7-3.39.62-10.9,1.18-12.29,5.52-2.96-.34-5.37,1.75-7.99,2.92l-6.08,2.73-6.09,2.76-6.56,3.29-12.95,6.25-8.25,3.73c-1.62.73-3.92,1.21-5.66,1.89-6.79,2.67-2.16,1.57-11.52,4.65l-6.14,2.02c-2.34.77-4.18,1.71-6.74,2.06-3.45.47-6.69,2.24-10,3.33-2.55.84-4.63,1.73-6.99,2.99-1.8.96-4.41,1.08-6.32,1.95l-5.88,2.69c-6.18,2.82-15.61,2.13-22,.6l-8.17-1.95c-1.78-.43-3.87-1.74-5.88-1.93l-5.81-.55-9.47-.53c-1.89-.11-4.89.06-6.75.58-3.19.9-10.27,4.38-12.91,6.23l-8.34,5.85-4.69,3.41c-4.73,3.43-7.89,8.26-10.74,13.3-1.34,2.37-3.2,4.69-4.28,7.12-1.27,2.84-2.96,4.77-4.57,7.41-.82,1.35-1.52,4.16-2.33,5.86l-6.21,13.03-1.8,4.89c-.78,2.12-1.89,3.77-2.77,5.91-3.44,8.41-1.56,5.4-3.59,14.28-1.68,7.35-2.65,11.09-1.76,19.47l.41,3.82c1.37,12.87.49,6.85,3.66,19.24l2.56,10,2.46,6.88c.81,2.26,1.92,4.06,3.21,6.09l7.19,11.32c1.67,2.63,3.87,4.5,5.6,7.1l3.23,4.86,3.72,4.49c2.91,3.51,6.33,5.98,9.89,8.79l6.71,5.3,4.79,3.68c.77.59,2.02.6,3.55.41l.49,3.06,3.61,2.11c.24,2.26,1.17,5,1.82,7.04-1.93,5.64-11.45.32-9.45,2.58l.69.78c1.15,1.3,2.25,2.87,2.93,4.54,1,2.46,2.65,3.75,4.38,5.6l3.35,3.58c1.12,5.06,3.51,6.17,4.12,8.82.84,3.59,2,6.52,3.38,9.8,1.17,2.78,2.84,4.2,5.04,6.31,1.18,1.12,1.76,4.12,3.72,5.37l8.69,5.53c1.58,1,5.03,1.97,5.76,3.63l.98,7.24c-2.29-.3-4.67.54-5.56,2.75l-3.71.73c4.14,9.17,6.91,7.33,11.84,10.78,1.32.92,3.14,1.78,4.55,2.45,5.05,9.56,2.35,12.77,9.23,21.38.96,1.21,1.39,2.83,3.36,2.34-1.03,3.42,1.29,4.34,3.26,5.88l3.67,2.87,3.75,2.77c.56.41,2.47,3.3,6.13,5.4.92.53,2.06,1.2,2.25,1.92.33,1.3-.79,6.46-4.03,6.98-4.86.78-2.66-2.31-8.09-4.13l-4.94-1.65-9.39-11.32c-1.2-1.45-4.13-1.8-4.57-3.87-.5-2.35-1.53-3.24-3.39-4.66-5.17-3.95-2.97-4.98-8.87-11.22-3.94-4.17-4.56-14.43-11.64-16.29-.53-.14-1.58.09-1.99.39-.33.24-.44,1.6-.17,1.98l3.83,5.34,6.3,6.63,3.08,5.31,2.36,3.66c-1.02,2.27,2.2,3.44,2.72,4.79,1.07,2.82,1.97,6.52,4.17,8.91s4.26,4.63,7.51,5.71v3.08c-.02,2.34-1.98,5.76-5.04,4.89-1.6-.45-4.19-1.76-5.67-2.54-1.06-2.22-2.33-4.03-3.73-6.11-1.94-2.87-3.11-6.42-4.89-9.44l-4.04-6.87-3-5.19c-1-1.73-3.21-3.22-4.31-4.71l-4.7-6.37-3.22-3.3c-2.21-2.26-4-4.78-6.39-6.81-1.91-1.62-3.42-3.48-5.59-4.89-1.59-1.03-3.48-2.49-4.64-3.9-8.27-9.97-14.2-9.35-21.56-22.15-3.44-5.98-2.18-11.26-2.62-16.09-.24-2.59-.35-10,.19-11.98,1.13-4.15-.32-7.75-4.01-9.86-2.6-1.49-4.12-4.35-6.18-6.24l-9.22-8.45c-1.49-1.37-3.38-3.74-4.7-4.81-8.65-5.08-6.42-5.53-14.67-10.7-2.58-1.61-5.51-2.31-8.14-3.46l-5.75-2.52-5.75-2.39-12.64-4.95c-5.71-2.24-5.49-3.42-11.62-5.11-5.41-1.49-10.38-1.21-15.8-.39-3.96.6-7.8.98-11.76,1.98l-7.73,1.95c-1.52.38-3.66,1.05-5.11,1.85l-4.05,2.26c-5.51,3.08,4.56-.6,4.69,4.91l.11,4.98c.02.73-.78,2.01-1.4,2.07-.51.04-1.91-.14-2.04-.64-.54-2.12.72-3.98-1.04-4.12-15.38-1.28-8.82-1.52-17.87,2.56-2.07.94-3.68,1.89-5.69,3.11l-4.45,2.71c-2.1,1.28-4.22,2.36-6.2,3.65-6.24,4.04-13.85,12.18-20.63,16.4-6.1,3.79-6.61,5.11-10.74,11.94-2.48,4.1-5.42,10.64-4.89,15.19.93,7.88-4.14,7.76-5.48,13.7l3.65,3.5c1.04,1,2.32,2.08,3.5,3.08.7,1.71,1.74,4.71,3.52,5.75,10.22-.71,15.8-2.19,23.86,5.47,2.19,2.08,3.57,3.98,4.98,6.87.56,1.14,3.02,2.31,3.86,3.35,5.95,7.33,11.17,7.06,20,8.06l4.77.54c3.6.41,7.55-1.1,11.27-1.19,2.31-.06,4.41.04,6.74-.57,3.21-.84,7.66-.34,9.79,1.5.39.34-.26,2.02-.68,2.06-2.74.28-6.11.11-8.97-.14-6.68-.59-3.98,3.84-24.07,1.98-3.96-.37-5.8,2.67-18.13-3.47-2.6-1.29-3.9-2.73-5.72-4.8-1.65-1.86-3.56-2.97-4.75-5.67-.51-1.16-2.97-2.64-3.55-3.76-1.82-3.49-4.94-4.39-8.52-3.99-.67-.65-1.56-1.61-2.17-1.7s-1.95.53-2.44.94l-4.73,4-.7,4.34c-7.62,5.13-8.96-3.49-16.71,2.99l-6.23,5.2c-1.93,1.61-2.86,3.26-3.97,5.54l-4.12,4c-1.16,1.13-1.53,3.6-2.46,4.6-.07.08-3.94,3.29-4.96,3.15-.13-.02-.17.65-.09.84.66,1.6-.83,3.35-1.31,4.64l-3.59,9.58c-.99,2.65.25,6.36.02,9.09-.21,2.51.03,4.4.46,6.89,1.02,5.95-.58,6.83,2.23,17.96.85,3.37,2.57,2.9,3.58,8.7.49,2.84,2.02,4.18,3,6.51l3.41,8.11c.63,1.51.25,3.02-.34,4.39.02.93,1.15,3.3,2.03,3.82l11.97,5.56c3.52,1.64,6.24,3.48,9.99,4.38,5.69,1.36,2.55,1.58,10.14,3.67,2.54.7,5.22,1.6,7.7,2.51l6.42,2.35c2.41.88,6.3.65,8.87.65l1.37,1.71c.3.37,1.44.19,2.1.13,2.05-.19,3.86,1.21,5.49,1.61,3.77.92,7.22,1.52,10.71,3.18,1.83.87,4.75,1.37,6.12,2.59,2.66,2.38,9.28,8.27,12.4,8.83l9.45,1.68c5.33.95,10.2,2.82,15.1,5.1l7.46,3.47c2.47,1.15,4.11,2.34,6.73,3.35,3.64,1.41,6.57,4.88,8.47,5.22,5.72,1.02,2.81,2.84,8.04,4.55.27-2.3,2.47-2.85,3.28-4.46,3.84-7.68,2.68-7.24,4.78-13.7,1.12-3.45.98-7.57,2.61-10.73l2.08-4.04,2.02-3.93c.88-1.71,2.13-3.73,3.39-5.17l5.32-6.08c.66-.75,2.37-2.2,3.2-2.81,2.6-.73,6.88-1.03,9.35-1.97,2.6-.99,5.11-1.69,7.33-2.85,1.57-.83,2.35-1.4,4.33-1.62,2.47-.28,5.06-2.01,7.45-2.55,3.95-.9,7.67-1.62,11.55-2.82,4.96-1.54,9.15-.94,15.8-2.26l6.12-1.22c1.45-.29,3.13-1.36,4.57-1.58l8.68-1.36c3.05-.48,5.95-.85,9.12-1.28,4.04-.56,7.5-3.6,11.32-4.91,8.75-3,3.98.22,10.78-3.63.9-.51,11.89-3.68,13.97-4.18,3.2-.78,6.46-2.32,9.82-2.3,2.4.01,5.8.54,7.6-.85.8-.62,1.55-3.16,2.51-3.34,2.67-.42,4.99,1.12,6.72,3.1l6.06-.62,8.75-.36c9.29-.38,5.82-.88,7.79-.99,3.4-.19,7.39,1.22,10.83,1.59,2.57.28,5.5-.06,7.8.68,6.08,1.96,11.03,4.39,15.89,8.51l8.72,7.4c.47-4.52,8.2-11.27,8.02-12.76-.16-1.32-5.54-3.62-2.66-6.98,1.87-2.18,3.41-4.63,4.97-7.01.92-1.4,1.6-2.25,2.11-4.18.34-1.29,2.32-2.27,3.43-3.3,1.79-1.65,1.23-5.03,2.34-7.12l3.65-6.88,1.61-5.78c.16-.58.21-1.71-.18-2.05-1.15-.99-2.13.83-3.88,1.72l-3.6,1.83c-1.97,1-3.75,1.6-4.87,3.6l-4.48,8c-1.18,2.1-2.31,4.28-3.57,6.09-2.32,3.35-5.74,1.58-8.41,1.84s-3.95,1.72-7.17-.26l-5.87-3.61c-.65-3.84-1.34-7.85-4.36-10.43l-3.58-3.07-2.37,1.91c-3.11,2.52-6.92,4.38-9.17,7.87-.58.9-.95,2.34-1.76,2.68-.66.28-2.29.42-2.8-.02-1.07-.93-1.55-3.84-.82-4.71,2.04-.97,4.09-2.05,5.58-3.74l7.55-8.53c2.49-2.81-2.25-6.38-2.18-6.29l-3.89-5.42c-1.44-2.02-3.16-4.27-4.32-6.46-1.59-3,.37-6.93.33-9.95-.03-2.52-.56-5.02.24-7.2,1.75-4.74,1.07-9.76.81-14.77-.14-2.71-.52-4.66-1.53-7.38-.46-1.33,0-4.08-.34-5.57l-1.21-5.41-2.71-12.16c-.38-1.69-6.85-21.13-7.33-22.1l-2.7-5.52c-1.5-3.06-4.2-5.74-5.86-8.67-1.24-2.19-2.39-4.34-3.73-6.21l-5.72-7.98-5.37-7.99c-.28-.42-2.04-.62-1.95-.16s.29,1.46.43,1.96l2.67,9.97c.73,2.73,3.38,5.18,4.5,7.68,1.21,2.72,2.26,4.97,5.11,6.81-1.09,2.31-3.47,4.34-6.24,4.27l-4.14-7.96c-1.55-2.98-3.43-5.88-5.21-8.75-.87-1.41-1.16-2.19-1.37-3.88-.27-2.16-1.88-4.63-2.51-6.78s-1.07-4.2-2.08-6.21c-2.41-4.81.92-7.84-2.95-11.25-.72-.64-3.09-.64-3.72-.04l-4.77,4.54c-1.1,1.05-5.06.05-5.88-.92.48-3.4.24-6-.8-9.15-.37-1.12-.02-3.23-.13-4.49-.23-2.49-1.51-5.57-.8-7.96l1.68-5.62c-2.32-2.22-7.25-1.36-8.63-3.53-1.2-1.9-1.76-7.12,1.76-9.08-1.1-1.38-2.1-2.95-2.09-4.23.02-5.11,10.51-4.93,13.16-4.46l5.99,1.06c1.24.38,2.53,3.12,3.41,4.46l10.92,1.61c2.03.3,3.82.87,6.14,1.48,2.22,13.83-3.75,10.47-2.63,16.92-5.47,1.78-6.01,7.13-4.89,12.05.33,1.46.45,3.65,1.46,4.62,9.88,9.52,6.75,10.94,9.9,13.62,2.98,2.54,4.53,5.62,6.74,8.69l6.15,8.53c1.57,2.18,2.87,4.76,4.61,6.77,1.85,2.15,2.86,4.09,4.11,6.59,1.09,2.19,2.23,4.24,2.96,6.72l1.86,6.35c.82,2.79,2.53,5.63,3.18,8.39.51,2.18,1.05,3.97,1.68,5.99l3.1,10.1,1.13,6.22c.52,2.83,3.3,13.97,3.52,17.55s.35,7.37.05,10.94l-.87,10.12c-.25,2.85-1.48,6.63-.3,9.19,1,2.18,2.05,3.9,2.67,6.16,3.32.45,5.41,2.95,6.07,6.5.78,1.2,2.25,3.04,3.39,4.43l4.44-2.08c1.29-.6,2.77-.93,4.41-1.31,2.36-.54,2.99-4.33,2.97-6.53l5.38-1.55c1.32-.38,2.67-1.01,3.8-1.73l4.34-2.77c6.92-4.42-1.79-6.04,2.09-9.75.73-.7,3-1.05,3.62-.27.91,1.14,1.85,2.98,2.82,4.51-.25,1.45-.92,4.08-1.48,5.54l-7.83,8.34-3.4,6.02c-.74,1.32-.9,4.04-1.83,5.19-1.59,1.96-1.65,3.31-2.2,5.84-.4,1.86-1.65,5.13-.58,6.72.24.36,1.5.66,1.59.32l.35-1.26c.32-1.15,1.17-2.43,1.63-3.65l1.81-4.83,1.96-4.57c.31-.73.58-2.39.96-3.04s2.26-.81,2.83-1.33c4.68-4.23,2.27-6.2,5.85-7.48,5-4.09,2.55-5.68,5.95-8.06.75-.52,1.7-1.81,1.7-2.56,0-2.68-2.26-1.11-5.31-7.22-.75-1.51-3.68-2.58-4.54-3.9l-3.67-5.66c-2.06-3.17-3.65-6.38-7.62-9.54l-.02-2.23c-2.58-3.08-5.09-6.27-6.42-10.19-.45-1.33-1.88-2.67-2.35-3.67l-3.66-7.83c-4.32-9.24.35-22.52-9.15-17.18-1.32.74-11.45.54-13.97-.22-1.47-1.04-4.67-5.04-5.3-6.31-1.17-2.36-2.35-7.12-.98-9.44l3.16-5.37c2.54-1.6,2.29-2.44,2.7-5.78-.52-1.5-2.28-4.04-1.88-5.37l1.24-4.12c7.74-1.14,9.42-8.43,16.05-7.55,4.96.66,2.03,8.97,4.52,7.6l2.03-1.12,3.86-1.23c.8-.25,2.95-1.36,3.36-.61,1.34,2.45,1.56,5.43,1.13,7.92-2.56,1.22-4.19,4.02-2.66,6.97,2.09,4.04,2.64,8.42,3.69,13.01ZM422.18,203.39c2.39-.8,5.12-.53,5.8-3.88l-9.58.05c-1.89.01-3.62.31-5.46-.16-2.32-.6-4.43-.56-6.73-.3l-4.27.49c-2.17.25-4.11.21-6.51.11-.18,2.73,5.18,4.05,8.08,4.35,6.35.64,12.71,1.35,18.67-.66ZM288.7,335.1c1.89,4.17,1.37,5.51,5.28,9.44.41.42,1.91-.44,1.95-.97.27-4.36-2.1-2.17-1.91-8.89l.17-6.03c.16-5.76-2.6-7.43-2.11-13.77-2.49-4.89-2.21-10.43.84-14.89-.05-1.83-.15-3.92.14-5.38l1.01-5.17c.42-2.15,1.83-4.55,2.95-6.46-.81-3.37,1.45-6.1,2.47-8.92l2.18-5.99,1.85-5.27c.9-2.56,1.92-4.49,3.12-6.78l7.15-13.6c.71-1.35,1.18-3.26,2.62-4.08.53-.31.71-1.72.71-2.46.76-.86,9.42-10.77,6.71-11.64s-5.22,1.98-6.52,4.06l-2.73,4.38c-2.23,1.65-4.48,3.19-5.91,5.62-4.39,7.45-3.15,1.79-6.31,7.44l-2.77,4.96c-.65,1.17-1.5,2.37-2.16,3.67l-4.38,8.65c-.69,1.36-1.41,2.48-2.29,3.79-1.2,1.79-1.9,4.43-3.02,6.29-1.58,2.65-2.95,5.1-4.16,7.92l-1.66,3.87c-.68,1.59-2.09,3.96-1.95,5.8.88,11.99-1.81,8.84-.15,17.16l1.11,5.57c.63,3.17,2.16,8.71,3.29,11.42l1.96,4.72,2.52,5.54ZM684.72,314.21l.21-13.27v-5.48c0-2.27-.93-5.23-1.04-7.43.77-1.52,1.62-2.83.17-4.31-1.27-1.29-.79-4.04-1.49-5.51-1.29-2.69-2.04-4.9-2.95-7.7l-3.28-10.12c-.32-.98-1.57-2.68-1.57-3.73.01-1.25-.24-2.64-.58-3.9l-2.63-9.48c-.14-.52-1.33-1.29-1.92-1.34-.65,4.41,4.93,22.37,4.92,25.74l-.06,13.6c0,2.04.83,3.95,1.19,6.02l1.26,7.41c.49,2.88,1.02,5.04.34,8.13-.36,1.65,1.52,9.7,1.52,9.76l.24,11.42c.02.97.83,2.01,1.67,2.38-.56,1.55-.58,3.88.74,5.49,2.59,1.43,3.25-17.14,3.26-17.67ZM903.11,490.22c2.07-1.95,3.57-3.35,5.16-5.18,4.16-4.8,3.18-4.83,7.64-8.68.53-3.15,2.49-5.81,5.02-7.61.87-2.31,2.05-4.37,3.21-6.48.99-1.79,1.66-3.15,3.24-4.54,2.84-2.5,3.42-6.67,4.85-10.04,1.26-2.97,2.31-5.7,3.21-8.61,1.31-1.76,1.68-4.33,2.62-6.39,1.28-2.82,2.05-5.45,3.06-8.46l2.26-6.73c1.33-3.98,2.9-7.68,3.8-10.82l2.12-7.44c.77-2.71,1.51-5.25,1.93-8.05l.75-5.01c.45-2.99,2.32-6.24,2.39-9.23.18-7.93,1.06-5.07.49-10.96l1.73-9.22c.44-2.33,1.19-4.87,1.24-7.29l.21-10.87c.04-1.98,1.01-4.53.49-6.49-.77-2.88-2.57-5.87-2.64-8.69-.11-3.88-1.5-6.17-3.36-9.48l-2.7-4.8c-1.13-2-2.15-3.54-3.49-5.4l-4.25-5.92c-1.37-1.92-2.02-3.77-3.48-5.34l-5.56-5.98c-4.32-4.65-2.17-3.68-8.38-9.03-2.63-2.27-5.4-4.61-8.34-6.44l-5.34-3.32c-1.92-1.19-3.98-2.21-5.75-3.56-3.43-.44-6.3-2.34-9.48-3.63l-9.03-3.67c-2.62-1.07-7.31-3.46-11.34-3.5-1.43-.02-2.77-1.08-3.99-1.55l-5.65-2.16c-11.15-4.27-11.26-.47-18.66-5.53-3.37.69-6.67.61-9.86.05-.58-.1-1.92,1-1.52,1.38.97.91,3.04,1.3,4.07,1.76,1.97.89,4,1.82,5.79,2.82,1.4.78,2.45,2.07,4.35,2.15l2.56,2.28c2.81.98,5.12,1.99,7.76,3.22,14.04,6.52,12.38,12.22,26.96,16.41l4.95,1.42c5.05,1.45,3.13,1.81,9.71,5.14,6.26,3.17,7.09,6.19,12.34,10.03,1.55,1.13,3.17,2.74,4.46,4.35l4.99,6.23c1.62,2.03,2.67,3.46,3.56,5.84l2.1,5.63c.7,1.88,1.96,4.36,2.97,6.15,2.98,5.28,2.02,4.76,4.26,11.03l2.33,6.53c.92,2.57,2.39,4.6,2.78,7.53.66,4.98,1.66,10.02,1,14.96l-.79,5.87c-.24,1.77-.63,4.22-.94,5.69-1.66,1.47-1.89,2.98-.45,4.85-2.3,2.81-2.86,6.09-3.59,9.57-1.12,5.28-1.92,10.42-.86,15.79-1.37,1.47-1.22,3.41-.38,4.71l-1,3.54c-.72,2.56-1.46,5.05-1.96,7.71-1,5.4-2.01,10.73-4.52,15.65-.88,1.74-.85,3.83-1.96,5.24l-5.89,7.5c.35-.45-2.99,9-6.64,13.64-1.62,2.07-1.87,4.48-2.72,6.88-.63,1.79-2,3.88-2.79,5.73l-2.49,5.79-3.01,6.87c-3,6.86-6.49,9.11-7.66,12.08-.08.21,1.32.48,1.49.32l6.63-6.24ZM669.31,408.29l1.35-2.49c1.15-1.41,2.18-2.66,2.94-4.27l3.71-7.85c3.12-6.6,4-6.07,6.04-13.08.39-1.34,2.51-3.56,5.07-11.81.62-1.98,1.82-3.82,1.61-6.03-.22-2.4,1.39-3.7,2.4-5.48,2.99-5.24,2.58-2.92,5.14-10.54l1.72-5.09c.64-1.91,1.32-2.54,2.83-3.87,1.7-1.49,2.42-4.72,3.6-6.69l3.77-6.32,5.11-8.87c.63-1.09,2.61-2.61,3.37-3.65l2.59-3.56,4.51-6.34c1.86-2.62,3.9-5.14,6.04-7.61l5.09-5.85c1.81-2.08,3.81-1.55,5.49-4.91,2.49-1.83,5.02-3.91,7.32-6.21,1.25-1.25,3.65-1.91,4.81-2.83,9.92-7.89,6.83-2.87,14.73-9.73-2.86-1.67-15.45,6.48-17.4,8.02-1.25.98-3.74,1.79-4.75,2.95-2.1,2.43-5.15,3.36-7.19,5.23-2.26,2.08-4,3.24-6.53,4.77-2.71,1.64-10.38,8.54-12.6,11.17l-5.33,6.3c-2.54,3-3.25,4.96-6.49,8.66l-8.19,9.34-1.19,2.56c-1.41.87-2.41,2.11-3.5,3.06-6.79,5.92-4.02,8.49-6.58,12.69l-2.39,3.91-1.5,3.49c-.5,1.17-.82,2.4-1.46,3.41l-2.26,3.52c1.73,2.16-.66,8.03-1.95,10.37-1.19,2.15-.58,5.83-1.27,8.24-1.17,4.12-1.85,7.49-2.15,11.66-.04.59-.88,1.71-1.16,2.34-.92,2.15-.99,5.27-2.11,7.15-.81,1.35-1.55,2.42-1.81,3.87l-1.07,6.01c-.23,1.31-2.76,2.68-.36,4.36ZM932.09,367.91c.71-6.58,3.44-8.88.98-20.23l-1.81-8.32-2.92-6.49c-.63-1.4.24-3.92-4.87-13.64-1.24-2.36-2.27-4.53-3.72-6.8-.75-1.18-1.41-2.69-1.93-4.09-.75-2.03-2.43-3.06-3.79-4.53l-7.29-7.82-4.57-5.14c-1.57-1.76-1.51-3.98-4.97-3.9-2.82.07-5.29-6.33-9.66-4.31l2.27,3.42c1.73,2.62,4.14,4.51,6.48,6.63l2.51,5.37,2.66,6.08,2.2,5.35,2.12,5.05c.94,2.24,2.34,3.91,3.5,5.95,1.35,2.37,9.79,19.24,10.38,21.07,1.02,3.12,1.98,6.31,2.65,9.46l2.06,9.66c.77,3.61.5,7.54.64,11.28l.89,23.43c.03.68,2.29.27,2.31-.38.01-.56-.51-1.96-.45-2.56l.65-6.62c1.18-11.99,3.04-12.05,3.67-17.91ZM415.61,348.91c.49-.53.92-2.01.85-2.79-2.68-.75-5.52-.7-7.9.86.86,2.33,5.79,3.3,7.06,1.94ZM405.19,361.48l-1.33-4.05c-.19-.58-2.43-.28-2.48.32l-.31,4.32c-.06.8,1.43,1.9,2.17,1.83s2.19-1.68,1.95-2.42ZM308.81,378.17l-3.46-4.56c-.4-.53-2.51-.58-2.83-.21.49,3.15,3.08,4.44,5.02,6.22l5.1,4.68c.33.3,1.2.64,1.63.75,1.14.3.56-4.22-5.46-6.88ZM330.56,420.14c.29.38,1.99.55,1.98.11l-.05-1.64c-.08-2.4-.83-3.8-2.25-5.43-2.59-3-5.27-5.54-9.79-5.72-.45,2.37,5.23,6.3,5.51,6.67l4.6,6.01ZM474.59,430.16c2.94.25,5.63.09,8.45-.44,1.53-4.46,1.64-8.81-.41-12.91-1.12-.2-2.1.97-3,1.72l-10.47,8.7c.22,2.45,3.32,3.8,5.43,2.92ZM348.79,440.31c.71-5.89-2.52-5.56-6.39-11.77-.45-.72-2.3-.16-2.58.75-.19.61.25,1.69.78,2.29l4.85,5.5c1.02,1.16,1.05,2.98,3.33,3.23ZM376.63,492.28c.36-2.76-2.86-4.09-4.29-5.46-2.39-2.31-4.45-5.16-6.13-8.08-1.08-1.87,1.27-4.92,1.83-6.63-8.59-9.69-.96-6.37-13.04-16.57-4.96-4.19-7.86-6.93-12.33-11.73-.8-.86-2.59-3.09-3.37-1.45l-.89,6.26c-.95,6.69,3.89,15.26,9.14,19.82l13.09,11.38c1.17,1.02,2.15,2.48,3.48,3.17,2.49,1.28,3.91,3.25,5.79,5.12l4.13,4.12c.3.3,1.08.88,1.43,1.1.26.17,1.11-.71,1.16-1.07ZM131.54,476.42l-2.93-4.22-1.31-1.84c-.31-.44-2.09-.09-2.44.33-1.01,1.22-.06,5.93,3.54,7.03.89.27,2.85-.25,3.14-1.3ZM108.54,494.81c1.85-.8,5.12-6.56,6.31-7.34l6.82-4.47-3.5-4.93c-6.23.69-6.43,5.59-8.91,9.09l-2.81,3.98c-2.03,2.88-3.96,5.85-5.66,8.93,3.5,2.6,2.5-3,7.74-5.26ZM725.59,565.68c1.73-1.29,4.45-2.4,5.68-4.16,5.66-8.14,5.4-3.9,11.51-11.5l2.76-3.43c2.81-3.5,7.03-6.52,11.02-8.81,1.91-1.1,1.57-2.1,2.53-3.94,1.43-2.74,5.11-7.32,5.65-9.59-5.18-1.65-11.68-3.74-15.15-6.74l-4.35-1.7c-5.75-2.24-13.85-5.09-14.13-12.23-2.62-1.31-5.87-2.33-8.81-1.37-2.7.88-5.36,1.58-7.91,2.6l-4.76,1.91c-3.06,1.23-5.85,1.6-9.1,2.81l-6.96,2.6c-1.77.66-5.16-.34-6.49.54-2.31,1.54-3.41,2.17-6.14.97-.77-.34-2.85.7-2.76,1.61.07.69.92,1.47,1.72,2.06,3.97,2.97,12.1,13.17,13.15,17.29.42,1.66,1.55,2.75,2.43,4.05l2.64,3.94c1.89,2.81,3.85,5.17,6.06,7.66l4.62,5.22c2.46,2.77,4.74,5.34,7.58,7.78,3.64,3.12,5.72,5.01,9.21,2.41ZM638.92,514.27c-3.06-.88-5.68-.75-8.49.1,2.51,2.27,6.36,2.9,8.49-.1ZM701.3,566.73c1.42.85,2.65,1.35,4.27,1.78-.05-1.18-.33-2.51-.6-3.5l-.88-3.15c-1.76-.38-2.6-1.52-3.31-3.29l-3.99-1.83-3.67-5.79c-1.47-2.32-4.21-4.33-5.48-6.8l-2.08-4.02c-1.51-2.93-2.87-5.61-4.67-8.48-6.18-9.86-8.33-5.65-21.47-7.21-1.84-.22-3.39-.41-5.18-.47l-8.72-.32-6.5-.16c-4.68-.12-9.34-.29-13.98.75l-8.04,1.8c-2.9.65-5.26,1.23-7.92,2.61-1.74.9-3.81,1.05-4.45,3.41,5.45-.49,10.68-.74,15.92-1.57,2.02-.32,3.77-.95,5.82-.84,6.09.32,11.68.98,16.94,4.02,1.77,1.03,2.82,2.46,4.73,3.41l4.37,2.16c2.61,1.29,4.04,4.53,6.48,6.1,2.3,1.48,4.44,2.71,6.36,4.64,3.38,3.42,3.6,2.19,9.2,4.99,1.54.77,4.43.92,5.89,1.8,7.26,4.38,8.76,2.67,14.25,5.95l6.71,4.01ZM488.26,539l.74-7.43.71-4.15-8.15,3.41,2.56,4.07c.35.29,1.72.41,1.75.83l.12,1.79c.03.47.35,1.5.51,1.94.12.33,1.72-.1,1.76-.46ZM84.88,542.7c.72-3.07-1.14-5.65-2.58-7.09-.24-.23-1.5.66-1.5,1l.13,6.12c.01.65,1.24,1.79,1.86,1.85s1.89-.98,2.1-1.88ZM630.29,542.36c2.78,1.3,5.72,1.38,8.64,1.52,2.43.11,4.61,2.98,7.65,1.39l-4.27-3.69c-1.46-1.27-3.65-1.17-5.21-1.83-6.89-2.89-12.84-3.41-19.84-2.14-.75.14-2.4-.88-3.12-.82-3.15.25,2,2.11-10,2.97l-6.15.44-2.8,2.14c2.71-.23,5.08-.7,7.42-.63,6.05.19,12.92-.43,16.15-.16l8.23.7c.82.07,2.58-.23,3.3.1ZM664.36,701.88c.74-.86,1.89-2.26,2.6-3.26l2.51-3.54,3.56-.64,1.62-4.41c2.91-2.29,3.24-7.68,6.84-7.77,2.77-.07,4.28-1.21,5.79-3.28l2.94-4.02c1.49-2.04,3.35-3.23,4.47-5.52,1.56-3.2,5.18-4.58,8.71-5.32,2.72-.57-.83-4.1.5-5.96l2.38-3.31c3.46-4.81,4.55-11.15,2.5-16.98,2.59-7.98.68-8.42,2.19-18.39l1.36-8.99c1.41-9.31-1.06-8.39-1.72-9.64-1.64-3.1-4.05-5.76-6.88-7.71-2.25-1.55-3.96-3.5-6.9-4.49-12.64-4.28-7.76-5.13-12.64-7.53l-6.62-3.25c-7.12-3.5-7.88-6.31-12.85-9.02-3.07-1.67-5.82-3.21-9.1-4.49-1.96-.77-4.35-2.33-6.3-2.69l-5.63-1.02c-1.4-.25-3.56-.97-4.82-1.1l-13.02-1.35c-9.31-.96-7.02,1.75-11.61,0-2.64-1.01-6.12-.57-9.12-.67-8.77-.28-10.76.5-18.15.3-3.64-.1-7.19-.36-10.84-.03l-8.74.79c-4.13.37-10.37,1.18-13.49,3.31l-4.3,2.93-7.01,4.55-5.54,3.75c-1.66,1.12-4.69-.26-6.7-.74-1.23,1.18-3.16,3.7-3.33,5.31l-.76,7c-.51,4.66-.55,9.64.33,14.35l.75,4c-3.46,18.5,2.46,15.97,11.67,29.81,2.55,3.84,6.56,6.83,7.34,8.95l2.1,5.66c2.79,7.52,2.38,14.5,3.3,20.6l1.22,8.09c.66,4.36.94,8.58,1.53,12.94l.93,6.82c.24,1.77.96,4.17,1.48,5.98l2.56,8.97c1.64,5.73.11,2.28,1.6,7.46,1.89,6.59,5.36,15.8,12.4,17.95,4.76,1.45,12.93,2.88,16.87-.12,6.73,1.92,4.16-.29,14.29-.47,10.17-.18,5.05-2.12,14.24-3.04-.31-1.15-.38-2.67.22-2.83,4.95,4.74,5.3-.03,12.89-2.61,1.89-.64,4.33-.25,5.63-2.1s4.4-1.4,5.76-2.4c3.22-2.37,5.51-4.33,9.26-5.77,2.96-1.13,14.29-10.16,11.72-15.04ZM709.57,570.04c-.35-.31-1.15-.82-1.51-1.03s-1.66.86-1.38,1.17l4.69,5.05c.4.43,1.95.55,2.37.21s.65-1.45.46-1.96c-.34-.93-1.16-.29-4.64-3.44ZM511.17,592.71l1.93,4.48c5.5,2.01,3.26,8.05,5.5,7.88.39-.03,1.27-.42,1.17-.79l-.41-1.5c-.54-2-.53-4.5-.74-6.75-.84-9.01,0-15.78,1.95-24.76-3.25.07-5.26,2.22-7.23,4.4-6.06,6.67-.33,2.13-4.04,8.97-.62,1.15-1.39,2.73-2.32,2.88-3.53.59-4.31-3.31-7.98-2.48.97,4.33,5.34,3.25,7.53,5.01,1.2.97,1.52,3.89,4.64,2.66ZM479.9,580.45l-3.86-2.51c-2.14-1.39-5.75-1.09-8.29-1.71-7.49-1.82-4.57,2.43-9.58-.61l-10.39-.48c-3.17-.15-6.11.36-9.33.83-1.04.15-3.09.11-4.19.37-.71.17-.54,2.34-.03,2.88.44.46,1.82.82,2.54.68,2.26-.45,3.75.05,5.83.35,5.83.84,11.87.33,17.72-.07,8.03,1.57,10.46-.77,17.74,1.4.65.19,2.28-.74,1.84-1.14ZM720.22,586.5c.47-2.48.11-5.24-2.16-6.61-1.24.63-1.36,3.01-.73,4.32.42.87,1.71,1.74,2.89,2.29ZM465.6,698.78c2.1.31,6.3,4.53,9.96,6.29,2.7,1.31,5.91,1.5,8.44,3.35l5.96,4.36,4.96,5.32c1.82,1.95,4.68,3.16,6.56,4.92,4.72,4.41,8.77,7.35,16.28,6.82l2.75,2.02c6.82-1,7.93,1.65,17.88,2.03.92.03,2.95-1.04,3.66-.49,1.32,1.04,2.87,1.79,4.44,1.27l9.57-3.17-3.46-5.44-1.67-7.23c-.55-2.39-2.91-4.72-2.94-7.23-.02-2.27-1.39-3.93-1.78-5.81l-2.57-12.31c-.46-2.21-1.15-4.14-1.92-6.2l-2.01-5.37c-.75-2.01-.24-4.71.17-6.61-7.21-6.64-2.04-15.66-7.99-17.09-1.69,0-4.85,2.28-6.49.4l-1.14-8.21-4.89-4.42-1.25-5.56c-.52-2.32,1.73-9.37.09-12.13s-2.95-6.51-4.97-8.82c-1.61-1.84-2.52-2.82-3.67-5.25-1.43-3-4.98-5.16-7.01-7.94-.94-1.29-2.26-2.32-3.32-3.44-2.08-2.2-4.37-4.21-7.5-4.69l-3.38-2.98c-1.95-1.72-3.6-1.53-5.65-2.22-2.82-.94-5.33-2.49-8.43-2.95-2.26-.33-5.38-1.56-7.35-1.35-7.02,1.31-14.03,1.24-20.97.4-1.97-.24-5.1.63-7.04.65-1.33-1.82-3.2-1.01-4.67-1.45-3.4-1.02-6.29-1.52-9.97-.82-2.09.4-5.32-.25-7.13.62-1.99.97-2.65,1.07-4.7.55-3.28-.84-6.8.53-10.19.87-3.86.39-7.89,1.05-11.66,1.19-5.1.19-9.12.64-13.96,2.13-2.18.67-12.73.55-17.51,4.53-2.51.93-6.54,1.42-9.51,1.64l-5.61.41-8.14.6c-8.47.63-6.74.44-14.54,2.38-7.31,1.82-16.64,4.44-23.06,8.11-2.68,1.53-5.08,3.3-7.52,5.04-3.52,2.51-6.21,4.69-8.34,8.42-1.67,2.91-2.54,6.05-3.75,8.94-1.56,3.72-3.09,7.59.27,11.31.18,1.72-.3,4.41,0,6.4.73,4.73,4.4,9.76,8.77,11.95,5.02,2.52,10.77,2.59,16.14,3.75l7.8,1.68c2.13.46,4.02,2.03,6.47.88l4.11.16c7.64-3.62,5.58,1.6,12.28,1.03,3.38-2.8,7.19-5.75,11.59-6.17,3.13-.3,5.05,3.25,7.3,4.28,3.12,1.43,6.44,2.32,9.58,3.25l4.93-2.31,11.64-.32c9.01-.25,7.88-3.18,11.77-4.48,2.19-.73,3.79-1.23,5.86-2.24,4.87-2.36,12.08-1.31,17.04.38,4.18,1.42-1.33,9.28-.26,9.52l2.17.49c4.46,1.01,4.57,1.01,7.63,3.74,7.07,6.31,6.41,1.77,15.61,7.35,6.89,4.18,5.93,6.31,11.9,13.11,1.64,1.87,6.13,7.91,8.83,6.7,1.09-1.99,2.46-5.02,5.49-4.57ZM145.01,618.84l1.71.47c.3.08.56-.55.85-1.39-4.95-2.03-10.25-3.61-15.45-5.15-1.02-.3-2.91-2.1-3.78-.37-.38.75,1.68,1.59,2.34,1.97,2.16,1.28,3.87,1.92,6.23,2.5l8.1,1.96ZM749.73,618.14c-1.92-2.16-4.59-2.15-5.76-.84l2.29,5.56,3.47-4.72ZM735.35,632.98l2-2.66-1.73-8.7c-.1-.51-.85-1.38-1.26-1.21-1.95.82-.14,1.58-1.98,6.67-.93,2.58-1.3,4.74-1.16,7.5,1.97.46,3.04-.15,4.14-1.6ZM400.44,670.89c1.11.38,2.42.05,3.08-.6.49-.48.67-1.89.3-2.67-1.51.15-2.85,1.56-3.37,3.27ZM362.48,686.93c5.44-3.4,1.61.29,8.65-2.8.72-.32,2.45-.06,3.43-.03.36-.83-.21-3.12-1.02-3.47-4.56.5-15.68,1.85-19.44.67-2.59-.81-5.19-.46-7.61-.72-4.57-.49-8.87-2.54-13.35-.54-.47.21-1.77.8-1.57,1.23,1.15,2.55,3.41.43,10.06,3.33,1.53.67,3,.52,4.63.64,6.89.48,7.86,2.5,11.49.12l4.73,1.57ZM485.51,814.77c.31,2.33,1.11,4.14,2.31,5.88,2.08,3.02,3.53,5.99,4.91,9.37l2.2,5.39c3.85.63,6.69-1.39,7.21-5.18.08-.61.59-1.56,1.05-1.77.37-.17,1.62.44,1.64.86l.23,6.07c-2.2.82-3.63,3.89-1.94,5.56,1.23,1.21,3.02,2.84,4.37,3.67l5.47,3.33,10.46,6.51,4.58,2.52,13.44,5.83c4.03,1.75,4.81,1.45,9.46,2.82l6.11,1.8c2.68.79,5.95,3.54,9.15,2.74l4.15,1.52c7.21,2.65,8.7,3.82,17.4,3.94,1.87.03,2.81-.64,4.12-1.91s4.24-2.81,3.17-5.22c-1.7-.81-4.59-1.68-6-3l-3.06-2.85c-1.63-3.13-2.55-6.81-5.16-9.27-1.07-1-3.13-3.41-1.17-4.4,1.42-.58,4.83,1.22,5.47,2.66,3.13,7.04,3.02,1.52,5.23,7.71,10.11,5.27,11.71,4.09,23.03,4.17s15.85-1.14,22.66-8.96l4.17-4.79c1.73-1.99,3.34-5.36,4.5-7.81l3.3-6.9,2.07-6.3c.56-1.71,1.16-3.68,1.6-5.33l2.72-10.33c.3-1.13.02-3.37.23-4.61.39-2.29.3-4.22-.37-5.98.27-.94.5-2.39.5-3.54-.09-11.34-1.86-10.75-2.29-20.24-.06-1.28.32-3.71.68-5.06l3.91-14.7c6.16-8.19,2.64-11.03,4.18-19.89.34-1.97.45-3.58.59-5.61.27-3.86,1.13-7.49,1.69-11.38-1.78-.33-3.49.52-4.42,1.93-2.04,3.1-5.02,4.37-7.89,6.35-5.58,3.85-10.92,7.24-17.42,9.38-1.15.38-2.75,1.58-4,1.71-3.09.32-5.61,1.12-8.32,2.02l-4.82.13c-2.97.08-5.05,1.62-7.13,3.63-1.39.54-4.22.61-5.78,1.08l-12.64,3.76c-1.5.45-2.4.9-3.55,2.23-3.1-.24-7.84-1-7.6-5.23.1-1.74,1.51-2.34,3.13-3.34l3.61-2.23c.28-.17.62-1.15.48-1.45-.68-1.44-9.55-.55-11.63.43l-4.48,2.12c-4.62,2.18-5.4-.92-9.49-2.54-2.1-.83-6-1-7.94-.22-1.77.71-3.14,1.45-4.74,1.87l-5.22,1.38c-2.15.57-4.43.78-6.6,1.16-2.77.49-4.74.43-7.45-.05l-5.81-1.04c-2.76,1.87,4.05,6.04,3.09,9.43l-1.85,6.5c-3.23.53-6.32-.66-9.31-2.16l-2.94-1.48-6.25-4.67c.83.62-9.27-9.61-8.98-9.22-5.32-7.03-2.52-2.67-9.59-8.73l-5.59-4.79c-.4-.34-1.9-.29-2.13.18-1.32,2.78,2.07,1.13,2.01,9.24-.04,4.98.17,9.81.8,14.67.44,3.41.5,6.43.32,9.93l-.36,7.09c-.14,2.64,1.41,3.41,2.72,4.77l3.99,4.15c2.6,2.7,5.18,5.48,5.42,9.16-4.05-.09-8.55-7.3-9.79-5.52-2.75,3.95-.99,6.6-1.26,9.76-.2,2.37-.61,4.74-.33,7.14l.66,5.6,1.13,8.54ZM511.6,742.89c-.71-1.15-2.79-3.31-4.89-2.7.36,1.43,2.77,3.71,4.17,4.16.37.12.92-1.14.72-1.46ZM672.64,764.81c-.04-2.35-.21-3.59.32-5.58.38-1.44,3.1-14.37.75-13.5s-2.6,7.03-3.03,10.4c-.96,7.42-.48,9.27-1.06,17.23-.03.38.15,1.31.23,1.66.88,3.96,2.84-7.82,2.8-10.21ZM667.9,823.13l2.68-5.73c.42-.89-1.86-2.13-2.58-2.78-1.51-1.37-.91-4.34-.96-6.31-.16-6.01.78-4.77.06-7.65-.06-.22-1.17.18-1.2.41l-1.11,7.87-.17,2.73c-.82,1.69-.64,2.91-.72,4.89l-.6,15.66c-.16,4.16,6.95-2.26,4.59-9.09ZM478.84,834.79c-.68-1.6-1.5-3.03-3.14-2.51-.68,4.48,1.9,8.05,5.44,10.47,1.45.99,2.5,2.04,4.09,1.32-.57-4.55-3.2-1.76-6.38-9.28ZM654.33,844.75l1.04-.71c2.82-1.94-3.52-1.29-5.35,5.84,2.93-.29,2.9-3.27,4.31-5.13ZM500.9,851.52c-.46-3.49-3.77-5.09-5.9-2.79,1.67,1.32,3.73,2.42,5.9,2.79ZM652.14,869.18c-3.34-1.83-10.27-1.01-12.67,1.16.68.6,15.89.61,12.67-1.16ZM594.22,892.86c-1.63-1.08-4.22-.5-5.86-.27l-3.72-1.96c-2.28-4.11-1.24-7.73-1.77-7.89l-2.4-.75c-.41-.13-1.69.05-2.06.28s.33,1.38.37,1.84c.44,5.59.3,7.87,5.01,10.66,2.56,1.51,5.09,3.48,8.29,3.64,2.21.11,4.02-4.3,2.14-5.55ZM609.53,884.91c-1.46-.2-2.75.11-4,.62l-1.52.62c-.22.09,0,1.3.24,1.33,1.4.21,4.26-.23,5.28-2.57Z"/>
  <path class="cls-1" d="M494.31,426.46c-1.06-4.59-1.61-8.97-3.69-13.01-1.53-2.96.1-5.76,2.66-6.97.44-2.49.21-5.46-1.13-7.92-.41-.74-2.56.36-3.36.61l-3.86,1.23-2.03,1.12c-2.49,1.37.45-6.95-4.52-7.6-6.63-.88-8.31,6.41-16.05,7.55l-1.24,4.12c-.4,1.33,1.36,3.88,1.88,5.37-.41,3.33-.16,4.17-2.7,5.78l-3.16,5.37c-1.37,2.32-.19,7.08.98,9.44.63,1.26,3.83,5.26,5.3,6.31,2.52.76,12.64.96,13.97.22,9.5-5.33,4.83,7.94,9.15,17.18l3.66,7.83c.47,1,1.89,2.33,2.35,3.67,1.33,3.92,3.85,7.11,6.42,10.19l.02,2.23c3.97,3.16,5.56,6.37,7.62,9.54l3.67,5.66c.86,1.32,3.79,2.4,4.54,3.9,3.05,6.12,5.31,4.55,5.31,7.22,0,.75-.96,2.04-1.7,2.56-3.4,2.39-.95,3.98-5.95,8.06-3.58,1.28-1.18,3.25-5.85,7.48-.57.52-2.45.69-2.83,1.33s-.65,2.31-.96,3.04l-1.96,4.57-1.81,4.83c-.46,1.22-1.31,2.51-1.63,3.65l-.35,1.26c-.1.34-1.35.04-1.59-.32-1.06-1.59.18-4.86.58-6.72.54-2.53.6-3.88,2.2-5.84.93-1.15,1.09-3.87,1.83-5.19l3.4-6.02,7.83-8.34c.56-1.46,1.22-4.09,1.48-5.54-.97-1.54-1.9-3.38-2.82-4.51-.62-.78-2.89-.43-3.62.27-3.89,3.72,4.83,5.33-2.09,9.75l-4.34,2.77c-1.13.72-2.49,1.35-3.8,1.73l-5.38,1.55c.02,2.2-.6,5.99-2.97,6.53-1.64.38-3.12.71-4.41,1.31l-4.44,2.08c-1.15-1.39-2.61-3.23-3.39-4.43-.66-3.55-2.75-6.04-6.07-6.5-.62-2.26-1.67-3.98-2.67-6.16-1.18-2.56.05-6.34.3-9.19l.87-10.12c.31-3.57.18-7.3-.05-10.94s-3.01-14.72-3.52-17.55l-1.13-6.22-3.1-10.1c-.62-2.03-1.16-3.82-1.68-5.99-.65-2.76-2.36-5.61-3.18-8.39l-1.86-6.35c-.73-2.48-1.87-4.53-2.96-6.72-1.25-2.5-2.26-4.45-4.11-6.59-1.73-2.01-3.03-4.59-4.61-6.77l-6.15-8.53c-2.21-3.07-3.76-6.15-6.74-8.69-3.15-2.68-.02-4.1-9.9-13.62-1.01-.97-1.13-3.16-1.46-4.62-1.12-4.92-.57-10.27,4.89-12.05-1.12-6.45,4.85-3.09,2.63-16.92-2.32-.61-4.11-1.18-6.14-1.48l-10.92-1.61c-.88-1.34-2.16-4.08-3.41-4.46l-5.99-1.06c-2.65-.47-13.14-.64-13.16,4.46,0,1.28,1,2.85,2.09,4.23-3.53,1.96-2.97,7.18-1.76,9.08,1.37,2.17,6.31,1.31,8.63,3.53l-1.68,5.62c-.71,2.39.57,5.47.8,7.96.12,1.26-.24,3.38.13,4.49,1.04,3.15,1.28,5.75.8,9.15.82.97,4.77,1.97,5.88.92l4.77-4.54c.63-.6,3-.59,3.72.04,3.87,3.41.54,6.44,2.95,11.25,1.01,2.01,1.44,4.02,2.08,6.21s2.24,4.62,2.51,6.78c.21,1.69.5,2.47,1.37,3.88,1.77,2.87,3.66,5.77,5.21,8.75l4.14,7.96c2.76.08,5.14-1.95,6.24-4.27-2.84-1.84-3.89-4.09-5.11-6.81-1.12-2.5-3.77-4.95-4.5-7.68l-2.67-9.97c-.13-.5-.34-1.48-.43-1.96s1.67-.26,1.95.16l5.37,7.99,5.72,7.98c1.34,1.88,2.49,4.02,3.73,6.21,1.66,2.93,4.36,5.6,5.86,8.67l2.7,5.52c.48.97,6.95,20.41,7.33,22.1l2.71,12.16,1.21,5.41c.34,1.5-.12,4.24.34,5.57,1.01,2.71,1.39,4.67,1.53,7.38.26,5.01.93,10.03-.81,14.77-.81,2.19-.28,4.68-.24,7.2.04,3.02-1.92,6.96-.33,9.95,1.16,2.19,2.88,4.44,4.32,6.46l3.89,5.42c-.06-.09,4.67,3.48,2.18,6.29l-7.55,8.53c-1.49,1.68-3.54,2.77-5.58,3.74-.72.87-.24,3.78.82,4.71.51.44,2.14.3,2.8.02.81-.35,1.18-1.78,1.76-2.68,2.25-3.49,6.06-5.36,9.17-7.87l2.37-1.91,3.58,3.07c3.02,2.58,3.7,6.59,4.36,10.43l5.87,3.61c3.22,1.98,4.48.52,7.17.26s6.09,1.51,8.41-1.84c1.26-1.82,2.39-3.99,3.57-6.09l4.48-8c1.12-2,2.9-2.59,4.87-3.6l3.6-1.83c1.75-.89,2.73-2.71,3.88-1.72.39.34.34,1.47.18,2.05l-1.61,5.78-3.65,6.88c-1.11,2.09-.55,5.47-2.34,7.12-1.11,1.03-3.09,2.01-3.43,3.3-.51,1.93-1.2,2.78-2.11,4.18-1.56,2.38-3.1,4.83-4.97,7.01-2.89,3.36,2.5,5.66,2.66,6.98.18,1.49-7.55,8.24-8.02,12.76l-8.72-7.4c-4.86-4.12-9.81-6.54-15.89-8.51-2.3-.74-5.23-.4-7.8-.68-3.44-.38-7.43-1.79-10.83-1.59-1.98.11,1.49.61-7.79.99l-8.75.36-6.06.62c-1.73-1.98-4.05-3.52-6.72-3.1-.97.18-1.71,2.72-2.51,3.34-1.8,1.4-5.2.86-7.6.85-3.36-.02-6.62,1.52-9.82,2.3-2.08.51-13.07,3.67-13.97,4.18-6.8,3.85-2.03.63-10.78,3.63-3.83,1.31-7.28,4.35-11.32,4.91-3.18.44-6.07.81-9.12,1.28l-8.68,1.36c-1.44.23-3.12,1.29-4.57,1.58l-6.12,1.22c-6.65,1.32-10.84.72-15.8,2.26-3.87,1.2-7.6,1.92-11.55,2.82-2.38.54-4.97,2.27-7.45,2.55-1.98.22-2.76.79-4.33,1.62-2.22,1.16-4.73,1.86-7.33,2.85s-6.76,1.24-9.35,1.97c-.83.61-2.54,2.06-3.2,2.81l-5.32,6.08c-1.26,1.44-2.51,3.46-3.39,5.17l-2.02,3.93-2.08,4.04c-1.62,3.16-1.49,7.28-2.61,10.73-2.1,6.46-.94,6.02-4.78,13.7-.8,1.61-3,2.15-3.28,4.46-5.23-1.7-2.32-3.53-8.04-4.55-1.91-.34-4.83-3.81-8.47-5.22-2.62-1.01-4.26-2.2-6.73-3.35l-7.46-3.47c-4.9-2.28-9.77-4.15-15.1-5.1l-9.45-1.68c-3.12-.55-9.74-6.45-12.4-8.83-1.37-1.22-4.29-1.72-6.12-2.59-3.48-1.66-6.93-2.25-10.71-3.18-1.63-.4-3.44-1.8-5.49-1.61-.66.06-1.8.24-2.1-.13l-1.37-1.71c-2.57,0-6.46.24-8.87-.65l-6.42-2.35c-2.48-.91-5.16-1.81-7.7-2.51-7.59-2.09-4.45-2.31-10.14-3.67-3.75-.9-6.47-2.74-9.99-4.38l-11.97-5.56c-.87-.52-2-2.89-2.03-3.82.59-1.38.98-2.88.34-4.39l-3.41-8.11c-.98-2.32-2.51-3.67-3-6.51-1-5.8-2.73-5.33-3.58-8.7-2.81-11.12-1.21-12-2.23-17.96-.43-2.49-.67-4.38-.46-6.89.23-2.72-1.02-6.44-.02-9.09l3.59-9.58c.48-1.29,1.97-3.04,1.31-4.64-.08-.19-.04-.85.09-.84,1.02.14,4.89-3.07,4.96-3.15.94-1.01,1.3-3.47,2.46-4.6l4.12-4c1.11-2.28,2.04-3.92,3.97-5.54l6.23-5.2c7.75-6.48,9.09,2.15,16.71-2.99l.7-4.34,4.73-4c.49-.42,1.83-1.03,2.44-.94s1.5,1.05,2.17,1.7c3.58-.4,6.7.5,8.52,3.99.58,1.12,3.04,2.6,3.55,3.76,1.18,2.7,3.1,3.81,4.75,5.67,1.82,2.06,3.12,3.5,5.72,4.8,12.33,6.14,14.17,3.1,18.13,3.47,20.09,1.87,17.39-2.57,24.07-1.98,2.85.25,6.23.42,8.97.14.43-.04,1.08-1.73.68-2.06-2.13-1.84-6.58-2.34-9.79-1.5-2.33.61-4.42.51-6.74.57-3.71.09-7.66,1.59-11.27,1.19l-4.77-.54c-8.82-1-14.04-.73-20-8.06-.85-1.04-3.31-2.21-3.86-3.35-1.41-2.89-2.79-4.79-4.98-6.87-8.06-7.66-13.64-6.18-23.86-5.47-1.78-1.04-2.82-4.05-3.52-5.75-1.18-1-2.46-2.08-3.5-3.08l-3.65-3.5c1.34-5.94,6.4-5.83,5.48-13.7-.54-4.55,2.41-11.09,4.89-15.19,4.13-6.83,4.64-8.14,10.74-11.94,6.78-4.22,14.39-12.36,20.63-16.4,1.99-1.29,4.1-2.37,6.2-3.65l4.45-2.71c2.01-1.22,3.61-2.17,5.69-3.11,9.04-4.08,2.48-3.84,17.87-2.56,1.76.15.49,2,1.04,4.12.13.5,1.52.68,2.04.64.62-.05,1.41-1.34,1.4-2.07l-.11-4.98c-.12-5.51-10.2-1.83-4.69-4.91l4.05-2.26c1.45-.81,3.58-1.47,5.11-1.85l7.73-1.95c3.96-1,7.8-1.38,11.76-1.98,5.42-.82,10.39-1.1,15.8.39,6.13,1.69,5.91,2.88,11.62,5.11l12.64,4.95,5.75,2.39,5.75,2.52c2.63,1.15,5.57,1.85,8.14,3.46,8.26,5.17,6.02,5.62,14.67,10.7,1.32,1.06,3.21,3.44,4.7,4.81l9.22,8.45c2.07,1.89,3.58,4.75,6.18,6.24,3.69,2.11,5.14,5.7,4.01,9.86-.54,1.98-.43,9.39-.19,11.98.44,4.83-.82,10.12,2.62,16.09,7.36,12.8,13.29,12.18,21.56,22.15,1.17,1.41,3.05,2.87,4.64,3.9,2.17,1.41,3.68,3.27,5.59,4.89,2.39,2.03,4.18,4.55,6.39,6.81l3.22,3.3,4.7,6.37c1.1,1.49,3.31,2.98,4.31,4.71l3,5.19,4.04,6.87c1.77,3.02,2.95,6.57,4.89,9.44,1.4,2.08,2.67,3.9,3.73,6.11,1.48.78,4.07,2.08,5.67,2.54,3.07.87,5.02-2.55,5.03-4.89v-3.08c-3.24-1.08-5.21-3.22-7.5-5.71s-3.09-6.09-4.17-8.91c-.51-1.34-3.74-2.51-2.72-4.79l-2.36-3.66-3.08-5.31-6.3-6.63-3.83-5.34c-.27-.37-.16-1.73.17-1.98.41-.3,1.46-.53,1.99-.39,7.08,1.86,7.7,12.13,11.64,16.29,5.9,6.24,3.7,7.28,8.87,11.22,1.86,1.42,2.89,2.31,3.39,4.66.44,2.07,3.37,2.42,4.57,3.87l9.39,11.32,4.94,1.65c5.43,1.82,3.24,4.91,8.09,4.13,3.24-.52,4.36-5.68,4.03-6.98-.18-.72-1.33-1.39-2.25-1.92-3.66-2.1-5.57-4.98-6.13-5.4l-3.75-2.77-3.67-2.87c-1.98-1.54-4.29-2.46-3.26-5.88-1.97.49-2.4-1.13-3.36-2.34-6.88-8.61-4.18-11.82-9.23-21.38-1.42-.67-3.23-1.53-4.55-2.45-4.93-3.44-7.7-1.61-11.84-10.78l3.71-.73c.9-2.21,3.28-3.04,5.56-2.75l-.98-7.24c-.73-1.66-4.18-2.62-5.76-3.63l-8.69-5.53c-1.96-1.25-2.54-4.25-3.72-5.37-2.2-2.11-3.87-3.53-5.04-6.31-1.38-3.28-2.54-6.2-3.38-9.8-.62-2.65-3.01-3.77-4.12-8.82l-3.35-3.58c-1.73-1.85-3.38-3.15-4.38-5.6-.68-1.66-1.78-3.24-2.93-4.54l-.69-.78c-2.01-2.26,7.52,3.06,9.45-2.58-.65-2.04-1.58-4.78-1.82-7.04l-3.61-2.11-.49-3.06c-1.53.19-2.78.18-3.55-.41l-4.79-3.68-6.71-5.3c-3.56-2.81-6.98-5.28-9.89-8.79l-3.72-4.49-3.23-4.86c-1.73-2.6-3.93-4.47-5.6-7.1l-7.19-11.32c-1.29-2.03-2.4-3.83-3.21-6.09l-2.46-6.88-2.56-10c-3.17-12.39-2.29-6.37-3.66-19.24l-.41-3.82c-.89-8.39.08-12.12,1.76-19.47,2.03-8.88.15-5.87,3.59-14.28.87-2.13,1.98-3.78,2.77-5.91l1.8-4.89,6.21-13.03c.81-1.7,1.51-4.51,2.33-5.86,1.61-2.63,3.3-4.56,4.57-7.41,1.08-2.43,2.94-4.74,4.28-7.12,2.85-5.05,6.02-9.87,10.74-13.3l4.69-3.41,8.34-5.85c2.64-1.85,9.71-5.33,12.91-6.23,1.86-.52,4.87-.69,6.75-.58l9.47.53,5.81.55c2.02.19,4.1,1.51,5.88,1.93l8.17,1.95c6.39,1.52,15.82,2.22,22-.6l5.88-2.69c1.91-.87,4.52-.99,6.32-1.95,2.36-1.26,4.44-2.15,6.99-2.99,3.31-1.09,6.55-2.86,10-3.33,2.56-.35,4.4-1.29,6.74-2.06l6.14-2.02c9.37-3.08,4.73-1.98,11.52-4.65,1.74-.68,4.04-1.16,5.66-1.89l8.25-3.73,12.95-6.25,6.56-3.29,6.09-2.76,6.08-2.73c2.62-1.18,5.03-3.27,7.99-2.92,1.39-4.33,8.9-4.9,12.29-5.52,1.21-.22,2.13-1.79,3.95-.7,2.68,1.6,2.91-3.58,7.91-.59.49.29,1.69.6,2.26.67,2.4.28-3.19-4.15,10.65-3.39,2.9.16,5.51.16,8.2.45,1.83.2,3.1.36,5.1.3,2.82-.09,6.93.54,9.57.82.8.08,2.49-1.32,3.11-.93l2.55,1.59c3.43,2.14,11.66,8.3,13.27,11.81,1.14.3,2.62.84,3.51,1.43l3.93,2.6c1.6,1.82,2.86,2.66,5.06,3.33,4.83,1.47,7.36,6.1,10.56,9.51,1.39,1.48,2.16,2.62,2.79,4.62,1.15,3.63,5.13,5.99,6.8,9.16l4.42,8.33c1.18,2.23,2.11,4.96,3.38,7.04,4.79,7.83,8.35,15.71,10.11,24.73l1.75,9c.56,2.86,1.06,6.18,1.77,8.85,4.25,15.89-.07,11.42,2.3,27.24l.91,6.05c.44,2.91,3.41,6.28,1.36,14.13-1.56,5.97,2.06,4.48.11,11.16-.66,2.25.66,5.29.94,7.68l.71,5.99c.14,1.18-.86,3.35-.37,4.85.94,2.89.63,6.01-1.87,7.58-4.3,2.7-6.84,9.01-11.7,13.44-1.55,1.41-3.45,2.45-4.44,4.27-1.21,2.23-2.84,3.69-5.23,4.82l-1.85,4.31,1.82,5.78,4.99,1.91,5.25-4.46c-1.23-5.62,1.13-4.79,2.59-8.33,1.1-2.67,2.5-3.19,4.94-4.31,1.42-1.06,1.59-4.62,4.65-5.3.51,1.58.87,4.38.29,6.14l-3.13,9.5-2.16,5.56c-.94,2.41-2.12,4.85-2.71,7.33-.83,3.48-2.17,6.31-3.72,9.36-.92,1.81-.74,4.01-2.95,5.13-3.16,1.61-.14,5.27-3.17,5.74-3.74.58-1.28,2.84-4.43,8.23-1.46,2.49-2.23,4.76-3.6,7.31l-2.61,4.86c-.95,1.76-1.01,4-1.86,5.83l-2.16,4.61c-.61,1.3-.61,3.71-1.2,5.25-1.86,4.84-4.16,2.3-3.42,14.38l4.31.35c.05,1.21-.17,4-1.11,4.71-5.45,2.58-1.7,6.75-7.82,12.01-1.23.09-3.51-.01-4.51.32l-4.36,1.76c-.37,2.45-2.38,3.53-4.03,5.25s-3.56,3.54-5.52,4.76c-4.11,4.47-2.03,3.23-6.36,7.95-2.95,3.21-7.82,5.54-5.95,9.41.34.71,1.79,1.02,2.88,1.35,2.82.84-4.57,6.19,3.37,10.52,1.47-.45,3.74-1.63,4.48-2.72,9.87-14.65,6.58-7.03,10.46-12.21l4.14-5.53c1.16-1.55,1.5-2.18,2.77-3.41l3.29-3.22c.09-3.71,2.27-7.4,5.81-8.38-.15-1.54,2.51-8.36,4.06-8.26,3.2.2,5.42.35,7.81-1.4,2.22-1.63,2.73-3.96,3.51-6.82l1.41-5.18c.43-1.58,2.4-2.96,4.13-4l1-3.78c.26-.98.91-1.92,1.78-1.68.5-.26,1.1-.57,1.06-.55-.56-2.4-.25-3.46.69-5.05,1.41-2.4,2.36-4.83,3.77-7.23l4.36-7.38c2.25-3.81,4.15-7.51,6.26-11.35l4.86-8.86c.94-1.72,2.24-3.42,2.9-5.14.97-2.56,3.04-7.18,4.94-8.99.64-.85,1.33-2.85,1.74-4.1.58-1.76,1.72-3.47,2.35-5.09l3.49-8.97,2.98-8.08c.72-1.96,1.43-3.67,2.34-5.53l4.45-9.08,2.31-5.3c.31-.73.2-2.72.82-3.26,1.41-1.23,2.35-3.31,3.23-4.86l2.78-4.9,1.8-3.17,2.86-4.71c5.08-8.38,3.51-2.18,8.05-11.39l.1-1.54c-.45-.79-.37-.73.34.19,1.23.87,2.34-2.02,4.09-4.1s2.73-3.55,3.18-6.24l3.24-1.06c2.81-5.81,4.2-3.18,6.25-9.23l4.45-1.35c3.97-4.66,8.4-7.97,13.25-11.38,1.23-.87,1.63-2.84,3.74-2.65,1.35.12,2.26-1.01,2.93-2.39.47-.97,2.85-1.42,3.79-2.05,2.37-1.6,4.49-2.74,6.95-4.13,6.5-3.65,11.21-8.06,17.43-10.43l7.15-2.72c1.58-.6,3.03-1.77,4.93-2.11,1.6-.29,3.18-1.55,4.32-2.56l13.62,1.01c3.4.25,7.18,1.85,10.51,1.24,2,4.06,1.49-.24,6.84,3.62,1.24.89,2.13,1.8,2.99,3.24.52.88,2.91.79,4.02,1.09l6.76,1.84-.37,1.65-10.1-.2c-13.08-.26-6.57.59-17.46,1.52-6.53.56-9.84,1.51-15.75,3.36-5.3,1.66-10.98,2.57-15.67,5.81-3.49,2.41-5.97.75-9.99,3.51-5.57,3.83-2.91.59-11.5,4.55-1.66.76-3.67.95-5.19.81-1.49,3.37-4.56,2.45-10.56,4.3-2.17.67-4.72,3.05-7.1,2.9-4.36-.28-4.96,1.63-9.08,5.72l7.03,1.2c1.12-.82,2.49-2.26,3.69-2.51l6.77-1.4c-1.53.32,17.65-7.33,17.41-7.2,3.32-1.79,5.94-2.47,9.33-3.64l9.9-3.42c6.65-2.3,2.5-2.74,11.15-3.42,2.26-1.02,4.04-1.71,6.31-2.12l5.04-.91c4.32-.78,9.07-3.19,13.48-2.74,2.45.25,4.3.3,6.79.22l13.55-.41c1.35-.04,4.67-.14,5.5.52l1.7,1.35c.56.45,4.85-2.67,10.71,4.64l7.57,9.43c3.18,3.96,7.1,7.71,9.46,12.19l4.98,9.42c1.63,3.09,3.49,8.42,5.23,11.17s2.72,5.24,4.28,7.93l3.11,5.37,2.88,6.29c1.32,2.9,2.34,6.13,3.52,9.12,2.23,5.66,2.51,11.25,2.22,17.09.64,1.82,1.1,3.96,1.13,6.01.09,6.27.7,10.3.83,16.15l.11,5.33.14,6.71c.08,3.84,1.14,7.89.42,11.76-.99,5.38.3,6.94-2.14,12.55-3.4,7.82-1.85,6.52-5.65,14.42l-1.65,3.44-2.56,4.65c-1.33,2.41-2.65,5.27-3.86,7.97-.77,1.73-.4,4.17-2.19,5.51-2.76,2.07-2.55,5.54-4.04,8.14l-4.38,7.62c-.75,1.3-2.39,2.53-2.85,4.11-1,3.39-3.73,5.42-5.37,8.24-.89,1.53-1.72,3.29-2.83,4.87l-6.54,9.23c-2.59,3.65-8.2,10.08-11.41,12.81-1.16.98-3.01,2.1-3.96,3.07-2.01,2.06-3.79,3.72-6.02,5.56l-11.02,9.11-5.41,4.46c-4.15,3.43-1.66.85-6.04,4.45l-9.95,8.2c-.12.1-1.53,0-1.53.17l.02,1.14c0,.27.16.96-.04,1l-1.63.36c-.91.2-2.21,1.34-3.21,2.05l-13.45,9.58c-5.97,4.25-6.2,2.92-12.56,10.39-5.62,2.46-2.75,2.63-7.89,5.77l-4.53,2.76-4.71,1.84c4.88-1.91-19.62,10.54-17.38,9.3-1.53.85-3.16,2.69-4.68,3.89-3.78,2.98-6.71-3.2-9.58-6.59-.92-1.09-2.19-2.16-3.32-3.32-2.92-3-4.51-.91-5.06-3.59s-1.35-4.94-1.86-7.56l-.57-2.93c-.34-1.77-.85-3.34-.15-4.9.78-1.73,2.71-1.77,4.16-3.05l9.98-8.82c1.49-1.31,1.7-2.65,2.73-3.71l8.44-8.75,3.44-3.41,2.93,3.58,1.29-.61-2.25-3.5c-1.04-1.62,4.95-6.92,4.93-6.91,4.8-3.36,8.52-8.4,7.39-14.7-1.34-1.74-4.31-2.85-6.57-3.44-6.6-1.72-12.32-6.17-12.82-6.38l-9.66-4c-3.04-1.26-8.55-13.1-23.82-9.71-1.22.27-2.95,1.29-4.14,1.74l-4.14,1.55-7.58,2.78c-2.48.91-5.45,1.61-8.05,2.34l-5.46,1.53c-3.89,1.09-7.97,1.59-12.02,2.01l-10.91,1.14c-.56.06-1.86.62-2.52.43-1.98-.58-4.44-.71-6.84-.52-1.24.1-3.16-.96-4.4-1.17l-6.97-1.19c-8.16-1.39-7.82-3.6-17.16-1.05-1.87.51-1.62,2.33-1.58,3.84.12,4.26,2.78,4.43.06,5.04l-4.36.98c-8.15,1.83-7.77,2.18-15.55,4.54-4.97,1.5-4.13,3.39-9.93,6.35-6.14,3.13-3.21.47-8.71,4.08-2.45,1.61-4.27,2.48-7.09,3.05-1.94.39-3.67,3.07-5.44,4.06-1.56.87-3.71,1.26-5.63,1.84-3.06.91-6.13,3.72-9.24,4.42-2.85.64-4.07,1.37-6.26,3.43-1.56,1.46-4.17,2.87-6.22,4.1-2.39,1.43-4.88,1.94-7.56,2.44l-6.89,1.29c-3.46.65-6.66,3.42-10.11,4.41-5.95,1.71-1.71.17-6.33,3.31-.35.24-1.48-.72-1.22-1.14l3.11-4.97c1.04-1.66,1.86-2.94,2.71-4.51l3.45-6.38c.75-1.39,1.2-2.68,1.68-4.33,1-3.49,3.81-6.97,4.33-10.61.59-4.14.97-7.72,2.67-11.56.63-1.41-.14-4.91,1.17-5.88,3-.58,4.68-2.25,7.04-3.54,7.66-4.18,18.39-11.87,24.73-18.03,2.59-2.51,5.03-4.61,7.89-6.88,0,0,6-6.49,6.22-6.76l2.96-3.67c.65-.8,1.75-2.75,2.01-3.82l1.6-6.59,2.88-.54c.82-9.22,2.26-6.59,2.86-14.06l.87-10.84-.42-9.84c-.06-1.5-.19-3.41-.44-4.92l-2.6-15.91c-.64-3.9-1.97-8.07-1.97-11.94l-.02-10.12c3.07-2.65-.84-4.19,3.13-7.27,2.43-1.88-1.72-5.03,2.55-5.1,3.68-.06,6.6-.91,10.06-1.79,1.88-.48,4.24-.6,6.43-.93,5.49-.83,6.11,9.19,7.1,13.44l2.85,12.18c.91,3.89,4.85,7.85,3.15,12.58.97,1.51,1.56,3.07,2.09,4.9.43,1.52,3.45,1.27,4.78.63l-.29-3.11c1.2-1.63.91-7.67.32-9.77l-3.02-10.74c-2.66-9.47-.68-9.43-3.24-16.99-.44-1.3-.68-3.57-.99-4.96-6.43-8.21-3.98-6.93-12.68-6.66l-6.73.21c-.33.01-1.18-.05-1.47-.08-.38-.03.65-1.24.94-1.52l4.93-4.76c5.02-4.86,3.36-4.53,7.67-8.78,1.72-1.69,6.61-6.39,5.65-8.36l-1.44-2.93c-.21-.44-.56-1.52-.97-1.5l-2.32.1c-1.42.06-2.95.93-3.07,2.19-.09,1-.07,2.37-.61,2.57-2.59.96-3.88.61-4.01,2.13-.49,5.65-6.53,3.63-7.4,9.72l-4.06.81-.46,3.32c-1.69,3.18-5.17,3.56-8.02,5.47-7.36,8.55-.23,12.05-3.78,14.44-2.68,1.81-3.86,4.55-4.63,7.63l-1.71,6.91-.53,1.92c-.12.45,1.03,1.5,1.02,2.02-.09,3.65,1.78,14.17,2.81,18.46l2.02,8.39c1.31,5.47,2.8,10.47,2.21,16.32-.24,2.37.15,5.24-.31,7.64-.74,3.92-2.25,8.26-1.95,12.11s-2.65,4.38-3.79,6.74c-.88,1.82-1.57,3.69-2.89,5.49-1.51,2.05-2.65,3.89-4.46,5.59l-6.99,6.57c-3.02,2.84-5.52,6.25-8.71,8.85l-3.34,2.73c-.89.72-3.43.96-4.38,1.54-6.92,8.61-9.58,4.66-15.96,9.62-.28.22-.96.59-1.23.71-.37.16-.7-1.01-.79-1.46-.52-2.55,2.83-3.77,3.28-5.23.58-1.87.47-4.63,1.78-6.51,1.47-2.13,1.71-4.36,1.94-6.91l3.5-4.59,2.18-9.24c.92-3.91,1.09-8.25,1.42-12.34l.53-6.63c.57-7.18-.54-14.17-1.48-21.26-.34-2.61-.35-5.56-.98-7.91l-1.72-6.5c-.64-2.4-1.35-4.76-2.18-7.12-1.35-3.83-2.19-7.56-3.4-11.42l-1.26-4.01-1.88-7.99c-.61-2.6-1.14-4.98-.25-7.74.45-1.4-.01-3.27.15-4.72l1.39-12.02,4.41-2.64.43-4.67c-1.82-2.47.85-7.95,1.93-10.01,1.54-2.9,1.82-6.26,4.71-8.58,2.31-1.86,3.21-4.61,3.9-7.58.75-1.17,3.28-2.34,4.61-3.01,3.18-4.62,7.16-8.38,11.54-11.99,1.9-1.57,2.43-5,3.79-6.95,2.22-3.17,2.12-6.28-.45-9.23-1.58-1.82-3.97-3.78-6.4-3.67-3.37.15-.6-7.11-6.57-9.26-4-1.44-6.16.29-8.56,2.83l-3.37,3.57c-2.35,2.49-5.76,3.68-7.96,6.44-2.57,3.22-6.25,6.58-5.86,11.12,2.14,2.1,6.5,1.66,9.06.34l5.15-2.67c1.45-.75,3.37-1.38,4.63-2.22,2.4-1.6,3.69-.64,5.43,1.03.66.64,1.54,2.07,1,2.67-.85.95-1.79,2.39-2.54,2.7l-6.25,2.63-5.4,4.6c-6.27,1.58-3.79,4.51-8.91,8.62.25,2.52-1.24,4.93-2.54,6.89-2.81,6.94-.75,11.25-1.28,16.86-.13,1.37-1.15,3.57-1.21,5-.09,2.24-.96,3.21-3.62,3.05,3.09,3.2.99,6.32.77,9.8-.88,14.17.48,17.77,4.15,30.86l1.19,4.25,6.04,17.36c.4,1.15.79,3.65.89,4.82l.59,7.15.51,6.88c.2,2.7-.28,5.48.28,8.23.9,4.42.23,8.38-.8,12.65-1.8,7.45-.72,5.91-2.5,13.85-.49,2.21-.68,4.63-1.79,6.72-1.29,2.45-2.12,4.76-3.07,7.35-.84,2.29-3.51,4.14-3.5,6.9v1.12c0,.27-.94.54-1.23.43-3.15-1.27-7.62-7.62-8.31-11.47l-3.29-.4-3.08-5.97c-2.27.03-5.36-5.61-6.25-7.29l-3.77-7.07c-1.46-2.73-3.22-5.12-4.64-7.95-3.13-6.25-3.65-13.1-4.16-20.28,2.51-1.85,5.32-2.35,8.28-2.1l3.48-2.57.71-.52c.71-.52-1.15-.69-1.59-2.45l-.37-1.49c-.08-.32-1.68-.23-1.89.03-1.18,1.51-6.29,2.45-6.93-.31ZM329.77,568.47c.97-1.55.81-4.55-1.08-5.23-2.52-.91-5.83-.6-8.02-1.68l-8.9-4.35c-1.15-.56-3.87-.44-5.13-.82-1.24-3.1-4.28-2.35-6.72-3.38-3.61-1.54-7.68-5.28-9.63-4.87-2.26.47-3.99-.09-5.65-1.53-6.79-5.87-9.66-.43-15.06-8.02-7.65.96-7.43-1.12-11.9,5.2,1.43,1.38,3.06,2.76,4.26,3.38l9.19.62c3.97.27,7.53,1.82,11.31,2.73,1.93.46,3.5.33,5.47,1.47,3.01,1.76,6.47,3.13,9.8,4.3,6.31,2.21,1.25,1.99,11.11,4.22,8.72,1.98,3.18,4.98,14.42,4.69,3.2,2.03-.47,2.19,6.53,3.27Z"/>
  <path class="cls-1" d="M664.36,701.88c2.56,4.88-8.76,13.91-11.72,15.04-3.75,1.43-6.05,3.4-9.26,5.77-1.35,1-4.42.51-5.76,2.4s-3.73,1.46-5.63,2.1c-7.59,2.57-7.94,7.34-12.89,2.61-.6.16-.53,1.68-.22,2.83-9.19.92-4.07,2.86-14.24,3.04-10.13.18-7.56,2.39-14.29.47-3.93,3-12.1,1.57-16.87.12-7.04-2.15-10.51-11.36-12.4-17.95-1.49-5.18.04-1.73-1.6-7.46l-2.56-8.97c-.52-1.8-1.23-4.21-1.48-5.98l-.93-6.82c-.6-4.35-.87-8.57-1.53-12.94l-1.22-8.09c-.92-6.1-.51-13.08-3.3-20.6l-2.1-5.66c-.79-2.12-4.79-5.11-7.34-8.95-9.21-13.84-15.13-11.31-11.67-29.81l-.75-4c-.88-4.71-.83-9.69-.33-14.35l.76-7c.17-1.61,2.1-4.13,3.33-5.31,2.01.48,5.04,1.86,6.7.74l5.54-3.75,7.01-4.55,4.3-2.93c3.11-2.13,9.35-2.94,13.49-3.31l8.74-.79c3.65-.33,7.2-.06,10.84.03,7.38.19,9.38-.58,18.15-.3,3,.09,6.48-.34,9.12.67,4.59,1.75,2.3-.96,11.61,0l13.02,1.35c1.26.13,3.42.84,4.82,1.1l5.63,1.02c1.96.36,4.34,1.92,6.3,2.69,3.28,1.28,6.03,2.82,9.1,4.49,4.97,2.71,5.73,5.52,12.85,9.02l6.62,3.25c4.89,2.4,0,3.26,12.64,7.53,2.95,1,4.66,2.94,6.9,4.49,2.82,1.95,5.23,4.61,6.88,7.71.66,1.25,3.14.34,1.72,9.64l-1.36,8.99c-1.51,9.97.4,10.41-2.19,18.39,2.05,5.83.96,12.16-2.5,16.98l-2.38,3.31c-1.34,1.87,2.22,5.4-.5,5.96-3.53.73-7.15,2.12-8.71,5.32-1.12,2.29-2.98,3.48-4.47,5.52l-2.94,4.02c-1.51,2.07-3.02,3.21-5.79,3.28-3.6.09-3.93,5.47-6.84,7.77l-1.62,4.41-3.56.64-2.51,3.54c-.71,1-1.86,2.4-2.6,3.26Z"/>
  <path class="cls-1" d="M465.6,698.78c-3.04-.45-4.4,2.58-5.49,4.57-2.7,1.22-7.19-4.83-8.83-6.7-5.96-6.8-5.01-8.93-11.9-13.11-9.2-5.58-8.53-1.04-15.61-7.35-3.06-2.73-3.17-2.73-7.63-3.74l-2.17-.49c-1.07-.24,4.44-8.1.26-9.52-4.97-1.69-12.18-2.74-17.04-.38-2.07,1-3.68,1.51-5.86,2.24-3.89,1.29-2.76,4.23-11.77,4.48l-11.64.32-4.93,2.31c-3.14-.93-6.46-1.82-9.58-3.25-2.26-1.04-4.17-4.58-7.3-4.28-4.4.42-8.21,3.38-11.59,6.17-6.7.57-4.64-4.64-12.28-1.03l-4.11-.16c-2.45,1.15-4.34-.42-6.47-.88l-7.8-1.68c-5.37-1.16-11.12-1.23-16.14-3.75-4.37-2.19-8.04-7.22-8.77-11.95-.31-1.99.17-4.69,0-6.4-3.35-3.71-1.83-7.59-.27-11.31,1.21-2.88,2.09-6.02,3.75-8.94,2.13-3.73,4.82-5.91,8.34-8.42,2.44-1.74,4.84-3.51,7.52-5.04,6.42-3.67,15.75-6.3,23.06-8.11,7.79-1.94,6.07-1.76,14.54-2.38l8.14-.6,5.61-.41c2.96-.22,7-.71,9.51-1.64,4.78-3.98,15.33-3.86,17.51-4.53,4.84-1.48,8.87-1.94,13.96-2.13,3.76-.14,7.8-.8,11.66-1.19,3.39-.34,6.9-1.71,10.19-.87,2.05.52,2.71.42,4.7-.55,1.81-.88,5.03-.23,7.13-.62,3.68-.7,6.57-.19,9.97.82,1.47.44,3.35-.36,4.67,1.45,1.94-.03,5.07-.89,7.04-.65,6.94.84,13.95.91,20.97-.4,1.97-.21,5.09,1.01,7.35,1.35,3.1.45,5.62,2,8.43,2.95,2.05.69,3.7.5,5.65,2.22l3.38,2.98c3.13.47,5.42,2.49,7.5,4.69,1.05,1.12,2.37,2.15,3.32,3.44,2.02,2.78,5.58,4.94,7.01,7.94,1.15,2.43,2.07,3.41,3.67,5.25,2.02,2.3,3.27,5.95,4.97,8.82s-.61,9.81-.09,12.13l1.25,5.56,4.89,4.42,1.14,8.21c1.64,1.88,4.8-.4,6.49-.4,5.95,1.43.78,10.45,7.99,17.09-.41,1.89-.92,4.6-.17,6.61l2.01,5.37c.77,2.06,1.46,3.99,1.92,6.2l2.57,12.31c.39,1.87,1.76,3.54,1.78,5.81.03,2.52,2.39,4.84,2.94,7.23l1.67,7.23,3.46,5.44-9.57,3.17c-1.57.52-3.12-.24-4.44-1.27-.71-.55-2.75.53-3.66.49-9.96-.38-11.06-3.03-17.88-2.03l-2.75-2.02c-7.51.53-11.56-2.41-16.28-6.82-1.89-1.76-4.74-2.98-6.56-4.92l-4.96-5.32-5.96-4.36c-2.53-1.85-5.74-2.04-8.44-3.35-3.65-1.76-7.85-5.98-9.96-6.29Z"/>
  <path class="cls-1" d="M485.51,814.77l-1.13-8.54-.66-5.6c-.28-2.4.13-4.77.33-7.14.27-3.17-1.49-5.81,1.26-9.76,1.24-1.78,5.74,5.43,9.79,5.52-.24-3.68-2.82-6.45-5.42-9.16l-3.99-4.15c-1.31-1.36-2.86-2.13-2.72-4.77l.36-7.09c.18-3.51.12-6.52-.32-9.93-.63-4.85-.83-9.68-.8-14.67.06-8.11-3.34-6.46-2.01-9.24.22-.47,1.73-.52,2.13-.18l5.59,4.79c7.07,6.07,4.27,1.71,9.59,8.73-.29-.39,9.8,9.84,8.98,9.22l6.25,4.67,2.94,1.48c2.99,1.5,6.08,2.69,9.31,2.16l1.85-6.5c.96-3.39-5.85-7.56-3.09-9.43l5.81,1.04c2.72.49,4.68.54,7.45.05,2.17-.38,4.45-.59,6.6-1.16l5.22-1.38c1.6-.43,2.97-1.16,4.74-1.87,1.94-.78,5.85-.61,7.94.22,4.09,1.62,4.87,4.72,9.49,2.54l4.48-2.12c2.08-.98,10.95-1.87,11.63-.43.14.3-.2,1.28-.48,1.45l-3.61,2.23c-1.62,1-3.03,1.6-3.13,3.34-.24,4.23,4.5,4.99,7.6,5.23,1.15-1.33,2.05-1.78,3.55-2.23l12.64-3.76c1.57-.47,4.39-.53,5.78-1.08,2.08-2.01,4.16-3.55,7.13-3.63l4.82-.13c2.71-.9,5.23-1.7,8.32-2.02,1.25-.13,2.85-1.33,4-1.71,6.5-2.14,11.84-5.53,17.42-9.38,2.87-1.98,5.84-3.24,7.89-6.35.93-1.42,2.64-2.26,4.42-1.93-.56,3.89-1.42,7.52-1.69,11.38-.14,2.03-.25,3.63-.59,5.61-1.54,8.87,1.98,11.7-4.18,19.89l-3.91,14.7c-.36,1.35-.74,3.78-.68,5.06.43,9.48,2.2,8.9,2.29,20.24,0,1.16-.22,2.6-.5,3.54.67,1.76.76,3.69.37,5.98-.21,1.24.06,3.48-.23,4.61l-2.72,10.33c-.44,1.66-1.03,3.62-1.6,5.33l-2.07,6.3-3.3,6.9c-1.17,2.45-2.77,5.82-4.5,7.81l-4.17,4.79c-6.81,7.83-11.04,9.05-22.66,8.96s-12.93,1.1-23.03-4.17c-2.21-6.19-2.1-.68-5.23-7.71-.64-1.44-4.05-3.23-5.47-2.66-1.96.99.1,3.4,1.17,4.4,2.61,2.46,3.53,6.14,5.16,9.27l3.06,2.85c1.41,1.32,4.3,2.19,6,3,1.08,2.42-1.8,3.91-3.17,5.22s-2.25,1.93-4.12,1.91c-8.69-.12-10.19-1.3-17.4-3.94l-4.15-1.52c-3.2.8-6.47-1.95-9.15-2.74l-6.11-1.8c-4.65-1.37-5.42-1.07-9.46-2.82l-13.44-5.83-4.58-2.52-10.46-6.51-5.47-3.33c-1.35-.82-3.15-2.46-4.37-3.67-1.7-1.67-.27-4.74,1.94-5.56l-.23-6.07c-.02-.42-1.27-1.03-1.64-.86-.46.21-.97,1.16-1.05,1.77-.52,3.79-3.36,5.81-7.21,5.18l-2.2-5.39c-1.38-3.38-2.83-6.36-4.91-9.37-1.2-1.74-2-3.55-2.31-5.88Z"/>
  <path class="cls-1" d="M903.11,490.22l-6.63,6.24c-.17.16-1.57-.1-1.49-.32,1.17-2.97,4.66-5.22,7.66-12.08l3.01-6.87,2.49-5.79c.8-1.85,2.16-3.94,2.79-5.73.84-2.4,1.09-4.81,2.72-6.88,3.65-4.64,6.99-14.09,6.64-13.64l5.89-7.5c1.1-1.41,1.07-3.5,1.96-5.24,2.5-4.92,3.52-10.25,4.52-15.65.49-2.66,1.24-5.15,1.96-7.71l1-3.54c-.83-1.31-.98-3.24.38-4.71-1.06-5.37-.26-10.51.86-15.79.74-3.48,1.3-6.76,3.59-9.57-1.44-1.87-1.22-3.37.45-4.85.31-1.48.7-3.93.94-5.69l.79-5.87c.67-4.93-.34-9.98-1-14.96-.39-2.93-1.86-4.96-2.78-7.53l-2.33-6.53c-2.24-6.27-1.29-5.74-4.26-11.03-1-1.78-2.26-4.26-2.97-6.15l-2.1-5.63c-.89-2.38-1.93-3.81-3.56-5.84l-4.99-6.23c-1.29-1.61-2.91-3.22-4.46-4.35-5.25-3.84-6.08-6.87-12.34-10.03-6.58-3.33-4.67-3.69-9.71-5.14l-4.95-1.42c-14.58-4.19-12.92-9.89-26.96-16.41-2.64-1.23-4.95-2.24-7.76-3.22l-2.56-2.28c-1.9-.08-2.94-1.37-4.35-2.15-1.8-1-3.83-1.94-5.79-2.82-1.03-.46-3.1-.85-4.07-1.76-.4-.38.95-1.48,1.52-1.38,3.19.55,6.5.64,9.86-.05,7.4,5.07,7.51,1.26,18.66,5.53l5.65,2.16c1.22.47,2.57,1.54,3.99,1.55,4.03.05,8.72,2.44,11.34,3.5l9.03,3.67c3.18,1.29,6.05,3.19,9.48,3.63,1.78,1.35,3.83,2.37,5.75,3.56l5.34,3.32c2.94,1.83,5.71,4.17,8.34,6.44,6.21,5.34,4.06,4.38,8.38,9.03l5.56,5.98c1.47,1.58,2.11,3.43,3.48,5.34l4.25,5.92c1.33,1.86,2.36,3.4,3.49,5.4l2.7,4.8c1.86,3.31,3.25,5.6,3.36,9.48.08,2.83,1.87,5.82,2.64,8.69.52,1.95-.45,4.5-.49,6.49l-.21,10.87c-.05,2.42-.8,4.96-1.24,7.29l-1.73,9.22c.57,5.89-.3,3.03-.49,10.96-.07,2.99-1.94,6.24-2.39,9.23l-.75,5.01c-.42,2.8-1.16,5.34-1.93,8.05l-2.12,7.44c-.89,3.14-2.46,6.85-3.8,10.82l-2.26,6.73c-1.01,3.01-1.78,5.64-3.06,8.46-.94,2.06-1.31,4.63-2.62,6.39-.9,2.91-1.95,5.65-3.21,8.61-1.43,3.36-2.01,7.53-4.85,10.04-1.58,1.39-2.25,2.75-3.24,4.54-1.17,2.12-2.35,4.17-3.21,6.48-2.53,1.8-4.49,4.46-5.02,7.61-4.46,3.85-3.48,3.87-7.64,8.68-1.59,1.83-3.09,3.23-5.16,5.18Z"/>
  <path class="cls-1" d="M725.59,565.68c-3.49,2.6-5.57.7-9.21-2.41-2.84-2.43-5.13-5-7.58-7.78l-4.62-5.22c-2.21-2.49-4.17-4.85-6.06-7.66l-2.64-3.94c-.87-1.3-2-2.39-2.43-4.05-1.05-4.12-9.18-14.32-13.15-17.29-.8-.6-1.65-1.38-1.72-2.06-.09-.91,1.99-1.95,2.76-1.61,2.72,1.2,3.83.57,6.14-.97,1.32-.88,4.72.12,6.49-.54l6.96-2.6c3.25-1.21,6.04-1.58,9.1-2.81l4.76-1.91c2.55-1.02,5.2-1.72,7.91-2.6,2.94-.95,6.19.06,8.81,1.37.28,7.13,8.38,9.98,14.13,12.23l4.35,1.7c3.47,3,9.97,5.08,15.15,6.74-.55,2.27-4.22,6.85-5.65,9.59-.96,1.83-.62,2.84-2.53,3.94-3.99,2.29-8.21,5.32-11.02,8.81l-2.76,3.43c-6.11,7.6-5.85,3.36-11.51,11.5-1.23,1.77-3.95,2.87-5.68,4.16Z"/>
  <path class="cls-1" d="M701.3,566.73l-6.71-4.01c-5.49-3.28-6.98-1.58-14.25-5.95-1.46-.88-4.36-1.03-5.89-1.8-5.6-2.8-5.81-1.57-9.2-4.99-1.92-1.94-4.06-3.17-6.36-4.64-2.44-1.56-3.87-4.81-6.48-6.1l-4.37-2.16c-1.91-.94-2.96-2.38-4.73-3.41-5.26-3.05-10.85-3.7-16.94-4.02-2.05-.11-3.8.52-5.82.84-5.25.82-10.47,1.08-15.92,1.57.64-2.36,2.71-2.51,4.45-3.41,2.65-1.38,5.02-1.96,7.92-2.61l8.04-1.8c4.64-1.04,9.3-.86,13.98-.75l6.5.16,8.72.32c1.79.06,3.33.26,5.18.47,13.14,1.56,15.29-2.65,21.47,7.21,1.8,2.88,3.16,5.56,4.67,8.48l2.08,4.02c1.27,2.46,4.01,4.48,5.48,6.8l3.67,5.79,3.99,1.83c.71,1.77,1.55,2.91,3.31,3.29l.88,3.15c.28.99.55,2.32.6,3.5-1.61-.43-2.84-.93-4.27-1.78Z"/>
  <path class="cls-1" d="M669.31,408.29c-2.41-1.68.13-3.05.36-4.36l1.07-6.01c.26-1.46,1.01-2.52,1.81-3.87,1.12-1.88,1.18-5.01,2.11-7.15.27-.63,1.11-1.75,1.16-2.34.3-4.17.97-7.54,2.15-11.66.69-2.41.08-6.09,1.27-8.24,1.29-2.34,3.68-8.21,1.95-10.37l2.26-3.52c.65-1.01.96-2.24,1.46-3.41l1.5-3.49,2.39-3.91c2.57-4.2-.21-6.77,6.58-12.69,1.09-.95,2.1-2.19,3.5-3.06l1.19-2.56,8.19-9.34c3.24-3.7,3.95-5.66,6.49-8.66l5.33-6.3c2.22-2.62,9.89-9.53,12.6-11.17,2.53-1.53,4.26-2.69,6.53-4.77,2.04-1.87,5.09-2.8,7.19-5.23,1.01-1.16,3.5-1.97,4.75-2.95,1.96-1.54,14.55-9.69,17.4-8.02-7.9,6.85-4.8,1.84-14.73,9.73-1.16.92-3.55,1.58-4.81,2.83-2.3,2.3-4.83,4.38-7.32,6.21-1.68,3.36-3.69,2.83-5.49,4.91l-5.09,5.85c-2.14,2.47-4.18,4.99-6.04,7.61l-4.51,6.34-2.59,3.56c-.76,1.04-2.74,2.56-3.37,3.65l-5.11,8.87-3.77,6.32c-1.18,1.98-1.9,5.2-3.6,6.69-1.52,1.33-2.19,1.96-2.83,3.87l-1.72,5.09c-2.57,7.62-2.16,5.3-5.14,10.54-1.01,1.77-2.62,3.08-2.4,5.48.2,2.21-.99,4.05-1.61,6.03-2.57,8.24-4.68,10.47-5.07,11.81-2.04,7-2.92,6.47-6.04,13.08l-3.71,7.85c-.76,1.61-1.78,2.86-2.94,4.27l-1.35,2.49Z"/>
  <path class="cls-1" d="M288.7,335.1l-2.52-5.54-1.96-4.72c-1.13-2.71-2.66-8.25-3.29-11.42l-1.11-5.57c-1.66-8.32,1.03-5.17.15-17.16-.14-1.85,1.27-4.22,1.95-5.8l1.66-3.87c1.21-2.83,2.58-5.28,4.16-7.92,1.11-1.86,1.81-4.5,3.02-6.29.88-1.32,1.6-2.44,2.29-3.79l4.38-8.65c.65-1.29,1.51-2.5,2.16-3.67l2.77-4.96c3.16-5.65,1.92.01,6.31-7.44,1.43-2.43,3.68-3.97,5.91-5.62l2.73-4.38c1.3-2.08,3.94-4.88,6.52-4.06,2.71.87-5.95,10.77-6.71,11.64,0,.74-.18,2.15-.71,2.46-1.43.82-1.91,2.73-2.62,4.08l-7.15,13.6c-1.21,2.29-2.22,4.22-3.12,6.78l-1.85,5.27-2.18,5.99c-1.02,2.81-3.28,5.55-2.47,8.92-1.12,1.91-2.53,4.31-2.95,6.46l-1.01,5.17c-.29,1.46-.19,3.55-.14,5.38-3.06,4.46-3.33,10-.84,14.89-.49,6.34,2.27,8.01,2.11,13.77l-.17,6.03c-.19,6.72,2.18,4.52,1.91,8.89-.03.54-1.53,1.39-1.95.97-3.91-3.94-3.39-5.28-5.28-9.44Z"/>
  <path class="cls-1" d="M932.09,367.91c-.64,5.86-2.49,5.92-3.67,17.91l-.65,6.62c-.06.6.47,2,.45,2.56-.01.66-2.28,1.06-2.31.38l-.89-23.43c-.14-3.74.13-7.67-.64-11.28l-2.06-9.66c-.67-3.15-1.64-6.34-2.65-9.46-.6-1.83-9.03-18.7-10.38-21.07-1.16-2.04-2.56-3.71-3.5-5.95l-2.12-5.05-2.2-5.35-2.66-6.08-2.51-5.37c-2.34-2.12-4.75-4.01-6.48-6.63l-2.27-3.42c4.37-2.02,6.84,4.38,9.66,4.31,3.45-.08,3.4,2.14,4.97,3.9l4.57,5.14,7.29,7.82c1.36,1.46,3.05,2.49,3.79,4.53.52,1.41,1.17,2.91,1.93,4.09,1.45,2.27,2.47,4.43,3.72,6.8,5.12,9.72,4.24,12.24,4.87,13.64l2.92,6.49,1.81,8.32c2.46,11.35-.26,13.66-.98,20.23Z"/>
  <path class="cls-1" d="M376.63,492.28c-.05.36-.9,1.24-1.16,1.07-.35-.23-1.13-.8-1.43-1.1l-4.13-4.12c-1.88-1.87-3.3-3.84-5.79-5.12-1.33-.69-2.31-2.15-3.48-3.17l-13.09-11.38c-5.25-4.57-10.09-13.13-9.14-19.82l.89-6.26c.78-1.64,2.57.59,3.37,1.45,4.47,4.8,7.37,7.54,12.33,11.73,12.08,10.2,4.45,6.88,13.04,16.57-.56,1.71-2.91,4.76-1.83,6.63,1.69,2.92,3.74,5.77,6.13,8.08,1.43,1.38,4.65,2.71,4.29,5.46Z"/>
  <path class="cls-1" d="M684.72,314.21c0,.53-.66,19.1-3.26,17.67-1.32-1.61-1.3-3.94-.74-5.49-.84-.37-1.65-1.41-1.67-2.38l-.24-11.42c0-.05-1.88-8.11-1.52-9.76.68-3.09.15-5.25-.34-8.13l-1.26-7.41c-.35-2.07-1.19-3.98-1.19-6.02l.06-13.6c.01-3.37-5.57-21.33-4.92-25.74.59.06,1.78.82,1.92,1.34l2.63,9.48c.35,1.25.6,2.65.58,3.9,0,1.05,1.25,2.75,1.57,3.73l3.28,10.12c.91,2.8,1.66,5.01,2.95,7.7.7,1.46.22,4.22,1.49,5.51,1.45,1.47.6,2.79-.17,4.31.11,2.2,1.05,5.16,1.05,7.43v5.48s-.22,13.27-.22,13.27Z"/>
  <path class="cls-1" d="M511.17,592.71c-3.12,1.23-3.43-1.7-4.64-2.66-2.19-1.76-6.56-.67-7.53-5.01,3.68-.83,4.45,3.07,7.98,2.48.93-.16,1.7-1.73,2.32-2.88,3.71-6.84-2.02-2.3,4.04-8.97,1.97-2.17,3.98-4.32,7.23-4.4-1.95,8.98-2.78,15.75-1.95,24.76.21,2.25.2,4.75.74,6.75l.41,1.5c.1.38-.78.76-1.17.79-2.25.17,0-5.87-5.5-7.88l-1.93-4.48Z"/>
  <path class="cls-1" d="M479.9,580.45c.44.4-1.19,1.33-1.84,1.14-7.29-2.17-9.71.17-17.74-1.4-5.85.4-11.89.91-17.72.07-2.08-.3-3.57-.79-5.83-.35-.71.14-2.1-.22-2.54-.68-.51-.54-.68-2.72.03-2.88,1.1-.26,3.14-.22,4.19-.37,3.22-.47,6.16-.98,9.33-.83l10.39.48c5.02,3.04,2.1-1.21,9.58.61,2.54.62,6.15.32,8.29,1.71l3.86,2.51Z"/>
  <path class="cls-1" d="M362.48,686.93l-4.73-1.57c-3.63,2.38-4.6.36-11.49-.12-1.63-.11-3.1.03-4.63-.64-6.65-2.9-8.91-.78-10.06-3.33-.19-.43,1.1-1.02,1.57-1.23,4.48-2,8.78.06,13.35.54,2.42.26,5.02-.09,7.61.72,3.76,1.18,14.88-.17,19.44-.67.81.35,1.38,2.64,1.02,3.47-.98-.03-2.71-.29-3.43.03-7.04,3.09-3.21-.6-8.65,2.8Z"/>
  <path class="cls-1" d="M630.29,542.36c-.72-.34-2.48-.03-3.3-.1l-8.23-.7c-3.24-.28-10.1.34-16.15.16-2.33-.07-4.7.4-7.42.63l2.8-2.14,6.15-.44c12-.85,6.85-2.72,10-2.97.73-.06,2.37.95,3.12.82,7-1.26,12.95-.75,19.84,2.14,1.56.65,3.75.56,5.21,1.83l4.27,3.69c-3.05,1.59-5.22-1.28-7.65-1.39-2.92-.13-5.86-.21-8.64-1.52Z"/>
  <path class="cls-1" d="M422.18,203.39c-5.96,2.01-12.32,1.3-18.67.66-2.9-.29-8.26-1.62-8.08-4.35,2.4.1,4.34.14,6.51-.11l4.27-.49c2.3-.26,4.4-.3,6.73.3,1.84.47,3.57.17,5.46.16l9.58-.05c-.67,3.35-3.41,3.08-5.8,3.88Z"/>
  <path class="cls-1" d="M474.59,430.16c-2.11.88-5.21-.47-5.43-2.92l10.47-8.7c.9-.75,1.88-1.92,3-1.72,2.04,4.1,1.94,8.45.41,12.91-2.82.53-5.51.69-8.45.44Z"/>
  <path class="cls-1" d="M108.54,494.81c-5.24,2.25-4.24,7.85-7.74,5.26,1.69-3.08,3.62-6.06,5.66-8.93l2.81-3.98c2.48-3.5,2.68-8.4,8.91-9.09l3.5,4.93-6.82,4.47c-1.2.78-4.46,6.54-6.31,7.34Z"/>
  <path class="cls-1" d="M667.9,823.13c2.36,6.83-4.75,13.24-4.59,9.09l.6-15.66c.08-1.98-.1-3.2.72-4.89l.17-2.73,1.11-7.87c.03-.23,1.14-.63,1.2-.41.72,2.88-.22,1.64-.06,7.65.05,1.97-.55,4.94.96,6.31.71.65,2.99,1.89,2.58,2.78l-2.68,5.73Z"/>
  <path class="cls-1" d="M594.22,892.86c1.88,1.24.07,5.65-2.14,5.55-3.2-.15-5.74-2.12-8.29-3.64-4.71-2.79-4.57-5.06-5.01-10.66-.04-.46-.74-1.61-.37-1.84s1.65-.41,2.06-.28l2.4.75c.53.17-.51,3.78,1.77,7.89l3.72,1.96c1.64-.24,4.23-.81,5.86.27Z"/>
  <path class="cls-1" d="M672.64,764.81c.04,2.39-1.92,14.18-2.8,10.21-.08-.36-.25-1.29-.23-1.66.58-7.96.1-9.8,1.06-17.23.44-3.36.57-9.48,3.03-10.4s-.37,12.06-.75,13.5c-.53,2-.36,3.23-.32,5.58Z"/>
  <path class="cls-1" d="M330.56,420.14l-4.6-6.01c-.28-.36-5.96-4.29-5.51-6.67,4.52.18,7.2,2.72,9.79,5.72,1.41,1.63,2.17,3.03,2.25,5.43l.05,1.64c.01.44-1.68.27-1.98-.11Z"/>
  <path class="cls-1" d="M735.35,632.98c-1.09,1.45-2.17,2.06-4.14,1.6-.14-2.76.23-4.92,1.16-7.5,1.84-5.08.03-5.84,1.98-6.67.41-.17,1.16.7,1.26,1.21l1.73,8.7-2,2.66Z"/>
  <path class="cls-1" d="M488.26,539c-.04.37-1.63.8-1.76.46-.16-.45-.48-1.47-.51-1.94l-.12-1.79c-.03-.42-1.39-.55-1.75-.83l-2.56-4.07,8.15-3.41-.71,4.15-.74,7.43Z"/>
  <path class="cls-1" d="M145.01,618.84l-8.1-1.96c-2.37-.57-4.08-1.22-6.23-2.5-.66-.39-2.72-1.22-2.34-1.97.87-1.73,2.76.07,3.78.37,5.2,1.54,10.5,3.12,15.45,5.15-.28.84-.54,1.47-.85,1.39l-1.71-.47Z"/>
  <path class="cls-1" d="M478.84,834.79c3.18,7.52,5.82,4.73,6.38,9.28-1.59.72-2.64-.33-4.09-1.32-3.53-2.41-6.11-5.99-5.44-10.47,1.64-.52,2.46.91,3.14,2.51Z"/>
  <path class="cls-1" d="M348.79,440.31c-2.28-.25-2.3-2.07-3.33-3.23l-4.85-5.5c-.53-.6-.97-1.68-.78-2.29.28-.91,2.13-1.47,2.58-.75,3.87,6.2,7.1,5.87,6.39,11.77Z"/>
  <path class="cls-1" d="M308.81,378.17c6.03,2.66,6.61,7.18,5.46,6.88-.43-.11-1.3-.45-1.63-.75l-5.1-4.68c-1.94-1.78-4.54-3.07-5.02-6.22.31-.37,2.42-.32,2.83.21l3.46,4.56Z"/>
  <path class="cls-1" d="M131.54,476.42c-.29,1.05-2.25,1.57-3.14,1.3-3.6-1.1-4.55-5.81-3.54-7.03.35-.42,2.12-.77,2.44-.33l1.31,1.84,2.93,4.22Z"/>
  <path class="cls-1" d="M84.88,542.7c-.21.9-1.48,1.94-2.1,1.88s-1.84-1.21-1.86-1.85l-.13-6.12c0-.34,1.26-1.23,1.5-1,1.45,1.44,3.31,4.02,2.58,7.09Z"/>
  <path class="cls-1" d="M415.61,348.91c-1.27,1.36-6.2.4-7.06-1.94,2.38-1.56,5.22-1.61,7.9-.86.07.79-.35,2.26-.85,2.79Z"/>
  <path class="cls-1" d="M652.14,869.18c3.22,1.76-11.99,1.75-12.67,1.16,2.4-2.16,9.34-2.99,12.67-1.16Z"/>
  <path class="cls-1" d="M709.57,570.04c3.48,3.15,4.29,2.51,4.64,3.44.19.5-.04,1.63-.46,1.96s-1.98.21-2.37-.21l-4.69-5.05c-.29-.31,1.01-1.38,1.38-1.17s1.17.72,1.51,1.03Z"/>
  <path class="cls-1" d="M405.19,361.48c.24.74-1.21,2.36-1.95,2.42s-2.22-1.03-2.17-1.83l.31-4.32c.04-.6,2.29-.9,2.48-.32l1.33,4.05Z"/>
  <path class="cls-1" d="M749.73,618.14l-3.47,4.72-2.29-5.56c1.17-1.31,3.84-1.31,5.76.84Z"/>
  <path class="cls-1" d="M720.22,586.5c-1.18-.55-2.47-1.42-2.89-2.29-.63-1.31-.51-3.69.73-4.32,2.26,1.37,2.62,4.12,2.16,6.61Z"/>
  <path class="cls-1" d="M638.92,514.27c-2.13,3-5.98,2.37-8.49.1,2.81-.85,5.43-.97,8.49-.1Z"/>
  <path class="cls-1" d="M500.9,851.52c-2.16-.37-4.23-1.46-5.9-2.79,2.13-2.3,5.44-.7,5.9,2.79Z"/>
  <path class="cls-1" d="M511.6,742.89c.2.33-.35,1.58-.72,1.46-1.4-.45-3.81-2.73-4.17-4.16,2.1-.61,4.17,1.55,4.89,2.7Z"/>
  <path class="cls-1" d="M654.33,844.75c-1.42,1.86-1.38,4.84-4.31,5.13,1.83-7.13,8.17-7.78,5.35-5.84l-1.04.71Z"/>
  <path class="cls-1" d="M609.53,884.91c-1.02,2.34-3.88,2.78-5.28,2.57-.24-.04-.47-1.24-.24-1.33l1.52-.62c1.25-.51,2.54-.82,4-.62Z"/>
  <path class="cls-1" d="M400.44,670.89c.52-1.71,1.86-3.12,3.37-3.27.37.78.19,2.19-.3,2.67-.66.65-1.97.98-3.08.6Z"/>
  <path d="M329.77,568.47c-7-1.08-3.34-1.24-6.53-3.27-11.24.29-5.7-2.71-14.42-4.69-9.86-2.24-4.8-2.01-11.11-4.22-3.33-1.17-6.79-2.54-9.8-4.3-1.97-1.15-3.54-1.01-5.47-1.47-3.77-.91-7.34-2.46-11.31-2.73l-9.19-.62c-1.2-.62-2.84-2-4.26-3.38,4.48-6.32,4.25-4.24,11.9-5.2,5.4,7.59,8.27,2.15,15.06,8.02,1.66,1.44,3.39,1.99,5.65,1.53,1.96-.41,6.02,3.33,9.63,4.87,2.43,1.04,5.48.29,6.72,3.38,1.25.38,3.97.26,5.13.82l8.9,4.35c2.19,1.07,5.5.77,8.02,1.68,1.89.68,2.05,3.68,1.08,5.23Z"/>
</svg>