<?xml version="1.0" encoding="UTF-8"?>
<svg id="Camada_1" data-name="Camada 1" xmlns="http://www.w3.org/2000/svg" viewBox="0 0 1024 1024">
  <defs>
    <style>
      .cls-1 {
        fill: #fff;
      }
    </style>
  </defs>
  <path d="M402.05,853.08c-3.94-3.82-3.38-7.65-4.68-9.68l-4.28-6.68c-2.2-3.44.28-8.59-10.65-16.42l-2.63-4.23c-1.32-2.12-2.97-8.97-3.16-11.98l-.24-3.83c.85-3.21.9-6.31,1.7-9.63l1.18-4.91c.77-3.22.85-6.09,1.36-9.4.76-4.99-4.03-12.84-1.77-19.29l-.45-3.72,1.37-7.35.75-3.99c-9.13-1.34-16.72,1.7-25.87.14l-11.47-1.95c-1.76-.3-4.35-1.17-5.75-.28l-2.29,1.46c-1.72,1.1-4.9-2.91-6.02-4.5l-12.03-3.17c-1.92-.51-4.99.49-6.82-.15-4.45-1.56-8.97-1.71-13.15-3.12l-15.66-5.26-5.63-1.86c-6.45-2.12-13.1-2.98-19.81-3.96l-6.58-.95-5-.58c-2.14-1.21-3.71-1.39-6.31-1.48-4.8-.17-10.06-2.71-12.3-2.99-2.59-.33-4.5-1.01-6.85-1.72l-7.5-2.28c-5.25-1.59-9.66-2.88-14.59-5.53-3.37-1.81-10.62-3.19-12.53-4.3l-5.48-3.19c-1.33-.77-2.98-1.81-4.21-2.7l-3.5-2.52-11.81-8.16-4.89-3.31c-2.07-1.4-4.25-3.74-5.72-5.81-1.86-2.64-8.79-10.04-11.51-12.64-1.19-1.13-2.37-3.01-3.23-4.54-1.63-2.9-3.87-5.19-5.68-7.99l-3.39-5.23c-2.98-4.61-6.62-8.33-9.91-12.89-.41-.56-.7-2.19-1.1-2.83-2.52-3.93-5.31-8.6-7.26-12.87-1.11-2.44-3.03-3.24-5.04-4.48-2.27-1.4-4.34-3.56-6.5-5.26s-4.35-3.39-6.46-5.4l-3.6-3.43c-1.9-1.81-3.05-4.01-5.09-5.77l-4.27-3.68-3.02-3.5-3.51-4.1c-2.17-2.54-4.1-5.08-6.21-7.86-2.45-3.23-.13-7.68-4.61-15.4-1.05-1.81,1.63-4.85,3.59-5.23-.02-8.99.72-6.69,1.36-13.08l.73-7.37,1.02-7.64c.44-3.32,1.2-6.59,1.89-9.83,4.42-3.64,4.92-7.95,7.3-9.15l4.48-2.26c3.42-1.72,7.59-3.51,11.39-3.97l14.83-1.83,17.06-3.54c7.83-1.63,10.31-1.21,17.03-2.73l7.17-1.62c8.41-1.9,5.6.28,18.45-3.73,2.37-.74,4.49-1.16,6.9-1.7l11.04-2.47,17.55-4.96c1.86-.53,4.06-.88,5.95-1.1,5.81-.69,10.94-2.55,16.69-3.71l7.33-1.49c2.19-.44,4.22-.98,6.4-1.33l18.1-2.94,14.39-2.69,6.15-.89,12.81-1.37c.52-.06,1.68-.66,1.96-1.1.45-.69-1.44-4.38-2.48-7.08l-1.52-3.96c-.94-2.45-2.5-4.89-2.94-7.58-.47-2.92-1.44-5.1-2.49-7.86l-2.97-7.83c-1.73-4.54-3.36-7.68-4.46-11.22l-1.78-5.76c-.87-2.81-2-5.84-2.49-8.68l-1.05-6.09c-.3-1.74-.91-3.33-1.51-4.96l-2.31-6.33c-1.2-3.3-2.53-6.33-4.21-9.44l-3.23-5.96c-.69-1.28-1.54-2.99-2.01-4.31-.71-1.99-1.55-3.05-2.38-4.9l-2.49-5.54-3.87-5.43c-.84-1.18-1.62-2.42-2.34-3.72-5.03-9.1-1.11-5.12-4.45-11.58.3-4.65,1.22-9.56,2.39-14.18,4.73-6.37.32-5.35,7.12-11.59l5.98-5.48c1.41-1.29,3.87-2.09,5.4-3.69,2.67-2.78,6.68-3.86,9.8-5.87,2.2-1.42,3.77-3.12,6.46-3.8,2.29-.58,6.35-4.55,11.11-6.58l6.57-2.8c1.29-.55,3.49-.15,5.05-.12,5.28.09,9.78,1.8,14.85,3.08l9.03,2.28c1.95.49,4.01,1.29,5.93,1.55,3.17.43,6,1.49,9,2.14,4.72,1.02,9.12,1.8,13.54,3.46l6.76,2.53c3.54,1.33,7.57,2.14,10.84,3.82,11.02,5.67,7.91,3.55,18.29,7.66l6.62,2.62c1.23.49,2.51,1.02,3.8,1.36,2.07.54,3.94,1.55,5.84,2.2l9.31,3.2c3,1.03,5.79,1.93,8.7,3.33,1.55.75,3.22.78,4.97,1.13,3.38.67,6.73,1.7,10.09,2.69,4.57,1.34,9.36,1.93,13.9,3.43l5.43,1.8,9.46,3.41c3.62,1.3,7.26,2.81,10.75,4.4,5.37,2.45,9.14,7.38,13.81,10.73,5.83,4.18-2.38.34,7.91,7.43.77.53,2.66,1.83,3.51,1.46,3.01-1.3,4.88-4.42,6.26-7.31,3.38-7.08,5.05-3.76,8.46-9.42.91-1.52,2.13-2.31,3.62-3.42,1.97-1.47,3.16-4.56,5.03-6.15,9.72-8.25,2.79-7.04,11.36-11.06,1.08-.56.91-3.74,1.59-4.79,2.9-4.46,5.45-9.09,7.2-14.06l2.24-6.38c2.19-6.24-.54-3.69,3.19-14.63.66-1.93.9-3.73,1.33-5.83l1.07-5.28c.75-3.73,1.3-7.07,1.6-10.89.09-1.19,1.06-3.31.97-4.4-.38-4.64,2.89-12.42,4.27-17.05.86-2.86,1.96-5.46,3.04-8.16,1.24-3.09,1.98-6.5,3.7-9.63.97-1.77,1.86-4.06,2.98-5.56l5.33-7.14c1.27-1.71,2.25-3.34,3.51-5.25.79-1.18,2.45-2.7,3.47-3.93l4.91-5.9c1.03-1.24,1.67-2.5,3.03-3.45s1.96-2.07,2.59-3.54c1.53-3.56,5.07-5.64,7.91-8.08l3.19-2.75,9.49-7.92c1.28-1.07,2.59-3.14,4.43-3.34,2.29-.25,2.43-2.75,3.64-3.51,9.27-5.88,7.11-6.13,16.99-11.72l6.66-3.77,7.77-4.61c2.03-1.21,3.32-.95,5.66-1.16,4.02-.36,8.91-1.71,14.52-.83,7.3,1.15,13.8-1.5,20.26-4.46l5.92-2.71,4.97-2.31c3.57-1.66,6.38-2.58,9.54-4.91,2.2-1.62,5.97-2.13,8.62-3.2,5.27-2.12,10.42-2.44,16.06-2.42,2.55,0,4.44.34,6.65,1.48,1.22.62,2.43,1.1,3.39,2.05,3.26,3.24,7.61,6.73,7.83,11.66.11,2.43-.05,4.61.87,7.18-.27,1.4-1.2,3.8-1.29,5.27-.15,2.61-.58,4.68-.9,7.17l-1,7.83c-.17,1.33.72,3.43.24,5.09-2.31,7.93-.9,10.51-5.72,16.43l-.63,3.63c-2.72.92-1.81,3.43-2.34,5.04l-2.19,6.57-1.56,4.2c-.58,1.57-2.72,3.56-3.12,5.08-1.55,5.92-1.34,2.48-4.76,9.48l-2.72,5.58c-.6,1.23-.75,2.81-.93,4.41-.62,5.47-1.79,10.98-.6,16.3.64,2.86.6,5.62.5,8.58l-.13,3.66c-.29,8,.69,15.41-.02,25.33-.18,2.54-1.4,4.3-.11,7.14.55,1.21.43,3.82.53,5.45l.59,9.83c.06,1.08-.64,2.81-1.19,3.82.8,1.87,1.18,4.09,1.53,6.35l.74,4.86c.67,4.38-.14,8.63.07,13.07.36,7.61.9,14.92,1.73,22.64.21,1.98-.26,4.3.17,6.34.74,3.48.87,6.83,1.45,10.25l1.14,6.77,3.07,11.18c1.06,3.85.1,8.25.01,12.17l-.39,17.51-.87,8.62c2.31-.24,3.45-1.18,5.18-2.29,1.98-1.27,5.03-2.39,6.46-4.26,1.8-2.35,3.52-3.5,5.88-4.99l8.58-5.44,3.97-2.64c5.43-3.6,6.53-2.63,10.99-6.78,1.49-.42,4.37-1.16,5.86-1.3,8.28-.76,2.85-3.08,18.98-3.87,3.14-.15,6.82-.03,9.62,1.05l11.2,4.33c7.28,2.82,9.79,1.45,13.52,4.85,1.98,1.81,5.36,2.72,7.57,4.27.9.63,2.19,2.1,3.16,2.26,2.19.37,4.01,1.36,5.47,3.23,1.64,2.09,4.64,2.44,6.83,3.65,2.89,1.6,5.65,3.4,8.83,4.62l5.07,1.95c.64.25,1.98,1.26,2.59,1.61,3.34.86,6.24,2,9.03,4.02,9.08.11,4.77,1.2,13.91,1.92,3.94.31,4.98.31,8.2,2.04,7.09-.98,6.55-4.52,11.65-4.36l2.72,3.17c.66,1.74,1.44,3.92,2.58,5.41l3.1,4.06c.13.69.1,2.74.4,3.48l4.34,10.52,1.6,7.21c.55,2.45,1.15,5.16,2.01,7.39l2.07,5.35c1,2.58.43,4.69.97,7.34l2.19,10.69c.34,1.64-.27,2.61.72,4.17.33.52.22,1.62.11,2.64-.45,4.23,1.46,3.32.24,11.77-.73,5.07-3.61,9.44-5.74,14.02-1.98,4.26-1.68,5.39-4.09,8.77-1.59,2.23-2.92,3.88-2.27,7.07l-2.64,1.46c-2.26,2.78-4.62,5.1-7.2,7.47-2.25,2.06-4.4,3.17-7.64,3.58l-7.74.98c-1.14-1.17-2.72-2.02-4.46-2.07-9.14-.26-11.41,4.25-17.78,6.64-2.82,1.05-5.64,2.15-8.43,2.94l-19.47,5.5c-3.62,1.02-7.18,2.24-10.76,3.11l-9.62,2.34c-4.99,1.22-9.87,1.63-14.86,2.07-7.92.7-23.82,3.12-31.13,5.56l-8.94,2.99c-2.03.68-3.42,1.92-4.18,4.06l-4.03.18c-3.22,3.24-6.22,6.37-9.26,9.76-1.3,1.45-3.55,3.53-2.44,5.73,1.81,3.61,5.35,4.52,6.36,6.33,1.14,2.06,2.32,2.63,3.94,4.06,2.33,2.07,4.67,5.04,6.56,7.63l2.84,3.89c.5.68,1.47,2.15,1.92,2.89.25,3.88,4.82,11.82,7.94,14.08,2.94,2.12,2.8,4.6,3.53,7.73.57,2.42,1.54,5.38,2.4,7.61.76,1.97,1.45,3.25,1.59,5.42.8,12.35,1.41,10.85,2.82,21.65l2.74,20.88c.46,3.48.12,6.86-.2,10.36l-1.22,13.4c-.16,1.77-3.17,15.54-3.8,17.44-.79,2.35-1.75,4.46-2.35,6.85-1.86,7.43-2.33,14.59-2.85,22.07-.48,6.9.72,13.06,1.72,19.95l.96,6.56c.19,1.29.9,2.34,2.05,3.3l-2.26,19.84c.12-1.84-3.07,7.89-2.61,6.37l-1.39,4.57c-1.18,3.88-4.18,7.22-7.06,9.97l-9.15,8.75c-1.57,1.5-3.16,2.94-5.02,4.07-2.12,1.28-2.62,3.92-4.26,5.18l-6.02,4.62c-1.51,1.15-3.32,2.63-5.04,3.39-7.16,3.13-11.44,8.84-23.76,2.2-2.17-1.17-4.26-1.65-6.62-2.25s-4.3-3.12-6.45-4.1l-13.09-5.96c-7.49-3.41-15.3-6.59-21.47-12.36l-2.61-2.44c-3.78-3.53-3.62-3.8-7.32-7.22l-11.48-10.62c-1.35-1.25-2.73-2.72-4.01-4.1-3.5-3.75-7.4-6.64-11.37-9.72-1.83-1.42-3.53-2-5.71-3.25l-6.77-3.86c-1.57-.89-3.42-1.67-4.89-2.54-1.62-.96-2.99-1.74-4.62-2.56l-8.23-4.14c-3.2-1.61-6.35-2.37-9.57-3.6-.03-.01-13.27-7.15-13.19-7.1l-7.71-5.36-5.98-4.24c-1.46-1.04-3.19-2.83-5.09-2.27-1.14,2.85,1.02,5.23,1.93,7.64.57,2.95.2,6.56.58,9.67.57,4.72.41,9.29-.69,13.8-1.47,6.05-2.33,12.06-3.23,18.39-1.02,7.2,1.35,5.85,1.15,14.51l-.29,12.43c-.06,2.73-2.61,15.35-4.23,18.27l-2.37,4.28c-1.84,3.31-4.28,6.14-5.78,9.8-2.13,5.18-4.27,10.19-7.84,14.69l-3.88,4.9-7.29,7.25c-3.74,3.73-10.51,7.6-15.48,9.73-4.29,1.84-9.08,2.07-13.56,3.27-3.3.88-6.69,1-10.13.91l-6.48-.17c-4.44-.12-8.62-.54-13.01-1.01-3.84-.42-6.92-2.25-10.29-3.81-2.34-1.09-4.52-2.14-6.82-3.35l-3.98-2.1c-6.69-3.54-6.64-4.81-10.32-6.89-2.47-1.4-4.86-2.51-6.59-4.8-1.94-2.58-4.92-4.54-6.62-7.25-4.36-6.99-1.88-7.18-7.44-12.79l-3.77-3.8c-8.58-8.66-4.31-2.26-11.43-8.45l-9.95-8.66-4.9-4.75ZM731.17,123.66c3.58.15,8.31-1.98,7.64-3.38-.19-.4-1.28-.89-1.78-.84l-9.54.91-6.26,1.53c-.41.1-1.1,1.21-1.1,1.64,0,1.18,6.4-.05,11.04.14ZM599.18,384.53l.04,8.11c0,.5-1.32,1.52-1.62,1.93l-5.73,7.98c-.7.97-2.91,3.08-1.4,3.89,1.27.68,3.54.44,5.05.09,2.51-.58,5.96.22,6.32,3.05.16,1.25.04,3.43.7,4.18.77.87,1.81,2.2,1.62,3.03-.39,1.63-4.62,4.38-6.2,5.36-1.45.91-5.39.65-7.01.01-2.2-.86-3.99-3.47-5.91-4.98-1.85-.02-3.07,2.49-4.19,3.7-2.08,2.25-3.21,4.85-.73,7.64l4.45,5.01c1.61,1.81,2.56,4,3.77,6.03,2.43,4.08,3.19,9.22,3.57,14.32l.52,6.96c.19,2.47.14,4.82.15,7.31.04,5.87.37,12.11-2.82,17.55-2.45,4.17-1.97,5.6-4,9.86l-3.71,7.81c-4.14,8.71-5.91,4.17-9.17,15.26-1.45,4.92-2.85,9.71-3.19,14.99l-.52,8.07c-.21,3.23.02,6.73-.41,9.96-.7,5.15-.06,9.6.49,14.68.49,4.59.27,9.33.12,14.1-.08,2.49-1.4,5.51-2.05,7.91-1.22,4.48-3.14,7.96-5.43,11.91-.9,1.55-1.15,4.1-2.52,5.51-3.76,3.86,1.96,4.82-1.21,9.68-1.14,1.75-2.08,3.88-3.27,5.34-5.33,6.59-6.22,5.3-12.54,14.11-.06.09-7.23,9.88-4.45,9.28.23-.05,1-.19,1.18-.36l4.66-4.34,3.52-3.17c1.5-1.35,2.73-3.37,4.11-5.13.93-1.18,3.42-2.39,4.2-3.66,1.73-2.82,3.13-4.92,5.84-6.77s1.02-2.34,4.23-6.49l4.02-5.18c2.36-3.05,9.1-12.11,10.25-15.02l2.77-7.01c2.5-6.32,3.56-7.31,4.5-13.16.49-3.05,1.73-6.1,2.52-9.12,1.15-4.38,1.42-8.64,1.82-13.06l1.21-13.33.67-6.65c.26-2.6.64-5.31.7-8.13l.12-5.97c.13-6.28,1.94-8.62,3.26-14.52.38-1.69,1.73-3.54,2.58-5.17.98-1.9,2.14-3,3.66-4.52l5.32-5.29,4.35-3.37c.64-.37,2.27-.96,2.89-1.36l6.1-3.94c1.03-.66-.59-2.82-1.83-3.2-1.11-.34-1.9-2.44-1.66-3.62.71-3.4,7.6-5.85,10.67-6.85,3.62-1.18,7.11-2.44,10.85-3.12l4.47-.82c2.87-.52,6.37-.35,9.38-.25l4.89,4.91c1.18,1.18,1.56,4.81.4,6.01-1,1.03-3.5,1.91-3.81,3.09-.6,2.29-.39,4.9-1.54,6.75-2.43,3.93-5.03,7.38-8.24,10.68l-3.36,3.46c-2.07,2.13-3.21,4.07-5.7,5.96-1.46,1.11-2.42,3.81-3.82,5.12-1.86,1.74-3.1,3.42-4.52,5.31-5.17,6.9-.68,4.08-5.13,11.76-1.08,1.87-5.67,3-7.1,1.53-3.57-5.59,4.6-16.34,8.13-20.65l7.33-8.97c1.68-2.05,3.43-4.08,5.46-5.94l4.83-4.41c.25-3.72-8.06-1.84-9.93-1.45-3.83.79-7.02,2.03-10.5,3.76-2.18,1.08-3.61,2.98-5.35,4.32-3.38,2.6-6.38,4.74-8.53,8.57l-2.9,5.17c-1.15,2.04-1.78,3.86-1.96,6.21l-.7,9.09-.55,4.32-.94,10.4-.93,9.19-1.41,10.26-.93,7.09c-.4,3.04-1,5.62-1.95,8.51-1.16,3.53-1.27,7.78-2.98,11.09-.54,1.04-1.37,2.2-1.53,3.25-.43,2.75-1.88,4.51-2.93,6.87l-2.83,6.31c-1.31,2.92-2.92,5.13-4.85,7.66l-3.26,4.28c-1.62,2.13-3.12,3.77-5.25,5.58l-1.37,1.17c-.23.2.83,1.49,1.1,1.35l7.96-3.89,11.66-6.28c2.79-1.5,5.42-3.07,8.18-4.74l9.1-5.48,11.75-6.64c6.37-3.61,2.24-3.26,11.68-6.45l10.29-3.47c1.43-.48,4.12-.87,5.63-1.05,1.19-.15,3.58,2.46,4.68.29l1.47-4.8c8.57-7.53,2.49-8.47,4.8-11.18,1.63-1.92,4.23.85,7.65-2.26l6.23-5.65c1.43-1.3,2.75-2.25,3.67-4.14.74-1.52,2.1-4.12,3.59-4.62,2.49-.84,2.5-2.71,3.72-4.3l6.52-8.5c2.47-3.22,4.51-6.38,6.38-9.93l2.43-4.62c.77-1.46,1.9-3.21,2.77-4.59.22-.71.69-2.4.85-3.13,1.71-2.97,2.75-6.26,4.18-9.35l3.82-8.21c.92-1.99,2.09-4.03,2.7-6.21.58-2.06,1.55-3.77,2.29-5.7,4.03-10.59,3.8-17.45,5.44-21.84,2.63-7.04,2.63-16.59,3.98-25.2.24-1.54-.06-3.48.05-4.97.63-8.01,1.59-15.03.11-22.95-.63-3.38-1.96-6.3-2.81-9.5l-1.98-7.5c-.66-2.48-1.03-5.39-1.99-7.7-1.11-2.65-1.58-4.61-2.05-7.36l-.95-5.59c-.46-2.68-1.8-5.65-2.69-8.5-.72-2.32-2.26-4.65-3.19-6.94l-3.39-8.41-3.43-7.91-2.87-5.85c-.44-.9-.9-2.94-1.17-4.05l-1.7-7.01-1.65-6.52c-1.24-4.88-2.19-9.91-2.78-14.92l-.86-7.21c-1.47-12.32-2-13.41-1.23-26.65.22-3.83,1.27-7.34,1.82-11.1l1.06-7.28c.34-2.31.85-3.85.93-6.16.18-5.09,1.6-12.87,3.61-17.3.7-1.56,4.75-9.2,5.59-10.53l4.42-7.01,4.37-5.76c1.08-1.43,1.71-2.85,2.67-4.25l4.43-6.49c1.15-1.69,2.27-3.42,3.53-5.04l5.02-6.43c.92-1.17,1.43-2.04,2.1-3.46,4.63-9.8,6.57-7.53,10.57-21.04.34-1.15,1.21-2.97,1.78-4.36l3.16-7.6c-2.99-2.04-.44-3.23-3.81-9.57l-4.96-1.2c-6.05-1.46-11.4-.96-17.89-.17l-17.16,2.07c-2.72.33-5.93,1.73-8.71,2.43l-11.53,2.91c-14.21,3.58-18.47,9.81-29.4,13.28-2.1.67-3.58,2.6-5.38,3.75-2.19,1.4-4.53,2.79-6.81,3.93l-6.81,3.41c-2.86,1.43-5.57,2.47-8.19,4.35l-5.71,4.07-7.72,5.79c-5.04,3.78-4.61,4.93-8.37,9.03-2.02,2.21-3.65,4.81-6.17,6.79-1.81,1.43-2.96,3.19-4.32,4.8-1.86,2.19-3.72,3.93-4.9,6.65-.55,1.29-1.31,3.28-1.99,4.33l-4.22,6.55c-1.17,1.81-2.22,4.01-3.61,5.55-2.44,2.71-5.25,10.47-6.65,14.26-.69,1.88-2.22,3.6-2.33,6.04-.09,1.83-.79,3.29-1.54,4.84-4.32,9.01-1.06,8.21-3.63,14.65-1.64,4.13-.45,8.87-1.47,13l-2.13,8.65c-.3,1.23-1.71,3.41-2.09,4.66l-1.64,12.43c-.26,1.97.04,4.64-.08,6.76l-.34,5.91c-.12,2.15.34,3.44-1.31,5.23-1.15,1.24-1.31,3.81-2.05,5.51-1.09,2.51-3.88,4.73-4.74,7.25-.75,2.21-1.32,3.92-2.82,5.55-3.11,3.37-12.98,13.6-16.03,15.82-2.33,1.7-4.46,3.41-6.65,5.27l-10.89,9.2-4.9,5.31-4.12,5.02c-2.52,3.08-5.78,5.06-7.68,8.72-3.17,6.11-8.96,8.54-6.99,16.58.72,2.92-1.31,4.74-3.78,5.54-3.26,1.07-4.83,4.61-5.66,7.81-2.47,9.56-5.16,6.53-4.86,12.97.16,3.51-2.24,10.98-2.28,13.44-.05,3.2.09,6.08-.22,9.21l-.61,6.07c-.32,3.23-.2,6.73.02,9.99l.29,4.38c.17,2.56-.17,5.03-.27,7.71s1.7,13.01,1.71,13.09l.54,9.44c.11,1.9.81,3.61,1,5.49l1.19,11.81c.17,1.64.96,3.68.8,5.48s-.08,3.41,1.18,4.5c1.03.89,2.53,1.24,4.33,1.66l4.64,3.63,5.18.2,1.68,3.3c2.16-.53,8.51-3.61,9.21-5.3.52-1.27,1.05-3.35,2.49-3.43.87-.05,1.78,2.16,1.8,3.06.06,2.27-6.42,7.29-8.84,9.3-1.33,1.1-5.1,1.66-6.71,1.13-2-.67-3.28-2.01-6.01-1.6.84,1.22,1.6,1.87,2.73,2.87l4.38,3.85c1.29,2.57,2.6,4.57,4.39,6.68,1.09,1.29.88,3.52,3.13,3.39,3.48-.2,3.23-2.76,5.3-8.19l3.74-9.85c1.63-4.29,4.02-14.77,1.12-18.59-1.42-1.87-3.33-3.77-4.5-5.68-1.8-4.49-1.45-9.91.5-14.17.92-1.99,1.5-3.68,2.16-5.75l1.38-4.34,1.36-4.46-2.04-5.51c-5.23-2.24-7.56,2.54-10.19-.46s1.57-12.4,4.18-14.91c1.91-1.84,3.8-3.68,3.04-6.52l-4.8-1.3-.98-4.94c1.78-1.87,3.41-4.57,5.45-6.21l7.55-6.08c7.66-2.53,4.66-1.93,11.05-1.46,2.9.21,3.87,2.08,3.96,4.74l.21,6.33-3.44,6.69,2.75,2.13c.7.54.44,2.61.27,3.57-1.59,8.94,2.23,5.6-1.69,13.91l-3.96,8.41c-.26.55-1.63,1.6-1.67,2.24-.09,1.64-.77,4.89-.73,6.54.13,6.67-1.23,17.25-.29,21.48l1.73,7.85c-1.48,1.85-2.55,3.71-2.43,6.18s-.87,4.79-1.25,7.12c-.51,3.14-1.2,5.83-2.07,8.68l-2.32,7.6c-.48,1.59-.92,3.48-1.85,4.72-1.26,1.68-1.33,3.95-2.11,5.52-1.84,3.67-3.33,6.88-2.8,11.29.37,3.04-.54,6.57-.4,9.61l.42,9.26c.23,5.18,1.76,9.13,3.45,13.75-1.2-3.28,3.63,15.17,3.17,12.89l1.11,5.45c.25,1.25,1.51,2.76,2,3.81,1.13,2.39.37,5.51,3.41,7.26,3.69-2.65,6.15-6.49,9.11-9.58,4.92-5.14,9.21-10.14,13.38-15.84,7.24-9.9,5.85-16.9,8.19-23.92,1.31-3.93,1.62-7.52,2.04-11.73.25-2.53,1.38-5.27,1.44-8.07.04-1.8.83-4.14.65-5.69-.88-7.76,1.33-3.12.94-13.57-.04-1.03-.65-3.31-1.11-4.23l-2.33-4.66-2.72-2.04c-1.52-2.28-2.93-5.23-4.99-6.86-1.89-1.5-3.23-2.53-3.59-5.08-1.44-10.37,11-14.22,10.76-20.22-.13-3.4-7.05-.89-5.83-6.2.86-3.75,1.37-6.92,1.91-10.76.19-1.37,2.02-3.19,2.68-4.48,2.67-5.19,3.9-3.47,7.46-8.24,1.54-2.05,2.98-3.23,5.66-3.18s4.76,1.04,6.17,2.91c3.45,4.58-1.05,8.31,1.45,10.59s2.93,5.68.21,8.05c-1.85,1.62-3.83,4-3.99,6.4l2.4,3.18c.41.55,2.44.64,2.95.19s.97-1.29,1.49-2.36l2.61-5.35c2.53-1.55,2.5-4.55,3.6-6.87s2.47-4.05,2.99-6.82c1.52-8.11,4.27-11.11,3.01-17.42-1.33-6.68.16-10.85-2.18-16.79l-2.51-6.36c-4.37-11.08-9.28-9.35-11.41-12.62-1.09-1.68-.99-4.03-.2-5.73,1.51-3.26,2.96-6.35,4.59-9.43,1.13-2.13,1.95-3.43.11-5.72,1.23-2.07,2.78-4.85,4.22-6.5,1.09-1.24,3.16-1.12,2.63-3.64l3.76-2.66c1.57-1.11,2.33-4.74.52-5.62-4.43-.96-8.5,1.05-12.37,2.97l-6.06.49c-.83.07-2.64.37-3.12-.17-1.25-1.41-3.71-7-1.86-7.61,2.4-.79,4.43-1.36,6.29-2.61,3-2.01,5.86-2.02,9.23-2.57,2.23-.36,4.36-2.02,7.09-1.05,9.3,3.29,9.74-.94,15.03,4.41ZM614.31,165.43c-.44.31-.51,1.76-.08,1.85s1.59.1,1.97-.15l3.91-2.48c5.53-3.51,11-6.14,16.62-9.38l18.55-10.69c.34-.2.85-1.18.8-1.56-.04-.29-.72-.7-1.01-.66-12.7,1.89-6.72.6-13.79,4.45l-8.37,4.56c-4.88,2.65-8.43,6.98-13.11,10.24l-5.49,3.82ZM728.44,390.86c.09.45,1.62,1.34,1.82.93.15-.31.45-1.29.42-1.72l-.56-8.1-3.07-17.19-.76-8.69c-.33-3.72-.37-7.03-.41-10.64-.07-7.65-1.88-11.43-1.86-23.36v-4.92c.02-4.23-.51-8.38-.7-12.61l-.54-12.05c-.08-1.82-.8-3.65-.84-5.51l-.11-6.03c-.05-2.75-.35-5.28-.64-8.2s.5-6.07-.05-9.12c-.9-4.98-.22-5.53-.57-11.31l-.41-6.9c-.11-1.83,0-3.67-.26-5.47l-.77-5.43c-.26-1.81-.14-3.54-.04-5.47.08-1.62-.63-4.16-.15-5.68l3.38-10.76c.35-1.1,2.16-2.58,2.36-4.1s1.87-2.64,2.49-3.81c1.27-2.41,1.93-5.21,3.42-7.63,2.33-3.78,5.43-8.43,5.79-12.62.07-.78-1.71-1.49-2.2-1.16-.41.28-.98.94-1.35,1.54l-7.86,12.78c-.76,1.24-3.43,2.16-3.79,3.74-1.7,7.48-2.43,4.05-5.17,8.85l-3.89,6.82c-.79,1.38-1.12,3.01-2.47,4.09-4.29,3.44-.59,4.82-4.82,9.89l-.54,3.8c-1.14,2.78-2.02,5.27-2.79,8.12-1.27,4.7.57,1.84-1.53,11.46l-1.66,7.62c-.82,3.76-1.06,8.55-.78,12.49.22,2.98-.18,6.27.24,9.18.78,5.33,1.37,10.23,1.7,15.64.11,1.84,1.01,4.12,1.39,6.01l3.03,15.19c.41,2.04.82,3.63,1.38,5.55l2.95,10.14c.84,2.87,2.4,4.9,4.07,7.31l3.14,4.52c1.93,2.78,2.53,6.6,3.76,9.76,1.03,2.66,1.51,5.1,2.37,7.86l3.29,10.54c.85,2.71,1.26,5.01,2.21,7.71.64,1.82.9,4.62,1.36,6.97ZM487.78,370.37c1.7-2.94,3.03-4.86,5.48-6.84,1.62-1.32,3.9-4.68,2.46-6.34-3.33-1.58-9.17-5.16-11.69-7.38-7.29-6.46-5.79-6.77-15.16-12.51-3.64-2.23-6.07-3.69-10.35-4.95l-11.74-3.47c-3.41-1.01-6.37-2.28-9.81-3.13l-7.71-1.91c-2.84-.7-5.99-1.17-8.75-2.12l-16.8-5.81-7.9-2.91-7.7-2.56c-2.73-.91-4.93-3.16-8.14-2.46l-2.74-3.27c-3.4.34-5.9-.71-8.67-2.15s-5.63-2.29-8.42-3.51l-6.4-2.79c-3.16-1.38-14.96-3.67-17.53-4.66-9.21-3.56-12.56-2.48-17.99-4.32-13.84-4.7-25.61-2.21-23.27-.52l1.11.8c4.44,3.23,9.38,3.47,14.61,4.49,3.42.67,7,1.61,10.31,2.63,3.03.93,5.91,2.88,8.87,4.02l4.39,1.68c3.23,1.23,6.31,2.58,9.71,3.17l5.56.97c8.46,1.47,14.64,3.84,21.76,8.27l9.07,5.64c4.68,2.91,8.87,5.55,13.73,7.92l9.09,4.43c2.53,1.23,4.73,1.53,7.56,2.34l6.42,1.83,5.48.51c12.61,1.18,11.12,4.44,21.75,7.09l2.81,3.57c1.31,1.66,2.81,2.4,4.58,3.65,1.94,1.38,3.77,3.47,5.71,5.07,3.26,2.69,5.88,6.01,8.16,9.58l7.19,11.25.06,4.25c.02,1.41,2.14,2.94,3.37,2.78,1.37-.19,2.87-1.04,3.63-2.16l3.56-5.2c1.06-1.55,3.31-3.15,4.34-4.93ZM426.6,476.19c.61,2.54.02,5.77,1.1,8.25,2.83,6.46,5.68,7.18,5.83,10.11.19,3.69,2.62,4.6,4.92,6.17,1.93,1.32,3.24,3.05,5.72,3.65s4.18,5.07,6.76,5.88l5.01,1.56c.08-1.37-.07-2.43-.4-3.22l-2.77-6.64c-.42-1.01-1.25-2.36-1.86-3.47-2.69-4.94-5.11-15.48-5.24-21.34l-.14-6.46c-.06-2.79-.13-5.43.1-8.19l.62-7.5c.17-2.06.44-3.25,1.76-4.92,1.09-1.38,1.2-3.95,1.93-5.6,2.1-4.79,4.15-9.22,5.3-14.37.83-3.74,2.78-7.17,4-10.9.81-2.47,2.98-4.49,3.91-6.66l3.48-8.09c2.25-5.25,5.49-8.14,2.42-13.77-1.5-2.75-2.16-5.96-2.13-9.24-2.26-2.67-3.54-5.79-5.08-8.97l-2.99-6.2c-1.09-2.27-3.2-4.11-5.32-5.49-1.09-.71-1.87-2.96-2.78-3.66l-10.71-8.28c-4.18-3.23-9.37-5.42-14.72-6.25l-5.09-.79c-3.03-.47-5.97-.62-9.04-1.52-1.47-.43-3.85-.89-5.02-1.36l-11.36-4.52c-6.69-2.67-13.02-8.15-19.66-11.51-2.62-1.32-5.34-3.05-7.71-4.69-1.88-1.3-3.35-2.89-5.77-3.47-3.04-.74-6.18-2.99-9.17-3.5-10.3-1.78-16.08-2.32-25.82-7.32-9.13-4.69-14.73-3.2-22.78-5.86-4.22-1.39-8.17-2.51-12.68-3.1-3-.39-12.57,2.9-14.52,7.37-1.4,3.22-1.04,6.35-.97,9.38.2,8.52,1.58,2.4.57,10.27l2.6,2.66,1.32,6.96,4.94,11.51c.33.78.01,3.04.27,3.81,3.11,9.19,1.21,12.89,3.55,22.48l-1.11,2.59c2,5.16,2.25,10.5,2.49,16.04.55,12.82.02,21.94,2.68,34.73.44,2.12.69,3.99,1.7,5.96.89,1.76,1.2,3.73,1.83,5.45.46,1.25.9,2.49,1.31,3.94l3.93,13.78c.58,2.05.52,2.94,2.22,4.43,1.2,1.05,2.2,3.79,4.12,3.85,2.92.11,5.47,1.67,8.08,2.09,5.15.83,10.45.19,15.17,3.16,5.07-1.23,8.97,2,13.31,3.64,2.52.95,4.93,1.66,7.42,2.95,5.81,3,16.09,6.01,22.66,7.22,11.4,2.11,4.57,1.9,13.51,4.28,1.93.52,3.73,2.45,5.58,3.42,1.7.89,4.62,1.29,5.8,2.65,1.32,1.53,2.02,1.9,3.93,2.43,2.9.81,5.61,3.11,8.42,4.24,2.17.87,3.8,1.61,5.65,3.22l4.28.87c2.29,1.8,4.46,3.38,7.16,4.77,1.41-1.99.07-3.43-.75-5l-2.05-3.93c-7.85-7.13-1.82-10.87-7.3-15.48l-.57-5.21c-.96-8.86,1.72-10.13-.53-15.19-1.36-3.05-.95-7.21,1.22-9.94,1.8-.03,5.1,1.31,5.72,3.26,3.75,11.75-.68,12.44,1.75,22.59ZM281.89,395.66c.02-2.85.25-5.55-.12-8.37-.34-2.59-.92-5.41-.89-7.91.04-2.79-.47-4.93-.66-7.69l-.72-10.66-.9-7.26-.45-5.54c-1.45-1.78-1.68-3.38-2.38-5.41l-4.53-13.3c-.81-2.39-1.02-4.69-2.15-7.15l-1.98-4.34c-.99-2.18-1.14-4.19-1.56-6.57-.25-1.4-.95-3.45-.38-4.57.94-1.86,1.57-3.44,1.1-5.33-1.52-.27-3.57.65-4.47,1.83-2.97,3.91-6.33,6.87-9.7,10.35-4.22,9.69-6.33,17.49-.77,27.18l5.3,9.22c3.63,6.32,3.3,4.97,6.4,12.12l3.12,7.19c.84,1.94,2.79,3.96,3.52,5.98l1.99,5.49,1.86,4.08c1.54,3.37,2.83,12.06,3.8,15.76l1.42,5.42c.13.52,1.5,1.45,1.95,1.25,2.32-1.03,1.17-8.96,1.19-11.77ZM518.62,351.77l3.4-2.64,8.96-7.36,5.8-4.82c2.65-7.45,4.04-6.09,7.87-13.37.35-.66,2.82-11.01,1.42-12.26-6.26,5-3.84,5.48-9.33,10.36-3.47,3.08-6.19,6.79-9.11,10.35l-7.11,8.65-4.71,5.46-4.16,5.11c-.34.41-1.14,1.17-1.51,1.55s.28,2.11.88,2.14c2.34.13,5.66-1.64,7.62-3.16ZM505.75,364.27c.93-1.02,2.25-2.68,1.6-3.51-4.03-1.88-6.47,3.21-9.61,7.16-.68.85-.38,5.52,8.01-3.64ZM494.26,374.97c.98.24,3.17-1.23,3.1-2.13l-.3-3.81-2.55,2.33c-.91.83-2.15,3.14-.25,3.61ZM762.97,579.75c4.63-4.75,9.51-8.75,14.52-13.03l3.8-3.25c1.71-1.46,3.23-2.86,5.03-4.17l5.28-3.87c6.76-4.95,12.38-11.16,19.85-15.2,5.88-3.18,17.75-7.22,24.66-8.14,4.56-.61,16.75-.95,21.51-.67,11.98.7,7.07.68,17.25,2.16l13.27,1.93c4.21.61,8.16,1.71,12.38-1.09l5.39-3.57c3.1-2.05,5.61-4.42,8.68-6.47l5.49-3.66,8.5-6.02c4.99-3.54,4.22-9.63,3.95-14.9l-1.18-23.2c-.28-5.54-2.51-10.15-5.34-14.81-.65-1.08-1.71-2.49-2.31-3.6-2.01-3.72-3.51-7.9-4.62-12.02-.71-2.64-1.85-4.67-3.15-6.93-.72-1.25,1.18-4.52-1.91-5.26-1.69-.41-4.72.21-6.7-.19l-19.96-4.06c-5.93-1.2-8.52-.82-14.4-4.77-1.5-1.01-4.07-1.08-5.73-1.84-5.61-2.58-4.79-3.69-10.35-5.83-2.44-.94-4.27-2.98-6.09-4.66-1.31-.47-3.92-.89-5.1-1.75l-4.82-3.51c-2.05-1.5-4.9-2.95-7.35-3.89l-18.03-6.93c-8.38-3.22-.59-1.36-11.94-2.7l-4.47,1.93-7.25.44-10.16,3.44c-3.84,1.3-12.44,7.51-11.92,7.28l-6.38,2.79c-2.03.89-2.77,1.38-4.23,3.07-1.83,2.13-3.89,4.39-5.89,6.3l-6.7,6.43c-1.07,1.03-4.57,1.2-5.68.31-.71-.56-1.44-1.53-2.2-2.4-1.24,1.16-1.72,2.67-1.65,4.49.09,2.19-.45,4.17-.68,6.28l-1.7,15.16c-2.12,3.34-2.17,7.09-2.89,10.76l-1.48,7.63c-.74,3.83-2.76,7.38-3.76,11.07-.58,2.13-.83,4.31-1.54,6.25-1.79,4.83-3.24,9.6-4.83,14.8l3.2,2.73-1.2,4.01c-.35,1.17-.26,3.44-.36,4.92-3.27,1.24-2.41,9.73-.8,11.27,2.12,2.02,2.66,3.74,3.62,6.34,1.78,4.87,6.45,9.55,3.3,13.59.33,3.99-2.34,7.79-6.29,8.98-1.99.6-2.89,2.03-4.37,3.47-1.38,1.34-4.14,1.81-5.44,3.61-.93,1.29-2.6,1.71-3.85,2.56l-10.33,7.06c-.78.53-1.58,3.03-.7,3.1,7.83.64,14.44,1.58,21.22,4.57,1.82.8,4.71.84,6.67,1.47l5.36,1.73c8.31,2.68,6.14,1.71,14.24,5.65,2.18,1.06,3.72,4.06,6.88,3.45,2.15-.41,9.66-6.61,11.69-8.7ZM465.18,505.9c.44-1.07-.02-3.19-.17-4.44l-1-8.7c-.12-1.04.05-2.98.08-4.15.16-5.35-1.26-7.25-1.47-13.59l-.23-7.06-.06-9.79c-.09-15.29,1.59-13.57,2.73-26.99.15-1.79,1.36-4.5,1.78-6.37-.35-.58-2.12-.91-2.6-.44-.4.4-1.02,1.82-.95,2.46.28,2.53-1.09,4.92-1.93,7.13l-3.83,10.1c-.81,2.13-1.49,8.87-2.57,11.5-2,4.92-2.4,15.2-1.82,20.47l.55,4.99c.19,1.69.9,3.42,1.31,5.01.94,3.71,2.22,6.85,3.74,10.39-.09-.21,4.41,11.58,6.42,9.47ZM195.19,495.73c1.65.36,3.24-.04,4.76-.05l21.07-.23c1.91-.02,9.48-1.35,11.72-1.86l6.5-1.47,15.59-3.52c10.57-2.39,24.73-4.96,35.37-4.74,3.93.08,8.29-.92,12.38-1.39l17.33-1.99c1.79-.21,3.26-.41,5.11-.92-2.78-4.03-1.29.04-7.75-4.64-3.81-2.76-8.65-1.48-13.14-1.11-3.99.33-4.84-7.71-9.12-7.98-7.83-.5-15.37.32-22.98,1.63l-7.39,1.27c-2.37.41-4.65.68-7,1.26-3.13.77-6.11,1.15-9.23,1.59l-12.28,1.73c-2.15.3-4.69.32-6.58.96s-3.49,1.56-5.27,1.65c-2.34.12-4.12.79-6.25,1.3l-12.21,2.92-8.59,1.85-17.36,4.74-11.25,2.79-17.91,3.43c3.59,2.29,6.87.15,10.31,1.1,2.08.58,4.41.05,6.52.11l9.75.27,12.33.93c1.91.14,3.47-.12,5.59.34ZM316.64,467.87c.02-.69-2.35-1.51-2.82-1.05l-1.53,1.48c1.05,1.41,4.29,1.36,4.35-.43ZM338.75,473.11c-.76-.82-2.52-1.33-4.09-1.8-1.65-.49-13.58-4.56-13.63-2.44-.07,2.8,5.34,4.29,7.73,5.43,1.25,1.97,10.33,1.98,10-1.19ZM352.79,480.23c-2.27-2.75-5.57-3.56-8.58-3.51-.64,0-1.33,1.77-1.19,2.41.4,1.89,9.22,2.58,9.77,1.1ZM465.72,651.91c-.97-1.98-2.29-2.53-3.9-3.89-2.03-1.71-2.88-5.41-5.45-6.91-1.59-.93-3.39-3.03-4.79-3.57-2.03-.78-3.3-1.29-5.08-2.28-2.53-1.41-5.72-2.1-8.13-3.76l-3.8-2.63-6.99-5.57c-1.3-1.04-2.69-3.57-4-4.39l-6.08-2.31c-7.66-2.91-5.99.72-9.99-2.37-1.37-1.06-2.93-4.25-.87-5.36,2.52-1.35,6.01-.78,8.9-1.02,2.05-.17,3.63.26,5.63.36l9.97.48,8.16,1.15c2.75.39,4.81,4.36,3.38,6.81-1.26,2.16-2.86,4.51-2.07,7.22,3.82,2.72,9.92,3.43,14.48,3.5l9.42.15-.16,2.91c-3.94.02-6.66.29-10.2,1.75-.02,2.07,6.63,5.96,9.12,8.01l4.46,3.67c1.51,1.25,2.01,4.73,3.1,6.45,3.45,5.5-.98,3.13,3.17,7.37.34.35.56,1.74.64,2.18s1.54.65,1.91.34c2.12-1.77,2.02-5.57.93-8.13-1.24-2.91-1.68-5.63-2.22-8.78.35,2.08-3.25-10.87-3.12-10.26l-1.04-4.87c-.65-3.01-1.52-5.82-2.88-8.58-1.23-2.49-.68-5.37-1.64-7.76l-3.13-7.77c-1.04-2.05-3.26-4.22-4.84-6.27-1.44-1.88-3.96-2.7-5.77-4.14-7.2-5.74-6.91-8.27-12.9-12.4l-3.04-3.34c-3.77-4.13-3.9-1.34-8.25-8.8-1.75-3-1.31-5.84,0-8.79,0-1.34-1.71-3.71-1.85-4.97-.17-1.59.19-3.53-.77-4.61-1.09-1.23-2.36-1.68-3.97-1.93-9.3-1.44-5.49-2.36-11.96-.06-2.2.78-3.98.08-4.87-1.9l-4.69-.16c-1.49-2.19-3.41-2.67-6-2.86-1.28-.69-3.13-2.66-4.61-2.79l-6.07-.51c-1.74-.15-3.32-1.69-5-1.39-2.68.48-3.3-.67-4.58-2.62-.79-1.2-2.7-3.81-.63-5.15,2.61-1.69,6.03.94,8.38,1.53,3.77.95,6.72,1.73,10.42,3.06l6.03.32c2.86,2.79,8.76,3.47,12.84,3.66,2.63.12,10.17,1.78,9.59.09-.81-2.37-2.98-2.08-3.26-4.8-.16-1.6.38-3.75,1.82-4.21,2.54-.8,2.95-2.23,4.28-4.28s6.19-1.83,8.28-.9c2.98,1.34,4.66,3.1,6.76,5.23,1.2,1.23,1.79,2.37,2.62,3.99,1.11,2.17,2.56,4.28,3.44,6.65.65,1.74,1.35,3.22,2.98,4.19,1.52.9,2.17,2.36,3.16,3.85,1.74,2.62,5.85,2.98,8.19,4.81,7.08,5.53,9.39,5.17,12.79,8.1l1.73,1.49c.41.35,2.05-.25,2.48-.77l-2.52-5.96-2.3-8.76c-2.57-9.78-10.8-13.12-17.39-18.23-3.3-2.56-6.35-4.52-10.25-6.2-2.52-1.08-4.94-3.38-7.46-4.65-.98-.49-2.17-.94-3.01-1.43-3.39-1.97-6.67-3.36-10.18-5.07s-10.47-6.72-12.71-6.96c-3.51-.37-4.44-3.32-6.78-4.55l-9.28-4.88c-2.5-1.31-5.74-2.06-8.53-2.91-9.44-2.86-4.09-2.87-15.64-3.66l-6.66-.45-14.97-1.65-7.59-.55c-2.01-.15-4.65-.94-6.45-.91l-12.56.24c-1.06.02-2.74.61-3.78.75l-12.42,1.63c-2.15.28-4.83,1.03-6.88,1.13l-14.08.68c-4.56.22-9.03.28-13.28,2.11-11.42.5-20,3.74-31.72,5.79-13.09,2.29-5.01,2.31-19.25,3.44l-6.57.52c-4.1.33-8.3.11-12.4-.06l-10.32-.44c-2.96-.13-5.92-.38-8.85-.83s-5.97.24-8.92.14l-14.09-.49c-1.86-.06-3.61-.03-5.44.01l-13.9.35-7.58,1.87c-4.46,1.1-7.9,1.8-11.72,4.11-2.46,1.48-6.25,1.31-8.84,2.52-3.06,1.43-9.21,3.97-12.24,4.88-2.48.75-3.78,2.2-6.08,3.34l-5.09,2.53c.84-.42-8.57,4.85-6.85,5.14l1.58.26,4.51.83c4.36.8,8.27,1.52,12.88,2.11,2.1.27,5.66,1.5,7.51,2.3.52.22.26,1.92-.23,2.05s-1.63.21-2.14.09c-3.57-.81-6.6-.53-10.19-.98l-11.79-1.47-7.14-.55c-4.47-.34-2.26,1.9-4.74,10.96-.99,3.61-3.66,8.5,1.48,12.02,1.91,1.31,3.11,4.28,4.47,6.16l3.23,4.47c1.3,1.79,3.52,3.38,4.94,5.09,3.33,4.03,6.04,5.35,9.01,10.91,1.15,2.15,2.2,2.95,3.69,4.55,3.27,3.51,5.7,8.07,8.42,12.12,2.23,3.32.7,8.39,8.96,13.83l9.34,6.15c1.89,1.24,3.45,2.04,4.96,3.82,1.23,1.45,2.86,2.59,4.32,3.76l9.09,7.26c.93.74,5.13,5.74,6.6,6.8l4.39,3.19,5.85,6.5c2.17,2.41,5.54,3.4,6.2,6.88,3.44,2.19,7.1,3.94,10.15,6.54l4.37,3.73,4.45,3.64c3.09,2.53,5.88,5.21,9.68,6.54,2.06,2.32,4.8,3.9,7.15,5.91l6.99,5.96c1.88,1.6,3.75,3,5.74,4.54l9.13,7.04c1.98,1.53,4.68,2.86,6.73,3.97.46.69,1.29,2.65,2.14,2.92l7.33,2.35c3.02.97,5.35,1.32,8.39,1.58l18.86,1.6,12.46,1.33,7.09.48c2.05.14,4.38.12,6.44-.04l8.16-.61c3.28-.25,6.4-.27,9.68,0l6.6.55c1.91.16,4.5-.05,6.23.45,3.23.93,5.94,1.45,9.25,1.63,4.13.23,8.03.98,12.09,1.71l5.48.99c11.25,2.03,5.91,2.21,14.97-.79l7.45-2.46c2.02-.67,3.59-1.17,5.76-1.68,4.77-1.14,9.32-3.28,14.04-4.7,4.48-1.34,8.09-3.49,12.24-5.62l6.76-3.47,5.15-3.02,5.7-3.5c3.43-2.1,7.5-2.64,11.27-4.01l7.95-2.89,5.81-2.2c2.7-1.02,10.14-4.65,12.19-6.68l4.4-.5c-.3-2.62,1.7-3.68,3.45-4.78,2.12-7.44.62-12.71-2.81-19.7ZM90.26,510.51c3.66.03,5.92-1.9,8.71-3.41,2.96-1.6,6.45-2.83,9.68-3.84,1.8-.56,3.03-.87,4.35-2.15-1.07-.6-2.26-.91-3.17-.71l-16.06,3.45c-3.15.68-5.85,2.21-8.54,3.77-3.23,1.88-6.47,3.57-8.55,6.78-.38.58-.5,2.3.08,2.52,2.7.98,10.44-4.22,13.5-6.42ZM557.75,534.81c.76.05,1.58-2.25,2.05-2.88,1.29-1.7,1.68-4.28,2.12-6.48.59-2.96,1.26-5.14.65-8.16-.49-2.41-.55-5.62-2.98-7.11-1.66-1.02-4.03,4.39-6.38,5.72l-2.92,7.45c-.43,1.11-.46,3.54-.72,5.02l3.19,2.31c1.33,1.47,2.5,3.95,4.99,4.12ZM704.52,554.96c2.84-.51,3.84-1.49,5.73-3.2,6.55-5.92,12.66-5.47,11.66-12.8-.34-2.48-2.12-3.97-3.18-5.97-1.29-2.43-.49-6.37-4.7-7.41-1.32,2.13-2.94,5.05-3.45,7.76s-2.49,4.78-3.48,7.23l-3.27,8.15c-.45,1.13-1.06,2.15-1.75,3.09l-4.44,5.94c3.31,1.28,4.45-2.35,6.87-2.78ZM916.88,538.14c1.88-.6,2.48-2.11,2.6-3.94.98-.31,2.67-.82,3.37-1.34s.94-2.97.5-3.42c-3.05-.22-4.33,3.04-6.12,3.83-2.6,1.14-4.77,2.22-7.06,3.81l-1.92,1.33c-.36.25.19,1.62.62,1.73s1.42.12,1.92-.03l6.1-1.96ZM440.78,545.02l-2.83-3.23c.19-3.44-6.43-9.51-7.63-9.68-1.7-.23-4.79,1.37-5.11,3.16-.53,2.95,3.05,2.38,4.21,8.52,4.52.41,8.97,5.04,11.35,1.23ZM673.82,569.43c3.21-1.33,4.89-3.07,6.75-5.09,2-1.66,4.33-3.32,6.11-5.16l2.97-3.06c6.77-6.99,6.42-7.92,9.18-16.29.6-1.82,3.61-3.12,1.4-5.71-1.24,1.32-2.6,2.82-3.65,4.11l-5.49,6.76c-2.42,2.98-3.86,6.57-6.94,8.89-2.23,1.68-4.57,5.91-6.79,8.98-1.48,2.05-4.36,3.45-3.52,6.57ZM827.52,561.23c3.27-.29,6.82-1.05,9.7-1.9,9.29-2.74,8.16-1.01,19.21-5.52,1.67-.68,3.07-1.45,4.86-1.62,4.11-.4,7.47-2.12,11.31-3.25l8-2.35c1.32-.39,2.35-1.71,3.9-3.27-2.56-.79-4.46-1.12-6.89-1.52l-9.94-1.64-3.96-.57c-5.46-.79-11.07-1.2-16.59-.52-8.17,1-14.43.57-21.85,3.58-1.84.74-3.56,1.89-5.41,2.68l-5.7,2.46c-6.11,2.63-10.9,7.95-17.57,12.15-1.23.77-7.45,5.93-7.46,6.41-.01.36,1.26,1.16,1.75,1.04l15.22-3.41c2.84-.64,4.85-1.23,7.73-1.49l13.68-1.23ZM446.68,564.49c-4.58-8.63-3.65-4.14-8.34-10.36-1.44-.52-2.93-.77-5.1-.88.12,3.49.36,5.8.8,9.03,2.61,2.47,10.48,3.75,12.64,2.2ZM468.46,567.54c-2.2-1.22-3.66-1.91-5.13-3.14-1.2-1.01-2.63-2.54-4.04-2.85-5.58-1.21-3.01-2.63-5.68-2.91-.33-.03-.99.56-.9.88s.45,1.04.68,1.3c5.87,6.77,5.5,7.57,13.39,8.79.91.14,2.36-1.69,1.68-2.07ZM496.48,585.95c1.01-4.7,1.33-8.18.52-12.5-.16-.86-1.4-2.64-1.94-3.38l-3.92-5.3c-1.4-1.9-3.78-3.88-5.97-3.81-2.58,3.05-.6,6.17.55,9.01,2.28,5.59.18,8.62,7.3,14.97.78.7,2.96,3.31,3.46,1.01ZM96.43,594.97c.97-1.36-1.88-5.41-2.78-6.58l-2.85-3.73c-3.07-4.01-6.46-7.52-9.87-11.23-2.44-2.66-6.59-8.76-8.21-8.1-1.29,3.09.63,5.95,2.86,7.52l3.39,5.17c1.41,2.15,2.81,4.03,5.14,5.14-.61,2.62,1.65,3.35,2.84,4.84.82,1.03,7.46,9.82,9.49,6.97ZM478.08,630.02l1.55,7.58s1.81,5.14,2.66,6.03c2.05,2.15,2.73-8.72,2.72-8.66.25-2.01,1.07-4.16,1.21-6.21.28-4.11.28-16.93-1.4-19.44l-3.85-5.75-1.8-4.19c-1.06-2.48-1.52-5.57-2.85-7.94-1.19-2.12-7.62-7.36-5.32-9.71,3.44-3.51,8.02-2.46,7.91-6.47-.03-.91-1.79-2.53-2.49-1.84-8.02,8.01-15.87-1.46-17.53,1.5l-2.23,3.97c-4.44,2.23-8.47-1.79-10.97.54.75,1.99,2.69,2.85,4.46,3.61l.9,2.28c4.54,2.38,8.61,4.92,12.87,7.94,3.01,2.13,4.82,5.92,7.2,8.78,3.33,4,.26,5.24,3.78,13.62l-.43,4.42c1.82,3.18,2.87,6.27,3.62,9.94ZM745.17,590.93c-.19-.23-.74-.86-1.01-1-11.31-5.64-7.19-4.09-20.07-8.05l-8.34-2.56-5.32-1.75c-4.24-1.39-16.24-3.78-20-2.97-.43.09-.35,1.85.09,1.89l1.7.15,8.1.73c.19.1,15.02,3.47,13.99,2.96l6.22,3.08c3.11,1.54,5.79,3.54,8.72,5.33,1.83,1.11,4.65.35,5.67,3.14,2.38,1.26,12.24,1.52,10.25-.96ZM548.5,685.05c-2.18-2.87-5.96-7.21-8.26-8.83-2.12-1.49-3.88.87-5.21,1.86l-6.89.72c.31,2.96.21,5.41-.18,8.04-.15.97.7,2.83.79,3.86.21,2.42-.69,5.97.76,7.99l6.76,9.35,2.87,3.7c4.4,5.67,6.38,12.34,15.26,17.84,10.97,6.79,8.47,3.9,15.93,7.82l5.23,2.75,9.46,5.11c3.17,1.71,5.63,4.01,8.4,6.32l4.93,4.11c2.91,2.43,5.7,4.84,8.28,7.45l3.76,3.79c1.75,1.77,2.77,2.2,5.39,3.15,1.46.53,3.28,2.22,5.18,2.68s3.33,1.55,4.76,2.71c2.55,2.05,5.58,3.86,7.18,6.69,2.42,4.29,5.35,8.3,8.73,11.93,4.09,4.4,7.92,9.05,12.42,12.96l4.34,3.76,6.46,5.47c2.16,1.83,4.47,3.36,6.39,5.55l4.29,4.89c1.12,1.28,2.23,2.47,3.34,3.67l3.12,3.36c4.53,4.88,7.31,5.22,11.43,8.1,2.64,1.85,4.95,3.81,7.71,5.34,3.04,1.68,5.82,3.69,9.15,4.73,1.77.55,3.28,1.34,4.85,2.13,6.52,3.27,13.67,2.82,20.77,3.42,2.87.24,4.94-1.68,7.57-2.54,4.85-1.59,9.54-3.02,14.08-5.45l9.44-5.05c2.9-1.55,5.59-2.81,8.22-4.91,3.49-2.79,7.27-5.15,8.68-9.81.37-1.24,1.2-2.99,1.52-4.31,2.58-10.68.93-12.59.5-21.35-.07-1.41-.72-3.14-.86-4.32l-.85-6.82c-.18-1.45-.32-3.38-.37-5.11l-.32-10.18c-.06-1.99-.43-4.24-.03-6.09.17-.78-.69-2.47-.61-3.26l.99-10.55.39-6.12c.24-3.75.84-7.7,1.31-11.19,4.29-1.1,1.24-5.33,5.21-11.34,1.63-2.47,1.27-5.61,1.9-8.35l1.96-8.52c1.47-6.42.83-11.47.56-17.85l-.33-7.99-2.29-9.3c-.73-2.97-.92-5.25-2.99-7.64l-2.67-3.08c-4.71-11.84-8.02-8.68-13.47-19.33-1.29-2.51-4.37-5.68-6.03-7.58-.5-.57-2.4-.52-2.7-1.07s-.66-1.88-.69-2.56c-.13-3.16-1.73-4.92-2.99-7.44l-3.93-7.83c-1.27-2.52-1.31-5.77-4.03-7.59-1-.67-2.14-2.02-2.41-3.35-.62-2.97-2.93-6.13-5.85-6.51-1.01-.13-3.55.86-4.24.2-4.76-4.55-2.38-5.51-5.98-7.52l-7.64-4.26c-7.95-4.43-4.08-3.56-13.21-6.9-2.09-.77-3.98-1.63-6.29-1.84l-12.36-1.13c-1.94-.18-3.68-.4-4.77,1.8-.75-.01-2.16-.1-3.03-.24l-7.01-1.09c-3.56-.55-7.58.97-11.18.83-2.55-.1-3.73.9-5.39,2.48-7.36,6.98-11.87,4.89-13.2,7.82-2.88,6.32-1.22,9.09-4.33,9.36-.93.08-2.78-1.33-2.81-2.39l-.27-9.08c-6.03.15-11.24,2.47-16.41,5.13-5.84,3-16.35,10.53-19.06,11.83l-5.48,2.62c.32-.15-14.25,7.66-16.23,8.68l-7.18,3.67c-6.76,3.46-13.18,8.38-18.56,13.69-.94.93-3.28,5.84-4.84,7.66-1.33,1.55-2.19,2.64-3.27,4.44,2.11.2,3.49.14,5.02-.48,4.42-1.78,8.82-2.42,13.38-3.63,1.44-.38,2.82-.99,4.59-1.2,10.02-1.22,6.25-4.18,21.09-5.89,1.73-.2,3.32-1.72,4.87-2.53l4.62-2.4c1.25-.65,2.86-1.74,4.06-2.28,3.57-1.59,7.16-2.15,10.09-4.83,2.24-2.05,5.56-3.36,8.69-3.49l11.38-.46c3.11-.13,5.53-.93,8.4-1.86l6.58-2.14c5.63-1.83,11.05-.68,16.11-1.75,10.15-2.16,14.71,1.16,21.94,1.94,4,.43,7.59,3.29,11.24,4.62,2.45.89,4,1.82,5.09,4.19.37.81,1.84,2.34,1.25,3.1-1.07,1.37-3.45,1.61-4.44,1,.17-1.13.44-2.9,0-3.53-.97-1.4-3.86-.64-5.07-1.14l-7.63-3.15c-2.5-1.03-4.73-1.47-7.53-1.74l-5.38-.52c-4.35-.42-8.24-.29-12.52.42-3.81.63-8.05.48-11.57,2.1-1.72.79-3.17,1.68-5.06,1.48-3.66-.39-6.54.96-9.99,1.76-9.9,2.3-14.06-1.19-21.27,3.84-1.17.82-3.98,1.36-5.02,2.29-1.15,1.04-1.96,1.78-3.12,2.26l-5.03,2.1-8.38,4c-6.14,2.93-12.44,4.82-18.95,7.03-4.28,1.46-6.56.23-16.91,4.08-2.47.92-4.81,1.85-7.04,3.41-1.91,1.34-3.88,2.24-5.88,3.39l-8.53,4.88c-2.36,1.35.2,1.97,3.05,4.78s4.33,7.17,8.37,11.42c1.26,1.33,2.42,1.82,3.07,3.62.77,2.13,1.45,4.01,1.68,6.28.22,2.09,1.88,3.39,2.42,5.16l2.51,8.35c3.23,10.75-.43,9.28,6.52,13.68,2.72,1.72,6.5,3.25,9.98,3.55.79.03,1.44,2.73.82,3.35-1.31,1.31-7.16,3.71-10.26.43-1.05-1.11-2.35-2.02-3.56-2.93-6.01-4.56-8.31-11.68-9.98-18.63-.54-1.45-1.06-3-1.43-4.56l-2.17-9.17c-.38-1.58-2.67-2.73-3.61-3.98ZM494.91,609.04c-3.04-5.38,3.27-7.14-2.48-11.02-1.41-.95-2.03-2.17-2.01-3.84-1.67-.83-4.42-.65-5.38,1.45l2.46,6.13c.67,1.66,1.46,3.15,2.34,4.75,1.08,1.95,1.72,4.72,4.2,5.67.82.31,1.3-2.36.86-3.13ZM765.32,610.15c-.41-1.85-.82-2.8-1.58-3.38l-3.55-2.72c-.72.25-1.34,2.22-1,2.89.29.58,1.29,1.57,1.97,1.8l4.15,1.41ZM790.66,666.39c.27.42,1.94.55,1.98.08.25-3.46-.97-9.46-2.26-13.31l-1.5-4.46c-3.76-11.2-4.4-6.54-6.8-13.35l-1.71-4.85c-.41-1.17-2.9-2.77-3.38-3.94-.78-1.93-1.66-3.31-2.8-4.97l-5.27-7.68c-.29-.42-1.35-1.3-1.8-1.1-2.01.88-1.77,3.5-3.24,3.84-3.22.76-1.79-.67-4.96.29-.12.04,5.19,11.69,5.97,12.9l5.7,8.95c1.66,2.61,8.39,9,13.48,16.75,1.38,2.1,2.44,4.32,3.84,6.52l2.76,4.32ZM433.16,618.54c.72.16,1.66-2.16,1.1-2.63-.48-.4-1.67-.93-2.42-1.02-1.53-.18-3.23.37-3.21,2,1.13.62,2.88,1.28,4.53,1.65ZM499.74,656.31l-1.16-3.93c-.81-2.72-2.02-10.42-.3-13.22l-1.03-2.61c0-3.3,2.41-13.43-2.08-13.22-1.32.06-1.29,1.49-1.56,2.9l-1.49,7.81c-.39,2.06-.96,3.95-1.12,6.33-.29,4.45-.99,8.98-1.55,13.37.39.95,1.6,2.87,2.45,3.12,3.68.2,5.71,3.79,7.26,2.05.53-.59.77-1.97.58-2.62ZM212.86,699.55l-1.5-1.05-7.62-5.8-8.38-7.38-2.95-2.48c-1.36-1.14-2.76-1.96-4.51-2.48-1.68-2.03-3.89-3.63-6.04-5.32l-8.16-6.37c-1.96-1.53-3.75-3.01-5.63-4.61l-4.36-3.71-4.67-3.99c-1.9-1.62-3.76-2.95-5.25-4.99-1.71-2.34-6.83-5.74-8.5-7.64-5.3-6.03-3.26-2-10.73-10.36-1.55-1.73-2.46-2.27-4.63-3.32-1.83-.88-4-3.93-5.75-5.19-.56-.4-2.41.59-2.24,1.21.15.52.63,1.6.99,2.09l3.22,4.38,6.79,8.75c2.18,2.81,4.03,5.57,6.42,8.24,1.62,1.81,2.64,4.9,4.32,6.37,1.23,1.08,2.14,1.81,2.99,3.04,5.75,8.21,2.91,3.88,8.95,10.54,2.27,2.5,4.83,4.55,7.6,6.53l3.12,2.24,7.79,6.31c1.59,1.28,2.88,2.54,5.06,3.1s4.02,2.06,5.97,3c2.51,1.21,5.13,2.67,7.6,3.69,3.14,1.29,6.26,1.47,9.22,3.41,7.16,4.7,12.23,2.76,10.88,1.8ZM510.26,647.5l-3.34-1.22c-.33.86-.52,3.13.25,3.24,1.27.18,3.08-1.15,3.09-2.02ZM473.78,677.34l5.03-4.44,7.2-3.75c.66-.35,1.38-1.88,1.54-2.66-4.73-1.93-3.58,3.87-8.75,1.29-.71-.35-2.19-.63-2.69-.21-1.38,1.14-.59,1.96-2.23,5.79-.56,1.32-.75,2.55-.09,3.99ZM492.09,891.73c1.16,1.34,2.11,2.86,3.69,3.98s2.8,2.67,3.77,4.3l3.28,5.51s5.51,6.47,8.48,3.59c5.11-4.94,10.84-3.71,14.04-8.21,3.54-4.98,2-6.37,5.78-9.35,1.97-1.56,2.6-3.29,3.35-5.59l1.83-5.63,2.5-7.79c.98-3.04,1.38-6.24,2.1-9.36.87-3.73,2.42-6.96,2.39-11.05-.04-5.68,7.49-12.03,9.44-22.19l.94-4.89c.38-1.98.44-4.34.66-6.42l.74-6.99c.23-2.16-.68-4.81-2.78-5.38-4.08-1.12-5.67-3.99-7.43-7.25-4.29-7.95-.75-6.48-3.56-13.18l-3.55-8.47c-2.09-4.99-3.65-4.16-7.04-10.19-.87-1.55-2.96-2.61-4.07-3.94-1.39-1.66-2.49-3.66-3.79-5.41-1.75-2.33-3.25-4.74-4.7-7.12-2.38-3.92-1.71-7.73-1.92-11.91-.07-1.35-.29-2.99-.26-4.5l.32-16.13c.03-1.56.06-3.89.22-5.13.45-2.51.66-4.26.48-6.88-.21-3.18,2.39-11.43.15-14.41-8.9-.72-10.16,9.11-12.61,7.45-1.96-1.33,1.07-1.4-2.67-5.64-1.02-1.15-1.59-3.08-.99-4.39,1.73-3.79,8.14-.32,12.11-4.38-1.06-2.81-3.92-6.94-7.32-7.08-.56-1.49.24-5.24-1.76-6.32-2.59-1.41-5.94.43-8.64.89-4.14.71-7.58,1.95-11.09,4.1-7.8,4.79-4.94,4.7-10.32,8.05-2.08,1.29-3.16,2.95-4.71,4.64l-5.76,6.25-5,5.02c-.28.28.36,1.82.74,1.68l1.29-.5c3.38-1.3,6.24-3.31,9.34-5.25,8.62-5.4,6.84-5.93,10.09-8.28l8.22-5.94,5.9-4.38c1.35-1,2.19-2.35,4.03-2.17,3.69.35,5.95,4.99,5.35,8.1-5.35,1.88-9.38,11.81-9.16,17.05-3.89.78-6.36,3.48-8.69,6.41l-3.4,4.27c-1.85,2.33-3.99,4.49-6.21,6.62-1.56,1.48-5.28,2.59-5.88,4.67-.87,2.98-2.83,3.12-4.57,4.83l-4.89,4.82c-2.16,2.13-4.31,3.96-6.64,5.93-2.92,2.48-5.03,6.07-7.67,9.05-4.13,4.66-8.64,9.27-10.45,15.47-.48,1.66-.55,4.43-.65,6.24l-.95,16.74c-.19,3.27.38,13.65,1.72,16.92,1.43,3.48,2.8,6.27,3.1,10.09.56,7.17-1.48,3,.42,9.32,2.2,7.35-.85.43,7.9,8.68.83.79,2.49,1.89,2.95,2.79l1.95,3.82,2.85,7.09c1.79,4.45.3,4.93,4.58,10.06l4.91,5.9c.86,1.03,1.73,2.35,2.75,3.24,2.2,1.91,4.26,3.71,6.16,5.79l2.61,2.84c5.31,5.78,2.54,4.41,8.15,9.25,4.72,4.07,2.43,3.95,7.9,10.26ZM521.07,680.97c.73-2.21.33-3.81-1.27-4.66l-.58,1.64c-.21.58-.38,1.7-.21,2.23s1.89,1.31,2.07.78ZM379.41,725.02l6.34-1.07c5.61-.95,11.18-2.45,16.47-4.55,4.96-1.97,9.84-3.17,14.8-4.77,2.74-.88,4.93-2.39,7.9-2.88s5.97-1.46,8.95-2.16l14.81-3.5c1.02-.24,1.66-2.78,2.22-3.53l3.18-4.29c4.89-6.6,3.88-5.36,9.71-11.45,2.29-2.39,10.07-8.04,7.5-8.37-.36-.05-1.17.15-1.5.39-3.02,2.12-6.03,3.84-9.31,5.31l-10.86,4.88c-7.81,3.51-7.48,1.58-10.93,2.97l-15.52,6.27-5.11,3.34c-5.01,3.28-10.97,4.52-16.27,7.53-6.6,3.75-13.4,6.05-20.6,8.09-6.79,1.92-6.19,2.88-12.6,4.38-.33.08-1,.49-1.24.69s.49.95.82,1.07c6.23,2.32,1.5,3.3,11.24,1.66ZM439.24,746.06c1.01-2.19,3.73-4.41,5.31-6.46,3.89-5.03.01-3.52,10.39-8.84,2.06-3.43,7.53-8.69,10.88-10.37.61-.3.86-2.23,1.26-2.79,1.76-2.44,4.22-5.16,6.52-7.75-2.18-.77-4.17.74-5.89,2.11-2.41,1.92-5.19,3.14-7.92,4.54l-5.31,2.74-5.89,2.67c-4.85,2.2-3.51,4.27-6.06,9.89-1.16,2.56-2.46,4.6-2.97,7.47-.42,2.36-4.31,8.45-1.7,7.73.34-.09,1.2-.53,1.39-.94ZM618.19,790.29c4.25.58,14.59,9.27,15.58,5.89.24-.83-.58-1.68-1.09-2.4l-6.34-9.1c-2.97-4.26-6.88-5.79-11.24-7.97-10.34-5.17-8.16-5.39-15.81-11.55-4.37-3.52-6.51-6.28-10.41-9.56-3.02-2.54-10.9-8.02-14.18-9.55l-19.21-8.96c-2.36-1.1-4.58-2.1-6.67-3.63-2.23-1.63-4.87-3.04-6.81-5.18-2.52-2.78-5.09-5.68-6.96-9.06l-4.37-7.91c-.27-.49-1.55-1.05-1.94-.84s-.87,1.16-.89,1.64l-.26,6.25c-.22,5.38,1.69,9.58,4.7,13.73.99,1.37,2.08,3.76,2.91,5.27.43.78,2.5,1.51,3.27,2.14l7.46,6.16c1.24,1.03,4.29,1.77,5.07.65.36-1.34.62-2.66,1.21-3.57.46-.7,1.96-1.16,2.79-1.11,3.23.18,3.85,1.92,4.52,4.39.62,2.26,3.7.79,5.12.98l6.57.89c1.79,3.03,3.37,11.74,2.82,15.17-.38,2.4,2.24,2.79,3.53,3.86,4.07,3.37,8.13,6.36,12.93,8.66,2.35,1.13,4.16,3.17,6.49,4.3l16.71,8.1c1.73.84,2.37,2,4.5,2.29ZM412.23,726.49c6.75-2.67.77.28,7.18-2.24,7.31-2.88,17.93-3.8,19.62-7.58-3.57-.01-6.88.4-10.17,1.25l-6.18,1.59c-1.96.5-4.1,1.15-6.12,1.79l-12.33,3.91c-.79.25-2.76.62-2.69,1.36s.4,2.01.67,2.59,2.15.44,2.75.2l7.27-2.88ZM338.33,730.12c1.63-.79,9.63-4.61,7.9-5.59-.28-.16-1.2-.51-1.6-.5-3.88.09-8.25-1.04-12.1-1.68-5.74-.96-22.59-2.98-27.68-2.91l-6.04.09-8.43.24c1.68,2.84,4,1.95,6.14,2.74,11.83,4.35,16.91,2.68,28.25,5.24l6.27,1.41c1.92.43,5.23,1.31,7.3.95ZM388.26,730.6l-11.68,1.59c-3.6.49-7.74,1.21-11.03-.32s-7.16-5-10.31-4.43c-3.86.7-7.26,2.62-9.99,5.93,2.63.56,4.53,1.04,6.62,1.28l5.99.67c7.72.87,15.34-.33,23.04-1.38,2.71-.37,6.35.49,7.36-3.35ZM397.15,754.75l4.05-4.63c.77-.87,1.75-3,2.58-3.79,2.68-2.56,5.76-5.12,8.84-7.14,4.13-2.72,8.3-5.41,10.88-9.5.15-.23-1.25-.16-1.55-.03l-7.67,3.4c-1.28.57-2.58,1.25-3.78,1.47-7.77,1.38-2.45.41-9.61,3.51-1.76.76-2.59,1.9-2.98,3.84l-1.08,5.36c-.49,2.43-2.22,5.34.31,7.52ZM424.13,844.35c3.73,2.13,8.23,3.62,11.28,6.33,3.62,3.2.49-8.11.5-9.17.04-2.86.23-5.03-.14-7.76-.24-1.75.19-4.5-.63-5.92-1.21-2.09-3.82-3.45-4.74-5.46-1.18-2.57-2.34-4.76-4.92-6.07l-1.06-3.85c-1.53-5.52-1.77-8.81-1.37-14.86l.77-11.85c.12-1.83.09-3.06,1.22-4.64.35-1.18.6-3.69.69-5.15.61-9.54,2.83-15.08,3-16.56l1.3-11.23,2.85-4.04c.36-.5,1.97-1.33,1.7-1.88l-1.03-2.1c.52-.18,3.97-9.59,2.44-9.02-2.2.16-4,2.29-5.3,3.79l-3.35,3.85c-6.53,7.52-7.4,3.77-11.22,8.18-1.95,2.25-5.04,4.16-6.52,6.8-1.21,2.16-2.06,3.79-4.33,4.94-4.03,2.04.34,2.38-5.74,7.79-1.58,1.4-2.49,3.43-3.26,5.53-1.66,4.55-5.45,1.86-3.71,13.79.35,2.42,1.04,4.63,1.5,6.95s.36,4.3,1.59,6.19l3.8,5.82c.21,3.4-.66,7.69,3.36,9.95l.37,4.67,3.06,1.27c-.3,2.5.66,3.38,1.59,5.13,1.82,3.41.43,10.86,10.45,14.98,2.15.88,3.68,2.36,5.83,3.59ZM554.32,790.45c.07-.62-.22-1.99-.23-2.64l-.29-14c-.02-1.17-2.53-6.15-1.59-11.53.24-1.36-.19-7.46-1.35-8.89-.64-.79-2.56-1.13-3.61-1.68l-5.33-2.78c-1.08-.56-2.28-1.97-3.67-2.25-2.24-.45-3.45-1.62-4.78-3.32-1.12-1.44-3.53-3.11-4.14-4.69-1.12-2.89-2.21-5.28-5.93-4.3-.36,2.41-.69,5.26.1,7.57.45,1.32.78,3.56,1.32,4.6,1.99,3.83,4.12,7.41,6.61,10.78l3.63,4.9c1.43,1.93,2.77,3.75,4.43,5.32l3.59,5.61c-1.04-1.63,4.54,9.7,4.17,8.63l1.82,5.17c-.08,2.66.95,9.67,2.62,11.71.38.46,2.03.88,2.32.4,1.23-2.04-.43-2.24.32-8.6ZM532.69,901.29c-1.51,1.37-2.59,3.6-3.84,5.29-.85,1.14-3.02,1.89-2.28,3.49,5.44-.84,8.35-4.89,11.81-7.88,1.93-1.66,3.84-2.82,5.66-4.92l3.19-3.68c1.97-2.28,6.62-14.11,6.91-14.59l3.02-4.84c1.43-2.29,2.16-5.16,3.39-7.42,1.98-3.63,3.57-6.71,4.35-10.92.96-5.15,1.85-10.19,1.55-15.56l-.36-6.56c-.19-3.36-.75-6.59-1.35-9.91l.8-5.6.99-6.62c.79-5.29,2.7-10.7,2.46-16.14l-.47-10.39-2.05-4.68c-.47-9.65-1.11-3.99-1.13-15.27,0-1.48-1.73-3.72-3.01-2.95-1.82,1.09-.4,3.76-.69,5.1-.49,2.2-1.04,4.23-.77,6.39l1.31,10.55c-.12-.94.79,25.71.84,25.12l-.44,5.99c-.66,8.88-1.02,7.97-2.27,15.79l-1.51,9.44-1.47,3.89c-2.85,7.53-1.08,8.74-2.12,14.3-.41,2.2-.67,4.31-1.38,6.4-3.1,9.13,3.2,3.55-5.11,15.39l-3.33,4.75c-1.73,2.47-3.57,4.66-5.38,7.04l-3.75,4.91c-1.18,1.55-2.08,2.74-3.56,4.08ZM495,903.16c-5.4-7.12-5.18-4.68-10.01-11.88-9.17-13.67-14.82-15.31-16.45-17.45s-3.33-3.81-5.49-5.38l-.99-2.82c-2.42-1.12-4.14-2.56-5.47-4.85-.91-1.56-2.84-3.37-3.57-4.88-1.05-2.16-1.86-4.15-3.01-6.25-1.8-3.26-2.26-6.79-2.89-10.62l-4.18-4.61c-.39-.43-1.64-.81-2.11-.53-.38.23-.36,1.26-.34,1.88l.19,4.43c.16,3.76,1.41,6.99,1.26,10.91-.2,5.09,3.69,11.67,6.8,15.37.73.87,1.72,1.57,2.51,2.5l4.15,4.88,5.02,4.77c1.86,1.77,3.95,3.31,5.98,4.94-1-.8,9,9.7,9.24,9.97,1.65,1.91,3.22,3.24,5.49,4.47,1.13.61,12.94,7.14,13.88,5.14ZM443.7,876.26c-.14-2.74-1.62-5.15-3.06-7.46l-3.75-6.01c-3.11-4.97-7.22-8.63-13.48-9.79,3.86,2.79.54,5.98,7.26,11.07l2.17,4.71c6.78,3.47,5.02,7.88,10.87,7.48ZM733.23,864.35l6.01,1.8c3.95,1.19,6.68-1.62,9.6-3.09,4.85-2.46,9.22-4.5,12.91-9.35-.55,0-1.83.33-2.77.79l-7.24,3.55c-1.94.95-4.66,1.32-6.72,2.49-6.82,3.89-10.5,1.53-13.34,2.6-.19.07.15.79.35.85l1.2.35ZM489.07,916.17c.22-3.77-2.61-2.71-4.06-3.98l-5.4-4.76c-5.79-5.11-12.27-11.25-19.4-14.64l-6.56-3.12c-3.03-1.44-4.33-5.27-8.8-4.49,2.78,5.26,4.31,7,8.06,10.59,7.44,7.13,3.49,3.4,11.83,8.85l3.97,2.6,6.27,3.89c2.22,1.38,4.46,2.25,6.91,2.97l7.16,2.11Z"/>
  <path class="cls-1" d="M599.18,384.53c-5.29-5.35-5.73-1.11-15.03-4.41-2.72-.96-4.85.69-7.09,1.05-3.37.55-6.23.56-9.23,2.57-1.87,1.25-3.9,1.82-6.29,2.61-1.85.61.61,6.21,1.86,7.61.48.54,2.3.24,3.12.17l6.06-.49c3.87-1.92,7.95-3.93,12.37-2.97,1.8.88,1.05,4.51-.52,5.62l-3.76,2.66c.53,2.51-1.54,2.4-2.63,3.64-1.45,1.65-2.99,4.43-4.22,6.5,1.84,2.29,1.02,3.59-.11,5.72-1.63,3.08-3.08,6.18-4.59,9.43-.79,1.7-.89,4.05.2,5.73,2.13,3.27,7.04,1.53,11.41,12.62l2.51,6.36c2.34,5.94.85,10.11,2.18,16.79,1.26,6.31-1.49,9.31-3.01,17.42-.52,2.77-1.88,4.49-2.99,6.82s-1.07,5.32-3.6,6.87l-2.61,5.35c-.52,1.07-.98,1.9-1.49,2.36s-2.54.36-2.95-.19l-2.4-3.18c.16-2.41,2.14-4.79,3.99-6.4,2.72-2.37,2.19-5.87-.21-8.05s2-6.01-1.45-10.59c-1.41-1.87-3.44-2.86-6.17-2.91s-4.13,1.13-5.66,3.18c-3.57,4.77-4.79,3.05-7.46,8.24-.66,1.29-2.48,3.1-2.68,4.48-.54,3.84-1.06,7.02-1.91,10.76-1.22,5.31,5.7,2.8,5.83,6.2.24,5.99-12.21,9.85-10.76,20.22.36,2.56,1.7,3.59,3.59,5.08,2.06,1.63,3.47,4.58,4.99,6.86l2.72,2.04,2.33,4.66c.46.92,1.07,3.2,1.11,4.23.39,10.45-1.82,5.8-.94,13.57.18,1.55-.61,3.89-.65,5.69-.06,2.8-1.19,5.54-1.44,8.07-.42,4.21-.74,7.8-2.04,11.73-2.34,7.03-.95,14.03-8.19,23.92-4.17,5.7-8.45,10.69-13.38,15.84-2.96,3.09-5.42,6.92-9.11,9.58-3.04-1.74-2.28-4.87-3.41-7.26-.49-1.05-1.75-2.56-2-3.81l-1.11-5.45c.46,2.28-4.37-16.17-3.17-12.89-1.69-4.62-3.21-8.57-3.45-13.75l-.42-9.26c-.14-3.04.77-6.57.4-9.61-.54-4.41.96-7.62,2.8-11.29.79-1.57.85-3.84,2.11-5.52.93-1.24,1.36-3.13,1.85-4.72l2.32-7.6c.87-2.85,1.55-5.54,2.07-8.68.38-2.33,1.38-4.66,1.25-7.12s.95-4.34,2.43-6.18l-1.73-7.85c-.94-4.24.42-14.81.29-21.48-.03-1.65.65-4.9.73-6.54.03-.64,1.41-1.69,1.67-2.24l3.96-8.41c3.91-8.31.1-4.97,1.69-13.91.17-.97.43-3.03-.27-3.57l-2.75-2.13,3.44-6.69-.21-6.33c-.09-2.66-1.06-4.53-3.96-4.74-6.38-.47-3.39-1.07-11.05,1.46l-7.55,6.08c-2.04,1.64-3.67,4.35-5.45,6.21l.98,4.94,4.8,1.3c.76,2.84-1.13,4.68-3.04,6.52-2.61,2.51-6.86,11.86-4.18,14.91s4.96-1.78,10.19.46l2.04,5.51-1.36,4.46-1.38,4.34c-.66,2.07-1.25,3.76-2.16,5.75-1.96,4.25-2.3,9.67-.5,14.17,1.17,1.91,3.07,3.8,4.5,5.68,2.9,3.82.51,14.3-1.12,18.59l-3.74,9.85c-2.06,5.43-1.82,7.99-5.3,8.19-2.24.13-2.03-2.1-3.13-3.39-1.79-2.11-3.1-4.11-4.39-6.68l-4.38-3.85c-1.13-.99-1.89-1.64-2.73-2.87,2.73-.41,4,.93,6.01,1.6,1.61.53,5.38-.03,6.71-1.13,2.42-2.01,8.89-7.03,8.84-9.3-.02-.9-.94-3.11-1.8-3.06-1.43.08-1.96,2.16-2.49,3.43-.69,1.69-7.05,4.77-9.21,5.3l-1.68-3.3-5.18-.2-4.64-3.63c-1.8-.42-3.3-.78-4.33-1.66-1.26-1.09-1.34-2.64-1.18-4.5s-.63-3.84-.8-5.48l-1.19-11.81c-.19-1.89-.89-3.59-1-5.49l-.54-9.44c0-.08-1.81-10.43-1.71-13.09s.44-5.15.27-7.71l-.29-4.38c-.21-3.26-.34-6.76-.02-9.99l.61-6.07c.31-3.13.17-6.01.22-9.21.04-2.46,2.44-9.93,2.28-13.44-.3-6.44,2.39-3.41,4.86-12.97.83-3.2,2.39-6.74,5.66-7.81,2.46-.8,4.49-2.62,3.78-5.54-1.97-8.04,3.82-10.47,6.99-16.58,1.9-3.67,5.16-5.64,7.68-8.72l4.12-5.02,4.9-5.31,10.89-9.2c2.2-1.85,4.32-3.57,6.65-5.27,3.05-2.22,12.93-12.45,16.03-15.82,1.5-1.62,2.07-3.34,2.82-5.55.86-2.53,3.65-4.75,4.74-7.25.74-1.7.9-4.27,2.05-5.51,1.65-1.78,1.19-3.08,1.31-5.23l.34-5.91c.12-2.12-.18-4.79.08-6.76l1.64-12.43c.38-1.25,1.79-3.43,2.09-4.66l2.13-8.65c1.01-4.13-.18-8.87,1.47-13,2.57-6.45-.68-5.65,3.63-14.65.74-1.55,1.45-3.01,1.54-4.84.12-2.44,1.64-4.16,2.33-6.04,1.4-3.79,4.2-11.55,6.65-14.26,1.39-1.54,2.44-3.74,3.61-5.55l4.22-6.55c.68-1.05,1.44-3.05,1.99-4.33,1.17-2.73,3.04-4.46,4.9-6.65,1.37-1.61,2.51-3.38,4.32-4.8,2.52-1.98,4.15-4.58,6.17-6.79,3.76-4.1,3.33-5.24,8.37-9.03l7.72-5.79,5.71-4.07c2.63-1.87,5.33-2.92,8.19-4.35l6.81-3.41c2.28-1.14,4.62-2.54,6.81-3.93,1.81-1.15,3.28-3.09,5.38-3.75,10.94-3.47,15.2-9.69,29.4-13.28l11.53-2.91c2.78-.7,5.99-2.1,8.71-2.43l17.16-2.07c6.49-.78,11.84-1.29,17.89.17l4.96,1.2c3.37,6.34.82,7.54,3.81,9.57l-3.16,7.6c-.58,1.38-1.44,3.21-1.78,4.36-3.99,13.51-5.94,11.24-10.57,21.04-.67,1.42-1.18,2.29-2.1,3.46l-5.02,6.43c-1.26,1.62-2.38,3.35-3.53,5.04l-4.43,6.49c-.96,1.41-1.58,2.82-2.67,4.25l-4.37,5.76-4.42,7.01c-.84,1.33-4.89,8.98-5.59,10.53-2.01,4.43-3.43,12.22-3.61,17.3-.08,2.31-.59,3.85-.93,6.16l-1.06,7.28c-.54,3.76-1.6,7.27-1.82,11.1-.77,13.24-.24,14.33,1.23,26.65l.86,7.21c.6,5.01,1.55,10.04,2.78,14.92l1.65,6.52,1.7,7.01c.27,1.11.73,3.16,1.17,4.05l2.87,5.85,3.43,7.91,3.39,8.41c.93,2.3,2.47,4.63,3.19,6.94.89,2.85,2.23,5.82,2.69,8.5l.95,5.59c.47,2.76.94,4.72,2.05,7.36.97,2.31,1.34,5.22,1.99,7.7l1.98,7.5c.85,3.2,2.18,6.12,2.81,9.5,1.48,7.92.52,14.94-.11,22.95-.12,1.48.19,3.42-.05,4.97-1.35,8.61-1.34,18.16-3.98,25.2-1.64,4.39-1.41,11.25-5.44,21.84-.73,1.92-1.7,3.64-2.29,5.7-.61,2.17-1.78,4.22-2.7,6.21l-3.82,8.21c-1.44,3.09-2.47,6.39-4.18,9.35-.16.73-.63,2.42-.85,3.13-.87,1.39-2,3.14-2.77,4.59l-2.43,4.62c-1.87,3.55-3.91,6.71-6.38,9.93l-6.52,8.5c-1.22,1.59-1.23,3.46-3.72,4.3-1.49.5-2.85,3.1-3.59,4.62-.92,1.89-2.24,2.84-3.67,4.14l-6.23,5.65c-3.42,3.1-6.02.34-7.65,2.26-2.31,2.71,3.77,3.65-4.8,11.18l-1.47,4.8c-1.1,2.16-3.48-.44-4.68-.29-1.51.18-4.2.57-5.63,1.05l-10.29,3.47c-9.44,3.19-5.31,2.84-11.68,6.45l-11.75,6.64-9.1,5.48c-2.76,1.66-5.39,3.23-8.18,4.74l-11.66,6.28-7.96,3.89c-.27.13-1.33-1.16-1.1-1.35l1.37-1.17c2.13-1.81,3.62-3.45,5.25-5.58l3.26-4.28c1.92-2.53,3.54-4.74,4.85-7.66l2.83-6.31c1.06-2.36,2.5-4.12,2.93-6.87.16-1.05.99-2.21,1.53-3.25,1.71-3.32,1.82-7.57,2.98-11.09.95-2.88,1.55-5.47,1.95-8.51l.93-7.09,1.41-10.26.93-9.19.94-10.4.55-4.32.7-9.09c.18-2.35.82-4.17,1.96-6.21l2.9-5.17c2.15-3.84,5.15-5.98,8.53-8.57,1.75-1.35,3.18-3.24,5.35-4.32,3.48-1.73,6.67-2.98,10.5-3.76,1.87-.38,10.19-2.27,9.93,1.45l-4.83,4.41c-2.03,1.85-3.78,3.88-5.46,5.94l-7.33,8.97c-3.52,4.31-11.7,15.06-8.13,20.65,1.43,1.47,6.02.33,7.1-1.53,4.44-7.68-.04-4.86,5.13-11.76,1.42-1.89,2.66-3.57,4.52-5.31,1.4-1.31,2.37-4.01,3.82-5.12,2.49-1.9,3.63-3.84,5.7-5.96l3.36-3.46c3.21-3.3,5.81-6.75,8.24-10.68,1.15-1.85.94-4.46,1.54-6.75.31-1.18,2.81-2.05,3.81-3.09,1.16-1.2.77-4.83-.4-6.01l-4.89-4.91c-3-.1-6.5-.27-9.38.25l-4.47.82c-3.74.68-7.23,1.94-10.85,3.12-3.07,1-9.96,3.45-10.67,6.85-.24,1.18.54,3.29,1.66,3.62,1.25.38,2.86,2.53,1.83,3.2l-6.1,3.94c-.62.4-2.25.99-2.89,1.36l-4.35,3.37-5.32,5.29c-1.52,1.52-2.68,2.62-3.66,4.52-.85,1.64-2.2,3.48-2.58,5.17-1.32,5.9-3.13,8.24-3.26,14.52l-.12,5.97c-.06,2.82-.44,5.53-.7,8.13l-.67,6.65-1.21,13.33c-.4,4.42-.67,8.68-1.82,13.06-.79,3.02-2.03,6.07-2.52,9.12-.93,5.85-2,6.84-4.5,13.16l-2.77,7.01c-1.15,2.91-7.89,11.98-10.25,15.02l-4.02,5.18c-3.22,4.15-1.43,4.58-4.23,6.49s-4.11,3.95-5.84,6.77c-.78,1.27-3.27,2.48-4.2,3.66-1.38,1.75-2.61,3.77-4.11,5.13l-3.52,3.17-4.66,4.34c-.18.17-.95.31-1.18.36-2.78.6,4.39-9.2,4.45-9.28,6.32-8.81,7.21-7.52,12.54-14.11,1.19-1.47,2.13-3.6,3.27-5.34,3.17-4.87-2.55-5.82,1.21-9.68,1.37-1.41,1.62-3.96,2.52-5.51,2.28-3.95,4.21-7.43,5.43-11.91.65-2.4,1.98-5.42,2.05-7.91.15-4.77.37-9.51-.12-14.1-.55-5.08-1.19-9.53-.49-14.68.44-3.22.21-6.72.41-9.96l.52-8.07c.34-5.28,1.74-10.08,3.19-14.99,3.26-11.09,5.03-6.55,9.17-15.26l3.71-7.81c2.03-4.26,1.55-5.69,4-9.86,3.19-5.44,2.86-11.67,2.82-17.55-.02-2.49.03-4.84-.15-7.31l-.52-6.96c-.38-5.11-1.14-10.24-3.57-14.32-1.21-2.03-2.16-4.22-3.77-6.03l-4.45-5.01c-2.48-2.79-1.35-5.39.73-7.64,1.12-1.21,2.34-3.72,4.19-3.7,1.92,1.51,3.71,4.12,5.91,4.98,1.62.64,5.56.9,7.01-.01,1.58-.99,5.82-3.74,6.2-5.36.19-.82-.85-2.15-1.62-3.03-.65-.75-.54-2.92-.7-4.18-.37-2.83-3.81-3.63-6.32-3.05-1.51.35-3.78.59-5.05-.09-1.52-.82.7-2.93,1.4-3.89l5.73-7.98c.3-.42,1.62-1.43,1.62-1.93l-.04-8.11Z"/>
  <path class="cls-1" d="M465.72,651.91c3.43,6.99,4.94,12.26,2.81,19.7-1.75,1.1-3.75,2.16-3.45,4.78l-4.4.5c-2.05,2.03-9.49,5.66-12.19,6.68l-5.81,2.2-7.95,2.89c-3.77,1.37-7.84,1.91-11.27,4.01l-5.7,3.5-5.15,3.02-6.76,3.47c-4.15,2.13-7.76,4.28-12.24,5.62-4.72,1.41-9.27,3.56-14.04,4.7-2.16.52-3.74,1.01-5.76,1.68l-7.45,2.46c-9.06,3-3.72,2.82-14.97.79l-5.48-.99c-4.06-.73-7.96-1.48-12.09-1.71-3.3-.18-6.01-.7-9.25-1.63-1.73-.5-4.32-.29-6.23-.45l-6.6-.55c-3.28-.27-6.39-.25-9.68,0l-8.16.61c-2.05.15-4.39.17-6.44.04l-7.09-.48-12.46-1.33-18.86-1.6c-3.03-.26-5.36-.6-8.39-1.58l-7.33-2.35c-.84-.27-1.67-2.24-2.14-2.92-2.05-1.11-4.75-2.44-6.73-3.97l-9.13-7.04c-1.99-1.54-3.86-2.93-5.74-4.54l-6.99-5.96c-2.36-2.01-5.1-3.59-7.15-5.91-3.8-1.33-6.59-4.01-9.68-6.54l-4.45-3.64-4.37-3.73c-3.05-2.6-6.71-4.35-10.15-6.54-.66-3.48-4.03-4.47-6.2-6.88l-5.85-6.5-4.39-3.19c-1.47-1.07-5.67-6.06-6.6-6.8l-9.09-7.26c-1.46-1.17-3.1-2.3-4.32-3.76-1.51-1.78-3.07-2.58-4.96-3.82l-9.34-6.15c-8.26-5.44-6.73-10.51-8.96-13.83-2.72-4.05-5.15-8.61-8.42-12.12-1.48-1.59-2.53-2.39-3.69-4.55-2.98-5.56-5.68-6.88-9.01-10.91-1.41-1.71-3.64-3.3-4.94-5.09l-3.23-4.47c-1.36-1.87-2.56-4.85-4.47-6.16-5.14-3.52-2.47-8.41-1.48-12.02,2.48-9.06.27-11.31,4.74-10.96l7.14.55,11.79,1.47c3.58.45,6.62.17,10.19.98.51.12,1.65.03,2.14-.09s.75-1.83.23-2.05c-1.85-.8-5.41-2.03-7.51-2.3-4.61-.58-8.52-1.3-12.88-2.11l-4.51-.83-1.58-.26c-1.72-.28,7.69-5.56,6.85-5.14l5.09-2.53c2.29-1.14,3.59-2.59,6.08-3.34,3.03-.91,9.18-3.46,12.24-4.88,2.59-1.21,6.38-1.03,8.84-2.52,3.82-2.3,7.26-3.01,11.72-4.11l7.58-1.87,13.9-.35c1.83-.05,3.58-.08,5.44-.01l14.09.49c2.95.1,6-.59,8.92-.14s5.89.7,8.85.83l10.32.44c4.1.17,8.3.39,12.4.06l6.57-.52c14.24-1.13,6.16-1.16,19.25-3.44,11.73-2.05,20.31-5.29,31.72-5.79,4.25-1.83,8.72-1.89,13.28-2.11l14.08-.68c2.05-.1,4.73-.84,6.88-1.13l12.42-1.63c1.04-.14,2.72-.73,3.78-.75l12.56-.24c1.8-.03,4.44.76,6.45.91l7.59.55,14.97,1.65,6.66.45c11.54.78,6.2.79,15.64,3.66,2.8.85,6.04,1.6,8.53,2.91l9.28,4.88c2.34,1.23,3.27,4.18,6.78,4.55,2.24.24,9.29,5.3,12.71,6.96s6.79,3.1,10.18,5.07c.84.49,2.03.93,3.01,1.43,2.52,1.27,4.95,3.57,7.46,4.65,3.9,1.68,6.95,3.64,10.25,6.2,6.59,5.11,14.83,8.44,17.39,18.23l2.3,8.76,2.52,5.96c-.43.52-2.07,1.12-2.48.77l-1.73-1.49c-3.4-2.93-5.71-2.57-12.79-8.1-2.35-1.83-6.45-2.19-8.19-4.81-.99-1.49-1.64-2.94-3.16-3.85-1.64-.97-2.33-2.45-2.98-4.19-.88-2.37-2.33-4.48-3.44-6.65-.83-1.62-1.42-2.76-2.62-3.99-2.1-2.13-3.77-3.89-6.76-5.23-2.08-.94-6.88-1.24-8.28.9s-1.75,3.48-4.28,4.28c-1.44.45-1.98,2.61-1.82,4.21.28,2.72,2.45,2.43,3.26,4.8.58,1.7-6.97.03-9.59-.09-4.07-.19-9.98-.87-12.84-3.66l-6.03-.32c-3.69-1.33-6.65-2.11-10.42-3.06-2.35-.59-5.76-3.22-8.38-1.53-2.07,1.34-.16,3.95.63,5.15,1.28,1.94,1.9,3.1,4.58,2.62,1.68-.3,3.26,1.24,5,1.39l6.07.51c1.49.13,3.33,2.1,4.61,2.79,2.59.19,4.51.67,6,2.86l4.69.16c.89,1.99,2.67,2.69,4.87,1.9,6.47-2.3,2.66-1.38,11.96.06,1.62.25,2.88.7,3.97,1.93.96,1.08.6,3.01.77,4.61.13,1.25,1.84,3.63,1.85,4.97-1.32,2.95-1.76,5.79,0,8.79,4.36,7.46,4.49,4.67,8.25,8.8l3.04,3.34c5.99,4.13,5.7,6.65,12.9,12.4,1.8,1.44,4.32,2.26,5.77,4.14,1.58,2.05,3.79,4.22,4.84,6.27l3.13,7.77c.96,2.39.41,5.28,1.64,7.76,1.36,2.77,2.24,5.57,2.88,8.58l1.04,4.87c-.13-.61,3.47,12.34,3.12,10.26.53,3.15.98,5.87,2.22,8.78,1.09,2.57,1.19,6.36-.93,8.13-.37.31-1.83.1-1.91-.34s-.3-1.83-.64-2.18c-4.15-4.23.28-1.87-3.17-7.37-1.08-1.72-1.58-5.21-3.1-6.45l-4.46-3.67c-2.48-2.05-9.13-5.94-9.12-8.01,3.54-1.46,6.26-1.73,10.2-1.75l.16-2.91-9.42-.15c-4.56-.07-10.66-.78-14.48-3.5-.79-2.71.81-5.06,2.07-7.22,1.43-2.45-.63-6.42-3.38-6.81l-8.16-1.15-9.97-.48c-2-.1-3.59-.53-5.63-.36-2.89.24-6.38-.33-8.9,1.02-2.06,1.11-.51,4.3.87,5.36,4,3.09,2.33-.54,9.99,2.37l6.08,2.31c1.31.82,2.7,3.35,4,4.39l6.99,5.57,3.8,2.63c2.41,1.67,5.6,2.35,8.13,3.76,1.77.99,3.05,1.5,5.08,2.28,1.4.53,3.2,2.64,4.79,3.57,2.57,1.5,3.42,5.21,5.45,6.91,1.62,1.36,2.93,1.91,3.9,3.89Z"/>
  <path class="cls-1" d="M548.5,685.05c.95,1.25,3.24,2.39,3.61,3.98l2.17,9.17c.37,1.56.9,3.11,1.43,4.56,1.66,6.95,3.97,14.07,9.98,18.63,1.2.91,2.51,1.82,3.56,2.93,3.09,3.28,8.95.88,10.26-.43.62-.62-.02-3.32-.82-3.35-3.47-.3-7.26-1.83-9.98-3.55-6.94-4.4-3.29-2.93-6.52-13.68l-2.51-8.35c-.53-1.77-2.2-3.06-2.42-5.16-.24-2.27-.92-4.15-1.68-6.28-.65-1.79-1.81-2.29-3.07-3.62-4.03-4.25-5.65-8.74-8.37-11.42s-5.4-3.42-3.05-4.78l8.53-4.88c2-1.14,3.96-2.04,5.88-3.39,2.23-1.56,4.56-2.49,7.04-3.41,10.34-3.85,12.63-2.63,16.91-4.08,6.51-2.21,12.81-4.1,18.95-7.03l8.38-4,5.03-2.1c1.16-.48,1.97-1.22,3.12-2.26,1.04-.94,3.85-1.48,5.02-2.29,7.21-5.03,11.38-1.54,21.27-3.84,3.45-.8,6.33-2.15,9.99-1.76,1.89.2,3.35-.69,5.06-1.48,3.51-1.62,7.75-1.47,11.57-2.1,4.28-.71,8.17-.84,12.52-.42l5.38.52c2.8.27,5.03.71,7.53,1.74l7.63,3.15c1.21.5,4.1-.26,5.07,1.14.44.63.17,2.4,0,3.53.99.61,3.37.37,4.44-1,.59-.76-.87-2.29-1.25-3.1-1.09-2.37-2.64-3.31-5.09-4.19-3.65-1.32-7.25-4.18-11.24-4.62-7.24-.79-11.79-4.1-21.94-1.94-5.05,1.07-10.47-.08-16.11,1.75l-6.58,2.14c-2.87.93-5.29,1.74-8.4,1.86l-11.38.46c-3.13.13-6.46,1.44-8.69,3.49-2.93,2.68-6.52,3.24-10.09,4.83-1.2.53-2.81,1.63-4.06,2.28l-4.62,2.4c-1.55.81-3.14,2.33-4.87,2.53-14.84,1.7-11.07,4.67-21.09,5.89-1.77.22-3.14.82-4.59,1.2-4.56,1.21-8.96,1.85-13.38,3.63-1.53.61-2.9.68-5.02.48,1.08-1.8,1.94-2.89,3.27-4.44,1.56-1.82,3.9-6.73,4.84-7.66,5.38-5.31,11.81-10.23,18.56-13.69l7.18-3.67c1.98-1.01,16.54-8.83,16.23-8.68l5.48-2.62c2.71-1.29,13.21-8.82,19.06-11.83,5.17-2.65,10.38-4.97,16.41-5.13l.27,9.08c.03,1.06,1.88,2.47,2.81,2.39,3.11-.27,1.45-3.05,4.33-9.36,1.34-2.93,5.85-.84,13.2-7.82,1.67-1.58,2.84-2.57,5.39-2.48,3.6.14,7.62-1.38,11.18-.83l7.01,1.09c.86.13,2.27.22,3.03.24,1.09-2.2,2.83-1.98,4.77-1.8l12.36,1.13c2.31.21,4.2,1.08,6.29,1.84,9.13,3.34,5.26,2.47,13.21,6.9l7.64,4.26c3.6,2.01,1.22,2.97,5.98,7.52.7.66,3.23-.33,4.24-.2,2.92.38,5.23,3.54,5.85,6.51.28,1.33,1.42,2.68,2.41,3.35,2.72,1.83,2.76,5.07,4.03,7.59l3.93,7.83c1.26,2.51,2.86,4.27,2.99,7.44.03.68.39,2.01.69,2.56s2.2.5,2.7,1.07c1.66,1.9,4.74,5.07,6.03,7.58,5.45,10.65,8.76,7.49,13.47,19.33l2.67,3.08c2.07,2.39,2.26,4.67,2.99,7.64l2.29,9.3.33,7.99c.27,6.38.91,11.43-.56,17.85l-1.96,8.52c-.63,2.74-.27,5.87-1.9,8.35-3.97,6.01-.91,10.24-5.21,11.34-.47,3.49-1.07,7.45-1.31,11.19l-.39,6.12-.99,10.55c-.07.79.78,2.48.61,3.26-.4,1.85-.03,4.1.03,6.09l.32,10.18c.05,1.74.19,3.66.37,5.11l.85,6.82c.15,1.18.8,2.92.86,4.32.43,8.76,2.08,10.66-.5,21.35-.32,1.32-1.14,3.07-1.52,4.31-1.41,4.66-5.19,7.02-8.68,9.81-2.63,2.1-5.32,3.36-8.22,4.91l-9.44,5.05c-4.54,2.43-9.24,3.87-14.08,5.45-2.63.86-4.7,2.78-7.57,2.54-7.1-.61-14.25-.16-20.77-3.42-1.57-.79-3.09-1.58-4.85-2.13-3.32-1.04-6.1-3.05-9.15-4.73-2.76-1.52-5.07-3.49-7.71-5.34-4.12-2.89-6.9-3.23-11.43-8.1l-3.12-3.36c-1.11-1.19-2.22-2.38-3.34-3.67l-4.29-4.89c-1.92-2.19-4.22-3.72-6.39-5.55l-6.46-5.47-4.34-3.76c-4.5-3.9-8.32-8.55-12.42-12.96-3.38-3.63-6.31-7.64-8.73-11.93-1.59-2.83-4.62-4.63-7.18-6.69-1.43-1.15-2.93-2.27-4.76-2.71s-3.73-2.15-5.18-2.68c-2.61-.95-3.63-1.39-5.39-3.15l-3.76-3.79c-2.58-2.61-5.37-5.02-8.28-7.45l-4.93-4.11c-2.77-2.31-5.23-4.6-8.4-6.32l-9.46-5.11-5.23-2.75c-7.46-3.92-4.96-1.03-15.93-7.82-8.88-5.49-10.86-12.16-15.26-17.84l-2.87-3.7-6.76-9.35c-1.46-2.02-.55-5.57-.76-7.99-.09-1.03-.94-2.9-.79-3.86.39-2.63.5-5.09.18-8.04l6.89-.72c1.33-.98,3.09-3.35,5.21-1.86,2.3,1.62,6.08,5.96,8.26,8.83Z"/>
  <path class="cls-1" d="M762.97,579.75c-2.03,2.09-9.54,8.28-11.69,8.7-3.16.6-4.7-2.4-6.88-3.45-8.1-3.94-5.93-2.97-14.24-5.65l-5.36-1.73c-1.96-.63-4.85-.67-6.67-1.47-6.78-2.99-13.39-3.93-21.22-4.57-.88-.07-.08-2.57.7-3.1l10.33-7.06c1.24-.85,2.92-1.27,3.85-2.56,1.3-1.8,4.06-2.27,5.44-3.61,1.48-1.44,2.38-2.87,4.37-3.47,3.95-1.19,6.62-5,6.29-8.98,3.15-4.04-1.51-8.72-3.3-13.59-.95-2.6-1.49-4.32-3.62-6.34-1.61-1.54-2.47-10.03.8-11.27.09-1.48,0-3.75.36-4.92l1.2-4.01-3.2-2.73c1.58-5.2,3.04-9.97,4.83-14.8.72-1.94.97-4.12,1.54-6.25,1-3.69,3.01-7.25,3.76-11.07l1.48-7.63c.71-3.67.77-7.42,2.89-10.76l1.7-15.16c.24-2.11.78-4.09.68-6.28-.08-1.82.41-3.33,1.65-4.49.75.87,1.49,1.84,2.2,2.4,1.11.88,4.61.71,5.68-.31l6.7-6.43c2-1.92,4.06-4.17,5.89-6.3,1.46-1.7,2.2-2.18,4.23-3.07l6.38-2.79c-.52.23,8.08-5.98,11.92-7.28l10.16-3.44,7.25-.44,4.47-1.93c11.34,1.34,3.55-.52,11.94,2.7l18.03,6.93c2.44.94,5.3,2.39,7.35,3.89l4.82,3.51c1.18.86,3.79,1.28,5.1,1.75,1.82,1.68,3.65,3.72,6.09,4.66,5.57,2.15,4.75,3.25,10.35,5.83,1.65.76,4.23.83,5.73,1.84,5.88,3.95,8.47,3.57,14.4,4.77l19.96,4.06c1.99.4,5.02-.21,6.7.19,3.09.74,1.19,4.01,1.91,5.26,1.3,2.27,2.45,4.3,3.15,6.93,1.11,4.13,2.61,8.3,4.62,12.02.6,1.11,1.66,2.53,2.31,3.6,2.83,4.66,5.06,9.26,5.34,14.81l1.18,23.2c.27,5.28,1.04,11.36-3.95,14.9l-8.5,6.02-5.49,3.66c-3.08,2.05-5.58,4.42-8.68,6.47l-5.39,3.57c-4.22,2.79-8.17,1.7-12.38,1.09l-13.27-1.93c-10.18-1.48-5.27-1.47-17.25-2.16-4.76-.28-16.95.06-21.51.67-6.91.93-18.78,4.97-24.66,8.14-7.47,4.04-13.09,10.25-19.85,15.2l-5.28,3.87c-1.79,1.31-3.32,2.71-5.03,4.17l-3.8,3.25c-5.01,4.28-9.89,8.28-14.52,13.03Z"/>
  <path class="cls-1" d="M426.6,476.19c-2.44-10.16,1.99-10.84-1.75-22.59-.62-1.95-3.92-3.29-5.72-3.26-2.17,2.73-2.58,6.89-1.22,9.94,2.25,5.06-.43,6.33.53,15.19l.57,5.21c5.48,4.61-.55,8.36,7.3,15.48l2.05,3.93c.82,1.57,2.16,3.02.75,5-2.7-1.4-4.87-2.97-7.16-4.77l-4.28-.87c-1.85-1.61-3.48-2.35-5.65-3.22-2.81-1.13-5.53-3.43-8.42-4.24-1.91-.53-2.6-.9-3.93-2.43-1.17-1.36-4.1-1.76-5.8-2.65-1.85-.97-3.64-2.9-5.58-3.42-8.94-2.38-2.11-2.17-13.51-4.28-6.57-1.21-16.85-4.22-22.66-7.22-2.48-1.28-4.9-2-7.42-2.95-4.34-1.64-8.24-4.87-13.31-3.64-4.72-2.98-10.02-2.33-15.17-3.16-2.62-.42-5.16-1.98-8.08-2.09-1.92-.07-2.93-2.81-4.12-3.85-1.7-1.49-1.63-2.38-2.22-4.43l-3.93-13.78c-.41-1.45-.85-2.69-1.31-3.94-.63-1.72-.94-3.68-1.83-5.45-1-1.98-1.26-3.85-1.7-5.96-2.66-12.79-2.13-21.91-2.68-34.73-.24-5.54-.5-10.89-2.49-16.04l1.11-2.59c-2.34-9.59-.44-13.3-3.55-22.48-.26-.77.06-3.03-.27-3.81l-4.94-11.51-1.32-6.96-2.6-2.66c1.01-7.87-.37-1.75-.57-10.27-.07-3.03-.44-6.17.97-9.38,1.95-4.46,11.52-7.75,14.52-7.37,4.52.59,8.47,1.7,12.68,3.1,8.04,2.66,13.65,1.17,22.78,5.86,9.74,5,15.52,5.54,25.82,7.32,2.99.52,6.13,2.77,9.17,3.5,2.42.59,3.89,2.17,5.77,3.47,2.38,1.65,5.09,3.37,7.71,4.69,6.64,3.36,12.97,8.84,19.66,11.51l11.36,4.52c1.17.47,3.55.93,5.02,1.36,3.07.9,6.01,1.05,9.04,1.52l5.09.79c5.35.83,10.54,3.01,14.72,6.25l10.71,8.28c.91.7,1.69,2.95,2.78,3.66,2.13,1.38,4.23,3.22,5.32,5.49l2.99,6.2c1.54,3.19,2.82,6.3,5.08,8.97-.03,3.28.63,6.49,2.13,9.24,3.07,5.63-.16,8.52-2.42,13.77l-3.48,8.09c-.93,2.17-3.1,4.19-3.91,6.66-1.22,3.73-3.17,7.16-4,10.9-1.15,5.15-3.2,9.57-5.3,14.37-.72,1.65-.84,4.22-1.93,5.6-1.32,1.67-1.59,2.86-1.76,4.92l-.62,7.5c-.23,2.76-.16,5.4-.1,8.19l.14,6.46c.12,5.86,2.55,16.4,5.24,21.34.61,1.12,1.44,2.46,1.86,3.47l2.77,6.64c.33.79.48,1.85.4,3.22l-5.01-1.56c-2.59-.81-4.38-5.3-6.76-5.88s-3.79-2.34-5.72-3.65c-2.31-1.57-4.74-2.48-4.92-6.17-.15-2.94-3-3.65-5.83-10.11-1.08-2.48-.49-5.71-1.1-8.25Z"/>
  <path class="cls-1" d="M492.09,891.73c-5.47-6.31-3.18-6.19-7.9-10.26-5.61-4.84-2.83-3.47-8.15-9.25l-2.61-2.84c-1.9-2.07-3.96-3.87-6.16-5.79-1.02-.89-1.89-2.21-2.75-3.24l-4.91-5.9c-4.27-5.13-2.79-5.61-4.58-10.06l-2.85-7.09-1.95-3.82c-.46-.9-2.11-2.01-2.95-2.79-8.76-8.25-5.7-1.34-7.9-8.68-1.89-6.31.15-2.15-.42-9.32-.3-3.82-1.67-6.6-3.1-10.09-1.34-3.27-1.91-13.65-1.72-16.92l.95-16.74c.1-1.81.16-4.58.65-6.24,1.81-6.2,6.32-10.81,10.45-15.47,2.64-2.98,4.75-6.57,7.67-9.05,2.33-1.97,4.47-3.8,6.64-5.93l4.89-4.82c1.74-1.71,3.71-1.85,4.57-4.83.61-2.08,4.33-3.19,5.88-4.67,2.23-2.12,4.36-4.29,6.21-6.62l3.4-4.27c2.33-2.93,4.8-5.63,8.69-6.41-.22-5.24,3.81-15.17,9.16-17.05.6-3.11-1.66-7.75-5.35-8.1-1.84-.17-2.68,1.17-4.03,2.17l-5.9,4.38-8.22,5.94c-3.25,2.35-1.47,2.88-10.09,8.28-3.1,1.94-5.96,3.95-9.34,5.25l-1.29.5c-.38.15-1.02-1.39-.74-1.68l5-5.02,5.76-6.25c1.56-1.69,2.64-3.35,4.71-4.64,5.38-3.35,2.52-3.26,10.32-8.05,3.51-2.16,6.95-3.4,11.09-4.1,2.7-.46,6.06-2.3,8.64-.89,1.99,1.08,1.2,4.83,1.76,6.32,3.4.14,6.26,4.27,7.32,7.08-3.97,4.06-10.38.59-12.11,4.38-.59,1.31-.02,3.23.99,4.39,3.74,4.24.71,4.31,2.67,5.64,2.45,1.66,3.71-8.17,12.61-7.45,2.24,2.98-.36,11.23-.15,14.41.18,2.62-.03,4.38-.48,6.88-.15,1.24-.19,3.57-.22,5.13l-.32,16.13c-.03,1.52.2,3.16.26,4.5.21,4.18-.46,7.99,1.92,11.91,1.45,2.38,2.95,4.78,4.7,7.12,1.31,1.75,2.4,3.75,3.79,5.41,1.11,1.33,3.2,2.38,4.07,3.94,3.39,6.03,4.95,5.2,7.04,10.19l3.55,8.47c2.81,6.71-.73,5.24,3.56,13.18,1.76,3.26,3.35,6.13,7.43,7.25,2.1.58,3.01,3.22,2.78,5.38l-.74,6.99c-.22,2.08-.28,4.44-.66,6.42l-.94,4.89c-1.95,10.17-9.48,16.52-9.44,22.19.03,4.1-1.53,7.32-2.39,11.05-.72,3.12-1.13,6.31-2.1,9.36l-2.5,7.79-1.83,5.63c-.75,2.3-1.38,4.03-3.35,5.59-3.78,2.99-2.24,4.37-5.78,9.35-3.2,4.5-8.93,3.27-14.04,8.21-2.97,2.87-8.46-3.55-8.48-3.59l-3.28-5.51c-.97-1.63-2.17-3.16-3.77-4.3s-2.52-2.64-3.69-3.98Z"/>
  <path class="cls-1" d="M728.44,390.86c-.47-2.34-.73-5.15-1.36-6.97-.94-2.7-1.36-5-2.21-7.71l-3.29-10.54c-.86-2.76-1.34-5.2-2.37-7.86-1.23-3.16-1.83-6.99-3.76-9.76l-3.14-4.52c-1.67-2.41-3.24-4.44-4.07-7.31l-2.95-10.14c-.56-1.92-.97-3.5-1.38-5.55l-3.03-15.19c-.38-1.9-1.28-4.17-1.39-6.01-.33-5.41-.92-10.3-1.7-15.64-.42-2.91-.02-6.19-.24-9.18-.29-3.94-.05-8.74.78-12.49l1.66-7.62c2.1-9.62.26-6.76,1.53-11.46.77-2.85,1.65-5.33,2.79-8.12l.54-3.8c4.23-5.06.53-6.44,4.82-9.89,1.35-1.08,1.69-2.72,2.47-4.09l3.89-6.82c2.74-4.79,3.46-1.37,5.17-8.85.36-1.58,3.03-2.5,3.79-3.74l7.86-12.78c.37-.6.94-1.26,1.35-1.54.5-.34,2.27.37,2.2,1.16-.36,4.2-3.45,8.85-5.79,12.62-1.49,2.42-2.15,5.22-3.42,7.63-.62,1.18-2.29,2.35-2.49,3.81s-2.01,3-2.36,4.1l-3.38,10.76c-.48,1.52.23,4.06.15,5.68-.1,1.94-.22,3.66.04,5.47l.77,5.43c.26,1.81.15,3.64.26,5.47l.41,6.9c.34,5.78-.33,6.33.57,11.31.55,3.05-.23,6.24.05,9.12s.59,5.45.64,8.2l.11,6.03c.03,1.86.76,3.7.84,5.51l.54,12.05c.19,4.23.71,8.38.7,12.61v4.92c-.03,11.93,1.79,15.71,1.85,23.36.03,3.61.08,6.92.41,10.64l.76,8.69,3.07,17.19.56,8.1c.03.43-.27,1.42-.42,1.72-.2.41-1.74-.48-1.82-.93Z"/>
  <path class="cls-1" d="M487.78,370.37c-1.03,1.78-3.28,3.38-4.34,4.93l-3.56,5.2c-.76,1.11-2.26,1.97-3.63,2.16-1.23.17-3.35-1.37-3.37-2.78l-.06-4.25-7.19-11.25c-2.28-3.57-4.9-6.88-8.16-9.58-1.93-1.59-3.76-3.69-5.71-5.07-1.77-1.26-3.27-1.99-4.58-3.65l-2.81-3.57c-10.63-2.65-9.13-5.9-21.75-7.09l-5.48-.51-6.42-1.83c-2.84-.81-5.04-1.11-7.56-2.34l-9.09-4.43c-4.86-2.37-9.05-5.01-13.73-7.92l-9.07-5.64c-7.12-4.43-13.3-6.8-21.76-8.27l-5.56-.97c-3.4-.59-6.48-1.93-9.71-3.17l-4.39-1.68c-2.96-1.13-5.84-3.08-8.87-4.02-3.32-1.02-6.9-1.96-10.31-2.63-5.23-1.02-10.16-1.26-14.61-4.49l-1.11-.8c-2.34-1.7,9.43-4.19,23.27.52,5.43,1.84,8.78.76,17.99,4.32,2.57.99,14.37,3.28,17.53,4.66l6.4,2.79c2.79,1.22,5.78,2.14,8.42,3.51,2.77,1.44,5.27,2.49,8.67,2.15l2.74,3.27c3.21-.7,5.41,1.55,8.14,2.46l7.7,2.56,7.9,2.91,16.8,5.81c2.76.95,5.91,1.42,8.75,2.12l7.71,1.91c3.44.85,6.39,2.12,9.81,3.13l11.74,3.47c4.28,1.26,6.71,2.72,10.35,4.95,9.37,5.74,7.87,6.05,15.16,12.51,2.51,2.23,8.35,5.8,11.69,7.38,1.45,1.66-.84,5.02-2.46,6.34-2.45,1.99-3.77,3.9-5.48,6.84Z"/>
  <path class="cls-1" d="M424.13,844.35c-2.16-1.23-3.69-2.71-5.83-3.59-10.03-4.11-8.63-11.57-10.45-14.98-.94-1.75-1.89-2.63-1.59-5.13l-3.06-1.27-.37-4.67c-4.02-2.27-3.15-6.55-3.36-9.95l-3.8-5.82c-1.24-1.89-1.15-3.93-1.59-6.19s-1.15-4.53-1.5-6.95c-1.74-11.93,2.05-9.24,3.71-13.79.77-2.1,1.68-4.13,3.26-5.53,6.08-5.42,1.71-5.75,5.74-7.79,2.27-1.15,3.12-2.78,4.33-4.94,1.48-2.64,4.57-4.55,6.52-6.8,3.82-4.41,4.69-.67,11.22-8.18l3.35-3.85c1.3-1.49,3.1-3.63,5.3-3.79,1.53-.57-1.92,8.84-2.44,9.02l1.03,2.1c.27.55-1.35,1.37-1.7,1.88l-2.85,4.04-1.3,11.23c-.17,1.48-2.39,7.02-3,16.56-.09,1.45-.34,3.96-.69,5.15-1.14,1.58-1.1,2.81-1.22,4.64l-.77,11.85c-.39,6.04-.15,9.34,1.37,14.86l1.06,3.85c2.58,1.31,3.74,3.5,4.92,6.07.92,2.01,3.53,3.37,4.74,5.46.82,1.42.39,4.17.63,5.92.37,2.73.18,4.9.14,7.76-.01,1.06,3.12,12.37-.5,9.17-3.06-2.7-7.55-4.2-11.28-6.33Z"/>
  <path class="cls-1" d="M195.19,495.73c-2.12-.46-3.68-.2-5.59-.34l-12.33-.93-9.75-.27c-2.11-.06-4.44.47-6.52-.11-3.43-.95-6.71,1.19-10.31-1.1l17.91-3.43,11.25-2.79,17.36-4.74,8.59-1.85,12.21-2.92c2.12-.51,3.91-1.18,6.25-1.3,1.78-.09,3.48-1.04,5.27-1.65,1.89-.64,4.42-.65,6.58-.96l12.28-1.73c3.12-.44,6.1-.82,9.23-1.59,2.35-.58,4.63-.85,7-1.26l7.39-1.27c7.61-1.31,15.15-2.14,22.98-1.63,4.28.28,5.13,8.32,9.12,7.98,4.48-.37,9.33-1.65,13.14,1.11,6.46,4.68,4.97.6,7.75,4.64-1.85.51-3.32.71-5.11.92l-17.33,1.99c-4.09.47-8.45,1.47-12.38,1.39-10.64-.23-24.8,2.35-35.37,4.74l-15.59,3.52-6.5,1.47c-2.24.51-9.81,1.84-11.72,1.86l-21.07.23c-1.52.02-3.11.41-4.76.05Z"/>
  <path class="cls-1" d="M281.89,395.66c-.02,2.82,1.13,10.74-1.19,11.77-.45.2-1.82-.74-1.95-1.25l-1.42-5.42c-.97-3.7-2.26-12.39-3.8-15.76l-1.86-4.08-1.99-5.49c-.73-2.02-2.68-4.04-3.52-5.98l-3.12-7.19c-3.11-7.15-2.77-5.79-6.4-12.12l-5.3-9.22c-5.56-9.69-3.46-17.49.77-27.18,3.37-3.47,6.73-6.44,9.7-10.35.9-1.18,2.95-2.1,4.47-1.83.48,1.89-.15,3.47-1.1,5.33-.57,1.12.14,3.18.38,4.57.42,2.38.57,4.39,1.56,6.57l1.98,4.34c1.12,2.46,1.33,4.77,2.15,7.15l4.53,13.3c.69,2.03.93,3.64,2.38,5.41l.45,5.54.9,7.26.72,10.66c.19,2.77.69,4.91.66,7.69-.03,2.5.55,5.32.89,7.91.37,2.82.14,5.52.12,8.37Z"/>
  <path class="cls-1" d="M618.19,790.29c-2.13-.29-2.77-1.45-4.5-2.29l-16.71-8.1c-2.32-1.13-4.14-3.17-6.49-4.3-4.8-2.3-8.86-5.29-12.93-8.66-1.29-1.07-3.91-1.46-3.53-3.86.55-3.44-1.04-12.15-2.82-15.17l-6.57-.89c-1.42-.19-4.49,1.28-5.12-.98-.68-2.47-1.3-4.22-4.52-4.39-.83-.05-2.34.41-2.79,1.11-.6.92-.85,2.23-1.21,3.57-.78,1.12-3.82.38-5.07-.65l-7.46-6.16c-.77-.63-2.84-1.36-3.27-2.14-.83-1.51-1.91-3.9-2.91-5.27-3.01-4.15-4.92-8.35-4.7-13.73l.26-6.25c.02-.48.49-1.43.89-1.64s1.67.34,1.94.84l4.37,7.91c1.87,3.38,4.43,6.28,6.96,9.06,1.94,2.14,4.58,3.55,6.81,5.18,2.09,1.53,4.31,2.52,6.67,3.63l19.21,8.96c3.27,1.53,11.16,7,14.18,9.55,3.9,3.29,6.05,6.05,10.41,9.56,7.65,6.16,5.46,6.38,15.81,11.55,4.36,2.18,8.27,3.71,11.24,7.97l6.34,9.1c.51.73,1.33,1.58,1.09,2.4-.99,3.38-11.33-5.31-15.58-5.89Z"/>
  <path class="cls-1" d="M827.52,561.23l-13.68,1.23c-2.88.26-4.89.85-7.73,1.49l-15.22,3.41c-.5.11-1.77-.68-1.75-1.04.02-.48,6.23-5.64,7.46-6.41,6.67-4.19,11.46-9.51,17.57-12.15l5.7-2.46c1.84-.8,3.57-1.94,5.41-2.68,7.43-3.01,13.68-2.57,21.85-3.58,5.51-.68,11.12-.27,16.59.52l3.96.57,9.94,1.64c2.43.4,4.33.73,6.89,1.52-1.55,1.56-2.58,2.88-3.9,3.27l-8,2.35c-3.84,1.13-7.2,2.86-11.31,3.25-1.8.17-3.19.94-4.86,1.62-11.04,4.51-9.92,2.78-19.21,5.52-2.88.85-6.42,1.61-9.7,1.9Z"/>
  <path class="cls-1" d="M379.41,725.02c-9.73,1.64-5.01.66-11.24-1.66-.32-.12-1.06-.86-.82-1.07s.91-.61,1.24-.69c6.41-1.5,5.8-2.46,12.6-4.38,7.2-2.03,14-4.34,20.6-8.09,5.3-3.01,11.25-4.24,16.27-7.53l5.11-3.34,15.52-6.27c3.45-1.39,3.13.54,10.93-2.97l10.86-4.88c3.28-1.47,6.29-3.19,9.31-5.31.33-.23,1.15-.43,1.5-.39,2.57.33-5.21,5.98-7.5,8.37-5.83,6.08-4.81,4.85-9.71,11.45l-3.18,4.29c-.56.75-1.2,3.29-2.22,3.53l-14.81,3.5c-2.98.7-5.96,1.67-8.95,2.16s-5.16,2-7.9,2.88c-4.96,1.6-9.84,2.81-14.8,4.77-5.29,2.1-10.86,3.61-16.47,4.55l-6.34,1.07Z"/>
  <path class="cls-1" d="M212.86,699.55c1.36.96-3.72,2.89-10.88-1.8-2.96-1.94-6.09-2.12-9.22-3.41-2.47-1.01-5.09-2.47-7.6-3.69-1.95-.94-3.74-2.42-5.97-3s-3.47-1.82-5.06-3.1l-7.79-6.31-3.12-2.24c-2.77-1.99-5.33-4.03-7.6-6.53-6.04-6.66-3.2-2.33-8.95-10.54-.86-1.22-1.76-1.96-2.99-3.04-1.68-1.47-2.7-4.56-4.32-6.37-2.39-2.67-4.24-5.43-6.42-8.24l-6.79-8.75-3.22-4.38c-.36-.49-.84-1.57-.99-2.09-.17-.62,1.68-1.61,2.24-1.21,1.75,1.26,3.93,4.31,5.75,5.19,2.18,1.05,3.08,1.59,4.63,3.32,7.47,8.36,5.43,4.33,10.73,10.36,1.67,1.89,6.78,5.29,8.5,7.64,1.5,2.05,3.35,3.37,5.25,4.99l4.67,3.99,4.36,3.71c1.88,1.6,3.67,3.08,5.63,4.61l8.16,6.37c2.16,1.68,4.36,3.29,6.04,5.32,1.75.52,3.14,1.34,4.51,2.48l2.95,2.48,8.38,7.38,7.62,5.8,1.5,1.05Z"/>
  <path class="cls-1" d="M532.69,901.29c1.48-1.34,2.38-2.54,3.56-4.08l3.75-4.91c1.81-2.37,3.65-4.57,5.38-7.04l3.33-4.75c8.31-11.84,2.01-6.26,5.11-15.39.71-2.09.97-4.2,1.38-6.4,1.04-5.56-.73-6.77,2.12-14.3l1.47-3.89,1.51-9.44c1.25-7.82,1.61-6.91,2.27-15.79l.44-5.99c-.04.59-.96-26.06-.84-25.12l-1.31-10.55c-.27-2.16.29-4.19.77-6.39.3-1.34-1.13-4.01.69-5.1,1.28-.77,3.01,1.47,3.01,2.95.02,11.27.66,5.62,1.13,15.27l2.05,4.68.47,10.39c.24,5.44-1.67,10.85-2.46,16.14l-.99,6.62-.8,5.6c.59,3.31,1.16,6.55,1.35,9.91l.36,6.56c.3,5.37-.59,10.41-1.55,15.56-.79,4.21-2.38,7.29-4.35,10.92-1.23,2.25-1.96,5.13-3.39,7.42l-3.02,4.84c-.3.48-4.94,12.32-6.91,14.59l-3.19,3.68c-1.82,2.1-3.73,3.26-5.66,4.92-3.47,2.99-6.37,7.04-11.81,7.88-.74-1.6,1.44-2.35,2.28-3.49,1.26-1.69,2.33-3.93,3.84-5.29Z"/>
  <path class="cls-1" d="M478.08,630.02c-.75-3.66-1.79-6.76-3.62-9.94l.43-4.42c-3.52-8.38-.45-9.63-3.78-13.62-2.38-2.86-4.19-6.64-7.2-8.78-4.27-3.02-8.34-5.56-12.87-7.94l-.9-2.28c-1.76-.76-3.7-1.62-4.46-3.61,2.5-2.33,6.53,1.69,10.97-.54l2.23-3.97c1.67-2.96,9.52,6.5,17.53-1.5.7-.7,2.46.93,2.49,1.84.11,4.01-4.47,2.96-7.91,6.47-2.3,2.35,4.13,7.59,5.32,9.71,1.33,2.37,1.78,5.47,2.85,7.94l1.8,4.19,3.85,5.75c1.68,2.52,1.68,15.33,1.4,19.44-.14,2.06-.96,4.2-1.21,6.21,0-.06-.68,10.81-2.72,8.66-.84-.89-2.65-6.01-2.66-6.03l-1.55-7.58Z"/>
  <path class="cls-1" d="M495,903.16c-.94,2-12.75-4.53-13.88-5.14-2.27-1.23-3.84-2.56-5.49-4.47-.24-.27-10.23-10.77-9.24-9.97-2.03-1.63-4.12-3.18-5.98-4.94l-5.02-4.77-4.15-4.88c-.79-.93-1.78-1.63-2.51-2.5-3.11-3.71-7-10.28-6.8-15.37.15-3.92-1.1-7.15-1.26-10.91l-.19-4.43c-.03-.62-.04-1.66.34-1.88.47-.28,1.72.1,2.11.53l4.18,4.61c.63,3.83,1.09,7.35,2.89,10.62,1.15,2.1,1.96,4.09,3.01,6.25.73,1.51,2.66,3.32,3.57,4.88,1.34,2.29,3.06,3.72,5.47,4.85l.99,2.82c2.16,1.57,3.82,3.19,5.49,5.38s7.28,3.78,16.45,17.45c4.83,7.2,4.61,4.76,10.01,11.88Z"/>
  <path class="cls-1" d="M554.32,790.45c-.75,6.36.92,6.56-.32,8.6-.29.48-1.94.07-2.32-.4-1.67-2.04-2.7-9.05-2.62-11.71l-1.82-5.17c.37,1.07-5.21-10.26-4.17-8.63l-3.59-5.61c-1.66-1.57-3-3.39-4.43-5.32l-3.63-4.9c-2.49-3.36-4.62-6.95-6.61-10.78-.54-1.04-.87-3.28-1.32-4.6-.79-2.31-.46-5.16-.1-7.57,3.72-.99,4.81,1.41,5.93,4.3.61,1.58,3.02,3.25,4.14,4.69,1.32,1.7,2.53,2.87,4.78,3.32,1.39.28,2.59,1.69,3.67,2.25l5.33,2.78c1.05.55,2.97.89,3.61,1.68,1.16,1.43,1.58,7.53,1.35,8.89-.95,5.38,1.56,10.36,1.59,11.53l.29,14c.01.65.31,2.02.23,2.64Z"/>
  <path class="cls-1" d="M790.66,666.39l-2.76-4.32c-1.4-2.2-2.46-4.42-3.84-6.52-5.09-7.75-11.82-14.14-13.48-16.75l-5.7-8.95c-.77-1.21-6.08-12.87-5.97-12.9,3.17-.96,1.74.47,4.96-.29,1.47-.35,1.23-2.96,3.24-3.84.45-.2,1.51.67,1.8,1.1l5.27,7.68c1.14,1.66,2.02,3.05,2.8,4.97.48,1.17,2.97,2.77,3.38,3.94l1.71,4.85c2.4,6.8,3.04,2.15,6.8,13.35l1.5,4.46c1.3,3.86,2.51,9.85,2.26,13.31-.03.47-1.71.34-1.98-.08Z"/>
  <path class="cls-1" d="M465.18,505.9c-2.01,2.11-6.51-9.68-6.42-9.47-1.53-3.54-2.81-6.68-3.74-10.39-.4-1.59-1.12-3.32-1.31-5.01l-.55-4.99c-.58-5.28-.19-15.55,1.82-20.47,1.07-2.64,1.76-9.37,2.57-11.5l3.83-10.1c.84-2.21,2.21-4.6,1.93-7.13-.07-.64.55-2.06.95-2.46.48-.48,2.25-.14,2.6.44-.42,1.87-1.62,4.58-1.78,6.37-1.14,13.43-2.83,11.71-2.73,26.99l.06,9.79.23,7.06c.21,6.34,1.62,8.24,1.47,13.59-.03,1.17-.2,3.11-.08,4.15l1,8.7c.14,1.25.6,3.37.17,4.44Z"/>
  <path class="cls-1" d="M518.62,351.77c-1.96,1.52-5.27,3.3-7.62,3.16-.59-.03-1.24-1.77-.88-2.14s1.18-1.13,1.51-1.55l4.16-5.11,4.71-5.46,7.11-8.65c2.92-3.55,5.65-7.27,9.11-10.35,5.49-4.88,3.07-5.36,9.33-10.36,1.4,1.25-1.07,11.6-1.42,12.26-3.83,7.28-5.22,5.91-7.87,13.37l-5.8,4.82-8.96,7.36-3.4,2.64Z"/>
  <path class="cls-1" d="M439.24,746.06c-.19.4-1.05.84-1.39.94-2.61.72,1.28-5.37,1.7-7.73.51-2.87,1.81-4.91,2.97-7.47,2.55-5.62,1.21-7.7,6.06-9.89l5.89-2.67,5.31-2.74c2.73-1.4,5.5-2.62,7.92-4.54,1.72-1.37,3.71-2.88,5.89-2.11-2.3,2.59-4.76,5.31-6.52,7.75-.41.56-.66,2.49-1.26,2.79-3.35,1.68-8.82,6.94-10.88,10.37-10.38,5.32-6.5,3.81-10.39,8.84-1.59,2.05-4.3,4.27-5.31,6.46Z"/>
  <path class="cls-1" d="M704.52,554.96c-2.42.43-3.56,4.06-6.87,2.78l4.44-5.94c.7-.93,1.3-1.96,1.75-3.09l3.27-8.15c.98-2.45,2.95-4.42,3.48-7.23s2.13-5.63,3.45-7.76c4.2,1.05,3.41,4.98,4.7,7.41,1.06,2,2.84,3.49,3.18,5.97,1,7.32-5.11,6.87-11.66,12.8-1.89,1.71-2.88,2.69-5.73,3.2Z"/>
  <path class="cls-1" d="M338.33,730.12c-2.07.36-5.37-.52-7.3-.95l-6.27-1.41c-11.34-2.56-16.41-.89-28.25-5.24-2.13-.78-4.45.1-6.14-2.74l8.43-.24,6.04-.09c5.09-.07,21.93,1.94,27.68,2.91,3.85.64,8.22,1.78,12.1,1.68.4,0,1.32.34,1.6.5,1.73.98-6.27,4.8-7.9,5.59Z"/>
  <path class="cls-1" d="M489.07,916.17l-7.16-2.11c-2.45-.72-4.69-1.59-6.91-2.97l-6.27-3.89-3.97-2.6c-8.34-5.45-4.39-1.71-11.83-8.85-3.75-3.59-5.29-5.33-8.06-10.59,4.47-.78,5.77,3.05,8.8,4.49l6.56,3.12c7.13,3.39,13.61,9.53,19.4,14.64l5.4,4.76c1.44,1.28,4.28.22,4.06,3.98Z"/>
  <path class="cls-1" d="M499.74,656.31c.19.65-.05,2.03-.58,2.62-1.55,1.73-3.58-1.85-7.26-2.05-.85-.25-2.06-2.17-2.45-3.12.56-4.39,1.26-8.92,1.55-13.37.16-2.37.73-4.27,1.12-6.33l1.49-7.81c.27-1.42.24-2.84,1.56-2.9,4.49-.21,2.07,9.92,2.08,13.22l1.03,2.61c-1.72,2.79-.51,10.5.3,13.22l1.16,3.93Z"/>
  <path class="cls-1" d="M557.75,534.81c-2.49-.18-3.66-2.65-4.99-4.12l-3.19-2.31c.26-1.48.29-3.91.72-5.02l2.92-7.45c2.35-1.33,4.71-6.74,6.38-5.72,2.43,1.49,2.49,4.7,2.98,7.11.61,3.02-.06,5.2-.65,8.16-.43,2.19-.82,4.77-2.12,6.48-.47.62-1.29,2.93-2.05,2.88Z"/>
  <path class="cls-1" d="M496.48,585.95c-.5,2.3-2.68-.31-3.46-1.01-7.12-6.35-5.03-9.38-7.3-14.97-1.16-2.84-3.13-5.96-.55-9.01,2.18-.07,4.56,1.91,5.97,3.81l3.92,5.3c.54.74,1.78,2.52,1.94,3.38.82,4.32.49,7.8-.52,12.5Z"/>
  <path class="cls-1" d="M614.31,165.43l5.49-3.82c4.68-3.26,8.23-7.58,13.11-10.24l8.37-4.56c7.08-3.85,1.1-2.56,13.79-4.45.29-.04.97.37,1.01.66.05.39-.46,1.37-.8,1.56l-18.55,10.69c-5.62,3.24-11.09,5.87-16.62,9.38l-3.91,2.48c-.38.24-1.54.23-1.97.15s-.36-1.54.08-1.85Z"/>
  <path class="cls-1" d="M397.15,754.75c-2.53-2.18-.8-5.09-.31-7.52l1.08-5.36c.39-1.94,1.21-3.08,2.98-3.84,7.16-3.1,1.84-2.13,9.61-3.51,1.19-.21,2.5-.9,3.78-1.47l7.67-3.4c.3-.13,1.7-.2,1.55.03-2.58,4.08-6.75,6.78-10.88,9.5-3.07,2.02-6.15,4.58-8.84,7.14-.83.79-1.81,2.92-2.58,3.79l-4.05,4.63Z"/>
  <path class="cls-1" d="M673.82,569.43c-.84-3.12,2.04-4.52,3.52-6.57,2.22-3.08,4.56-7.3,6.79-8.98,3.08-2.32,4.52-5.91,6.94-8.89l5.49-6.76c1.05-1.29,2.41-2.79,3.65-4.11,2.21,2.59-.8,3.9-1.4,5.71-2.76,8.37-2.41,9.3-9.18,16.29l-2.97,3.06c-1.78,1.83-4.1,3.49-6.11,5.16-1.86,2.02-3.54,3.76-6.75,5.09Z"/>
  <path class="cls-1" d="M745.17,590.93c2,2.48-7.87,2.22-10.25.96-1.02-2.79-3.83-2.03-5.67-3.14-2.94-1.78-5.61-3.79-8.72-5.33l-6.22-3.08c1.04.51-13.8-2.86-13.99-2.96l-8.1-.73-1.7-.15c-.44-.04-.53-1.8-.09-1.89,3.77-.8,15.77,1.58,20,2.97l5.32,1.75,8.34,2.56c12.88,3.96,8.75,2.4,20.07,8.05.27.14.83.77,1.01,1Z"/>
  <path class="cls-1" d="M90.26,510.51c-3.07,2.2-10.8,7.4-13.5,6.42-.59-.21-.46-1.93-.08-2.52,2.08-3.21,5.33-4.9,8.55-6.78,2.69-1.57,5.39-3.1,8.54-3.77l16.06-3.45c.91-.2,2.09.12,3.17.71-1.32,1.27-2.54,1.58-4.35,2.15-3.23,1.01-6.73,2.24-9.68,3.84-2.78,1.51-5.04,3.44-8.71,3.41Z"/>
  <path class="cls-1" d="M388.26,730.6c-1.01,3.84-4.65,2.98-7.36,3.35-7.7,1.05-15.32,2.25-23.04,1.38l-5.99-.67c-2.09-.23-3.99-.72-6.62-1.28,2.73-3.31,6.13-5.24,9.99-5.93,3.15-.57,6.88,2.83,10.31,4.43s7.42.81,11.03.32l11.68-1.59Z"/>
  <path class="cls-1" d="M96.43,594.97c-2.03,2.85-8.67-5.94-9.49-6.97-1.19-1.49-3.45-2.22-2.84-4.84-2.33-1.12-3.74-2.99-5.14-5.14l-3.39-5.17c-2.23-1.56-4.15-4.42-2.86-7.52,1.62-.67,5.76,5.44,8.21,8.1,3.41,3.71,6.8,7.22,9.87,11.23l2.85,3.73c.9,1.18,3.74,5.22,2.78,6.58Z"/>
  <path class="cls-1" d="M443.7,876.26c-5.85.4-4.08-4.01-10.87-7.48l-2.17-4.71c-6.72-5.1-3.4-8.28-7.26-11.07,6.27,1.16,10.38,4.82,13.48,9.79l3.75,6.01c1.44,2.31,2.92,4.72,3.06,7.46Z"/>
  <path class="cls-1" d="M412.23,726.49l-7.27,2.88c-.61.24-2.49.38-2.75-.2s-.61-1.84-.67-2.59,1.9-1.11,2.69-1.36l12.33-3.91c2.01-.64,4.16-1.28,6.12-1.79l6.18-1.59c3.3-.85,6.61-1.26,10.17-1.25-1.69,3.78-12.31,4.7-19.62,7.58-6.41,2.52-.43-.43-7.18,2.24Z"/>
  <path class="cls-1" d="M440.78,545.02c-2.38,3.8-6.82-.83-11.35-1.23-1.17-6.13-4.74-5.57-4.21-8.52.32-1.79,3.4-3.39,5.11-3.16,1.2.16,7.82,6.24,7.63,9.68l2.83,3.23Z"/>
  <path class="cls-1" d="M446.68,564.49c-2.16,1.55-10.03.26-12.64-2.2-.44-3.24-.68-5.55-.8-9.03,2.17.11,3.66.36,5.1.88,4.7,6.22,3.76,1.73,8.34,10.36Z"/>
  <path class="cls-1" d="M494.91,609.04c.44.78-.05,3.45-.86,3.13-2.49-.95-3.13-3.73-4.2-5.67-.89-1.6-1.67-3.08-2.34-4.75l-2.46-6.13c.96-2.1,3.71-2.27,5.38-1.45-.01,1.67.6,2.89,2.01,3.84,5.75,3.88-.56,5.63,2.48,11.02Z"/>
  <path class="cls-1" d="M733.23,864.35l-1.2-.35c-.2-.06-.54-.78-.35-.85,2.84-1.07,6.52,1.29,13.34-2.6,2.06-1.18,4.79-1.55,6.72-2.49l7.24-3.55c.93-.46,2.21-.79,2.77-.79-3.69,4.85-8.06,6.89-12.91,9.35-2.91,1.47-5.64,4.28-9.6,3.09l-6.01-1.8Z"/>
  <path class="cls-1" d="M338.75,473.11c.34,3.17-8.74,3.16-10,1.19-2.38-1.14-7.8-2.64-7.73-5.43.05-2.13,11.98,1.95,13.63,2.44s3.34.98,4.09,1.8Z"/>
  <path class="cls-1" d="M468.46,567.54c.69.38-.77,2.21-1.68,2.07-7.89-1.22-7.52-2.01-13.39-8.79-.22-.26-.58-.98-.68-1.3s.57-.91.9-.88c2.68.27.1,1.69,5.68,2.91,1.41.31,2.84,1.84,4.04,2.85,1.47,1.23,2.93,1.92,5.13,3.14Z"/>
  <path class="cls-1" d="M473.78,677.34c-.66-1.44-.47-2.67.09-3.99,1.64-3.83.85-4.65,2.23-5.79.5-.42,1.98-.14,2.69.21,5.17,2.58,4.02-3.22,8.75-1.29-.16.78-.88,2.31-1.54,2.66l-7.2,3.75-5.03,4.44Z"/>
  <path class="cls-1" d="M731.17,123.66c-4.65-.2-11.04,1.04-11.04-.14,0-.43.69-1.54,1.1-1.64l6.26-1.53,9.54-.91c.5-.05,1.59.44,1.78.84.67,1.4-4.06,3.53-7.64,3.38Z"/>
  <path class="cls-1" d="M916.88,538.14l-6.1,1.96c-.49.16-1.49.14-1.92.03s-.98-1.48-.62-1.73l1.92-1.33c2.29-1.59,4.46-2.66,7.06-3.81,1.8-.79,3.07-4.05,6.12-3.83.44.45.2,2.89-.5,3.42s-2.39,1.04-3.37,1.34c-.11,1.83-.71,3.33-2.6,3.94Z"/>
  <path class="cls-1" d="M505.75,364.27c-8.39,9.16-8.69,4.5-8.01,3.64,3.14-3.94,5.58-9.03,9.61-7.16.66.84-.66,2.49-1.6,3.51Z"/>
  <path class="cls-1" d="M352.79,480.23c-.55,1.48-9.37.79-9.77-1.1-.13-.64.55-2.4,1.19-2.41,3.01-.05,6.3.76,8.58,3.51Z"/>
  <path class="cls-1" d="M765.32,610.15l-4.15-1.41c-.68-.23-1.68-1.23-1.97-1.8-.34-.67.28-2.64,1-2.89l3.55,2.72c.75.58,1.16,1.53,1.58,3.38Z"/>
  <path class="cls-1" d="M433.16,618.54c-1.65-.36-3.4-1.02-4.53-1.65-.03-1.64,1.67-2.19,3.21-2,.75.09,1.94.62,2.42,1.02.56.46-.38,2.79-1.1,2.63Z"/>
  <path class="cls-1" d="M494.26,374.97c-1.89-.46-.66-2.77.25-3.61l2.55-2.33.3,3.81c.07.89-2.12,2.37-3.1,2.13Z"/>
  <path class="cls-1" d="M521.07,680.97c-.18.53-1.9-.24-2.07-.78s0-1.65.21-2.23l.58-1.64c1.6.85,2,2.44,1.27,4.66Z"/>
  <path class="cls-1" d="M316.64,467.87c-.06,1.79-3.3,1.84-4.35.43l1.53-1.48c.47-.46,2.85.36,2.82,1.05Z"/>
  <path class="cls-1" d="M510.26,647.5c-.01.88-1.82,2.2-3.09,2.02-.77-.11-.58-2.38-.25-3.24l3.34,1.22Z"/>
</svg>