<?xml version="1.0" encoding="UTF-8"?>
<svg id="Camada_1" data-name="Camada 1" xmlns="http://www.w3.org/2000/svg" viewBox="0 0 1024 1024">
  <defs>
    <style>
      .cls-1 {
        fill: #fff;
      }
    </style>
  </defs>
  <path class="cls-1" d="M990.75,1024H32V0h960v1024h-1.25ZM574.33,966.31l5.95-4.12c.56-.39,1.48-1,1.82-1.43l2.08-2.6c1.44-1.79,2.53-3.69,3.96-5.6l1.37-1.82c1.04-1.38,1.99-2.97,2.7-4.32l2.64-4.99,1.39-2.68,3.63-7.84,1.11-2.28c2.26-4.65,3.89-9.6,6.73-13.93,4.61-7.01,10.26-20.71,12.37-29.17s3.56-16.8,5.01-25.46c.49-2.94.99-5.52,1.01-8.58l.05-7.41c.02-3.21-1.04-6.35-1.11-9.52l-.1-4.52-.16-6.53-.1-9.48c-.07-6.61-.82-12.58-2.11-19.04-2.23-11.23-3.76-22.12-4.95-33.51-.94-9.03-4.2-17.28-8.33-25.34-1.77-3.46-3.42-6.68-4.86-10.26l-1.87-4.62-1.98-4.5c-.76-1.73-1.27-3.35-1.86-5.23-1.18-3.74-2.81-7.23-4.54-10.83s-2.89-8.03-4.19-11.71c-.23-.65-1.41-1.75-1.54-2.44-.33-1.7-1.07-2.69-1.88-4.31l-6.08-12.3c-.17-.35-1.78-.48-1.81-.84-.28-4.64.12.43-2.47-6.82-.67-1.88-1.62-3.4-2.39-5.06l-4.65-9.91-1.49-3.03c-.5-1.03-.67-3.22-1.35-4.21-2.74-3.94-4.92-7.65-7.31-11.77-1.21-2.09-2.96-4.02-4.37-6.04-2.54-3.63-5.23-6.91-8.11-10.31-.58-.68-1.41-1.89-1.31-2.62.32-2.29,3.21-1.49,5.62-5.79,2.02-3.61,1.39.14,7.14,4.91l3.02,2.5,4.57,3.9c.48.41,1.74,1.01,2.07,1.61l6.52,11.85c.93,1.69,2.22,3.22,3.24,4.78l2.79,4.28,4.73,7.2c1.94,2.95,3.61,6.05,5.68,8.85l8.33,11.27c.94,1.28,7.06,8.01,8.43,9.43l12.97,13.43,4.13,4.48,4.2,4.29,4.17,4.35c3.5,3.66,5.95,5.76,9.94,8.97l5.81,4.67,3.94,3.05c2.73,2.1,5.26,3.97,7.7,6.29l9.52,9.06,3.69,3.4c3.12,2.87,6.65,5.57,9.02,7.92,2.15,2.13,4.06,4.27,6.4,6.14l8.58,6.85,4.13,3.35c1.42,1.15,2.77,2.21,4.15,3.46s2.8,2.96,4.25,4.08c3.2,2.48,6.1,5.48,9.54,7.41l10.85,6.06c2.41,1.34,4.43,2.86,6.71,4.51,4.68,3.39,17.12,11.14,21.99,13.26l8.75,3.81c1.39.61,2.66,1.01,3.94,1.75,3.88,2.25,15.65,6.11,20.42,7.56l5.62,1.7c3.17.96,6.32,2.94,9.57,3.45l25.58,4.05,8.93,1.43,5.05,1.17c4.95,1.14,4.91.73,9.81,2.67l-.41.7-.97-.24-.88-.16c-.57-.1-1.23.25-1.64.44l-.67.31c-.55.26-.82.32-1.43.12l-.73-.23-.63-.21c-.32-.11-1.02.09-1.16.3l-.38.56-.41.61c-.06.09-.44.49-.53.5l-.9.1-1.01.12c-1.05.12-.58-.22-1.03.77l-.31.68-.38.63-.35.57-.3.5.55.38c.06.04.82.04.98,0,2.46-.75,6.43-1.09,9.21-1.22,5.26-.24,10.2-1.34,15.63-.37l8.53,1.52c2.76.49,6.22-.57,9.11-.43l3.87.18c4.19.2,8.77-.73,12.79-.12,2.7.41,3.84.43,6.37-.21,1.27-.32,15.67-.52,17.44-1.04,5.15-1.51,3.34-.06,10.19-.88l8.43-1.01,2.34-.87c.39-.15,1.51.54,1.96.87s1.72.13,2.09-.27c.06-.06.16-.74.15-.82l-.13-.73c-.04-.23-.11-.58-.12-.69-.03-.72,1.78-.8,2.5-.8h1c.2,0,.72,0,.81-.05.24-.11.76-.75.63-.98l-.6-1.09c-1.3-2.35-.09-3.58-1.21-3.98-4.95-1.73-18.93.72-24.67,1.98-2.03.44-4.03,1.16-6.12,1.39l-6.37.7c-1.25.14-3.22.68-4.03.1-4.08-2.95-4.65-.93-10.18-2.05-3.24-.66-6.02-1.08-9.26-1.36l-8.52-.73c-1.84-.16-3.38-.15-5.16-.33l-12.37-1.22c-1.71-.17-3.39-1.98-3.62-3.52l-.67-.41c-.13-.08-.72-.51-.8-.65l-2.39-3.74c-.04-.06-.85.13-.92.15l-.58.16-.77.19c-1.12.28-.53.17-1.7.22l-1.01.04-1.01.05-.91.06c-.44.03-.9.38-.96.87l-.1.97c-.01.13-.06.81-.03.94l.18.92.17.87.1,1.19c-3.6.31-12.33-.22-16.27-2.21-1.44.35-3.63.14-5.2-.14-4.37-.77-8.61-1.27-13.03-2.3l-5.3-1.24c-3.79-.89-7.41-1.14-11.07-2.46-1.65-.59-4.02-.85-5.48-1.54-5.39-3.37-7.1-3.47-13.11-6.53l-6.52-3.33c-1.13-.57-2.69-1.22-3.87-1.68l-14.01-5.43c-5.66-2.19-4.57-2.3-10.38-4.8.49.21-4.81-2.36-3.79-1.68l-6-4-10.36-7.15-6.79-4.77-8.13-5.81-4.9-3.65-3.27-2.06c-.33-1.39-.65-2.52-1.17-3.01-.32-.3-1.86,1.11-2.95-.48-3.91-5.68-3.79-1.71-6.21-5.97-.35-.63-1.71-1.51-2.24-2.09l-7.81-8.68-4.41-3.18c-2.81-2.02-10.78-13.9-9.58-12.78-1.44-1.35-2.44-2.65-3.4-4.26-2.35-3.94-5.07-7.39-7.78-11-2.28-3.03-4.42-5.91-7.22-8.48-2.15-1.97-4.07-4.26-6.07-6.49l-3.96-4.42-2.81-3.11-3.01-3.65c-2.18-2.64-4.42-5.14-6.35-8.07l-2.76-4.19c-1.64-2.49-3.53-4.4-5.47-6.6-4.79-5.44-9.07-11.13-14.29-16.23-1.83-1.79-3.25-3.75-4.86-5.71-1.05-1.27-2.43-2.58-3.61-3.8l-6.81-7.02c-2.96-3.05-6.08-6.2-9.56-8.39l-3.71-2.34-4.53-2.6c-1.51-.87-3.93-2.13-4.59-3.76-2.79-6.83-1.34-6.4-4.44-13.18l-2.06-4.52c-.82-1.81-1.5-6.17-.48-7.88,1.51-2.51,3.04-4.62,4.19-7.31.79-1.84,1.89-4.34,3.13-5.82,3.57-4.25,8.69-6.47,13.58-7.98l5.08-1.56,5.04-2.04c2.9-1.18,5.77-.46,8.67-.82,7.23-.88,13.79-.89,21.06.53l14.12,2.76,9.33,1.65,12.64,2.02c5.82.93,11.51,1.8,17.24,3.46l10.54,3.06c2.52.73,5.24,2.42,7.73,3.56l10.15,4.65,11.3,4.07,4.63,1.55,4.06,1.52,19.53,7.62c3.36,1.31,6.78,3.52,9.74,5.64l17.79,12.75c1.93,1.39,3.84,2.83,5.89,4.07l9.12,5.51,4.15,2.67,7.92,5.27,17.56,14.29c3.51,2.85,4.35,2.85,8.49,6.15,1.69,1.35,3.7,2.56,5.59,3.85,5.88,4.01,8.76,4.4,15.27,9.8,3.42,2.84,8.77,10.6,13.67,15.37l13.29,12.94,6.95,4.69c-.51-.34,5.55,5.12,5.68,5.86.26,1.46,1.77,1.33,2.7,2.1,2.72,2.28,4.69,5.19,6.87,7.79l7.11,8.47,5.49,5.97c2.39,2.6,4.78,5.17,7.69,7.22,7.57,5.34,13.23,11.02,17.23,19.54l3.34,7.12c2.5,5.32,4.12,11.91,3.48,17.89-1.35,12.66,2.57,20.12,2.3,33.86-.04,1.84,1.99,3.65,3.66,3.24,5.49-1.35,2.5-1.76,4.66-9.12l1.13-3.85c.26-.87-.1-2.82.13-3.85.48-2.23.31-4.25.35-6.45.05-3.09.17-5.86-.86-8.79-.43-1.23-.82-2.77-1.28-3.88l-1.91-4.56c-3.1-7.4-2.68-9.38-4.65-16.87l-.92-3.49c-.73-2.75-2.3-5.25-3.64-7.76l-2.6-4.87c-1.29-2.41-2.4-4.74-3.97-7.02l-2.07-3.01c-.34-.5-.74-1.96-1.07-2.51l-2.4-4.06c-2.54-4.31-7.31-10.92-10.72-14.69-1.05-1.16-2.31-1.96-3.34-3.22l-5.57-6.82-12.95-11.47c-.55-.48-3.45-3-3.78-3.27l-11.68-9.33c-.94-.75-2.22-1.48-3.16-2.33l-5.71-5.24-13.21-11.38c-2.16-1.86-4.25-3.73-6.5-5.4l-8.59-6.38-4.8-3.23c-4.53-3.05-8.65-6.22-12.99-9.47l-4.02-3.01-3.99-3.02-3.98-3.06-3.69-2.79-6.43-4.6c-2.28-1.64-5.25-2.82-7.34-4.67-.73-.65-1.39-1.32-2.14-1.73-2.23-1.24-3.95-2.75-5.89-4.1-5.61-3.88-4.56-3.44-10.45-6.8l-4.9-2.79c-.92-.53-2.22-2.03-3.45-2.71l-11.52-6.39-6.6-3.58c-.9-.49-3.08-.81-4.11-1.19-2.7-2.58-5.66-4.31-9.08-5.64l-7.18-2.79c-2.52-.98-4.95-2.66-7.59-3.21-3.14-.65-5.4-1.93-8.17-3.53-1.91-1.11-4.82-1.59-6.92-2.54l-8.03-3.63-6.99-2.4c-1.88-.64-3.37-1.67-5.29-2.23l-9.26-2.73c-3.3-.97-6.39-2.49-9.81-3.15l-6.37-1.23c-2.8-.54-5.45-.86-8.39-1.15-2.45-.24-5.03-1.54-7.51-1.1s-4.42.05-6.89-.77c-1.9-.63-4.52-.05-6.7.1s-4.37-.27-6.55-.29c-6.02-.06-12,.62-17.96,2.03l-16.07,3.81-11.98,2.05c-.08-2.18.37-3.43.87-5.31,1.08-4.03,1.13-7.96,1.15-12.54l7.18-.88,5.69-.85,2.35,1.74.54-.9c.24-.56.56-1.6.91-1.46,3.21,1.31,1.92,1.14,6.48.27,7.47-1.41,14.45-3.4,21.78-5.36l13.74-3.69,4.4-1.18c1.65-.44,3.6-.46,5.27-1.14l6.83-2.77,5.64-1.94,4.12-1.52,3.7-1.63c4.1-1.8,2.03-3.46,3.31-2.86.27.13,1.32.74,1.58.59l6.21-3.46c1.54-.86,3.11-1.25,4.32-2.21,2.74-2.17,5.75-3.95,8.32-6.27,1.83-1.65,3.46-3.08,5.4-4.54l9.44-7.11c1.76-1.32,3.68-2.73,5.56-3.92l10.05-6.36,13.5-8.08c1.55-.93,3.25-1.68,4.61-2.94s3.53-1.06,4.84-1.79c1.67-.93,3.13-1.82,4.9-2.65,5.58-2.61,7.41-4.94,12.58-8.38,1.47-.97,3.03-2.25,4.5-3.34l4.61-3.41,6.4-5.06c5.49-4.34,6.95-6.13,12.24-10.27l3.13-2.45,3.87-3.94c1.82-1.86,4.12-2.97,6.02-4.57l4.02-3.4,8.41-7.08c4.68-3.94,8.58-8.29,12.63-12.97,5.27-6.09,9.56-12.76,13.82-19.65,2.07-3.34,1.29.03,2.72-3.08.49-1.06,1.16-1.89,1.81-2.81,1.96-2.76,3.65-5.68,5.8-8.29,1.6-1.94,2.97-3.91,4.43-6.08l2.99-4.45,2.46-3.56,3.82-5.24c1.41-1.94,3.41-3.64,4.61-5.8l3.44-6.14,3.68-5.78c1.95-3.06,3.29-6.33,5.16-9.35l8.58-13.91,5.29-8.79c1.88-3.14,3.21-6.21,4.8-9.58l10.69-22.73c1.4-2.97,2.65-5.81,4.31-8.69,3.57-6.18,2.97-8.43,5.24-14.31l2.94-7.59,4.99-14.11,1.54-4.37,1.31-3.52c.56-1.51,1.08-2.85,1.69-4.27l2.75-6.33,2.27-5.23c.52-1.19,1.04-2.45,1.62-3.52l6.94-12.69c.91-1.66,1.04-5.31.04-7.01-.25-.43-1.76-.64-2.22-.59-.36.04-.72-.93-.54-1.31l1.64-3.48c.34-.72-1.65-4.18-5.32-3.8-2.38.25-3.34,5.93-4.75,7.49-.66.73-2.6.53-3.65.53l-11.86-.02c-4.54,0-11.13.81-13.82.32-1.41-.26-2.6-.09-4.07.59l-.78-.5.43-.86c.13-.25.27-.54.34-.66l2.38-4.05-.81-.57c-.4-.28-.93-.39-.77-1.1l.19-.86c.02-.09-.03-.55-.05-.99l-6.9,1.35c1.8-.35-6.65-.16-9.84.29l-6.51.93c-.13.02-.57.04-.93.08l-8.15.75c-9.6.88-13.1.14-22.8,3.62-4.23,1.52-8.21,2.48-12.14,4.49-.77.39-2.68.67-3.61,1.02l-7.21,2.7c-.71.27-1.93,1.68-2.61,2.02l-5.8,2.88c-3.43,1.71-10.92,7.53-11.83,7.07-.19-.09-.44-.46-.31-.62s.57-.57.78-.72l3.17-2.33c1-.74,1.96-1.64,2.93-2.54,3.05-2.8,6.62-4.87,9-8.37.89-1.31,1.62-1.82,3.28-2.45.85-.32,2.23-1.83,3.08-2.27,4.01-2.1,8.08-3.8,12.27-5.65l8.37-3.7c1.25-.55,2.21-1.22,3.47-1.97,1.52-.9,4.2-1.15,6.07-1.69,2.09-.61,4.24-1.05,6.32-.53,2.74.68,4.66-3.34,4.1-5.68-.12-.48-1.36-.57-1.78-.85-2.06-1.43-3.21-.86-5.27.32-1.51.86-3.98,1.09-5.7,1.73-3.62,1.35-7.31,2.2-10.71,3.7l-8.14,3.57c-.77.34-7.51,4.37-8.39,4.98l-5.29,3.7c-5.49,3.85-9.22,7.68-15.55,12.47l-3.99,3.02-2.62,2.22-4.04,2.89-5.75,3.85-3.99,2.99c-1.77,1.32-3.64,2.23-5.34,3.69l-10.25,8.75-4.76,4.23c-1.05.94-3.37,1.22-4.4,2.61-1.18,1.58-2.87,2.54-4.29,3.72-2.95,2.45-5.75,4.84-8.5,7.45-1.5,1.43-2.64,3.68-4.46,4.58-1.61.79-2.58,1.64-3.8,2.69l-7.26,6.24-5.09,4.46-5.2,4.58c-1.68,3.71-4.48,5.02-7.41,7.41-4.27,3.49-8.3,7.63-12.13,11.66-1.37,1.44-2.15,2.81-3.94,3.89-.96.58-2.77,1.87-3.41,2.72-1.83,2.43-3.6,4.35-5.63,6.49l-6.11,6.4c-1.54,1.62-2.61,4.18-4.03,5.92l-2.28,2.82-3.02,3.93c-1.33,1.73-2.9,3.51-4.04,5.26-1.49,2.29-2.73,4.11-4.63,6.15-1.35,1.46-2.56,4.06-3.61,5.84-.26.44-1.38,1.3-1.65,1.7l-3.01,4.44c-.32.47-.39,2.06-.45,2.73-2.53.77-3.36,3.28-4.73,5.27l-6.95,10.11c-1.77,2.58-3.52,4.98-5.09,7.82-.64,1.15-1.41,3.04-2.06,3.96l-4.39,6.15c-.99,1.38-1.75,2.84-2.67,4.31l-3.68,5.95-2.19,3.41-2.14,2.56c-1.65,1.97-3.32,4.14-4.52,6.31-.91,1.64-.68,4.06-2.33,5.41-1.25,1.02-2.5,2.32-3.14,3.7-.81,1.77-1.86,3.13-2.8,4.72l-5.01,8.51c-1.53,2.6-.5,1.8-1.92,2.94-.19.16-.61-.42-.54-.66l.25-.83.79-2.66c.67-2.23,1.35-4.16,2.19-6.39-.02-.15-.11-.65-.16-.98l-.15-.88c-.03-.16-.22-.86-.16-.93l.63-.82c.12-.16.41-.61.46-.83l2.03-8.21,2.11-8.53c.73-2.93.96-6.11,1.48-9.19,1.2-7.12.61-8.42,1.37-13.5.46-3.07.46-6.01.39-9.15l-.16-7.07c-.02-1.1-.54-3.03-.48-3.96l.32-5.62c.05-.87.46-2.22.78-3.3-2.26-1.93-1.1-3.95-.81-6.14.94-7.2,1.05-15.04.66-22.42-.14-2.71-1.12-6.12-1.73-8.69-.13-.56-.95-1.74-.99-2.36-.1-1.44-.75-3.24-1.24-4.66l-4.13-11.98-2.02-5.52c-.67-1.82-1.11-4.25-1.34-6.25l-1.14-9.95c-.15-1.31-1.07-2.97-.61-4.33.59-1.76-.34-3.29-.44-4.81l-.7-10.96-.61-9.49-.31-7c-.18-4.11-.87-8.1-1.33-12.22-.83-7.38-.89-14.8-2.6-22.04l-1.54-6.49-2.79-11.47-.57-4.3-.94-4.63-1.05-5.54-.98-4.9-1.87-8.31c-.47-2.08-.94-3.74-1.68-5.71-2.94-7.78-1.57-9.29-6.39-19.12-.52-1.07-1.67-7.59-1.87-9.09l-2.08-15.19c-.17-1.25-.64-2.55-.92-3.75-.84-3.59-.75-7.59-2.24-11.02l-2.58-5.93c-3.66-8.39-5.91-12.92-10.89-20.59-1.45-2.23-4.36-4.58-7.15-5.16-3.93-.81-7.66-1.77-11.53-2.9l-5.65,1.89c-1.1,1.03-2.34,2.93-3.57,3.71-3.47,2.23-5.99,5.05-8.23,8.35l-4.66,6.83-5.44,7.56c-1.84,2.55-3.09,5.33-4.66,7.9-3.06,5-6.85,9.19-9.21,14.76-.41.96-1.95,2.42-2.49,3.37-3.71,6.41-6.91,9.97-10.05,16.03-1.75,3.38-3.73,6.71-5.15,10.06-.79,1.87-1.19,2.95-2.28,4.5-1.72,2.46-2.7,5.68-4.1,8.45-1.62,3.21-3.02,6.22-4.44,9.58-1.26,2.98-3.39,5.79-4.49,8.81-.88,2.44-1.8,4.37-2.96,6.7-3.37,6.81-6.47,13.61-9.3,20.72l-3.57,8.99-3.37,8.51c-1.6,4.04-2.45,8.26-3.63,12.46l-1.87,6.67-2.29,8.14c-1.62,5.77-3.46,11.47-4.55,17.34-.37,1.96-.47,3.9-.94,5.7l-1.31,5.07-.2,5.94c-.06,1.76-1.3,3.64-1.32,5.24l-.06,5.2c-.14,11.67-1.52,13.77-1.09,25.44.13,3.39-.49,4.01-.02,10.51l.66,9.21.62,9.68.28,9.33c.19,6.47.04,12.89,1.76,19.25l1.19,4.38c.62,2.29,1.12,4.51,1.63,6.86l1.04,4.75c2.02,9.2,2.67,12.21,5.79,21.21l1.56,4.51c.44,1.26,1.13,2.72,1.49,3.89l1.39,4.57c.84,2.76,1.41,5.49,2.5,8.15l2.31,5.67,1.71,5.35c.31.98.65,2.57.91,3.57,3.1,3.3,3.86,11.66,5.4,14.63,6.61,12.73,3.33,12.67,6.85,21.7l4.44,11.4,3.85,10.47.88,4.54c1.01,1.74,1.68,4.19,2.06,5.9.16.73,1.34,2.07,1.29,2.89-.16,2.82,1.72,5.35,3.47,7.25l4.82,5.21c1.38,1.49,1.12,2.54.1,4.24-1.16,1.92-1.83,4.84-3.51,6.37-2.36,2.15-4.1,4.18-6.09,6.48l-5.5,6.37c-1.3,1.51-2.44,3.03-4.01,4.59-1.16-2.61-.51-5.48-1.7-7.38-3.57-5.66-5.07-11.44-5-18.19.04-3.92-1.76-15.62-2.84-19.19l-2.41-8c-.57-1.88-.87-4.23-1.54-5.91l-2.43-6.11c-1.04-2.62-2.01-5.2-3.3-7.69-2.94-5.66,1.23,1.1-3-6.88l-3.48-6.55-2.06-3.21c-1.79-2.79-3.35-5.19-5.45-7.71l-2.28-2.74c-1.68-2.02-3.52-3.84-5.11-5.88-.93-1.2-1.23-2.1-2.92-2.77-.79-.32-1.27-2.3-1.85-2.98-1.89-2.2-3.79-4.19-5.69-6.29l-7.09-7.85c-1.09-1.21-2.43-2.67-3.73-3.68l-2.07-1.62c-4.11-3.23-6.25-7.55-9.7-10.7-1.94-1.76-3.43-3.46-5.07-5.58l-4.28-5.52c-.3-.39-1.65-.91-1.96-1.27-1.25-1.44-3-3.94-4.24-5.58-.62-.81-1.51-1.56-1.66-2.19-.11-.47-.22-1.04-.42-1.11l-1.04-.36-3.46-3.84-4.35-5.09c-1.14-1.33-3.37-2.82-4.73-4.2-5.51-5.6-2.57-4.41-9.76-9.28l-1.1-1.98c-3.39-1.2-2.44-2.44-7.33-6.56l-5.44-4.58c-3.35-2.82-6.75-5.11-10.15-7.82l-3.35-2.67-5.48-3.65c-2.38-1.59-4.09-3.06-6.94-4.28-1.38-.65-3.27-2.85-4.73-3.9l-9.93-7.16-5.01-3.88-4.67-3.23c-3.36-1.54-6.72-2.46-8.94-5.78l-3.71-1.15c-1.21-2.13-3.7-2.24-5.42-1.94-.29.05.27.95.55,1.04,3.28,1.07,5.86,3.41,8.51,5.38l3.6,2.67c.79.59,2.48,1.57,3.18,2.16.14.12-.94.72-1.1.63l-4.62-2.77c-1.56-.93-2.82-1.79-4.4-2.56l-3.72-1.83c-1.22-.6-3.34-1.07-4.35-1.66-2.09-1.21-3.54-2.18-5.89-2.73-5.71-1.34-7.18-3.45-13.03-5.15-1.74-.5-3.32-1-5.05-1.62-2.36-.85-4.85-.93-7.44-1.55l-4.8-1.15-15.83-3.05c-.65-.12-2-.91-2.57-.96l-11.77-1.19c-.93-.09-2.09-.05-2.78-.31-3.88-1.48-7.58-1.64-11.6-2.11l-4.54-.53c-4.34-.51-8.66-1.67-13.05-1.68-7.84-.02-11.21-1.93-21.52-2.54l-15.69-.93c-1.71-.1-3.08-.15-4.82-.02-4.35.32-8.59.38-12.95.24-9.58-.32-5.12-1.38-15.07-1.78l-14.97-.6c-4.32-.17-8.31.35-12.59.78-4.04.41-8.21.31-11.41,3.4-.65,1.4-3.42,3.75-2.92,5.31l3.28,10.34c.61,1.92.76,4.16,1.32,6.21.85,3.14,2.17,6.17,3.34,9.24l2.47,6.47c.44,1.16,1.23,2.52,1.64,3.78.64,1.97,1.2,4.13,2.08,5.9l4.29,8.64c1.15,2.33,2.42,4.69,3.74,6.94l3.07,5.22c1.58,2.68,3.32,5.39,5.21,7.76,1.14,1.43,1.79,2.49,2.62,4.14,1.22,2.43,3.18,4.71,4.67,7.07l2.55,4.03c.91,1.44,1.96,3.19,2.72,4.73,1.99,4.07,4.4,7.44,6.74,11.26l4.38,7.12c.49.8,1.44,1.84,1.85,2.54,1.13,1.96,1.84,4.27,3.04,6.03l5.52,8.05c1.39,2.03,2.7,4.37,4.24,6.26l5.89,7.23c.77.95,2.18,2.16,3.16,3.15l3.23,3.27,2.88,3.1c2.29,2.47,4.52,4.79,6.93,7.13l5.56,5.4,5.32,5.23c1.52,1.5,2.9,3.53,4.44,4.95l4.21,3.89,5.16,4.85,4.28,4.2c1.38,1.36,2.98,2.32,4.46,3.51s2.71,2.7,4.24,3.74c6.45,4.38,10.48,6.37,16.22,10.32,1.17.81,1.95,1.69,3.47,2.02,3.82.82,1.12,1.97,5.88,3.23,5.49,5.33,7.91,1.73,8.93,5.9,5.2,2.06,4.7,3.03,11.69,6.18l3.46,1.56,4.87,2.23c7.73,3.53,12.74,6.55,19.36,11.69l5.26,4.08c4.72,3.67,9.65,6.57,14.83,9.35l3.58,1.91,10.83,5.68c3.92,2.06,7.11,2.68,11.72,5.17,1.09.59,2.86,1.64,3.85,1.96l4.66,1.49,7.18,2.31c7.2,2.32,22.18,5.92,29.56,6.42,2.49.17,4.26,1.16,6.53,1.93,2.93.99,6.41,1.88,9.46,2.36l7.64,1.22c2.01.32,4.46,1.2,6.32,1.35l6.63.51c8.83.68,8.84,1.37,17.44,2.4l17.24,2.07c2.1.25,4.6.16,6.49.65,1.26,1,8.49,1.7,10.26,1.81l15.04.99c-.35,5.9.49,14.68,3.22,19.62,2.98,5.41-11.71,1.31-13.28.79-7.1-2.33-14.75-4.13-22.26-2.56l-6.62,1.38c-3.03.63-5.88,1.18-8.92,1.61s-5.92,1.69-8.93,2.33c-2.32.5-5.08.44-7.18,1.35-1.69.73-3.1,1.38-4.78,1.87l-6.6,1.94-4.85,1.5-12.08,3.83c-1.76.56-4.02,1.75-5.65,2.11-5.86,1.31-11.09,3.02-16.78,4.82l-8.26,2.62c-5.21,1.65-10.24,2.97-15.49,4.77l-10.91,3.74-5.88,2.11-4.9,1.67-6.83,2.62-5.07,1.93-4.78,1.8-4.85,1.95-6.31,2.34c-3.4,1.26-5.17,2.6-9.4,4.11-4.76,1.69-9.4,3.36-13.97,5.34l-8.8,3.82-18.94,7.73c-2.58,1.05-7.93,4.61-11.19,6.22-1.68.83-3.84,1.54-5.37,2.5l-6.16,3.86c-3.57,2.24-7.01,4.91-10.3,7.57-1.98,1.59-3.95,2.78-5.94,4.2l-5.25,3.74c-8.5,6.06-12.03,13.87-17.16,19.24-2.92,3.06-7.2,8.39-9.58,11.87l-6.27,9.17-2.61,4.42c-2.1,3.57-7.5,9.18-11.11,14.82l-5.7,8.91c-6.01,9.4-4.54,10.25-6.41,13.49-4.8,8.35-5.77,9.5-7.55,19.05l-1.89,10.11-1.14,6.5-1.23,8.88c-.24,1.75-1.24,4.01-1.32,5.95l-.45,11.49c-.09,2.35-.76,5.17-.33,7.46.58,3.06,1.03,5.65.78,8.79-.19,2.37.7,9.57,1.45,12.34l1.08,3.99c.42,1.56,1.59,2.86,2.08,4.46l1.52,4.95c.13.42,4.77,11.19,5.35,12.55s1.54,2.79,2.61,3.02c1.34.29,3.35.1,3.77-.8,1-2.16-.24-4.06-1.11-5.48-.45-.74-.55-2.6-.82-3.35-.65-1.81-1.35-3.51-1.52-5.36-.26-2.73-1.43-5.35-1.83-7.94l-1.56-10.12c-.14-.94-.26-2.09-.5-2.97l-1.52-5.53c-1.83-6.67-1.09-13.41-1.29-20.22-.16-5.8-.2-11.3.75-17.04.5-3.02.78-5.9,1.91-8.63l1.77-4.26c1.47-3.53,1.79-7.71,4.32-10.73l1.35-5.19c.84-3.23,2.38-6,3.98-8.85l5.79-10.38c5.98-10.72,13.13-14.69,21.53-24.06l3.96-4.42c1.42-1.58,2.82-3.46,4.81-4.33.74-.32,1.51-1.85,2.09-2.35l9.91-8.49,4.75-3.86,4.4-3.56,5.11-4.43,3.66-3.34c1.6-1.46,2.85-2.7,4.84-3.8,2.29-1.26,3.86-3.79,5.73-5.61l5.84-5.68,5.85-5.11c.97-.85,1.69-1.8,2.96-2.67,1.65-1.13,3.01-3.55,4.8-4.43,1.32-.65,2.57-1.2,3.28-2.25,1.53-2.25,3.64-3.5,5.53-5.16s3.35-3.06,5.72-3.85c.95-.32,2.6-1.43,3.27-2.06,6.83-6.52,3.74-3.58,11.2-7.82,2.18-1.24,4.5-2.61,6.78-3.63l6.04-2.7,5.58-2.49c1.68-.75,3.62-1.09,5.32-1.82l7.58-3.23,4.12-1.42,9.59-3.46,5.41-2.06,4.69-1.71,16.94-5.66,4.84-1.59c2.06-.67,4.48-1.04,6.38-1.72,2.01-.72,3.65-1.34,5.74-1.79l9.77-2.13c1.82-.4,3.74-1.55,5.75-1.72,2.54-.22,4.86-1,7.29-1.57l10.05-2.35c2.71-.63,5.06-1.42,7.59-2.28,6.28-2.15,12.83-2.27,18.85-3.94l7.74-2.15c2.43-.67,5.21-.62,7.53-1.57,7.89-3.25,17.22-2.64,21.08-3.65,2.89-.76,4.79-1.65,7.92-.31,1.38.59,4.48-.38,6.07-.06,5.02,1.02,8.93.78,11.44,1.88l4.13,1.8c1.56.68,3.16,1.14,4.92,1.28,3.54.26,5.49,3.72,8.38,4.96,1.79.77,3.49,1.52,4.65,3,.32.4,1.58.8,1.65,1.26s-.46,1.27-.86,1.82c-.72,1.01-1.3,2.32-1.97,3.42-3.52,5.74-7.11,11.11-8.84,17.68-.8,3.04-1.54,6.13-2.59,9.03-.52,1.42-.69,2.51-1.06,3.88l-5.15,19.28c-.45,1.68-.78,3.73-1.31,5.27-1.9,5.46-3.4,10.67-4.74,16.22l-3.46,14.37-1.18,5.89-1.34,6.23-.57,3.25c-.88,4.97-2.36,10.32-4.88,14.74-1.59,2.79-1.79,6.54-2.91,9.59l-2.17,5.93c-1.59,4.36-3.61,10.9-4.5,15.44-1.08,5.5-6.9,14.2-8.53,25.54-.53,3.68-1.1,7.17-1.15,10.83l-.15,12.25c-.03,2.72-.36,5.11,1.04,7.9,1.72,3.4,1.52,7.36,2.63,10.96l1.8,5.82c.67,2.16.94,4.4.97,6.55l1.47,3.61c.97,2.39,1.73,4.48,2.29,7.07.76,3.52,3.19,10.59,4.68,13.72.95,2,1.91,3.81,2.61,5.92l4.37,13.25c.4,1.21,1,3.07,1.67,4.38l4.97,9.79,1.76,2.19,7.47,14.59,2.64,4.38c1.28,2.13,2.43,4.2,3.49,6.55,2.43,5.41,2.38,4.35,4.54,8.93,1.13,2.4,2.43,4.52,3.6,6.92l2.42,4.97c.48.99,2.05,2.88,2.97,3.64,3.56,2.93,7.15,6.38,10.26,10.09,6.63,7.93,1.04,3.48,10.23,10.16,1.28.93,2.13,2.42,3.19,3.44,2.57,2.48,5.35,4.7,7.79,7.33,5.94,6.42,4.27,6.64,11.55,12.2,1.28,0,3.5-.07,4.47-.44,1.77-.7,1.2-3.55.14-4.56-2.37-2.27-4.45-4.41-6.64-6.83-2.9-3.21-4.5-7.12-7-10.68l-4.65-6.62c-1.53-2.18-2.35-4.03-4.2-5.95-1.31-1.36-2.12-3.69-3.22-5.49-1.47-2.41-4.64-3.53-6.99-5.28-1-.75-1.94-2.76-2.74-3.72l-4.56-5.49c-1.58-1.91-2.94-3.65-4.24-5.79s-2.9-4.05-4.3-6.12l-9.3-13.67c-1.98-2.91-6.99-12.22-8.25-15.38l-9.11-22.81-5.54-14.99c-1.88-5.08-3.84-11.73-4.77-17.06-.48-2.72.29-4.68-.14-9.58-.37-4.24-.48-8.53-.33-12.87.18-5.27-.45-7.49.26-11.51.58-3.26.18-6.22.41-9.45l.47-6.6c.65-9.11,1.38-17.91,2.59-26.97.36-2.68.6-5.19.82-7.81.42-5.18,1.38-10.04,2.09-15.22l.84-6.07c.83-5.98.55-11.96,3.42-17.3l3.53-6.54c1.69-3.14,3.64-6.17,4.8-9.65l5.9-17.55c.99-2.93,2.02-5.3,3.09-8.28l1.79-4.94,2.15-5.07,3.51-9.08,3.95-9.54,4.04-9.39,5.43-12.18c.58-1.3,1.08-2.55,1.81-3.74l2.85-4.68,1.1-3.12,4.61,1.62c4.37,1.53,12.57,2.45,19.39,4.49,1.74.52,2.61.65,4.57.57l6.21-.25c3.09,1.03,3.34,4.63,4.76,6.85,1.95,3.06,3.39,5.94,4.63,9.39l4.21,11.66,4.58,12.94,3.76,11.1,4.04,12.54,2.81,9.1,1.6,4.65c1.85,5.4,3.09,10.91,4.62,16.44s2.09,9.81,3.71,15.8l2.35,8.66c1.31,4.81.93,5.81,2.51,11.75,2.68,10.04,4.47,13.34,7.15,22.55l1.68,5.77,2.82,9.32c1.42,4.69,2.65,9.21,4,13.94l2.63,9.25,1.97,6.84,1.75,6.89c1.29,5.06,3.35,10.11,3.96,15.42.82,7.08.61,14.54-.16,21.6l-2.53,23.28-.66,9.99-.47,7.53-.79,10.97c-.24,3.4-1.11,6.44-1.7,9.72-1.28,7.02-2.8,13.73-7.21,19.62l-2.55,3.41c-3.84,5.14-8.48,9.43-12.99,13.97l-3.02,3.03c-2.4,2.41-4.97,4.32-7.78,6.26l-4.98,3.43-6.54,4.08c-3.55,2.21-6.9,3.9-10.96,5.03-1.22.34-2.52,1.2-3,2.1-.38.72-.33,2.85.68,3.16,2.18.66,5.55.47,7.44-.75l6.13-3.92c1.13-.72,2.3-1.47,3.55-2.02l4.52-2,5.21-2.28c.31-.13,8.77-4.35,8.31-4.03ZM189.07,877.15c-3.49.85-6.62,1.63-9.96,2.26l-4.56.85-3.17,1.13-9.02,1.5-4.89.94c-7.16,1.38-8.69.88-16.72,2.35-4.74.87-7.75.62-12.54,1.54-8.76,1.68-17.3,3.07-26.2,3.78l-26.01,2.07c-1.85.15-4.51-1.13-5.45,1.62,1.46,1.43,4.57,2.24,6.77,2.06l5.72-.47,6.45-.56,10.47-1.03,6.09-.43c3.71-.26,7.36-1.04,11.11-1.55l4.39-.59,7.5-.96,19.48-2,11.52-.94,2.72-.93,8.98-2.01c3.66-.82,7.33-1.19,10.93-2.24,2.95-.86,6.04-1.24,9.09-1.94l13.78-3.19c1.58-.37,3.54-.57,5.07-1.01l9.34-2.68c3.41-.98,6.62-2.77,9.82-4.13l7.06-3.01,11.6-4.78,9.85-4.07c3.35-1.38,9.81-5.07,12.36-7.14l11.85-9.61,4.12-3.51c5.27-4.5,13.58-7.21,14.01-7.52l3.61-2.65c2.7-1.98,5.67-2.94,8.51-4.61l3.85-2.25c2.38-1.39,13.33-9.93,16.24-12.18l3.34-2.59,5.49-4.1c4.82-3.6,11.99-9.58,16.1-13.84l3.69-3.82c2.84-2.94,5.28-6,7.81-9.22,1.79-2.28,3.95-4.4,5.49-6.83.87-1.38,1.71-2.26,2.65-3.51l6.41-8.51,6.43-7.78,4.2-5.58c1.06-1.41,2.09-2.52,3.34-3.87s2.47-3.44,3.76-5.05l2.9-3.63c1.45-1.82,2.73-3.59,4.09-5.45l2.51-3.46,2.17-2.85c6.35-8.35,6.25-6.04,10.46-11.05,3.47-4.12,9.14-8.39,10.16-13.19.13-.6,1.13-1.7,1.38-2.25,2.93-6.4,1.36-6.05,2.55-11.37,1.92-8.59,2-12.53,3.4-20.48.78-4.45.81-9.29,2.82-13.4.6-1.22,1.21-2.37,1.69-3.65l5.46-14.49,1.76-5.76,2.29-7.67,1.25-6.12,2.66-8.4,1.22-4.93c.15-.61.69-1.93.34-2.34-.58-.7-2.75-2.59-3.69-2.73-.49-.07-1.92.62-2.17,1.09l-3.05,5.77c-.71,1.34-.81,2.24-1.09,3.82-.57,3.14-1.75,6.25-2.83,9.26-1.73,4.83-2.76,9.78-3.61,14.85l-.72,4.25-1.66,3.81c-2.51,5.76-3.79,11.7-6.72,17.28l-3.59,6.85-3.78,7.41c-1.61,3.16-2.77,6.51-4.11,9.84l-3.39,8.46c-3.8,9.49-5.7,14.58-11.12,23.58-2.85,4.74-5.25,9.64-7.9,14.53l-3.31,6.1c-1.85,3.41-4.22,6.58-6.85,9.34-1.01,1.07-2.11,2.81-3.27,3.69l-13.49,10.11c-1.3.97-3.38,2.03-4.39,2.99l-6.44,6.17c-1.71,1.64-3.78,2.91-5.63,4.38-1.66,1.32-3.15,2.73-5.02,3.93-1.4.9-2.24,1.99-3.35,3.12-1.71,1.74-3.7,3.3-5.62,4.88-1.44,1.18-2.7,2.68-4.07,3.93l-9.96,9.04-4.84,4.65c-4.93,4.74-10.12,8.76-15.02,13.52l-6.08,5.89-10.42,9.58-7.01,6.11c-2.14,1.86-4.01,4.34-6.36,5.92-4.1,2.76-9.9,5.35-14.56,7.01l-12.22,4.33-7.91,3.02-9.06,3.3c-4.4,1.6-6.24,1.57-10.96,3.69-3.69,1.65-7.32,2.29-11.17,3.09l-4.5.93-5.61.97-4.19.72c-1.01.17-2.19.81-3.32,1.07l-8.22,1.84c.38-.08-12.95,4.09-13.37,4.63l-3.13-.46c-1.11,1.15-1.95,1.71-3.21,2.13l-7.53,2.53-7.09,2.38-4.5,1.52c-2.24.76-9.33,1.98-11.13.88-2.11-1.29-5.13-1.13-6.59.02-.75.6-.84,2.78-.14,3.05,1.26.47,3.34,1.72,4.52,1.91,13.13,2.17,22.23-3.95,26.29-4.61,2.45-.4,4.21-1.16,6.41-2.15,2.59-1.16,5.8-1.52,8.49-2.49l8.16-2.94c2.68-.97,5.37-1.95,8.15-2.3.44-.2,1.57-.83,2.02-.9,2.89-.42,6.27-1.23,9.15-1.82l10.89-2.22c2.08-.42,4.73-.64,6.53-1.42l4.58-1.97c8.96-3.85,12.38-3.12,18.85-6.13l7.9-3.66c4.4-2.04,1.37,1.12,10.98-4.18,1.24-.68,5.48.14-7.44,6.44-3.71,1.81-7.33,3.46-11.13,4.81l-7.07,2.52-5.72,2.19c-1.38.53-2.61,1.02-3.91,1.63-13.52,6.38-18.08,6.87-31.95,10.25l-8.33,2.03Z"/>
  <path d="M574.33,966.31c.46-.32-8,3.9-8.31,4.03l-5.21,2.28-4.52,2c-1.24.55-2.42,1.3-3.55,2.02l-6.13,3.92c-1.89,1.21-5.26,1.4-7.44.75-1.01-.3-1.06-2.44-.68-3.16.48-.91,1.78-1.77,3-2.1,4.06-1.13,7.41-2.82,10.96-5.03l6.54-4.08,4.98-3.43c2.81-1.93,5.38-3.84,7.78-6.26l3.02-3.03c4.51-4.54,9.15-8.83,12.99-13.97l2.55-3.41c4.4-5.89,5.93-12.6,7.21-19.62.6-3.28,1.46-6.31,1.7-9.72l.79-10.97.47-7.53.66-9.99,2.53-23.28c.77-7.06.98-14.52.16-21.6-.62-5.32-2.68-10.37-3.96-15.42l-1.75-6.89-1.97-6.84-2.63-9.25c-1.35-4.73-2.58-9.25-4-13.94l-2.82-9.32-1.68-5.77c-2.69-9.22-4.47-12.51-7.15-22.55-1.59-5.94-1.21-6.94-2.51-11.75l-2.35-8.66c-1.63-6-2.19-10.29-3.71-15.8s-2.76-11.04-4.62-16.44l-1.6-4.65-2.81-9.1-4.04-12.54-3.76-11.1-4.58-12.94-4.21-11.66c-1.24-3.44-2.68-6.33-4.63-9.39-1.41-2.21-1.67-5.82-4.76-6.85l-6.21.25c-1.95.08-2.83-.05-4.57-.57-6.82-2.04-15.02-2.96-19.39-4.49l-4.61-1.62-1.1,3.12-2.85,4.68c-.73,1.19-1.23,2.43-1.81,3.74l-5.43,12.18-4.04,9.39-3.95,9.54-3.51,9.08-2.15,5.07-1.79,4.94c-1.08,2.97-2.11,5.34-3.09,8.28l-5.9,17.55c-1.17,3.47-3.11,6.51-4.8,9.65l-3.53,6.54c-2.87,5.34-2.59,11.32-3.42,17.3l-.84,6.07c-.72,5.18-1.67,10.04-2.09,15.22-.21,2.62-.46,5.13-.82,7.81-1.21,9.06-1.94,17.86-2.59,26.97l-.47,6.6c-.23,3.22.17,6.19-.41,9.45-.71,4.02-.09,6.24-.26,11.51-.15,4.34-.04,8.63.33,12.87.43,4.9-.34,6.85.14,9.58.93,5.33,2.89,11.98,4.77,17.06l5.54,14.99,9.11,22.81c1.26,3.16,6.27,12.47,8.25,15.38l9.3,13.67c1.41,2.07,3.02,4.01,4.3,6.12s2.66,3.89,4.24,5.79l4.56,5.49c.8.96,1.74,2.97,2.74,3.72,2.34,1.75,5.51,2.87,6.99,5.28,1.1,1.8,1.91,4.14,3.22,5.49,1.85,1.92,2.67,3.77,4.2,5.95l4.65,6.62c2.51,3.56,4.1,7.47,7,10.68,2.19,2.42,4.27,4.56,6.64,6.83,1.05,1.01,1.62,3.86-.14,4.56-.96.37-3.19.44-4.47.44-7.28-5.56-5.62-5.78-11.55-12.2-2.44-2.64-5.23-4.85-7.79-7.33-1.06-1.02-1.91-2.5-3.19-3.44-9.19-6.68-3.6-2.24-10.23-10.16-3.11-3.72-6.7-7.16-10.26-10.09-.93-.76-2.49-2.65-2.97-3.64l-2.42-4.97c-1.17-2.4-2.46-4.52-3.6-6.92-2.16-4.57-2.11-3.52-4.54-8.93-1.06-2.35-2.2-4.41-3.49-6.55l-2.64-4.38-7.47-14.59-1.76-2.19-4.97-9.79c-.66-1.31-1.27-3.17-1.67-4.38l-4.37-13.25c-.7-2.11-1.66-3.92-2.61-5.92-1.49-3.14-3.92-10.2-4.68-13.72-.56-2.6-1.32-4.68-2.29-7.07l-1.47-3.61c-.03-2.15-.31-4.39-.97-6.55l-1.8-5.82c-1.11-3.6-.91-7.55-2.63-10.96-1.41-2.79-1.08-5.19-1.04-7.9l.15-12.25c.05-3.65.62-7.14,1.15-10.83,1.62-11.34,7.45-20.04,8.53-25.54.89-4.54,2.91-11.08,4.5-15.44l2.17-5.93c1.12-3.05,1.31-6.8,2.91-9.59,2.52-4.42,4.01-9.77,4.88-14.74l.57-3.25,1.34-6.23,1.18-5.89,3.46-14.37c1.34-5.55,2.84-10.76,4.74-16.22.53-1.54.86-3.59,1.31-5.27l5.15-19.28c.37-1.37.54-2.46,1.06-3.88,1.06-2.9,1.79-5.99,2.59-9.03,1.73-6.57,5.32-11.93,8.84-17.68.67-1.1,1.25-2.41,1.97-3.42.4-.55.93-1.35.86-1.82s-1.34-.86-1.65-1.26c-1.16-1.48-2.86-2.23-4.65-3-2.89-1.24-4.85-4.69-8.38-4.96-1.76-.13-3.35-.59-4.92-1.28l-4.13-1.8c-2.51-1.1-6.41-.86-11.44-1.88-1.59-.32-4.69.65-6.07.06-3.13-1.35-5.03-.45-7.92.31-3.86,1.02-13.18.4-21.08,3.65-2.32.95-5.1.9-7.53,1.57l-7.74,2.15c-6.02,1.67-12.56,1.79-18.85,3.94-2.53.87-4.88,1.65-7.59,2.28l-10.05,2.35c-2.44.57-4.75,1.35-7.29,1.57-2.01.17-3.93,1.32-5.75,1.72l-9.77,2.13c-2.1.46-3.73,1.08-5.74,1.79-1.9.68-4.32,1.04-6.38,1.72l-4.84,1.59-16.94,5.66-4.69,1.71-5.41,2.06-9.59,3.46-4.12,1.42-7.58,3.23c-1.7.72-3.64,1.07-5.32,1.82l-5.58,2.49-6.04,2.7c-2.28,1.02-4.6,2.39-6.78,3.63-7.46,4.24-4.37,1.3-11.2,7.82-.67.64-2.32,1.75-3.27,2.06-2.37.79-3.9,2.25-5.72,3.85s-4,2.91-5.53,5.16c-.72,1.05-1.97,1.6-3.28,2.25-1.79.88-3.15,3.3-4.8,4.43-1.27.87-1.99,1.82-2.96,2.67l-5.85,5.11-5.84,5.68c-1.87,1.82-3.44,4.35-5.73,5.61-2,1.1-3.25,2.35-4.84,3.8l-3.66,3.34-5.11,4.43-4.4,3.56-4.75,3.86-9.91,8.49c-.59.5-1.36,2.03-2.09,2.35-1.99.86-3.39,2.74-4.81,4.33l-3.96,4.42c-8.4,9.38-15.55,13.34-21.53,24.06l-5.79,10.38c-1.59,2.86-3.14,5.62-3.98,8.85l-1.35,5.19c-2.52,3.02-2.85,7.2-4.32,10.73l-1.77,4.26c-1.14,2.73-1.41,5.61-1.91,8.63-.95,5.75-.92,11.24-.75,17.04.19,6.8-.54,13.55,1.29,20.22l1.52,5.53c.24.88.35,2.03.5,2.97l1.56,10.12c.4,2.59,1.57,5.21,1.83,7.94.18,1.85.88,3.55,1.52,5.36.27.75.36,2.61.82,3.35.87,1.42,2.1,3.32,1.11,5.48-.42.9-2.43,1.09-3.77.8-1.07-.23-2-1.59-2.61-3.02s-5.22-12.13-5.35-12.55l-1.52-4.95c-.49-1.6-1.66-2.91-2.08-4.46l-1.08-3.99c-.75-2.77-1.64-9.97-1.45-12.34.25-3.15-.2-5.73-.78-8.79-.43-2.29.23-5.11.33-7.46l.45-11.49c.08-1.94,1.08-4.2,1.32-5.95l1.23-8.88,1.14-6.5,1.89-10.11c1.78-9.55,2.75-10.7,7.55-19.05,1.86-3.24.39-4.1,6.41-13.49l5.7-8.91c3.61-5.64,9.01-11.25,11.11-14.82l2.61-4.42,6.27-9.17c2.38-3.48,6.66-8.81,9.58-11.87,5.12-5.37,8.66-13.18,17.16-19.24l5.25-3.74c1.99-1.42,3.97-2.6,5.94-4.2,3.29-2.65,6.72-5.33,10.3-7.57l6.16-3.86c1.53-.96,3.69-1.67,5.37-2.5,3.26-1.61,8.61-5.17,11.19-6.22l18.94-7.73,8.8-3.82c4.57-1.98,9.2-3.65,13.97-5.34,4.23-1.51,6-2.84,9.4-4.11l6.31-2.34,4.85-1.95,4.78-1.8,5.07-1.93,6.83-2.62,4.9-1.67,5.88-2.11,10.91-3.74c5.25-1.8,10.28-3.12,15.49-4.77l8.26-2.62c5.69-1.8,10.91-3.51,16.78-4.82,1.63-.37,3.89-1.56,5.65-2.11l12.08-3.83,4.85-1.5,6.6-1.94c1.67-.49,3.09-1.14,4.78-1.87,2.1-.91,4.87-.86,7.18-1.35,3.01-.65,5.96-1.92,8.93-2.33s5.88-.97,8.92-1.61l6.62-1.38c7.5-1.57,15.16.23,22.26,2.56,1.57.52,16.26,4.62,13.28-.79-2.72-4.94-3.57-13.72-3.22-19.62l-15.04-.99c-1.77-.12-9.01-.81-10.26-1.81-1.89-.5-4.39-.4-6.49-.65l-17.24-2.07c-8.6-1.03-8.61-1.71-17.44-2.4l-6.63-.51c-1.86-.14-4.31-1.03-6.32-1.35l-7.64-1.22c-3.05-.49-6.53-1.37-9.46-2.36-2.27-.77-4.04-1.76-6.53-1.93-7.38-.49-22.36-4.1-29.56-6.42l-7.18-2.31-4.66-1.49c-.99-.32-2.76-1.37-3.85-1.96-4.61-2.49-7.8-3.11-11.72-5.17l-10.83-5.68-3.58-1.91c-5.19-2.77-10.11-5.68-14.83-9.35l-5.26-4.08c-6.62-5.14-11.63-8.16-19.36-11.69l-4.87-2.23-3.46-1.56c-6.99-3.15-6.49-4.11-11.69-6.18-1.02-4.17-3.44-.57-8.93-5.9-4.76-1.26-2.06-2.41-5.88-3.23-1.53-.33-2.3-1.21-3.47-2.02-5.73-3.94-9.77-5.94-16.22-10.32-1.53-1.04-2.83-2.6-4.24-3.74s-3.08-2.16-4.46-3.51l-4.28-4.2-5.16-4.85-4.21-3.89c-1.54-1.42-2.91-3.46-4.44-4.95l-5.32-5.23-5.56-5.4c-2.41-2.34-4.64-4.66-6.93-7.13l-2.88-3.1-3.23-3.27c-.98-.99-2.39-2.2-3.16-3.15l-5.89-7.23c-1.55-1.9-2.85-4.23-4.24-6.26l-5.52-8.05c-1.2-1.75-1.91-4.07-3.04-6.03-.41-.7-1.36-1.74-1.85-2.54l-4.38-7.12c-2.35-3.82-4.76-7.19-6.74-11.26-.75-1.54-1.81-3.29-2.72-4.73l-2.55-4.03c-1.49-2.36-3.44-4.64-4.67-7.07-.83-1.65-1.47-2.71-2.62-4.14-1.9-2.37-3.64-5.08-5.21-7.76l-3.07-5.22c-1.32-2.24-2.58-4.61-3.74-6.94l-4.29-8.64c-.88-1.76-1.44-3.93-2.08-5.9-.41-1.26-1.2-2.62-1.64-3.78l-2.47-6.47c-1.17-3.07-2.48-6.1-3.34-9.24-.56-2.05-.71-4.3-1.32-6.21l-3.28-10.34c-.49-1.56,2.28-3.92,2.92-5.31,3.2-3.09,7.37-2.99,11.41-3.4,4.28-.43,8.27-.95,12.59-.78l14.97.6c9.95.4,5.49,1.47,15.07,1.78,4.36.14,8.59.08,12.95-.24,1.74-.13,3.11-.08,4.82.02l15.69.93c10.31.61,13.68,2.51,21.52,2.54,4.4.01,8.71,1.17,13.05,1.68l4.54.53c4.02.47,7.73.63,11.6,2.11.69.26,1.85.22,2.78.31l11.77,1.19c.57.06,1.92.84,2.57.96l15.83,3.05,4.8,1.15c2.59.62,5.08.7,7.44,1.55,1.72.62,3.3,1.12,5.05,1.62,5.85,1.69,7.32,3.81,13.03,5.15,2.35.55,3.8,1.52,5.89,2.73,1.01.59,3.13,1.06,4.35,1.66l3.72,1.83c1.57.77,2.84,1.63,4.4,2.56l4.62,2.77c.16.09,1.24-.51,1.1-.63-.7-.59-2.38-1.58-3.18-2.16l-3.6-2.67c-2.65-1.96-5.23-4.31-8.51-5.38-.28-.09-.84-.99-.55-1.04,1.71-.3,4.21-.19,5.42,1.94l3.71,1.15c2.22,3.32,5.57,4.24,8.94,5.78l4.67,3.23,5.01,3.88,9.93,7.16c1.46,1.05,3.35,3.25,4.73,3.9,2.85,1.22,4.55,2.69,6.94,4.28l5.48,3.65,3.35,2.67c3.4,2.71,6.8,4.99,10.15,7.82l5.44,4.58c4.89,4.12,3.94,5.37,7.33,6.56l1.1,1.98c7.19,4.87,4.24,3.68,9.76,9.28,1.36,1.39,3.59,2.88,4.73,4.2l4.35,5.09,3.46,3.84,1.04.36c.19.07.31.64.42,1.11.15.63,1.05,1.37,1.66,2.19,1.24,1.64,2.99,4.14,4.24,5.58.32.36,1.66.88,1.96,1.27l4.28,5.52c1.64,2.12,3.13,3.82,5.07,5.58,3.46,3.15,5.6,7.48,9.7,10.7l2.07,1.62c1.29,1.01,2.63,2.47,3.73,3.68l7.09,7.85c1.9,2.1,3.8,4.09,5.69,6.29.58.68,1.06,2.67,1.85,2.98,1.69.67,1.99,1.58,2.92,2.77,1.59,2.04,3.43,3.86,5.11,5.88l2.28,2.74c2.1,2.53,3.66,4.93,5.45,7.71l2.06,3.21,3.48,6.55c4.23,7.98.06,1.22,3,6.88,1.29,2.48,2.26,5.07,3.3,7.69l2.43,6.11c.67,1.68.97,4.03,1.54,5.91l2.41,8c1.08,3.57,2.88,15.27,2.84,19.19-.07,6.75,1.43,12.53,5,18.19,1.2,1.9.54,4.77,1.7,7.38,1.57-1.56,2.71-3.09,4.01-4.59l5.5-6.37c1.99-2.31,3.73-4.34,6.09-6.48,1.68-1.53,2.35-4.45,3.51-6.37,1.02-1.69,1.28-2.75-.1-4.24l-4.82-5.21c-1.76-1.9-3.63-4.43-3.47-7.25.05-.82-1.13-2.16-1.29-2.89-.38-1.71-1.05-4.17-2.06-5.9l-.88-4.54-3.85-10.47-4.44-11.4c-3.52-9.03-.24-8.98-6.85-21.7-1.54-2.97-2.29-11.32-5.4-14.63-.25-1-.59-2.58-.91-3.57l-1.71-5.35-2.31-5.67c-1.08-2.66-1.66-5.38-2.5-8.15l-1.39-4.57c-.35-1.17-1.05-2.63-1.49-3.89l-1.56-4.51c-3.12-9-3.77-12.01-5.79-21.21l-1.04-4.75c-.52-2.35-1.01-4.57-1.63-6.86l-1.19-4.38c-1.72-6.36-1.57-12.78-1.76-19.25l-.28-9.33-.62-9.68-.66-9.21c-.47-6.5.15-7.12.02-10.51-.43-11.67.94-13.77,1.09-25.44l.06-5.2c.02-1.61,1.26-3.48,1.32-5.24l.2-5.94,1.31-5.07c.47-1.8.57-3.74.94-5.7,1.1-5.87,2.93-11.57,4.55-17.34l2.29-8.14,1.87-6.67c1.18-4.21,2.03-8.42,3.63-12.46l3.37-8.51,3.57-8.99c2.82-7.11,5.93-13.91,9.3-20.72,1.15-2.33,2.07-4.26,2.96-6.7,1.1-3.02,3.23-5.83,4.49-8.81,1.42-3.36,2.82-6.37,4.44-9.58,1.4-2.77,2.38-5.99,4.1-8.45,1.09-1.55,1.48-2.63,2.28-4.5,1.42-3.35,3.39-6.67,5.15-10.06,3.14-6.06,6.33-9.61,10.05-16.03.55-.94,2.09-2.41,2.49-3.37,2.36-5.57,6.14-9.76,9.21-14.76,1.57-2.57,2.82-5.34,4.66-7.9l5.44-7.56,4.66-6.83c2.25-3.3,4.76-6.12,8.23-8.35,1.23-.79,2.46-2.68,3.57-3.71l5.65-1.89c3.87,1.13,7.6,2.09,11.53,2.9,2.79.58,5.7,2.93,7.15,5.16,4.98,7.67,7.23,12.2,10.89,20.59l2.58,5.93c1.49,3.43,1.41,7.43,2.24,11.02.28,1.2.75,2.51.92,3.75l2.08,15.19c.2,1.49,1.35,8.02,1.87,9.09,4.81,9.83,3.45,11.33,6.39,19.12.75,1.97,1.22,3.63,1.68,5.71l1.87,8.31.98,4.9,1.05,5.54.94,4.63.57,4.3,2.79,11.47,1.54,6.49c1.71,7.23,1.77,14.65,2.6,22.04.46,4.11,1.14,8.11,1.33,12.22l.31,7,.61,9.49.7,10.96c.1,1.52,1.03,3.05.44,4.81-.46,1.36.46,3.02.61,4.33l1.14,9.95c.23,2.01.68,4.44,1.34,6.25l2.02,5.52,4.13,11.98c.49,1.42,1.14,3.22,1.24,4.66.04.62.86,1.81.99,2.36.61,2.57,1.59,5.98,1.73,8.69.39,7.39.27,15.22-.66,22.42-.28,2.19-1.44,4.21.81,6.14-.33,1.07-.73,2.42-.78,3.3l-.32,5.62c-.05.94.46,2.86.48,3.96l.16,7.07c.07,3.14.07,6.08-.39,9.15-.77,5.07-.18,6.37-1.37,13.5-.52,3.08-.75,6.26-1.48,9.19l-2.11,8.53-2.03,8.21c-.05.21-.34.67-.46.83l-.63.82c-.06.07.14.77.16.93l.15.88c.06.34.15.84.16.98-.85,2.23-1.53,4.16-2.19,6.39l-.79,2.66-.25.83c-.07.23.35.81.54.66,1.42-1.14.39-.35,1.92-2.94l5.01-8.51c.94-1.59,1.98-2.96,2.8-4.72.64-1.39,1.89-2.69,3.14-3.7,1.65-1.34,1.42-3.77,2.33-5.41,1.2-2.17,2.87-4.34,4.52-6.31l2.14-2.56,2.19-3.41,3.68-5.95c.91-1.47,1.68-2.93,2.67-4.31l4.39-6.15c.66-.92,1.42-2.8,2.06-3.96,1.57-2.84,3.32-5.24,5.09-7.82l6.95-10.11c1.37-1.99,2.2-4.5,4.73-5.27.07-.67.13-2.25.45-2.73l3.01-4.44c.27-.4,1.39-1.27,1.65-1.7,1.05-1.78,2.25-4.38,3.61-5.84,1.89-2.04,3.14-3.86,4.63-6.15,1.15-1.76,2.72-3.54,4.04-5.26l3.02-3.93,2.28-2.82c1.42-1.75,2.48-4.31,4.03-5.92l6.11-6.4c2.04-2.13,3.8-4.06,5.63-6.49.64-.85,2.45-2.14,3.41-2.72,1.79-1.08,2.57-2.44,3.94-3.89,3.83-4.03,7.86-8.17,12.13-11.66,2.92-2.39,5.72-3.69,7.41-7.41l5.2-4.58,5.09-4.46,7.26-6.24c1.22-1.05,2.2-1.9,3.8-2.69,1.82-.9,2.96-3.15,4.46-4.58,2.75-2.61,5.55-5,8.5-7.45,1.42-1.18,3.12-2.14,4.29-3.72,1.03-1.38,3.34-1.67,4.4-2.61l4.76-4.23,10.25-8.75c1.7-1.45,3.57-2.36,5.34-3.69l3.99-2.99,5.75-3.85,4.04-2.89,2.62-2.22,3.99-3.02c6.33-4.79,10.05-8.63,15.55-12.47l5.29-3.7c.88-.62,7.62-4.65,8.39-4.98l8.14-3.57c3.4-1.49,7.09-2.35,10.71-3.7,1.72-.64,4.19-.87,5.7-1.73,2.06-1.18,3.21-1.75,5.27-.32.42.29,1.66.37,1.78.85.56,2.35-1.37,6.37-4.1,5.68-2.08-.52-4.24-.08-6.32.53-1.87.55-4.56.79-6.07,1.69-1.26.75-2.21,1.42-3.47,1.97l-8.37,3.7c-4.19,1.85-8.26,3.55-12.27,5.65-.85.45-2.23,1.95-3.08,2.27-1.65.63-2.39,1.14-3.28,2.45-2.38,3.5-5.95,5.57-9,8.37-.97.89-1.93,1.8-2.93,2.54l-3.17,2.33c-.2.15-.64.56-.78.72s.12.53.31.62c.92.45,8.4-5.37,11.83-7.07l5.8-2.88c.68-.34,1.9-1.76,2.61-2.02l7.21-2.7c.93-.35,2.84-.62,3.61-1.02,3.93-2.01,7.91-2.97,12.14-4.49,9.7-3.48,13.2-2.74,22.8-3.62l8.15-.75c.36-.03.8-.06.93-.08l6.51-.93c3.19-.45,11.65-.65,9.84-.29l6.9-1.35c.03.43.07.9.05.99l-.19.86c-.16.71.37.82.77,1.1l.81.57-2.38,4.05c-.07.12-.21.41-.34.66l-.43.86.78.5c1.47-.68,2.66-.85,4.07-.59,2.68.49,9.28-.32,13.82-.32l11.86.02c1.05,0,2.99.2,3.65-.53,1.4-1.56,2.36-7.25,4.75-7.49,3.67-.38,5.66,3.08,5.32,3.8l-1.64,3.48c-.18.38.18,1.35.54,1.31.45-.05,1.97.17,2.22.59,1,1.71.87,5.36-.04,7.01l-6.94,12.69c-.59,1.07-1.1,2.33-1.62,3.52l-2.27,5.23-2.75,6.33c-.62,1.42-1.13,2.77-1.69,4.27l-1.31,3.52-1.54,4.37-4.99,14.11-2.94,7.59c-2.27,5.88-1.67,8.12-5.24,14.31-1.67,2.88-2.92,5.72-4.31,8.69l-10.69,22.73c-1.59,3.37-2.91,6.44-4.8,9.58l-5.29,8.79-8.58,13.91c-1.86,3.02-3.21,6.29-5.16,9.35l-3.68,5.78-3.44,6.14c-1.21,2.16-3.2,3.86-4.61,5.8l-3.82,5.24-2.46,3.56-2.99,4.45c-1.46,2.17-2.83,4.13-4.43,6.08-2.15,2.61-3.85,5.53-5.8,8.29-.65.92-1.32,1.75-1.81,2.81-1.43,3.1-.66-.26-2.72,3.08-4.26,6.89-8.56,13.56-13.82,19.65-4.05,4.68-7.95,9.03-12.63,12.97l-8.41,7.08-4.02,3.4c-1.89,1.6-4.19,2.71-6.02,4.57l-3.87,3.94-3.13,2.45c-5.29,4.14-6.75,5.93-12.24,10.27l-6.4,5.06-4.61,3.41c-1.47,1.09-3.04,2.36-4.5,3.34-5.17,3.44-7,5.76-12.58,8.38-1.77.83-3.23,1.72-4.9,2.65-1.31.73-3.5.55-4.84,1.79s-3.06,2.01-4.61,2.94l-13.5,8.08-10.05,6.36c-1.88,1.19-3.8,2.59-5.56,3.92l-9.44,7.11c-1.94,1.46-3.57,2.89-5.4,4.54-2.57,2.32-5.58,4.1-8.32,6.27-1.21.96-2.78,1.35-4.32,2.21l-6.21,3.46c-.26.15-1.31-.46-1.58-.59-1.28-.6.8,1.06-3.31,2.86l-3.7,1.63-4.12,1.52-5.64,1.94-6.83,2.77c-1.68.68-3.62.7-5.27,1.14l-4.4,1.18-13.74,3.69c-7.33,1.97-14.31,3.95-21.78,5.36-4.56.86-3.27,1.04-6.48-.27-.36-.15-.67.9-.91,1.46l-.54.9-2.35-1.74-5.69.85-7.18.88c-.02,4.58-.07,8.51-1.15,12.54-.5,1.88-.95,3.13-.87,5.31l11.98-2.05,16.07-3.81c5.97-1.41,11.95-2.09,17.96-2.03,2.18.02,4.39.44,6.55.29s4.8-.73,6.7-.1c2.47.81,4.33,1.23,6.89.77s5.06.86,7.51,1.1c2.94.29,5.58.61,8.39,1.15l6.37,1.23c3.42.66,6.51,2.18,9.81,3.15l9.26,2.73c1.92.57,3.41,1.59,5.29,2.23l6.99,2.4,8.03,3.63c2.11.95,5.01,1.43,6.92,2.54,2.76,1.6,5.03,2.88,8.17,3.53,2.64.54,5.07,2.23,7.59,3.21l7.18,2.79c3.41,1.33,6.38,3.05,9.08,5.64,1.03.38,3.21.7,4.11,1.19l6.6,3.58,11.52,6.39c1.22.68,2.52,2.19,3.45,2.71l4.9,2.79c5.9,3.36,4.84,2.92,10.45,6.8,1.95,1.35,3.66,2.86,5.89,4.1.75.41,1.4,1.08,2.14,1.73,2.08,1.85,5.05,3.04,7.34,4.67l6.43,4.6,3.69,2.79,3.98,3.06,3.99,3.02,4.02,3.01c4.34,3.25,8.46,6.43,12.99,9.47l4.8,3.23,8.59,6.38c2.25,1.67,4.34,3.54,6.5,5.4l13.21,11.38,5.71,5.24c.94.86,2.21,1.58,3.16,2.33l11.68,9.33c.33.27,3.24,2.78,3.78,3.27l12.95,11.47,5.57,6.82c1.03,1.26,2.29,2.06,3.34,3.22,3.41,3.77,8.18,10.38,10.72,14.69l2.4,4.06c.33.56.73,2.02,1.07,2.51l2.07,3.01c1.57,2.28,2.69,4.61,3.97,7.02l2.6,4.87c1.34,2.51,2.91,5.01,3.64,7.76l.92,3.49c1.98,7.48,1.55,9.47,4.65,16.87l1.91,4.56c.46,1.11.85,2.65,1.28,3.88,1.03,2.92.91,5.7.86,8.79-.03,2.2.14,4.22-.35,6.45-.23,1.04.13,2.98-.13,3.85l-1.13,3.85c-2.16,7.36.83,7.77-4.66,9.12-1.67.41-3.7-1.39-3.66-3.24.27-13.74-3.64-21.2-2.3-33.86.64-5.99-.98-12.57-3.48-17.89l-3.34-7.12c-4-8.52-9.66-14.2-17.23-19.54-2.91-2.05-5.29-4.62-7.69-7.22l-5.49-5.97-7.11-8.47c-2.18-2.6-4.15-5.52-6.87-7.79-.92-.77-2.44-.64-2.7-2.1-.13-.74-6.19-6.2-5.68-5.86l-6.95-4.69-13.29-12.94c-4.89-4.76-10.24-12.53-13.67-15.37-6.51-5.4-9.39-5.79-15.27-9.8-1.89-1.29-3.89-2.5-5.59-3.85-4.14-3.3-4.98-3.3-8.49-6.15l-17.56-14.29-7.92-5.27-4.15-2.67-9.12-5.51c-2.05-1.24-3.95-2.68-5.89-4.07l-17.79-12.75c-2.96-2.12-6.38-4.33-9.74-5.64l-19.53-7.62-4.06-1.52-4.63-1.55-11.3-4.07-10.15-4.65c-2.49-1.14-5.2-2.83-7.73-3.56l-10.54-3.06c-5.73-1.66-11.42-2.53-17.24-3.46l-12.64-2.02-9.33-1.65-14.12-2.76c-7.27-1.42-13.83-1.41-21.06-.53-2.9.35-5.77-.36-8.67.82l-5.04,2.04-5.08,1.56c-4.89,1.5-10.01,3.72-13.58,7.98-1.25,1.49-2.34,3.98-3.13,5.82-1.15,2.68-2.68,4.8-4.19,7.31-1.03,1.71-.35,6.07.48,7.88l2.06,4.52c3.09,6.78,1.64,6.36,4.44,13.18.67,1.63,3.08,2.89,4.59,3.76l4.53,2.6,3.71,2.34c3.48,2.19,6.6,5.34,9.56,8.39l6.81,7.02c1.19,1.22,2.57,2.53,3.61,3.8,1.61,1.96,3.04,3.92,4.86,5.71,5.22,5.11,9.5,10.79,14.29,16.23,1.94,2.2,3.83,4.12,5.47,6.6l2.76,4.19c1.94,2.93,4.17,5.43,6.35,8.07l3.01,3.65,2.81,3.11,3.96,4.42c2,2.22,3.92,4.52,6.07,6.49,2.8,2.57,4.94,5.45,7.22,8.48,2.71,3.61,5.43,7.06,7.78,11,.96,1.6,1.96,2.91,3.4,4.26-1.2-1.13,6.78,10.75,9.58,12.78l4.41,3.18,7.81,8.68c.52.58,1.88,1.47,2.24,2.09,2.42,4.26,2.3.3,6.21,5.97,1.09,1.58,2.63.18,2.95.48.52.49.84,1.61,1.17,3.01l3.27,2.06,4.9,3.65,8.13,5.81,6.79,4.77,10.36,7.15,6,4c-1.02-.68,4.28,1.89,3.79,1.68,5.81,2.5,4.72,2.6,10.38,4.8l14.01,5.43c1.18.46,2.74,1.11,3.87,1.68l6.52,3.33c6.01,3.06,7.72,3.16,13.11,6.53,1.46.69,3.83.94,5.48,1.54,3.66,1.31,7.29,1.57,11.07,2.46l5.3,1.24c4.42,1.04,8.66,1.53,13.03,2.3,1.58.28,3.76.49,5.2.14,3.94,1.99,12.67,2.51,16.27,2.21l-.1-1.19-.17-.87-.18-.92c-.02-.13.02-.8.03-.94l.1-.97c.05-.49.51-.84.96-.87l.91-.06,1.01-.05,1.01-.04c1.17-.05.58.06,1.7-.22l.77-.19.58-.16c.07-.02.88-.21.92-.15l2.39,3.74c.08.13.68.57.8.65l.67.41c.23,1.54,1.91,3.35,3.62,3.52l12.37,1.22c1.78.18,3.33.17,5.16.33l8.52.73c3.24.28,6.02.71,9.26,1.36,5.54,1.12,6.11-.9,10.18,2.05.8.58,2.78.04,4.03-.1l6.37-.7c2.1-.23,4.1-.95,6.12-1.39,5.74-1.26,19.72-3.7,24.67-1.98,1.12.39-.09,1.63,1.21,3.98l.6,1.09c.13.23-.38.87-.63.98-.09.04-.62.05-.81.05h-1c-.72,0-2.53.07-2.5.8,0,.11.08.46.12.69l.13.73c.01.08-.09.76-.15.82-.38.39-1.65.59-2.09.27s-1.57-1.01-1.96-.87l-2.34.87-8.43,1.01c-6.85.82-5.04-.63-10.19.88-1.77.52-16.17.71-17.44,1.04-2.53.64-3.66.62-6.37.21-4.02-.61-8.6.32-12.79.12l-3.87-.18c-2.89-.14-6.35.93-9.11.43l-8.53-1.52c-5.42-.97-10.37.13-15.63.37-2.79.13-6.75.47-9.21,1.22-.16.05-.91.05-.98,0l-.55-.38.3-.5.35-.57.38-.63.31-.68c.45-.99-.02-.65,1.03-.77l1.01-.12.9-.1c.09-.01.47-.41.53-.5l.41-.61.38-.56c.14-.21.84-.41,1.16-.3l.63.21.73.23c.6.19.88.13,1.43-.12l.67-.31c.41-.19,1.07-.54,1.64-.44l.88.16.97.24.41-.7c-4.9-1.94-4.86-1.53-9.81-2.67l-5.05-1.17-8.93-1.43-25.58-4.05c-3.25-.51-6.39-2.49-9.57-3.45l-5.62-1.7c-4.78-1.45-16.54-5.31-20.42-7.56-1.28-.74-2.55-1.14-3.94-1.75l-8.75-3.81c-4.87-2.12-17.31-9.86-21.99-13.26-2.28-1.65-4.3-3.17-6.71-4.51l-10.85-6.06c-3.45-1.93-6.34-4.93-9.54-7.41-1.45-1.13-2.82-2.79-4.25-4.08s-2.73-2.31-4.15-3.46l-4.13-3.35-8.58-6.85c-2.34-1.87-4.25-4.01-6.4-6.14-2.37-2.35-5.9-5.04-9.02-7.92l-3.69-3.4-9.52-9.06c-2.44-2.32-4.98-4.19-7.7-6.29l-3.94-3.05-5.81-4.67c-3.99-3.21-6.44-5.32-9.94-8.97l-4.17-4.35-4.2-4.29-4.13-4.48-12.97-13.43c-1.37-1.42-7.49-8.16-8.43-9.43l-8.33-11.27c-2.07-2.8-3.74-5.89-5.68-8.85l-4.73-7.2-2.79-4.28c-1.02-1.56-2.31-3.09-3.24-4.78l-6.52-11.85c-.33-.6-1.59-1.2-2.07-1.61l-4.57-3.9-3.02-2.5c-5.75-4.77-5.12-8.53-7.14-4.91-2.41,4.3-5.3,3.5-5.62,5.79-.1.73.73,1.93,1.31,2.62,2.88,3.4,5.57,6.68,8.11,10.31,1.41,2.02,3.16,3.95,4.37,6.04,2.39,4.12,4.58,7.83,7.31,11.77.68.98.85,3.18,1.35,4.21l1.49,3.03,4.65,9.91c.78,1.66,1.72,3.18,2.39,5.06,2.6,7.25,2.19,2.17,2.47,6.82.02.36,1.63.5,1.81.84l6.08,12.3c.8,1.62,1.55,2.61,1.88,4.31.13.7,1.31,1.8,1.54,2.44,1.3,3.68,2.48,8.15,4.19,11.71s3.36,7.09,4.54,10.83c.59,1.88,1.1,3.5,1.86,5.23l1.98,4.5,1.87,4.62c1.44,3.57,3.09,6.8,4.86,10.26,4.12,8.06,7.38,16.31,8.33,25.34,1.19,11.4,2.72,22.28,4.95,33.51,1.29,6.46,2.04,12.43,2.11,19.04l.1,9.48.16,6.53.1,4.52c.07,3.18,1.13,6.32,1.11,9.52l-.05,7.41c-.02,3.05-.52,5.64-1.01,8.58-1.44,8.66-2.88,16.96-5.01,25.46s-7.76,22.16-12.37,29.17c-2.84,4.33-4.48,9.28-6.73,13.93l-1.11,2.28-3.63,7.84-1.39,2.68-2.64,4.99c-.71,1.35-1.66,2.94-2.7,4.32l-1.37,1.82c-1.43,1.91-2.52,3.8-3.96,5.6l-2.08,2.6c-.34.43-1.26,1.03-1.82,1.43l-5.95,4.12ZM524.4,486.26l4.37,1.49c1.61.55,3.65.82,5.01,1.52,1.24.64,2.36,2.34,3.76,2.6,4.36.81,4.86,4.71,6.08,3.08l.86-1.14,3.31-4.44,4.52-6.56c.89-1.29,1.71-2.62,2.7-3.77l2.81-3.24c1.62-1.88,2.68-4.77,4.33-6.47.55-.57,1.08-.96,1.25-1.38,1-2.59,1.99-4.94,3.36-7.28,1.24-2.09,1.93-4.13,2.85-6.32l2.96-7c2.22-5.24,4.74-10.31,6.46-15.74.64-2.01,1.14-3.45,2.24-5.35.59-1.71.94-4.18,1.3-6.11l1.7-9.23.89-4.57c.22-1.13-.17-3.26.24-4.54.64-1.98,1.31-4.23,1.01-6.07l-.29-1.79c-.04-.27.85-.67,1.18-.9l1.4-9.35,1.68-12.26.19-6.41c.08-2.79.3-5.2.2-7.98-.26-6.77.96-6.52.33-15.02-.35-4.79-.16-13.98-.33-15.41l-.91-7.53c-.2-1.63-.58-3.43-.63-5.06l-.5-16.92c-.07-2.31-.51-4.68-.46-7.09.14-6.43-.75-7.04-1.07-13.37l-.18-3.6-.22-4.03c-.08-1.4-.29-2.71-.43-4.15l-.87-9.36c-.48-5.11-1.22-9.99-.54-15.17-1.9-2.89-1.27-6.15-1.3-9.52l-.07-8.3c-.03-2.81-.27-5.6-.39-8.37l-.5-11.09c-.16-3.47.25-6.62.05-10l-.72-12.51c-.83-14.34-3.21-22.42-3.66-37.56l-.24-8.06-.72-4.07-.69-10.92c-.14-2.18-1.67-15.11-1.97-15.81l-7.65-18.04c-.75-1.77-1.36-2.99-2.34-4.72-.66-1.16-1.21-3.25-1.8-4.63l-2.12-4.99c-1.35-3.18-3.01-5.76-4.72-8.73-1.29-2.25-1.43-5.65-3.04-8.14l-5.11-7.86c-.78-1.2-1.8-2.59-2.69-3.71l-3.92-4.88-1.9,2.12c-1.55,1.73-2.77,3.53-3.55,5.84-.47,1.4-1.64,2.45-2.39,3.69-.68,1.14-1.19,3.24-1.81,4.63-2.02,4.55-2.96,5.56-5.02,10.02-1.23,2.66-2.35,5.32-3.42,8.03-3.81,9.7-4.55,7.31-8.49,15.45l-2.27,4.69c-.87,1.8-1.77,3.5-2.83,5.26l-3.54,5.87c-2.61,4.32-5.01,8.55-7.52,13.03l-2.36,4.2-8.68,14.34c-1.07,1.76-1.91,3.37-2.97,5.11l-5.84,9.58-3.2,5.32-4.69,7.75-6.25,11.19-6.68,12.94-4.53,7.93c-.69,1.21-1.31,2.9-1.8,4.26l-3.48,9.57c-.91,2.5-1.02,5.6-1.73,8.3-.66,2.49-1.21,4.74-1.53,7.41-.14,1.15-.88,2.55-1.08,3.57-.64,3.16-.56,6.49-1.36,9.53-.45,1.69-.84,3.19-1.15,4.94l-1.14,6.35c-.48,2.65-1.37,4.95-1.63,7.49s-.47,5.1-.93,7.49c-.35,1.8-.65,3.32-.71,5.21l-.29,9.83c-.1,3.41-.45,6.61-.12,9.95l.94,9.6.84,8.15c.68,6.68.29,7.23,1.38,14.34l1.09,7.04,1.64,8.47c.18.94.97,2.5,1.15,3.71l.85,5.64c.01.08,4.23,13.15,4.58,14.15,1.03,3.02,2.02,5.78,3.35,8.65l2.07,4.48c1.2,2.59,2.83,5.76,4.17,8.09.16,1.42.23,3.99.61,5.44l1.54,5.85c.86,3.27,1.16,6.18,2.01,9.43,1.84,6.99,3.65,13.74,3.97,21.04.06,1.43.57,2.88.89,4.24l1.8,7.69c.39,1.66.73,3.09,1.5,4.66l2.5,5.07,1.22,3.8c2.88,8.93,9.13,16.22,14.35,24.04l5.72,8.56c1.79,2.68,4.43,5.58,4.8,8.97.04.33-.18,1.29-.19,1.62,0,.25.8.56.96.37,5.13-6.28,18.48-8.11,24.2-6.16ZM571.65,85.7c1.63-3.58-.58-6.62-.89-9.86-.39-4.15-1.64-7.47-3.23-11.36l-2.49-6.06-5.25-9.73-4.19-6.86c-.59-.97-2.88-2.07-3.98-2.02-.48.02-.92,1.43-.62,1.81,5.92,7.67,5.35,8.55,8.95,16.8l2.72,6.23,1.87,4.68c.86,2.16,1.76,4.17,2.96,6.19,1.88,3.17,2.95,6.66,4.16,10.19ZM485.04,130.72c-.24.39,6.74-11.43,5.81-9.46l1.75-3.69c-.9,1.91,6.06-10.4,5.7-9.75l3.92-7.09,4.85-8.54c1.26-2.22,2.25-4.75,3.74-6.97s6.35-12.18,7.32-15.25l1.87-2c1.51-6.65,5.88-10.84,6.76-16.38-2.72,2.14-3.36,4.78-4.63,7.56-.4.89-1.99,2.16-2.47,2.96-2.35,3.92-4.62,7.57-7.36,11.27-2.08,2.8-3.63,5.63-5.27,8.76-4.05,7.75-.74,1.29-5.44,8.07-7.26,10.49-13.14,21.35-18.54,32.87l-7.5,16-3.92,9.26-3.51,7.38c-1.14.91-1.79,2.66-.61,4.01,2.19-4.11,4.03-7.75,6.4-11.41l4.32-6.66,2.68-4.32,4.12-6.63ZM599.59,417.93c.65-2.01,1.15-4.22,2.34-6.03.83-1.26,1.02-2.57.56-3.76l1.89-5.71c.39-1.19.78-2.22,1.48-3.07-.47-2.07-.4-4.6.73-6.77s1.35-4.53,1.92-6.9l2.1-8.79c.23-.97.66-2.13.81-3.17l.78-5.43c.64-4.44,1.09-10.13,1.04-14.67l-.06-4.79.15-6.47-.75-7.87.69-10.68c.36-5.53.62-8.96.57-14.38-.02-2.48.84-5.39.59-7.88l-.61-6.12c-.62-6.25-4.52-11.47-4.57-17.25-2.31-3.79-3.38-7.02-4.94-11.07-2.45-6.37-1.51-7.92-2.41-14.97l-.6-4.68c-.39-3.08-1.36-6.01-.79-9.4l-2.28-.92,1.66-2.26-.45-5.39-.68-8.01-.49-9.5-1-14.5c-.13-1.91-.11-3.8-.4-5.7l-2.16-14.34c-.29-1.94-.46-3.93-.62-6.02-.15-1.92-2.8-5.36-3.91-12.41l-.81-5.14c-1.92-12.17-1.89-5.06-3.6-13.75l-1.01-5.13c-.85-4.29-.7-7.27-1.03-7.91-.14-.28-1.16-.11-1.17.2,0,.21-.03.94-.02,1.15l.28,7.06c.16,4.06.54,11.24,1.22,14.85,1.04,5.55,1.22,11.08,1.8,16.73l.45,4.36.63,7.05.89,7.01.77,33.47.22,5.07c.15,3.44.32,6.99-.06,10.39-.22,1.99.13,3.38.34,5.28l1.57,14.01c.56,4.99-.84,10.94.8,15.22l1.12,2.92.04,8.05.66,17.65c.08,2.2-.02,4.46.14,6.63l1,13.35c.4,5.34,1.32,10.44,1.18,16l-.17,7,.43,4.83-.26,5.83-.33,7.5-.12,8.68c-.05,3.51-.33,7.08-.97,10.52l-1.03,5.52-1.49,7.96c-.29,1.54-.53,2.97-.8,4.57l-2.65,15.63-.42,3.09-1.6,9.11c-.3,1.71-1.26,3.3-1.71,4.8-.42,1.41-.45,3.21-1.15,4.7l-3.49,7.44c-1.47,3.14-1.48,6.21-3.56,9.17-.92,1.31-1.33,3.7-1.57,5.68l3.1-3.61c.27-.31,1.26-.83,1.68-1.05,1.68-3.71,5.16-6.99,7.13-10.56,1.45-2.62,2.66-5.05,4.23-7.45l2.75-4.25,2.13-3.43c.47-.76,3.8-7.03,3.88-7.28ZM862.04,178.02c1.67-.26,3.58-.11,5.08-.74,2.33-.98,4.39-1.43,6.98-1.2,1.47.13,3.06-.69,4.48-.75l14.46-.69,5.98-.59c.41-.04,1.27-.52,1.48-.84s-.8-1.03-1.19-1.17c-5.35-2.05-12.97,1.05-20.3,1.15s-19.84,1.59-27.44,3.36c-2,.46-3.53.37-5.08,2.01-.73.77-2.49.36-2.66,2.34l18.21-2.86ZM577.76,525.57c.7,1.43,3.78,2.12,5.11,1.97,2.42-.27,4.8-.16,7.11-.28l8.31-.43c2.94-.15,6.07-.43,8.95-.26,5.44.3,10.21-.49,15.5-2.18l5.36-1.71c2.41-.77,4.81-1.7,7.22-2.19,1.36-.28,2.3-.55,3.52-1l10.77-3.99c2.05-.76,4.19-1.59,6.24-2.62l5.25-2.64c4.53-2.28,9.3-3.53,13.88-5.88l6.23-3.19c1.67-.85,3.51-1.81,5.05-2.85l10.73-7.25c2.1-1.42,4.34-2.76,6.3-4.26l4.27-3.28c4.54-3.48,5.81-4.93,10.13-8.4.92-.74,1.52-2.11,2.98-2.48.71-.18,1.42-1.64,1.98-2.08l10.77-8.65c1.39-1.11,2.99-2.51,4.17-3.73l3.7-3.8,8.31-8.27,6.34-6.6c2.85-2.96,11.46-9.39,12.42-10.6.8-1.03,1.9-2.34,2.8-3.17l5.51-5.07,6.86-6.58,4.3-4.24c.94-.93,1.76-1.88,2.67-2.87l2.64-2.86c1.53-1.65,3.45-2.8,4.96-4.57l3.87-4.52c1.52-1.77,3.12-3.17,4.64-4.91l2.64-3,4.29-4.06c1.36-1.29,2.53-2.95,3.88-4.09l8.22-6.91c1.02-.86,1.82-1.73,2.7-2.79l3.39-4.08c.82-.99,1.94-2.31,2.79-3.13l3.65-3.49c1.05-1,1.53-2.33,1.59-3.86,1.33.26,2.45-.4,3.42-1.53,1.37-1.6,2.66-2.95,4.09-4.45,3.92-4.13,2.69-3.49,6.3-7.63,4.04-4.63,7.47-9.59,11.09-14.46l5.05-6.78,4.78-6.86c2.6-3.74,4.87-7.21,8.11-10.51,1.19-1.21,1.81-3.7,2.69-5.24l3.13-2.34c.05-2.1,1.22-4.08,2.73-5.2.53-.39,1.07-1.75,1.4-2.31l3.78-6.26c3.73-6.18,5.4-7.09,7.28-13.2,2.71-8.79,6.08-14.29,8.05-21.24.4-1.42.99-2.46,1.67-3.76,1.7-3.24,3.11-6.68,4.58-10.06l4.97-11.39c2.01-4.6,2.91-9.63,4.36-14.47l2.18-7.28,2.04-6.86c.43-1.45,1.01-2.88,1.55-4.28l2.27-5.92c.57-1.48.85-2.83.74-4.75l-8.05.37c-6.39.3-12.96.44-19.23-.17-2.07-.2-2.61-.23-4.59.27-4.19,1.07-8.8,1.52-13.23,1.88l-8.43.69c-4.32.36-8.2.78-12.53-.02-1.29-.24-2.81.44-3.66,1.23-2.87-.04-5.42.41-8.37,1.13-4.99,1.22-7.56.34-8.89,2.77-5.15-.45-4.27.2-10.89,2.02l-6.36,1.75c-3.04.84-8.61,3.17-12.98,4.65-1.49.5-3.43,2.11-5.02,2.82l-4.2,1.88c-2.12.95-10.57,5.82-12.66,7.17l-7.28,4.68c-.72.46-1.91.98-2.55,1.45l-6.44,4.71c-1.98,1.45-3.94,2.79-5.99,4.11-.9.58-2.17,2.33-3.17,3.1l-3.77,2.88c-1.35,1.04-1.65,2.84-3.62,3.28-1.39.31-2.36,1.68-3.4,2.51-4.56,3.64-7.32,5.13-12.28,8.74-5.72,4.15-.07,1.52-6.41,5.57-1.7,1.08-2.55,2.32-3.82,3.82l-3.7,4.37c-1.49,1.76-4.63,3.01-5.88,4.91-1.56,2.37-2.74,4.35-4.85,6.2l-6.94,6.07c-1.2,1.05-3.99,1.65-4.89,2.87.47,1.56.08,2.11-.8,2.97l-7.87,7.65c-1.76,3.15-3.61,4.92-6.39,8.68-1.79,2.42-4.11,4.59-5.74,7.11l-2,3.1c-1.45,2.25-3.56,3.65-5.15,6l-2.78,4.1c-1.14,1.68-2.28,3.06-3.37,4.7-2.1,3.13-4.31,6.25-6.88,8.94-.96,1-1.3,1.58-1.97,2.89-1.42,2.73-2.98,5.47-4.71,8.16l-2.7,4.22-3.62,5.49c-1.32,2-2.49,3.72-3.41,6.13l-2.4,6.31c-2.07-.08-1.79,1.62-2.46,2.74l-5.46,9.02c-.78,1.29-1.08,2.89-1.82,4.29l-3.57,6.69-1.92,4.62c-.75,1.81-2.12,3.97-3.12,5.52l-.1,1.93c-.02.44-1.39.91-1.55,1.44-.88,2.91-2.19,6.66-3.95,9.37l-.66,2.44c-2.68,4.12-4.7,8.49-6.3,13.01-1.84,2.82-3.43,5.66-5.01,8.61l-4.94,9.19-2.22,3.76-2.91,5.16c-.92,1.64-4.1,5.6-4.53,7.31-.72,2.89-2.43,5.07-4.46,6.93-1.32,2.95-2.87,6.09-4.45,8.9l-2.82,5.04c-2.24,4.01-4.89,7.71-6.18,12.32-1.51,2.83-2.59,5.68-2.99,9.02-.15,1.21-1.17,2.69-1.52,3.74l-1.8,5.35c-.93,2.76-1.55,13.22.33,17.05ZM806.85,191.6c-2.55-.03-3.41,1.69-4.88,2.81-1.18.89-3.53.84-3.22,3.14,1.77.12,7.9-3.72,8.11-5.95ZM770.18,218.67l4.84-4.22c1.19-1.04,5.89-4.59,7.75-4.36.8-.68,2.17-2.62,3.11-3.12,1.9-1,12.9-7.09,10.69-9.49l-11.49,7.66-8.33,6.17-3.29,3.06c.79-.74-10.99,7.84-7.7,7.85,1.55-1.07,2.94-2.27,4.41-3.55ZM459.11,547.8c.47-.19,1.27-1.63.96-2l-1.29-1.54c-2.17-2.59-1.03-6.18-1.33-9.21-.46-4.65-.67-8.92-.65-13.51.01-3.25-1.15-15.22-2.17-18.36-.18-.55-2.95-5.3-3.67-6.25-.86-1.13-1.24-2.09-1.98-3.44-2.16-3.95-5.13-7.52-7.63-11.31l-3.55-5.39c-.81-1.24-1.76-3.05-2.44-4.38l-2.23-4.42-5.76-10.36c-1.61-2.89-3.28-5.64-5.23-8.28-1.27-1.72-2.14-3.55-3.16-5.34l-5.59-9.86c-.99-1.74-2.06-3.16-3.1-4.91l-4.13-6.9c-2.9-4.84-6.08-9.36-8.36-14.65l-1.6-3.72-2.36-4.15c-1.45-2.55-6.02-10.47-7.86-11.75l-5.35-3.71c-1.67-1.15-3.13-2.38-4.77-3.72s-4.02-2.27-5.61-3.87c-1.68-1.7-2.84-1.62-6.74-4.3-4.53-3.11-4.01-1.83-9.44-5.61l-8.83-6.14c-1.67-1.16-4.32-2.04-5.69-3.18-1.46-1.22-2.6-2.57-4.18-3.6l-7.76-5.08-11.66-6.92-5.75-3.72-4.7-2.34-6.98-4.1c-1.15-.68-2.61-1.88-4.02-2.27-2.41-.67-4.12-1.59-6.2-2.81l-6.3-3.71c-2.72-1.6-6.17-2.41-9.11-3.78l-3.85-1.8-3.28-1.67-16.64-7.04c-2.78-1.18-5.59-2.06-8.46-2.88l-1.72-1.24-7.85-3.04c-.96-.37-20.42-5.91-22.83-6.67l-4.93-1.55-4.98-1.86-6.26-2.34-12.24-4.41c-5.23-1.89-11.35-2.85-17.15-4.62-5.45-1.66-10.78-3.2-16.49-3.82-4.33-1.82-8.76-2.87-13.39-3.8l-9.27-1.86c-6.08-1.22-11.99-2.02-18.22-1.5-5.61.47-10.38,1.83-15.84,3.22l-4.37,1.11c-7.9,2.01-7.21,7.1-10.73,7.53-1.87-2.26-2.61-6.28-1.98-9.04,1.47-.24,3.11-1.91,4.37-2.31,2.83-.91,5.59-1.22,8.33-2.38-2.03-2.01-3.68-.83-5.75-.48-4.75.8-5.62-.73-10.42,1.67-2.2,1.1-1.25,3.6-.92,5.38.3,1.62,2.32,13.11,4.79,12.32s3.3-1.79,4.73-1.56c.65.1,1.31,1.31,1.75,2.02l4.83,7.8c.78,1.26,1.1,1.93,1.5,3.77.28,1.3,1.95,3.11,2.72,4.52,3.46,6.33,10.83,17.12,15.41,22.58,2.96,3.52,5.09,7.9,7.77,11.77l6.5,9.38,4.36,6.11,3.75,5.25c.91,1.28,2.01,2.39,3.04,3.58,1.91,2.21,3.4,5.21,5.7,7.22s3.87,4.08,6.02,6.04l6.79,6.19,4.09,3.94,5.59,5.31c1.79,1.71,3.46,3.59,5.02,5.45l2.29,2.72,10.72,12.88c-1.01-1.22,9.44,10.42,8.32,9.25l5.02,5.2c.45,1.02.7,2.07,1.56,2.54,2.51,1.39,3.96,3.68,5.9,5.64l5.51,5.59,2.3,2.69c1.04,1.22,2.43,2.18,3.53,3.44,1.77,2.02,3.45,3.76,5.33,5.62l3.52,3.49,2.93,3.14,7,6.51,4.07,4.46,8.25,8.32c1.65,1.66,3.49,3.04,5.29,4.57l7.84,6.69,4.23,3.31c.91.71,2.62,2.25,3.64,2.65l9.32,3.68,6.21,2.39c4.95,1.91,9.36,4.46,14.09,6.96,3.47,1.83,6.64,3.96,10.23,5.75l4.34,2.17c1.65.83,2.99,1.81,4.59,2.53,1.32.59,2.6,1,3.97,1.6l8.22,3.56c1.2.52,2.75.63,3.87,1.22,3.26,1.73,6.01,1.78,10.39,3.21l10.93,3.56c8.66,2.82,2.26,1.12,9.73,2.46,2.98.53,5.79,1.16,8.98,1.4l14.94,1.17,6.4.16c7.7.19,15.4-.38,23.22,1.21l8.24,1.68,3.8.87c2.61.59,4.99,1.26,7.51,1.87l7,1.69,7.88,1.86,8.29,1.7,3.1.57c1.2.22,3.19.77,4.21.35ZM374.58,373.3c-.3-1.98-1.49-3.07-2.94-4.08-1.67-1.17-7.35-8.86-11.64-12.64-1.16-1.02-1.69-1.36-2.55-2.65-3.92-5.84-5.44-5.62-8.64-8.75l-3.53-3.45-3.48-3.03c-4.78-4.16-9.68-7.98-14.79-11.76l-3.98-2.94-6.37-4.68-3.84-2.62-7.08-4.38-4.89-2.76c-2.75-1.55-5.31-3.01-8.05-4.42l-7.3-3.75-3.67-1.86-10.8-5.65c-1.48-.77-3.44-1.64-5.09-2.3l-11.88-4.73c-3.86-1.54-7.65-2.67-11.69-3.36-2.72-.47-5.23-1.27-7.88-1.84l-17-3.62c-1.83-.39-3.79-.58-5.6-.85l-8.29-1.26-9.74-1.88c-2.96-.57-14.98-2.22-18.31-2.56l-10.57-1.07-10.97-1.51c-4.51-.62-8.53-1.16-13.21-1.12,1.38.81,2.8,1.51,3.9,1.82l5.97,1.65,4.81.79,8.88,2.51,9.54,2.6c5.07,1.38,10,2.9,14.82,4.68l6.64,2.45,5.72,2.2c4.66,1.79,9.35,3.14,14.21,4.25,1.08.59,3.03,2.61,4.2,2.42,2.71-.43,4.56.47,7,1.29l10.9,3.71,6.33,2.68,14.34,5.26c1.58.58,3.19,1.86,4.81,2.56l11.54,4.99,14.11,7.03,10.27,5.04c4.04,1.98,7.47,4.63,11.39,6.68l5.6,2.93c1.75.92,3.17,2.22,4.99,3.09l2.66,1.26c-1.98-.93,10.14,6.68,8.82,5.71l4.3,3.15,6.87,4.66c3.6,2.44,6.81,5.29,10.75,7.15.85.4,1.59,1.08,2.34,1.57l9.08,6.04,4.35,2.47,4.66,2.88ZM223.51,476.3l3.91,1.93c2.06,1.02,4.01,1.93,6.13,2.81l1.12.46c.16.06.42-.56.35-.71s-.41-.73-.57-.87l-7.24-6.59-5.37-5.68-7.98-8.03c-.66-.67-1.61-1.48-2.34-2.13-2.51-2.23-4.58-4.59-6.91-7.01-1.11-1.15-2.57-2.14-3.61-3.46-5.74-7.31-5.16-5.17-11.27-11.73l-5.24-5.62-6.57-7.23c-.54-.59-1.2-2.11-1.55-2.88-3.62-3.19-7.02-7.08-10-10.93-1.2-1.55-2.21-2.62-3.29-4.43-.78-1.31-2.64-2.69-3.78-3.93l-3.13-3.4c-2.24-2.43-4.49-4.48-6.84-6.71l-9.31-8.82c-3.16-2.99-6.23-5.99-9.31-9.13l-3.93-4.01c-1.25-1.27-2.1-2.45-3.11-3.94l-2.66-3.89-3.52-4.84-11.46-15.95c-1.37-1.91-2.16-3.97-3.93-5.8-.54-.56-.81-1.91-1.18-2.47l-1.63-2.18-6.38-8.59-3.28-4.77c-1.51-2.2-4.46-8.13-5.85-11.06-1.96-4.12-4.97-7.68-7.34-11.57-1.42-2.32-2.49-4.61-4.1-6.76-.57,4.5,1.75,7.78,3.09,11.64l2.62,7.55c1,2.87,2.24,5.16,3.15,7.94l3.09,5.05,3.71,7.01c2.3,4.34,5.27,8.31,7.97,12.52l4.7,7.32,3.95,6.32c1.07,1.71,2.55,3.43,3.64,5.63,1.41,2.84,2.92,5.73,4.62,8.37l3.29,5.12,2.67,4.92,4.61,7.76,3.13,4.95c.91,1.43,2.02,2.91,3.06,4.29l8.81,11.72c.79,1.05,1.95,1.77,2.92,2.66,1.03.96,10.52,10.8,10.96,11.33,1.72,2.07,3.21,3.77,5.41,5.39,3.89,2.86,1.83,2.64,5.28,5.6,4.75,4.07,1.74,2.51,5.95,6.48l7.19,6.79,4.32,4.17c1,.97,1.93,1.59,3.32,2.43,1.55.94,2.95,3.17,4.45,4.21l4.18,2.91,10.1,7.03c6.91,4.8,4.45,2.37,9.73,5.76l4.28,2.75c2.34,1.5,4.39,2.99,6.95,4.25ZM734.17,468.57l15.31-9.44c2.74-1.69,5.59-3.14,8.12-5.09,4.59-3.54,5.64-3.23,11.73-7.72l3.71-2.74,5.57-4.11c2.07-1.53,15.53-13.13,17.36-15.05.91-.96,1.34-1.6,2.52-2.43,7.39-5.25,6.72-6.65,12.76-10.74,1.34-.91,7.22-6.59,7.08-8.49l2.41-1.41,3.86-4.76c1.77-2.17,3.41-4.6,5.05-6.92l4.98-7.06,5.4-8.06,4.54-6.94,6.04-8.73c1.37-1.99,3.03-4.19,4.65-6.11l4.85-5.73,1.79-3.29,4.24-5.19c1.22-1.5,2.83-2.85,3.87-4.58l12.03-20.04c.23-.39,4.72-7.09,4.48-7.95-2.2,2.02-3.66,4.03-5.28,6.35l-2.68,3.82-5.17,7.35-2.51,3.52c-1.85,2.6-3.95,4.93-5.83,7.55l-4.8,6.71c-1.94,2.71-4.39,5.05-6.17,7.83-.95,1.49-1.8,2.27-3.02,3.45-4.94,4.79-9.48,9.81-14.11,14.92-1.22,1.34-2.34,2.17-3.83,3.31-1.4,1.08-2.31,3.72-4.04,4.65-1.25.67-2.24,1.45-3.21,2.42l-4.51,4.49-5.15,5.37-3.92,4.07-6.57,6.98-5.05,5.37-7.02,6.86-7.57,7.67c-.94.95-1.79,1.59-2.99,2.48-1.51,1.12-2.89,3.25-4.33,4.52l-2.95,2.59-3.67,3.32c-1.49,1.35-2.64,2.66-4.02,4.11-3.45,3.62-8.98,7.51-11.95,11.01-1.93,2.27-4,3.9-6.23,5.73-1.2.98-2.34,2.55-3.46,3.65l-9.02,8.86c-1.13,1.11-4.19,1.15-3.31,3.62ZM571.34,506.16c.99-1.84,1.87-3.43,2.33-4.84l2.65-8.11c.62-1.89,2.04-3.71,2.7-5.3,1.57-3.78,2.65-7.07,5.4-9.97,1.47-5.54,1.98-4.68,5.14-10.3l3.47-6.15,2.26-4.2,2.32-3.83c.76-1.26,1.77-2.54,2.67-3.84,2.37-3.45-.05-1.38,3.71-7.15l2.02-3.1c1.55-2.38,3.1-4.54,4.42-7.03l2.38-4.49,1.53-3.37c1.63-3.57,3-6.73,5.05-10.07,1.05-1.71,1.43-4.42,2.39-6.19,1.12-2.07,2.14-3.91,3.09-5.95l4.44-9.53,3.88-8.39,2.26-4.84,3.59-6.31,6.53-12.12,4.38-7.56,3.04-5.39c1.01-1.79,1.9-3.39,3.02-5.14l1.08-2.21,1.93-1.06c.4-.22.29-1.48.08-1.88-1.74-.31-2.39,1.36-3.15,2.59l-5.73,9.28-3.19,5.81-2.6,3.73-2.22,3.98c-.94,1.68-2.16,3.07-3.28,4.66l-7.01,10.01-2.99,4.53c-2.28,3.46-4.48,6.89-6.53,10.51l-1.78,3.14c-.71,1.26-1.94,3.17-2.76,4.07-.26.28-1.72.64-1.49.93l.91,1.14-2.28,3.67-3.39,5.12c-1.12,1.69-1.61,3.89-3.13,5.5s-2.43,3.32-3.39,5.24l-5.64,11.28-1.82,3.73-5.38,10.69c-.69,1.36-1.23,2.71-1.87,4.16l-1.5,3.46c-1.1,2.54-2.04,4.91-3.01,7.55-.36.99-1.06,2.13-1.51,3.22l-1.82,4.38-2.72,6.81c-2.35,5.89-3.41,7.2-5.05,12.88-1.23,4.26-2.39,8.33-2.54,12.79-.37,1.12-1.19,2.4-.9,3.42ZM458.21,406.34c.59-1.83.19-3.62-.38-5.57-1.03-3.57-2-7.19-2.63-10.87-.47-2.77-.82-5.38-1.99-7.96-2.01-4.41-3.92-8.53-6.28-12.89-.41,5.64,1.64,8.5,3.54,15.13.49,1.72,1.65,3.72,2.36,5.59,2.45,6.44-1.03,2.48,2.83,9.26,2.57,4.51-1.66.17,2.56,7.31ZM450.54,483.73c-.22-3.71-1.16-5.97-2.12-8.62-2.56-1.34-.56-3.42-4.35-10.06-3.27-5.73-2.73-6.19-7.01-13.07l-3.86-6.21c-2.93-4.71-6.66-8.62-9.56-13.35l-1.52-2.49-4.35-5.53-3.21-4.41-2.59-3.52c-3.06-4.16-1.58-4.51-6.94-8.37l1.34,2.41,3.16,5.87c.75,1.4,1.37,2.95,2.07,4.57.46,1.06,1.7,2.16,2.25,3.04l3.31,5.25,3.07,6.01,5.15,7.72c1.59,2.37,2.85,4.88,4.07,7.41,1.04,2.16,2.29,3.41,3.78,5.32,1.06,1.36,1.64,4.12,2.69,5.77,3.3,5.23,1.02,3.75,4.09,7.94,4.51,6.16,5.78,10.9,10.53,14.32ZM560.88,504.35l4.21,3.61c2.17-7.68.99-7.5,3.95-16.37l1.65-4.97c.89-2.67,2.3-4.96,3.2-7.61l2.33-6.82c.8-2.34,2.25-4.45,3.18-6.67l3-7.14,2.72-6.13c.95-2.13.42-4.55,3.86-5.72-2.92-1.08-3.47,1.04-4.59,2.48l-7.39,9.53c-.86,1.11-1.64,2.47-2.39,3.69l-2.27,3.72c-4.86,4.78-.63,1.11-4.82,6.56l-5.23,6.81-7.55,10.06c-.77,1.03-1.53,2.68-2.23,3.53-1.18,1.43-2.57,2.96-3.3,4.22,2.63,1.2,3.79,2.46,5.57,3.43,2.18,1.19,4.14,2.11,6.1,3.79ZM495,496.37c-3.42-3.69-2.38-3.45-4.44-8.83-1.78-4.65-4.56-8.62-7.16-12.84-.43-.7-.92-2.46-1.7-2.38-.56.06-.98,1.83-.6,2.25l1.33,1.46.94,5.24c.15.83,1.33,2.22,1.19,3.12-.33,2.11.72,2.86,1.58,4.33,2.07,3.53,4.56,7.58,8.86,7.64ZM512.7,494.77c-.25-1.02,25.23.98,20.46-1.06.14.06-8.01-2.15-6.94-1.98l-4.86-.76c-1.6-.25-1.86-.76-3.52-.27-1.91.56-4.65.03-6.46,1.14-3.29,2.01-6.95,4.14-10.16,5.79-.41.21-.77,1.39-.39,1.39.29,0,1.42-.08,1.71-.29,2.5-1.81,6.45-3.03,10.17-3.95ZM539.14,500.3c-3.67-.26-6.82-.34-10.38-.23,2.63,3.01,7.54,3.76,10.38.23ZM521.7,597.12c1.63-2-2.45-1.77-2.77-6.01l2.72-1.16-.03-4.55c2.36-.22,4.59,1.36,5.15,3.71s2.08,3.45,3.88,4.85l1.88,1.47c2.24-.91,4.93-2.73,5.99-4.92-.8-1.36-2.54-3.21-1.7-4.79s3.01-2.5,4.5-3.45c.6-.38,1.72-2.21,2.51-1.55.73.61.61,2.75.99,3.6.76,1.71,2.69-.22,3.49-.98l5.45-5.14c-1.24-1.12-2.07-1.91-1.98-2.87.06-.69,1.07-1.83,1.72-2.22l6.71-3.98c1.24-.74,2.9-3.11,2.16-4.44-.53-.96-1.17-1.84-1.3-2.47-.36-1.68,2.59-3.38,4.14-4.11.96-1.25,1.68-4.21,2.2-5.88,1.33-4.27-1.01-13.69-5.39-16.53l1.11-5.07-3.45-7.74-2.16-3.75c-2.36-4.1-5.27-8.59-10.97-8.54-1.39.01-4.22-1.8-5.19-.47-.81,1.18-1.35,2.91-2.36,3.41s-3.11.71-4.02.13l-.66-5.63c-5.68-3.29-13.97-3.71-20.77-3.97-1.89-.07-4.17.8-6.07,1.06-1.75.24-3.05.74-4.58,1.46l-5.73,2.71c-1.41.67-2.41,1.28-3.42,2.41l-5.02,5.58c-2.25,2.5-3.41,6.64-3.95,10.01l-.67,4.2c-.08.51-.09,1.17.08,1.47s1.56,0,1.84-.28c2.92-2.95,7.48-5.92,11.41-7.65,2.81-1.23,5.01-1.55,8.12-1.65,7.18-.24,3.49-1.49,7.86-1.99,2.02-.23,7.33.28,7.79,2.12-1.22.88-7.84,3.1-8.31,2.29-8.53,3.58-4.67.34-13.53,4.49-5.19,2.44-9.67,6.43-10.21,6.74-1.66.93-3.27,2.07-4.51,3.52-2.57,3.01-5.22,5.7-6.72,9.38-1.02,2.5-2.76,5-3.37,7.49-.73,2.99-1.13,6.02-2.02,8.69-.83,2.49-1.15,4,.57,6.24,1.04,1.36,2.12,3.34,3.45,4.48s2.15,2.09,3.33,3.3,3.73,2.05,5.16,3.24c2.52,2.08,5.37,3.41,8.35,4.72l3.75-1.99c1.12-.59,2.3-1.03,3.75-1.06l-.28,6.05c-.04.81,1.73,1.36,2.64,1.52,3.38.62,6.32,1.27,9.58,2.13l8.84,2.34ZM302.68,522.22c.72.4,3.88-.35-6.38-4.94-1.49-.67-2.27-1.22-3.53-2.11-3.63-2.54-7.7-4.29-11.58-6.49-1.63-.92-3.27-1.71-5.03-2.24-.1.84-.14,1.62.24,1.75.28.1,1.41.23,1.65.41l3.58,2.8c.78.61,1.69.87,2.84,1.24,2.52.81,4.85,2.89,7.27,3.93,1.26.54,2.35.88,3.6,1.57l7.33,4.06ZM476.43,542.17l3.92-4.85c.73-.91,1.52-1.65,2.65-2.74l-2.36-5.02c-.13-.28-.67-.79-.88-.92-.88-.59-4.9,7.83-5.32,9.21-.77,2.53-1.8,5.87-2.7,8.06-.15.36.26,1.75.47,1.48l.78-.96,3.45-4.26ZM441.28,550.28l-9.5-2.62-11.99-3.12c-1.75-.46-3.4-1.03-5.21-1.24l-7.65-.89c-1-.12-2.67-1.09-3.83-1.12l-4.14-.08-9.5-.04-4.91-.55-18.02-.12c2.61,1.94,15.99,3.06,18.96,3.16,9.18.31,6.75,1.25,13.58,2.08l4.51.55,5.98.88,10.66,1.67c1.64.26,3.5.24,5.17.44,5.03.58,10.81,1.49,15.32,2.59.38.09.71-1.08.57-1.6ZM574.41,552.51c1.51-4.24,2.54-8.36.82-12.59-2.08,7.21-2.76,5.99-.82,12.59ZM466.77,550.32c.16-5.25,1.91-4.46,1.09-7.18.18.58-.93-1.11-1.79,1.36l-1.56,4.49c-.19.54.28,1.81.7,2.12.33.25,1.55-.36,1.56-.8ZM723.79,581.11l4.55,1.17c1.56.4,2.46,2.7,4.64,1.5-1.09-1.44-2.68-1.78-4.35-2.44l-11.43-4.53-11.24-4.88c-3.97-1.72-7.67-3.4-11.82-4.74-.78-.25-2.18-1.08-2.89-1.33l-8.96-3.11-16.03-4.57c-2.05-.58-4.38-1.24-6.42-1.47l-9.4-1.07-13.49-1.37c-1.43-.15-2.94.02-4.48-.34-.91-.22-1.87-.09-2.45.82,3.22.78,5.74,1.25,8.69,1.67l6.64.94c5.01.71,9.53,1.67,14.61,2.01,1.26.09,3.09.48,4.41.75l7.54,1.56c1.71.35,3.31.89,4.96,1.38l4.23,1.25,6.51,1.89c2.09.61,3.62,1.17,5.4,2.2,3.12,1.81,7.4,3.67,10.82,5.02l13.93,5.51c2.06.81,3.94,1.66,6.01,2.19ZM466.16,570.82l-.29-5.13c-.16-2.82.13-5.23.45-8.29-.9.15-3.15.95-3.78,1.67.09,6.66.5,16.17,6.18,21.39.63-3.59-2.37-6.2-2.56-9.65ZM558.18,593.47l-2.56,5.1,5.92,5.81c.35.35,1.79-.16,1.61-.54-2.23-4.75-1.92-6.63-4.97-10.37ZM546.73,600.93l1.81-1.35c.4-.3-.15-1.71-.67-2.01l-7.82,5.36c-.35.24-.58,1.5-.24,1.53,3.82.32,2.75-.4,6.93-3.53ZM522.89,603.39l-8.69-2.19-8.55-2.12c-1.28-.32-2.49-.54-3.59-.52,1.24,2.53,3.51,2.47,5.63,3.36,2.56,1.07,5.73,2.39,8.36,3.01,2.41-.49,6.01.48,6.84-1.55ZM787.61,616.38c.37.21.88.56.98.34l.42-.9c.07-.15-.51-.64-.67-.74l-7.45-4.51-4.23-3.26-3.68-2.25c-1.78-1.09-4.1-2.61-5.63-3.73-.29-.21-1.32-.42-1.31-.13s.3,1.14.57,1.33l12.07,8.22,4.45,3.07,4.47,2.57ZM461.66,685.29l4.13-11.69,1.28-4.2,6.72-17.29,3.41-8.06,1.36-3.71,4.47-9.93c2.31-5.13,1.28-3.57,3.26-8l2.2-4.94,3.68-8.86,2.74-3-6.15-2.62c-1.03.06-2.32,1.72-3.04,2.77l-3.22,4.74-4.62,8.99c-1.45,2.82-2.35,6.02-3.34,9.13l-1.67,5.28-5.3,19.55-2.01,7.74-1.64,5.1c-1.69,5.28-4.3,14.65-5.31,19.97l-.96,5.07c-.3,1.56-1.16,2.63-.18,4.49.96-1.4,1.25-2.42,1.75-3.82l2.42-6.73ZM604.89,900.23l-.61,8.67c1.8-2.23,2.75-4.21,3.72-6.48l3.98-9.4,3.86-11.71c.47-1.41.86-3.36,1.1-4.86l1.91-11.78c3.62-22.36.75-21.56.15-42.16l-.38-13.03c-.05-1.7-.22-3.82-.51-5.48l-2.72-15.7-.73-4.33-1.77-12.89c-.17-1.2-.21-2.28-.28-3.59-.31-5.41-1.25-10.87-3.04-15.97-3.08-8.8-4.26-9.21-7.1-15.96-2.56-6.08-3.39-7.27-5.72-13.34l-2.73-7.1c-1.6-4.16-3.23-8.09-4.85-12.21l-3.55-9.01c-2.31-5.86-4.83-11.61-7.8-17.16l-7.68-14.37-6.24-13.77c-2.57-5.67-5.58-10.92-8.75-16.28-.55-.93-1.65-2.17-2.3-3.07l-4.64-6.44c-.81-1.13-1.43-2.3-3.05-2.56l4.78,11.57,1.97,5.66,3.76,10.31c1.17,3.22,2.39,6.27,3.35,9.59l1.71,5.92,2.69,7.76,1.78,5.2c1.41,4.13,3.12,8.03,4.2,12.28l6.51,25.46,3.51,14.53,1.48,5.92,2.74,11.33c.08.32,5.29,15.91,6.2,18.75l4.69,14.65,1.74,6.44c.69,2.55,1.4,4.98,2.15,7.49l4.84,16.33,2.98,11.08,1.18,4.7,1.35,4.77c1.3,4.58,1.16,9.65.92,14.44l-.26,5.2-1.24,13.68-.46,4.27-1.25,11.9-.58,6.01-1.04,14.74ZM654.43,711.61l7.05,5.25c-.6-4.94-9.37-13.83-12.47-17.38l-2.08-2.38-10-11.06c-1.08-1.19-2.18-2.15-3-3.45-2.11-3.34-4.63-6.27-7.03-9.38l-3.31-4.29-6.5-7.49c-3.62-4.17-6.98-8.18-10.75-12.25l-5.71-6.17-6.36-7.28-6.95-7.58c-.32-.35-9.64-8.24-10.68-7.51l3.97,7.63c.9,1.73,2.53,3.17,3.39,4.58l5.33,8.7c1.68,2.74,3.28,5.29,5.15,7.81l5.4,7.27c3.09,4.16,7.93,9.88,11.53,13.47l4.57,4.55,4.96,5.88,3.75,3.75,12.47,12.49c.87.87,1.6,1.84,2.56,2.62,1.8,1.47,3.81,2.88,5.42,4.41,2.24,2.12,3.93,4.1,6.82,5.33.6.6,1.73,1.93,2.47,2.48ZM839.23,653.52c1.27.63,2.07,1.09,3.16.59-2.63-2.05-5.07-3.55-7.75-5.29-2.35-1.53-4.53-3.37-6.85-5.05l-5.28-3.82c-3.51-2.54-5.89-6.29-10.63-7.34.79,1.12,8.53,8.1,8.75,8.25l3.21,2.29,5.86,4.15,7.02,4.97,2.52,1.25ZM151.03,715.64l4.66-3.98c1.95-1.66,4.06-3.31,5.84-5.12,1.61-1.64,3.08-3.2,4.88-4.62l3.67-2.91,3.8-3.06,4.44-3.64,5.97-5.03c1.37-1.16,3.28-2.15,4.57-3.37l7.72-7.33c1.44-1.36,2.74-2.94,4.27-4.22,5.22-4.4,6.17-6.01,11.38-10.66l3.44-3.06,4.28-3.71c2.13-1.85,4.18-3.29,6.31-5.64-3.26-.05-5.41,2.04-8.02,3.41l-14.25,7.5c-3.96,2.08-7.66,3.64-11.09,6.67-3.01,2.67-6.03,5.3-9.31,7.69l-6.63,4.84c-1.65,1.2-3.21,2.99-4.59,4.42l-4.73,4.91c-1.56,1.62-2.96,4.08-4.39,5.96l-2.84,3.73-7.09,8.83-3.52,5.92-2.89,3.28c-2.79,3.17-5.46,6.23-7.75,10.05,2.31-.31,3.24-2.02,4.6-3.33l3.01-2.91c1.43-1.38,2.81-3.36,4.28-4.61ZM921.46,731.87l3.17,2.04c-.59-2.36-1.68-3.71-2.83-5.54-4.12-6.53-8.96-12.26-14.14-17.92-1.82-1.99-3.5-3.83-5.47-5.63l-5.23-4.75-5.91-5.13-10.07-8.39-2.72-2.39c-6.48-5.69-6.92-4.61-14.69-12.2-1.98-1.93-3.69-3.64-6.43-4.63.79,1.39,1.7,3.04,2.76,4.2l6.52,7.12c5.81,6.34,9.29,9.31,16.27,14.27,1.33.95,2.92,2.55,4.22,3.7l4.58,4.06c2.88,2.55,5.55,5.69,8,8.69l8.81,10.77c1.34,1.63,2.81,2.86,4.27,4.27,3.39,3.26,4.09,4.37,8.91,7.47ZM441.32,841.53c.86-4.88-2.46-7.23-.45-12.33-1.3-2.61-1.23-5.55-1.24-8.52l-.04-9.68c-.01-2.27.18-4.37.31-6.58l.39-6.44.72-14.44.5-7.55,1.93-16.62,1.31-10.08,1.12-10.5.38-1.41c.09-.33-1.33-.27-1.39.07-.25,1.5-.92,4.34-1.4,6.06l-2.77,9.83-6.16,17.65c-.3.85-2.15,11.24-2.2,11.92-.18,2.41-.27,4.48-.56,6.78-.75,5.91.18,14.24,1.19,19.96.23,1.32.22,3.09.57,4.5l1.13,4.5,1.7,5.84,3.16,12.72c.41,1.66,1.04,2.92,1.81,4.32ZM495.04,943.44c.15-1.31-6.25-9.93-8.02-9.98-2.61-4.1-5.38-8.38-8.91-12.03-.21,3.01,1.73,4.98,3.27,7.13l3.62,5.04,2.88,2.94c2.32,2.37,3.82,5.2,7.16,6.9Z"/>
  <path d="M189.07,877.15l8.33-2.03c13.87-3.38,18.43-3.87,31.95-10.25,1.3-.61,2.53-1.11,3.91-1.63l5.72-2.19,7.07-2.52c3.8-1.35,7.43-3,11.13-4.81,12.92-6.29,8.68-7.12,7.44-6.44-9.61,5.3-6.58,2.14-10.98,4.18l-7.9,3.66c-6.48,3-9.9,2.27-18.85,6.13l-4.58,1.97c-1.8.78-4.46,1-6.53,1.42l-10.89,2.22c-2.88.59-6.26,1.4-9.15,1.82-.46.07-1.59.7-2.02.9-2.78.35-5.47,1.33-8.15,2.3l-8.16,2.94c-2.69.97-5.9,1.33-8.49,2.49-2.2.99-3.95,1.75-6.41,2.15-4.06.67-13.15,6.78-26.29,4.61-1.18-.19-3.26-1.44-4.52-1.91-.7-.26-.61-2.45.14-3.05,1.45-1.15,4.47-1.31,6.59-.02,1.8,1.1,8.89-.12,11.13-.88l4.5-1.52,7.09-2.38,7.53-2.53c1.26-.42,2.09-.98,3.21-2.13l3.13.46c.42-.55,13.75-4.72,13.37-4.63l8.22-1.84c1.14-.25,2.32-.9,3.32-1.07l4.19-.72,5.61-.97,4.5-.93c3.85-.8,7.48-1.44,11.17-3.09,4.72-2.11,6.56-2.09,10.96-3.69l9.06-3.3,7.91-3.02,12.22-4.33c4.66-1.65,10.46-4.25,14.56-7.01,2.35-1.58,4.22-4.06,6.36-5.92l7.01-6.11,10.42-9.58,6.08-5.89c4.91-4.76,10.09-8.78,15.02-13.52l4.84-4.65,9.96-9.04c1.37-1.24,2.63-2.75,4.07-3.93,1.92-1.58,3.92-3.14,5.62-4.88,1.11-1.13,1.95-2.22,3.35-3.12,1.87-1.2,3.35-2.61,5.02-3.93,1.85-1.47,3.91-2.74,5.63-4.38l6.44-6.17c1-.96,3.09-2.02,4.39-2.99l13.49-10.11c1.17-.88,2.26-2.62,3.27-3.69,2.63-2.76,5-5.92,6.85-9.34l3.31-6.1c2.65-4.89,5.05-9.8,7.9-14.53,5.42-9,7.32-14.09,11.12-23.58l3.39-8.46c1.34-3.34,2.5-6.69,4.11-9.84l3.78-7.41,3.59-6.85c2.92-5.58,4.21-11.51,6.72-17.28l1.66-3.81.72-4.25c.85-5.07,1.89-10.02,3.61-14.85,1.08-3.02,2.26-6.12,2.83-9.26.29-1.58.39-2.48,1.09-3.82l3.05-5.77c.25-.47,1.68-1.16,2.17-1.09.94.14,3.11,2.03,3.69,2.73.34.41-.19,1.73-.34,2.34l-1.22,4.93-2.66,8.4-1.25,6.12-2.29,7.67-1.76,5.76-5.46,14.49c-.48,1.28-1.09,2.43-1.69,3.65-2.01,4.11-2.04,8.95-2.82,13.4-1.4,7.95-1.48,11.88-3.4,20.48-1.19,5.31.37,4.97-2.55,11.37-.25.55-1.25,1.65-1.38,2.25-1.01,4.81-6.69,9.07-10.16,13.19-4.21,5.01-4.11,2.7-10.46,11.05l-2.17,2.85-2.51,3.46c-1.36,1.87-2.63,3.64-4.09,5.45l-2.9,3.63c-1.29,1.61-2.47,3.65-3.76,5.05s-2.29,2.47-3.34,3.87l-4.2,5.58-6.43,7.78-6.41,8.51c-.94,1.25-1.77,2.13-2.65,3.51-1.54,2.43-3.7,4.55-5.49,6.83-2.53,3.22-4.98,6.28-7.81,9.22l-3.69,3.82c-4.11,4.26-11.28,10.24-16.1,13.84l-5.49,4.1-3.34,2.59c-2.91,2.25-13.86,10.79-16.24,12.18l-3.85,2.25c-2.84,1.66-5.81,2.63-8.51,4.61l-3.61,2.65c-.43.32-8.74,3.02-14.01,7.52l-4.12,3.51-11.85,9.61c-2.55,2.07-9.01,5.75-12.36,7.14l-9.85,4.07-11.6,4.78-7.06,3.01c-3.2,1.36-6.41,3.16-9.82,4.13l-9.34,2.68c-1.53.44-3.49.64-5.07,1.01l-13.78,3.19c-3.04.71-6.14,1.08-9.09,1.94-3.6,1.05-7.27,1.42-10.93,2.24l-8.98,2.01-2.72.93-11.52.94-19.48,2-7.5.96-4.39.59c-3.75.5-7.4,1.28-11.11,1.55l-6.09.43-10.47,1.03-6.45.56-5.72.47c-2.19.18-5.31-.64-6.77-2.06.94-2.76,3.6-1.48,5.45-1.62l26.01-2.07c8.9-.71,17.44-2.1,26.2-3.78,4.79-.92,7.8-.67,12.54-1.54,8.02-1.47,9.56-.97,16.72-2.35l4.89-.94,9.02-1.5,3.17-1.13,4.56-.85c3.35-.63,6.48-1.41,9.96-2.26ZM414.04,709.46c.7,1.89,6.88-5.7,8.01-6.81,2.42-2.38,4.14-4.53,5.77-7.48.72-1.3,1.92-2.8,2.55-4.36,3.53-8.83,3.2-14.68,5.07-23.86.31-1.53.22-3.2-.23-5.06-1.56,2.58-5.79,12.31-6.54,14.71-1.38,4.38-2.55,8.53-4.39,12.75l-1.95,4.47-2.4,5.14c-4.05,8.67-3.62,3.45-5.9,10.51ZM318.52,814.04l3.74-2.79c2.1-1.57,4.26-3.08,6.26-4.72l3.27-2.7,5.54-4.54,2.62-2.23,3.15-2.49,3.1-2.36c2.77-2.11,4.98-4.61,7.43-6.97,4-3.86,7.4-7.97,10.9-12.24l8.58-10.49c1.44-1.76,3.16-3.08,3.35-5.71l-13.12,11.05-3.06,2.5-7.48,6.42c-2.85,2.44-5.58,4.68-8.24,7.37-2.26,2.28-4.66,4.68-7.12,6.71-2.29,1.89-4.35,3.29-6.26,5.57-.76.91-2.59,2.05-3.64,3l-2.94,2.67-3.68,3.33-4.14,3.86-8.75,8.2c-2.27,2.13-5.59,3.27-6.6,6.8l7.81-4.48c3.16-1.81,6.45-3.65,9.26-5.75Z"/>
  <path class="cls-1" d="M577.76,525.57c-1.88-3.83-1.26-14.29-.33-17.05l1.8-5.35c.35-1.05,1.37-2.53,1.52-3.74.41-3.35,1.49-6.19,2.99-9.02,1.29-4.61,3.94-8.31,6.18-12.32l2.82-5.04c1.57-2.81,3.13-5.95,4.45-8.9,2.03-1.86,3.74-4.04,4.46-6.93.43-1.71,3.6-5.67,4.53-7.31l2.91-5.16,2.22-3.76,4.94-9.19c1.59-2.95,3.17-5.79,5.01-8.61,1.6-4.52,3.62-8.9,6.3-13.01l.66-2.44c1.77-2.71,3.07-6.45,3.95-9.37.16-.53,1.53-1,1.55-1.44l.1-1.93c.99-1.56,2.37-3.72,3.12-5.52l1.92-4.62,3.57-6.69c.74-1.4,1.05-3,1.82-4.29l5.46-9.02c.67-1.11.39-2.82,2.46-2.74l2.4-6.31c.92-2.41,2.09-4.13,3.41-6.13l3.62-5.49,2.7-4.22c1.72-2.7,3.28-5.43,4.71-8.16.68-1.3,1.02-1.88,1.97-2.89,2.57-2.69,4.78-5.81,6.88-8.94,1.09-1.63,2.24-3.02,3.37-4.7l2.78-4.1c1.59-2.34,3.69-3.75,5.15-6l2-3.1c1.62-2.52,3.95-4.68,5.74-7.11,2.78-3.77,4.63-5.53,6.39-8.68l7.87-7.65c.88-.86,1.27-1.41.8-2.97.91-1.22,3.7-1.82,4.89-2.87l6.94-6.07c2.12-1.85,3.29-3.83,4.85-6.2,1.25-1.9,4.38-3.14,5.88-4.91l3.7-4.37c1.27-1.5,2.12-2.73,3.82-3.82,6.35-4.05.7-1.42,6.41-5.57,4.96-3.61,7.72-5.1,12.28-8.74,1.04-.83,2.01-2.2,3.4-2.51,1.97-.44,2.27-2.24,3.62-3.28l3.77-2.88c1-.77,2.26-2.52,3.17-3.1,2.05-1.32,4-2.66,5.99-4.11l6.44-4.71c.64-.47,1.83-.99,2.55-1.45l7.28-4.68c2.09-1.34,10.54-6.22,12.66-7.17l4.2-1.88c1.58-.71,3.53-2.32,5.02-2.82,4.38-1.48,9.94-3.81,12.98-4.65l6.36-1.75c6.62-1.82,5.73-2.48,10.89-2.02,1.34-2.43,3.9-1.54,8.89-2.77,2.95-.72,5.5-1.17,8.37-1.13.84-.8,2.37-1.47,3.66-1.23,4.33.8,8.21.37,12.53.02l8.43-.69c4.43-.37,9.04-.82,13.23-1.88,1.97-.5,2.52-.47,4.59-.27,6.27.61,12.83.46,19.23.17l8.05-.37c.1,1.92-.18,3.27-.74,4.75l-2.27,5.92c-.53,1.4-1.11,2.83-1.55,4.28l-2.04,6.86-2.18,7.28c-1.45,4.84-2.35,9.87-4.36,14.47l-4.97,11.39c-1.47,3.38-2.88,6.81-4.58,10.06-.68,1.29-1.27,2.34-1.67,3.76-1.97,6.94-5.34,12.45-8.05,21.24-1.89,6.11-3.55,7.02-7.28,13.2l-3.78,6.26c-.33.55-.88,1.92-1.4,2.31-1.51,1.12-2.68,3.09-2.73,5.2l-3.13,2.34c-.88,1.54-1.5,4.03-2.69,5.24-3.24,3.31-5.51,6.78-8.11,10.51l-4.78,6.86-5.05,6.78c-3.63,4.87-7.06,9.83-11.09,14.46-3.61,4.14-2.38,3.5-6.3,7.63-1.43,1.5-2.72,2.85-4.09,4.45-.97,1.13-2.09,1.78-3.42,1.53-.07,1.54-.55,2.86-1.59,3.86l-3.65,3.49c-.85.82-1.97,2.14-2.79,3.13l-3.39,4.08c-.88,1.06-1.67,1.93-2.7,2.79l-8.22,6.91c-1.35,1.14-2.52,2.8-3.88,4.09l-4.29,4.06-2.64,3c-1.53,1.73-3.13,3.13-4.64,4.91l-3.87,4.52c-1.52,1.77-3.43,2.92-4.96,4.57l-2.64,2.86c-.91.98-1.73,1.94-2.67,2.87l-4.3,4.24-6.86,6.58-5.51,5.07c-.9.83-1.99,2.14-2.8,3.17-.95,1.22-9.57,7.64-12.42,10.6l-6.34,6.6-8.31,8.27-3.7,3.8c-1.18,1.21-2.78,2.61-4.17,3.73l-10.77,8.65c-.55.45-1.27,1.9-1.98,2.08-1.46.37-2.06,1.74-2.98,2.48-4.32,3.47-5.6,4.92-10.13,8.4l-4.27,3.28c-1.96,1.5-4.2,2.84-6.3,4.26l-10.73,7.25c-1.54,1.04-3.39,1.99-5.05,2.85l-6.23,3.19c-4.58,2.34-9.35,3.6-13.88,5.88l-5.25,2.64c-2.04,1.03-4.19,1.86-6.24,2.62l-10.77,3.99c-1.23.46-2.16.73-3.52,1-2.41.49-4.8,1.42-7.22,2.19l-5.36,1.71c-5.29,1.69-10.06,2.48-15.5,2.18-2.89-.16-6.01.11-8.95.26l-8.31.43c-2.31.12-4.69,0-7.11.28-1.33.15-4.41-.54-5.11-1.97Z"/>
  <path class="cls-1" d="M459.11,547.8c-1.03.42-3.02-.13-4.21-.35l-3.1-.57-8.29-1.7-7.88-1.86-7-1.69c-2.52-.61-4.9-1.28-7.51-1.87l-3.8-.87-8.24-1.68c-7.81-1.59-15.52-1.02-23.22-1.21l-6.4-.16-14.94-1.17c-3.19-.25-6-.87-8.98-1.4-7.47-1.33-1.07.36-9.73-2.46l-10.93-3.56c-4.38-1.43-7.13-1.48-10.39-3.21-1.12-.59-2.66-.7-3.87-1.22l-8.22-3.56c-1.37-.59-2.65-1.01-3.97-1.6-1.6-.71-2.94-1.7-4.59-2.53l-4.34-2.17c-3.59-1.8-6.75-3.92-10.23-5.75-4.73-2.5-9.15-5.05-14.09-6.96l-6.21-2.39-9.32-3.68c-1.02-.4-2.73-1.94-3.64-2.65l-4.23-3.31-7.84-6.69c-1.8-1.54-3.64-2.91-5.29-4.57l-8.25-8.32-4.07-4.46-7-6.51-2.93-3.14-3.52-3.49c-1.87-1.86-3.56-3.6-5.33-5.62-1.1-1.26-2.49-2.22-3.53-3.44l-2.3-2.69-5.51-5.59c-1.94-1.96-3.38-4.25-5.9-5.64-.86-.48-1.11-1.52-1.56-2.54l-5.02-5.2c1.12,1.16-9.33-10.47-8.32-9.25l-10.72-12.88-2.29-2.72c-1.56-1.85-3.22-3.74-5.02-5.45l-5.59-5.31-4.09-3.94-6.79-6.19c-2.15-1.96-3.8-4.1-6.02-6.04s-3.79-5-5.7-7.22c-1.03-1.19-2.13-2.3-3.04-3.58l-3.75-5.25-4.36-6.11-6.5-9.38c-2.68-3.86-4.81-8.24-7.77-11.77-4.58-5.46-11.95-16.24-15.41-22.58-.77-1.41-2.44-3.21-2.72-4.52-.4-1.84-.72-2.5-1.5-3.77l-4.83-7.8c-.44-.71-1.1-1.92-1.75-2.02-1.43-.22-2.39.82-4.73,1.56-2.46.79-4.49-10.7-4.79-12.32-.33-1.78-1.29-4.28.92-5.38,4.8-2.4,5.66-.87,10.42-1.67,2.07-.35,3.71-1.53,5.75.48-2.74,1.16-5.5,1.46-8.33,2.38-1.26.4-2.9,2.07-4.37,2.31-.64,2.76.11,6.78,1.98,9.04,3.51-.43,2.83-5.52,10.73-7.53l4.37-1.11c5.46-1.39,10.23-2.75,15.84-3.22,6.22-.52,12.13.27,18.22,1.5l9.27,1.86c4.63.93,9.06,1.97,13.39,3.8,5.71.62,11.04,2.15,16.49,3.82,5.8,1.77,11.93,2.73,17.15,4.62l12.24,4.41,6.26,2.34,4.98,1.86,4.93,1.55c2.41.76,21.86,6.3,22.83,6.67l7.85,3.04,1.72,1.24c2.87.82,5.68,1.7,8.46,2.88l16.64,7.04,3.28,1.67,3.85,1.8c2.94,1.37,6.39,2.18,9.11,3.78l6.3,3.71c2.08,1.22,3.79,2.14,6.2,2.81,1.41.39,2.87,1.6,4.02,2.27l6.98,4.1,4.7,2.34,5.75,3.72,11.66,6.92,7.76,5.08c1.57,1.03,2.71,2.38,4.18,3.6,1.37,1.14,4.01,2.02,5.69,3.18l8.83,6.14c5.43,3.77,4.91,2.5,9.44,5.61,3.91,2.68,5.06,2.6,6.74,4.3,1.59,1.61,3.97,2.53,5.61,3.87s3.1,2.56,4.77,3.72l5.35,3.71c1.84,1.27,6.41,9.2,7.86,11.75l2.36,4.15,1.6,3.72c2.27,5.29,5.45,9.81,8.36,14.65l4.13,6.9c1.05,1.75,2.12,3.18,3.1,4.91l5.59,9.86c1.02,1.8,1.89,3.62,3.16,5.34,1.95,2.64,3.62,5.39,5.23,8.28l5.76,10.36,2.23,4.42c.67,1.33,1.62,3.15,2.44,4.38l3.55,5.39c2.5,3.79,5.47,7.36,7.63,11.31.74,1.35,1.13,2.31,1.98,3.44.72.95,3.5,5.69,3.67,6.25,1.01,3.15,2.18,15.11,2.17,18.36-.02,4.58.19,8.86.65,13.51.3,3.03-.84,6.62,1.33,9.21l1.29,1.54c.31.37-.5,1.81-.96,2Z"/>
  <path class="cls-1" d="M524.4,486.26c-5.72-1.95-19.07-.12-24.2,6.16-.16.19-.97-.13-.96-.37.01-.33.23-1.29.19-1.62-.38-3.4-3.02-6.3-4.8-8.97l-5.72-8.56c-5.22-7.82-11.47-15.11-14.35-24.04l-1.22-3.8-2.5-5.07c-.78-1.57-1.11-3.01-1.5-4.66l-1.8-7.69c-.32-1.36-.83-2.81-.89-4.24-.32-7.3-2.12-14.05-3.97-21.04-.86-3.25-1.15-6.16-2.01-9.43l-1.54-5.85c-.38-1.44-.45-4.02-.61-5.44-1.33-2.33-2.97-5.5-4.17-8.09l-2.07-4.48c-1.33-2.87-2.32-5.64-3.35-8.65-.34-1-4.57-14.08-4.58-14.15l-.85-5.64c-.18-1.21-.97-2.77-1.15-3.71l-1.64-8.47-1.09-7.04c-1.1-7.11-.7-7.66-1.38-14.34l-.84-8.15-.94-9.6c-.33-3.34.02-6.54.12-9.95l.29-9.83c.06-1.89.36-3.41.71-5.21.46-2.39.68-4.98.93-7.49s1.15-4.84,1.63-7.49l1.14-6.35c.31-1.74.7-3.25,1.15-4.94.8-3.04.72-6.37,1.36-9.53.21-1.02.94-2.42,1.08-3.57.33-2.68.88-4.92,1.53-7.41.71-2.71.83-5.81,1.73-8.3l3.48-9.57c.49-1.36,1.11-3.05,1.8-4.26l4.53-7.93,6.68-12.94,6.25-11.19,4.69-7.75,3.2-5.32,5.84-9.58c1.06-1.74,1.9-3.35,2.97-5.11l8.68-14.34,2.36-4.2c2.52-4.48,4.92-8.71,7.52-13.03l3.54-5.87c1.06-1.76,1.95-3.45,2.83-5.26l2.27-4.69c3.94-8.15,4.68-5.76,8.49-15.45,1.07-2.71,2.19-5.38,3.42-8.03,2.06-4.46,3-5.47,5.02-10.02.62-1.39,1.13-3.49,1.81-4.63.75-1.24,1.92-2.29,2.39-3.69.77-2.31,2-4.11,3.55-5.84l1.9-2.12,3.92,4.88c.9,1.12,1.91,2.51,2.69,3.71l5.11,7.86c1.61,2.48,1.75,5.88,3.04,8.14,1.71,2.98,3.37,5.55,4.72,8.73l2.12,4.99c.59,1.38,1.14,3.47,1.8,4.63.98,1.72,1.59,2.95,2.34,4.72l7.65,18.04c.3.7,1.83,13.62,1.97,15.81l.69,10.92.72,4.07.24,8.06c.45,15.14,2.84,23.22,3.66,37.56l.72,12.51c.19,3.38-.21,6.53-.05,10l.5,11.09c.12,2.76.36,5.56.39,8.37l.07,8.3c.03,3.36-.6,6.62,1.3,9.52-.67,5.18.07,10.06.54,15.17l.87,9.36c.13,1.45.35,2.75.43,4.15l.22,4.03.18,3.6c.32,6.34,1.21,6.94,1.07,13.37-.05,2.42.4,4.78.46,7.09l.5,16.92c.05,1.64.43,3.43.63,5.06l.91,7.53c.17,1.43-.02,10.61.33,15.41.63,8.5-.59,8.25-.33,15.02.11,2.78-.11,5.19-.2,7.98l-.19,6.41-1.68,12.26-1.4,9.35c-.33.23-1.23.62-1.18.9l.29,1.79c.3,1.84-.38,4.09-1.01,6.07-.41,1.27-.02,3.41-.24,4.54l-.89,4.57-1.7,9.23c-.36,1.93-.7,4.4-1.3,6.11-1.1,1.9-1.6,3.34-2.24,5.35-1.72,5.44-4.25,10.5-6.46,15.74l-2.96,7c-.93,2.19-1.62,4.23-2.85,6.32-1.38,2.33-2.36,4.69-3.36,7.28-.16.42-.7.82-1.25,1.38-1.65,1.71-2.71,4.6-4.33,6.47l-2.81,3.24c-.99,1.15-1.82,2.48-2.7,3.77l-4.52,6.56-3.31,4.44-.86,1.14c-1.22,1.63-1.72-2.27-6.08-3.08-1.4-.26-2.52-1.96-3.76-2.6-1.36-.7-3.4-.97-5.01-1.52l-4.37-1.49Z"/>
  <path class="cls-1" d="M521.7,597.12l-8.84-2.34c-3.26-.86-6.2-1.51-9.58-2.13-.91-.17-2.68-.71-2.64-1.52l.28-6.05c-1.44.03-2.63.47-3.75,1.06l-3.75,1.99c-2.98-1.32-5.83-2.64-8.35-4.72-1.44-1.19-3.98-2.03-5.16-3.24s-2.01-2.17-3.33-3.3-2.41-3.12-3.45-4.48c-1.72-2.24-1.41-3.75-.57-6.24.89-2.67,1.29-5.7,2.02-8.69.61-2.49,2.35-4.99,3.37-7.49,1.5-3.68,4.15-6.37,6.72-9.38,1.24-1.45,2.84-2.59,4.51-3.52.54-.31,5.02-4.3,10.21-6.74,8.85-4.15,5-.91,13.53-4.49.46.81,7.09-1.41,8.31-2.29-.46-1.84-5.78-2.35-7.79-2.12-4.36.49-.68,1.74-7.86,1.99-3.11.11-5.32.42-8.12,1.65-3.92,1.72-8.48,4.69-11.41,7.65-.28.28-1.68.58-1.84.28s-.16-.96-.08-1.47l.67-4.2c.54-3.37,1.7-7.5,3.95-10.01l5.02-5.58c1.01-1.13,2.01-1.74,3.42-2.41l5.73-2.71c1.53-.72,2.83-1.22,4.58-1.46,1.9-.26,4.17-1.13,6.07-1.06,6.8.25,15.09.67,20.77,3.97l.66,5.63c.9.59,3,.38,4.02-.13s1.55-2.24,2.36-3.41c.96-1.33,3.79.48,5.19.47,5.71-.05,8.61,4.43,10.97,8.54l2.16,3.75,3.45,7.74-1.11,5.07c4.39,2.83,6.72,12.26,5.39,16.53-.52,1.66-1.24,4.62-2.2,5.88-1.55.73-4.49,2.43-4.14,4.11.13.63.77,1.51,1.3,2.47.73,1.33-.92,3.7-2.16,4.44l-6.71,3.98c-.66.39-1.66,1.53-1.72,2.22-.09.96.74,1.75,1.98,2.87l-5.45,5.14c-.8.76-2.74,2.69-3.49.98-.38-.85-.26-2.99-.99-3.6-.79-.65-1.91,1.17-2.51,1.55-1.49.95-3.63,1.8-4.5,3.45s.9,3.42,1.7,4.79c-1.06,2.19-3.75,4.02-5.99,4.92l-1.88-1.47c-1.8-1.4-3.33-2.55-3.88-4.85s-2.79-3.93-5.15-3.71l.03,4.55-2.72,1.16c.32,4.24,4.4,4.01,2.77,6.01Z"/>
  <path class="cls-1" d="M599.59,417.93c-.08.25-3.41,6.52-3.88,7.28l-2.13,3.43-2.75,4.25c-1.56,2.41-2.78,4.83-4.23,7.45-1.96,3.57-5.45,6.85-7.13,10.56-.42.22-1.42.75-1.68,1.05l-3.1,3.61c.24-1.98.65-4.37,1.57-5.68,2.08-2.96,2.09-6.03,3.56-9.17l3.49-7.44c.7-1.49.73-3.29,1.15-4.7.45-1.5,1.41-3.09,1.71-4.8l1.6-9.11.42-3.09,2.65-15.63c.27-1.6.51-3.02.8-4.57l1.49-7.96,1.03-5.52c.64-3.44.92-7.01.97-10.52l.12-8.68.33-7.5.26-5.83-.43-4.83.17-7c.14-5.56-.78-10.66-1.18-16l-1-13.35c-.16-2.16-.06-4.42-.14-6.63l-.66-17.65-.04-8.05-1.12-2.92c-1.64-4.28-.24-10.23-.8-15.22l-1.57-14.01c-.21-1.89-.56-3.29-.34-5.28.38-3.4.21-6.94.06-10.39l-.22-5.07-.77-33.47-.89-7.01-.63-7.05-.45-4.36c-.58-5.65-.76-11.18-1.8-16.73-.68-3.61-1.06-10.79-1.22-14.85l-.28-7.06c0-.21.01-.95.02-1.15.01-.31,1.03-.48,1.17-.2.33.64.18,3.62,1.03,7.91l1.01,5.13c1.71,8.69,1.68,1.58,3.6,13.75l.81,5.14c1.11,7.05,3.76,10.49,3.91,12.41.16,2.09.33,4.08.62,6.02l2.16,14.34c.29,1.9.26,3.79.4,5.7l1,14.5.49,9.5.68,8.01.45,5.39-1.66,2.26,2.28.92c-.57,3.39.39,6.32.79,9.4l.6,4.68c.9,7.05-.04,8.59,2.41,14.97,1.56,4.05,2.63,7.28,4.94,11.07.06,5.79,3.95,11,4.57,17.25l.61,6.12c.25,2.49-.62,5.39-.59,7.88.05,5.42-.21,8.85-.57,14.38l-.69,10.68.75,7.87-.15,6.47.06,4.79c.05,4.54-.4,10.23-1.04,14.67l-.78,5.43c-.15,1.04-.58,2.2-.81,3.17l-2.1,8.79c-.57,2.37-.76,4.67-1.92,6.9s-1.21,4.7-.73,6.77c-.7.86-1.08,1.88-1.48,3.07l-1.89,5.71c.46,1.2.27,2.5-.56,3.76-1.19,1.81-1.69,4.02-2.34,6.03Z"/>
  <path class="cls-1" d="M604.89,900.23l1.04-14.74.58-6.01,1.25-11.9.46-4.27,1.24-13.68.26-5.2c.24-4.79.38-9.85-.92-14.44l-1.35-4.77-1.18-4.7-2.98-11.08-4.84-16.33c-.75-2.52-1.46-4.94-2.15-7.49l-1.74-6.44-4.69-14.65c-.91-2.84-6.12-18.43-6.2-18.75l-2.74-11.33-1.48-5.92-3.51-14.53-6.51-25.46c-1.09-4.25-2.79-8.16-4.2-12.28l-1.78-5.2-2.69-7.76-1.71-5.92c-.96-3.32-2.18-6.38-3.35-9.59l-3.76-10.31-1.97-5.66-4.78-11.57c1.62.26,2.24,1.43,3.05,2.56l4.64,6.44c.65.9,1.75,2.14,2.3,3.07,3.17,5.36,6.18,10.61,8.75,16.28l6.24,13.77,7.68,14.37c2.97,5.56,5.49,11.31,7.8,17.16l3.55,9.01c1.62,4.11,3.25,8.05,4.85,12.21l2.73,7.1c2.33,6.07,3.16,7.26,5.72,13.34,2.84,6.74,4.02,7.16,7.1,15.96,1.78,5.1,2.73,10.56,3.04,15.97.07,1.31.11,2.38.28,3.59l1.77,12.89.73,4.33,2.72,15.7c.29,1.66.46,3.78.51,5.48l.38,13.03c.6,20.6,3.47,19.8-.15,42.16l-1.91,11.78c-.24,1.5-.63,3.45-1.1,4.86l-3.86,11.71-3.98,9.4c-.96,2.27-1.92,4.25-3.72,6.48l.61-8.67Z"/>
  <path class="cls-1" d="M374.58,373.3l-4.66-2.88-4.35-2.47-9.08-6.04c-.75-.5-1.49-1.17-2.34-1.57-3.94-1.86-7.15-4.71-10.75-7.15l-6.87-4.66-4.3-3.15c1.32.97-10.8-6.65-8.82-5.71l-2.66-1.26c-1.82-.86-3.24-2.17-4.99-3.09l-5.6-2.93c-3.92-2.05-7.35-4.7-11.39-6.68l-10.27-5.04-14.11-7.03-11.54-4.99c-1.62-.7-3.22-1.98-4.81-2.56l-14.34-5.26-6.33-2.68-10.9-3.71c-2.43-.83-4.28-1.73-7-1.29-1.17.19-3.12-1.83-4.2-2.42-4.86-1.1-9.55-2.46-14.21-4.25l-5.72-2.2-6.64-2.45c-4.82-1.78-9.75-3.29-14.82-4.68l-9.54-2.6-8.88-2.51-4.81-.79-5.97-1.65c-1.1-.3-2.52-1.01-3.9-1.82,4.68-.03,8.7.5,13.21,1.12l10.97,1.51,10.57,1.07c3.32.34,15.35,1.99,18.31,2.56l9.74,1.88,8.29,1.26c1.81.28,3.77.46,5.6.85l17,3.62c2.66.57,5.16,1.37,7.88,1.84,4.04.69,7.83,1.83,11.69,3.36l11.88,4.73c1.64.65,3.61,1.52,5.09,2.3l10.8,5.65,3.67,1.86,7.3,3.75c2.74,1.41,5.3,2.86,8.05,4.42l4.89,2.76,7.08,4.38,3.84,2.62,6.37,4.68,3.98,2.94c5.11,3.78,10,7.6,14.79,11.76l3.48,3.03,3.53,3.45c3.2,3.13,4.72,2.91,8.64,8.75.87,1.29,1.4,1.63,2.55,2.65,4.29,3.79,9.97,11.47,11.64,12.64,1.44,1.01,2.64,2.1,2.94,4.08Z"/>
  <path class="cls-1" d="M223.51,476.3c-2.56-1.27-4.61-2.75-6.95-4.25l-4.28-2.75c-5.28-3.39-2.83-.96-9.73-5.76l-10.1-7.03-4.18-2.91c-1.5-1.04-2.89-3.27-4.45-4.21-1.39-.84-2.31-1.46-3.32-2.43l-4.32-4.17-7.19-6.79c-4.21-3.97-1.2-2.41-5.95-6.48-3.46-2.97-1.4-2.74-5.28-5.6-2.2-1.62-3.7-3.33-5.41-5.39-.44-.53-9.92-10.37-10.96-11.33-.97-.9-2.13-1.61-2.92-2.66l-8.81-11.72c-1.04-1.38-2.16-2.86-3.06-4.29l-3.13-4.95-4.61-7.76-2.67-4.92-3.29-5.12c-1.7-2.64-3.21-5.52-4.62-8.37-1.09-2.19-2.57-3.92-3.64-5.63l-3.95-6.32-4.7-7.32c-2.71-4.21-5.67-8.18-7.97-12.52l-3.71-7.01-3.09-5.05c-.9-2.79-2.15-5.07-3.15-7.94l-2.62-7.55c-1.34-3.86-3.66-7.13-3.09-11.64,1.61,2.15,2.68,4.44,4.1,6.76,2.37,3.89,5.38,7.45,7.34,11.57,1.39,2.93,4.34,8.86,5.85,11.06l3.28,4.77,6.38,8.59,1.63,2.18c.37.56.64,1.91,1.18,2.47,1.76,1.83,2.55,3.89,3.93,5.8l11.46,15.95,3.52,4.84,2.66,3.89c1.01,1.48,1.86,2.66,3.11,3.94l3.93,4.01c3.08,3.14,6.15,6.14,9.31,9.13l9.31,8.82c2.35,2.23,4.6,4.28,6.84,6.71l3.13,3.4c1.14,1.24,3,2.62,3.78,3.93,1.07,1.81,2.09,2.88,3.29,4.43,2.98,3.85,6.39,7.74,10,10.93.34.77,1.01,2.29,1.55,2.88l6.57,7.23,5.24,5.62c6.11,6.56,5.53,4.41,11.27,11.73,1.04,1.33,2.51,2.31,3.61,3.46,2.33,2.42,4.4,4.78,6.91,7.01.73.65,1.67,1.47,2.34,2.13l7.98,8.03,5.37,5.68,7.24,6.59c.15.14.5.72.57.87s-.19.77-.35.71l-1.12-.46c-2.12-.88-4.07-1.79-6.13-2.81l-3.91-1.93Z"/>
  <path class="cls-1" d="M734.17,468.57c-.87-2.47,2.19-2.52,3.31-3.62l9.02-8.86c1.12-1.1,2.27-2.67,3.46-3.65,2.23-1.83,4.3-3.45,6.23-5.73,2.97-3.5,8.5-7.39,11.95-11.01,1.38-1.44,2.53-2.76,4.02-4.11l3.67-3.32,2.95-2.59c1.44-1.27,2.82-3.39,4.33-4.52,1.19-.89,2.05-1.53,2.99-2.48l7.57-7.67,7.02-6.86,5.05-5.37,6.57-6.98,3.92-4.07,5.15-5.37,4.51-4.49c.97-.97,1.96-1.75,3.21-2.42,1.73-.93,2.64-3.58,4.04-4.65,1.49-1.15,2.61-1.97,3.83-3.31,4.63-5.11,9.17-10.13,14.11-14.92,1.22-1.18,2.07-1.96,3.02-3.45,1.77-2.78,4.23-5.12,6.17-7.83l4.8-6.71c1.88-2.62,3.98-4.95,5.83-7.55l2.51-3.52,5.17-7.35,2.68-3.82c1.62-2.31,3.08-4.33,5.28-6.35.25.86-4.24,7.56-4.48,7.95l-12.03,20.04c-1.04,1.73-2.65,3.08-3.87,4.58l-4.24,5.19-1.79,3.29-4.85,5.73c-1.62,1.92-3.28,4.12-4.65,6.11l-6.04,8.73-4.54,6.94-5.4,8.06-4.98,7.06c-1.64,2.32-3.28,4.75-5.05,6.92l-3.86,4.76-2.41,1.41c.15,1.91-5.73,7.58-7.08,8.49-6.04,4.09-5.37,5.49-12.76,10.74-1.18.84-1.6,1.47-2.52,2.43-1.83,1.92-15.29,13.52-17.36,15.05l-5.57,4.11-3.71,2.74c-6.09,4.49-7.14,4.18-11.73,7.72-2.53,1.95-5.38,3.4-8.12,5.09l-15.31,9.44Z"/>
  <path class="cls-1" d="M571.34,506.16c-.29-1.02.53-2.3.9-3.42.15-4.46,1.31-8.52,2.54-12.79,1.63-5.68,2.7-7,5.05-12.88l2.72-6.81,1.82-4.38c.45-1.09,1.15-2.23,1.51-3.22.97-2.64,1.91-5.02,3.01-7.55l1.5-3.46c.63-1.45,1.18-2.8,1.87-4.16l5.38-10.69,1.82-3.73,5.64-11.28c.96-1.92,1.91-3.67,3.39-5.24s2.01-3.81,3.13-5.5l3.39-5.12,2.28-3.67-.91-1.14c-.23-.29,1.23-.65,1.49-.93.82-.91,2.05-2.82,2.76-4.07l1.78-3.14c2.05-3.62,4.25-7.05,6.53-10.51l2.99-4.53,7.01-10.01c1.11-1.59,2.34-2.98,3.28-4.66l2.22-3.98,2.6-3.73,3.19-5.81,5.73-9.28c.76-1.23,1.41-2.91,3.15-2.59.21.39.32,1.66-.08,1.88l-1.93,1.06-1.08,2.21c-1.11,1.74-2.01,3.35-3.02,5.14l-3.04,5.39-4.38,7.56-6.53,12.12-3.59,6.31-2.26,4.84-3.88,8.39-4.44,9.53c-.95,2.04-1.96,3.87-3.09,5.95-.96,1.77-1.34,4.48-2.39,6.19-2.05,3.34-3.42,6.5-5.05,10.07l-1.53,3.37-2.38,4.49c-1.32,2.49-2.87,4.65-4.42,7.03l-2.02,3.1c-3.76,5.77-1.33,3.71-3.71,7.15-.9,1.3-1.91,2.58-2.67,3.84l-2.32,3.83-2.26,4.2-3.47,6.15c-3.17,5.62-3.68,4.76-5.14,10.3-2.75,2.9-3.83,6.19-5.4,9.97-.66,1.58-2.08,3.4-2.7,5.3l-2.65,8.11c-.46,1.41-1.34,3-2.33,4.84Z"/>
  <path class="cls-1" d="M654.43,711.61c-.73-.55-1.86-1.88-2.47-2.48-2.89-1.23-4.58-3.21-6.82-5.33-1.61-1.52-3.62-2.93-5.42-4.41-.95-.78-1.69-1.75-2.56-2.62l-12.47-12.49-3.75-3.75-4.96-5.88-4.57-4.55c-3.61-3.59-8.45-9.31-11.53-13.47l-5.4-7.27c-1.87-2.51-3.47-5.07-5.15-7.81l-5.33-8.7c-.86-1.4-2.49-2.84-3.39-4.58l-3.97-7.63c1.04-.73,10.36,7.16,10.68,7.51l6.95,7.58,6.36,7.28,5.71,6.17c3.77,4.08,7.13,8.08,10.75,12.25l6.5,7.49,3.31,4.29c2.4,3.11,4.92,6.04,7.03,9.38.82,1.3,1.93,2.26,3,3.45l10,11.06,2.08,2.38c3.1,3.55,11.87,12.44,12.47,17.38l-7.05-5.25Z"/>
  <path class="cls-1" d="M151.03,715.64c-1.47,1.25-2.85,3.23-4.28,4.61l-3.01,2.91c-1.36,1.31-2.29,3.02-4.6,3.33,2.29-3.82,4.95-6.88,7.75-10.05l2.89-3.28,3.52-5.92,7.09-8.83,2.84-3.73c1.43-1.88,2.83-4.34,4.39-5.96l4.73-4.91c1.38-1.43,2.94-3.22,4.59-4.42l6.63-4.84c3.28-2.39,6.3-5.03,9.31-7.69,3.43-3.03,7.14-4.59,11.09-6.67l14.25-7.5c2.61-1.38,4.76-3.46,8.02-3.41-2.13,2.35-4.18,3.79-6.31,5.64l-4.28,3.71-3.44,3.06c-5.22,4.65-6.16,6.26-11.38,10.66-1.52,1.28-2.83,2.86-4.27,4.22l-7.72,7.33c-1.28,1.22-3.19,2.21-4.57,3.37l-5.97,5.03-4.44,3.64-3.8,3.06-3.67,2.91c-1.79,1.42-3.26,2.98-4.88,4.62-1.78,1.81-3.89,3.46-5.84,5.12l-4.66,3.98Z"/>
  <path class="cls-1" d="M441.32,841.53c-.77-1.4-1.39-2.66-1.81-4.32l-3.16-12.72-1.7-5.84-1.13-4.5c-.36-1.41-.34-3.18-.57-4.5-1.02-5.73-1.94-14.05-1.19-19.96.29-2.3.38-4.37.56-6.78.05-.68,1.9-11.07,2.2-11.92l6.16-17.65,2.77-9.83c.49-1.72,1.15-4.56,1.4-6.06.06-.34,1.48-.4,1.39-.07l-.38,1.41-1.12,10.5-1.31,10.08-1.93,16.62-.5,7.55-.72,14.44-.39,6.44c-.13,2.22-.32,4.31-.31,6.58l.04,9.68c.01,2.98-.06,5.91,1.24,8.52-2,5.1,1.32,7.45.45,12.33Z"/>
  <path class="cls-1" d="M461.66,685.29l-2.42,6.73c-.5,1.39-.79,2.41-1.75,3.82-.98-1.86-.12-2.93.18-4.49l.96-5.07c1.01-5.32,3.62-14.7,5.31-19.97l1.64-5.1,2.01-7.74,5.3-19.55,1.67-5.28c.98-3.11,1.89-6.32,3.34-9.13l4.62-8.99,3.22-4.74c.71-1.05,2.01-2.71,3.04-2.77l6.15,2.62-2.74,3-3.68,8.86-2.2,4.94c-1.97,4.43-.95,2.87-3.26,8l-4.47,9.93-1.36,3.71-3.41,8.06-6.72,17.29-1.28,4.2-4.13,11.69Z"/>
  <path class="cls-1" d="M560.88,504.35c-1.96-1.68-3.93-2.6-6.1-3.79-1.78-.97-2.94-2.23-5.57-3.43.73-1.26,2.13-2.79,3.3-4.22.7-.86,1.46-2.5,2.23-3.53l7.55-10.06,5.23-6.81c4.19-5.45-.04-1.78,4.82-6.56l2.27-3.72c.75-1.22,1.52-2.58,2.39-3.69l7.39-9.53c1.12-1.44,1.67-3.56,4.59-2.48-3.44,1.17-2.91,3.59-3.86,5.72l-2.72,6.13-3,7.14c-.93,2.22-2.38,4.33-3.18,6.67l-2.33,6.82c-.9,2.65-2.31,4.94-3.2,7.61l-1.65,4.97c-2.95,8.87-1.77,8.68-3.95,16.37l-4.21-3.61Z"/>
  <path class="cls-1" d="M485.04,130.72l-4.12,6.63-2.68,4.32-4.32,6.66c-2.37,3.66-4.21,7.3-6.4,11.41-1.18-1.36-.54-3.1.61-4.01l3.51-7.38,3.92-9.26,7.5-16c5.4-11.51,11.28-22.37,18.54-32.87,4.69-6.78,1.38-.32,5.44-8.07,1.64-3.14,3.19-5.96,5.27-8.76,2.74-3.69,5.01-7.35,7.36-11.27.48-.8,2.06-2.08,2.47-2.96,1.27-2.78,1.91-5.42,4.63-7.56-.87,5.54-5.24,9.74-6.76,16.38l-1.87,2c-.96,3.07-5.86,13.07-7.32,15.25s-2.48,4.75-3.74,6.97l-4.85,8.54-3.92,7.09c.36-.65-6.6,11.66-5.7,9.75l-1.75,3.69c.93-1.97-6.05,9.85-5.81,9.46Z"/>
  <path class="cls-1" d="M921.46,731.87c-4.82-3.1-5.51-4.21-8.91-7.47-1.46-1.4-2.93-2.63-4.27-4.27l-8.81-10.77c-2.45-3-5.13-6.14-8-8.69l-4.58-4.06c-1.3-1.15-2.89-2.75-4.22-3.7-6.98-4.97-10.46-7.94-16.27-14.27l-6.52-7.12c-1.06-1.16-1.98-2.81-2.76-4.2,2.74.99,4.45,2.7,6.43,4.63,7.77,7.6,8.21,6.51,14.69,12.2l2.72,2.39,10.07,8.39,5.91,5.13,5.23,4.75c1.98,1.79,3.65,3.64,5.47,5.63,5.18,5.66,10.02,11.39,14.14,17.92,1.15,1.83,2.24,3.19,2.83,5.54l-3.17-2.04Z"/>
  <path class="cls-1" d="M450.54,483.73c-4.75-3.42-6.02-8.16-10.53-14.32-3.07-4.19-.78-2.71-4.09-7.94-1.04-1.65-1.63-4.41-2.69-5.77-1.49-1.91-2.74-3.15-3.78-5.32-1.21-2.53-2.48-5.03-4.07-7.41l-5.15-7.72-3.07-6.01-3.31-5.25c-.55-.88-1.79-1.98-2.25-3.04-.7-1.62-1.32-3.17-2.07-4.57l-3.16-5.87-1.34-2.41c5.36,3.86,3.88,4.2,6.94,8.37l2.59,3.52,3.21,4.41,4.35,5.53,1.52,2.49c2.9,4.73,6.63,8.64,9.56,13.35l3.86,6.21c4.28,6.89,3.74,7.34,7.01,13.07,3.79,6.64,1.79,8.72,4.35,10.06.96,2.65,1.9,4.9,2.12,8.62Z"/>
  <path class="cls-1" d="M441.28,550.28c.15.52-.19,1.69-.57,1.6-4.51-1.11-10.28-2.01-15.32-2.59-1.67-.19-3.53-.18-5.17-.44l-10.66-1.67-5.98-.88-4.51-.55c-6.83-.84-4.41-1.78-13.58-2.08-2.96-.1-16.35-1.21-18.96-3.16l18.02.12,4.91.55,9.5.04,4.14.08c1.16.02,2.83,1,3.83,1.12l7.65.89c1.81.21,3.46.79,5.21,1.24l11.99,3.12,9.5,2.62Z"/>
  <path class="cls-1" d="M723.79,581.11c-2.07-.53-3.96-1.38-6.01-2.19l-13.93-5.51c-3.43-1.36-7.7-3.22-10.82-5.02-1.78-1.03-3.31-1.6-5.4-2.2l-6.51-1.89-4.23-1.25c-1.66-.49-3.25-1.03-4.96-1.38l-7.54-1.56c-1.32-.27-3.15-.67-4.41-.75-5.08-.34-9.6-1.3-14.61-2.01l-6.64-.94c-2.96-.42-5.48-.89-8.69-1.67.58-.91,1.53-1.04,2.45-.82,1.53.37,3.05.2,4.48.34l13.49,1.37,9.4,1.07c2.04.23,4.37.89,6.42,1.47l16.03,4.57,8.96,3.11c.71.25,2.11,1.08,2.89,1.33,4.16,1.34,7.86,3.02,11.82,4.74l11.24,4.88,11.43,4.53c1.67.66,3.26,1.01,4.35,2.44-2.19,1.2-3.08-1.1-4.64-1.5l-4.55-1.17Z"/>
  <path class="cls-1" d="M571.65,85.7c-1.21-3.53-2.28-7.02-4.16-10.19-1.19-2.02-2.1-4.02-2.96-6.19l-1.87-4.68-2.72-6.23c-3.6-8.25-3.03-9.13-8.95-16.8-.3-.38.14-1.79.62-1.81,1.09-.05,3.38,1.05,3.98,2.02l4.19,6.86,5.25,9.73,2.49,6.06c1.6,3.88,2.84,7.2,3.23,11.36.31,3.24,2.51,6.28.89,9.86Z"/>
  <path class="cls-1" d="M862.04,178.02l-18.21,2.86c.17-1.98,1.93-1.56,2.66-2.34,1.55-1.64,3.08-1.55,5.08-2.01,7.61-1.77,19.91-3.25,27.44-3.36s14.94-3.2,20.3-1.15c.38.15,1.39.85,1.19,1.17s-1.06.8-1.48.84l-5.98.59-14.46.69c-1.42.07-3.01.88-4.48.75-2.59-.23-4.65.22-6.98,1.2-1.51.64-3.41.48-5.08.74Z"/>
  <path class="cls-1" d="M512.7,494.77c-3.72.91-7.67,2.14-10.17,3.95-.29.21-1.42.29-1.71.29-.38,0-.02-1.18.39-1.39,3.21-1.65,6.87-3.78,10.16-5.79,1.81-1.11,4.56-.58,6.46-1.14,1.65-.49,1.91.02,3.52.27l4.86.76c-1.07-.17,7.08,2.04,6.94,1.98,4.77,2.04-20.71.03-20.46,1.06Z"/>
  <path class="cls-1" d="M458.21,406.34c-4.22-7.14.02-2.8-2.56-7.31-3.86-6.77-.38-2.82-2.83-9.26-.71-1.87-1.87-3.87-2.36-5.59-1.9-6.62-3.95-9.49-3.54-15.13,2.36,4.36,4.28,8.48,6.28,12.89,1.17,2.58,1.52,5.19,1.99,7.96.63,3.67,1.6,7.29,2.63,10.87.56,1.95.97,3.74.38,5.57Z"/>
  <path class="cls-1" d="M495,496.37c-4.3-.07-6.79-4.12-8.86-7.64-.86-1.47-1.92-2.22-1.58-4.33.14-.9-1.04-2.29-1.19-3.12l-.94-5.24-1.33-1.46c-.38-.42.03-2.19.6-2.25.78-.08,1.26,1.68,1.7,2.38,2.61,4.22,5.38,8.19,7.16,12.84,2.06,5.38,1.02,5.14,4.44,8.83Z"/>
  <path class="cls-1" d="M476.43,542.17l-3.45,4.26-.78.96c-.21.26-.62-1.12-.47-1.48.91-2.19,1.93-5.53,2.7-8.06.42-1.39,4.44-9.8,5.32-9.21.21.14.75.64.88.92l2.36,5.02c-1.13,1.09-1.92,1.83-2.65,2.74l-3.92,4.85Z"/>
  <path class="cls-1" d="M466.16,570.82c.2,3.45,3.19,6.06,2.56,9.65-5.68-5.22-6.09-14.73-6.18-21.39.63-.73,2.88-1.52,3.78-1.67-.32,3.06-.61,5.47-.45,8.29l.29,5.13Z"/>
  <path class="cls-1" d="M839.23,653.52l-2.52-1.25-7.02-4.97-5.86-4.15-3.21-2.29c-.21-.15-7.95-7.13-8.75-8.25,4.74,1.05,7.12,4.79,10.63,7.34l5.28,3.82c2.32,1.68,4.5,3.52,6.85,5.05,2.68,1.74,5.12,3.24,7.75,5.29-1.08.5-1.89.04-3.16-.59Z"/>
  <path class="cls-1" d="M770.18,218.67c-1.47,1.28-2.86,2.48-4.41,3.55-3.29-.01,8.5-8.59,7.7-7.85l3.29-3.06,8.33-6.17,11.49-7.66c2.21,2.4-8.79,8.49-10.69,9.49-.94.5-2.31,2.44-3.11,3.12-1.87-.23-6.56,3.32-7.75,4.36l-4.84,4.22Z"/>
  <path class="cls-1" d="M302.68,522.22l-7.33-4.06c-1.25-.69-2.35-1.04-3.6-1.57-2.42-1.04-4.75-3.12-7.27-3.93-1.15-.37-2.06-.63-2.84-1.24l-3.58-2.8c-.24-.19-1.36-.31-1.65-.41-.38-.14-.34-.92-.24-1.75,1.76.53,3.4,1.31,5.03,2.24,3.87,2.2,7.95,3.95,11.58,6.49,1.27.89,2.04,1.44,3.53,2.11,10.26,4.59,7.1,5.34,6.38,4.94Z"/>
  <path class="cls-1" d="M522.89,603.39c-.82,2.02-4.43,1.05-6.84,1.55-2.63-.62-5.8-1.95-8.36-3.01-2.12-.88-4.39-.82-5.63-3.36,1.1-.03,2.31.2,3.59.52l8.55,2.12,8.69,2.19Z"/>
  <path class="cls-1" d="M495.04,943.44c-3.34-1.7-4.84-4.53-7.16-6.9l-2.88-2.94-3.62-5.04c-1.54-2.15-3.49-4.12-3.27-7.13,3.53,3.65,6.3,7.93,8.91,12.03,1.77.06,8.17,8.67,8.02,9.98Z"/>
  <path class="cls-1" d="M787.61,616.38l-4.47-2.57-4.45-3.07-12.07-8.22c-.28-.19-.57-1.04-.57-1.33s1.02-.08,1.31.13c1.53,1.13,3.85,2.65,5.63,3.73l3.68,2.25,4.23,3.26,7.45,4.51c.17.1.74.59.67.74l-.42.9c-.1.22-.62-.13-.98-.34Z"/>
  <path class="cls-1" d="M558.18,593.47c3.05,3.74,2.74,5.62,4.97,10.37.18.37-1.26.88-1.61.54l-5.92-5.81,2.56-5.1Z"/>
  <path class="cls-1" d="M546.73,600.93c-4.18,3.12-3.1,3.85-6.93,3.53-.34-.03-.1-1.29.24-1.53l7.82-5.36c.52.29,1.07,1.7.67,2.01l-1.81,1.35Z"/>
  <path class="cls-1" d="M574.41,552.51c-1.94-6.6-1.26-5.38.82-12.59,1.72,4.23.69,8.35-.82,12.59Z"/>
  <path class="cls-1" d="M539.14,500.3c-2.84,3.53-7.75,2.78-10.38-.23,3.56-.11,6.72-.03,10.38.23Z"/>
  <path class="cls-1" d="M466.77,550.32c-.01.44-1.23,1.05-1.56.8-.42-.32-.88-1.59-.7-2.12l1.56-4.49c.86-2.47,1.96-.78,1.79-1.36.83,2.72-.93,1.93-1.09,7.18Z"/>
  <path class="cls-1" d="M806.85,191.6c-.21,2.23-6.34,6.06-8.11,5.95-.3-2.3,2.05-2.25,3.22-3.14,1.47-1.12,2.33-2.84,4.88-2.81Z"/>
  <path class="cls-1" d="M318.52,814.04c-2.81,2.1-6.11,3.94-9.26,5.75l-7.81,4.48c1.01-3.53,4.32-4.67,6.6-6.8l8.75-8.2,4.14-3.86,3.68-3.33,2.94-2.67c1.05-.96,2.88-2.1,3.64-3,1.91-2.29,3.98-3.69,6.26-5.57,2.46-2.03,4.86-4.43,7.12-6.71,2.66-2.69,5.39-4.92,8.24-7.37l7.48-6.42,3.06-2.5,13.12-11.05c-.19,2.63-1.92,3.96-3.35,5.71l-8.58,10.49c-3.5,4.27-6.89,8.38-10.9,12.24-2.45,2.37-4.66,4.86-7.43,6.97l-3.1,2.36-3.15,2.49-2.62,2.23-5.54,4.54-3.27,2.7c-1.99,1.64-4.16,3.15-6.26,4.72l-3.74,2.79Z"/>
  <path class="cls-1" d="M414.04,709.46c2.28-7.05,1.86-1.83,5.9-10.51l2.4-5.14,1.95-4.47c1.84-4.22,3.01-8.37,4.39-12.75.75-2.39,4.98-12.13,6.54-14.71.45,1.87.54,3.54.23,5.06-1.87,9.17-1.54,15.03-5.07,23.86-.63,1.56-1.82,3.06-2.55,4.36-1.63,2.94-3.35,5.1-5.77,7.48-1.13,1.11-7.31,8.7-8.01,6.81Z"/>
</svg>