<?xml version="1.0" encoding="UTF-8"?>
<svg id="Camada_1" data-name="Camada 1" xmlns="http://www.w3.org/2000/svg" viewBox="0 0 1024 1024">
  <defs>
    <style>
      .cls-1 {
        fill: #fff;
      }
    </style>
  </defs>
  <path d="M466.79,645.48l7.43-4.27,4.9-2.69c1.66-.91,3.79-1.63,5.61-2.34,7.58-2.96,15.19-2.73,22.56-.49,1.67.51,3.98-.23,5.71.99,4.81,3.38,3.74.75,8.22,6.62,2.11,2.77,1.13,6.57,1.1,9.79-.02,1.55-.42,2.54-1.24,3.96-1.13,1.97-.68,5.5-2.15,7.33-3.9,4.85-6.63,8.31-11.89,10.78l-6.25,2.94-3.45.65c-7.14,1.34-6.56.75-12.24.85-5.24.09-10.12,1.42-15.37,2.5-.67.14-.54,1.92-.06,2.28,4.1,3.09,5.94,4.81,8.34,9.08l3.82,6.81c1.39,2.48,2.41,5.95,2.96,8.79l1.49,7.59c.65,3.34.33,7.34.16,10.81l-.25,5.08c-.28,1.18-1.49,3.58-2.44,4.43-4.61,4.04-7.53,4.93-11.31,8.72l-12.62.89c-1.42,9.24,2.5,5.54,1.77,10.92-.24,1.75.45,2.84,1.23,4.31,1.17,2.19,1.33,5.31,2.37,7.58.76,1.65,1.7,3.22,2.06,4.94.7,3.42,1.5,6.72,1.81,10.15.35,3.93,1.92,7.19,3.09,10.89,1.38,4.32,4.57,12.1,6.76,16.28,3.47,6.59,2.97,4.03,6.19,11.24l2.63,5.89c3.55,7.96,2.7,11.09,4.04,17.75,1.27,6.31,2.14,12.38,2.76,18.71.26,2.67.8,4.99.74,7.8-.06,2.78,1.45,5.83,2.2,8.61,2.3,8.5,1.88,17.34,3.3,26.03l1.03,6.28.65,14.53.49,7c.35,5.05-.13,9.97.77,14.96.77,4.24,3.67,7.66,5.36,11.49l2.54,5.74c.81,1.84,1.71,3.06,2.64,4.46l2.85,4.33c.93,3.45-3.44,6.59-7.06,6.3-3.14-.26-5.65-.4-9.1.14l-3.57-2.45-.86-7.47-1.03-14.93c-.31-4.47-.92-8.98-4.05-12.29-.97-1.02-1.39-3.61-2.25-4.72-4.39-5.73-7.09-11.02-10.15-17.49-.81-1.73-1.94-3.39-2.39-5.37s-1.55-3.27-2.57-5.01c-1.39-2.38-2.17-5.45-3.34-8.07-1.02-2.28-2.57-4.18-3.51-6.45l-1.61-3.87c-1.45-3.5-2.99-6.67-4.47-10.13l-5.87-13.66c-1.32-3.08-2.49-6-3.49-9.17l-1.49-4.75-2.02-6.26-2.23-8.43c-1.27-4.81-2.05-9.76-2.97-14.73l-1.58-8.54c-.49-2.67-1.69-5.33-2.24-8.05l-1.42-7.01-2.31-6.14c-4.15-11.02-4.62-8.06-9.15-16.36-3.27-6-4.37-2.02-7.18-13.62-2-8.27-1.64-4.27-2.77-12.38l-.78-5.56-.17-5.51-.32-9.84c-.14-4.17-.16-7.18.99-11.23.45-1.59.24-4.78,1.02-6.28.11-.21.12-1.2-.1-1.15s-1.02.2-1.21.42l-5.89,6.68c-1.56,1.77-3.23,2.53-4.94,3.73-2.59,1.82-5.14,3.86-7.56,5.86-2.04,1.68-3.7,1.88-6.33,1.61-9.02-.93-7.75-2.21-15.46-4.12-1.94-.48-3.21-1.65-4.83-2.58-4.61-2.65-9.19-2.99-11.59-8.82-3.35-8.12-4.71-3.55-2.87-14.22.19-1.11.19-3.78-.79-4.15-1.35-.48-3.34-.79-4.63-.73-7.92.37-9.96.07-16.03-4.25-1.49-1.06-2.83-2.06-4.03-3.38l-2.7-2.95c-1.23-1.35-3.89-1.92-5.35-3.19-1.83-1.59-3.74-4.04-5.16-6.13-1.86-9.17,4.18-11.95,11.1-14.32l10.46-3.58c2.13-.73,3.9-.28,6.12-.47l13.81-1.18c1.45-.12,4.26-1.23,5.62-1.69,2.31-.78,3.07-.47,5.13-.39l5.95.25c1.32.05,3,.09,4.23-.04l7.15-.77c1.6-.17,3.32.05,3.35-2.13-3.66-1.51-7.97-2.35-11.49-4.26l-12-6.52c-1.56-.85-3.07-1.91-4.55-2.85-2.77-1.75-4.44-4.2-6.48-6.6s-4.33-4.07-4.86-7.6c-.86-5.72-2.94-3.9-3.68-12.99-.32-3.89,3.34-5.51,5.07-7.53,2.69-3.15,5.39-4.53,9.41-5.56,4.32-1.11,7.64-1.83,12.28-1.66l9.04.35c1.22.05,3.17.96,4.56,1.29,2.67.64,5.75,1.28,7.85,3.06,1.12.95,2.93,2.58,3.63,3.66l4.35,6.69c1.34,2.06,4.27,8.04,4.76,10.42,5.1,3.19,4.16,4.7,8.4,10.21l6.34-.78c4.81-4.39,5.63-.25,10.75-3.71l-1.21-4.86-4.3-3.13-4.82-.26c-.46-3.96-1.43-7.72-3.24-11.4-1.13-2.29-1.46-4.73-2.02-7.13-.42-1.78-.36-2.6.12-4.43.66-2.51-.28-5.72.4-8.32l1.84-6.99c.8-3.02,1.91-5.89,2.6-8.8.99-4.17,1.24-8.3,3.47-12.24s-.08-5.98,1.74-12.19c.66-2.25.73-4.38.88-6.85.08-1.42,1.07-3.57,1.02-4.88-.26-6.28.99-2.88,1.19-10.73l-5.47-1.22c-3.09-.69-3.27-3.43-3.62-6.08l-.98-7.5c-1.34-1.01-3.98-1.96-5.27-3.09l-4.27-3.76c-1.57-1.39-3.24-2.47-4.91-3.71-1.81-1.35-3.59-2.96-5.41-4.47s-2.98-3.76-4.32-5.64c-5.45-7.68-1.63-7.78-1.83-16.82-.06-2.78-.05-5.1,1.08-7.71,1.67-3.86,1.63-7.69,1.86-11.87.1-1.9,3.88-2.86,5.33-2.1l5.59,2.95c.82.43,2.68.74,3.53,1.27l6.88,4.26c5.6,3.47,1.27,1.37,7.14,7.89,2.21,2.46,4.56,4.71,6.62,7.3s1.6,7.52-.64,9.96c-.85,6-1.65,11.79-2.17,18.08-.22,2.62,1.1,5.63,1.04,8.21-.43,1.11-1.61,3.4-1.47,4.55.06.51,1.62.98,2.09.77s.91-1.11,1.03-1.77l.96-5.18c.19-1,1.26-3.1,1.2-4.12l-.41-7.09c-.08-1.36.54-3.2.62-4.41.15-2.43.5-4.55.87-6.95.52-3.32.33-6.68,1.61-9.99,1.77-4.6.79-5.83,2.73-13.23l4.82-18.37c.45-1.15,1.22-2.5,1.62-3.88,2.01-6.81,5.11-10.49,5.31-11.01l2.56-6.97c.69-1.88,1.96-3.38,2.81-5.13l2.57-5.34c.65-1.35,1.18-3.24,1.76-4.83l1.36-3.74c-.05-2.09.1-4.2,1.52-5.87l.82-.96c.17-.2-.59-1.19-.8-1.04-.76.54-1.98,1.74-2.92,2.66l-4.09,1.32c-.31,2.94-7.23,7.41-9.67,7.78-1.64,2-3.21,3.72-5.95,4.77-5.2,1.99-12.51,5.24-16.97.76-.37-.37-1.44-.83-1.85-.83.13,0-6.33,6.13-7.81,7.09-2.66,1.71-5.03,3.14-7.61,4.99-3.24,2.32-6.72,4.16-10.28,6.14-6.3,3.51-5.45,1.85-13.28,3.3-6.12,1.13-9.51-1.18-14.37-2.85-.23-.08-.02-.46.19-1.17,1.29-4.36-6.2-4.89-1.33-13.56,1.32-2.35,2.25-4.77,4.15-6.77l4.65-4.88,5.98-6.24c-7.77-1.04-16.39,2.12-23.08-2.67-1.74-1.24-4.26-2.14-5.78-3.58-3.69-3.53-.79.22-7.94-4.2-1.76-1.09-3.8-1.87-5.55-3.12-2.15-1.53-3.72-6.87-2.66-9.29,4.14-9.52,2.25-5.83,7.34-12.17l6.04-7.52c.98-1.21,2.4-2.2,3.68-3.22,2.05-1.63,3.93-3.51,6.32-4.53,1.79-.77,3.2-1.74,4.85-2.65l6.52-3.58c4.02-2.21,10.46.84,15.37-12.24,1.86-1.32,3.55-2.87,5.32-4.59,3.37-3.29,11.26-9.24,15.76-9.97,3.15-.51,7.23.18,10.08,1.42s5.39,4.02,7.36,6.39l2.73,3.28c1.49,1.8,2.41,3.43,4.41,4.82,1.45,1.01,2.54,2.81,3.54,4.3l4.46,2.16c3.57,1.73,7.62,1.44,11.67,1.29,2.48-.09,4.69-.49,6.39-2.13,2.57-2.47,4.32-5.08,5.18-8.54l5.35-5.66c2.35-2.49-6.73-4.92-8.33-5.13l-5.33-.72c-4.23-.57-8.46-.33-12.37-1.2l-6.88-1.53c-4.11-.91-7.77-2.59-11.57-3.86s-6.45-2.55-9.41-5.33c-3.28-3.08-7.27-5.4-8.04-10.43-1.12-7.3-1.53-14.85.69-21.86l.93-1.05c.25-.28-.74-.88-1.08-1.13l-5.21-3.76c-1.86-1.35-3.48-2.69-4.22-4.65-2.22-5.91-2.1-11.31-.77-17.31l1.43-6.43c.35-1.58.85-2.81,1.49-4.22l2.81-6.12c1.72-3.75,3.8-6.97,6.46-10.01,2.24-2.57,4.45-4.21,7.92-4.83,6.46-1.15,10.6-1.08,17.02.34,2.55.57,4.56,1.27,6.56,2.98,4.12,3.52,2.94,3.9,5.35,7.63,2.77,4.28,6.07,8.25,9.87,11.58,2.8,2.45,4.95,4.98,5.84,8.76l1.52,6.44,3.81.36c2.65,1.22,5.33,3.34,8.01,4.07,4.94,1.33,3.56,1.87,9.85,4.12,5.17-7.52,2.08-4.01,4.46-10.69l3.36-9.46c1.04-2.93,1.01-6.37,1.9-9.36,1.08-3.64,1.48-7.55,3-10.96l4.02-9.05c2.93-6.59,2.85-5.08,5.12-10.45l2.33-3.64,2.69-5.3c.73-1.44,2.16-2.91,3.17-4.26,1.38-1.84,2.18-3.76,3.27-5.82l2.78-5.27,4.56-8.34c.82-1.51,1.79-3.25,2.7-4.7l2.5-4c-2.36-1.49-3.89-1.75-6.3-2.04-4.73-.57-8.88-2.87-13.14-4.73l-7.49-3.27-3.07-1.39c-3.61-1.63-6.93-3.29-11.05-2.83l-2.21-1.8-5.39-.37-5.9-.14c-4.61-.11-7.51-1.58-10.89-4.33-1.75-1.42-3.42-2.7-4.77-4.68-1.63-2.39-2.57-4.19-2.11-7.21.96-6.27-.78-7.33,5.11-14.85.56-.72,2.46-1.31,3.24-1.77,9.98-5.82,11.45-2.25,16.63.52,7.11,3.79,5.37.05,15.31,7.21.97.7,2.86.91,4.34.97.51-2.69-.95-4.17-2.01-6.48-3.34-7.21-2.37-19.26.68-26.36l2.78-6.47c.6-1.4,2.65-3.71,3.73-4.92,2.65-1.11,5.22-2.04,7.94-2.93,2.23-.73,4.46.48,6.52,1.05l6.7,1.87c3.43.96,6.63,3.25,9.87,4.49.57-.6,1.15-1.71,1.2-2.19.43-4.33,5.13-9.55,8.07-12.49l2.5-2.49c1.66-1.65,3.06-3.19,4.82-4.71,5.37-4.65,7.67-9.89,14.65-11.89,4.59-1.31,7.88-.87,10.15,3.39,1.03,1.94,2.57,3.95,3.26,6.07.64,1.96,1.46,4.21,1.74,6.06l.96,6.21c.41,2.64.53,5.6,1.71,8.04.69,1.42.76,3.39,1.18,4.62,1.8,5.23,1.08,9.02-1.78,13.52-3.94,6.2-5.64,10.21-12.49,15.43-.58.73-1.37,2.64-2.16,3.23-1.66,1.25-1.94,2.85-2.75,4.58s-3.54,3.19-3.69,5.53c-.24,3.67-1.07,6.73-2.21,10.87,6.01-1.84,4.84-4.29,9.9-5.16,2.94-.51,5.96-4.39,7.66-6.45,3.81-4.65,6.48-8.65,8.62-14.21.13-.34.98-1.37,1.05-1.69.45-1.92,1.52-5.35,1.71-7.35,1.06-11.16.82-4.65,2.95-14.78l2.87-1.64c.69-1.79,2.19-2.53,3.27-3.64,4.69-4.8,11.1-5.41,16.24-.66l4.52,1.28c.82.23,1.76,1.01,2.19,1.64l2.78,4.06c4.25,6.22,2.36,10.75,1.34,17.07l-.84,5.2-1.19,7.98c-.26,1.71,1.05,4.37-.02,5.99-3.67,5.55-1.3,3.84-7.06,7.79-2.1,1.44-4.78,2.29-7.09,3.48l-5.3,2.73c-.29.15-.89.57-1.12.75-.3.24.41,1.22.76,1.43l3.71,2.22c11.67,6.96,3.05,3.49,17.46,8.97l8.73,3.32c2.79,1.06,11.05,3.54,10.97,7.79-.2,10.48-4.72,17.21-13.57,22.27-4.46,2.55-13.26,5.74-18.22,6.7s-10.04,1-15.12,1.63-10.38,1.13-15.68,1.44c-3.1.18-5.91.21-8.92.9-2.07.48-4.57.12-6.44.36-2.46.32-3.79.69-6.26-.35-3.55-1.51-7.28-4.37-6.41-8.92.97-5.1.93-8.02-.05-13.3-.28-1.51-1.11-3.41-2.3-3.63-.26-.05-1.1.1-1.45.17l.96,2.88-4.03,1.52-.84-1.19c-.17-.24-1.27-.02-1.24.27.5,4.73,1.26,3.07-.87,6.72-.59,1.02-1.53,2.85-1.82,3.91l-5.38,19.41c-.58,2.09-1.56,3.92-2.65,5.87l-.68,2.38-3.22,5.36-5.84,9.61-1.24,2.06c-2.42,4.94-4.5,6.77-7.7,11.81-1.56,2.46-2.83,4.64-4.69,6.91-1.18,1.44-1.93,3.49-2.95,5.1-1.33,2.1-2.88,4.16-3.17,6.83l-1.26,11.61c-.05.42,1.35,1.41,1.58,1.06l2.56-3.93,3.6-4.38,4.75-5.75,4.88-5.67c3.55-4.11,7.04-7.82,12.19-10.69,2.45-1.37,15.23-3.96,19.51,1.79.54.73,1.18,2.3,1.69,3.39,1.06,2.24-.23,7.92-1.41,10.58-2.96,6.64-3.69,7.38-7.31,13.25-1.02,1.66-1.45,4.07-3.02,5.46-3.05,2.7-2.59,5.93-2.27,5.9l1.03-.09c2.33-.21,5.11-1.2,7.27-2.01,10.17-.34,8.49,1.59,11.16,1.91l6.62.81c2.61.32,5.28,1.35,7.62,2.59l7,3.7c-.5,1.75-.21,2.77.59,3.93,1.4,2.03-.27,4.47-.85,6.48-.54,1.85-2.29,3.03-3.04,4.29-5.26,8.75-1.46.49-10.02,10.05-3.05,3.41-2.97.7-6.98,4.68-4.74,4.69-4.3,3.31-9.38,7.46-1.86,1.52-4.58.8-6.7,1.52l-4.66,1.59-4.96,1.66c-16.97,5.69-12.99-.6-30.46,3.31-2.13.48-4.07.89-5.63,2.23-2.43,2.09-4.98,1.82-7.83.99-1.07-.31-3.41.01-4.47-.58-1.34-.75-2.24-3.06-3.06-4.39-.49-.79-2.36-1.37-3.05-1.94-2.07-1.69-4.73-2.18-6.83-.15l-3.13,3.02c-.73.7-2.69,1.54-3.64,2.12-.78,2.41-1.59,4.33-2.98,6.14l-2.16,2.81c-1.76,2.29-3.41,3.77-6.14,4.89s-5.38,1.98-8.46,1.98c-2.63,0-5.38.34-7.93-.19-4.95-1.02-5.38-1.33-10.08-4.25-3.55-2.2-10.75-11.71-13.41-15.51-2.95-4.2-8.74-5.22-12.98-3.12l-6.38,3.15c-.62,1.3-1.26,2.02-2.35,2.79-1.91,1.35-3.41,3.82-5.08,5.31-7.54,6.73,3.47,8.8-5.69,11.54-.18,2.24-.32,4.96.17,7.09l1.15,5.04c.42,1.84,3.31,6.03,4.64,6.97,3.9.68,3.55,2.56,8.72,3.46,10.92,1.9,16.44-2.21,27.38-5.16,3.71-1,5.49-4.38,11.58-5.7.44-.09,1.33-.89,1.7-1.07l12.79-5.97c1.85-.86,3.79-2.89,5.72-3.06,2.26-.2,2.69-.75,4.31-1.9,1.86-1.32,4.08-2.73,6.03-3.85,1.72-.99,8.7-4.54,8.35-7.37l5.87-.63,1.43,7.4c-6.46,1.68-5.94,5.53-10.71,9.75l-4.55,4.03c-2.04,1.8-3.93,3.69-5.91,5.64l-4.31,2.01c-1.88.88-3.43,1.91-5.25,2.86l-4.72,2.45c-1.51.78-3.22,2.07-4.69,3.16-13.14,9.79-7.23,7.75-9.94,18.34-1.81,7.09-6.33,7-7.3,15.16l-1.78,2.45c1.85,1.32,3.87.46,5.91.16,3.31-.49,5.77-1.75,7.77-4.44l3.58-1.79c2.82-1.41,5.21-3.45,7.19-5.92,4.69-2.02,1.93-1.54,7.52-5.45.55-.39,1.45-1.58,1.99-2.04,2.28-1.93,5.03-3.56,5.83-6.82l-.58-3.57,3.32-1.06c3.12-.99,3.98-4.63,5.58-6.99s2.71-4.59,3.84-7.16l4.11-9.3,2.82-7.02c1.7-4.22,3.2-3.91,2.83-4.62l-.99-1.91c1.24-2.09,4.72-2.3,6.93-1.35-.16.9-.62,2.14-.34,2.64.34.58,1.95.72,2.71.91l1.37.34c2.26.56-5.08,2.01-4.91,4.89.29,4.9-1.42,2.79-3.94,8.56l-1.19,2.73-2.2,4.62c-1.02,2.15-3.24,4.09-3.8,6.39-.35,1.42-.56,2.23-1.6,3.17-.61.55.86,2.76,1.68,2.59,1.52-.3,3.85-.86,5.12-1.2,1.85-.5.74-3.81,2.55-5.47.99-.91,2.46-1.21,4.03-1.1,4.39.32.93,7.03,4.33,3.78,1.32-1.26,3.18-1.37,5.11-1.87,2.68-.7,5.39-2.4,8.02-3.37,2.83-1.05,5.34-2,8.1-3.42,7.79-3.99,7.61-1.85,15.79-5.03,2.77-1.08,6.47-.52,9.56-.68,4.18-.22,11.69.27,14.85,2.7,3.88,2.98,5.46-4.82,6.7-7.15,2.23-.65,5.7-5.48,7.72-7.02,1.89-1.44,3.77-2.15,5.18-4l5.12-2.42c3.47-1.64,6.8-3.65,10.41-4.92,4.1-1.45,8.02-2.71,12.2-3.8,2.62-.68,5.5-.79,8.19-1.34,3.93-.8,6.79-.38,10.47.5,3.24.77,4.57,2.44,5.09,5.55,1.07,6.3-.14,10.04-2.86,15.46-1.6,3.19-3.35,6.23-5.31,9.3-4.43,6.94-2.98,1.96-8.07,9.82,4.89,2.47,6.58-.28,12.58,4.06.69.5,2.01,1.26,2.42,1.95,2.25,3.76,2.19,8.28.79,12.39-2.69,7.87-2.16,2.01-3.88,7.35-.6,1.86-2.89,3.04-4.35,4.37-8.83,8.03-4.98,5.68-14.68,10.84l-4.32,2.29c-5.49,2.92-11.78,3.04-18.37,3.66-.44,1.59.58,3.75.55,5.24-.08,4.57-1.52,9.1-3.76,12.89l-1.93,3.27c-.51.81-2.03,2.36-2.93,2.82l-6.32,1.35c-4.55.97-8.41,4.83-14.58,5.85-9.6,1.59-.06,1.72-13.34,2.44-2.69.15-5.76-.27-8.19-1.01l-4.65-1.42c-5.72-1.74-4.33-1.86-9.17-4.77-1.12-2.23-2.68-3.65-4.38-5.45-.64-.68-4.69-6.22-5.17-7.61l-2.69-7.82c-.82-2.38-.61-6.02-.99-8.42l-4.96-1.47-4.72-1.4c-2.21-.66-3.8-2.08-5.73-3.38l-3.16-2.12-2.18-3.8c-.1-.18-1.15-.36-1.24-.17l-.4.8-2.05,4.06-.76,4.66-2.57,4.44c-1.61,2.79-1.16,5.02-1.39,8.07-.26,3.38-1.13,7.23-2.01,10.67l-1.79,7.1-.98,4.61-3.19,10.5c-.99,3.27-1.71,23.61-1.06,26.49.83,3.65-.06,8.85-1.09,12.49-.74,2.61-.87,5.75-1.86,8.26l-5.93,15.09c-2.14,5.45-.26,3.34-2.28,12.05-.88,3.79-.67,8.38-1.16,12.82-.37,3.38-1,7.35-1.6,10.8-.23,1.35,3.12.72,8.63,2.69,2.46.88,3.57,2.07,4.06,4.61.84,4.42,1.88,9.05-.32,13.36l-2.18,4.29-6.2,10.83c-1.53,2.66-3.24,5.33-4.87,8.01l-.76,1.04c-.17.24.6,1.01.85.87,2.74-1.57,3.72-5.15,4.18-5.62l5.75-5.87c2.4-2.45,8.09-3.41,8.57-5.67.35-1.62.56-3.47.64-4.98l.49-9c.14-2.49.38-4.79.81-7.22,1.55-8.75-.83-5.91,4.5-15.63l3.05-2.32c.81-5.68.58-1.92,4.73-7.83l2.48-3.54c1.96-.54,3.11-1.35,4.51-3.03,5.26-6.3,11.12-8.16,14.19-13.16.65-1.07,2.96-3.08,4.08-2.6l8.42,3.6c1.67.71,3.74,1.13,4.65,2.52,1.69,2.59,1.49,4.75,1.44,7.46l-.24,11.25,3.43,2.44c2.11,6.74,6.13,6.56,3.5,12.58-.23.54.15,1.92.62,2.12,3.39,1.41,3.28-1.03,6.53,1.79l4.98.2c6.46,4.83,4.18,3.11,8.69,9.93l-.68,5.97c-.18,1.54-1.65,5.25-2.6,7.26l-2.2,4.66c-7.82,6.62-6.72,5.86-15.8,10.53-5.11,2.63-11.56,2.84-16.87,1.38-6.97-1.92-9.72-2.36-16.82-3.22l-9.46-1.16c-4.6,2.09-8.36,1.95-9.58,7.84l-1.93,1.1c-1.57.89-3.66,1.45-5.32.47l-4.66-2.78-3.98,3.26c-.56,1.7-1.4,2.18-2.73,3.36l-5.66,5.02c-4.06,1.68-6.76,3.88-9.74,7.04-1.35,1.42-11.13,9.33-7.86,9.56,5.65.4,10.39,2.12,13.75,6.59.7.92.68,3.18,1.11,4.24.83,2.05,1.39,3.78.93,5.9-.14.62.19,2.17.74,2.41.64.28,2.16-.12,2.83-.65l4.86-3.86ZM561.42,129.42c.17-3.79,1.42-7.85,3.65-10.88l2.59-3.53c1.22-1.67,2.55-4.05,3.78-5.5.68-.8,2.81-1.57,3.51-2.57l2.54-3.59,4.63-6.35c1.5-2.06,2.74-4.51,4.07-6.92,1.04-1.88.19-4.68-.54-6.58-1.16-3.03-1.26-5.86-1.72-9.01l-.89-6.16c-.48-3.33-1.92-11.86-4.66-13.47-2.48-1.45-4.93,1.04-6.79,2.07-1.63.89-2.43,2.39-3.59,3.41l-5.92,5.16c-2.37,2.06-3.59,3.73-5.39,6.24-5.42,7.55-7.44,3.53-5.46,16.42l.87,5.67c.29,1.89-1.29,3.77.63,5.64,1.08,1.05.1,2.53.15,3.61l.79,17.89c.06,1.4,0,2.63-.07,4.14-.06,1.22,1.08,10.67,1.27,11.53,1.03,4.47-.43,6.16.96,6.34,2.73.35,5.43-10.26,5.58-13.57ZM472.75,119.83c-3.04,1.44-3.65,3.65-3.92,6.59-.24,2.61-1.15,5.73,1.34,7.53,7.66,5.54,4.12,5.52,14.02,5.29,6.7-.16,6.64,1.67,12.92,1.9l2.43,2.01c3.67-.75,8.16,1.89,11.04,3.34,1.72.86,12.03,5.08,12.64,4.67.49-.34,1.01-.84,2.07-1.8l1.23,3.22c1.1.22,2.99.35,3.81.7l5.92,2.51c1.69-6.34,4.81-3.15,10.26-4.71,3.92-8.33,1.2-5.52-.55-14.56-.85-4.37-1.05-8.49-.48-12.99.92-7.28-.6-14.03-1.12-21.2l-.46-6.38c-.2-2.81-2.21-7.08-4.83-8.38l-5.71-2.85c-4.25-2.12-9.9-5.92-16.31-2.44-2.57,1.4-2.99,3.35-4.12,5.76s-3.65,6.41-3.84,10c-.14,2.76-.3,5.77.2,8.29l.93,4.7c1.72,8.69,5.4,8.8,5.97,9.43l5.61,6.27c1.56,1.74,3.83,2.98,5.36,4.54,3.17,1.79,5.01,2.65,7.56,5.12,1.6,1.56,3.86,2.77,5.93,4.12,1.29.84-1.24,4.25-2.91,4.51-.67.1-2.03-.56-2.61-.99l-4.1-3.03c-2.67-1.97-5.76-3.59-8.17-5.78-3.09-2.82-7.72-7.66-12.28-5.72-2.17.93-3.77.05-5.74-.62l-4.91-1.65c-2.14-.72-4.03-1.96-6-2.85-2.79-1.26-5.46-2.35-8.23-3.9-8.44-4.73-8.94-2.57-12.99-.65ZM606.37,132.73l9.34-5.36,3.25-1.78c2.8-1.53,4.35-3.77,4.55-7.14l.23-3.99c.29-5.02,1.05-9.25,2.52-14.13.65-2.17.54-5.85-.07-8.08-.22-.82-1.26-2.38-1.79-3.21-2.83-4.39-13.92-5.92-16.06-2.29l-2.1,3.57c-1.67,2.84-1.95,6.3-2.77,9.43-.73,2.75-1.73,5.19-1.65,8.17-1.82,1.46-1.75,3.97-2.68,5.88-2.24,4.59-4.82,8.99-7.47,13.35-.95,1.57-3.4,2.43-2.56,4.65l9.21,2.5c1.67.45,2.76,1.22,4.37-.14.7-.59,2.68-.87,3.67-1.44ZM608.38,185.3c3.44-.4,6.45-.95,9.66-1.57,1.61-.32,4.01-.05,5.4-.68l8.82-3.99c1.76-.8,4.33-2.66,6-3.72.77-.5,2.04-2.12,2.64-2.81,2.22-2.53,3.25-5.48,4.1-8.82-6.06-5.31-8.16-3.05-9.89-4.24-2.04-1.4-3.74-2.16-6.12-2.63-2.8-.55-5.36-2.27-7.97-3.23-2.33-.85-4.22-1.55-6.04-3.09l-4.38-3.71c-1.47-1.25-4.27-1.85-6.02-2.92-1.33-.81-2.93-1.79-4.33-1.67l-4.73.42c-5.33,2.23-10.56,3.22-16.41,4.04l-4.65.66c-2.03,1.17-4.69,2.68-6.61,4.02-1.76,1.23-2.37,5.88-2.1,7.95l1.09,8.44c.17,1.32,1.25,3.24,1.33,4.66l.45,8.63c.1,1.91-.13,3.93-.39,5.73l3.33,1.25,10.49-.06c2.92-.02,5.84-.29,8.64-.83,1.58-.31,3.28-.18,4.82-.36l12.89-1.49ZM538.85,172.84l1.71-3.64c.1.02-.88-.21-1.2-.28-.21-.05-.68.45-.81.7l-3.93,7.73c-.72,1.42.47,3.47,4.23-4.51ZM497.78,284c.36.51,2.45-.39,2.64-1.01,1.23-3.97,2.11-9.4,2.75-13.6.3-2,.37-2.92.05-4.9-.39-2.37-.23-6.32.82-8.71,1.28-2.92,2.97-5.37,3.94-8.47,2.63-.2,2.12-2.35,2.97-4.12,1.37-2.83,3.67-5.39,5.27-8.07,1.32-2.22,2.44-4.37,3.98-6.42,3.47-4.63,5.64-10.27,9.45-14.55,1.24-1.4,1.54-1.51,2.3-3.55l5.05-13.59,2.14-8.38c.16-.61,1.32-1.77.99-2.23-2.09-2.87-5.57.36-6.21-6.53-1.46,1.92-2.28,3.57-3.32,5.87-.56,1.23-2.98,2.72-3.5,4.07-.81,2.1-1.63,3.53-2.84,5.34l-4.06,6.05c-.94,1.4-1.66,3.45-2.67,4.73-1.59,2.03-2.27,3.7-3,6.18l-1.93,3.45c-1.8,3.22-3.92,7.03-4.75,10.66l-1.98,8.67c-.69,3.02-1.66,5.71-2.23,8.76-1.56,8.34-1.22,3.78-3.58,11.38l-4.73,15.21c-.67,2.17.42,4.9.89,6.89-.26,2.18.37,5.17,1.56,6.85ZM450.83,289.91l1.73,2.65c1.96-.65,1.44-2.75.5-4.08-.99-1.4-1.28-2.95-1.71-4.71-.98-4.04-1.99-7.89-.59-11.84.51-1.44.66-3.29.97-4.72,1.3-5.9,1.74-4.84,6.19-10.36,2.75-3.42.2-2.85-1.73-8.98l-3.16-3.04-5.19-5.65c-.91-1-1.98-2.65-2.67-3.99l-3.12-5.99c-.91-1.75-1.91-3.45-3.9-4.17-6.51-2.34-15.06-3-20.83,1.47l-5.09,8.13c-.64,1.02-1.02,2.83-1.56,3.97-2.92,6.25-5.79,11.97-4.23,18.78,1.94,8.47-.8,1.77,3.93,8.04l3.68,2.2c2.18,1.31,3.57,2.84,6.25,2.93,5.4.19,10.14,2.59,14.69,5.06,2.2,1.2,4.52,1.98,5.32,4.7l3.24,1.17c-.11,1.04-.5,2.17-.06,2.48l1.68,1.15c1.83,1.25,4.5,3.03,5.66,4.81ZM516.36,291.42l4.67-1.13c10.6-2.56,2.98-1.78,12.26-4.72,1.74-1.45,4.36-4.18,5.49-6.21l7.76-14.03,3.47-3.26-.08-1.79c1.03-1.62,1.87-3.17,2.64-4.84l1.31-2.84c.92-2,1.44-5.53-1.12-6.88-1.23-.65-3.94.09-5.36.41-2.77.62-4.87,1.6-7.26,2.9l-5.85,3.18c.11,6.17-5.26,4.91-6.98,11.03l-3.68,2.73c-.81,1.45-1.67,3.07-2.79,4.32s-1.94,2.95-2.89,4.17c-1.26,1.64-3.38,2.44-3.96,4.72l-1.3,5.14-2.25,1.7-1.89,7.19,7.79-1.77ZM479.57,314.7c5.08,3.25,3.39.32,11.35,4.46,1.92,1,3.92-1.7,3.81-3.6-.39-7.23-1.6-10.91-2.87-17.13l-1.64-7.99c-1.29-.78-3.85-1.69-4.23-3.07-2.58-9.33,3.43-16.13-2.26-17.16-.93-.17-2.12-1.31-3-1.75-2.32-1.16-9.01-3.97-10.92-4.47-.87,3.81-.01,6.05,2.5,7.94.06,1.03-.15,3.21-.81,3.94-1.15,1.13-2.43,2.66-3.33,3.98l-3.43-.57c-2.11-2.15-3.2-13.05-3.54-13.04l-.9.02-2.22,7.83c-.97,3.44.02,5.73.89,8.94l1.48,5.5c.35,1.31.47,3.3,1.67,4.09s3.08,0,4.65-.47l.37,4.74c-5.06,5.97,8.15,15.06,12.43,17.81ZM464.96,314.19c-1.12-2.61-3.18-4.67-5.02-6.28l-.87-2.39c-3.46-.02-5.96-1.86-7.63-4.86-.59-1.07-2.96-2.21-3.59-3.2-3.83-5.94-4.51-4.75-9.18-9.35-1.97-4.85-3.99-4.83-6.87-5.6l-5.37-1.43c-1.99-.53-3.94-2.22-6.14-2.13-.86.04-2.54.48-2.72,1.19l-.7,2.73c-.5,1.97-1.41,8.16.71,8.98l-.65,2.03c-.53,1.67,1.24,3.7,2.19,5.13,2.86,4.29,4.7,5.6,9.34,7.91,3.03,1.51,6.11,3.43,9.7,3.57s5.63,1.47,10,2.47c5.67-.04,10.86.37,16.79,1.23ZM514.49,325.17c1.68-.35,3.19-.84,4.56-.84l9.02-.02c2,0,3.82.11,5.73-.38l6.98-1.81c1.9-.49,3.44-.84,5.17-1.43,2.76-.93,13.08-3.37,12.99-5.89,2.55-.63,4.67-2.79,6.86-4.4l4.1-3.02c2.09-1.54,15.08-12.07,10.45-14.46-1.14-.59-1.95-1.14-2.93-1.8-8.29-5.6-11.78-2.22-16.62-5.51-5.38.56-10.14,1.22-15.21,2.28-2.05.43-3.26,1.65-4.85,2.68-2.43,1.57-4.81,2.98-7.08,4.92l-4.65,1.27c-4.51,1.23-5.84-.69-13.11,5.6-1.56,1.35-4.31,2.31-5.96,4.96-5.25,2.49-2.19,2.99-9.59,5.42,1.49,3.6-.3,7.51,4.22,7.93-1.68,2.1-1.86,3.2-1.8,5.91,0,.41,1.5.74,1.98.64l9.74-2.05ZM585.34,373.95l8.58-1.18c1.61-.22,3.16-.4,4.73-.5,9.38-.56,15.44-5.82,21.64-11.94,4.5-4.44,2.19-4.74,5.07-9l2.5-3.69c0-1.52.1-2.56.27-3.81l.74-5.26c-4.19-.8-16.11.2-19.08,1.7-1.67.84-3.11,1.19-4.78,1.93l-8.63,3.76-5.35,2.7c-1.4.7-2.93,2.11-4.18,3.26-2.09,1.93-5,3.29-6.97,5.39-4.58,4.9-7.46,7.36-5.65,15.07.3,1.29,2.91,3.03,4.24,3.15,2.33.22,4.63-1.28,6.86-1.58ZM379.09,396.86l7.46-1.37c5.35-.99,5.98-3.02,13.11-6.68,1.3-.67,2.68-2.93,3.98-3.72,2.31-1.4,4.39-2.87,5.22-5.45-8.1-.89-11.4-1.27-17.03-6.26-9.16-8.11-5.53-13.53-7.12-16.33-3.23-5.69.62-3.23-1.9-6.54-10.7,3.91-8.25,2.77-17.39,8.65-5.88,3.78-6.07,5.52-8.97,7.36-2.06,1.31-3.3,3.48-4.7,5.55l-3.12,4.61c-1.07,1.58-3.9,4.11-1.52,6.62,1.09,1.15,3.45,2.31,4.91,3.47,2.2,1.75,4.91.93,12.24,7.75,2.28,2.13,5.48,1.59,8.35,2.38,2.41.66,3.85.42,6.48-.06ZM511.97,409.45c6.44.24,13.8,1.02,18.43-2.59,1.37-1.07,2.46-3.06,3.55-4.41,5.37-.08,10.96-.43,15.41-3.58l3.69-2.61,5.58-3.07c7.9-4.35,8.27-15.63,5.45-21.23-.53-1.05-2.06-2.81-2.79-3.65-1.99-2.28-5.76-.74-8.16-.91-9.23-.64-16.16.4-24.4,4.21-9.91,4.57-4.68,1.53-11.91,3.95l-11.67,3.89-4.78,1.59c-5.98,1.99-3.34,5.15-6.81,8.65-.96,7.55,1.63,7.75,5.15,13.14,2.34,3.59,8.17,6.45,13.25,6.64ZM390.21,430.58l7.21-2.56c1.97-.7,4.56-2.23,6.25-3.51l3.41-2.58c3.77-2.85,11.05-8.99,13.05-13.05,2.76-5.61,2.38,1.56,6.77-10.14.67-1.78.47-3.82,1.8-5.43,1.09-1.32.59-3.72.99-4.91,1.2-1.67,1.41-3.71,1.96-5.75.47-1.75,3.12-3.32,2.09-8.54l-8.44,2.94c-.77.27-2.69.03-3.18.57-1.8,1.97-.45,4.97-2.18,6.08l-4.26,2.72c-2.06,1.31-4.61,2.47-6.25,4.2-4.15,4.38-2.18,1.71-7.23,6.35l-8.15,7.47-5.3,3.89c-1.15,1.93-2.22,3.41-4.01,4.64-4,2.73-6.38,7.07-8.1,11.52-1.03,2.67.88,4.63,3.28,5.54,3.27,1.24,7.41,1.58,10.28.56ZM587.52,407.17c1.09,1,1.85,4.26,4.01,4.38,7.01.4,7.65-.85,12.9-.74,1.48-.87,3.42-2.77,5.08-3.64,1.76-.91,3.68-1.13,4.83-2.83.91-1.36,3.15-1.8,4.13-2.81,2.92-3.01,6.04-6.02,7.75-9.76l1.4-3.07c.42-.92.98-3.07.81-4.22-.34-2.28-2.71-3.29-4.5-4.07-1.34-.59-2.47-.6-3.97-.74-5.37-.51-10.52-1.19-15.99-.39l-13.98,2.03c-4.96.72-5.21.42-10.52,4.01l-3.83-.96c-.08,6.57-1.78,2.37-3.89,8.27-3.52,1.04-5.67,8.34-3.84,11.06,7.18-.66,13.64-1.99,19.61,3.49ZM436.43,557.57l-1.4,5.88c3.56,1.1,5.3-.75,7.85-2.13,4.26-2.3,8.01-.74,8.89-8.28l1.56-13.46c.32-2.73.98-5.26.9-8.08-.08-3.01.16-6.1,1.19-8.81l2.25-5.91,4-9.98c.69-1.71,1.96-3.1,1.91-5.42-.04-1.9.75-4.13.84-5.95.38-7.11.45-14.15-.02-21.19-.41-6.16.68-13.33,2.36-19.05l1.39-4.73,2.14-6.74c1.1-3.46,1.58-6.96,2.74-10.43-.35-2.69.89-5.18,1.46-7.87l1.17-5.49c.52-2.45,1.44-4.79,2.33-7.15l.4-3.63c.97-2.63,1.7-5.11,2.24-7.86l1.3-2.45c.12-7.42,5.82-9.68,2.56-13.24-3-.61-6.79,1.35-7.77,4.46-.51,1.61-.13,3.76.23,5.57-2.53,1.79-1.97,6.08-3.48,8.25-1.64,2.35-2.03,3.3-2.47,6.02-.53,3.26-2.45,9.68-3.75,13.01-.31.8-1.55,2.15-1.93,2.84l-2.8,5.18c-2.87,5.3-1.99,8.26-5.68,10.31-.75,3.17-1.62,6.43-3.21,9.22-2.12,3.72-.84,2.72-2.62,9.83-.91,3.64-1.12,7.61-2.29,11.25-3.61,11.23-.83,9.05-4.22,16.61l-.29,4.33c-.17,2.5-.22,4.94-.25,7.32l-.08,6.69c-.03,2.2.1,4.17-.35,6.31l-1.66,7.84c-1.37,6.48-.97,8.09-2.02,13.46l-.88,4.49-1.91,12.53c-.28,1.84-.12,4.24-.65,6.44ZM561.25,443.07c1.53-.54,3.41.09,4.97-1.33,1.82-1.65,4.19-2.36,6.62-2.91l3.34-3.15c2.69.3,2.81-1.94,3.87-3.31,1.21-1.57,2.15-2.54,2.46-4.62.49-3.27.95-6.28.9-9.51l-5.09-.68-5.24-.92c-1.43-.25-3.32-2.64-5.31-2.31s-3.53-2.31-4.85-2.45l-9.64-1.04c-1.4-.15-11.94.5-13.56.91-5.41,1.38-5.23,2.28-13.87,4.11l-6.58,1.39c-2.02,4.28,1.68,11.6,3.66,15.26,3.02,5.59,9.34,10.17,15.66,12.72,1.79.72,4.72.17,6.94.48,7.19,1.01,10.52-.79,15.73-2.63ZM423.22,502.21c.03-3.64,1.7-11.48,2.65-14.67.42-1.39,1.67-3.95.67-5.34-2.32-3.2-4.96-6.15-8.03-8.44-1.85-1.39-2.63-4.07-4.65-5.04l-6.32-3.04c-.64-.31-2.94-.59-3.02.13l-.62,5.89c-.21,1.95-.52,2.94-.46,4.93.25,7.84-2.44,8.32,2.08,14.04,2.53,3.2,5.34,5.62,8.56,7.97,1.42,1.04,7.45,5.6,9.13,3.56ZM539.82,588.57l3.07-2.79c.86-.78,1.96-1.82,2.73-2.69l3.84-4.31c.22-1.56.42-4.59.07-6.23-.91-4.2-5.54-6-9.43-5.51-1.81.23-3.15-.46-4.8-.8-3.75-.77-7.85-.17-11.71.05l-9.49.53c-3.16.18-6.75.58-9.55-.84-1.68-.85-2.43-4.09-2.33-5.76,8.75-5.13,9.89-.32,15.43-4.13,1.45-1,4.17-.08,5.87-.59,2.13-.63,3.97-1.52,6.29-2.55l-4.36-6.82c-1.31-2.04-2.61-4.51-3.71-6.64l.56-9.05-3.53-3.19c-5.71,3.03-4.5-1.2-7.42,4-8.65,3.05-4.14,5.91-8.21,7.73-4.99,2.24-7.44,6.04-10.11,10.46-1.91,3.16-4.46,6.6-4.81,10.5l-.85,9.6c-.14,1.61.33,2.87-1.06,4.28-.55.56-.9,2.22-.7,3.03,1.02,4.11-1.21,6.82-.58,13.45l6.91-1.84c2.07-.55,4.83-.77,7.01-.99l3.13,2.14c2.2-1.08,3.44-.19,5.41.53s4.84.16,6.85.69l7.63,2.01c5.16,1.36,13.69-.53,17.84-4.29ZM433.57,610.65c1.75-.56,3.38-1.08,5.06-1.11l3.92-.06,4.2-5.46,1.84-3.1c1.45-2.43,2.69-5.02,4.14-7.43s3.16-4.6,4.41-7.09c1.39-2.76,2.99-5.22,4.57-7.86l2.48-4.16c.93-1.57,1.12-5.61-.47-6.88-1.53-1.18-4.87-.64-6.51-.16l-2.32,3.43c-8.41,0-5.19-4.94-12.04-.7-4.37,2.71-8.08,5.89-11.12,10.03l.35,3.16c-1.63,1.45-4.86,7.79-5.17,9.51-1.71,9.27-.79,6.26,1.23,13.26.64,2.24,2.55,5.53,5.44,4.6ZM407.03,647.23c2.75-6.54,5.49-4.56,2.63-8.51l-2.58-3.56-2.99-3.45c-4.04-4.67-6.61-12.24-8.7-15.25-3.29-4.76-1.22-1.73-3.33-6.26-2.9.04-5.16-1.44-7.58-2.42-4.98-2.01-10.6-.52-15.74-.02-1.91.19-3.54.6-5.02,1.53l-4.08,2.57c-1.15.72-2.58,2.05-2.82,3.11-.5,2.21,1.11,7.46,3.2,9.27l.43,3.95c2.04-.17,2.09,2.24,3.16,2.86,2.04,1.19,3.75,2.85,4.54,5.07.33.76,2.48.93,3.21,1.33l4.43,2.46,6.95,3.71c3,1.6,5.77,3.12,9.15,3.84l4.86,1.03c1.82,3.12,8.73,2.41,10.28-1.26ZM493.58,929.43c.14-4.68.69-8.13,0-11.97l-1.84-10.4-.77-9.11c-.42-4.96-1.13-9.19-2.55-14.07.36,1.24-2.46-13.58-2.44-13.34l-.89-9.74-2.19-15.34c-.16-1.14-.14-2.84-.39-3.82l-1.01-4.06c-.86-3.44-1.76-7.35-3.61-10.32l-3.26-5.25c-.81-1.31-1.4-2.73-1.59-4.32-.21-1.79-2.17-3.04-2.64-4.16-1.25-3.03-2.42-5.66-4.27-8.54s-4.2-14.07-5.11-18.23l-1.31-6.05c-1.18-5.44-4.22-14.63-6.68-19.35-1.39-6.24-1.68-9.2-3.12-15.82-.53-2.46-.77-3.76-2.37-5.38l-4.5-4.57c-2.17-2.2-3.06-5.66-4.46-8.39l-2.73-5.33c-1.13-2.21-1.59-4.41-2.01-6.86l-1.34-7.9c-.26-1.56.22-3.21.38-4.84.25-2.54-.48-5.42.13-8.1.33-1.46,1.34-4.4-.94-5.01-3.26-.88-8.63-.19-9.64-3.29-.38-1.18-.13-3.85,0-5.08l6.36-4.19c3.59-2.37,5.12-1.49,10.23-5.67,2.2-1.8,3.7-3.98,5.35-6.27,2.25-3.12,4.31-6.1,5.09-10.05.57-2.88,1.89-6.5.88-9.3l-1.42-3.93-9.5-2.63c-3.08-.85-7.12-.06-10.09.68-4.79,1.19-1,5.64-4.14,8.28s-4.61-2.6-7.3-1.01c-1.18.7-2.68,2.96-2.67,4.18.1,9.89-6.5,5.78-4.09,18.15,1.72,8.86-1.34,1.85,2.92,11.73.56,1.29,1.53,2.89,2.38,4.06,5.13,7.04,3.03,2.61,7.21,7.07,1.59,1.7-3.23,4.81-2.81,6.17l1.81,5.88c1.7.62,3.31,1.02,3.95,1.89.87,1.19,1.03,2.62.81,3.98l-1.07,6.5c-.62,3.76-2.14,6.57-2.13,10.42.06,15.86-.62,16.49,1.84,32.8.53,3.5,1.4,6.99,3,10.17,4.89,9.73,3.12,3.36,7.65,10.42.58.91,1.99,2.21,2.76,3.06.2,2.7,1.1,5.28,3.09,6.92.06,1.96.4,3.63,1.02,5.39l3.1,8.9c.39,1.11.55,3.18.9,4.5l1.78,6.73,1.36,5.72c.57,2.38,1.29,4.82,1.67,7.25.85,5.39,3.5,15.6,5.1,20.9.84,2.78,1.28,5.61,2.4,8.31,3.61,8.66-2.01,5.99,4.96,15.54,1.31,1.8,2.01,4.69,3.21,6.77,2.46,4.26,4.46,8.45,6.48,12.98l6.55,14.71c1.39,3.11,2.66,6,4.18,8.89l3.27,6.2,1.95,3.67c.69,1.31,1.49,2.73,3.12,2.86ZM455.73,678.36c2.45-.22,5.04.63,6.41-1.49l-.38-4.05c.64-.94,2.96-.51,3.72.22,2,1.91,4.04-.85,5.62-.68,3.31.36,6.22.66,9.52.38,2.28-.19,4.87-.76,6.9-.81,3.11-.08,5.88.33,8.86-.47,4.58-1.22,10.04-3.89,12.74-8.07,2.49-3.85,4.78-8.5,5.72-13.05.89-4.33-3.45-6.51-6.72-7.36l-8.88-2.3c-2.36-.61-4.27.05-6.51.68-6.63,1.87-5.43,1.36-11.45,4.64l-7.47,4.07c-1.6.87-2.81,2.95-4.1,3.83-5.7,3.89-6.78,3.81-11.55,10.24l-2.73,3.68c-.23,2.24-1.62,5.1-4.2,5.02-2.35-.08-3.74.67-5.72,1.87-.75.45-2.45.89-2.81,1.59-.33.64-.5,2.41-.3,2.66,2.96-.13,4.83.17,7.27-.05l6.06-.55ZM357.56,690.29c2.2-.69,4.25-2.13,6.42-2.96,10.05-3.82,1.86-1.57,9.88-6.42,1.05-.63,2.13-2.28,3.52-2.67,1.58-.44,2.87-1.12,3.98-2.14l4.69-4.36c5.28.13,6.04,4.86,11.84,5.28l5.42,3.94c1.96-5.66-1.51-3.45-.16-15.34.09-.83-.72-2.71-1.49-2.99-1.67-.62-12.91,1.94-15.99,2.71-3.6.91-6.75.1-12.37.27l-5.17.15c-1.3.04-4.01-.71-5,0-1.64,1.2-3.12.79-4.7,1.17-4.46,1.1-8.78,2.3-13.56,2.13-7.74-.29-9.32,1.55-16.42,5.11-.63.32-1.72,1.49-1.71,2.16s.72,1.73,1.35,2.39l4.84,5.04c1.75,1.83,2.07,3.56,4.66,4.7,7.51,3.3,9.07,5.27,19.95,1.83ZM473.3,734.8c1.69-.87,2.77-1.85,3.9-3.29l2.02-2.57-.09-8.83-1.37-2.63c1.49-2.04.63-3.91.28-6.11-.71-4.44-1.33-7.13-3.74-10.97-1.08-1.72-2.04-3.54-3.7-4.83-7.09-5.54-5.16-8.03-12.85-9.08l-5.1-.7-7.46.71c-.62.06-1.62.08-1.73.49l-.55,1.9c-.93,3.22-1.33,6.2-1.48,9.6-.4,9.13.03,16.7,4.72,24.96,1.32,2.32,2.02,5.3,3.91,5.33,1.69.02,2.29-2.42,3.9-2.81.64-.15,3.87,1.36,3.72,4.95l-.27,6.69c12.02-.13,5.97,2.29,15.9-2.83ZM379.03,722.36c2.35,1.45,8.87,3.14,11.17,2.31,4.95,2.22,10.63-5.68,13.23-9,1.06-.6,3.08-1.4,3.9-2.49l5.42-7.19c1.72-2.28.02-5.54-1.72-7.18l-4.74-4.5c-1.31-1.24-3.32-2.13-4.67-3.19-3.25-2.56-6.63-3.88-10.84-2.01l-5.82,2.59-4.9,2.22c-3.13,1.42-5.99,2.94-9.51,3.42-4.57.62-5.39,6.64-5.08,8.93l.58,4.33c.18,1.37,2.16,3.11,3.13,4.4,1.15,1.53,2.36,2.73,3.93,3.71l5.91,3.66Z"/>
  <path class="cls-1" d="M461.69,989.19c-.66,1.42,1.02,3.56-1.49,4.75-1.61-3.67-2.83-7.51-4.68-10.9-.42-.78-5.12-6.19-2.93-8.85.17-.21.64.1,1.08.3l4.9,2.26c2.21,1.02,3.79,4.78,4.2,7.11.36,2.06-.26,3.6-1.07,5.33Z"/>
  <path class="cls-1" d="M414.22,959.4c-2.44-.21-4.71-.31-7.11-.09l-6,.57c.18-2.74,2.18-2.02,3.65-2.41,5.25-1.4,24.26-4.57,26.49,3.54l-8.55-.9-8.48-.72Z"/>
  <path class="cls-1" d="M493.58,929.43c-1.64-.12-2.43-1.55-3.12-2.86l-1.95-3.67-3.27-6.2c-1.53-2.89-2.8-5.78-4.18-8.89l-6.55-14.71c-2.02-4.53-4.02-8.72-6.48-12.98-1.2-2.08-1.89-4.97-3.21-6.77-6.96-9.55-1.34-6.87-4.96-15.54-1.13-2.7-1.56-5.53-2.4-8.31-1.6-5.3-4.25-15.52-5.1-20.9-.38-2.43-1.1-4.86-1.67-7.25l-1.36-5.72-1.78-6.73c-.35-1.32-.51-3.39-.9-4.5l-3.1-8.9c-.62-1.77-.96-3.43-1.02-5.39-1.99-1.64-2.89-4.22-3.09-6.92-.78-.86-2.18-2.16-2.76-3.06-4.53-7.07-2.76-.7-7.65-10.42-1.6-3.18-2.47-6.67-3-10.17-2.46-16.31-1.79-16.95-1.84-32.8-.01-3.85,1.51-6.66,2.13-10.42l1.07-6.5c.22-1.36.06-2.79-.81-3.98-.64-.88-2.24-1.28-3.95-1.89l-1.81-5.88c-.42-1.36,4.4-4.47,2.81-6.17-4.18-4.47-2.07-.03-7.21-7.07-.85-1.17-1.83-2.78-2.38-4.06-4.26-9.88-1.2-2.87-2.92-11.73-2.41-12.36,4.19-8.26,4.09-18.15-.01-1.22,1.49-3.48,2.67-4.18,2.69-1.59,4.16,3.65,7.3,1.01s-.65-7.09,4.14-8.28c2.97-.74,7.01-1.53,10.09-.68l9.5,2.63,1.42,3.93c1.01,2.79-.31,6.41-.88,9.3-.78,3.95-2.83,6.93-5.09,10.05-1.65,2.29-3.14,4.46-5.35,6.27-5.11,4.18-6.63,3.3-10.23,5.67l-6.36,4.19c-.13,1.23-.38,3.9,0,5.08,1.01,3.1,6.38,2.41,9.64,3.29,2.29.61,1.27,3.55.94,5.01-.61,2.68.13,5.56-.13,8.1-.16,1.63-.65,3.28-.38,4.84l1.34,7.9c.42,2.45.88,4.66,2.01,6.86l2.73,5.33c1.4,2.73,2.29,6.19,4.46,8.39l4.5,4.57c1.59,1.62,1.83,2.93,2.37,5.38,1.44,6.63,1.73,9.59,3.12,15.82,2.46,4.72,5.5,13.9,6.68,19.35l1.31,6.05c.91,4.17,3.21,15.29,5.11,18.23s3.02,5.51,4.27,8.54c.46,1.12,2.43,2.38,2.64,4.16.19,1.59.78,3.02,1.59,4.32l3.26,5.25c1.84,2.97,2.75,6.88,3.61,10.32l1.01,4.06c.24.97.22,2.68.39,3.82l2.19,15.34.89,9.74c-.02-.24,2.8,14.59,2.44,13.34,1.42,4.88,2.13,9.11,2.55,14.07l.77,9.11,1.84,10.4c.68,3.84.13,7.29,0,11.97Z"/>
  <path class="cls-1" d="M472.75,119.83c4.05-1.92,4.54-4.09,12.99.65,2.77,1.55,5.44,2.65,8.23,3.9,1.97.89,3.86,2.13,6,2.85l4.91,1.65c1.97.66,3.57,1.54,5.74.62,4.56-1.94,9.19,2.9,12.28,5.72,2.41,2.2,5.5,3.81,8.17,5.78l4.1,3.03c.59.43,1.94,1.1,2.61.99,1.67-.26,4.2-3.68,2.91-4.51-2.07-1.35-4.33-2.56-5.93-4.12-2.54-2.47-4.39-3.33-7.56-5.12-1.54-1.56-3.81-2.8-5.36-4.54l-5.61-6.27c-.57-.63-4.25-.75-5.97-9.43l-.93-4.7c-.5-2.53-.35-5.53-.2-8.29.18-3.6,2.72-7.6,3.84-10s1.55-4.36,4.12-5.76c6.41-3.48,12.05.32,16.31,2.44l5.71,2.85c2.61,1.3,4.63,5.57,4.83,8.38l.46,6.38c.52,7.17,2.03,13.92,1.12,21.2-.57,4.5-.36,8.62.48,12.99,1.75,9.04,4.47,6.23.55,14.56-5.45,1.56-8.58-1.63-10.26,4.71l-5.92-2.51c-.82-.35-2.71-.47-3.81-.7l-1.23-3.22c-1.06.95-1.58,1.46-2.07,1.8-.61.42-10.92-3.81-12.64-4.67-2.88-1.44-7.37-4.09-11.04-3.34l-2.43-2.01c-6.29-.23-6.22-2.06-12.92-1.9-9.9.23-6.36.25-14.02-5.29-2.49-1.8-1.58-4.92-1.34-7.53.27-2.94.87-5.15,3.92-6.59Z"/>
  <path class="cls-1" d="M608.38,185.3l-12.89,1.49c-1.54.18-3.24.05-4.82.36-2.8.54-5.72.81-8.64.83l-10.49.06-3.33-1.25c.26-1.8.49-3.82.39-5.73l-.45-8.63c-.07-1.42-1.16-3.34-1.33-4.66l-1.09-8.44c-.27-2.07.34-6.71,2.1-7.95,1.92-1.35,4.58-2.85,6.61-4.02l4.65-.66c5.85-.83,11.08-1.81,16.41-4.04l4.73-.42c1.4-.12,3,.85,4.33,1.67,1.75,1.07,4.55,1.68,6.02,2.92l4.38,3.71c1.82,1.54,3.71,2.23,6.04,3.09,2.61.95,5.17,2.68,7.97,3.23,2.38.47,4.08,1.23,6.12,2.63,1.74,1.19,3.83-1.08,9.89,4.24-.85,3.33-1.88,6.29-4.1,8.82-.61.69-1.87,2.31-2.64,2.81-1.66,1.07-4.24,2.93-6,3.72l-8.82,3.99c-1.39.63-3.79.36-5.4.68-3.21.63-6.22,1.17-9.66,1.57Z"/>
  <path class="cls-1" d="M436.43,557.57c.53-2.21.37-4.6.65-6.44l1.91-12.53.88-4.49c1.05-5.37.66-6.98,2.02-13.46l1.66-7.84c.45-2.14.33-4.11.35-6.31l.08-6.69c.03-2.38.08-4.82.25-7.32l.29-4.33c3.39-7.57.61-5.38,4.22-16.61,1.17-3.64,1.37-7.6,2.29-11.25,1.79-7.11.5-6.11,2.62-9.83,1.59-2.79,2.46-6.05,3.21-9.22,3.69-2.05,2.81-5.01,5.68-10.31l2.8-5.18c.38-.69,1.62-2.04,1.93-2.84,1.3-3.34,3.22-9.76,3.75-13.01.44-2.72.83-3.67,2.47-6.02,1.51-2.16.95-6.46,3.48-8.25-.36-1.81-.73-3.96-.23-5.57.98-3.11,4.77-5.08,7.77-4.46,3.26,3.56-2.44,5.82-2.56,13.24l-1.3,2.45c-.53,2.75-1.26,5.23-2.24,7.86l-.4,3.63c-.89,2.36-1.8,4.7-2.33,7.15l-1.17,5.49c-.58,2.7-1.81,5.18-1.46,7.87-1.16,3.47-1.64,6.97-2.74,10.43l-2.14,6.74-1.39,4.73c-1.68,5.72-2.78,12.89-2.36,19.05.47,7.04.41,14.07.02,21.19-.1,1.82-.89,4.05-.84,5.95.05,2.33-1.22,3.71-1.91,5.42l-4,9.98-2.25,5.91c-1.03,2.71-1.28,5.81-1.19,8.81.08,2.81-.59,5.35-.9,8.08l-1.56,13.46c-.87,7.54-4.63,5.98-8.89,8.28-2.56,1.38-4.29,3.23-7.85,2.13l1.4-5.88Z"/>
  <path class="cls-1" d="M539.82,588.57c-4.15,3.77-12.67,5.66-17.84,4.29l-7.63-2.01c-2.01-.53-4.96,0-6.85-.69s-3.21-1.62-5.41-.53l-3.13-2.14c-2.18.22-4.94.44-7.01.99l-6.91,1.84c-.62-6.64,1.6-9.35.58-13.45-.2-.81.15-2.48.7-3.03,1.39-1.41.91-2.66,1.06-4.28l.85-9.6c.35-3.9,2.89-7.34,4.81-10.5,2.68-4.43,5.13-8.22,10.11-10.46,4.07-1.83-.44-4.69,8.21-7.73,2.92-5.2,1.71-.96,7.42-4l3.53,3.19-.56,9.05c1.11,2.13,2.41,4.6,3.71,6.64l4.36,6.82c-2.32,1.03-4.16,1.92-6.29,2.55-1.71.5-4.42-.42-5.87.59-5.53,3.81-6.68-1.01-15.43,4.13-.1,1.67.65,4.91,2.33,5.76,2.8,1.42,6.39,1.02,9.55.84l9.49-.53c3.86-.22,7.96-.82,11.71-.05,1.64.34,2.99,1.03,4.8.8,3.89-.5,8.52,1.3,9.43,5.51.36,1.64.16,4.67-.07,6.23l-3.84,4.31c-.77.87-1.87,1.91-2.73,2.69l-3.07,2.79Z"/>
  <path class="cls-1" d="M511.97,409.45c-5.08-.19-10.9-3.05-13.25-6.64-3.52-5.39-6.11-5.59-5.15-13.14,3.47-3.5.83-6.65,6.81-8.65l4.78-1.59,11.67-3.89c7.23-2.41,2,.63,11.91-3.95,8.24-3.8,15.17-4.85,24.4-4.21,2.41.17,6.18-1.37,8.16.91.73.84,2.26,2.59,2.79,3.65,2.82,5.61,2.45,16.89-5.45,21.23l-5.58,3.07-3.69,2.61c-4.45,3.15-10.03,3.5-15.41,3.58-1.09,1.35-2.18,3.34-3.55,4.41-4.63,3.62-12,2.84-18.43,2.59Z"/>
  <path class="cls-1" d="M450.83,289.91c-1.16-1.78-3.83-3.56-5.66-4.81l-1.68-1.15c-.44-.3-.04-1.44.06-2.48l-3.24-1.17c-.8-2.72-3.12-3.5-5.32-4.7-4.55-2.47-9.29-4.87-14.69-5.06-2.68-.09-4.06-1.62-6.25-2.93l-3.68-2.2c-4.73-6.28-2,.43-3.93-8.04-1.56-6.81,1.31-12.53,4.23-18.78.53-1.14.92-2.95,1.56-3.97l5.09-8.13c5.77-4.48,14.31-3.81,20.83-1.47,1.99.72,2.99,2.42,3.9,4.17l3.12,5.99c.7,1.34,1.76,2.99,2.67,3.99l5.19,5.65,3.16,3.04c1.93,6.13,4.48,5.56,1.73,8.98-4.45,5.53-4.89,4.46-6.19,10.36-.32,1.43-.46,3.28-.97,4.72-1.4,3.95-.39,7.8.59,11.84.43,1.76.72,3.31,1.71,4.71s1.46,3.44-.5,4.08l-1.73-2.65Z"/>
  <path class="cls-1" d="M514.49,325.17l-9.74,2.05c-.48.1-1.97-.23-1.98-.64-.06-2.72.12-3.82,1.8-5.91-4.52-.42-2.73-4.32-4.22-7.93,7.4-2.43,4.34-2.93,9.59-5.42,1.65-2.65,4.4-3.61,5.96-4.96,7.27-6.29,8.6-4.37,13.11-5.6l4.65-1.27c2.27-1.94,4.65-3.35,7.08-4.92,1.6-1.03,2.8-2.25,4.85-2.68,5.07-1.06,9.83-1.72,15.21-2.28,4.84,3.29,8.33-.09,16.62,5.51.98.66,1.79,1.21,2.93,1.8,4.63,2.39-8.37,12.92-10.45,14.46l-4.1,3.02c-2.19,1.61-4.31,3.77-6.86,4.4.08,2.52-10.24,4.96-12.99,5.89-1.73.59-3.27.93-5.17,1.43l-6.98,1.81c-1.91.5-3.73.38-5.73.38l-9.02.02c-1.37,0-2.88.48-4.56.84Z"/>
  <path class="cls-1" d="M561.42,129.42c-.15,3.32-2.85,13.92-5.58,13.57-1.39-.18.07-1.88-.96-6.34-.2-.86-1.34-10.32-1.27-11.53.08-1.52.14-2.74.07-4.14l-.79-17.89c-.05-1.08.93-2.56-.15-3.61-1.92-1.86-.34-3.75-.63-5.64l-.87-5.67c-1.98-12.89.04-8.87,5.46-16.42,1.81-2.52,3.03-4.18,5.39-6.24l5.92-5.16c1.16-1.01,1.97-2.51,3.59-3.41,1.86-1.02,4.31-3.52,6.79-2.07,2.74,1.61,4.18,10.14,4.66,13.47l.89,6.16c.45,3.15.56,5.98,1.72,9.01.73,1.9,1.58,4.7.54,6.58-1.32,2.4-2.56,4.86-4.07,6.92l-4.63,6.35-2.54,3.59c-.7,1-2.83,1.77-3.51,2.57-1.23,1.45-2.56,3.83-3.78,5.5l-2.59,3.53c-2.23,3.03-3.48,7.09-3.65,10.88Z"/>
  <path class="cls-1" d="M561.25,443.07c-5.21,1.84-8.54,3.63-15.73,2.63-2.23-.31-5.16.24-6.94-.48-6.32-2.55-12.64-7.14-15.66-12.72-1.98-3.66-5.68-10.98-3.66-15.26l6.58-1.39c8.64-1.82,8.46-2.73,13.87-4.11,1.62-.41,12.16-1.06,13.56-.91l9.64,1.04c1.32.14,2.78,2.8,4.85,2.45s3.89,2.06,5.31,2.31l5.24.92,5.09.68c.05,3.23-.41,6.24-.9,9.51-.31,2.08-1.25,3.06-2.46,4.62-1.05,1.37-1.18,3.61-3.87,3.31l-3.34,3.15c-2.44.55-4.81,1.25-6.62,2.91-1.56,1.42-3.44.79-4.97,1.33Z"/>
  <path class="cls-1" d="M379.09,396.86c-2.62.48-4.06.72-6.48.06-2.87-.79-6.07-.26-8.35-2.38-7.33-6.82-10.03-6-12.24-7.75-1.46-1.16-3.82-2.32-4.91-3.47-2.38-2.52.45-5.04,1.52-6.62l3.12-4.61c1.4-2.07,2.64-4.24,4.7-5.55,2.9-1.84,3.09-3.59,8.97-7.36,9.14-5.87,6.69-4.73,17.39-8.65,2.52,3.31-1.33.84,1.9,6.54,1.59,2.8-2.04,8.22,7.12,16.33,5.63,4.98,8.93,5.37,17.03,6.26-.83,2.58-2.91,4.05-5.22,5.45-1.3.78-2.68,3.05-3.98,3.72-7.13,3.66-7.76,5.69-13.11,6.68l-7.46,1.37Z"/>
  <path class="cls-1" d="M473.3,734.8c-9.92,5.12-3.87,2.7-15.9,2.83l.27-6.69c.14-3.59-3.08-5.1-3.72-4.95-1.6.39-2.2,2.83-3.9,2.81-1.9-.02-2.59-3-3.91-5.33-4.68-8.25-5.12-15.83-4.72-24.96.15-3.4.55-6.38,1.48-9.6l.55-1.9c.12-.41,1.12-.43,1.73-.49l7.46-.71,5.1.7c7.69,1.05,5.77,3.54,12.85,9.08,1.65,1.29,2.62,3.12,3.7,4.83,2.41,3.84,3.03,6.53,3.74,10.97.35,2.2,1.21,4.08-.28,6.11l1.37,2.63.09,8.83-2.02,2.57c-1.13,1.44-2.21,2.42-3.9,3.29Z"/>
  <path class="cls-1" d="M407.03,647.23c-1.54,3.67-8.46,4.38-10.28,1.26l-4.86-1.03c-3.38-.72-6.16-2.24-9.15-3.84l-6.95-3.71-4.43-2.46c-.72-.4-2.88-.57-3.21-1.33-.8-2.22-2.5-3.88-4.54-5.07-1.07-.62-1.12-3.03-3.16-2.86l-.43-3.95c-2.09-1.81-3.7-7.07-3.2-9.27.24-1.07,1.68-2.39,2.82-3.11l4.08-2.57c1.48-.93,3.11-1.35,5.02-1.53,5.14-.5,10.76-1.99,15.74.02,2.42.98,4.68,2.46,7.58,2.42,2.11,4.53.03,1.5,3.33,6.26,2.09,3.02,4.66,10.59,8.7,15.25l2.99,3.45,2.58,3.56c2.86,3.95.12,1.97-2.63,8.51Z"/>
  <path class="cls-1" d="M455.73,678.36l-6.06.55c-2.44.22-4.31-.08-7.27.05-.19-.25-.03-2.03.3-2.66.36-.7,2.06-1.14,2.81-1.59,1.98-1.2,3.37-1.95,5.72-1.87,2.58.08,3.97-2.77,4.2-5.02l2.73-3.68c4.77-6.43,5.85-6.34,11.55-10.24,1.28-.88,2.49-2.95,4.1-3.83l7.47-4.07c6.03-3.28,4.83-2.77,11.45-4.64,2.24-.63,4.14-1.3,6.51-.68l8.88,2.3c3.26.85,7.61,3.03,6.72,7.36-.93,4.55-3.23,9.2-5.72,13.05-2.7,4.18-8.16,6.85-12.74,8.07-2.99.8-5.75.39-8.86.47-2.02.05-4.61.61-6.9.81-3.3.28-6.21-.02-9.52-.38-1.58-.17-3.63,2.58-5.62.68-.77-.73-3.09-1.16-3.72-.22l.38,4.05c-1.38,2.12-3.96,1.27-6.41,1.49Z"/>
  <path class="cls-1" d="M587.52,407.17c-5.97-5.48-12.42-4.15-19.61-3.49-1.83-2.72.33-10.02,3.84-11.06,2.11-5.9,3.81-1.7,3.89-8.27l3.83.96c5.31-3.59,5.56-3.29,10.52-4.01l13.98-2.03c5.46-.79,10.62-.12,15.99.39,1.5.14,2.63.15,3.97.74,1.79.78,4.15,1.79,4.5,4.07.17,1.15-.39,3.3-.81,4.22l-1.4,3.07c-1.71,3.73-4.83,6.74-7.75,9.76-.98,1.01-3.22,1.45-4.13,2.81-1.15,1.71-3.07,1.92-4.83,2.83s-3.6,2.77-5.08,3.64c-5.25-.1-5.89,1.15-12.9.74-2.17-.12-2.92-3.38-4.01-4.38Z"/>
  <path class="cls-1" d="M390.21,430.58c-2.87,1.02-7.01.68-10.28-.56-2.4-.91-4.31-2.87-3.28-5.54,1.72-4.44,4.1-8.78,8.1-11.52,1.79-1.22,2.85-2.7,4.01-4.64l5.3-3.89,8.15-7.47c5.05-4.63,3.08-1.97,7.23-6.35,1.64-1.73,4.19-2.88,6.25-4.2l4.26-2.72c1.73-1.11.38-4.11,2.18-6.08.49-.53,2.41-.3,3.18-.57l8.44-2.94c1.03,5.22-1.62,6.79-2.09,8.54-.55,2.04-.76,4.08-1.96,5.75-.4,1.19.09,3.59-.99,4.91-1.33,1.61-1.14,3.65-1.8,5.43-4.38,11.69-4,4.53-6.77,10.14-2,4.05-9.28,10.2-13.05,13.05l-3.41,2.58c-1.69,1.28-4.28,2.81-6.25,3.51l-7.21,2.56Z"/>
  <path class="cls-1" d="M357.56,690.29c-10.88,3.44-12.45,1.47-19.95-1.83-2.59-1.14-2.91-2.87-4.66-4.7l-4.84-5.04c-.63-.66-1.35-1.73-1.35-2.39s1.08-1.84,1.71-2.16c7.09-3.55,8.67-5.39,16.42-5.11,4.77.18,9.1-1.03,13.56-2.13,1.58-.39,3.06.02,4.7-1.17.99-.71,3.7.04,5,0l5.17-.15c5.62-.17,8.77.64,12.37-.27,3.07-.77,14.32-3.33,15.99-2.71.77.29,1.58,2.17,1.49,2.99-1.35,11.88,2.12,9.67.16,15.34l-5.42-3.94c-5.8-.41-6.56-5.15-11.84-5.28l-4.69,4.36c-1.11,1.03-2.4,1.71-3.98,2.14-1.39.39-2.48,2.03-3.52,2.67-8.01,4.85.18,2.6-9.88,6.42-2.18.83-4.23,2.27-6.42,2.96Z"/>
  <path class="cls-1" d="M585.34,373.95c-2.23.31-4.53,1.8-6.86,1.58-1.33-.12-3.94-1.86-4.24-3.15-1.81-7.7,1.06-10.17,5.65-15.07,1.96-2.1,4.87-3.46,6.97-5.39,1.25-1.15,2.78-2.56,4.18-3.26l5.35-2.7,8.63-3.76c1.68-.73,3.11-1.09,4.78-1.93,2.97-1.49,14.88-2.49,19.08-1.7l-.74,5.26c-.18,1.25-.27,2.29-.27,3.81l-2.5,3.69c-2.88,4.25-.57,4.55-5.07,9-6.2,6.12-12.26,11.38-21.64,11.94-1.58.09-3.12.28-4.73.5l-8.58,1.18Z"/>
  <path class="cls-1" d="M379.03,722.36l-5.91-3.66c-1.57-.97-2.78-2.17-3.93-3.71-.96-1.28-2.94-3.03-3.13-4.4l-.58-4.33c-.31-2.29.51-8.31,5.08-8.93,3.52-.48,6.38-2,9.51-3.42l4.9-2.22,5.82-2.59c4.21-1.88,7.59-.55,10.84,2.01,1.35,1.06,3.36,1.95,4.67,3.19l4.74,4.5c1.73,1.65,3.44,4.9,1.72,7.18l-5.42,7.19c-.82,1.09-2.83,1.89-3.9,2.49-2.6,3.32-8.28,11.22-13.23,9-2.31.83-8.83-.86-11.17-2.31Z"/>
  <path class="cls-1" d="M479.57,314.7c-4.28-2.74-17.49-11.84-12.43-17.81l-.37-4.74c-1.56.47-3.48,1.23-4.65.47s-1.32-2.78-1.67-4.09l-1.48-5.5c-.86-3.21-1.86-5.5-.89-8.94l2.22-7.83.9-.02c.34,0,1.43,10.89,3.54,13.04l3.43.57c.9-1.32,2.18-2.85,3.33-3.98.65-.73.87-2.91.81-3.94-2.51-1.89-3.37-4.13-2.5-7.94,1.91.5,8.61,3.31,10.92,4.47.87.44,2.07,1.58,3,1.75,5.69,1.03-.32,7.83,2.26,17.16.38,1.38,2.94,2.29,4.23,3.07l1.64,7.99c1.27,6.22,2.48,9.9,2.87,17.13.1,1.89-1.9,4.59-3.81,3.6-7.96-4.14-6.27-1.21-11.35-4.46Z"/>
  <path class="cls-1" d="M606.37,132.73c-.99.57-2.97.84-3.67,1.44-1.61,1.36-2.7.6-4.37.14l-9.21-2.5c-.84-2.23,1.61-3.09,2.56-4.65,2.65-4.36,5.23-8.77,7.47-13.35.93-1.91.87-4.42,2.68-5.88-.08-2.98.92-5.42,1.65-8.17.83-3.13,1.11-6.6,2.77-9.43l2.1-3.57c2.14-3.64,13.23-2.1,16.06,2.29.53.83,1.57,2.39,1.79,3.21.61,2.23.73,5.91.07,8.08-1.47,4.89-2.23,9.11-2.52,14.13l-.23,3.99c-.2,3.37-1.75,5.61-4.55,7.14l-3.25,1.78-9.34,5.36Z"/>
  <path class="cls-1" d="M497.78,284c-1.19-1.68-1.82-4.66-1.56-6.85-.47-1.99-1.57-4.72-.89-6.89l4.73-15.21c2.36-7.6,2.02-3.04,3.58-11.38.57-3.05,1.54-5.73,2.23-8.76l1.98-8.67c.83-3.63,2.95-7.45,4.75-10.66l1.93-3.45c.72-2.48,1.41-4.15,3-6.18,1-1.28,1.73-3.33,2.67-4.73l4.06-6.05c1.21-1.81,2.03-3.24,2.84-5.34.52-1.35,2.94-2.84,3.5-4.07,1.04-2.3,1.86-3.95,3.32-5.87.63,6.89,4.11,3.66,6.21,6.53.33.45-.83,1.61-.99,2.23l-2.14,8.38-5.05,13.59c-.76,2.04-1.06,2.16-2.3,3.55-3.81,4.28-5.98,9.93-9.45,14.55-1.54,2.05-2.66,4.2-3.98,6.42-1.59,2.69-3.89,5.24-5.27,8.07-.86,1.77-.35,3.92-2.97,4.12-.97,3.1-2.66,5.55-3.94,8.47-1.05,2.39-1.21,6.34-.82,8.71.33,1.97.26,2.9-.05,4.9-.64,4.21-1.52,9.64-2.75,13.6-.19.61-2.28,1.51-2.64,1.01Z"/>
  <path class="cls-1" d="M433.57,610.65c-2.89.92-4.8-2.37-5.44-4.6-2.02-6.99-2.94-3.99-1.23-13.26.32-1.72,3.54-8.07,5.17-9.51l-.35-3.16c3.04-4.14,6.74-7.32,11.12-10.03,6.85-4.24,3.64.7,12.04.7l2.32-3.43c1.65-.48,4.98-1.02,6.51.16,1.59,1.27,1.4,5.31.47,6.88l-2.48,4.16c-1.57,2.64-3.18,5.1-4.57,7.86-1.25,2.49-2.96,4.68-4.41,7.09s-2.69,4.99-4.14,7.43l-1.84,3.1-4.2,5.46-3.92.06c-1.67.03-3.3.55-5.06,1.11Z"/>
  <path class="cls-1" d="M516.36,291.42l-7.79,1.77,1.89-7.19,2.25-1.7,1.3-5.14c.58-2.28,2.7-3.07,3.96-4.72.94-1.23,1.78-2.93,2.89-4.17s1.97-2.87,2.79-4.32l3.68-2.73c1.72-6.12,7.09-4.86,6.98-11.03l5.85-3.18c2.39-1.3,4.49-2.28,7.26-2.9,1.43-.32,4.13-1.06,5.36-.41,2.55,1.35,2.04,4.88,1.12,6.88l-1.31,2.84c-.77,1.67-1.6,3.21-2.64,4.84l.08,1.79-3.47,3.26-7.76,14.03c-1.13,2.04-3.75,4.76-5.49,6.21-9.28,2.94-1.66,2.16-12.26,4.72l-4.67,1.13Z"/>
  <path class="cls-1" d="M464.96,314.19c-5.93-.86-11.12-1.27-16.79-1.23-4.37-1-6.31-2.33-10-2.47s-6.67-2.06-9.7-3.57c-4.64-2.31-6.48-3.62-9.34-7.91-.96-1.43-2.73-3.46-2.19-5.13l.65-2.03c-2.12-.83-1.21-7.01-.71-8.98l.7-2.73c.18-.71,1.86-1.15,2.72-1.19,2.2-.09,4.15,1.59,6.14,2.13l5.37,1.43c2.88.77,4.9.75,6.87,5.6,4.67,4.6,5.35,3.41,9.18,9.35.64.99,3,2.13,3.59,3.2,1.66,3,4.17,4.84,7.63,4.86l.87,2.39c1.83,1.61,3.9,3.67,5.02,6.28Z"/>
  <path class="cls-1" d="M423.22,502.21c-1.68,2.04-7.71-2.52-9.13-3.56-3.23-2.36-6.03-4.77-8.56-7.97-4.53-5.72-1.83-6.2-2.08-14.04-.06-1.99.25-2.98.46-4.93l.62-5.89c.08-.72,2.38-.44,3.02-.13l6.32,3.04c2.02.97,2.79,3.65,4.65,5.04,3.07,2.29,5.71,5.24,8.03,8.44,1.01,1.39-.25,3.94-.67,5.34-.95,3.18-2.62,11.02-2.65,14.67Z"/>
  <path class="cls-1" d="M538.85,172.84c-3.75,7.98-4.95,5.93-4.23,4.51l3.93-7.73c.13-.25.6-.75.81-.7.31.07,1.29.3,1.2.28l-1.71,3.64Z"/>
</svg>