<?xml version="1.0" encoding="UTF-8"?>
<svg id="Camada_1" data-name="Camada 1" xmlns="http://www.w3.org/2000/svg" viewBox="0 0 1024 1024">
  <defs>
    <style>
      .cls-1 {
        fill: #fff;
      }
    </style>
  </defs>
  <path d="M593.14,836.75l-3.19-6.11c-3.84-7.36-1.82-5.37-7.39-11.88l-2.58-3.01-4.7-5.76-5.46-6.96c-1.77-2.26-3.61-4.81-5.73-6.64-2.74-2.37-5.01-5.71-8.06-7.36-1.92-1.04-3.95-2.28-5.49-2.98-5.11-2.34-10.45-4.3-15.09-7.05-1.09-.64-4.11-.63-5.16.01-1.19.73-2.95,2.07-3.97,2.85-.37,2.6-1.26,4.2-1.82,6.55l-1.08,4.58c.78-3.28-6.8,22.78-5.37,18.95-1.59,4.26-3.13,8.22-4.86,12.3l-4.33,10.2-4.68,10.26c-.72,1.57-1.83,3.51-2.78,4.87-5.47,7.82-7.83,18-10.58,22.13l-8.43,12.66c-3.14,4.71-4.31,7.31-8.33,11.3l-4.14,4.1-7.7,7.89c-1.38,1.41-2.79,2.89-4.66,3.54-.89.31-1.63,2.43-2.39,2.95l-7.91,5.37-9.74,5.78-5.9,3.93-4.42,2.73c-1.64,1.01-2.74,2.01-4.4,3.01l-5.14,3.09c-1.79,1.08-3.49,2.09-5.18,3.18l-5,3.21c-5.58,3.59-7.2,5.41-12.86,7.32-4.43,3.48-11.76,5.98-17.22,7.09-1.21,1.41-2.87,2.46-4.65,3.13-2.31.87-4.09,2.44-6.91,1.86-.72-.15-2.07,1.22-2.79,1.43l-7.19,2.1c-3.78,1.11-7.48,1.9-11.27,2.78-2.82.65-5.4,2.76-8.66,1.99-2.07-.49-3.48,1.9-4.89,2.22l-8.19,1.88c-1.07.25-2.8-.08-3.92-.52-4.05-1.57-3.5,2.09-7.73,2.15l-9.86.15c-1.68.03-4.19,1.76-5.84,1.65l-5.59-.35c-.88-.06-2.68-.5-3.42-.23-1.52.56-3.24,1.11-4.7.75-2.94-.73-5.49-.07-8.45-.02-1.68.02-3.87-.39-5.68-.49l-11.3-.65-6.85-.39c-1.55-.09-3.83-.89-5.45-1.23l-7.23-1.55-14.75-4.26-3.21-.4c-1.27-2.46-4.07-2.51-6.42-3.06-3.34-.78-6.41-2.37-9.61-3.64-1.96-.77-4.64-1-6.39-1.96-2.1-1.15-3.88-2.12-6.06-2.93l-3.77-1.4c-2.56-.95-5.01-2.97-7.56-4.05l-4.33-1.84c-1.73-.73-3.24-1.52-4.94-2.42l-3.78-2.01c-3.75-1.99-7.01-4.55-10.42-7.09-.87-.65-2.04-1.23-2.93-1.82l-5.61-3.7-9.71-7.17c-1.94-1.43-3.31-2.59-5.09-4.43-4.69-4.86-4.97-3.49-9.03-7.84l-5.28-5.65c-1.21-1.3-2.23-2.04-3.03-3.77-1.61-3.43-2.86-2.52-5.97-6.93-2.21-3.13-5.34-5.97-6.56-9.68-1.76-5.4-7.42-13.96-9.71-18.73l-5.64-11.72c-1.1-2.28-3.37-4.59-4.13-6.95-.67-2.09-1.11-3.94-2.01-5.86l-3.3-7.01-3.82-8.52c-5.31-11.85-1.63-7.74-5.98-17.3l-2.48-5.46c-.58-1.27-1.65-3.27-2.06-4.38l-1.53-6.33-1.5-5.68c-.62-2.34-.86-4.42-1.79-6.67-.78-1.87-2.05-4.34-2.46-6.2l-2.16-9.78-.95-4.25-1.3-5.38c-2.16-8.95-3.34-7.8-3.11-16.69.09-3.51-1.12-6.66-1.82-9.93-.45-2.1-.67-4.01-1.34-6.26l.62-4.49c-1.63-3.99-2.09-7.75-2.32-11.94l-.48-8.79-.52-5.72c-.26-2.93-.08-6.38-.59-9.2-.92-5.11-1.48-9.36-1.07-14.58l.61-7.7.7-8.29c.3-3.52.49-6.64.25-10.11-.19-2.73.74-5.69,1.15-8.57.21-1.5,0-3.66.31-5.04,1.02-4.45,1.38-8.39,1.62-13.01,2.38-8.46,2.44-5.19,4.7-14.9l1.56-6.7,1.74-7.65,2.05-8.85,1.12-4.3,2.76-11.59c.33-1.4.68-3.11.94-4.53.91-5.07,1.95-9.74,3.15-14.75l6.36-26.43,2.11-8.26c.49-1.9,1.07-3.74,1.41-5.8.32-1.92.5-4.3,1.12-6.03,1.08-3,3.28-5.7,2.99-9.02-.21-2.39-.03-4.57.48-6.96l1.11-5.21c.37-1.74.36-4.13.98-5.78,3.46-9.24,1.62-9.39,7.24-22.57,3.49-8.19,5.38-10.21,8.24-18.81,1.22-3.68,2.03-7.49,4.43-10.54,1.3-1.66,1.46-2.99,1.83-5.18.41-2.36,1.52-4.92,2.16-7.32.86-3.21,2.05-5.8,4.11-8.53l.42-4.1c2.88-2.75,4.69-6.03,6.81-9.18,2.42-3.59,4.64-6.76,5.57-11.05,1.04-.88,2.58-2.25,3.31-3.37l5.37-8.18,2.41-3.3c3.1-4.25,6.01-8.63,9.63-12.42,1.71-1.8,3.23-3.4,4.56-5.42l2.25-3.43,6.3-9.21c.61-.9,2.56-2.23,2.83-3.27,1.69-6.72,4.56-5.37,8.57-12.06l2.36-3.93c1.44-2.4,3.57-4.07,5.42-5.9,6.01-5.95,6.86-5.08,11.41-10.3l3.42-3.93c2.22-2.54,4.12-5.48,6.57-7.92,1.94-1.93,3.77-3.78,5.52-5.84l4.58-5.37,3.99-3.08c1.71-1.32,2.74-3.16,4.21-4.61l12.52-12.29,3-2.78c1.77-1.64,4.43-2.83,6.4-4.38,7.4-5.86,7.86-3.19,15.97-9.9,7.63-6.32,10.14-8.31,18.69-13.49l4.82-2.91c1.89-1.14,3.77-3.35,8.14-6.36l7.35-5.06c.2-.14,9.73-4.82,9.44-4.64l4.79-3.11c1.58-1.03,3.7-1.37,5.07-2.37,1.54-1.12,2.8-1.4,4.44-2.05,1.37-.53,3.21-2.87,4.62-3.82,1.79-1.2,3.52-1.76,5.32-2.66,2.15-1.08,4.19-2.94,6.54-3.8l8.27-3.04c-1.07.39,15.2-9.48,20.17-10.72,2.14-.53,3.93-1.92,5.79-2.94l7.02-3.85c1.48-.81,3.11-1.24,4.55-2.31,1.6-1.19,3.43-1.94,5.4-3.05.99-.56,2.12-2.68,2.93-3.53.55-.58,3.02-.79,3.11-1.6.52-4.71,6.23-7,9.59-5.5,1.41.63.6,3.47,1.63,3.16,2.51-.76,1.87-3.3,3.91-4.71,1.63-1.12,2.69-2.41,3.87-4.04s3.28-3.2,3.39-5.3c.13-2.47.57-4.26,1.22-6.55.89-3.17-.03-7.07.68-10.32,2.61-12.07-.01-12.63.52-22.86.36-6.99.78-13.8.21-20.75l-.81-9.9c-.13-1.57-2.03-4.31-2.87-5.59-4.86-7.47,3.36-4.65-3.78-19.37.39-5.05-3.14-6.58-.39-9.46,1.65-1.73,3.61-1.39,5.75-.23,1.68.92,2.27,1.62,2.76,3.48,2.13,8.06,8.77,14.03,16.17,17.43l3.28,3.43c1.57,1.64,3.4,2.76,5.14,4.2,4.42,3.64,5.69,5.12,11.32,8.06,3.24,1.69,6.01,4.87,9.65,6.08,2.3.77,3.24,2.59,5.03,3.64l10.45,6.15c5.22,3.08,10.82,6.67,16.19,9.53l4.03,2.15c1.8.96,4.42,1.51,6.19,2.69l3.97,2.63c1.93,1.28,4.46,1.3,6.43,2.54l4.6,2.89,5.67,2.1c1.45.54,2.83,1.21,4.23,1.78l10.74,4.38c2.23.91,4.43,2.33,6.71,3.12,4.83,1.67,11.77,4.32,16.09,7.27.96.66,3.07,1.18,4.39,1.73,1.56.65,8.99,5.58,13.88,7.69,2.05.89,4.01,1.19,5.9,2.5,1.3.9,3.73,1.4,4.82,2.35,2.28,1.99,4.96,3.44,7.95,4.22.74.2,1.81,1.58,2.44,1.94l6.47,3.74c.68-.03,2.28-.5,2.7-.03,3.94,4.4-.59-.22,5.82,3.02,3.53,1.79,7.02,3.05,10.61,4.55l7.12,2.98,7.11,2.85c1.14.46,1.98.93,2.84,1.93,1.77,2.06,2.13-.59,6.49,2.87,2.14,1.7,2.74-1.38,5.32,1.36.78.83,2.01,1.21,3.19,1.61l5.8,1.98c5.11,1.74,7.33,3.41,12.16,4.88,2.13.65,4.16,1.51,6.31,2.42l3.06,3.35c3.06-1.44,4.55.68,6.57,1.77l3.65,1.97,10.06,5.48,6.07,3.31c1.46.8,3.27,1.2,4.46,2.38,3.77,3.72.93,3.09,3.47,3.26,1.89.13,3.1,1.69,4.55,2.59l4.17,2.58,5.42,3.42c1.55.98,2.67,1.93,4.1,3.13,2.93,2.45,7.22,3.63,9.65,6.88,1.32,1.77,7.06,4,11.03,7.41,5.67,4.87,2.47,4.52,6.52,5.35.92.19,1.57,2.53,2.05,3.33,1.74.7,3.52,1.58,4.91,2.89l6.62,6.23c2.14,2.02,4.45,3.53,6.51,5.36l7.19,6.38c1.67,1.48,5.1,1.76,6.56,3.72,1.11,1.49,2.78,2.51,4.09,3.78,1.83,1.78,3.67,2.9,5.62,4.44l7.46,5.87c2.94,2.31,4.04,4,7.29,7.07l9.8,9.26c1.6,1.51,3.06,3.1,4.87,4.58,1.05.86,2.22,3.1,3.25,3.75,3.03,1.92,4.24,4.82,6.26,7.54.74,1,2.77,2.14,3.6,3.42,1.52,2.32,3.33,3.94,5.68,5.31l.2,1.93c1.62,1.13,3.42,2.36,4.64,3.94,1.86,2.41,4.49,4.26,6.23,6.59l2.03,2.72c1.16,1.55,2.49,2.5,4.07,3.84.86.73,2.1,2.57,3.18,2.88,1.91.56,1.75,2.55,2.7,3.51,1.89,1.92,3.54,3.69,5.24,5.67l6.21,7.22c1.69,1.96,3.52,3.74,5.01,5.93l2.07,3.05,2.66,3.55,2.45,3.31c1.26,1.7,3.3,3.61,4.11,5.42.93,2.08,1.84,3.4,2.86,5.08l7.41,12.18c1.24,2.04,2.39,4.02,3.47,6.05l4.33,8.16c.37.7,1.3,1.87,1.8,2.7,2.67,4.4,2.18,6.38,5.35,12.24,1.08,1.99,1.77,3.61,2.57,5.77l1.48,3.96c1.15,3.08,2.3,5.93,3.34,8.95l2.3,6.68c1.12,3.26,1.53,7.87,3.61,9.1l3.24,10.48c.78,2.52,1.65,4.71,3.06,7.07l.86,4.49.2.83,1.06,4.49c.02.09.39.71.49.88l.43.72.57.96,1.37,4.1c.54,1.6,1.07,3.45,1.44,5.13l.75,3.38,1.6,7.61c.72,3.41,1.71,6.3,3.07,9.4.52,1.2.65,3.8,1.02,5.23l4.27,16.51c.52,2,2.3,15.97,2.43,18l.71,11.01.46,10.05c.37,8.14,2.93,9,2.31,20.04-.16,2.88,1.3,6.26.72,9.19-.79,3.97-.18,10.22-.93,16.16l-1.05,8.37-.92,6.71c-.56,4.06-.35,7.9-.97,11.96l-1.01,6.68c-.59,3.9-.74,7.59-1.27,11.42l-1.58,11.39-.81,5.55-1.12,6.05c-.46,2.48-.7,5.18-1.45,7.54-.81,2.52-1.1,4.62-1.34,7.3-.23,2.46-2.5,10.33-3.34,13.17l-2.99,10.07-2.28,7.1-2.07,6.8c-.49,1.61-.69,3.99-1.23,5.34l-2.79,7.02-1.09,3.15c-.9,2.58-2.95,5.36-3.53,8-.71,3.26-1.51,5.7-2.95,8.65-2.21,4.53-3.85,9.31-5.79,14.05l-4.2,10.27-3.09,6.71-4.01,8.32-3.31,5.86-4.46,8.61c-.91,1.75-1.42,3.96-2.11,5.71l-3.13,7.85c-1.17,2.93-3.28,5.63-4.61,8.6l-4.05,9.07c-.66,1.48-1.62,3.24-2.56,4.59l-3.4,4.85-5.74,9.38c-.75,1.22-2.02,2.58-2.59,3.97l-2.17,5.28-2.29,5.53c-.22.54-4.23,6.23-5.48,8.28l-2.02,3.3c-.92,1.51-2.05,2.85-2.59,4.91l-1.53-.06c-.52-.02-1.05,1.51-1.34,1.98-4.52,7.48-9.3,14.52-14.89,21.3-1.18,1.44-2.97,2.56-4.07,4.14s-2.5,3.03-3.99,4.29c-2.24,1.89-4.03,3.9-6.8,5.03-1.03.42-2,1.53-2.19,2.48l-.32,1.58c-.26,1.28-1.92-.91-4.88.91-2.75,1.7-5.37,3.85-8.16,5.03-3.05,1.29-5.59,2.62-8.44,4.27-1.46.84-3.27,1.42-4.6,2.62-1.77,1.61-3.71,1.8-5.74,2.57-6.09,2.3-10.23,5.66-16.04,6.27-.68.07-1.89,1.32-2.56,1.55l-6.39,2.16c-2.26.77-7.03,1.54-7.92,2.06-4.33,2.5-1.69.44-9.15,2.23-1.36.33-3.84.27-5.31.45-.38.05-1.47.49-1.86.49-6.57-.09-7.19.6-14.8.25l-4.63-.21c-5.67-.26-11.13.22-16.75-.08l-6.02-.32c-4.58-.24-8.89.16-13.49-.24l-6.21-.53c-2.27-.19-4.36-.17-6.44-.78l-5.46-1.62c-2.38-.7-4.47-1-6.78-1.81-2.78-.98-3.31.63-4.18-.88s-3.37-.74-4.6-1.22c-3.38-1.32-6.64-2.94-9.84-4.57l-4.16-2.12-9.58-5.34-4.33-2.32c-.62-.33-1.83-1.3-2.39-1.92l-5.04-5.6c-5.24-5.81-10.09-10.96-12.82-18.26-.95-2.54-2.67-5.25-3.3-7.83-.52-2.14-1-3.73-1.73-5.65-1.69-4.47-3.81-16.46-4.54-21.78-.39-2.81.36-6.07-.29-8.79l-1.27-5.26c-1.06-4.38-1.69-8.6-3.27-12.79-.67-1.79-.71-3.87-1.16-5.75l-1.28-5.28c-1.56-6.46-2.6-8.1-4-14.23l-2.17-2.71-2.69-5.68ZM524.32,477.93l1.74-6.1c.66-2.31,2.02-4.43,2.84-6.8l3.24-9.44c1.12-3.25,1.37-7.19,3.33-10.08,2.21-3.25,3.6-6.27,4.63-10.15.39-1.44,2.05-3.56,2.04-4.9,0-.92-.36-1.9,0-2.21s1.62-.85,1.9-1.32l4.16-6.96c.91-1.51,1.96-2.62,2.8-4.03,1.59-2.68,4.5-3.12,7.11-4.37,1.4-.67,2.87-1.87,4.61-1.97,2.72-.16,5.79-.54,8.44.25s6.04,3.48,7,5.83l2.17,5.32,1.92,4.73,2.51,6.34c1.47,3.73,3.24,11.42,3.94,15.69,1.84,11.19,2,5.33,3.79,14.23,1.66,8.23-.6,2.19,2,10.27,1.31,4.05,2.48,10.78,3.5,13.52.9,2.42,1.85,4.31,2.29,6.76.39,2.15,1.06,4.62,1.77,6.77,2.04,6.21,1.28,6.19,2.72,12.83.69,3.17,1.04,6.09,1.59,9.32l.83,4.83c.61,3.57.91,6.98,1.26,10.55.14,1.46.81,3.55.84,4.91.01.74-.68,2.38-.51,3.13.88,3.94,1.93,10.04,2.09,14.04l.46,11.46v7.29s.48,16.94.48,16.94c.02.7-.48,2.15-.51,2.74.06,4.42-1.16,20.35-2.36,24.08-.24.74-.03,2.26-.09,3.21-.5,7.4-.93,8.36-1.33,16.6-.18,3.7-1.03,7.49-.86,11.4s-.45,7.39-.77,10.96c-.37,4.16-.52,8.18-.63,12.17l-.2,7.33-.48,8.28-.59,8.35c-.43,6.03-.89,11.92-1.06,18.03-.06,1.96-.42,3.58-.72,5.4l-1.91,11.73c-.65,3.98-2.95,6.96-5.87,9.55-1.79,1.59-3.6,3.42-5.48,4.72-2.12,1.46-3.69,2.71-5.24,4.89-1.18,1.65-3.53,2.66-5.15,4-2,1.65-3.83,3-6.32,4.02l-1.32.54c-.3.12-.04,1.34.08,1.81,3.37.97,7.63,2.04,10.67,4.09,7.75,5.24,5.92,1.54,11.68,8.07l4.49,2.02c.91,2.3,2.2,3.48,4.53,4.56.85.4,1.74,2.02,2.39,2.67l6.44,6.45c2.5,2.5,5.61,4.23,7.49,7.52,1.29,2.25,3.5,3.46,5.3,5.04,5.51,4.82,6.74,5.9,12.98,9.92,1.89,1.22,3.43,2.76,5.69,3.61,7.92,2.98,4.56,3.23,12.89,6.82,1.7.73,2.95,2.31,5.42,1.78,5.29,3.7,4.46,2.18,8.12,4.29,1.44.83,3.86,1.05,5.5,1.8,7.72,3.54,15.26,5,23.68,4.86,7.73-.13,2.24,1.68,15.65.53,2.16-.18,3.86-.09,5.06,2.23.99-1.94,1.9-2.91,3.55-2.66,4.35.67,4.75-1.1,6.66.41.39.31.58,1.67.14,1.88-.35.17-1.27.42-1.7.44l-11.28.69-7.09.21-8.56.07c-3.55.03-7.03.38-10.6-.59l-4.53-1.24-7.74-2.13c-1.12-.31-2.06-.84-3.17-1.22l-3.62-1.25-3.26-1.28c-1.33-1.82-3.05-2.18-5.17-2.17l-2.58-2.52c-2.01.24-3.32-.14-4.6-1.06l-2.35-1.7c-1.06-2.83-3.32.54-5.16-1.55-2.93-3.32-.41-.57-7.01-3.97-.79-.41-2.21-.88-2.82-1.36-1.67-1.31-3.32-2.53-5.2-3.77l-.68-.45c-.15-.1-.53-.38-.72-.55l-4.75-4.18-8.55-6.61c-1.23-2.18-1.77-4.3-4.75-4.99-1.19-.28-1.99-1.98-2.76-2.75l-5.51-5.48c-1.04-1.04-2.16-2.82-2.93-4.04-3.12.39-3.01-2.32-6.88-5.67-1.12-.97-3.68-1.63-4.55-2.68s-1.57-2.15-2.56-2.6c-4.07-1.89-1.57-1.97-3.91-2.41-6.36-1.2-1.45-2.96-8.2-3.95-2.74-.41-5.87-2.82-8.88-2.09-8.57,2.09-12.48,6.39-20.49,8.29l-.91,1.16c-.24.31.82.97,1.3,1.16,2.6,1,8.28,4,10.18,5.34l5.76,4.08,4.36,3.57c.43.35,6.14,7.7,6.48,8.2,1.38,2.05,2.6,3.89,4.31,5.66l4.83,5c.77.79,1.74,1.78,2.43,2.79l3.16,4.59c2.01,2.93,3.6,5.52,5.36,8.64l3.16,5.63,2.02,3.63,1.83,4.38c1.41,3.36,2.52,6.36,3.85,9.69l1.71,4.27,1.6,4.65,1.21,7.07c.49,2.86,2.15,5.38,2.69,8.16,1.6,8.23,2.51,16,3.53,24.25.22,1.8,1.16,4.3,1.6,6.31l2.5,11.44c1.32,6.05,1.67,7.06,4.23,12.19,3.08,6.14,2.46,6.93,6.55,11.76l5.25,6.2c2.15,2.54,5.97,5.68,8.97,7.62l11.65,7.53c2.28,1.47,4.87,1.8,7.31,2.73,3.97,1.52.65,1.45,9.75,3.72,4.21,1.05.68-.3,6.02,1.48l6.27,2.08c1.01.34,2.5.99,3.47.96,3.96-.1,7.32.49,11.01.77l9.79.74c3.71.28,7.53.15,11.25-.1,1.81-.12,4.03-.94,5.72-.76l6.3.65c2.49.26,15.78,1.39,16.81.15,1.58-1.91,3.99-.02,5.86-.36l10.1-1.83c1-.18,2.51-1.8,3.16-2.47,1.62-1.69.8,1.56,6.82-.27l7.97-2.42,3.27-.91c6.37-1.78,12.58-4.57,18.22-8.25l4.14-1.41c1.89-.64,3.41-1.47,5.07-2.37l10.71-5.86c3.29-1.8,5.49-3.56,7.53-4.62,1.6-.83,2.51-1.25,3.64-2.45,2.75-2.9,6.28-5.45,8.52-8.81.74-1.11,1.08-1.85,2.05-2.66,3.95-3.3,6.83-7.32,9.98-11.29,3.9-4.91,3.39-6.16,7.53-11.6l3.37-4.43c5.88-7.74,5.02-9.69,7.76-13.46,1.32-1.82,5.63-9.97,6.91-12.4.86-1.64,2.26-3.25,3.06-5.02,1.38-3.08,4.34-7.43,6.32-10.25s3.39-6.34,4.89-9.56l2.08-4.46c1.49-3.2,2.98-6.26,4.93-9.3,1.32-2.06,2.33-4.12,2.67-6.57.3-2.16,1.69-3.84,2.51-5.73,1.45-3.33,2.49-6.53,4.56-9.59,1.01-1.48,1.42-3.61,2.21-5.1l3.74-7.03,3.59-6.77c.6-1.13,1.12-2.32,1.52-3.6,2.37-7.58,5.58-14.51,8.5-21.95.63-1.61,1.01-3.81,1.56-5.5,2.11-6.46,4.34-8.7,6.78-16.43l1.61-5.1c.65-2.05,1.94-3.99,2.59-6.07l1.65-5.22c.6-1.9.97-3.78,1.49-5.78.45-1.73,1.56-3.72,1.93-5.61.91-4.63,2.45-8.71,3.85-13.22.98-3.17.95-7.01,1.62-10.41,1.91-9.69,2.03-14.24,3.8-23.7l.96-5.16c.45-2.43,1.47-5.08,1.57-7.55.33-7.81,1.25-15.22,2.27-23.03l.83-6.35.59-10.25.91-10.88c.38-4.58.56-8.96.13-13.54l-1.73-18.51c-.64-6.9-.11-6.01-.91-13.01l-1.55-13.41-1.04-6.82c-.48-3.13-1.49-11.27-2.31-14l-2.04-6.75c-.93-3.07-1.89-5.74-2.35-9-.55-3.92-3.88-13.03-4.65-17.18-.54-2.92-.96-5.06-2.38-7.65-.92-1.67-.85-4.44-1.5-6.28l-1.94-5.51-3.82-11.21-4.2-11.81c-.68-1.92-1.96-3.72-2.38-5.78-.29-1.4-.52-3.2-.92-4.38l-1.43-4.24c-.41-1.2-1.36-2.79-2.2-3.93-1.03-1.4-.82-3.29-1.41-4.78l-3.69-9.36-2.27-4.97-3.61-7.73-6.73-13.04c-2.08-4.02-4.91-7.71-7.19-11.74-.7-1.25-1.4-2.38-2.23-3.52l-4.72-6.52-5.47-8.49c-4.36-6.77-3.2-2.94-7.33-8.83-4.02-5.75-4.24-5.21-7.67-9.4-3.18-3.88-4.69-4.07-5.45-5.28-1.19-1.91-2.68-3.2-4.16-4.87-1.11-1.25-2.1-3-3.45-4.16l-6.16-5.32c-1.41-1.22-2.23-2.8-3.5-4.21l-11.5-12.77c-3.5-3.88-6.42-7.88-10.29-11.42l-7.91-7.24c-4.27-3.91-7.81-7.75-11.33-10.86l-9.88-8.72-5.79-4.52-4.44-3.88c-5.94-5.19-6.31-2.87-14.86-10.92l-2.73-2.57c-1.81-1.71-3.64-3.11-5.54-4.83l-5.95-5.35-3.57-2.71-4.14-3.92-6.11-4.43-5.31-3.94-5.72-4.05c-3.1-2.2-5.98-4.38-9.31-6.34l-4.86-2.87-4.73-3.56c-1.11-.83-2.26-1.6-3.46-2.34l-10.58-6.48c-.19-.12-.51-.39-.62-.52l-.57-.66c-1.89-.75-4.38-1.4-5.98-2.39l-3.88-2.39c-1.43-.88-2.87-1.58-4.41-2.29-2.11-.97-3.97-2.14-5.98-3.2l-8.92-4.68c-1.83-.96-3.5-2.04-5.48-2.8l-9.98-3.83c-2.08-.8-3.76-1.56-5.82-2.59-5.54-2.79-6.14-1.48-11.43-3.85l-5.46-2.45c-5.98-2.68-11.94-5.01-18.1-7.34-2.57-.97-5.13-2.05-7.48-3.37-1.63-.91-2.97-1.72-4.96-1.87-.67-.05-1.93-1.07-2.65-1.27-3.93-1.08-7.97-2.92-11.55-5.02l-4.84-2.84-7.32-3.66-6.58-3.82c-3.94-2.29-10.66-4.82-13.62-7.09-5.1-3.91-14.83-6.72-14.86-6.74l-8.65-4.37c-6.34-3.21-5.62-1.47-12.57-5.61-1.24-.74-3.81-.88-4.96-1.65-1.63-1.11-2.97-1.32-4.84-2-7.77-2.84-11.74-6.09-19.23-9.27l-9.02-3.84c-2.16-.92-3.9-3.23-5.98-4.24l-4.16-2.03-6.44-3.71c-2.26-1.3-4.02-2.41-6.09-4.09-3.73-3.03-8.78-5.82-12.82-8.24l-9.79-5.86-6.98-4.89c-.91-.64-1.86-1.34-2.82-1.83-3.35-1.74.49.14-4.34-4.41-1.58-1.49-8.71-7.62-9.57-6.3-1.1,1.69,1.24,7.55,2.67,10.04,2.24,3.9,4.93,4.72,6.74,6.21,1.43,1.17,2.46,2.57,4.28,3.23,4.86,9.48,1.41,4.86,8.28,10.64l3.26,2.75c6.25,5.27,4.33,2.09,10.14,11.35.68,1.08,2.03,2,2.61,3.59,2.55,6.98,5.46,6.89,7.58,12.39.51,1.32,1.73,2.68,2.27,3.91,2.51,5.64,4.39,11.39,8.09,16.6,1.78,2.5,3.16,4.9,4.6,7.81l2.65,5.39c1.71,3.47,3.92,6.98,4.3,10.76,1.16,1.28,3.46,3.19,3.69,4.73.82,5.38,4.95,8.86,7.25,20.26l2.63,13.04c.3,1.48,1.07,2.74,1.6,4.18,1.42,3.89,2.31,8.2,3.1,12.3.43,2.19.88,3.49,2.17,5.23,1.55,2.1,1.8,5.24,2.61,7.71,3.94,11.85-1.67,5.58,7.27,23.27,1.88,3.72,3.05,7.13,4.2,11.03l2.44,8.28,1.26,4.45c1.06,3.76,1.51,7.53,1.85,11.46l1.16,13.49c.1,1.11,1,2.7,1.61,3.76-1.88,4.62.57,7.69.64,11.08.07,2.91.61,5.23.98,7.95l1.54,11.36c.3,2.2.34,4.74,1.4,6.45l.91,1.46c.2.31-1.05,1.33-1.02,1.76l.8,11.4c.46,6.48,1.52,10.79.45,17.75-.87.81-3.6-.03-3.37-1.07,1.37-6.18-.63-1.66-.42-11.41.06-2.66-.91-4.89-2.23-7.01.22-5.38-.41-5.54-.56-12.13-.17-7.97-1.19-7.15-1.73-14.04-.79-10.1-1.83-9.48-2.28-18.55-.31-6.14-2-4.26-1.51-7.2.54-3.26-.86-6.3-1.08-9.18-.16-2.11-.31-3.98-.61-6.09l-1.17-8.3c-.41-2.9-1.92-5.46-1.46-8.44s-2.32-3.37-3.08-6.39l-1.18-4.67c-.46-1.83-2.14-3.29-2.77-4.83s-1.17-3.15-1.7-4.69c-1.99-5.8-.51-6.91-3.55-8.32-1.89-5.91-2.68-13.91-4.14-19.38-.39-1.46-.64-2.89-.88-4.3-.38-2.24-2.38-3.96-.93-6.57l-2.25-.94c-.34-1.04-1.14-2.77-1.27-3.66l-.85-5.97c-1.03-7.29-1.48-3.3-2.47-10.65-.26-.58-1.88-1.26-1.74-1.86l.61-2.6c.2-.88-1.06-2.24-1.33-3.13l-1.75-5.65c-1.72-5.55-2.11-4.42-3.68-8.16l-1.85-4.41c-1.43-3.41-2.89-6.62-4.8-9.71l-1.99-3.23-3.36-6.46-4.94-8.52c-1.01-1.74-2.1-3.99-2.77-5.91l-2.14-6.18c-.2-.57.33-2.72-.28-2.75-.52-.03-1.27.11-2.58.33.09.14-.41-.64-.61-.94.26-1.21.19-2.88-.33-3.71l-3.22-5.09c-2.48-3.92-5.16-6.81-7.73-10.58s-7.06-7.36-10.72-10.29c-2.93-2.34-4.92-4.53-7.39-7.37-1.68-1.93-4.67-4.53-6.01-6.43-.44-.63-2.38-.79-2.94-.48-.47.26-1,1.46-.94,2.01.66,5.88.31,11.24.29,17l-.02,6.26.15,5.68.25,9.94c.05,1.88-1.25,4.43-1.35,6.4-.18,3.52-.52,6.68-1.31,10.2-.95,4.2-.97,9.06-3.48,12.68-1.42,2.05-3.77,3.89-5.5,5.72-2.28,2.41-4.76,4.17-7.23,6.32-1.3,1.14-2.77,2.73-4.12,4.07-1.66,1.65-3.29,2.87-5.08,4.3-2.19,1.74-4.1,3.54-6.5,4.95-6.62,3.88-8.56,1.79-8.71,5.75l-.06,1.54c0,.08-9.7-2.47-15.48.24-1.11.52-2.58.98-3.58,1.65-1.53,1.03-2.88,1.65-4.61,2.24l-.97,2.61c-2.26-.75-3.87-.19-5.67,1.08-2.56,1.8-7.43,3.61-11.09,5.55l-5.73,3.05c-2.01,1.07-4.48,2.15-6.22,3.52-6.15,4.83-1.4-.2-8.82,4.56-1.81,1.16-3.33,1.82-5.07,2.97l-4.15,2.73-5.49,2.8-4.96,2.38c-1.25.6-2.27,1.48-3.35,2.3l-3.88,2.98-2.92,1.76c-1.16.7-1.98,1.42-3.08,2.12l-7.56,4.85-6.91,4.53-8.71,6.57-8.63,5.86-4.97,2.83-6.35,4.02c-6.2,3.92-13.24,10.9-18.05,16.74-.69.84-2.33,1.56-3.28,2.36-5.54,4.68-2.1,4.02-7.87,8.71-1.54,1.25-6.21,7.03-7.56,8.51l-7.11,7.75c-1.13,1.24-1.96,2.56-3.14,3.64l-2.98,2.71-5.3,4.6c-1.05.91-2.25,2.72-3.38,3.84-1.82,1.79-4.35,3.5-5.85,5.35l-6.32,7.81c-1.89,2.34-3.85,4.79-5.56,7.39l-4.73,7.21-6.76,9.18-10.65,14.18-2.47,3.21-5.27,7.19-3.6,5.17-7.98,12.17-6.77,11.24c-2.26,3.75-3.33,7.37-4.22,11.59-.29,1.38-1.8,3.47-1.94,4.79-.24,2.36-.51,3.56-1.6,5.41-1.19,2.02-1.47,4.82-2.35,7.12-2.48,6.5-4.26,6.19-4.75,10.16-.52,4.2-3.14,5.92-5.22,11.73l-2.24,6.25-2.77,8.1c-1.74,5.08-2.59,10.19-3.65,15.34l-1.76,8.52-1.94,8.85c-.5,2.27-.63,4.95-1.35,7.11-1.12,3.35-1.89,6.42-2.63,9.82l-1.38,6.34-2.47,10.55c-1.31,5.6-3.55,10.87-4.33,16.64-.3,2.27-.94,4.05-1.59,6.15-1.09,3.55-1.16,7.61-2.14,11.3l-2.67,10.14-1.94,8.87c-.81,3.7-1.8,7.13-2.66,10.9l-1.46,6.36c-1.17,5.12-2.13,9.98-3.75,14.91s-2.1,9.62-2.75,14.63l-1.22,9.37c-.62,4.75.46,9.75-.38,14.46-.61,3.45-1.52,6.67-1.49,10.28l.08,10.53.63,5.27c.18,1.48-.56,3.17-.2,4.67.45,1.87.31,3.64.46,5.42.46,5.47.77,10.59.94,16.1.06,1.76.32,3.88.58,5.62l.93,6.25.66,5.07,1.12,6.79c.6,3.66,1.04,7.14,1.43,10.91l1.06,10.17c.08.8.79,2.38.99,3.21l1.96,7.81,4.12,14.06c.71,2.41,2.81,6.79,3.65,10.2l2.21,8.93c.43,1.73.58,3.52,1.31,5.13,1.15,2.53,1.9,4.92,2.89,7.47l1.72,4.44,2.82,8.49,1.74,4.95c.69,1.95,1.39,3.64,2.19,5.41l3.66,8.08c2.95,6.51,1.23,4.08,4.64,10.3l2.07,3.77,3.09,5.73c.74,1.37,1.14,2.75,1.88,4.22l4.44,8.76c1.29,2.55,1.92,4.6,3.37,7.15,3.68,6.45,2.19,6.96,8.26,13.94l4.32,4.97,10.25,11.5c1.9,2.13,3.97,4.44,6.21,6.16l12.9,9.95c2.71,2.1,6.95,4.13,8.82,7.14l2.18,1.04c1.26,1.03,2.95,1.7,4.23,2.54,2.26,1.48,4.26,2.87,6.71,4.1l12.01,6.02,5.18,2.19c2.32.98,4.43,2.91,6.91,3.8,1.37.49,3.3,1.69,4.45,1.97,8.5,2.04,9.3,4.16,12.61,4.72,3.89.66,7.92,3.29,11.47,4.23,2.99.79,5.25,1.35,8.11,2.57,9.33,3.99,28.09,3.87,36.89,5.09l5.65.79c8.46,1.18,24.26-.65,26.72-.52,2.76.14,5.35-.63,8.12-1.11,4.44-.77,15.03-1.58,16.89-1.97l6.86-1.45c2.18-.46,4.74-2.78,6.98-2.99,1.8-.17,3.45-.2,5.23-.54l3.89-.74c2-2.08,4.65-1.79,7.05-2.62,4.06-1.41,8.03-2.65,12.23-3.88,1.8-.53,3.83-1.44,5.79-1.25,2.79-2.77,6.23-4.54,10.36-5.28,2.63-.64,5.38-3.03,7.9-4.21l4.51-2.12c10.48-4.91,11.35-8.65,20.81-11.48l3.32-2.39c6.98-5.03,13.88-9.6,21.4-13.68,5.15-2.78,9.44-6.14,13.62-10.12,1.42-1.35,3.2-2.5,4.39-3.99,1.52-1.91,3.19-3.39,4.81-5.08l5.57-5.82c.85-.89,2.12-2.33,2.73-3.35,1.99-3.35,4.07-6.08,6.55-9.07,1.69-2.03,3.09-4.53,4.67-6.74,1.88-2.62,3.22-5.4,4.64-8.31l3.86-7.91c1.26-2.57,1.84-5.7,3.39-8.08,4.29-6.59,7.53-13.26,10.54-20.52.53-1.29,2.5-2.96,2.82-4.15.58-2.17.93-4.1,1.58-6.04l4.77-14.37.95-4.75c1.07-5.4,2.94-8.13,4.4-15.36.22-1.11,1.63-3.06,1.13-4.36-.91-2.34-6.36-4.55-8.18-5.06l-6.58-1.83c-1.35-.69-3.22-2.8-4.57-3.94-2.12-1.79-4.58-3.47-5.6-6.14-.51-1.35-1.32-3.3-1.56-4.53l-1.16-6.1c-2.26-11.88,1.06-6-4.2-19.04l-3.47-8.61c-2.23-5.52-1.93-10.12-4.52-18.25-.88-2.77-1.44-5.8-2.16-8.72l-1.27-5.13c-1.54-6.24-1.11-11.92-1.03-17.75l.14-10.8c.06-4.36,1.15-8.39,2.68-12.44.96-2.55,1.52-5.37,2.36-8.09,1.48-4.79,2.66-9.67,3.74-14.73.35-1.64,1.21-2.94,1.66-4.37l2.15-6.84c.75-2.4,1.41-4.77,2.22-7.23l2.74-8.31,2.92-11.31c.59-2.27,1.05-4.9,1.43-7.19l2.37-14.27c1.28-7.7,1.87-5.89,3.17-15.42.46-3.42,3.24-5.22,2.84-10.8,1.27-2.72,1.76-5.39,2.24-8.3l1.39-8.34c.51-3.08,1.85-6.07,2.54-9.06.17-.73,3.62-15.44,3.27-14.5l2.95-8.03,2.17-6.14,3.4-9.11ZM513.3,766.55c1.92.96,6.99.64,8.2-1.15,1.72-2.59,4.99-5.11,7.18-3.82.52.31,1.06,2.02,1.44,1.75l1.58-1.09,2.7,3.72c2.22,1,3.67,1.93,5.75,3.22,1.38.85,4.28-1.26,5.73-1.69l5.81-1.7c2.09-.61-1.06-5.3,2.47-6.53.95-.33,1.81.76,2.63,1.41,2.26,1.81,5.41.13,6.86-1.9l2.83-1.32c1.7-1.39,3.13-2.41,4.8-3.63l4.13-3.03c2.22-1.62,4.5-3.5,6.35-5.51,4.6-4.96,7.43-5.26,10.46-10.17,1.05-1.71,1.93-4.58,2.12-6.44l1.46-14.04c.51-4.89.97-9.57,1.15-14.5l.59-16.37.67-15.17,1.24-8.96.77-15.83c.18-3.59.55-6.93.96-10.46l.77-6.64.85-7.29,2-20.12c.24-2.42-.03-4.94.03-7.27l.3-12.65c.04-1.53-.2-2.92-.35-4.59-.21-2.3.02-5.04.08-7.43.07-2.67-.36-4.97-.54-7.61l-.58-8.48c-.22-3.2-.99-6.13-1.28-9.42l-.68-7.83c-.26-3-1.72-6.24-1.7-9.37.05-13.34-2.91-17.12-6.15-30.14l-3.19-12.82c-1.14-4.6-1.74-8.99-3.29-13.41l-2.71-7.68c.36,1.03-3.17-14.68-3.23-15.05-.75-5.21-2.14-9.85-3.96-14.73-2-5.36-1.94-10.19-7.44-13.9-8.39-3.47-17.72,8.02-19.4,14.52-.29,1.12-2.06,2.73-2.61,3.91-1.26,2.71-2.27,5.33-3.35,8.08l-3.77,9.66-1.93,4.7-5.66,15.1c-.8,2.13-1.32,4.42-1.85,6.59l-2.22,3.75c-.68,3.33-1.79,6.23-3,9.39l-2.49,6.53c-.62,1.62-.88,3.94-1.36,5.7l-1.56,5.7-1.75,6.32-2.42,9.61-2.68,10.24-1.69,8.27-2.35,9.83-1.62,8.42c-1.46,7.61-3.02,14.88-3.85,22.66-.13,1.25-1.43,3.1-1.65,4.21l-1.56,8.01c-1.7,8.72-4.22,7.23-3.99,15.25-.8,1.29-1.84,3.31-2.35,4.93l-3.73,11.85c-1.67,5.3-2.44,5.82-4.01,11.96l-1.73,6.76-2.3,7.35c-.68,2.17-.94,4.38-.99,6.7l-.14,6.28-.16,9.79c-.06,3.53,1.74,7.73,1.62,6.91l1.61,10.6,2.99,9.97c.24.8,3.24,14.14,3.33,14.38.75,2.17,1.55,3.82,2.67,5.77.86,1.5,1.29,3.7,2.02,5.32,3.03,6.72-.69.31,2.18,7.99.75,2.01.46,4.91.86,7.1l1.29,6.99c.19,1.06,1.84,2.51,2.45,3.53.97,1.6,1.26,3.64,3.1,4.26,3.48,1.18,2.12,2.23,7.25,4.78Z"/>
  <path class="cls-1" d="M524.32,477.93l-3.4,9.11-2.17,6.14-2.95,8.03c.34-.94-3.11,13.77-3.27,14.5-.69,2.99-2.03,5.98-2.54,9.06l-1.39,8.34c-.49,2.91-.98,5.58-2.24,8.3.4,5.57-2.38,7.38-2.84,10.8-1.3,9.54-1.89,7.72-3.17,15.42l-2.37,14.27c-.38,2.29-.84,4.92-1.43,7.19l-2.92,11.31-2.74,8.31c-.81,2.46-1.47,4.83-2.22,7.23l-2.15,6.84c-.45,1.43-1.31,2.73-1.66,4.37-1.08,5.06-2.26,9.93-3.74,14.73-.84,2.72-1.39,5.54-2.36,8.09-1.53,4.05-2.62,8.08-2.68,12.44l-.14,10.8c-.08,5.83-.51,11.51,1.03,17.75l1.27,5.13c.72,2.92,1.28,5.94,2.16,8.72,2.59,8.13,2.29,12.73,4.52,18.25l3.47,8.61c5.26,13.04,1.94,7.16,4.2,19.04l1.16,6.1c.23,1.23,1.04,3.19,1.56,4.53,1.02,2.67,3.48,4.35,5.6,6.14,1.35,1.14,3.22,3.26,4.57,3.94l6.58,1.83c1.81.51,7.27,2.71,8.18,5.06.5,1.3-.9,3.26-1.13,4.36-1.46,7.23-3.32,9.96-4.4,15.36l-.95,4.75-4.77,14.37c-.64,1.94-1,3.87-1.58,6.04-.32,1.19-2.29,2.86-2.82,4.15-3.02,7.26-6.26,13.93-10.54,20.52-1.55,2.38-2.13,5.5-3.39,8.08l-3.86,7.91c-1.42,2.91-2.76,5.69-4.64,8.31-1.58,2.21-2.99,4.71-4.67,6.74-2.48,2.99-4.56,5.72-6.55,9.07-.61,1.02-1.88,2.46-2.73,3.35l-5.57,5.82c-1.61,1.69-3.29,3.17-4.81,5.08-1.19,1.49-2.97,2.64-4.39,3.99-4.17,3.98-8.47,7.33-13.62,10.12-7.52,4.07-14.42,8.64-21.4,13.68l-3.32,2.39c-9.46,2.83-10.33,6.57-20.81,11.48l-4.51,2.12c-2.52,1.18-5.27,3.57-7.9,4.21-4.13.74-7.57,2.51-10.36,5.28-1.96-.19-3.99.73-5.79,1.25-4.2,1.23-8.17,2.47-12.23,3.88-2.39.83-5.04.54-7.05,2.62l-3.89.74c-1.78.34-3.44.38-5.23.54-2.24.21-4.8,2.53-6.98,2.99l-6.86,1.45c-1.86.39-12.44,1.2-16.89,1.97-2.77.48-5.36,1.26-8.12,1.11-2.46-.13-18.26,1.7-26.72.52l-5.65-.79c-8.79-1.22-27.56-1.11-36.89-5.09-2.86-1.22-5.12-1.78-8.11-2.57-3.55-.94-7.58-3.57-11.47-4.23-3.31-.56-4.11-2.68-12.61-4.72-1.15-.28-3.08-1.48-4.45-1.97-2.48-.89-4.58-2.82-6.91-3.8l-5.18-2.19-12.01-6.02c-2.46-1.23-4.46-2.62-6.71-4.1-1.27-.84-2.97-1.5-4.23-2.54l-2.18-1.04c-1.87-3.01-6.1-5.04-8.82-7.14l-12.9-9.95c-2.24-1.73-4.31-4.03-6.21-6.16l-10.25-11.5-4.32-4.97c-6.06-6.99-4.57-7.49-8.26-13.94-1.45-2.55-2.08-4.6-3.37-7.15l-4.44-8.76c-.75-1.47-1.14-2.85-1.88-4.22l-3.09-5.73-2.07-3.77c-3.42-6.22-1.7-3.79-4.64-10.3l-3.66-8.08c-.8-1.77-1.5-3.46-2.19-5.41l-1.74-4.95-2.82-8.49-1.72-4.44c-.99-2.56-1.74-4.94-2.89-7.47-.73-1.61-.89-3.4-1.31-5.13l-2.21-8.93c-.84-3.41-2.95-7.79-3.65-10.2l-4.12-14.06-1.96-7.81c-.21-.83-.91-2.41-.99-3.21l-1.06-10.17c-.39-3.77-.83-7.25-1.43-10.91l-1.12-6.79-.66-5.07-.93-6.25c-.26-1.74-.52-3.86-.58-5.62-.18-5.51-.48-10.63-.94-16.1-.15-1.77-.01-3.55-.46-5.42-.36-1.51.38-3.2.2-4.67l-.63-5.27-.08-10.53c-.03-3.61.88-6.82,1.49-10.28.83-4.71-.24-9.71.38-14.46l1.22-9.37c.65-5.01,1.15-9.78,2.75-14.63s2.58-9.79,3.75-14.91l1.46-6.36c.86-3.78,1.86-7.21,2.66-10.9l1.94-8.87,2.67-10.14c.97-3.69,1.05-7.75,2.14-11.3.64-2.09,1.28-3.88,1.59-6.15.77-5.77,3.01-11.04,4.33-16.64l2.47-10.55,1.38-6.34c.74-3.41,1.51-6.48,2.63-9.82.72-2.15.86-4.84,1.35-7.11l1.94-8.85,1.76-8.52c1.06-5.15,1.91-10.26,3.65-15.34l2.77-8.1,2.24-6.25c2.08-5.8,4.7-7.52,5.22-11.73.49-3.97,2.27-3.66,4.75-10.16.88-2.3,1.15-5.09,2.35-7.12,1.1-1.85,1.37-3.05,1.6-5.41.13-1.32,1.65-3.4,1.94-4.79.89-4.22,1.96-7.83,4.22-11.59l6.77-11.24,7.98-12.17,3.6-5.17,5.27-7.19,2.47-3.21,10.65-14.18,6.76-9.18,4.73-7.21c1.71-2.61,3.67-5.05,5.56-7.39l6.32-7.81c1.5-1.85,4.02-3.56,5.85-5.35,1.14-1.12,2.33-2.93,3.38-3.84l5.3-4.6,2.98-2.71c1.18-1.08,2.01-2.4,3.14-3.64l7.11-7.75c1.36-1.48,6.02-7.25,7.56-8.51,5.77-4.69,2.33-4.03,7.87-8.71.95-.8,2.59-1.52,3.28-2.36,4.81-5.84,11.84-12.82,18.05-16.74l6.35-4.02,4.97-2.83,8.63-5.86,8.71-6.57,6.91-4.53,7.56-4.85c1.1-.7,1.92-1.42,3.08-2.12l2.92-1.76,3.88-2.98c1.07-.83,2.1-1.71,3.35-2.3l4.96-2.38,5.49-2.8,4.15-2.73c1.74-1.14,3.26-1.8,5.07-2.97,7.42-4.76,2.67.27,8.82-4.56,1.75-1.37,4.21-2.45,6.22-3.52l5.73-3.05c3.66-1.95,8.53-3.75,11.09-5.55,1.8-1.27,3.42-1.83,5.67-1.08l.97-2.61c1.73-.59,3.07-1.21,4.61-2.24,1-.67,2.46-1.13,3.58-1.65,5.78-2.71,15.48-.16,15.48-.24l.06-1.54c.15-3.96,2.09-1.87,8.71-5.75,2.4-1.41,4.31-3.2,6.5-4.95,1.79-1.43,3.42-2.65,5.08-4.3,1.34-1.34,2.81-2.94,4.12-4.07,2.47-2.15,4.95-3.9,7.23-6.32,1.73-1.84,4.09-3.67,5.5-5.72,2.5-3.62,2.53-8.48,3.48-12.68.79-3.52,1.14-6.67,1.31-10.2.1-1.97,1.4-4.52,1.35-6.4l-.25-9.94-.15-5.68.02-6.26c.02-5.76.37-11.12-.29-17-.06-.55.47-1.75.94-2.01.56-.31,2.5-.15,2.94.48,1.34,1.91,4.33,4.5,6.01,6.43,2.47,2.84,4.46,5.03,7.39,7.37,3.66,2.92,8.06,6.37,10.72,10.29s5.24,6.66,7.73,10.58l3.22,5.09c.52.83.58,2.5.33,3.71.19.3.7,1.08.61.94,1.31-.23,2.06-.36,2.58-.33.61.03.08,2.18.28,2.75l2.14,6.18c.67,1.92,1.76,4.17,2.77,5.91l4.94,8.52,3.36,6.46,1.99,3.23c1.91,3.1,3.37,6.3,4.8,9.71l1.85,4.41c1.57,3.74,1.95,2.61,3.68,8.16l1.75,5.65c.28.89,1.54,2.25,1.33,3.13l-.61,2.6c-.14.6,1.48,1.28,1.74,1.86.99,7.34,1.43,3.35,2.47,10.65l.85,5.97c.13.9.92,2.62,1.27,3.66l2.25.94c-1.45,2.61.55,4.34.93,6.57.24,1.41.49,2.84.88,4.3,1.46,5.47,2.25,13.46,4.14,19.38,3.04,1.42,1.56,2.53,3.55,8.32.53,1.54,1.08,3.19,1.7,4.69s2.31,3.01,2.77,4.83l1.18,4.67c.76,3.02,3.55,3.36,3.08,6.39s1.05,5.53,1.46,8.44l1.17,8.3c.3,2.11.44,3.98.61,6.09.22,2.88,1.62,5.92,1.08,9.18-.49,2.94,1.2,1.06,1.51,7.2.45,9.08,1.49,8.46,2.28,18.55.54,6.89,1.56,6.08,1.73,14.04.14,6.6.77,6.76.56,12.13,1.32,2.11,2.29,4.35,2.23,7.01-.21,9.76,1.79,5.24.42,11.41-.23,1.05,2.5,1.89,3.37,1.07,1.07-6.96,0-11.26-.45-17.75l-.8-11.4c-.03-.43,1.22-1.44,1.02-1.76l-.91-1.46c-1.07-1.7-1.11-4.25-1.4-6.45l-1.54-11.36c-.37-2.72-.91-5.04-.98-7.95-.08-3.39-2.52-6.45-.64-11.08-.62-1.06-1.52-2.65-1.61-3.76l-1.16-13.49c-.34-3.93-.79-7.7-1.85-11.46l-1.26-4.45-2.44-8.28c-1.15-3.9-2.32-7.31-4.2-11.03-8.94-17.69-3.33-11.43-7.27-23.27-.82-2.47-1.06-5.61-2.61-7.71-1.29-1.74-1.74-3.03-2.17-5.23-.8-4.1-1.69-8.41-3.1-12.3-.52-1.44-1.3-2.71-1.6-4.18l-2.63-13.04c-2.3-11.41-6.43-14.88-7.25-20.26-.23-1.54-2.54-3.45-3.69-4.73-.38-3.78-2.59-7.28-4.3-10.76l-2.65-5.39c-1.44-2.92-2.82-5.31-4.6-7.81-3.7-5.22-5.58-10.96-8.09-16.6-.55-1.23-1.76-2.59-2.27-3.91-2.12-5.5-5.03-5.41-7.58-12.39-.58-1.59-1.93-2.51-2.61-3.59-5.81-9.26-3.89-6.08-10.14-11.35l-3.26-2.75c-6.86-5.78-3.42-1.16-8.28-10.64-1.82-.66-2.85-2.06-4.28-3.23-1.81-1.49-4.5-2.31-6.74-6.21-1.43-2.48-3.77-8.35-2.67-10.04.86-1.32,7.99,4.81,9.57,6.3,4.83,4.55.98,2.67,4.34,4.41.96.5,1.91,1.19,2.82,1.83l6.98,4.89,9.79,5.86c4.04,2.42,9.09,5.21,12.82,8.24,2.07,1.68,3.83,2.79,6.09,4.09l6.44,3.71,4.16,2.03c2.08,1.02,3.82,3.33,5.98,4.24l9.02,3.84c7.48,3.18,11.46,6.43,19.23,9.27,1.87.68,3.21.9,4.84,2,1.14.78,3.72.92,4.96,1.65,6.95,4.14,6.23,2.4,12.57,5.61l8.65,4.37s9.76,2.83,14.86,6.74c2.96,2.27,9.68,4.8,13.62,7.09l6.58,3.82,7.32,3.66,4.84,2.84c3.57,2.1,7.62,3.94,11.55,5.02.73.2,1.98,1.22,2.65,1.27,1.99.14,3.33.96,4.96,1.87,2.35,1.32,4.91,2.4,7.48,3.37,6.16,2.33,12.11,4.66,18.1,7.34l5.46,2.45c5.29,2.37,5.89,1.06,11.43,3.85,2.06,1.04,3.74,1.79,5.82,2.59l9.98,3.83c1.98.76,3.65,1.84,5.48,2.8l8.92,4.68c2.02,1.06,3.87,2.23,5.98,3.2,1.54.71,2.98,1.41,4.41,2.29l3.88,2.39c1.61.99,4.1,1.64,5.98,2.39l.57.66c.12.13.43.41.62.52l10.58,6.48c1.21.74,2.36,1.5,3.46,2.34l4.73,3.56,4.86,2.87c3.33,1.97,6.21,4.15,9.31,6.34l5.72,4.05,5.31,3.94,6.11,4.43,4.14,3.92,3.57,2.71,5.95,5.35c1.9,1.71,3.73,3.12,5.54,4.83l2.73,2.57c8.55,8.05,8.92,5.73,14.86,10.92l4.44,3.88,5.79,4.52,9.88,8.72c3.52,3.11,7.06,6.95,11.33,10.86l7.91,7.24c3.87,3.54,6.79,7.54,10.29,11.42l11.5,12.77c1.27,1.41,2.09,3,3.5,4.21l6.16,5.32c1.34,1.16,2.33,2.91,3.45,4.16,1.49,1.67,2.97,2.96,4.16,4.87.76,1.22,2.27,1.4,5.45,5.28,3.44,4.19,3.65,3.66,7.67,9.4,4.12,5.89,2.97,2.06,7.33,8.83l5.47,8.49,4.72,6.52c.83,1.14,1.52,2.27,2.23,3.52,2.27,4.02,5.11,7.72,7.19,11.74l6.73,13.04,3.61,7.73,2.27,4.97,3.69,9.36c.59,1.49.38,3.38,1.41,4.78.84,1.14,1.8,2.74,2.2,3.93l1.43,4.24c.4,1.18.63,2.98.92,4.38.42,2.06,1.7,3.86,2.38,5.78l4.2,11.81,3.82,11.21,1.94,5.51c.65,1.84.58,4.61,1.5,6.28,1.42,2.59,1.84,4.73,2.38,7.65.77,4.15,4.09,13.26,4.65,17.18.46,3.26,1.42,5.94,2.35,9l2.04,6.75c.83,2.73,1.83,10.86,2.31,14l1.04,6.82,1.55,13.41c.81,7,.27,6.11.91,13.01l1.73,18.51c.43,4.58.25,8.96-.13,13.54l-.91,10.88-.59,10.25-.83,6.35c-1.02,7.81-1.93,15.22-2.27,23.03-.11,2.47-1.12,5.12-1.57,7.55l-.96,5.16c-1.76,9.45-1.89,14.01-3.8,23.7-.67,3.4-.64,7.23-1.62,10.41-1.4,4.51-2.94,8.59-3.85,13.22-.37,1.89-1.48,3.88-1.93,5.61-.52,2-.89,3.88-1.49,5.78l-1.65,5.22c-.66,2.08-1.95,4.02-2.59,6.07l-1.61,5.1c-2.44,7.73-4.67,9.96-6.78,16.43-.55,1.69-.93,3.88-1.56,5.5-2.91,7.44-6.12,14.36-8.5,21.95-.4,1.28-.92,2.47-1.52,3.6l-3.59,6.77-3.74,7.03c-.79,1.49-1.2,3.61-2.21,5.1-2.07,3.05-3.11,6.26-4.56,9.59-.82,1.88-2.21,3.56-2.51,5.73-.34,2.45-1.34,4.51-2.67,6.57-1.95,3.04-3.44,6.1-4.93,9.3l-2.08,4.46c-1.5,3.22-2.87,6.68-4.89,9.56s-4.94,7.17-6.32,10.25c-.79,1.77-2.2,3.38-3.06,5.02-1.28,2.44-5.59,10.59-6.91,12.4-2.74,3.77-1.88,5.73-7.76,13.46l-3.37,4.43c-4.14,5.44-3.63,6.69-7.53,11.6-3.15,3.97-6.03,8-9.98,11.29-.97.81-1.31,1.55-2.05,2.66-2.25,3.36-5.77,5.91-8.52,8.81-1.14,1.2-2.04,1.62-3.64,2.45-2.04,1.06-4.24,2.82-7.53,4.62l-10.71,5.86c-1.66.91-3.18,1.73-5.07,2.37l-4.14,1.41c-5.64,3.67-11.85,6.46-18.22,8.25l-3.27.91-7.97,2.42c-6.02,1.83-5.2-1.42-6.82.27-.65.67-2.16,2.29-3.16,2.47l-10.1,1.83c-1.87.34-4.28-1.55-5.86.36-1.02,1.24-14.32.11-16.81-.15l-6.3-.65c-1.7-.18-3.91.64-5.72.76-3.72.26-7.54.38-11.25.1l-9.79-.74c-3.69-.28-7.05-.87-11.01-.77-.98.03-2.46-.63-3.47-.96l-6.27-2.08c-5.33-1.77-1.8-.43-6.02-1.48-9.1-2.27-5.78-2.2-9.75-3.72-2.44-.93-5.03-1.26-7.31-2.73l-11.65-7.53c-3-1.94-6.82-5.08-8.97-7.62l-5.25-6.2c-4.09-4.83-3.47-5.62-6.55-11.76-2.57-5.12-2.91-6.14-4.23-12.19l-2.5-11.44c-.44-2.01-1.37-4.51-1.6-6.31-1.03-8.25-1.93-16.03-3.53-24.25-.54-2.78-2.2-5.3-2.69-8.16l-1.21-7.07-1.6-4.65-1.71-4.27c-1.33-3.33-2.45-6.33-3.85-9.69l-1.83-4.38-2.02-3.63-3.16-5.63c-1.75-3.12-3.34-5.71-5.36-8.64l-3.16-4.59c-.69-1.01-1.66-1.99-2.43-2.79l-4.83-5c-1.72-1.77-2.93-3.61-4.31-5.66-.34-.5-6.05-7.85-6.48-8.2l-4.36-3.57-5.76-4.08c-1.9-1.34-7.57-4.34-10.18-5.34-.48-.18-1.55-.84-1.3-1.16l.91-1.16c8.01-1.9,11.91-6.2,20.49-8.29,3.01-.73,6.13,1.69,8.88,2.09,6.75,1,1.84,2.75,8.2,3.95,2.34.44-.16.52,3.91,2.41.99.46,1.67,1.53,2.56,2.6s3.43,1.71,4.55,2.68c3.87,3.35,3.76,6.06,6.88,5.67.77,1.22,1.89,3,2.93,4.04l5.51,5.48c.77.77,1.57,2.47,2.76,2.75,2.98.7,3.52,2.81,4.75,4.99l8.55,6.61,4.75,4.18c.2.17.58.45.72.55l.68.45c1.88,1.23,3.53,2.46,5.2,3.77.61.48,2.03.95,2.82,1.36,6.6,3.4,4.08.65,7.01,3.97,1.84,2.09,4.1-1.28,5.16,1.55l2.35,1.7c1.28.93,2.59,1.3,4.6,1.06l2.58,2.52c2.12-.01,3.85.35,5.17,2.17l3.26,1.28,3.62,1.25c1.11.38,2.05.91,3.17,1.22l7.74,2.13,4.53,1.24c3.56.97,7.05.62,10.6.59l8.56-.07,7.09-.21,11.28-.69c.43-.03,1.35-.27,1.7-.44.44-.22.24-1.58-.14-1.88-1.91-1.51-2.3.26-6.66-.41-1.65-.25-2.56.72-3.55,2.66-1.2-2.32-2.9-2.42-5.06-2.23-13.41,1.14-7.91-.66-15.65-.53-8.42.14-15.97-1.33-23.68-4.86-1.64-.75-4.06-.98-5.5-1.8-3.66-2.11-2.83-.58-8.12-4.29-2.47.53-3.72-1.04-5.42-1.78-8.33-3.59-4.97-3.84-12.89-6.82-2.26-.85-3.8-2.39-5.69-3.61-6.24-4.03-7.47-5.1-12.98-9.92-1.8-1.57-4.02-2.79-5.3-5.04-1.88-3.29-4.99-5.02-7.49-7.52l-6.44-6.45c-.65-.66-1.54-2.28-2.39-2.67-2.34-1.09-3.62-2.27-4.53-4.56l-4.49-2.02c-5.76-6.52-3.93-2.82-11.68-8.07-3.04-2.06-7.3-3.12-10.67-4.09-.12-.47-.38-1.69-.08-1.81l1.32-.54c2.48-1.01,4.31-2.37,6.32-4.02,1.62-1.34,3.97-2.34,5.15-4,1.55-2.18,3.12-3.42,5.24-4.89,1.88-1.3,3.68-3.13,5.48-4.72,2.92-2.59,5.22-5.57,5.87-9.55l1.91-11.73c.3-1.82.66-3.44.72-5.4.17-6.11.64-12,1.06-18.03l.59-8.35.48-8.28.2-7.33c.11-3.99.26-8.01.63-12.17.32-3.57.94-7.1.77-10.96s.68-7.7.86-11.4c.41-8.24.83-9.2,1.33-16.6.06-.95-.14-2.46.09-3.21,1.19-3.73,2.42-19.66,2.36-24.08.04-.59.53-2.04.51-2.74l-.49-16.94v-7.29s-.45-11.46-.45-11.46c-.16-3.99-1.2-10.1-2.09-14.04-.17-.75.52-2.38.51-3.13-.02-1.37-.7-3.45-.84-4.91-.34-3.57-.65-6.98-1.26-10.55l-.83-4.83c-.55-3.23-.91-6.15-1.59-9.32-1.44-6.63-.68-6.61-2.72-12.83-.71-2.15-1.38-4.62-1.77-6.77-.44-2.46-1.39-4.34-2.29-6.76-1.02-2.74-2.19-9.47-3.5-13.52-2.6-8.08-.35-2.04-2-10.27-1.79-8.9-1.95-3.04-3.79-14.23-.7-4.26-2.47-11.95-3.94-15.69l-2.51-6.34-1.92-4.73-2.17-5.32c-.96-2.35-4.46-5.08-7-5.83s-5.72-.4-8.44-.25c-1.74.1-3.2,1.3-4.61,1.97-2.61,1.25-5.52,1.69-7.11,4.37-.84,1.41-1.89,2.52-2.8,4.03l-4.16,6.96c-.28.47-1.54,1.01-1.9,1.32s0,1.29,0,2.21c0,1.34-1.66,3.46-2.04,4.9-1.04,3.88-2.42,6.9-4.63,10.15-1.97,2.89-2.22,6.84-3.33,10.08l-3.24,9.44c-.82,2.37-2.18,4.49-2.84,6.8l-1.74,6.1ZM373.3,200.56l-1.62,6.1c-.99,3.74-.99,7.41-1.45,11.28s-2.63,7.68-1.96,12.07c.21,1.35,2.37,3.61,3.78,3.43,1.9-.25.44-2.39.3-3.25-.75-4.74,7.26-4.28,6.9-8.59-.1-1.15-1.98-1.46-3.52-1.88.01-.9,1.02-2.56,1.86-3.53l7.42-8.59,4.97-5.42c2.49-2.72,4.98-5.54,6.47-8.94.9-2.04,2.03-3.38,4.16-4.28l.75-3.69,3.88-6.2c.9-1.44,1.52-2.42,1.95-4.26.62-2.65,3.23-4.99,4.06-7.52l2.37-7.21c-3.08.44-3.59,3.36-4.92,5.47-1.44,2.28-2.76,4.53-3.97,6.94l-3.26,6.53c-1.16,2.33-2.41,4.87-3.96,6.94-1.14,1.52-2.46,2.8-2.88,4.76-1.12,5.17-5.63,8.62-8.67,12.25l-5.31,6.33-5.2,4.3c-.06-2.71.78-4.8,1.48-7.32l1.86-6.7c1.09-3.92,2.07-7.29,4.79-10.53.95-1.13,1.58-3.04,2.32-4.37l6.08-10.95c.99-1.78,4.31-2.49,2.59-5.57-4.3,5.37-5.78,3.08-6.9,6.32-.66,1.91-1.58,3.38-2.74,5.04-1.46,2.08-2.56,4.71-4.15,6.73-4.57,5.81-5.57,7.15-7.47,14.31ZM674.54,249.15c.79-3.4-2.46-5.83-3.1-8.52-.57-2.4-.99-4.67-1.78-7.05-.67-2.01-1.84-4.44-2.19-6.27-1.13-6.1-.79-6.87-5.88-12.62-2.28-9.93-5.52-6.83-9.31-17.05-.15-.41-1.1-.94-1.44-.83-1.6.56.56,7.06,1.93,9.05.91,1.31,1.53,2.33,2.12,3.8l1.7,4.21c1.91,1.64,2.7,3.54,1.64,6.12l2.63.89c.46.16.55,1.53.66,2.11,1.14,5.85,2.29,4.53,3.29,13.02,1.68.55,2.63,1.66,2.73,3.2.21,3.17,5,11.9,6.98,9.93ZM305.33,507.56l.37,4.24,1.73-1.04c1.51-.91,3.29,5.51,3.51,6.12,1.29,3.64,3.24,6.98,4.83,10.58l3.36,1.38c1.19-3.79-1.1-6.51-2.5-9.54l-2.28-4.95c-1.46-3.17-3.09-5.92-5.35-8.67-1.45-1.78-2.61-4.54-4.26-6.03-5.12-4.63-2.27-4.78-6.26-9.29-2.69-3.03-3.38-6.06-5.15-9.62l-2.66-5.35c1.72,3.45-5.38-16.82-4.94-14.98-.66-2.76-1.17-5.19-2.33-7.81-.96-2.17-.84-5.63-1.83-7.4-1.07-1.9-1.34-2.62-1.58-4.79l-2-18.1c-.51-4.65-1.18-9.15-1.99-13.78-.28-1.56-.98-3.56-1.37-5.21l-1.39-5.9c.19.79-2.5-8.81-2.6-8.42-.35-4.84-1.44-9.16-2.69-13.86-.86-3.23-.09-7.16-.45-10.56-.96-9.01.54-17.86,1.94-26.76l1.61-10.22c.3-1.9.85-3.39,1.57-5.29.57-1.49.05-4.19.44-5.88.46-2.02.63-4.37,1.15-6.17,1.22-4.23,2.35-8.08,3.32-12.27,2.58-11.15-.9-5.16,1.29-14.96,2.55-11.38,3.66-9.43,5.42-13.14l5.82-12.27,2.29-6.1,2.46-5.52c1.43-3.21,2.78-6.03,4.08-9.34,1.43-3.63,4.36-7.69,2.98-9.17-.3-.32-1.65-.15-1.88.25-1.03,2.17-3.24,5.5-5.22,7.29l-.59,4.83c-2.45.61-2.83,2.53-3.75,4.52l-4.28,9.25c-.98,2.12-2.15,3.93-2.19,6.4-.04,2.24-1.2,3.56-2.89,5l-1.18,5.93c-2.41,1.35-4.02,8.09-4.62,10.56-.81,3.37-1.07,5.95-.4,9.61.22,1.2-3.33,9.17-3.67,10.75-.63,2.94-1.01,5.4-1.97,8.18-.65,1.89-.8,4.06-1.17,6.13-1.63,9.09-1.53,4.36-2.27,14.07-.33,4.37-2.81,8.79-1.99,13.42.41,2.33.25,4.12-.61,6.4-2.35,6.25.14,9.7-2.07,16.33,1.49,2.18,1.32,4.71,1.73,7.28l.93,5.72c.44,2.7,3,10.43,4.33,13.06.03,9.49,2.31,11.41,4.35,20.3,1.68,7.33.36,11.34,2.06,15.77.72,1.87.77,3.25.83,5.23l.13,4.24c.02.79.86,2.3,1.25,3.02-.23,2.09-.02,4.69.51,6.89l3.22,13.33c.95,3.95,1.9,3.8,3.21,9.3l1.42,1.67c.63,2.45,1.14,5.38,2.41,7.42l3.6,5.75c.92,1.48,2.72,2.63,2.5,4.73-.2,1.92,1.31,2.27,2.26,3.41,4.91,5.93,3.66,7.62,7.12,8.58l2.35,5.45ZM360.41,396.74c.28.13,1.24.21,1.27-.09.02-.2.05-1.17-.07-1.44l-4.85-10.59c.77-7.87-.79-3.4-.4-9.91l.65-10.85.26-20.17.3-6.63c.09-2.07,1.54-4.47,1.51-6.81l-.13-9.26-.12-7.37c-.03-2.05.17-4.49-.02-6.47-.4-4.17-.07-7.54.59-11.6.85-5.2,2.4-13.97,4.48-18.58.76-1.68,1.11-3.7,1.24-5.68.05-.75,1.16-2.13,1.42-2.83.58-1.53.94-3.14,1.86-4.59,3.43-5.42,2.22-11.22.43-9.05-.25.3-.43.78-.59,1.52-.33,1.63-1.72,3.06-2.29,4.48-1.37,3.39-2.87,7.14-4.43,10.43-.23.49-.03,2.2-.49,2.47l-1.45.84c-.3,2.55-.67,5.02-1.11,7.56l-1.03,5.87c-.31,1.78.89,5.28-.45,6.81-2.07,2.37-2.31,3.93-1.84,7.24.29,2.08-1.14,5.16-1.02,7.57l.24,5.05c.18,3.83-.79,7.07-.5,11.03.16,2.27-.42,5.4-.67,7.63-.07.58.4,2.11.37,2.69-.17,3.78-.74,7.99-.7,11.82l.19,18.82.75,11.76.21,6.16c.11,3.37,1.79,6.58,1.53,9.95l4.88,2.25ZM641.81,617.93c.15.66,1.11,1.55,1.71,1.64.53.08,1.91-.54,1.78-1.02-.31-1.06-1.28-2.54-.96-3.23,1.78-3.86,3.48-1.77,4.64-5.5.9-2.89,2.34-5.14,3.77-7.68l2.16-3.85c-.31-1.89-.02-2.81,1.33-4.22,1.46-1.53,2.78-3.44,4.09-5.2,4.98-6.7,5.39-5.38,9.14-11.39,2.58-4.14,5.64-5.7,7.51-9.02l6.02-10.67c2.31-4.1,4.26-7.78,6.03-12.13l2.52-6.21c.77-1.91,2.8-3.05,4.05-4.66.72-.93,1.25-2.99,2.15-3.52,4-2.4.94-3.02,2.11-3.64l1.93-1.02c.44-.23.22-1.87.53-2.28,2.31-3.11,4.33-7.23,4.1-11.25l1.85-2.81c.44-2.38,1.79-4.01,2.64-6.02s1.6-4.37,2.36-6.55c2.48-7.17.59-4.17,3.01-12.04,2.61-8.5-.19-4.79,2.42-13.1l.79-2.51c1.45-4.63,2.3-8.99,2.76-13.78l.67-7.05c.56-5.93,1.01-11.53,1.22-17.46.12-3.28-.82-6.68-1.04-9.93s-.44-5.85-.99-8.89c-.88-4.91-.26-9.68-.61-14.03-.19-2.34-.52-4.37-.51-6.71.02-2.71,1.12-6.69-.25-9.03s-.03-3.77-.33-5.81l-1.4-9.74c-.67-4.68-.83-9.57-2.6-13.87l-4.17-10.15c-.71-1.72-2.9-3.49-3.96-4.72-.68-2.99-1.48-5.35-2.98-7.97-.6-1.04-1.15-3.15-1.71-4.39l-1.67-3.67c-1.37-3.02-2.51-6.12-3.79-9.19l-3.07-7.37c-.6-1.45.02-4.32-.48-5.76-.85-2.48-1.64-4.63-2.13-7.13l-3-15.14c-.16-.8-1.17-2.24-1.34-3.28-.57-3.48-4.45-14.58-6-11.68-.17.32-.39,1.18-.31,1.57l1.31,6.44c.29,1.42.72,2.6,1.06,3.83.76,2.71.99,5.76,1.53,8.52l2.51,12.77c.37,1.89,1.56,4.01,2.16,5.93l1.36,4.37,2.47,6.85c1.1,3.04,2.27,5.95,3.5,8.88.65,1.55,1.87,3.57,2.07,4.97s.26,2.24.98,3.28c4.75,6.89.76,3.62,5.31,10.8l1.14,3.44c1.06,1.04,1.54,1.96,2.11,3.26.96,2.19,2.58,4.36,2.78,6.83.14,1.83.5,3.07,1.1,4.62,1.57,4.04,1.56,8.42,1.98,12.7.74,7.56,1.3,6.21,1.62,14.78l.25,6.7-.21,7.92c-.07,2.61-.3,5.49.05,8.11l1.27,9.68.59,3.95c1.12,7.56,1.34,14.72.48,22.66l-.56,5.19c-.5,4.66-1.93,12.99-3.36,17.34-.41,1.26-.98,2.4-1.22,3.82l-1.82,10.79c4.41,2.03-2.37,4.02-1.24,7.16.69.97,1.48,2.38,1.07,3.12-2.55.29-2.5,1.94-3.17,3.77-2.69,7.35-4.44,15.09-8.36,21.76l-5.92,10.08c-5.15,8.77-2.7,2.77-6.6,11.55-2.57,5.79-4.14,8.48-7.29,13.78-3.33,5.59-.04,3.64-7.67,12.36-1.27,1.45-3.2,3.69-4.21,4.98-.41.53.06,2.61-.47,2.95s-1.87.75-2.28,1.24l-3.52,4.25c-1.3,1.57-3.59,2.55-4.41,4.33-1.05,2.26-2.07,3.88-3.53,5.85-5.41,7.29-1.28,4.19-4.51,10.44l-6.84,13.25c-.27.52-2.07,1.01-1.95,1.56l.5,2.2ZM160.34,572.95c-.42-2.7.01-4.9.22-7.37l.33-3.94,1.54-10.37c.34-2.26.7-4.51.91-6.82l1.02-11.26c.11-1.26.1-2.53.12-3.87.13-9.17,2.11-4.81,1.03-15.97-.11-1.17-.14-3.39.05-4.53l.92-5.69c.44-2.76.95-5.36,1.11-8.13l.49-8.26c.28-4.8,1.49-9.45,2.15-14.16.42-3.02,1.15-5.35,1.67-8.25l2.53-14.19,1.6-5.72c1.55-5.51.79-5.16,3-8.79l.34-5.88c.11-1.81.82-3.29,1.11-5,.79-4.62,2.32-8.7,3.44-13.2l1.47-5.89,2.7-7.72c1.01-2.89,2.09-6.23,3-9.36l1.26-4.39,8.58-20.77,2.14-5.03c.66-1.57.8-3.4,1.74-4.99.23-.39.47-1.66.05-1.8s-1.84,0-2.08.38c-.7,1.07-2.43,3.21-2.85,4.4l-1.64,4.68c-.66,1.9-1.81,3.36-2.72,5.14-2.85,5.55-5.57,11.15-7.66,17.02l-2.21,6.21-2.55,9.41c-.87,3.21-2.19,6.85-2.64,9.68-.42,2.63-1.29-.72-2.57,8.75-1.09,8.05-1.99,8.35-3,17.49-.22,2.04.46,3.92-2.15,4.99-.69,5-2.79,9.5-3.51,14.49l-1.39,9.59c-.46,3.17-1.67,5.92-1.23,9.04l-1.08,5.22c-.43,2.09-.83,4.22-.69,6.26l.27,4.11c.29,4.39-.33,8.29-1.27,12.59-.84,3.85-.91,7.78-1.41,11.64l-1.17,8.98-.53,11.88c-.15,3.29-.47,6.17-.88,9.33-.28,2.13.44,4.85,0,6.95l-2.28,11.12c2.39,5.92-.66,4.31.21,13.91.2,2.19-1.93,3.14-1.01,5.51.36.92,4.29-2.39,3.51-7.42ZM856.94,550.92c.77-1.58,1.34-2.27,2.35-3.19l.9-3.51c1.11-1.46,1.91-2.73,2.31-4.49.33-1.46,1.37-2.93,1.82-4.19,1.08-3.04,1.94-5.58,3.73-8.42.66-1.05.52-3.52,1.02-4.66,2.87-6.53,2.25-10.33,4.52-13.14,1.88-2.33,2.3-5.44,3-8.39l2.55-10.75c.66-2.8.69-4.84-1.3-7.08-2.68-3.01-3.38-6.88-4.45-10.57s-3.57-14.78-1.07-17.4l-1.87-.56c-.46-.14.75-6.94.57-10.14l-.76-13.34c-.11-1.91.8-4.72.17-6.32-.44-1.12-1.25-2.31-1.18-3.38.12-1.77.72-4.28.28-5.53l-2.35-6.64c-.78-2.21-.39-4.66-.65-7.07-.43-3.95-1.35-7.81-2.06-11.69l-1.99-10.9-.66-4.45c-.26-1.75-1.07-2.77-2.16-4.12-.99-1.22-1.16-2.65-3.16-2.85l.32,3.66c.29,3.3,1.23,9.82,1.99,12.92l1.56,6.3c.88,3.53-.77,9.01,2.13,14.83-.14,9.89,3.65,16.81,2.46,26.82.74,1.23.84,2.73.07,4.04l.27,9.95c.05,1.95.21,9.93,1.27,10.95.45,4.24-.11,8.9,1.17,12.98l2.44,7.78c.96,3.04,1.72,5.82,3.33,8.67.8,1.41.17,3.5-.31,4.68-.34.83.12,2.71.21,3.6.06.56-1.11,1.63-1.34,2.23l-1.67,4.33c-1.05,2.72-1.07,5.93-2.52,8.49-1.57,2.77-2.04,5.97-2.26,9.22-2.24,3.78-3.8,7.7-5.17,11.89l-1.64,5.04c-.54,1.66-1.66,3.46-2.44,5.08-2.59,5.38-2.69,3.4-3.49,8.82.97,1.03,3.61,1.45,4.07.49ZM463.6,543.77c2.74,4.85,4.9-.14,5.81,4.78.6-.07,2.11-.73,2.66-1.33.48-.53.45-2.45.26-2.98-2.35-.09-3.44-1.5-5.05-2.9-2.87-2.49-4.43-4.63-5.98-8.1-1.43-3.2-3.26-6.27-4.98-9.41l-2.31-4.23-3.16-6c-.99-1.88-1.57-3.81-2.88-5.58-1.93-2.6-3.84-4.57-6.38-6.74-1.82-1.56-2.99-4.74-4.73-6.43-1.4-1.37-2.49-2.61-3.78-4.08-.8-.92-3.24-1.8-3.31-3.31-.13-2.82-2.8-2.5-3.83-3.82-2.11-2.68-4.11-4.94-7.66-5.5-.5-2.36-1.93-4.06-3.66-5.65l-3.74-3.45-5.45-4.91-5.03-4.32-4.22-3.64c-.87-.75-1.81-2.51-2.62-3.45-1.84-2.11-3.4-4.06-5.06-6.34-1.92-2.63-2.78-5.97-4.17-8.88-2.79-5.83-1.54-4.15-3.61-9.76-2.78-7.52-.22-5.96-5.58-10.16-.69,4.46.56,8.6,3.67,11.81v5.05c2.19,2.57,4.43,10.24,5.15,11.4l3.02,4.85c1.26,2.03,2.39,4.14,3.43,6.46,6.16,3.64,3.51,3.62,9.68,8.34.68.52.94,1.74.85,2.63.94-.22,2.58-.05,3.28.63l3.47,3.41,2.85,2.88c.85.86,1.94,2.08,2.76,2.76l3.18,2.63,4.54,3.76c1.05.87,2,1.73,2.98,2.7l5.21,5.13c.94.92,1.66,1.69,2.53,2.74l8.22,9.93c.91,1.1,1.98,1.92,3.21,2.33.88,2.15,2.2,4.5,3.39,6.56l3.21,5.57c2.39,4.14,2.5,7.22,3.33,6.71l1.46-.88.97-.59c1.25-.76-.81,5.73,1.79,9.85l2.05,3.26c1.34,2.12,2.9,3.92,4.23,6.28ZM527.9,421.63c-.35-.15-1.81-.29-2.08-.06-1.31,1.15-2.74,4.93-.57,6.68,1.65-1.82,2.29-4.15,2.65-6.63ZM382.34,595.3l-3.78-1.72c-6.17-2.81-4.22-3.02-9.34-3.3l-.45-3.46c-1.79-.51-2.65-1.46-3.94-2.25l-4.93-3.03c-2.02-1.24-4.46-2.13-7.09-3.27-.44,3.06,1.69,4.4,3.55,5.69l9.3,6.43c1.14.79,2.11,2.6,3.69,3.53l4.97,2.91,4.2,1.26c1.57.47,4.32-1.23,3.83-2.77ZM760.87,659.07l3.22,2.31c1.55-2.34,2.96-3.54,4.85-5.27l3.78-3.46,6.32-6.09c2.07-2,3.7-4.41,6.76-5.12,1.27-3.83,5.32-4.74,7.82-7.19l4.45-4.34c1.08-1.05,2.21-2.41,3.05-3.66,4.16-6.27,4.72-2.61,9.77-12.69-1.08-.9-2.61-.13-3.39.98-1.48,2.12-10.9,12.08-12.42,13.22l-5.35,4.02c-1.95,1.46-3.49,2.47-5.16,4.33-7.32,8.12-6.76,4.99-11.82,10.47-4.64,5.02-3.84,2.27-7.32,6.02-2.42,2.61-4.72,4.01-4.8,4.17-.25.49-.21,1.97.24,2.29ZM447.08,648.6l2.84-2.62c-2.12-2.01-3.53-4.11-5.56-5.55l-8.15-5.81c-1.34-.96-2.42-1.92-3.69-3.17s-4.77-1.98-8.61-5.21l-3.11-2.62c-1.07-.9-1.91-1.58-3.12-2.71l-4.05-1.12c-2.37-.66-1.43-3.03-2.89-3.43-.37-.1-1.55.13-1.54.52l.04,1.85c.06,3.06,1.7.97,4.33,3.74l3.11,3.29,5.8,3.28,3.2,3.09c7.67,1.63,2.08-.04,9.03,4.99l7.21,5.22c.97.7,1.3,2.96,3.1,2.95l2.06,3.3ZM631.81,639.78c3.03-3.19,1.98-7.11,3.68-8.29,2.32-1.62,4.67-3.41,3.77-6.47l-3.14,3.71c-3.17,1.25-5.68,8.88-4.31,11.05ZM951.9,677.77c.81-1.64,2.18-10.81,2.17-13.33-.02-5.56.93-4.25.7-13.13l-.34-12.97c-.05-1.89-1.34-3.54-2.42-5.01l-1.07-5.98c-.1-.56-1.35-1.35-1.87-1.25s-.63,1.29-.45,1.96c.51,1.89.42,3.45.57,5.43l.52,6.78c.63,8.29-1.66,15.9-1.55,19.91.24,8.44-1.02,8.23-1.29,17.09-.06,1.81-.79,3.12-2.57,3.98l1.69,4.37c6.04-2.71,2.84-1.63,5.92-7.83ZM621.12,656.81c.14-.76.08-2.71.42-3.27l3.24-5.32c.23-.38-.01-1.83-.41-1.71-2.74.83-5.8,7.77-7.42,10.68.65,1.53,3.82,1.49,4.16-.38ZM464.44,660.94c.72-1.93-.86-5.27-2.55-5.71-5.26-1.37-5.05-3.73-10.33-7.34-3.05,3.18,4.31,8.23,6.25,9.59l3.97,2.79c.57.4,2.39,1.32,2.65.66ZM725.11,684.09c-.24-.43-2.01-.78-2.25-.35l-.97,1.77c-.34.62-.5,2.64.14,2.84.82.25,2.26-.59,2.7-1.21.47-.68.75-2.38.38-3.05ZM612.38,736.04c4.6-1.09,6.85,4.17,8.1,2.57,1.08-1.38-.58-2.25-.83-3.93-.08-.53,1.36-1.34,1.91-1.46l8.76-1.97c7.08-1.59,10.37-2.99,16.92-5.21l4.57-1.55c1.63-.55,14.34-4.8,14-4.63l8.21-4.16c2.38-1.2,4.5-2.32,6.93-3.36l4.39-1.88c1.29-.55,4.83-3.41,8.87-4.32.63-.84,1.23-2.96,2.04-3.11l3.78-.73c2.29-.44,5.66-3.92,8.24-5.36l7.15-3.96c.67-.37,5.81-3.67,4.49-4.81-.34-.29-1.54-.36-2.04-.05-5.26,3.31-7.56,3.98-13.5,7.57-4.77,2.89-5.6,2.85-10.94,6.49-2.64,1.8-9,5.53-11.83,5.66-4.68.2-2.83,2.75-10.37,5.17l-5.47,1.76c-5.18,1.67-7.09,3.47-7.87,3.68l-6.5,1.83c-1.37.39-2.8,1.47-3.71,2.41-2.25-.26-4.09.32-6.28,1.31s-5.31.79-7.57,1.51c-1.5.48-3.14,1.28-4.56,1.38-1.95.14-3.7.8-4.76,2.03-2.1,2.44-6.3-1.93-11.38,4.64l-1.38,1.1c-.3.24.24,1.47.61,1.39ZM162.59,750.21c.88,2.65,3.04,4.81,5.74,3.78l-.76-4.38c-1.55-2.06-2.75-3.76-4.1-5.82l-3.04-4.65c-.78-1.2-1.17-3.38-2.48-4.15-2.94-1.72-2.51-4.63-2.06-7.38-1.96-1.25-3.07-3.72-4.37-5.43l-5.2-6.83c-1.38-1.81-1.77-4.05-2.71-6.12-2.4-5.27-5.15-12.42-5.4-18.23-.02-.51-1.6-1.11-2.02-.91-1.86,5.55.02,3.92.14,12.22.03,1.76,1.7,3.52,2.38,5.11l2.32,5.43,1.89,4.43c.89,2.08,2.27,3.78,3.89,5.45l.85,2.77c2.04,2.48,4.18,6.16,5.72,8.92-.34-.62,6.49,10.55,5.14,8.75,1.62,2.17,3.1,4.12,4.07,7.04ZM810.23,819.89c-2.29,1.18-8.68,3.83-6.23,7.86,6.92-2.66,4.91-3.23,11.33-6.37,5.97-2.91,10.57-7.42,15.82-11.53,1.79-1.4,4.39-2.22,6.29-3.53l6.76-4.64c2.46-1.68,4.36-4.12,7.6-4.13,2.71-5.88,1.54-2.23,7.31-7.85.59-.57,2.54-.99,3.21-1.52,6.33-4.97,6.96-8.32,12.57-12.21.52-.36,1.68-.42,1.87-.89s.39-2.04.74-2.41c1.72-1.34,4.56-3.89,6.44-5.59,1.01-.91,2.66-1.69,3.67-2.56l6.46-5.55c.41-.35,8.15-5.26,9.21-4.84l1.93-2.07c2.67-1.19,4.28-3.1,6.19-5.25.64-.73,2.8-1.45,3.05-2.4,1.54-5.87,1.65-2.18,2.42-5.69.07-.3-1.01-.43-1.23-.22l-.69.71c-1.01,1.04-2.19,3.35-3.35,4.16l-3.68,2.59c-2.04,1.44-6.8,4.34-9.58,4.14-5.74,5.5-1.16,4.89-6.31,7.15-2.78,1.22-5.96,2.89-8.23,4.91l-3.35,2.97-3.92,3.35c-3.75,3.21-6.91,5.56-10.28,9.75-1.49,1.85-2.44,3.2-4.38,4.54-2.77,1.92-5.44,3.88-8.17,5.99-1.59,1.23-2.68,2.79-5.38,2.69l-1.47,3.56-7.14,4.27c-1.29.77-2.81,1.33-4,2.31-4.1,3.35-6,1.44-9.25,8.24-5.21-.18-3.24,1.69-8.97,5.2-2.45,1.5-4.79,3.59-7.29,4.88ZM461.68,782.94l2.54-2.19c1.96-1.69,3.84-2.93,6.52-3.46.52-.62,1.54-2.24,2.24-2.81l4.25-2.98c1.27-.89,2.28-2.27,3.43-3.21,3.12-2.54,7.36-4.91,10.09-7.87.29-.32.45-2.09.03-2.01-.34.06-.97.26-1.45.48l-5,2.27c-1.55.7-3.47,1.74-4.89,2.83l-6.67,5.11c-2.02,1.55-4.11,2.53-5.87,4.54l-2.64.98c-1.82,2.6-4.52,3.9-6.89,5.61l-7.14,5.15c-1.43,1.03-2.65,1.96-3.05,4.03,5.08-.69,10.65-3.15,14.52-6.48ZM331.52,836.76c1.9-.88,3.74-1.42,5.85-1.96l8.24-2.12,4.15-1.48c5.84-2.08,16.32-2.38,19.22-3.04l5.85-1.35c.79-.18,1.85-.72,1.96-1.32.13-.69.02-2.17-.54-2.43-2.02-.97-3.12,1.12-7.65,1.42l-8.92.58-6.11,1.83-5.32.73c-3.65.5-7.02.68-10.63,2.02l-2.69,1-6.77,3.6c-1.16.62-.81,2.91-.03,4.1l3.37-1.56ZM780.31,835.41c2.39-.13,5.12-1.29,6.09-2.79.29-.44.17-2.29-.33-2.31-1.48-.08-4.83.43-6.63,1.48-.89.52-.14,3.68.87,3.63ZM776.64,833.87c.19-.31-.28-1.56-.64-1.58-1.86-.07-4.83.23-5.42,2.1-.14.44.49,1.89.91,1.79,1.56-.37,4.66-1.49,5.16-2.32ZM768.43,834.68c-1.21-1.23-4.25-.78-4.54.44.46,1.85,4.21,1.01,4.54-.44ZM758.4,836.97c1.38.33,3.05-.25,3.14-1.45-1.55-1.32-3.37-.27-5.12-.12-1.93.17-4.85-1.03-5.97,1.4,1.86,2.81,3.69-.87,7.95.16ZM735.25,839.75c.54-.04,1.2-1.35,1.13-1.86s-1.49-.64-2.11-.48c-.51.13-1.01,1.22-1.08,1.73-.05.39,1.19.67,2.06.61Z"/>
  <path class="cls-1" d="M513.3,766.55c-5.13-2.55-3.77-3.6-7.25-4.78-1.84-.62-2.14-2.66-3.1-4.26-.61-1.02-2.26-2.47-2.45-3.53l-1.29-6.99c-.4-2.19-.11-5.09-.86-7.1-2.88-7.67.84-1.27-2.18-7.99-.73-1.63-1.16-3.83-2.02-5.32-1.12-1.95-1.91-3.6-2.67-5.77-.09-.25-3.09-13.59-3.33-14.38l-2.99-9.97-1.61-10.6c.13.82-1.67-3.38-1.62-6.91l.16-9.79.14-6.28c.05-2.32.31-4.53.99-6.7l2.3-7.35,1.73-6.76c1.57-6.14,2.34-6.66,4.01-11.96l3.73-11.85c.51-1.61,1.55-3.63,2.35-4.93-.24-8.02,2.29-6.53,3.99-15.25l1.56-8.01c.22-1.11,1.51-2.97,1.65-4.21.83-7.78,2.39-15.05,3.85-22.66l1.62-8.42,2.35-9.83,1.69-8.27,2.68-10.24,2.42-9.61,1.75-6.32,1.56-5.7c.48-1.76.74-4.09,1.36-5.7l2.49-6.53c1.21-3.16,2.32-6.06,3-9.39l2.22-3.75c.53-2.17,1.05-4.46,1.85-6.59l5.66-15.1,1.93-4.7,3.77-9.66c1.07-2.75,2.09-5.37,3.35-8.08.55-1.18,2.32-2.79,2.61-3.91,1.68-6.5,11.01-17.98,19.4-14.52,5.51,3.71,5.44,8.55,7.44,13.9,1.82,4.88,3.21,9.52,3.96,14.73.05.37,3.59,16.08,3.23,15.05l2.71,7.68c1.56,4.42,2.15,8.81,3.29,13.41l3.19,12.82c3.24,13.02,6.21,16.8,6.15,30.14-.01,3.14,1.44,6.37,1.7,9.37l.68,7.83c.29,3.28,1.06,6.22,1.28,9.42l.58,8.48c.18,2.65.61,4.94.54,7.61-.06,2.39-.29,5.13-.08,7.43.15,1.67.39,3.06.35,4.59l-.3,12.65c-.06,2.34.21,4.85-.03,7.27l-2,20.12-.85,7.29-.77,6.64c-.41,3.53-.79,6.87-.96,10.46l-.77,15.83-1.24,8.96-.67,15.17-.59,16.37c-.18,4.92-.64,9.61-1.15,14.5l-1.46,14.04c-.19,1.86-1.07,4.74-2.12,6.44-3.03,4.9-5.86,5.21-10.46,10.17-1.86,2-4.14,3.88-6.35,5.51l-4.13,3.03c-1.66,1.22-3.1,2.24-4.8,3.63l-2.83,1.32c-1.45,2.03-4.61,3.7-6.86,1.9-.81-.65-1.68-1.74-2.63-1.41-3.54,1.24-.39,5.92-2.47,6.53l-5.81,1.7c-1.46.43-4.35,2.54-5.73,1.69-2.08-1.29-3.53-2.22-5.75-3.22l-2.7-3.72-1.58,1.09c-.38.26-.92-1.45-1.44-1.75-2.19-1.29-5.46,1.23-7.18,3.82-1.21,1.79-6.27,2.11-8.2,1.15ZM522,734.86c3.3-.95,5.06-2.61,7.71-5.06.88-.81.54-3.68.43-4.94-3.55.45-6.22,2.17-8.54,4.75-.7.78-2.47,1.85-2.98,2.62l-2.38,3.62c-.16.24-.21,1.49.07,1.4,4.46-1.5-1.26-.39,5.68-2.4Z"/>
  <path d="M641.81,617.93l-.5-2.2c-.13-.55,1.68-1.04,1.95-1.56l6.84-13.25c3.23-6.25-.91-3.15,4.51-10.44,1.46-1.97,2.48-3.59,3.53-5.85.83-1.78,3.11-2.76,4.41-4.33l3.52-4.25c.41-.49,1.75-.9,2.28-1.24s.06-2.42.47-2.95c1.01-1.29,2.94-3.53,4.21-4.98,7.63-8.73,4.34-6.77,7.67-12.36,3.15-5.3,4.72-7.99,7.29-13.78,3.9-8.78,1.45-2.78,6.6-11.55l5.92-10.08c3.92-6.67,5.67-14.41,8.36-21.76.67-1.83.62-3.48,3.17-3.77.41-.74-.38-2.15-1.07-3.12-1.13-3.13,5.65-5.12,1.24-7.16l1.82-10.79c.24-1.42.81-2.56,1.22-3.82,1.43-4.36,2.86-12.69,3.36-17.34l.56-5.19c.86-7.94.64-15.1-.48-22.66l-.59-3.95-1.27-9.68c-.34-2.61-.11-5.49-.05-8.11l.21-7.92-.25-6.7c-.32-8.57-.88-7.22-1.62-14.78-.42-4.27-.41-8.66-1.98-12.7-.6-1.55-.96-2.79-1.1-4.62-.19-2.47-1.82-4.65-2.78-6.83-.57-1.3-1.05-2.23-2.11-3.26l-1.14-3.44c-4.55-7.18-.55-3.91-5.31-10.8-.71-1.03-.78-1.85-.98-3.28s-1.41-3.41-2.07-4.97c-1.23-2.93-2.41-5.84-3.5-8.88l-2.47-6.85-1.36-4.37c-.6-1.92-1.79-4.04-2.16-5.93l-2.51-12.77c-.54-2.76-.78-5.82-1.53-8.52-.34-1.23-.78-2.42-1.06-3.83l-1.31-6.44c-.08-.39.13-1.25.31-1.57,1.56-2.9,5.43,8.2,6,11.68.17,1.04,1.18,2.48,1.34,3.28l3,15.14c.49,2.49,1.28,4.65,2.13,7.13.5,1.45-.13,4.31.48,5.76l3.07,7.37c1.28,3.07,2.41,6.17,3.79,9.19l1.67,3.67c.56,1.24,1.12,3.35,1.71,4.39,1.5,2.62,2.3,4.98,2.98,7.97,1.06,1.23,3.25,3,3.96,4.72l4.17,10.15c1.77,4.3,1.92,9.19,2.6,13.87l1.4,9.74c.29,2.03-1.06,3.45.33,5.81s.27,6.32.25,9.03c-.02,2.33.32,4.37.51,6.71.36,4.35-.27,9.12.61,14.03.55,3.04.78,5.72.99,8.89s1.15,6.65,1.04,9.93c-.21,5.93-.66,11.54-1.22,17.46l-.67,7.05c-.46,4.79-1.3,9.15-2.76,13.78l-.79,2.51c-2.61,8.31.19,4.6-2.42,13.1-2.42,7.87-.52,4.87-3.01,12.04-.75,2.18-1.47,4.44-2.36,6.55s-2.19,3.64-2.64,6.02l-1.85,2.81c.23,4.03-1.79,8.15-4.1,11.25-.31.41-.09,2.05-.53,2.28l-1.93,1.02c-1.17.62,1.89,1.25-2.11,3.64-.9.54-1.42,2.59-2.15,3.52-1.25,1.61-3.28,2.76-4.05,4.66l-2.52,6.21c-1.77,4.35-3.71,8.03-6.03,12.13l-6.02,10.67c-1.87,3.32-4.93,4.87-7.51,9.02-3.75,6.01-4.16,4.69-9.14,11.39-1.31,1.76-2.63,3.67-4.09,5.2-1.34,1.41-1.64,2.33-1.33,4.22l-2.16,3.85c-1.43,2.55-2.87,4.79-3.77,7.68-1.16,3.73-2.86,1.63-4.64,5.5-.32.69.65,2.17.96,3.23.14.47-1.25,1.09-1.78,1.02-.6-.09-1.56-.98-1.71-1.64Z"/>
  <path d="M305.33,507.56l-2.35-5.45c-3.45-.96-2.2-2.65-7.12-8.58-.95-1.14-2.47-1.49-2.26-3.41.22-2.1-1.58-3.26-2.5-4.73l-3.6-5.75c-1.28-2.04-1.79-4.97-2.41-7.42l-1.42-1.67c-1.32-5.5-2.26-5.35-3.21-9.3l-3.22-13.33c-.53-2.2-.74-4.8-.51-6.89-.39-.72-1.22-2.22-1.25-3.02l-.13-4.24c-.06-1.98-.11-3.36-.83-5.23-1.7-4.44-.38-8.45-2.06-15.77-2.04-8.88-4.32-10.81-4.35-20.3-1.33-2.63-3.88-10.36-4.33-13.06l-.93-5.72c-.42-2.56-.24-5.1-1.73-7.28,2.21-6.64-.28-10.08,2.07-16.33.86-2.28,1.02-4.07.61-6.4-.81-4.62,1.66-9.05,1.99-13.42.73-9.71.64-4.98,2.27-14.07.37-2.07.51-4.24,1.17-6.13.96-2.77,1.34-5.24,1.97-8.18.34-1.57,3.89-9.55,3.67-10.75-.66-3.66-.41-6.24.4-9.61.6-2.48,2.21-9.22,4.62-10.56l1.18-5.93c1.69-1.44,2.85-2.76,2.89-5,.04-2.47,1.21-4.28,2.19-6.4l4.28-9.25c.92-1.99,1.29-3.91,3.75-4.52l.59-4.83c1.97-1.79,4.19-5.12,5.22-7.29.23-.4,1.58-.57,1.88-.25,1.38,1.49-1.55,5.54-2.98,9.17-1.3,3.31-2.65,6.14-4.08,9.34l-2.46,5.52-2.29,6.1-5.82,12.27c-1.76,3.71-2.87,1.76-5.42,13.14-2.2,9.8,1.29,3.81-1.29,14.96-.97,4.18-2.11,8.03-3.32,12.27-.52,1.81-.7,4.15-1.15,6.17-.38,1.7.13,4.39-.44,5.88-.72,1.9-1.28,3.39-1.57,5.29l-1.61,10.22c-1.4,8.9-2.9,17.75-1.94,26.76.36,3.4-.41,7.33.45,10.56,1.25,4.7,2.34,9.02,2.69,13.86.11-.39,2.79,9.21,2.6,8.42l1.39,5.9c.39,1.64,1.09,3.65,1.37,5.21.82,4.63,1.48,9.13,1.99,13.78l2,18.1c.24,2.18.51,2.89,1.58,4.79,1,1.77.87,5.23,1.83,7.4,1.16,2.62,1.67,5.05,2.33,7.81-.44-1.84,6.66,18.43,4.94,14.98l2.66,5.35c1.77,3.56,2.47,6.59,5.15,9.62,3.99,4.51,1.14,4.66,6.26,9.29,1.65,1.49,2.8,4.25,4.26,6.03,2.25,2.75,3.88,5.5,5.35,8.67l2.28,4.95c1.4,3.03,3.68,5.75,2.5,9.54l-3.36-1.38c-1.59-3.6-3.54-6.93-4.83-10.58-.22-.61-2-7.03-3.51-6.12l-1.73,1.04-.37-4.24Z"/>
  <path d="M856.94,550.92c-.47.96-3.1.54-4.07-.49.8-5.42.91-3.44,3.49-8.82.78-1.62,1.9-3.43,2.44-5.08l1.64-5.04c1.36-4.19,2.93-8.11,5.17-11.89.21-3.25.68-6.45,2.26-9.22,1.45-2.55,1.47-5.76,2.52-8.49l1.67-4.33c.23-.6,1.4-1.67,1.34-2.23-.09-.89-.55-2.78-.21-3.6.48-1.18,1.11-3.28.31-4.68-1.62-2.85-2.38-5.62-3.33-8.67l-2.44-7.78c-1.28-4.07-.71-8.74-1.17-12.98-1.06-1.03-1.22-9.01-1.27-10.95l-.27-9.95c.76-1.31.67-2.81-.07-4.04,1.19-10.01-2.59-16.93-2.46-26.82-2.9-5.82-1.25-11.29-2.13-14.83l-1.56-6.3c-.77-3.09-1.7-9.61-1.99-12.92l-.32-3.66c2,.2,2.16,1.63,3.16,2.85,1.1,1.35,1.91,2.37,2.16,4.12l.66,4.45,1.99,10.9c.71,3.87,1.63,7.74,2.06,11.69.26,2.4-.13,4.86.65,7.07l2.35,6.64c.44,1.24-.15,3.75-.28,5.53-.07,1.07.74,2.26,1.18,3.38.63,1.6-.28,4.41-.17,6.32l.76,13.34c.18,3.2-1.03,10-.57,10.14l1.87.56c-2.5,2.63-.03,13.6,1.07,17.4s1.77,7.56,4.45,10.57c2,2.24,1.97,4.28,1.3,7.08l-2.55,10.75c-.7,2.94-1.12,6.06-3,8.39-2.27,2.8-1.65,6.61-4.52,13.14-.5,1.14-.36,3.61-1.02,4.66-1.79,2.84-2.65,5.38-3.73,8.42-.45,1.26-1.49,2.74-1.82,4.19-.4,1.75-1.2,3.02-2.31,4.49l-.9,3.51c-1.02.92-1.59,1.61-2.35,3.19Z"/>
  <path d="M160.34,572.95c.78,5.03-3.15,8.34-3.51,7.42-.92-2.37,1.21-3.32,1.01-5.51-.87-9.6,2.18-7.99-.21-13.91l2.28-11.12c.43-2.1-.29-4.82,0-6.95.41-3.16.74-6.04.88-9.33l.53-11.88,1.17-8.98c.5-3.86.57-7.79,1.41-11.64.94-4.3,1.56-8.2,1.27-12.59l-.27-4.11c-.14-2.04.26-4.17.69-6.26l1.08-5.22c-.44-3.12.77-5.87,1.23-9.04l1.39-9.59c.72-4.99,2.82-9.49,3.51-14.49,2.61-1.06,1.92-2.95,2.15-4.99,1.01-9.14,1.91-9.44,3-17.49,1.28-9.47,2.15-6.12,2.57-8.75.45-2.84,1.77-6.47,2.64-9.68l2.55-9.41,2.21-6.21c2.09-5.87,4.81-11.47,7.66-17.02.91-1.78,2.06-3.24,2.72-5.14l1.64-4.68c.42-1.19,2.15-3.33,2.85-4.4.24-.37,1.66-.52,2.08-.38s.18,1.41-.05,1.8c-.94,1.59-1.07,3.42-1.74,4.99l-2.14,5.03-8.58,20.77-1.26,4.39c-.9,3.13-1.99,6.48-3,9.36l-2.7,7.72-1.47,5.89c-1.12,4.5-2.65,8.57-3.44,13.2-.29,1.71-1,3.19-1.11,5l-.34,5.88c-2.21,3.63-1.46,3.28-3,8.79l-1.6,5.72-2.53,14.19c-.52,2.9-1.25,5.23-1.67,8.25-.66,4.71-1.86,9.36-2.15,14.16l-.49,8.26c-.16,2.77-.67,5.37-1.11,8.13l-.92,5.69c-.18,1.14-.16,3.37-.05,4.53,1.08,11.15-.9,6.8-1.03,15.97-.02,1.33,0,2.6-.12,3.87l-1.02,11.26c-.21,2.31-.58,4.56-.91,6.82l-1.54,10.37-.33,3.94c-.21,2.48-.64,4.68-.22,7.37Z"/>
  <path d="M463.6,543.77c-1.33-2.36-2.9-4.16-4.23-6.28l-2.05-3.26c-2.6-4.12-.53-10.61-1.79-9.85l-.97.59-1.46.88c-.84.5-.95-2.57-3.33-6.71l-3.21-5.57c-1.19-2.06-2.52-4.41-3.39-6.56-1.23-.4-2.3-1.23-3.21-2.33l-8.22-9.93c-.87-1.05-1.59-1.82-2.53-2.74l-5.21-5.13c-.98-.97-1.93-1.83-2.98-2.7l-4.54-3.76-3.18-2.63c-.81-.68-1.91-1.9-2.76-2.76l-2.85-2.88-3.47-3.41c-.7-.69-2.35-.85-3.28-.63.09-.89-.17-2.11-.85-2.63-6.17-4.72-3.52-4.7-9.68-8.34-1.03-2.32-2.16-4.43-3.43-6.46l-3.02-4.85c-.72-1.16-2.96-8.83-5.14-11.4v-5.05c-3.11-3.22-4.36-7.35-3.67-11.81,5.36,4.2,2.81,2.64,5.58,10.16,2.07,5.61.82,3.93,3.61,9.76,1.39,2.91,2.25,6.24,4.17,8.88,1.66,2.29,3.23,4.24,5.06,6.34.81.93,1.75,2.7,2.62,3.45l4.22,3.64,5.03,4.32,5.45,4.91,3.74,3.45c1.73,1.59,3.16,3.29,3.66,5.65,3.54.56,5.55,2.83,7.66,5.5,1.03,1.31,3.7,1,3.83,3.82.07,1.51,2.51,2.4,3.31,3.31,1.3,1.48,2.38,2.71,3.78,4.08,1.73,1.7,2.91,4.87,4.73,6.43,2.54,2.18,4.45,4.14,6.38,6.74,1.32,1.77,1.89,3.7,2.88,5.58l3.16,6,2.31,4.23c1.72,3.14,3.54,6.21,4.98,9.41,1.55,3.46,3.11,5.61,5.98,8.1,1.61,1.39,2.7,2.81,5.05,2.9.19.53.22,2.46-.26,2.98-.55.6-2.07,1.26-2.66,1.33-.92-4.92-3.07.07-5.81-4.78Z"/>
  <path d="M810.23,819.89c2.49-1.29,4.84-3.38,7.29-4.88,5.73-3.52,3.76-5.39,8.97-5.2,3.25-6.8,5.16-4.89,9.25-8.24,1.19-.97,2.71-1.53,4-2.31l7.14-4.27,1.47-3.56c2.7.1,3.78-1.45,5.38-2.69,2.73-2.12,5.4-4.07,8.17-5.99,1.94-1.34,2.89-2.69,4.38-4.54,3.37-4.18,6.52-6.54,10.28-9.75l3.92-3.35,3.35-2.97c2.27-2.01,5.45-3.69,8.23-4.91,5.15-2.26.57-1.65,6.31-7.15,2.78.21,7.53-2.7,9.58-4.14l3.68-2.59c1.15-.81,2.34-3.12,3.35-4.16l.69-.71c.21-.22,1.29-.08,1.23.22-.77,3.5-.87-.19-2.42,5.69-.25.94-2.41,1.67-3.05,2.4-1.91,2.15-3.52,4.06-6.19,5.25l-1.93,2.07c-1.06-.41-8.8,4.49-9.21,4.84l-6.46,5.55c-1.01.87-2.66,1.65-3.67,2.56-1.89,1.71-4.73,4.26-6.44,5.59-.35.37-.55,1.94-.74,2.41s-1.35.53-1.87.89c-5.61,3.88-6.24,7.24-12.57,12.21-.67.53-2.63.95-3.21,1.52-5.77,5.61-4.6,1.96-7.31,7.85-3.25.01-5.15,2.44-7.6,4.13l-6.76,4.64c-1.9,1.3-4.5,2.12-6.29,3.53-5.24,4.11-9.85,8.61-15.82,11.53-6.42,3.14-4.41,3.71-11.33,6.37-2.45-4.03,3.94-6.67,6.23-7.86Z"/>
  <path d="M360.41,396.74l-4.88-2.25c.26-3.36-1.41-6.57-1.53-9.95l-.21-6.16-.75-11.76-.19-18.82c-.04-3.83.54-8.04.7-11.82.03-.58-.44-2.11-.37-2.69.25-2.23.84-5.35.67-7.63-.29-3.96.69-7.2.5-11.03l-.24-5.05c-.12-2.41,1.31-5.49,1.02-7.57-.46-3.31-.23-4.87,1.84-7.24,1.34-1.53.13-5.03.45-6.81l1.03-5.87c.45-2.54.82-5.01,1.11-7.56l1.45-.84c.46-.27.26-1.98.49-2.47,1.56-3.29,3.06-7.03,4.43-10.43.57-1.42,1.96-2.85,2.29-4.48.15-.74.34-1.22.59-1.52,1.79-2.17,3,3.63-.43,9.05-.92,1.45-1.28,3.06-1.86,4.59-.26.7-1.37,2.08-1.42,2.83-.13,1.98-.48,4-1.24,5.68-2.08,4.61-3.63,13.38-4.48,18.58-.66,4.06-1,7.43-.59,11.6.19,1.98-.01,4.41.02,6.47l.12,7.37.13,9.26c.03,2.35-1.42,4.74-1.51,6.81l-.3,6.63-.26,20.17-.65,10.85c-.39,6.51,1.16,2.04.4,9.91l4.85,10.59c.12.27.09,1.24.07,1.44-.03.3-.99.22-1.27.09Z"/>
  <path d="M373.3,200.56c1.9-7.16,2.89-8.5,7.47-14.31,1.59-2.02,2.69-4.65,4.15-6.73,1.16-1.67,2.08-3.14,2.74-5.04,1.12-3.23,2.6-.94,6.9-6.32,1.72,3.08-1.6,3.79-2.59,5.57l-6.08,10.95c-.74,1.33-1.37,3.24-2.32,4.37-2.73,3.24-3.71,6.61-4.79,10.53l-1.86,6.7c-.7,2.51-1.54,4.6-1.48,7.32l5.2-4.3,5.31-6.33c3.05-3.63,7.55-7.08,8.67-12.25.42-1.96,1.74-3.23,2.88-4.76,1.55-2.07,2.8-4.61,3.96-6.94l3.26-6.53c1.2-2.41,2.53-4.65,3.97-6.94,1.33-2.11,1.84-5.03,4.92-5.47l-2.37,7.21c-.83,2.53-3.44,4.87-4.06,7.52-.43,1.84-1.05,2.81-1.95,4.26l-3.88,6.2-.75,3.69c-2.14.9-3.27,2.24-4.16,4.28-1.49,3.4-3.98,6.22-6.47,8.94l-4.97,5.42-7.42,8.59c-.84.97-1.84,2.63-1.86,3.53,1.54.42,3.43.73,3.52,1.88.36,4.31-7.65,3.84-6.9,8.59.14.86,1.59,3-.3,3.25-1.41.19-3.57-2.08-3.78-3.43-.67-4.4,1.5-8.16,1.96-12.07s.46-7.53,1.45-11.28l1.62-6.1Z"/>
  <path d="M612.38,736.04c-.37.09-.91-1.15-.61-1.39l1.38-1.1c5.08-6.56,9.28-2.2,11.38-4.64,1.06-1.23,2.82-1.89,4.76-2.03,1.42-.1,3.06-.91,4.56-1.38,2.25-.72,5.44-.55,7.57-1.51s4.04-1.57,6.28-1.31c.9-.94,2.34-2.02,3.71-2.41l6.5-1.83c.78-.22,2.68-2.02,7.87-3.68l5.47-1.76c7.54-2.42,5.69-4.97,10.37-5.17,2.83-.12,9.19-3.86,11.83-5.66,5.34-3.64,6.18-3.6,10.94-6.49,5.94-3.59,8.24-4.26,13.5-7.57.49-.31,1.7-.24,2.04.05,1.32,1.15-3.82,4.44-4.49,4.81l-7.15,3.96c-2.58,1.43-5.96,4.92-8.24,5.36l-3.78.73c-.81.16-1.41,2.27-2.04,3.11-4.05.91-7.59,3.77-8.87,4.32l-4.39,1.88c-2.44,1.05-4.56,2.16-6.93,3.36l-8.21,4.16c.34-.17-12.37,4.08-14,4.63l-4.57,1.55c-6.55,2.22-9.85,3.62-16.92,5.21l-8.76,1.97c-.55.12-1.99.94-1.91,1.46.25,1.68,1.92,2.55.83,3.93-1.25,1.59-3.5-3.66-8.1-2.57Z"/>
  <path d="M951.9,677.77c-3.08,6.2.12,5.12-5.92,7.83l-1.69-4.37c1.78-.86,2.52-2.17,2.57-3.98.28-8.86,1.53-8.64,1.29-17.09-.11-4.01,2.18-11.62,1.55-19.91l-.52-6.78c-.15-1.98-.06-3.53-.57-5.43-.18-.67-.07-1.87.45-1.96s1.77.69,1.87,1.25l1.07,5.98c1.08,1.47,2.37,3.13,2.42,5.01l.34,12.97c.23,8.89-.72,7.57-.7,13.13,0,2.52-1.36,11.69-2.17,13.33Z"/>
  <path d="M162.59,750.21c-.97-2.91-2.45-4.87-4.07-7.04,1.34,1.8-5.49-9.36-5.14-8.75-1.54-2.76-3.69-6.44-5.72-8.92l-.85-2.77c-1.62-1.67-3-3.37-3.89-5.45l-1.89-4.43-2.32-5.43c-.68-1.59-2.35-3.35-2.38-5.11-.12-8.3-2-6.67-.14-12.22.42-.2,2,.4,2.02.91.25,5.81,3,12.96,5.4,18.23.94,2.07,1.33,4.31,2.71,6.12l5.2,6.83c1.3,1.71,2.41,4.18,4.37,5.43-.45,2.74-.88,5.66,2.06,7.38,1.31.76,1.69,2.95,2.48,4.15l3.04,4.65c1.34,2.05,2.55,3.76,4.1,5.82l.76,4.38c-2.69,1.03-4.85-1.13-5.74-3.78Z"/>
  <path d="M760.87,659.07c-.45-.32-.49-1.8-.24-2.29.08-.16,2.38-1.57,4.8-4.17,3.48-3.75,2.68-1.01,7.32-6.02,5.06-5.48,4.5-2.35,11.82-10.47,1.67-1.85,3.21-2.86,5.16-4.33l5.35-4.02c1.52-1.14,10.93-11.1,12.42-13.22.78-1.12,2.31-1.88,3.39-.98-5.06,10.08-5.61,6.42-9.77,12.69-.83,1.25-1.97,2.61-3.05,3.66l-4.45,4.34c-2.51,2.45-6.56,3.36-7.82,7.19-3.06.71-4.69,3.13-6.76,5.12l-6.32,6.09-3.78,3.46c-1.88,1.72-3.3,2.92-4.85,5.27l-3.22-2.31Z"/>
  <path d="M674.54,249.15c-1.98,1.97-6.77-6.76-6.98-9.93-.1-1.54-1.05-2.65-2.73-3.2-1-8.49-2.15-7.17-3.29-13.02-.11-.58-.2-1.96-.66-2.11l-2.63-.89c1.06-2.57.27-4.48-1.64-6.12l-1.7-4.21c-.6-1.48-1.22-2.49-2.12-3.8-1.37-1.99-3.53-8.49-1.93-9.05.34-.12,1.29.42,1.44.83,3.79,10.23,7.03,7.13,9.31,17.05,5.09,5.75,4.75,6.52,5.88,12.62.34,1.84,1.52,4.26,2.19,6.27.79,2.38,1.21,4.65,1.78,7.05.64,2.69,3.89,5.12,3.1,8.52Z"/>
  <path d="M461.68,782.94c-3.86,3.33-9.44,5.79-14.52,6.48.4-2.07,1.62-3,3.05-4.03l7.14-5.15c2.36-1.71,5.06-3.01,6.89-5.61l2.64-.98c1.77-2.01,3.85-2.99,5.87-4.54l6.67-5.11c1.42-1.09,3.34-2.13,4.89-2.83l5-2.27c.48-.22,1.11-.41,1.45-.48.43-.08.27,1.69-.03,2.01-2.73,2.96-6.97,5.32-10.09,7.87-1.15.94-2.16,2.32-3.43,3.21l-4.25,2.98c-.7.56-1.72,2.19-2.24,2.81-2.68.53-4.56,1.77-6.52,3.46l-2.54,2.19Z"/>
  <path d="M331.52,836.76l-3.37,1.56c-.78-1.19-1.13-3.48.03-4.1l6.77-3.6,2.69-1c3.61-1.34,6.97-1.52,10.63-2.02l5.32-.73,6.11-1.83,8.92-.58c4.53-.29,5.62-2.39,7.65-1.42.55.27.66,1.75.54,2.43-.11.6-1.16,1.14-1.96,1.32l-5.85,1.35c-2.9.67-13.38.96-19.22,3.04l-4.15,1.48-8.24,2.12c-2.11.54-3.95,1.08-5.85,1.96Z"/>
  <path d="M447.08,648.6l-2.06-3.3c-1.8.01-2.14-2.25-3.1-2.95l-7.21-5.22c-6.94-5.03-1.36-3.36-9.03-4.99l-3.2-3.09-5.8-3.28-3.11-3.29c-2.63-2.77-4.27-.69-4.33-3.74l-.04-1.85c0-.39,1.16-.62,1.54-.52,1.46.4.52,2.77,2.89,3.43l4.05,1.12c1.21,1.13,2.05,1.81,3.12,2.71l3.11,2.62c3.85,3.24,7.37,3.98,8.61,5.21s2.35,2.21,3.69,3.17l8.15,5.81c2.02,1.44,3.44,3.54,5.56,5.55l-2.84,2.62Z"/>
  <path d="M382.34,595.3c.5,1.54-2.26,3.24-3.83,2.77l-4.2-1.26-4.97-2.91c-1.58-.93-2.55-2.74-3.69-3.53l-9.3-6.43c-1.86-1.29-3.99-2.62-3.55-5.69,2.63,1.14,5.07,2.02,7.09,3.27l4.93,3.03c1.29.8,2.15,1.74,3.94,2.25l.45,3.46c5.13.28,3.17.49,9.34,3.3l3.78,1.72Z"/>
  <path d="M464.44,660.94c-.26.65-2.08-.26-2.65-.66l-3.97-2.79c-1.94-1.36-9.3-6.42-6.25-9.59,5.28,3.6,5.07,5.97,10.33,7.34,1.69.44,3.27,3.78,2.55,5.71Z"/>
  <path d="M621.12,656.81c-.34,1.87-3.51,1.91-4.16.38,1.62-2.92,4.68-9.86,7.42-10.68.4-.12.64,1.33.41,1.71l-3.24,5.32c-.34.56-.29,2.51-.42,3.27Z"/>
  <path d="M631.81,639.78c-1.38-2.17,1.14-9.8,4.31-11.05l3.14-3.71c.9,3.06-1.45,4.85-3.77,6.47-1.69,1.18-.65,5.1-3.68,8.29Z"/>
  <path d="M780.31,835.41c-1.01.06-1.77-3.11-.87-3.63,1.81-1.04,5.16-1.56,6.63-1.48.5.03.61,1.87.33,2.31-.97,1.5-3.69,2.66-6.09,2.79Z"/>
  <path d="M758.4,836.97c-4.26-1.04-6.09,2.64-7.95-.16,1.12-2.44,4.04-1.23,5.97-1.4,1.75-.16,3.58-1.2,5.12.12-.09,1.19-1.76,1.78-3.14,1.45Z"/>
  <path d="M776.64,833.87c-.49.83-3.59,1.95-5.16,2.32-.42.1-1.05-1.35-.91-1.79.59-1.88,3.56-2.17,5.42-2.1.36.01.83,1.26.64,1.58Z"/>
  <path d="M527.9,421.63c-.36,2.48-1,4.81-2.65,6.63-2.17-1.75-.74-5.53.57-6.68.27-.24,1.73-.09,2.08.06Z"/>
  <path d="M725.11,684.09c.36.67.09,2.37-.38,3.05-.43.62-1.88,1.47-2.7,1.21-.64-.2-.48-2.21-.14-2.84l.97-1.77c.24-.43,2.01-.09,2.25.35Z"/>
  <path d="M768.43,834.68c-.34,1.45-4.08,2.29-4.54.44.29-1.22,3.34-1.67,4.54-.44Z"/>
  <path d="M735.25,839.75c-.87.06-2.11-.22-2.06-.61.06-.51.57-1.6,1.08-1.73.63-.16,2.04-.02,2.11.48s-.59,1.82-1.13,1.86Z"/>
  <path d="M522,734.86c-6.94,2.01-1.22.89-5.68,2.4-.28.09-.23-1.16-.07-1.4l2.38-3.62c.51-.78,2.28-1.84,2.98-2.62,2.31-2.58,4.99-4.3,8.54-4.75.11,1.25.45,4.12-.43,4.94-2.65,2.45-4.42,4.11-7.71,5.06Z"/>
</svg>