<?xml version="1.0" encoding="UTF-8"?>
<svg id="Camada_1" data-name="Camada 1" xmlns="http://www.w3.org/2000/svg" viewBox="0 0 1024 1024">
  <defs>
    <style>
      .cls-1 {
        fill: #fff;
      }
    </style>
  </defs>
  <path class="cls-1" d="M2.29,981.37V42.63h1021.71v938.75H2.29ZM966.66,781.45c1.32-.38.62-1.92,7.02-.27,2.12.8,4.95,3.04,7.05,1.88,2.64-1.45,1.98-5.13,2.55-7.55.49-2.1.81-4.68-1.96-5.42l-7.95-2.13-3.32-1.8c-.88-.48-2.07-1.06-2.52-1.76-.34-.52-.02-2.28.64-2.44l5.64-1.39c1.38-3.84,3.99-1.41,4.2-3.81.29-3.37-.95-5.46-3.87-6.17-2-.49-3.61-.44-5.64-.25-3.59.33-7.69-.5-11.26.29l-4.64,1.03c-2.46.55-4.55.6-6.39-1.53-2.98-3.45-2.91.38-8.95-1.63-4.42-1.47-9.21-2.08-13.02-4.66-1.56-1.06-2.76-1.4-4.74-1.82-8.67-1.86-4.77.32-9.64-2.52-1.29-.75-3.04-1.8-4.29-2.32l-4.84-2.03-5.5-1.97-11.14-5.31c.74.35-6.31-1.09-6.92-1.19-.88-.15-2.48-1.05-3.48-1.36-2.57-.79-4.79-1.49-7.2-2.44l-3.76-1.48c-1.95-.77-3.62-1.51-5.43-2.5l-5.49-2.99-8.69-4.37-5.76-2.9c-2.55-1.29-4.74-2.77-7.19-4.22-4.01-2.38-9.12-4.5-13.1-6.73l-5.53-3.1-8.44-3.42c-2.93-1.19-4.82-3.95-8.41-3.55l-6.28-3.7c-4.68-.11-8.43-1.04-12.36-3.15-2.46-1.31-5.82-1.76-8.5-2.86-1.12-.46-3.01-2.09-4.1-1.89-2.52.47-3.91-1.31-5.61-1.75-3.6-.94-6.94-1.44-10.04-3.85-1.38-.14-4-.11-5.12-.57l-4.13-1.7c-1.18-.49-2.66-.82-3.94-1.23l-5.56-1.73c-1.8-.56-3.77-1.51-5.73-2.26-.76-.29-.98-2.45-.27-2.91,3.35-2.2,5.56-4.38,8.16-7.19l5.7-6.14,5.36-6.1c1.93-2.19,3.64-4.76,5.4-7.23,1.54-2.17,2.57-4.57,3.81-6.83,1.52-2.76,3.02-5.53.94-8.6.02-1.19.18-3.43.01-4.48l-.85-5.33c-2.36-2-3.89-7.48-2.53-7.5l1.93-.02,1.84-.02c.86-1.76,1.8-4.13,2.11-5.8-1.84-.76-3.3-1.44-4.82-2.3-1.94,1.08-4.84,3.22-7.22,3.69-.96.19-2.59-1.67-3.18-2.39l-3.71-4.54c-1.42-1.73-2.81-1.8-4-3.98-2.18-3.98-11.47-9.57-5.91-8.29l1.54-.79-.27-1.59c-.26-1.56-2.77-1.34-4.27-1.63l-5.22-1.01c-5.49-1.06-10.23-3.68-15.15-6.35-3.87-2.09-.92-3.95-4.08-5.5-8.12-3.99.31-2.88-10.29-5.18-3.72-.81-7.09-.42-10.78-.3-3.96.12-7.06,1.25-10.5,2.05-4.19.97-9.16-.25-13.09.98-1.8.56-3.41,1.29-5.29,1.3h-5.88s-6.71-.09-6.71-.09c-3.08-.05-5.84.17-8.94.77-2.94.57-6.74,3.06-6.29,1.81,1.35-3.75,2.79-4.09,4.88-10.51l3.06-9.42c.77-2.36,1.46-8.77,2.66-13.36.49-1.86,1.33-3.61,1.95-5.42,2.44-7.13,5.34-20.17,6.2-27.56.73-6.22,2.12-10.42,3.28-17.11.56-3.22.87-5.92,2.03-9.11.64-1.76.12-5.28,1.08-6.83,2.95-4.74,3.4-9.28,4.74-14.42l2.53-9.71c.62-2.37,1.19-5.63,1.19-7.84-2.78-6.55,3.25-5.61,1.79-14.32,2.15-3.41,3.7-11.65,4.19-12.69l3.33-7.02c1.04-2.19.96-5.07,1.78-7.31.87-2.39,3.48-4.4,4.01-7.11s2.24-4.93,3.23-7.28c3.61-8.57,1.63-2.03,5.56-10.67l2.68-5.88c.8-1.76,1.9-3.77,2.92-5.48,2.96-4.99,5.42-9.81,7.87-15.04.92-1.96,2.85-3.96,3.29-6.05.52-2.49,1.62-3.91,2.85-5.87l6.31-10.07c.61-.98,1.61-1.93,2.34-2.82l3.83-4.68c1.78-2.18,3.36-4.53,5-6.9,1.02-1.47,2.53-2.51,3.7-3.75,6.69-7.11,9.32-10.09,17.76-15.88l8.73-5.98,7.28-5.25c4.85-3.5,1.4.28,6.66-3.52,6.13-4.42,4.6-.97,12.58-6.05,1.02-.65,3.09-1.33,3.09-2.35,0-1.24-.58-2.72-1.08-3.58-1.54-2.64-2.95-2.42-5.48-2.14-4.44.49-8.93.87-13.33,1.95l-2.71,1.96-1.17-1.1c-.2-.19.53-1,.77-1.15l6.95-4.37c2.85-1.79,4.28-6.37,3.08-7.67-1.77-.79-4.4-1.28-6.58-1.55-.45,1.1-.86,3.01-1.07,4.18-2.29,1.96-4.99,3.66-7.46,5.57l-5.09,3.91c-.8.62-21.22,13.21-23.11,13.97-3.54,1.41-7.36,2.76-10.43,4.73-1.49.95-2.57,1.64-4.06,2.36l-8.74,4.25c-1.88.91-3.79,1.84-5.58,2.88l-10.89,6.31c-1.77,1.03-3.16,2.07-4.99,3.06-2.33,1.26-10.91,7.33-13.24,9.32-1.21,1.03-1.78,1.2-3.42,1.69-4.55,1.36-5.18,3.54-9.69,3.45-.42,0-.27-1.18.08-1.41l1.26-.83c3.57-2.36,8.05-6.66,10.61-10.35l4.24-6.1c.67-1.76-2.2-4.67-3.9-5.42-2.39-1.05-5.54-.04-7.4,1.61-1.43,1.27-2.98,1.98-4.53,2.98-4.78,3.09-8.94,7.21-13.04,11.04v2.2c-7.74,1.44-5.56,8.56-15.88,8.77-1.02,1.61-2.97,1.81-4.46,2.55l-6.08,2.98-8.1,2.69-6.95,3.32-5.63,2.21-7.95,3.94c-1.67.83-2.58,1.62-4.66,1.85s-5.02,1.05-6.74,2.13c-3.57,2.25-7.05,3.51-10.91,5.13-3.64,1.52-6.99,3.68-11.26,4.01l-2.97,2.43c-2.44-.42-4.08,1.07-5.97,1.74-2.08.74-4.15,1.2-6.01,2.3-4.16,2.48-12.3,4.89-18.36,8.28l-7.31,4.1c-2.09,1.17-4.2,2.65-6.27,4.03-1.9,1.27-3.93,2.08-5.86,3.13l-6.28,3.44c-2.6,1.43-4.16,3.99-7.7,3.58l1.17-3.87c2.79-9.21.61-15.65,1.71-19.95.76-2.97.07-6.22-.42-8.88l.92-4.19c1.34-1.83,1.61-3.91,1.43-6.29-.35-4.7,3.33-8.87,4.29-13.14l1.3-5.74,1.42-5.65c-.22-.8-1.07-2.83-1.69-3.56-1.42-1.67-4.11-.66-5.48.31l-1.49,1.06c-1.28.91-1.06-5.55-1.23-5.95l-2.47-5.67c-1.23-2.83-1.84-5.24-3.46-7.95l-.8-5.72c-.35-2.48-1.05-4.43-1.14-6.9s-2.52-3.55-4.75-3.83l-2.25,3.51c.54,2.45.71,4.31.21,6.47-4.38-5.11-1.38-4.61-6.13-12.74-1.92-3.28-3.69-6.38-5.9-9.44-5.96-8.26-3.11-14.02-8.62-12.97-6.7,1.27-2.08-6.78-12.17-5.11.1,2.23-.49,3.62-1.68,5.41-.88,1.31-1.73,3.43-2.91,3.84-1.47.5-3.63.33-4.58.14l-1.99,4.09c-1.41,2.92-1.96,5.74-3.98,8.12-2.14,2.52-4.32,4.56-6.65,6.92-1.65,1.67-2.9,3.94-4.77,5.52-7.92,6.68-4.8,6.66-14.8,11.65-3.68,1.83-4.44,3.91-4.56.76l-.28-7.17-3.53-11.98c-.68-2.3-.55-4.24-1.42-6.43l-2.05-5.16c1.51-5.9-1.2-3.73-2.32-11.16-.32-2.14-2.45-4.04-2.96-5.87l-2.24-8.02-4.79-16.91-3.2-13.81-1.24-4.39-2.2-7.01c-1.08-3.43-3.02-6.34-4.33-9.7l-3.47-8.9c-1.14-2.92-2.61-5.36-4.22-7.84-2.12-3.27-4.29-5.78-7.73-7.91-2.08-1.28-5.14-3.02-7.33-.33-1.08,1.33.58,3.79,1.88,4.6l4.72,2.96c1.89,1.19,3.98,3.39,4.02,5.88.02,1.49-2.29,3.88-3.74,4.05-2.84.32-4.02-2.82-5.2-4.47l-4.15-5.78c-1.18-1.64-3.31-3.68-4.92-4.99l-9.18-7.41c-5.14-4.15-6.71-3.17-11.1-7.02l-4.25-3.73-9.97-8.79-3.52-3.08-6.31-.73c-.76-.09-2.71-.11-2.96.55-1.38,3.61.45,1.84-2.82,10.4-1.07,2.8.1,6.85-.75,9.74-2.33,7.93,1.78,2.59-1.35,10.51-.67,1.7-2.63,11.89-4.41,17.13-.66,1.94-1.07,2.95-.92,5.15.11,1.75-1.6,4.11-2.02,5.93-1.05,4.55-2.87,8.36-4.62,12.74l-2.13,5.3c-1.51,3.76-5.24,9.09-7.48,14.16l-2.76,6.25-2.72,3.76c-1.51,2.08-1.82,4.87-3.21,7.16-3.03,4.98-2.11,7.54-4,7.58-.5.01-1.71-.56-1.67-1.06l.17-2.12c.19-2.46.93-4.24,1.28-6.66l1.35-9.19c.54-3.66,1.56-6.67,1.23-10.57-.11-1.38.59-2.6,1.18-3.9,1.16-2.57,1.23-6,2.06-8.78l2.82-9.55-5.46-3.22c-2.12.15-4.7,2.43-4.94,4.48-.6,4.98-.67,9.3-.65,14.28,0,.99-1.06,2.76-1.86,2.58-1.31-.3-3.82-.75-4.34.16l-2.32,4.04c.71,3.56-.02,6.32-1.08,9.61-.7,2.17-.1,5.3-.54,7.15l-2.24,9.29-1.5,5.58-1.29,5.09c-2.35,9.26-4.89,8.49-8.78,21.73-.47,1.61-1.77,3.85-2.56,5.42-1.76,3.54-2.76,7.14-4.17,10.8-.81,2.1-2.77,4.11-3.25,6.76-.8,4.41-2.41,7.99-4.18,13.23-.53,1.58-3.44,3.09-3.98,5.44l-1.26,5.44c-2.58,4.04-6.82,7.55-8.53,12.19-.71,1.92-1.09,3.5-2.4,5.16-1.5,1.9-2.23,3.89-3.27,6.03-1.11,2.28-4.08,4.29-4.62,6.85-1.01,4.77-2.67,4.48-5.53,9.35l-7.38,12.55c-1.1,1.87-1.81,4.11-3.15,5.93-.82,1.11-1.63,2.34-2.3,3.46l-3.81,6.34c-1.78,2.97-3.72,5.61-5.75,8.41-.9,1.24-1.67,3.5-2.97,4.42-3.53,2.51-5.69,5.65-8.38,8.97-.93,1.15-2.73,2.04-3.53,3.67-2.01,4.12-6.4,7.06-7.62,11.49l-1.56,5.66c-1.22,4.43-4,7.78-6.36,11.55l-3.35,5.35c-1.12,1.79-2.14,3.7-2.58,5.73-.7,3.24.65,5.31,3.81,6.32,1.36.44,2.52,3.29,2.21,4.77-2.62,12.29-.88,15.49-2.62,23.55-.64,2.94-.13,6.87-1.27,9.59-.94,2.25-2.2,4.15-2.69,6.49-.86,4.11-1.32,7.91-1.62,12.03l-.56,7.69c-.26,3.57-.86,6.65-1.89,10.25-.47,1.64-.49,11.08-.5,13.48-.03,4.12.16,7.46,1.03,11.53.4,1.86-.03,5,.08,7.17l.6,11.77c.14,2.66,1.04,5.13,1.88,7.69.33,1.84-.11,4.71.28,6.57l1.71,8.3c.41,1.98,1.28,3.25.85,5.66-.24,1.32.74,3.44,1.23,5.02.68,2.14-.63,5.05-.3,7.2l1.37,9.08,1.24,6.76c.93,5.03,1.71,9.16,2.68,14.2l2.39,12.3c1,5.17,2.04,10.98,3.86,15.86l2.42,6.51,2.9,8.59,2.8,9.22c.52,1.72,1.12,4.23,1.05,6.03l-.21,5.2c-.1,2.51.92,5.86,4.25,5.6l5-2.51c.13,2.61-.3,4.3-.62,6.73l-.62,4.7c-3.62,4.86,1.23,6.78-3.96,14.6-.37,3.87-1.91,5.92-2.73,9.4l-2.47,10.5c-2.46,10.46-1.89,23.8-3.45,30.13-.44,1.79-.52,3.58.08,5.35.67,2.01-.13,3.62-.37,5.53-.52,4.13-.98,8.44-.96,12.77l.08,14.74c0,1.07.46,2.88.29,3.79-.58,3.02-.17,5.34.14,8.26l.67,6.2c.31,2.83-.54,6.21.14,8.99.82,3.34.96,6.98,1.91,10.15,1.5,4.98,3.42,9.64,4.19,14.89.52,3.57,1.51,6.48,4.15,8.86l2.16,5.61,2.43,1.6c2.61,6.72,6.25,10,10.02,14.46,2.13,2.52,3.81,5.32,7.11,6.56,1.15.43,2.51,2.62,2.87,3.64-1.13,2.01-1.98,4.87.06,7,3.1,3.23,20.48-4.6,27.83-4.91s14.45-.68,21.89-2.86c1.67-.49,5.12-.65,7.02-.65,7.6,0,14.45-.66,21.7-2.13,3.25-.66,5.95-1.19,8.9-2.65l7.65-3.79,5.58-1.87c3.47-1.16,6.42-3.7,9.76-5.12,4.09,2.54,5.82.23,12.16.51,7.3-4.49,16-13.06,21.56-19.36l10.13-11.47c.96-1.08,2.04-3.78,3.75-3.14l5.22,1.94c1.07.4,12.85,2.41,15.75,2.36,11.7-.21,15.95.4,26.15,5.83,3.5,1.86,8.11.9,11.95,1.27,6.05.58,8.86,1.17,13.55,1.61l5.78.54,7.97.82,7.29.7c2.95.28,5.57.8,8.65.99,1.98.13,4.82-.14,6.55.26,2.48.57,4.38,1.61,7.01,1.37,4.38-.41,8.3.83,12.58.92l15.78.33c1.81.04,3.42.01,5.2,0l18.2-.22c1.55-.02,4.55-.37,5.82-.94,3.13-2.15,8.44-3.32,10.7.56,3.33-.91,7.38-2.01,10.59-3.11,9.97-3.44,13.03-2.75,14.01-3.09,2.67-.92,4.8-1.79,7.49-2.23l4.68-.76,4.6-.64c1.24-.17,3.58.23,4.79-.25,2.81-1.12,5.74-1.83,8.5-2.39,5.79-4.27,1.84-1.45,8.84-2.11,3.19-.3,6.04-.45,9.12-1.19l5.87-1.4c2.14-.51,4.84-.42,7.07-1.25,4.87-1.81,9.37-3.01,14.58-3.64,1.12-.14,2.88-1.09,3.94-1.35,3.76-.92,7.02-2.3,10.7-3.61,2.09-.75,4.91-.39,6.86-1.82.4-.29,1.26-.6,1.65-.62s1.08,1.27,1.49,1.37c2.47.6,5.55-2.17,7.75-3.34l8.6-4.55c4.65-2.46,9.76-3.91,14.05-7,4.5-3.23,9.46-4.97,14.81-6.48,1.58-.45,3.71-2.97,5.36-3.16,2.86-.34,3.72-1.48,5.82-2.92,1.57-1.08,4.81-1.34,6.43-2.66,1.74-1.42,3.63-2.16,5.52-3.21l5.44-3.04,3.67-1.96c4.03-2.15,7.68-4.53,11.84-6.5,6.61-3.14,6.98-5.58,12.1-7.1l6.51-1.93c-.11,4.98-6.51,4.68-8.71,7.13-1.47,1.64-2.75,3.7-4.64,4.58-3.34,1.56-6.77,4.72-5.69,8.78.9,3.35,9.2,2.32,9.13,2.39,3.14-2.83-2.48-3.24,14.18-13.54l4.2-2.59,6.05-3.13c4.89-2.54,2.11-4.11,16.34-8.74l8.09-2.64,5.93-2.01c7.61-2.57,10.61-7.22,14.08-4.1.99,1.66,3.78,5.83,5.76,3.4,1.21-1.49,2.36-3.14,4.01-4.2,4.16-2.67,7.88-2.23,12.61-2.02,3.22.14,11.52-1.11,12.72-1.03,2.26.14,4.55-.37,6.47-.34,2.14.03,4.49.51,6.91.26l4.77-.5,16.15-.58c1.98-.07,3.34.19,5.33.49,3.7.56,7.76.21,11.59.42,7.49.41,11.12-.14,18.58-.98l2.8-2.22,7.02-2.83c2.55-1.03,5.9.23,8.57.02,6.47-.51,8.2-.25,14.41,2.83.86.19,2.98-.44,3.7.04s1.52,1.78,2.23,2.86c.81,1.22,3.15,1.17,4.37.43,2.9-1.76,5.96-.27,9.01-.58,3.41-.35,7.37-1.54,10.69-2.5Z"/>
  <path d="M966.66,781.45c-3.33.96-7.28,2.15-10.69,2.5-3.05.31-6.11-1.18-9.01.58-1.22.74-3.56.79-4.37-.43-.71-1.08-1.51-2.37-2.23-2.86s-2.83.16-3.7-.04c-6.21-3.08-7.94-3.34-14.41-2.83-2.67.21-6.02-1.05-8.57-.02l-7.02,2.83-2.8,2.22c-7.46.84-11.09,1.39-18.58.98-3.83-.21-7.89.15-11.59-.42-1.99-.3-3.35-.56-5.33-.49l-16.15.58-4.77.5c-2.42.25-4.77-.23-6.91-.26-1.92-.02-4.21.49-6.47.34-1.2-.08-9.5,1.17-12.72,1.03-4.74-.21-8.45-.65-12.61,2.02-1.65,1.06-2.8,2.71-4.01,4.2-1.97,2.43-4.77-1.74-5.76-3.4-3.47-3.12-6.47,1.53-14.08,4.1l-5.93,2.01-8.09,2.64c-14.22,4.63-11.44,6.21-16.34,8.74l-6.05,3.13-4.2,2.59c-16.66,10.3-11.04,10.71-14.18,13.54.08-.07-8.23.96-9.13-2.39-1.09-4.06,2.35-7.22,5.69-8.78,1.88-.88,3.17-2.94,4.64-4.58,2.2-2.45,8.6-2.15,8.71-7.13l-6.51,1.93c-5.12,1.52-5.49,3.96-12.1,7.1-4.15,1.97-7.81,4.35-11.84,6.5l-3.67,1.96-5.44,3.04c-1.89,1.06-3.78,1.8-5.52,3.21-1.62,1.32-4.86,1.59-6.43,2.66-2.11,1.45-2.97,2.58-5.82,2.92-1.66.2-3.79,2.72-5.36,3.16-5.35,1.51-10.31,3.24-14.81,6.48-4.29,3.09-9.41,4.54-14.05,7l-8.6,4.55c-2.2,1.16-5.28,3.94-7.75,3.34-.41-.1-1.1-1.39-1.49-1.37s-1.26.33-1.65.62c-1.95,1.44-4.77,1.08-6.86,1.82-3.68,1.31-6.94,2.69-10.7,3.61-1.06.26-2.82,1.22-3.94,1.35-5.21.64-9.71,1.84-14.58,3.64-2.23.83-4.93.74-7.07,1.25l-5.87,1.4c-3.08.74-5.93.89-9.12,1.19-7,.65-3.04-2.17-8.84,2.11-2.76.56-5.69,1.27-8.5,2.39-1.21.48-3.55.08-4.79.25l-4.6.64-4.68.76c-2.68.44-4.81,1.31-7.49,2.23-.98.34-4.05-.35-14.01,3.09-3.2,1.11-7.26,2.21-10.59,3.11-2.26-3.88-7.57-2.71-10.7-.56-1.27.57-4.27.92-5.82.94l-18.2.22c-1.78.02-3.39.05-5.2,0l-15.78-.33c-4.28-.09-8.2-1.33-12.58-.92-2.62.24-4.53-.8-7.01-1.37-1.73-.39-4.57-.13-6.55-.26-3.07-.19-5.7-.71-8.65-.99l-7.29-.7-7.97-.82-5.78-.54c-4.69-.44-7.5-1.03-13.55-1.61-3.84-.37-8.46.59-11.95-1.27-10.2-5.43-14.45-6.04-26.15-5.83-2.9.05-14.68-1.96-15.75-2.36l-5.22-1.94c-1.71-.64-2.8,2.06-3.75,3.14l-10.13,11.47c-5.56,6.3-14.27,14.87-21.56,19.36-6.34-.28-8.07,2.03-12.16-.51-3.34,1.42-6.29,3.96-9.76,5.12l-5.58,1.87-7.65,3.79c-2.95,1.46-5.65,1.99-8.9,2.65-7.25,1.47-14.09,2.13-21.7,2.13-1.9,0-5.35.16-7.02.65-7.44,2.18-14.21,2.54-21.89,2.86s-24.73,8.14-27.83,4.91c-2.05-2.13-1.19-5-.06-7-.36-1.01-1.72-3.2-2.87-3.64-3.3-1.24-4.98-4.04-7.11-6.56-3.77-4.46-7.41-7.74-10.02-14.46l-2.43-1.6-2.16-5.61c-2.64-2.37-3.63-5.29-4.15-8.86-.77-5.25-2.69-9.91-4.19-14.89-.95-3.16-1.09-6.81-1.91-10.15-.68-2.78.16-6.16-.14-8.99l-.67-6.2c-.32-2.92-.72-5.24-.14-8.26.18-.91-.28-2.71-.29-3.79l-.08-14.74c-.02-4.33.44-8.63.96-12.77.24-1.9,1.03-3.52.37-5.53-.59-1.77-.52-3.57-.08-5.35,1.56-6.33.99-19.67,3.45-30.13l2.47-10.5c.82-3.48,2.37-5.53,2.73-9.4,5.19-7.82.34-9.74,3.96-14.6l.62-4.7c.32-2.43.75-4.12.62-6.73l-5,2.51c-3.33.27-4.35-3.08-4.25-5.6l.21-5.2c.07-1.79-.53-4.31-1.05-6.03l-2.8-9.22-2.9-8.59-2.42-6.51c-1.82-4.89-2.86-10.69-3.86-15.86l-2.39-12.3c-.98-5.04-1.76-9.16-2.68-14.2l-1.24-6.76-1.37-9.08c-.32-2.14.98-5.05.3-7.2-.5-1.57-1.47-3.7-1.23-5.02.43-2.4-.44-3.67-.85-5.66l-1.71-8.3c-.38-1.86.05-4.73-.28-6.57-.84-2.56-1.74-5.02-1.88-7.69l-.6-11.77c-.11-2.17.32-5.31-.08-7.17-.88-4.07-1.06-7.42-1.03-11.53.02-2.4.03-11.84.5-13.48,1.04-3.6,1.63-6.68,1.89-10.25l.56-7.69c.3-4.12.76-7.92,1.62-12.03.49-2.34,1.75-4.24,2.69-6.49,1.14-2.72.63-6.66,1.27-9.59,1.75-8.05,0-11.26,2.62-23.55.32-1.49-.85-4.34-2.21-4.77-3.16-1.02-4.51-3.09-3.81-6.32.44-2.03,1.46-3.94,2.58-5.73l3.35-5.35c2.36-3.77,5.14-7.13,6.36-11.55l1.56-5.66c1.22-4.43,5.61-7.36,7.62-11.49.8-1.63,2.6-2.52,3.53-3.67,2.69-3.33,4.85-6.46,8.38-8.97,1.29-.92,2.07-3.18,2.97-4.42,2.03-2.81,3.97-5.44,5.75-8.41l3.81-6.34c.67-1.11,1.48-2.34,2.3-3.46,1.33-1.81,2.05-4.06,3.15-5.93l7.38-12.55c2.86-4.87,4.52-4.58,5.53-9.35.54-2.56,3.51-4.57,4.62-6.85,1.04-2.14,1.77-4.14,3.27-6.03,1.31-1.66,1.69-3.24,2.4-5.16,1.72-4.64,5.95-8.15,8.53-12.19l1.26-5.44c.54-2.35,3.45-3.86,3.98-5.44,1.77-5.24,3.38-8.81,4.18-13.23.48-2.65,2.44-4.66,3.25-6.76,1.41-3.67,2.41-7.27,4.17-10.8.78-1.57,2.08-3.81,2.56-5.42,3.89-13.25,6.43-12.47,8.78-21.73l1.29-5.09,1.5-5.58,2.24-9.29c.44-1.84-.16-4.98.54-7.15,1.07-3.29,1.79-6.05,1.08-9.61l2.32-4.04c.52-.91,3.03-.46,4.34-.16.8.18,1.86-1.58,1.86-2.58-.02-4.98.05-9.3.65-14.28.25-2.04,2.83-4.33,4.94-4.48l5.46,3.22-2.82,9.55c-.82,2.79-.89,6.21-2.06,8.78-.59,1.3-1.29,2.52-1.18,3.9.32,3.9-.7,6.91-1.23,10.57l-1.35,9.19c-.36,2.42-1.09,4.2-1.28,6.66l-.17,2.12c-.04.5,1.17,1.07,1.67,1.06,1.89-.04.97-2.6,4-7.58,1.39-2.29,1.7-5.08,3.21-7.16l2.72-3.76,2.76-6.25c2.24-5.07,5.97-10.4,7.48-14.16l2.13-5.3c1.75-4.38,3.57-8.19,4.62-12.74.42-1.82,2.14-4.18,2.02-5.93-.14-2.2.27-3.21.92-5.15,1.78-5.23,3.74-15.42,4.41-17.13,3.13-7.92-.97-2.58,1.35-10.51.85-2.89-.32-6.93.75-9.74,3.27-8.55,1.43-6.79,2.82-10.4.25-.66,2.21-.64,2.96-.55l6.31.73,3.52,3.08,9.97,8.79,4.25,3.73c4.39,3.85,5.96,2.87,11.1,7.02l9.18,7.41c1.61,1.3,3.74,3.35,4.92,4.99l4.15,5.78c1.19,1.65,2.36,4.79,5.2,4.47,1.45-.16,3.76-2.55,3.74-4.05-.04-2.49-2.12-4.69-4.02-5.88l-4.72-2.96c-1.3-.81-2.96-3.28-1.88-4.6,2.19-2.68,5.25-.95,7.33.33,3.44,2.13,5.61,4.64,7.73,7.91,1.61,2.48,3.08,4.92,4.22,7.84l3.47,8.9c1.31,3.36,3.25,6.27,4.33,9.7l2.2,7.01,1.24,4.39,3.2,13.81,4.79,16.91,2.24,8.02c.51,1.84,2.64,3.74,2.96,5.87,1.12,7.43,3.83,5.25,2.32,11.16l2.05,5.16c.87,2.19.74,4.13,1.42,6.43l3.53,11.98.28,7.17c.13,3.15.88,1.08,4.56-.76,10-4.99,6.88-4.97,14.8-11.65,1.87-1.58,3.12-3.85,4.77-5.52,2.33-2.36,4.51-4.39,6.65-6.92,2.02-2.38,2.56-5.2,3.98-8.12l1.99-4.09c.95.19,3.11.36,4.58-.14,1.18-.4,2.04-2.52,2.91-3.84,1.19-1.79,1.79-3.18,1.68-5.41,10.08-1.67,5.47,6.38,12.17,5.11,5.51-1.04,2.66,4.71,8.62,12.97,2.21,3.06,3.98,6.16,5.9,9.44,4.75,8.13,1.75,7.63,6.13,12.74.5-2.15.33-4.01-.21-6.47l2.25-3.51c2.23.28,4.66,1.45,4.75,3.83s.79,4.42,1.14,6.9l.8,5.72c1.61,2.71,2.22,5.12,3.46,7.95l2.47,5.67c.17.4-.04,6.86,1.23,5.95l1.49-1.06c1.37-.97,4.05-1.98,5.48-.31.62.73,1.47,2.76,1.69,3.56l-1.42,5.65-1.3,5.74c-.97,4.28-4.65,8.45-4.29,13.14.18,2.38-.1,4.45-1.43,6.29l-.92,4.19c.49,2.66,1.18,5.91.42,8.88-1.1,4.29,1.07,10.74-1.71,19.95l-1.17,3.87c3.53.42,5.09-2.15,7.7-3.58l6.28-3.44c1.93-1.06,3.97-1.87,5.86-3.13,2.07-1.38,4.19-2.86,6.27-4.03l7.31-4.1c6.05-3.39,14.19-5.8,18.36-8.28,1.86-1.11,3.94-1.57,6.01-2.3,1.88-.67,3.53-2.16,5.97-1.74l2.97-2.43c4.28-.33,7.62-2.49,11.26-4.01,3.86-1.62,7.34-2.89,10.91-5.13,1.72-1.08,4.7-1.91,6.74-2.13s2.99-1.02,4.66-1.85l7.95-3.94,5.63-2.21,6.95-3.32,8.1-2.69,6.08-2.98c1.49-.73,3.44-.94,4.46-2.55,10.33-.21,8.14-7.32,15.88-8.77v-2.2c4.11-3.83,8.27-7.95,13.05-11.04,1.55-1,3.1-1.71,4.53-2.98,1.86-1.65,5.01-2.66,7.4-1.61,1.7.75,4.57,3.66,3.9,5.42l-4.24,6.1c-2.56,3.69-7.05,7.98-10.61,10.35l-1.26.83c-.35.23-.5,1.41-.08,1.41,4.51.09,5.14-2.09,9.69-3.45,1.63-.49,2.21-.67,3.42-1.69,2.33-1.99,10.91-8.06,13.24-9.32,1.83-.99,3.22-2.03,4.99-3.06l10.89-6.31c1.79-1.04,3.71-1.96,5.58-2.88l8.74-4.25c1.49-.72,2.57-1.41,4.06-2.36,3.08-1.97,6.9-3.31,10.43-4.73,1.9-.76,22.31-13.35,23.11-13.97l5.09-3.91c2.48-1.9,5.18-3.61,7.46-5.57.22-1.16.62-3.07,1.07-4.18,2.18.27,4.81.76,6.58,1.55,1.2,1.3-.23,5.88-3.08,7.67l-6.95,4.37c-.24.15-.97.97-.77,1.15l1.17,1.1,2.71-1.96c4.4-1.07,8.88-1.45,13.33-1.95,2.53-.28,3.93-.5,5.48,2.14.5.86,1.08,2.34,1.08,3.58,0,1.02-2.06,1.7-3.09,2.35-7.98,5.08-6.45,1.63-12.58,6.05-5.27,3.8-1.81.02-6.66,3.52l-7.28,5.25-8.73,5.98c-8.44,5.78-11.07,8.77-17.76,15.88-1.17,1.24-2.69,2.28-3.7,3.75-1.64,2.38-3.22,4.72-5,6.9l-3.83,4.68c-.72.88-1.72,1.84-2.34,2.82l-6.31,10.07c-1.23,1.97-2.34,3.39-2.85,5.87-.43,2.1-2.37,4.1-3.29,6.05-2.46,5.23-4.92,10.06-7.87,15.04-1.02,1.71-2.12,3.72-2.92,5.48l-2.68,5.88c-3.93,8.64-1.96,2.1-5.56,10.67-.99,2.35-2.69,4.59-3.23,7.28s-3.14,4.72-4.01,7.11c-.82,2.25-.74,5.13-1.78,7.31l-3.33,7.02c-.49,1.04-2.04,9.28-4.19,12.69,1.47,8.71-4.57,7.77-1.79,14.32,0,2.21-.57,5.47-1.19,7.84l-2.53,9.71c-1.34,5.14-1.79,9.68-4.74,14.42-.97,1.55-.44,5.07-1.08,6.83-1.16,3.19-1.47,5.89-2.03,9.11-1.16,6.68-2.55,10.89-3.28,17.11-.87,7.39-3.77,20.43-6.2,27.56-.62,1.81-1.46,3.56-1.95,5.42-1.2,4.59-1.89,11-2.66,13.36l-3.06,9.42c-2.09,6.42-3.53,6.76-4.88,10.51-.45,1.26,3.35-1.24,6.29-1.81,3.1-.6,5.86-.82,8.94-.77l6.71.1h5.88c1.88,0,3.49-.74,5.29-1.3,3.93-1.23,8.9,0,13.09-.98,3.44-.8,6.54-1.93,10.5-2.05,3.69-.11,7.06-.5,10.78.3,10.6,2.3,2.18,1.19,10.29,5.18,3.16,1.55.21,3.41,4.08,5.5,4.93,2.66,9.67,5.29,15.15,6.35l5.22,1.01c1.49.29,4,.07,4.27,1.63l.27,1.59-1.54.79c-5.56-1.28,3.72,4.31,5.91,8.29,1.19,2.18,2.59,2.24,4,3.98l3.71,4.54c.58.72,2.22,2.58,3.18,2.39,2.38-.47,5.28-2.61,7.22-3.69,1.52.85,2.98,1.54,4.82,2.3-.31,1.67-1.25,4.05-2.11,5.8l-1.84.02-1.93.02c-1.36.02.18,5.5,2.53,7.5l.85,5.33c.17,1.05,0,3.29-.01,4.48,2.09,3.06.58,5.84-.94,8.6-1.24,2.26-2.26,4.65-3.81,6.83-1.75,2.47-3.47,5.04-5.4,7.23l-5.36,6.1-5.7,6.14c-2.6,2.8-4.82,4.99-8.16,7.19-.7.46-.48,2.62.27,2.91,1.96.75,3.93,1.7,5.73,2.26l5.56,1.73c1.29.4,2.76.74,3.94,1.23l4.13,1.7c1.12.46,3.74.43,5.12.57,3.1,2.41,6.43,2.91,10.04,3.85,1.7.44,3.1,2.21,5.61,1.75,1.08-.2,2.98,1.43,4.1,1.89,2.68,1.11,6.05,1.55,8.5,2.86,3.93,2.1,7.68,3.04,12.36,3.15l6.28,3.7c3.59-.4,5.48,2.36,8.41,3.55l8.44,3.42,5.53,3.1c3.99,2.24,9.1,4.35,13.1,6.73,2.44,1.45,4.63,2.93,7.19,4.22l5.76,2.9,8.69,4.37,5.49,2.99c1.81.99,3.48,1.73,5.43,2.5l3.76,1.48c2.41.95,4.62,1.65,7.2,2.44,1,.31,2.61,1.21,3.48,1.36.61.1,7.67,1.55,6.92,1.19l11.14,5.31,5.5,1.97,4.84,2.03c1.25.52,3,1.56,4.29,2.32,4.87,2.84.97.66,9.64,2.52,1.98.43,3.18.77,4.74,1.82,3.8,2.58,8.59,3.19,13.02,4.66,6.04,2.01,5.97-1.82,8.95,1.63,1.84,2.14,3.93,2.08,6.39,1.53l4.64-1.03c3.56-.79,7.67.04,11.26-.29,2.04-.19,3.64-.24,5.64.25,2.92.71,4.16,2.8,3.87,6.17-.21,2.41-2.82-.03-4.2,3.81l-5.64,1.39c-.67.16-.98,1.92-.64,2.44.46.7,1.64,1.28,2.52,1.76l3.32,1.8,7.95,2.13c2.77.74,2.45,3.32,1.96,5.42-.57,2.42.09,6.1-2.55,7.55-2.1,1.15-4.93-1.09-7.05-1.88-6.4-1.65-5.7-.1-7.02.27ZM154.84,699.8c3.76-5.53,3.85-4.4,5.74-8.81,6.46-5.79,2.43-5.1,10.02-11.47,2.16-1.82,4.47-3.61,5.92-5.94,2.73-4.37,8.56-6.53,13.43-7.21,2.85-.4,4.07-2.98,5.7-5.09l10.6-13.76c1.87-2.43,3.4-4.77,5.32-7.16l4.57-5.69c1.47-1.83,3.13-3.77,4.43-5.68s2.39-3.54,3.87-5.3l10.43-12.36c5.91-7.01,11.02-14.09,16.66-21.33,3.38-4.33,10.19-10.52,13.02-14.21,1.88-2.45,3.99-4.24,6.16-6.42l4.2-4.2c.79-.79.91-3.85,1.98-4.14,3.34-.74,4.81-3.25,6.92-5.22,2.17-2.04,4.38-3.85,6.4-6.02l10.16-10.9,3.56-2.08c1.93-3.84,4.54-6.67,7.56-9.55l7.55-7.18,4.14-4.38c4.16-4.4,6.61-5.5,11.93-11.81,1.27-1.51,2.28-2.93,3.73-4.3l9.63-9.16c1.85-1.76,2.71-4.29,5.4-5.42,1.97-.84,3.15-2.91,4.65-4.51l3.74-3.98c1.41-1.5,2.86-4.4,3.38-6.26l3.29-11.59,1.48-5.59c.53-2,1.19-3.59,2.21-5.19-.05-1.24-.03-3.3.44-4.71l2.62-7.84c.79-2.35.62-5.59,1.22-8.1,1.63-6.89,0-6.76,1.74-13.65.6-2.39.3-4.62.54-6.88.61-5.64,1.69-11.13,1.81-16.86l.25-13.02.17-8.86.02-5.55.11-8.01c.03-2.29.03-4.53-.24-6.88-.52-4.57,0-8.97.14-13.58.06-1.87-.79-11.91-1.12-14.29l-1.11-8.08c-.94-6.83-1.01-14.15-4.18-20.32-6.25,1.01-7.63-5-8.66-10.22l-2.62-13.38c-.44-2.27-1.74-4.77-1.03-7.08l.69-2.23c.12-.39-1.02-.93-1.57-1.33l.19-9.81c.03-1.58-1.04-3.92-.81-5.76.3-2.42.17-4.67-.18-6.97l-1.13-7.36c-.59-3.84-.64-7.05-3.05-10.34-1.5-2.05-1.5-5.87-2.83-7.9s-2.47-3.62-3.51-5.65l-3.6-7.01-2.39-5c-1.41-2.95-2.52-5.47-5.1-7.63-.59-.49-1.36-2.1-1.33-2.97.07-2.1-1.07-3.19-2.16-4.77-2.29-3.34-12.16-17.39-14.48-19.07l-10.55-7.68c-1.7-1.24-3.32-1.92-5.17-2.93-2.53-1.38-4.86-3.84-7.26-5.54l-9.06-6.45c-1.33-.95-4.64-1.24-4.99.72-.47,2.59-1.1,5.27-1.29,7.78l-.93,12.42c-.18,2.39-1.78,4.79-2.49,7.11-2.49,8.17-1.51,8.33-3.28,13.59-2.5,7.44-.94,9.16-3.88,14.46l-3.46,6.24c-4.39,7.91-2.17,7.55-8.64,18.61-8.28,14.13-2.1,8.39-10.18,22.19-2.13,3.63-3.33,7.87-5.68,11.4l-6.57,9.88c-.67,1.01-3.3,1.29-2.72,3.18,1.6,5.19-3.93,3.17-3.03,9.24.26,1.77-.78,2.5-1.77,3.84-5.19,7.01-2.92,11.26-8.06,14.27-1.04.61-.72,3.35-1.16,4.47l-4.65,11.97-1.95,6.62c-1.15,3.92-4.05,7.26-3.98,11.6.04,2.28-2.76,2.68-3.49,3.86-1.76,2.84-1.33,5.89-3.77,10.28l-5.98,10.81c-1.75,3.17-4.8,5.87-6.88,8.92-1.3,1.91-2.58,3.4-4.67,4.41-1.77.86-.86,3.42-1.6,4.73-1.83,3.23-3.39,5.82-5.88,8.19-1.01,6.73-7.52,12.43-8.86,14.82-6.32,11.34-5.17,7.91-11.43,17.16-4.43,6.53-3.71,8.38-8.65,13.67-1.33,1.42-2.18,4.41-3.44,6.13l-3.34,4.54-3.84,5.43c-1.43,2.02-2.24,4.71-3.49,6.72-1.71,2.76-3.53,5.16-4.81,8.24-4.27,10.32-5.01,16.92-6.25,27.74-1.11,9.67.52,5.39-.13,16.38-.2,3.36-.57,6.52.09,9.72.13.62-.28,2.01-.74,2.31-2.03,1.32-4.28-1.15-6.18.34-2.11,1.65-1.08,4.74-1.07,6.98.01,3.4-.86,6.75-1.09,10.18-.14,2.13.49,5.17-.26,6.85-1.28,2.89-.52,4.07.23,6.78.55,1.96,1.39,5.23,1.54,7.37l1.13,16.54.07,7.34.5,8.5c.21,3.59,1.06,6.57,1.93,9.88l1.71,6.46c.57,2.16,1.36,4.43,1.76,6.71.55,3.14,1.54,7.32,3.14,9.93.36.58-.31,2.37-.24,2.99s1.61,1.32,1.73,1.94l1.18,5.9c.68,3.43,1.49,5.47,3.39,8.34,1.03,1.56,2.16,4.95,2.38,6.86l1.28,10.9c.26,2.25.01,4.96.41,7.04.3,1.59.51,2.83.71,4.39.22,1.67,1.4,4.16,1.04,5.8-.62,2.77.05,4.79,2.06,6.45l.73,3.48,1.3,6.17c.69,3.3,3.49,6.22,3.57,9.84.05,2.41.88,4.28,2.06,6.38,1.09,1.94,4.48,4.21,6.22,1.66ZM357.68,191.34l-1.49-4.39-2.12-6.02-3.93-10.74c-.17-.46-1.64-1.29-1.7-.85l-.24,1.75c-.22,1.63-.56,4.53.15,5.79,1.63,2.91,2.36,5.04,3.55,8.04.29.74,4.28,9.51,5.5,8.06.2-.24.38-1.32.27-1.65ZM436.31,405.95l4.92-4.31c4.58-1.46,5.3-4.64,11.69-9.42l6.86-5.13c1.6-1.2,4.41-2.33,5.71-3.8l2.2-13.45c.26-1.59,1.12-3.53.86-5.17-.4-2.53,1.46-4.32,2.51-5.82.83-7.96,1.19-13.04,4.05-20.69.57-1.52.49-4.16.85-5.95l1.16-5.79c.47-2.34.57-14.98.34-18.06-.42-5.66-4.57-14.31-5.15-16.25l-2.38-8.02c-.11-.36-1.55-.9-1.7-.58s-.13,1.05-.03,1.51l1.33,5.59c1.22,5.13,2.12,9.72,2.49,14.98.57,8.18,1.82,16.19-.3,24.3l-2.03,7.77c-1.14.84-3.49,1.55-5.18,1.57-1.94.03-3.32-1.77-3.24-3.21.32-5.36,3.77-.77,4.03-7.16.14-3.34,1.5-6.96,1.33-10.2l-.65-11.82c-.07-1.23-.33-2.67-.49-3.97l-1.19-9.8c-.4-3.33-1.59-6.93-2.57-10.15l-1.36-4.47c-.72-2.36-1.9-4.75-2.89-7.16-.91-2.2-2.44-3.97-3.79-5.93-1.6-2.32-3.44-4.72-5.93-5.98-.14-.64.29-2.18-.21-2.47l-1.93-1.15-.7-3.89c-.14-.77-2.07-1.23-2.65-1.85-1.18-1.25-2.61-3.35-4.3-3.02-1.96,3.18-4.56,6.08-6.26,9.06l-1.22,2.13-7.85,9.96c-1.44,1.83-3.64,3.39-4.91,5.27-2.45,3.6-4.89,6.77-7.61,10.04-2.08,2.51-7.74,10.41-11.02,9.2-1.68-.62-4.58-1.37-5.96-.08.09,2.57.3,5.25.78,7.54l1.02,4.91,1.15,3.52c.65,1.98.67,4.44.83,6.62.23,3.09.8,5.73,1.34,8.72,1.86,10.1,1.38,8.73,1.12,18.76l-.29,11.03c-.06,2.47-.38,4.66-.64,7.16l-.71,6.7c-.42,4.01.25,8.35-1.24,12.22-.83,2.17-.95,4.03-1.36,6.47l-2.61,15.52-.79,4.32c-.68,3.75-2.24,7.63-2.55,11.35-.27,3.21-1.03,5.42-1.9,8.42l-2.98,10.26c-.89,3.06-1.83,5.86-2.64,8.91l-1.39,5.24c-1.21,4.57-3.52,9.62-2.26,11.37,5.89-5.28,3.54-4.89,9.04-9.17,1.66-1.29,3.23-2.45,4.68-3.87l3.74-3.68c2.62-2.58,5.29-4.76,8.13-7.2,2.34-2.01,4.52-4.59,6.8-6.83l4.82-4.75,5.82-6.14c1.78-1.88,3.54-3.59,5.49-5.32l9.77-8.69ZM369.43,261.23c-1.66.76-1.23,6.57.9,5.7,1.51-.6.97-6.56-.9-5.7ZM743.02,267.98c-.32-.16-1.29-.37-1.68-.21l-6.82,2.76c-1.3,1.69-2.64,3.87-3.83,5.87,1.18,1.23,13.98-7.59,12.34-8.42ZM750.37,789.97l5.61-2.06,8.51-2.94c4.62-1.6,9.15-2.2,13.8-3.42l7.02-1.85,6.77-1.51c2.51-.56,5.72-3.25,8.49-2.02,3.77,1.68,3.13.08,11.64-1.8l4.6-1.02,7.32-1.32c1.82-.33,4.02-.75,5.71-.94l15.83-1.85,8.06-1.13c5.09-.71,10.54-.21,15.7-.05l4.67.15c3.14.1,5.9.14,9.11.01,9.17-.35,3.26,1.92,12.18.67,3.45-.48,7.7.58,11.36.98,2.44.27,4.54.03,7.07-.07,9.38-.35,7.1,2.86,14.73,2.01,3.63-.4,6.95.95,10.22,1.28,2,.2,3.73.33,5.92.83,1.33.31,5.85-.4,6.65-1.78.87-1.5-5.65-2.54-7.42-2.24l-2.27-4.28c-2.52-.22-4.57-.46-6.91-1.38-3.8-1.48-2.88,2.1-6.23-.39-2.45-1.82-5.98-1.45-8.98-1.85l-10.67-1.42c-1.6-.21-4.01-2.48-5.68-2.47-2.28.02-3.93-.02-5.72-.64-6.43-2.24-14.05-2.23-23.11-5.47l-15.47-5.53c-7.16-2.56-5.1-4.38-8.83-3.68-1.26.24-2.86-.75-4.03-1.16l-5.69-1.98c-2.84-.99-5.3-2.54-7.99-3.83l-10.55-5.07c-2.73-1.31-5.51-2.81-8.16-4.27l-12.13-6.7c-2.36-1.31-4.55-3.82-7.29-5.21l-5.27-2.66c-1.83-.92-3.48-3.13-5.41-3.96-2.05-.88-7.73-4.88-9.23-6.94-3.29-2.71-6.93-1.82-8.02-4.8-.59-.6-2.35-1.44-3.22-1.78-3.04-1.18-5.48-2.8-8.34-4.25l-6.13-3.12c-.93-.47-2.47-1.76-3.36-2.09-2.1-.78-4.62-1.66-6.67-2.53l-8.11-3.41-8.38-3.23c-3.83-1.48-7.79-5.13-12.52-4.14-5.55,1.17-7.84,3.96-12.19,6.75-.81-.19-5.78,2.03-5.71.26l.21-5.65c1.29-.42,2.7-1.3,2.33-1.86l-1.35-2.09-2.31-4.53c-1.96.61-3.47-1.69-4.7-1.87l-4.64-.67c-1.7-.25-4.29-1.66-5.79-1.76-2.98-.2-5.41.46-8.21-.81-1.33-.6-3.61-.23-4.97-.45l-10.55-1.74c-7.2-1.18-13.83-2.81-21.26-2.54l-4.55-1.6c-3.67.8-7.11,1.05-10.85,1.49-1.91.22-3.61.62-5.6.45l-8.58-.72c-2.1-.18-13.1,1.38-15.96,1.79l-8.11,1.18c-2.48.36-5.39,1.46-7.74,1.56-3.26.14-5.64.82-8.85,1.64-2.5.64-6.38-.15-8.32,2.61-1.82.35-4.95.41-6.3,1.48l-5.94,4.7-4.48,5.55-8.64,7.31-5.06,4.53c-2.36,2.11-4.26,4.49-7.35,5.86-1.33.59-2.48,2.28-3.57,3.07-2.56,1.83-5.17,3.39-7.49,5.63-1.89,1.83-4.14,3-6.09,4.73l-6.59,5.85c-1.65,1.46-3.63,2.27-5.37,3.7l-10.5,8.59c-1.79,1.46-3.31,2.11-4.77,4.05-.87,1.16-3.21,2.02-4.31,2.99-2.44,2.16-4.71,3.86-7.1,5.97l-14.99,13.24c-1.77,1.56-3.85,2.65-5.31,4.47-2.78,3.47-6.31,5.41-9.86,7.89-1.89,1.32-3.14,4.14-5.42,5.22-2.01.95-2.21,3.2-3.36,4.75-1.74,2.33-5.11,3.67-6.75,6.16-1.48,2.26-3.31,3.88-5.03,5.81-1.56,1.76-2.86,3.42-4.65,4.97l-12.73,11c-1.31,1.13-2.95,2.05-4.08,3.42-2.56,3.09-12.8,12.26-15.96,11.14-3.92-1.38-7.66-2.14-10.68.89-2.33,2.33-5.14,4.34-7.93,6.2-2.34,1.56-4.44,1.25-7,.3-1.3-.48-2.92-.91-3.1-2.18-.12-.85.72-2.73,1.55-3.11l7.03-3.19c2.08-.94,4.11-1.25,4.81-3.94l4.81-1.77c1.75-2.18,3.24-3.91,5.3-5.6,11.96-9.82,5.3-5.35,10.23-11.93,1.42-1.9,2.97-3.4,4.71-4.88l6.43-5.48c3.53-3.01,2.05-5.19,9.43-9.79.37-.23,2.39.04,2.26.46l-.52,1.62c-1.32,4.08,3.5-1.32,6.11-2.69,4.79-2.52,8.58-6.37,11.13-10.66.82-.53,2.81-1.33,3.49-2.14l10.36-12.46c1.27-1.53,2.38-3.78,3.9-5,2.04-1.65,2.87-3.5,4.57-5.44l6.51-7.44,4.88-6.58,4.69-5.34,5.84-8.41,2.7-4.21c1.71-2.67,3.48-4.97,5.48-7.56.97-1.26,1.6-4.07,2.77-5.07,2.01-1.72,4.04-3.23,4.48-6.1-.72-.61-2.95-.47-3.98.05-.75.38-.65,2.39-.75,3.5l-5.02,3.81c-2.02,2.69-3.47,5.73-7.51,5.8.26-4.41,5.46-9.7,5.76-10.15,2.87-4.31,5.34-8.35,10.22-11.02,1.22-.67,2.47-2.97,3.24-4.06,2.56-1.64,4.72-3.68,6.4-6.65l5.69-1.62c.61-.17,2.45-.22,2.7.31l1.08,2.27c.43.9,2.05,3.11,1.22,3.97-1.74,1.8-3.88,2.74-5.92,3.85l-1.9,4.32c-1.42,1.86-2.16,3.38-3.3,5.38-.95,1.66-2.72,3.45-3.84,5.18l-2.92,4.51-3.4,5.12c-1.14,1.71-2.11,3.14-2.9,5.06-1.44,3.5-4.38,6.32-6.33,9.38-1.66,2.61-2.46,5.68-5.75,6.66l-.98,3.21c-.99.43-9.91,10.16-6.73,9.49,1.63-.35,7.61-5.86,8.83-7.3,3.38-3.99,6.71-6.8,10.43-10.26l3.54-3.29c1.42-1.32,2.76-4.6,4.39-5.54,3.3-1.92,2.91-5.76,4.77-7.96,2.56-3.03,6-5.37,8.44-8.7,1.9-2.6,4.18-4.88,5.9-7.65,2.48-3.98,4.81-7.91,7.65-11.56,1.22-1.56,2.99-2.91,4.02-4.56,1.47-2.34,2.79-4.91,4.38-6.95,2.34-3.01,4.29-5.63,5.88-9.1,6.11-13.34,6.66-9.99,8.48-12.84l5.14-8.05c1.72-2.7,3.06-5.18,4.49-8.07,3.22-6.51,4.44-5.11,8.07-11.21l5.94-9.99,4.22-5.75c1.56-2.12,2.5-4.71,4.12-6.72,1.42-1.76,2.83-3.39,3.77-5.41,1.37-2.97,2.93-5.55,4.56-8.34,1.77-3.03,3.2-6.41,5.12-9.2,1.16-1.69,1.89-2.87,2.63-4.79,1.91-4.97,4.82-10.54,7.78-14.92.4-.59,2.45-9.08,4.72-12.81,1.36-2.24,3.05-3.95,3.95-6.36,1.75-4.66,3.47-9.1,5.62-13.62l2.7-5.68,5.64-12.85c.38-.87,2.91-9.43,3.22-10.75l1.65-6.93c1.8-7.55,5.01-14.07,8.47-21.02l2.45-4.92,5.4-13.58,2.97-6.19c3.1-6.46,1.49-4.58,4.4-11.98.44-1.11,1.81-2.76,2.19-3.88,1.57-4.67,3.58-8.64,5.53-13.13.86-1.97.89-4.96,2.21-6.86.24-.79.49-2.75.86-3.53l2.53-5.31,4.27-9.31,3.25-6.5c.7-1.41,1.79-3.37,2.68-4.5,4.43-5.65-.76-.62,5.83-9.51,1.27-1.71,2.48-3.31,3.23-5.3,1.19-3.14,2.8-5.82,4.27-8.77,5.08-10.18,7.01-11.33,12.85-20.53,1.01-1.59,1.37-2.28,2.96-3.57,1.98-1.61,5.58-7.98,11.72-13.76,3.57-3.37,6.27-7.31,9.44-10.84,3.99-4.45,6.71-7.69,10.07-12.99-2.19.02-2.76,1.42-4.09,2.31-2.17,1.47-4.21,2.9-5.97,4.83s-4.42,2.01-6.39,2.99l-10.59,5.23c-2.29,1.13-4.33,3.21-6.52,4.67-2,1.33-4.31,1.23-6.27,2.52l-4.91,3.22c-3.38,2.22-6.66,3.63-10.38,5.05l-5.72,2.18c-1.96,1.94-3.51,2.45-5.81,3.51l-5.37,2.48-11.15,5.47-5.92,4.02-4.17,2.23c-1.76.94-3.63,2.67-5.48,3.32s-2.97,1.35-4.44,2.45l-8.86,6.61-4.81,2.56-13.38,10.46-8.62,6.88c-1.31,1.04-1.49,2.67-4.17,2.18l-6.67,6.39c1.35-1.29-11.17,8.02-10.77,7.72l-7.15,5.37c-3.6,2.7-7.83,5.75-11.95,7.63-1.68.77-3.36,3.18-5.06,4.3-2.14,1.4-4.27,3.18-6.34,4.29-3.75,2.02-7.27,3.38-10.37,6.37-1.47,1.42-3.55,2.24-5.24,3.33l-7.92,5.1c-6.79,4.37-14.4,7.72-18.86,10.57l-5.93,3.79c-3.03,1.94-5.72,4.07-8.72,5.95l-7.62,4.77-9.6,5.08-9.07,4.05-10.18,4.79c-1.3.61-4,.8-5.08,1.61-2.2,1.64-3.99,2.88-6.35,3.97-3.41,1.57-6.25,3.9-9.43,5.79l-7.88,4.68c-1.76,1.04-4.08,3.16-5.74,3.58-3.54.9-3.52,2.9-4.94,5.4l-6.71,11.74-3.62,2.61c-.48.35-1.66.45-1.95-.02-1.9-3.16,5.07-4.49,4.07-10.42-1.34.28-2.54,1.52-3.79,2.49-6.81,5.32-10.64,11.12-15.47,14.12-2.33,1.45-2.74,4.75-4.07,6.69-1.07,1.56-1.74,2.7-2.37,4.56-1.33,3.93-5.17,14.5-8.3,16.49-1.95,1.24-5.09.83-7.49.26l-.02-4.62c0-.53.09-1.06-.14-1.1s-1.28-.04-1.44.14l-4.11,4.64c-1.38,1.56-2.6,3.09-2.39,5.12.35,3.44-1.57,4.49-3.71,6.47-4.42,4.09-5.72,7.42-10.39,9.42-5.6,1.04-10.56,5.78-14.23,9.75l-8.66,9.39c-1.19,1.29-2.27,2.67-3.7,3.67-2.04,1.43-2.56,3.58-3.89,5.53-.94,1.38-3.99,2.09-4.6,4.26-1,3.56-4.15,4.84-6.35,7.28-1.23,1.36-1.79,4.16-3.71,5.33-.7.43-1.41,2.23-1.13,2.94.74,1.85,2.35,1.11,4.08,2.71.38.35.11,1.87-.11,2.34-4.39,9.25-3.34,3.37-7.07,8.78-3.73,5.42-6.08,2.95-14.27,13.01-2.25,2.76-5.27,8.52-6.18,11.95-.85,3.2-1.62,6.59-4.67,8.47-1.57.97-3.54-1.4-4.77-1.81-2.91-.97-3.6,2.75-4.74,4.27-1.31,1.76-2.12,3.39-3.22,5.35-1.02,1.81-3.64,3.06-4.15,5.36-.68,3.1-1.98,5.65-3.74,8.34l.44,4.85c-7.21,3.1-4.8,5.56-8.12,14.5-.28.76-2.09,10.48-1.59,12.02l2.86.57c.48.1.48,1.44.07,1.71-.48.31-1.56.79-2.03.64s-.54-1.3-.71-2.54l-1.15-.07c-1.52,1.32-3.5,2.28-5.77,1.44l.93-5.27c.1-.59-.13-1.75-.65-1.93-1.56-.55-2.42,2.04-4.56,4.8-2.03,2.61-3.7,4.97-5.42,7.74-1.19,1.92-1.43,3.92-1.79,6.18l-1.99,12.52c-.31,1.96-.39,4.42-.38,6.37l.04,16.96c.01,4.58.16,8.84-.17,13.56-.09,1.26.42,3.51.77,4.92.62.65,2.42-.64,3.21-1.29l4.74-3.86c1.98-1.61,3.45-4.65,6.56-4.46,2.22.13,3.64-.65,5.74-1.75,1.98-1.04,5.23-.29,6.49-2.8,3.82-7.61,6.48-.77,15.24-9.69,7.15-1.32,6.39-3.4,12.61-5.4,3.15-1.01,5.67-2.62,8.59-4.06,4.28-2.11,9.21-2.95,13.83-4.38,3.35-1.03,7.07-1.5,10.55-1.21,2.31.19,3.85,1.82,5.05,3.37,1.96,2.54,3.81,5.08,2.67,8.39s-1.73,6.92-2.56,10.61c-.34,1.5-2.18,3.86-2.79,5.47l-1.63,4.32c-1.02,2.71-3.17,5.84-3.36,8.63,2.13.98,3.89,2.23,4.4,3.85.7,2.22-1.3,3.94-1.76,5.65-1.73,6.29-4.86,10.78-8.55,15.91-2.7,3.75-5.95,15.4-9.09,18.93-.56.63-1.34,2.23-1.05,2.93.25.6,1.88,1.06,2.37,1.59,1.44,1.54,3.14,2.6,5.61,2.34l7.87-.82,11.87-1.16c1.4-.14,2.8-.02,4.28.06,7.66.45,19.36-5.72,32.73-2.31,1.88.48,4.92,2.55,6.52,3.8.8.63.88,3.23,1,4.22.57,4.68-2.52,5.45-.78,6.17,1.24.51,6.17-2.82,7.01.49.37,1.44,1.17,3.13,2.01,4.36-.6,2-1.36,4.76-2.15,6.91-2.83,7.7-12,13.66-10.62,17.91,3.46-.46,5.61-.5,8.51-.06,2.24.35,5.54-.28,7.56.5,2.91,1.13,6.65,2.35,9.95-1.02.67-.68,3.16.14,3.21,1.08s-.5,2.49-.98,3.75l4.42,1.45c2.48-1.75,5.63.02,8.19.33l10.67,1.31c1.11.14,3.39-.56,4.34-.16,4.38,1.88,8.23,2.66,12.84,2.31l7.04-.54,1.99-3.62,4.95,3.34c.81.55.58,3.23-.05,3.97-.56.66-1.92,1.4-2.99,2.03-.58.34.23,2.3.89,2.28,6.41-.21-2.35-1.02,8.64-.12l15.87,1.29c2.01.16,5.08-.44,7.11-.73l6.96-.98c3.52-.49,7.04-2.1,10.44-2.86s5.81-1.41,8.83-2.69l6.88-2.93,4.05-2.24,5.14-2.84c1.11-.61,2.98-1.44,4.21-.8.76,2.8.06,6.02-.72,8.82-.52,1.87-1.11,2.46-2.92,2.9l-10.89,2.7c-3.79.94-7.31,2.75-11.33,2.94-1.07.05-2.46.18-2.71.83-.31.8,0,2.6.68,2.47,2.47-.45,4.7-.1,6.63-.2l9.59-.5,8.48-.26,5.09-1.35c2.29-.61,4.9-.37,7.09-.99,3.08-.87,5.99-1.02,8.99-1.17,1.09-.81,2.73-1.79,4.4-1.85,3.29-.13,6.08-1.59,9.23-2.53,2.63-.79,6.32.54,8.75-.46,3.21-1.32,6.36-1.54,9.53-2.52s10.97-5.35,13.69-6.6l6.66-3.06c3.28-1.51,5.93-3.33,9.35-4.45l7.26-2.36,8.1-2.58c2.65-.84,5.19-1.04,7.98-1.71l5.38-1.31c1.47.18,4.05,2.82,4.07,4.56.07,5.52-8.29,4.33-12.15,5.11-1.9.38-10.66,3.1-12.92,3.82l-6.63,2.13c-1.16.37-2.26,1.43-1.82,2.81l14.42-3.35c1.53-.36,2.98-.78,4.59-1.08,5.61-1.03,10.82-3.09,16.31-4.51,2.64-.68,5.05-1.25,7.67-2.15,4.17-1.42,8.43-3.05,12.6-4.14,3.9-1.02,6.61-2.25,10.04-4.38,1.62-1.01,4.74-1.2,6.61-2.56,3.69-2.67,9.37-4.23,12.29-5.95,1.97-1.17,3.52-2.06,5.5-3.06l15.1-7.61c1.93-.97,3.63-2.09,5.67-2.8,10.49-3.65,5.45-2.73,13.18-6.23s7.58-4.42,15.02-7.66c4.2-1.83,6.79-2.2,8.88-3.53,5.4-3.43,10.77-5.95,16.77-8.19,1.99-.74,4.15-2.79,6.11-3.26,3.1-.74,5.56-1.54,8.59-2.65ZM382.59,288.51c1.58-3.99.42-7.96-3.15-8.71.55,2.68.99,4.63,1.17,7.11.06.9,1.63,2.48,1.98,1.6ZM216.67,285.49c.3-.39.5-1.94.01-2-.36-.04-1.53-.03-1.85.15-.8.43-1.46,2.67-.93,3.58.6.42,1.96-.66,2.77-1.73ZM212.48,293.51c2.24,0,2.44-3.98.56-3.82-1.38.12-1.77,3.82-.56,3.82ZM170.3,367.15c3.3,1.18,3.5-1.58,4.74-3.06l3.65-4.33c2.31-2.74,3.8-5.43,5.95-8.39l3.51-4.83c1.96-2.7,2.9-6.03,4.96-8.61,1.87-2.33,2.87-4.77,4.18-7.33l2.7-5.26c3.72-7.25,1.92-5.53,6.2-14.12.85-1.7,7.17-14.83,5.37-16.1-1.99,1.41-2.2,3.23-3.23,4.72-3.89,5.62-3.41,7.67-5.61,11.47l-8.31,14.4-2.35,4.01c-.61,1.04-1.18,3.32-1.83,4.27-1.35,1.95-3.39,3.76-4.19,6.01-1.52,4.23-3.93,7.54-6.26,11.2-4.07,6.39-4.75,9.58-9.49,15.95ZM625.66,319.13c-2.77-.17-4.69,1.52-6.21,3.7,2.75.75,5.55-.99,6.21-3.7ZM390.71,370.74l1.34-19.76c.11-1.69-.82-3.73-.78-5.18l.38-13.37-1.05-9.1c-.07-.59-1.93-.76-1.93-.24v2.01s.17,10.05.17,10.05l-.94,9.89.33,5.54.69,10.12c.17,2.53-3.36,10.4,1.79,10.04ZM494.82,390.38c3.67.15,5.95-2.01,8.56-3.46l9.97-5.51c2.51-1.39,4.6-2.77,7.21-4.14,6.01-3.14,11.31-7.27,17.43-10.48l5.76-3.02c1.96-1.03,3.52-2.14,5.57-3.11,5.05-2.38,12.22-7.62,16.49-9.87,2.85-1.5,5.23-2.92,7.97-4.59l5.39-3.27c1.16-.7,3.02-1.56,3.76-2.41,5.13-5.88,2.08-.19,9.25-6.9,2.91-2.72,5.82-2.99,6.99-5.59.12-.27-1.04-1-1.34-.89l-8.95,3.42-6.4,1.82c-2.1.6-3.91,1.23-5.81,2.24-4.17,2.22-8.28,3.64-12.71,5.62-1.8.8-4.13,3.92-4.76,5.64-.77,2.11-1.16,3.64-2.76,4.89-1.8,1.41-3.51,3.09-5.28,4.29l-4.41,3c-8.56,5.82-6.15,2.77-14.03,8.07-3.62,2.43-11.84,8.28-15.2,9.9-4.6,2.22-8.6,4.7-12.76,7.59-3.26,2.27-6.72,3.98-9.92,6.75ZM648.76,399.78c1.73,2.02,5.31-8.55,7.74-12.6,3.31-5.51,6.91-12.43,9.42-18.39.59-1.41,1.61-2.98,2.12-4.4.73-2.05,2.02-3.37,2.96-5.07l5.32-9.61c1.94-3.51,3.81-7.22,5.61-10.89,0,0,3.96-4.61,2.08-4.31-4.29.68-5.35,6.89-6.64,8.87l-4.78,7.31-3.82,8.05c-1.76,3.71-5.15,6.11-6.35,10.33-.62,2.17-2.34,4.43-3.27,6.61-2.14,5.01-2.25,2.23-5.36,10.51-.68,1.82-1.18,2.94-3.24,3.1.75,5.12-2.47,5.25-1.79,10.49ZM393.08,466.66c-.18.31-.06,1.9.24,1.81s1.2-.42,1.48-.78c1.42-1.81,4.57-3.64,7.06-5.14l13.04-7.87c2.55-1.54,5.12-2.5,7.73-4.16,1.89-1.2,4.38-1.73,6.47-2.76l9.1-4.49c7.71-3.8,15.48-7.05,23.01-11.49,1.51-.89,2.67-1.86,4.16-2.76l8.11-4.89c4.92-2.97,8.73-6.87,13.97-9.4l5.52-2.66c1.27-.61,3.08-2.04,4.42-2.85l7.34-4.46,6.6-4.24,6.33-3.98c1.88-1.19,3.7-2.64,5.72-3.72,4.44-2.37,8.33-5.17,12.35-8.17l5.83-4.35,11.93-8.58c2.12-1.52,4.54-3.87,6.63-5.04,1.97-1.11,2.78-.48,3.92-2.69,2.25-4.38,10.28-5.16,8.76-9-3.3,1.68-5.89,2.93-8.87,3.93-2.61,2.13-5.32,3.87-8.56,5.19-1.31.54-2.55,2.22-3.86,2.86l-10.68,5.2c-2.67,1.3-5.14,3.26-7.5,5-3.37,2.48-6.67,4.25-10.32,6.26l-4.71,2.6-14.82,8.45-5.91,3.35-6.99,4.21-8.33,4.72-6.14,3.47-5.88,3.32c-1.93,1.09-3.38,3.08-6.19,2.73l-3.16,2.96c-2.68.95-4.41,2.21-6.59,3.61s-5.08,2.12-6.79,4.39c-5.87,3.33-11.83,6.65-17.18,10.97l-5.4,4.35c-2.17,1.75-4.34,3.09-6.58,4.88l-9.68,7.73c-1.58,1.26-3.49,2.16-5.28,3.27-1.39.86-2.6,1.96-3.96,2.92-1.93,1.36-5.23,3.38-6.34,5.32ZM468.25,396.96c-.2.38-.2,1.64.14,1.67,2.5.25,2.57-1.58,6.68-3.89l3.8-2.14c5.06-2.85,9.27-6.65,14.26-9.43l6.33-3.52,4.67-3.32c2.92-2.07,8.62-6.02,11.66-7.59l3.67-1.89c.43-.22.33-2.12-.15-2.21-2.7-.51-.93,2.23-5.7,2.94-1.57.23-2.79,1.56-3.97,2.16-1.78.9-3.4,1.28-4.34,3.17-2.02.2-3.62,1.05-4.48,3l-3.76,1.24-7.87,5.36-3.76,2.92-5.96,4.35c-5.85,4.27-9.8,4.45-11.23,7.18ZM135.07,422.7l-2.71,4.48c1.32,1.32,3.2.32,3.99-1.17s2.52-2.49,3.46-3.95l5.09-7.91,3.49-4.5c2.98-3.85,5.74-7.49,8.3-11.58,1.35-2.16,4.45-3.73,3.01-6.89l-6.81,5.28c-1.45,1.12-1.99,1.9-2.85,3.63-1.11,2.24-3.36,4.33-4.64,6.51-1.2,2.04-2.2,3.69-4.15,4.99l-.85,2.49-2.75,3.72c-1,1.35-1.63,3.33-2.58,4.9ZM418.95,435.03l3.66-2.24c1.86-1.14,4.4-3.3,5.89-4.64.49-.44,2.52-.7,2.38-1.28-.48-1.91-2.09-3.95-3.52-4.16-.58-.09-1.49.98-2.16,1.29-2.55,1.19-5.83,2.08-7.63,4.31l-3.06,3.79-.86,3.55-5.3,5.5c.74.48,1.85.85,2.23.5,2.99-2.79,4.63-4.31,8.38-6.61ZM587.03,591.82c-.32.56-4.12,10.03-.68,8.18.46-1.49,1.35-3.15,2.39-4.38l3.99-4.66c1.08-1.26,2.41-2.19,3.04-3.77.68-1.72,2.07-2.8,3.07-4.17l4.36-5.98,5.54-8.12c2.1-3.08,5.56-9.21,6.76-13.11l4.01-13.02,2.43-11.36c.58-2.69,1.59-4.86,2.28-7.44,1.85-6.95,3.84-13.64,5.3-20.74l2.68-13.01c.62-2.99.9-6.27,1.72-9.23,2.46-8.92,1.94-13.8,6.02-21.24-.16-8.19,2.67-9.31,4.35-16.69-.45-3.82.89-7.66,1.6-11.58l1.28-7.06c-.16-.09-1.73-.27-1.93.14l-.88,1.77-3.76,8.22c-1.15,2.51-2.18,4.15-2.62,7.32-.24,1.71-3.29,3.35-4.1,4.96-.91,1.82-.53,4.96-1.52,6.52-4.27,6.68-3.56,6.28-6.47,12.38l-2.25,4.7c-1.02,2.13-2.23,4.31-2.77,6.66-1.94,8.47-4.38,3.45-7.77,18.22-2.46,10.75-3.53,5.1-3.82,16.27-.01.54-1.37,1.38-1.88,1.64-.44,3.37-.53,7.79-2.09,10.92-3.54,7.1.12.12-2.63,10.31-1.75,6.48-3.69,2.87-4.01,7.25-.35,4.91-2.62,19.5-3.83,24.11l-1.51,5.78-1.77,6.3c-2.75,9.76.27,5.5-4.55,13.92ZM200.27,680.28c.26.76,2.66,1.11,3.21.66s1.08-1.32,1.6-2.37c4.45-8.98,2.94-2.96,8.52-12.59,1.25-2.16,3.27-4.18,4.9-6.29,1.28-1.64,8.86-16.18,11.7-19.35,2.46-2.74,3.9-4.71,5.55-7.82,2.02-3.8,6.43-6.66,6.88-11.46,3.34-1.53,5.3-3.91,6.09-7.16,3.02-2.23,5.18-4.96,7.31-8.08l4.06-5.96c1.71-2.51,2.44-4.36,5.29-5.83,1.72-.89,2.1-4.64,3.5-5.9,2.89-2.6,5.19-4.97,7.67-7.77,2.8-3.18,6.04-5.98,7.55-9.94,3.51-2.23,6.06-4.9,8.73-7.9,2.91-3.27,6.1-6.31,9.33-9.25,6.03-5.49,2.14-3.48,9.25-9.63,2.34-2.02,4.49-4.72,6.87-6.52,1.87-1.42,4.57-1.6,4.03-5.03-2.43.54-4.27,2.08-6.24,3.75l-7.98,6.78-5.43,4.78-4.43,4.23c-2.61,2.49-4.89,5.83-7.55,8.08-3.37,2.85-5.77,5.51-8.33,9.03-1.52,2.09-4.38,3.09-5.4,6.06-.78,2.26-4.43,3.59-5.66,5.35-2.13,3.07-4.21,5.91-6.6,8.81l-2.83,3.44-5.09,6.4-7.16,8.52c-1.45,1.73-4.79,2.17-4.46,5.35-2.09,1.98-4.13,4.19-5.68,6.67-3.03,4.86-7.02,8.36-10.56,12.82l-6,7.57c-5.33,6.73-6.38,6.84-9.55,13.96-1.21,2.72-4.56,4.77-5.97,7.41-1.48,2.77-2.8,4.91-5.38,6.67l-1.12,3.64c-.76,2.48-1.52,6.23-.64,8.86ZM513.69,671.73l4.52-3.61,11.44-9.15c4.07-3.25,4.55-6.18,12.83-12.61l4.48-3.47c.38-.29,7.27-7.01,6.91-6.56,3.48-4.35,6.71-8.33,10.38-12.35,3.58-3.93,5.14-8.68,7.51-13.16l1.69-3.2,2.55-5.99c1.24-2.91,2.98-5.97,3.99-8.94,2.03-6.02,3.13-12.22,4.59-18.45l2.16-9.22c1.82-5.06.56-6.67,2.23-12.37.83-2.85,1.69-5.51,2.67-8.23.67-1.85,1.4-3.3,1.4-5.47,0-3.35,4.62-3.73,3.06-5.1-.4-.35-1.33-.93-1.81-1.14-1.23-.54-.44,2.09-2.78,6.47l-5.09,9.54c-.29,1.58-.98,2.73-1.66,4.18l-2.21,4.72c-1.53,3.26-3.77,5.82-5.19,9.07-1.71,3.92-3.59,7.56-5.62,11.37-1.6,3-3.75,5.63-5.64,8.53-.52.81-1.13,2.61-1.79,3.27-4.15,4.14,1.25,6.15.04,8.22l-1.39,2.36c-1.05,1.79-2.04,3.11-3.24,4.66l-8.14,10.58c-1.61,2.09-3.06,3.97-4.96,5.94-1.43,1.49-2.45,3.7-3.77,5.37-1.25,1.59-1.87,3.42-2.9,5.1-3.35,5.43-7.45,10.23-11.06,15.48l-5.99,8.72-3.92,5.26c-2.08,2.79-3.85,5.83-6.39,8.28-.65.62-1.1,1.21-1.09,1.75,0,.4,1.81.45,2.2.14ZM635.13,647.25c9.06-.55,11.57.97,12.84.95,2.52-.06,5.26.24,7.8.55l8.77,1.08c3.75.46,9.29,3.69,15.46,1.26l7.45-2.93c2.89-1.14,8.08-6.44,8.88-7.76,1.61-2.66,2.97-4.62,4.5-7.13l4.09-6.72c2.17-3.56,7.9-10.21,10.87-12.31l6.4-4.51c7.94-5.59,3.06-1.26,10.23-6.17,1.04-.71,2.89-2.12,2.26-3.3-2.16-4.05-6.23-5.5-9.36-8.07-1.89-1.56-3.61-3.12-5.74-4.4-7.96-4.78-11.05-7.64-17.92-13.22-1.06-.86-3.62-2.15-4.85-2.53l-12.16-3.77c-2-.62-4.49-1.05-6.7-1.23l-6.43-.52c-.61-.29-1.64-1.71-2.25-1.52l-2.3.73c-2,.64-4.33.76-6.41.88l-9.77.54c-2.83.16-4.89,1.46-7.21,3.33l-4.64,1.33c-1.74,2.07-3.68,2.71-6.08,3.88l-5.83,2.85c-3.65,1.78-6.63,3.18-9.81,5.82-1.51,1.25-5.24.45-7.23.15-2.01-.3-2.47,1.73-3.47,2.77l-10.67,10.94-2.3,3.83c-.89,1.48-2.48,2.57-3.71,3.69-4.03,3.65-4.47,5.68-8.03,10.36-1.54,2.03-3.32,4.11-5.04,6.11l-5.28,6.11c-3.44,3.97-6.55,7.81-9.46,12.19l-4.96,7.48c-.53.8-2.33,2.59-.98,3.16,2.47-.12,5.41-.03,7.61-.52,5.32-1.19,10.17-1.73,15.42-2.41l12.15-1.58c2.42,2.38,5.17.97,7.91,1.12,8.15.45,13.81-.57,23.79-.15,1.77.07,3.41.19,5.13.09l7.01-.43ZM626.01,570.39c.49.65,3.11.08,3.4-.72s.66-1.96.86-2.62c-2.5,0-4.69,1.03-4.26,3.34ZM715.22,629.34l4.49-3.24,6.32-4.46c3.88-2.74,15.74-8.56,12.11-13.49l-8.87,5.45-4.47,3.27c-1.89,1.38-3.17,3.33-4.83,4.82l-3.91,3.52c-1.11,1-3.41,3.04-.85,4.14ZM706.67,659.42c5.51,1.27,9.47-.57,11.86-5.16,2.1-1.21,4.61-2.99,6.63-4.59l2.84-2.25c1.52-3.03,3.84-4.74,5.83-7.26l3.53-4.46c4.07-5.14,2.46-5.21,7.49-11.47l-.04-4.94c0-.79.26-1.93-.19-2.22s-1.85-.09-2.32.25l-4.03,2.88-9.74,7.71-5.23,3.84c-2.79,2.05-6.38,2.57-8.37,6.15-.68,1.22-3.38,2.26-4.43,3.3-1.2,1.18-2.51,2.83-3.78,3.39-2.97,1.3-4.43,2.97-4.96,6.21l-2.15,3.19,1.8,3.07c.53.9,1.21,1.95,1.85,2.54.55.51,2.55-.37,3.43-.17ZM131.28,646.53l-1.51-6.64c-.11-.5-1.43-1.46-1.69-1.02-.2.33-.48,1.42-.4,1.83l1.58,8.1c.13.66.72,1.82,1.08,2.67,1.2-1.16,1.42-2.78.93-4.94ZM840.92,725.06c-2.26-2.29-5.91-3.55-8.49-5.31l-5.14-3.49c-2.27-1.54-14.64-8.27-17.29-9.35l-6.47-2.63c-1.38-1.19-2.46-1.37-4.21-2.29l-4.95-2.62c-2.31-1.22-4.71-1.91-6.63-3.6-.59-.02-1.95.51-2.02.03-.51-3.98.57-.78-6.03-3.86l-5.03-2.34-5.91-2.64-5.93-2.51c-2.1-.89-4.55-1.72-6.71-2.4l-6.86-2.15c-.45.51.04,1.64.69,2.46,1.49,1.87,1.45-2.25,8.18,3.82,2.62,2.36,3.72,1.2,8.86,3.73,2.07,1.02,4.46,2.23,6.15,3.41,2.89,2.03,5.45,3.36,8.39,5.03l4.55,2.58c1.47.84,2.92,2.67,4.53,3.36s2.98,2.07,3.91,3.47c2.37-.84,21.72,12.65,21.04,12.38l6.4,2.55c-1.94-.77,15.42,7.53,15.04,7.33,1.7.88,2.92,1.65,4.68,1.39,1.34-.2,3.16-1.28,3.17-2.39l-3.91-3.96ZM302.16,833.84c-11.19-2.1-20.96,4.71-29.03-9.04-7.08-1.67-7.17-1.2-13.4-4.85-1.74-2.8-3.68-6.23-3.91-9.5l-.54-7.65c1.72-1.71,1.9-3.11,2.2-5.48l1.33-10.48c.16-1.23,1.43-3.33,1.86-4.35l2.53-6.04,2.61-6.56c.47-1.19,1.29-2.97,1.92-4.12l3.27-5.89,3.01-5.68c2.19-4.13,5.63-7.92,6.87-12.6,1.81-6.82,3.81-2.53,1.74-8.69-6.93-2.08-8.72,6.56-18.41,13.38-11.3,7.94-5.03,7.39-14.79,9.97-3.01.79-5.9,3.6-8.63,5.16l-3.69.45-5.05,1.95c-3.71,1.43-10.32,2.12-14.64,1.16-3.74,1.9-7.86,4.69-11.3,7.28-5.54,4.18-3.58,1.34-11.29,1.78-8.09-4.38-3.78-10.61-7.37-15.19l-4.26-.44,4.24-7.93c-1.39-5.96-.97-12.22-.32-18.54.25-2.49-.44-5.15.4-7.77.73-2.29.26-4.46.08-6.94-.1-1.46.22-3.44.26-4.95l.4-13.49c.04-1.35.17-2.37-.08-3.62-2.7,1.41-2.4,3.36-3.32,5.55-1.2,2.86-3.93,5.4-5.87,8.07-1.14,1.55-3.38,3.59-5.42,2.46-1.26-.69-2.58-1.6-3.79-2.43-.13-3.84,1.99-6.01,3.6-9.08l2.66-5.09c.14-.27-.18-1.32-.37-1.56s-1.02.2-1.23.47l-5.76,7.25c-.93,1.17-2.15,2.16-2.86,3.39l-2.14,3.72c-1.07,1.86-2.8,3.98-3.23,6.19-.8,4.11-1.02,8.38-2.8,12.09-.85,1.78-1.89,3.27-1.95,5.31s-.92,3.42-1.58,5.21c-.75,2.05-3.48,10.87-3.84,12.52l-3.57,16.28-3.65,21.06-2,10.29-1.63,11.36-1.14,9.08c-1.09,8.68.19,20.24,1.28,29.03.99,8.04-.12,10.06,2.06,17.28,6.88,22.83.37,7.2,11.16,26.81.28.51-.27,2.51.22,2.81s1.57.66,2.12,1.18l5.2,4.99c2.19,2.1,10.55,6.1,11.02,8.31l6.93,2.28c6.77,2.23,15.23-1.82,21.23-4.31,1.98-.82,3.53-.85,5.41-2.4,1.34-.89,10.31-3.03,11.92-4.39,4.52-3.82,9.81-5.49,15.81-7.08l4.24-1.12c2.69-.71,6.13.08,8.63-1.14l13.52-6.6,9.87-4.86c1.58-.78,3.55-1.77,4.85-2.88,2.75-2.34,6.14-3.07,8.98-4.86,3.62-2.28,6.88-4.71,10.61-6.77,4-2.21,7.4-5.05,10.93-7.78l9.3-7.18c2.12-1.64,4.84-2.68,6.94-4.56,2.66-2.37,8.56-5.6,7.15-8.01l-7.08.09-9.92-1.5c-2.7-.41-5.77-.31-8.49-.82ZM145.09,739.09c.31.54,2.45.43,2.46-.19l.03-3.09c-1.46-.63-3.12,2.19-2.49,3.28ZM909.43,749.38c-2.48-1.65-5.78-2.29-8.55-2.78-3.54-.63-6.82-3.25-10.42-3.63-2.82-.3-5.34-.41-8.01-1.06l-6.27-1.53-10.75-2.02c-.64-.12-1.83.26-2.15.7-.26.35.57,1.53,1.02,1.67l12.48,3.99,10.96,2.65,6.71,1.82,7.75,1.99c2.45.63,6.24,1.89,7.23-1.81ZM240.1,755.94c2.63-.71,3.88-2.15,5.93-3.9,1.3-1.11,3.83-1.06,4.9-3.15,1.95-3.8,9.3-2.43,7.01-6.53-.54-.96-2.94-.14-3.68.84-1.32,1.75-2.88,3.14-5,3.47-4.08.65-7.06,2.8-10.35,4.9-2.58,1.64-5.78,2.08-7.22,5.43,3.06.36,5.59-.31,8.42-1.07ZM918.1,753.71c.44.11,1.78-1.23,1.43-1.48s-1.27-.74-1.7-.81l-5.03-.85c-.39-.07-1.99.81-1.67,1.05.24.18.94.6,1.24.67l5.73,1.42ZM869.38,779.16c.36,0,1.18-1.07,1.04-1.4-.91-2.3-4.62-1.83-6.12-.08,1.28.77,3.85,1.47,5.08,1.48ZM220.48,909.05c2.64.09,5.67-.78,8.41-.85,4.56-.12,8.85-.48,13.28-1.71l11.13-3.09,7.07-3.57,7.78-3.21c1.27-.53,3.53-2,4.81-2.88l9.79-6.72c.56-.39,12.01-10.66,12.8-11.58l4.48-5.14,5.43-5.56c.61-.62.91-2.06.05-2.84-2.25,1.15-4,3.66-5.83,4.97l-6.05,4.32c-3.65,2.61-7.53,5.16-11.64,7.06l-6.9,3.19c-3.71,1.72-7.25,3.17-10.74,5.37-3.72,2.35-7.29,4.99-11.43,6.55-2.66,1-5.98,2.16-8.68,2.53l-7.45,1.03c-3.44.48-5.4,1.52-8.41,3.11-2.01,1.06-4.87,1.34-6.96,2.8-1.36.95-3.75,1.51-4.98,2.48-1.53,1.2-2.58,2.13-4.61,2.22-1.14.05-3.04,1.66-1.89,2.61,6.58.11,1.04-1.41,10.53-1.09Z"/>
  <path class="cls-1" d="M750.37,789.97c-3.02,1.11-5.49,1.9-8.59,2.65-1.96.47-4.13,2.52-6.11,3.26-6,2.23-11.37,4.76-16.77,8.19-2.09,1.33-4.68,1.7-8.88,3.53-7.44,3.23-7.55,4.27-15.02,7.66s-2.68,2.58-13.18,6.23c-2.04.71-3.74,1.83-5.67,2.8l-15.1,7.61c-1.97,1-3.52,1.89-5.5,3.06-2.92,1.73-8.59,3.28-12.29,5.95-1.87,1.35-4.99,1.55-6.61,2.56-3.43,2.13-6.14,3.36-10.04,4.38-4.17,1.09-8.43,2.72-12.6,4.14-2.63.89-5.03,1.47-7.67,2.15-5.49,1.42-10.7,3.48-16.31,4.51-1.61.3-3.06.72-4.59,1.08l-14.42,3.35c-.44-1.38.66-2.44,1.82-2.81l6.63-2.13c2.26-.73,11.02-3.44,12.92-3.82,3.86-.78,12.21.41,12.15-5.11-.02-1.74-2.59-4.39-4.07-4.56l-5.38,1.31c-2.79.68-5.33.87-7.98,1.71l-8.1,2.58-7.26,2.36c-3.42,1.11-6.07,2.94-9.35,4.45l-6.66,3.06c-2.72,1.25-10.68,5.66-13.69,6.6-3.16.99-6.31,1.21-9.53,2.52-2.43,1-6.12-.33-8.75.46-3.15.94-5.95,2.41-9.23,2.53-1.67.06-3.3,1.05-4.4,1.85-3,.14-5.91.3-8.99,1.17-2.19.62-4.8.38-7.09.99l-5.09,1.35-8.48.26-9.59.5c-1.93.1-4.17-.25-6.63.2-.68.12-.99-1.68-.68-2.47.26-.65,1.64-.78,2.71-.83,4.02-.19,7.54-2,11.33-2.94l10.89-2.7c1.81-.45,2.4-1.03,2.92-2.9.78-2.8,1.48-6.03.72-8.82-1.23-.63-3.1.19-4.21.8l-5.14,2.84-4.05,2.24-6.88,2.93c-3.02,1.29-5.58,1.97-8.83,2.69s-6.93,2.36-10.44,2.86l-6.96.98c-2.04.29-5.1.89-7.11.73l-15.87-1.29c-10.99-.89-2.23-.09-8.64.12-.66.02-1.46-1.94-.89-2.28,1.07-.64,2.43-1.38,2.99-2.03.63-.74.86-3.42.05-3.97l-4.95-3.34-1.99,3.62-7.04.54c-4.61.35-8.46-.43-12.84-2.31-.95-.41-3.23.29-4.34.16l-10.67-1.31c-2.57-.31-5.71-2.08-8.19-.33l-4.42-1.45c.48-1.26,1.03-2.8.98-3.75s-2.54-1.77-3.21-1.08c-3.3,3.37-7.03,2.15-9.95,1.02-2.01-.78-5.31-.15-7.56-.5-2.89-.45-5.05-.4-8.51.06-1.38-4.26,7.79-10.21,10.62-17.91.79-2.15,1.55-4.91,2.15-6.91-.84-1.23-1.64-2.92-2.01-4.36-.84-3.3-5.77.03-7.01-.49-1.74-.72,1.35-1.49.78-6.17-.12-1-.2-3.6-1-4.22-1.6-1.25-4.64-3.32-6.52-3.8-13.37-3.41-25.07,2.76-32.73,2.31-1.49-.09-2.89-.2-4.28-.06l-11.87,1.16-7.87.82c-2.47.26-4.18-.8-5.61-2.34-.49-.53-2.12-.99-2.37-1.59-.29-.7.49-2.3,1.05-2.93,3.14-3.53,6.4-15.18,9.09-18.93,3.69-5.13,6.82-9.61,8.55-15.91.47-1.7,2.46-3.43,1.76-5.65-.51-1.62-2.26-2.86-4.4-3.85.18-2.79,2.33-5.93,3.36-8.63l1.63-4.32c.61-1.62,2.46-3.97,2.79-5.47.83-3.69,1.36-7.14,2.56-10.61s-.71-5.85-2.67-8.39c-1.2-1.55-2.74-3.18-5.05-3.37-3.47-.29-7.2.18-10.55,1.21-4.62,1.43-9.55,2.27-13.83,4.38-2.93,1.44-5.44,3.05-8.59,4.06-6.22,2-5.46,4.07-12.61,5.4-8.76,8.91-11.42,2.08-15.24,9.69-1.26,2.51-4.52,1.76-6.49,2.8-2.1,1.1-3.52,1.89-5.74,1.75-3.11-.19-4.58,2.85-6.56,4.46l-4.74,3.86c-.79.64-2.59,1.93-3.21,1.29-.35-1.42-.85-3.67-.77-4.92.32-4.72.18-8.97.17-13.56l-.04-16.96c0-1.95.07-4.41.38-6.37l1.99-12.52c.36-2.26.6-4.26,1.79-6.18,1.72-2.77,3.39-5.13,5.42-7.74,2.15-2.76,3.01-5.35,4.56-4.8.52.18.75,1.35.65,1.93l-.93,5.27c2.27.84,4.25-.12,5.77-1.44l1.15.07c.18,1.24.24,2.39.71,2.54s1.55-.34,2.03-.64c.42-.27.41-1.61-.07-1.71l-2.86-.57c-.5-1.54,1.3-11.26,1.59-12.02,3.32-8.94.91-11.4,8.12-14.5l-.44-4.85c1.76-2.7,3.06-5.24,3.74-8.34.51-2.3,3.13-3.55,4.15-5.36,1.1-1.97,1.91-3.6,3.22-5.35,1.13-1.52,1.82-5.24,4.74-4.27,1.23.41,3.2,2.78,4.77,1.81,3.05-1.89,3.82-5.27,4.67-8.47.91-3.42,3.94-9.19,6.18-11.95,8.19-10.06,10.54-7.59,14.27-13.01,3.73-5.41,2.68.47,7.07-8.78.22-.47.49-1.99.11-2.34-1.73-1.59-3.33-.85-4.08-2.71-.28-.71.43-2.51,1.13-2.94,1.91-1.17,2.47-3.96,3.71-5.33,2.21-2.44,5.35-3.72,6.35-7.28.61-2.17,3.66-2.88,4.6-4.26,1.33-1.95,1.85-4.1,3.89-5.53,1.43-1,2.51-2.38,3.7-3.67l8.66-9.39c3.67-3.97,8.63-8.71,14.23-9.75,4.67-2.01,5.97-5.34,10.39-9.42,2.14-1.98,4.06-3.03,3.71-6.47-.21-2.03,1.01-3.56,2.39-5.12l4.11-4.64c.16-.18,1.21-.18,1.44-.14s.14.57.14,1.1l.02,4.62c2.4.57,5.54.98,7.49-.26,3.13-1.99,6.97-12.56,8.3-16.49.63-1.86,1.3-3,2.37-4.56,1.33-1.94,1.74-5.24,4.07-6.69,4.83-3.01,8.65-8.81,15.47-14.12,1.25-.98,2.45-2.21,3.79-2.49.99,5.93-5.97,7.26-4.07,10.42.28.47,1.46.37,1.95.02l3.62-2.61,6.71-11.74c1.43-2.5,1.4-4.5,4.94-5.4,1.66-.42,3.98-2.54,5.74-3.58l7.88-4.68c3.18-1.89,6.02-4.21,9.43-5.79,2.37-1.09,4.15-2.34,6.35-3.97,1.08-.81,3.78-1,5.08-1.61l10.18-4.79,9.07-4.05,9.6-5.08,7.62-4.77c3.01-1.88,5.7-4.01,8.72-5.95l5.93-3.79c4.46-2.85,12.06-6.2,18.86-10.57l7.92-5.1c1.69-1.09,3.77-1.91,5.24-3.33,3.1-2.99,6.62-4.35,10.37-6.37,2.07-1.12,4.2-2.89,6.34-4.29,1.71-1.12,3.38-3.53,5.06-4.3,4.12-1.88,8.35-4.93,11.95-7.63l7.15-5.37c-.4.3,12.12-9.01,10.77-7.72l6.67-6.39c2.68.49,2.86-1.14,4.17-2.18l8.62-6.88,13.38-10.46,4.81-2.56,8.86-6.61c1.47-1.09,2.52-1.78,4.44-2.45s3.73-2.38,5.48-3.32l4.17-2.23,5.92-4.02,11.15-5.47,5.37-2.48c2.31-1.07,3.86-1.57,5.81-3.51l5.72-2.18c3.71-1.42,7-2.83,10.38-5.05l4.91-3.22c1.96-1.29,4.28-1.19,6.27-2.52,2.18-1.46,4.23-3.54,6.52-4.67l10.59-5.23c1.97-.97,4.62-1.05,6.39-2.99s3.8-3.36,5.97-4.83c1.32-.89,1.9-2.29,4.09-2.31-3.36,5.3-6.09,8.54-10.07,12.99-3.17,3.53-5.86,7.48-9.44,10.84-6.14,5.79-9.74,12.15-11.72,13.76-1.58,1.29-1.95,1.98-2.96,3.57-5.84,9.2-7.78,10.36-12.85,20.53-1.47,2.95-3.08,5.63-4.27,8.77-.75,1.99-1.96,3.59-3.23,5.3-6.6,8.89-1.4,3.85-5.83,9.51-.89,1.13-1.98,3.09-2.68,4.5l-3.25,6.5-4.27,9.31-2.53,5.31c-.37.78-.61,2.74-.86,3.53-1.31,1.9-1.35,4.89-2.21,6.86-1.95,4.49-3.96,8.47-5.53,13.13-.38,1.12-1.75,2.77-2.19,3.88-2.91,7.4-1.3,5.51-4.4,11.98l-2.97,6.19-5.4,13.58-2.45,4.92c-3.46,6.95-6.67,13.46-8.47,21.02l-1.65,6.93c-.31,1.32-2.84,9.88-3.22,10.75l-5.64,12.85-2.7,5.68c-2.15,4.52-3.88,8.96-5.62,13.62-.9,2.41-2.6,4.13-3.95,6.36-2.26,3.73-4.32,12.23-4.72,12.81-2.96,4.39-5.87,9.95-7.78,14.92-.74,1.92-1.46,3.1-2.63,4.79-1.91,2.78-3.34,6.17-5.12,9.2-1.63,2.78-3.18,5.36-4.56,8.34-.93,2.02-2.35,3.64-3.77,5.41-1.62,2.01-2.56,4.6-4.12,6.72l-4.22,5.75-5.94,9.99c-3.63,6.1-4.85,4.7-8.07,11.21-1.43,2.9-2.77,5.37-4.49,8.07l-5.14,8.05c-1.82,2.85-2.36-.5-8.48,12.84-1.59,3.47-3.54,6.09-5.88,9.1-1.59,2.04-2.91,4.61-4.38,6.95-1.03,1.64-2.8,2.99-4.02,4.56-2.84,3.65-5.17,7.58-7.65,11.56-1.73,2.77-4,5.05-5.9,7.65-2.43,3.33-5.88,5.67-8.44,8.7-1.86,2.2-1.47,6.04-4.77,7.96-1.63.95-2.98,4.23-4.39,5.54l-3.54,3.29c-3.72,3.46-7.04,6.27-10.43,10.26-1.22,1.44-7.2,6.95-8.83,7.3-3.18.67,5.74-9.06,6.73-9.49l.98-3.21c3.29-.98,4.09-4.05,5.75-6.66,1.95-3.06,4.89-5.88,6.33-9.38.79-1.92,1.76-3.35,2.9-5.06l3.4-5.12,2.92-4.51c1.12-1.73,2.89-3.52,3.84-5.18,1.15-1.99,1.89-3.52,3.3-5.38l1.9-4.32c2.04-1.11,4.17-2.05,5.92-3.85.83-.86-.79-3.07-1.22-3.97l-1.08-2.27c-.25-.52-2.09-.48-2.7-.31l-5.69,1.62c-1.68,2.97-3.84,5.01-6.4,6.65-.76,1.09-2.02,3.4-3.24,4.06-4.89,2.67-7.36,6.71-10.22,11.02-.3.45-5.5,5.73-5.76,10.15,4.04-.07,5.48-3.11,7.51-5.8l5.02-3.81c.1-1.11,0-3.13.75-3.5,1.03-.52,3.26-.66,3.98-.05-.44,2.87-2.47,4.37-4.48,6.1-1.17,1-1.8,3.81-2.77,5.07-1.99,2.58-3.76,4.89-5.48,7.56l-2.7,4.21-5.84,8.41-4.69,5.34-4.88,6.58-6.51,7.44c-1.7,1.94-2.53,3.8-4.57,5.44-1.52,1.22-2.63,3.48-3.9,5l-10.36,12.46c-.67.81-2.67,1.61-3.49,2.14-2.55,4.3-6.34,8.14-11.13,10.66-2.6,1.37-7.43,6.77-6.11,2.69l.52-1.62c.13-.41-1.89-.68-2.26-.46-7.38,4.6-5.9,6.78-9.43,9.79l-6.43,5.48c-1.75,1.49-3.29,2.99-4.71,4.88-4.93,6.59,1.73,2.11-10.23,11.93-2.06,1.69-3.55,3.42-5.3,5.6l-4.81,1.77c-.7,2.69-2.73,3-4.81,3.94l-7.03,3.19c-.83.38-1.67,2.26-1.55,3.11.18,1.28,1.8,1.7,3.1,2.18,2.56.95,4.67,1.26,7-.3,2.79-1.86,5.6-3.87,7.93-6.2,3.02-3.02,6.76-2.27,10.68-.89,3.16,1.12,13.4-8.06,15.96-11.14,1.13-1.37,2.78-2.29,4.08-3.42l12.73-11c1.79-1.54,3.08-3.21,4.65-4.97,1.72-1.93,3.55-3.55,5.03-5.81,1.64-2.49,5.02-3.82,6.75-6.16,1.15-1.55,1.35-3.8,3.36-4.75,2.28-1.08,3.54-3.9,5.42-5.22,3.55-2.48,7.08-4.42,9.86-7.89,1.46-1.82,3.54-2.91,5.31-4.47l14.99-13.24c2.39-2.11,4.67-3.8,7.1-5.97,1.1-.97,3.44-1.84,4.31-2.99,1.46-1.94,2.98-2.59,4.77-4.05l10.5-8.59c1.74-1.42,3.72-2.23,5.37-3.7l6.59-5.85c1.95-1.73,4.2-2.9,6.09-4.73,2.33-2.25,4.94-3.8,7.49-5.63,1.09-.78,2.24-2.47,3.57-3.07,3.08-1.37,4.98-3.75,7.35-5.86l5.06-4.53,8.64-7.31,4.48-5.55,5.94-4.7c1.35-1.07,4.49-1.12,6.3-1.48,1.95-2.75,5.82-1.96,8.32-2.61,3.21-.83,5.6-1.5,8.85-1.64,2.35-.1,5.27-1.2,7.74-1.56l8.11-1.18c2.86-.41,13.86-1.97,15.96-1.79l8.58.72c2,.17,3.7-.23,5.6-.45,3.74-.44,7.18-.69,10.85-1.49l4.55,1.6c7.43-.27,14.06,1.35,21.26,2.54l10.55,1.74c1.36.22,3.63-.15,4.97.45,2.8,1.27,5.23.61,8.21.81,1.5.1,4.1,1.51,5.79,1.76l4.64.67c1.23.18,2.74,2.48,4.7,1.87l2.31,4.53,1.35,2.09c.37.57-1.05,1.44-2.33,1.86l-.21,5.65c-.07,1.76,4.9-.45,5.71-.26,4.35-2.78,6.64-5.58,12.19-6.75,4.73-1,8.69,2.66,12.52,4.14l8.38,3.23,8.11,3.41c2.06.87,4.57,1.75,6.67,2.53.89.33,2.43,1.62,3.36,2.09l6.13,3.12c2.85,1.45,5.3,3.07,8.34,4.25.87.34,2.63,1.18,3.22,1.78,1.09,2.98,4.73,2.09,8.02,4.8,1.5,2.06,7.17,6.06,9.23,6.94,1.93.83,3.59,3.04,5.41,3.96l5.27,2.66c2.74,1.38,4.93,3.9,7.29,5.21l12.13,6.7c2.65,1.46,5.43,2.96,8.16,4.27l10.55,5.07c2.69,1.29,5.15,2.84,7.99,3.83l5.69,1.98c1.18.41,2.77,1.4,4.03,1.16,3.73-.7,1.67,1.12,8.83,3.68l15.47,5.53c9.05,3.24,16.68,3.22,23.11,5.47,1.79.62,3.44.66,5.72.64,1.67-.01,4.08,2.26,5.68,2.47l10.67,1.42c3,.4,6.53.03,8.98,1.85,3.35,2.49,2.43-1.09,6.23.39,2.35.92,4.4,1.15,6.91,1.38l2.27,4.28c1.76-.29,8.28.75,7.42,2.24-.8,1.38-5.32,2.09-6.65,1.78-2.19-.5-3.92-.63-5.92-.83-3.28-.32-6.59-1.68-10.22-1.28-7.63.85-5.35-2.36-14.73-2.01-2.53.09-4.64.34-7.07.07-3.65-.41-7.91-1.47-11.36-.98-8.92,1.25-3.01-1.02-12.18-.67-3.21.12-5.96.08-9.11-.01l-4.67-.15c-5.16-.16-10.62-.66-15.7.05l-8.06,1.13-15.83,1.85c-1.69.2-3.89.62-5.71.94l-7.32,1.32-4.6,1.02c-8.51,1.88-7.87,3.48-11.64,1.8-2.77-1.24-5.98,1.46-8.49,2.02l-6.77,1.51-7.02,1.85c-4.65,1.23-9.18,1.82-13.8,3.42l-8.51,2.94-5.61,2.06Z"/>
  <path class="cls-1" d="M154.84,699.8c-1.74,2.55-5.13.28-6.22-1.66-1.18-2.1-2.01-3.97-2.06-6.38-.08-3.62-2.87-6.54-3.57-9.84l-1.3-6.17-.73-3.48c-2.01-1.66-2.68-3.68-2.06-6.45.37-1.64-.82-4.13-1.04-5.8-.2-1.56-.41-2.8-.71-4.39-.4-2.08-.15-4.79-.41-7.04l-1.28-10.9c-.22-1.91-1.35-5.31-2.38-6.86-1.9-2.87-2.7-4.91-3.39-8.34l-1.18-5.9c-.12-.62-1.66-1.32-1.73-1.94s.6-2.41.24-2.99c-1.6-2.61-2.59-6.79-3.14-9.93-.4-2.28-1.19-4.55-1.76-6.71l-1.71-6.46c-.87-3.31-1.72-6.29-1.93-9.88l-.5-8.5-.07-7.34-1.13-16.54c-.15-2.14-.99-5.4-1.54-7.37-.76-2.7-1.52-3.89-.23-6.78.74-1.68.11-4.71.26-6.85.23-3.43,1.1-6.78,1.09-10.18,0-2.24-1.04-5.33,1.07-6.98,1.9-1.49,4.15.98,6.18-.34.47-.3.87-1.7.74-2.31-.66-3.21-.29-6.37-.09-9.72.65-10.99-.98-6.71.13-16.38,1.24-10.82,1.98-17.41,6.25-27.74,1.27-3.08,3.1-5.49,4.81-8.24,1.25-2.01,2.06-4.7,3.49-6.72l3.84-5.43,3.34-4.54c1.26-1.72,2.12-4.71,3.44-6.13,4.94-5.29,4.22-7.13,8.65-13.67,6.26-9.24,5.11-5.82,11.43-17.16,1.34-2.4,7.85-8.09,8.86-14.82,2.5-2.38,4.05-4.96,5.88-8.19.74-1.31-.17-3.87,1.6-4.73,2.09-1.01,3.37-2.5,4.67-4.41,2.07-3.05,5.12-5.75,6.88-8.92l5.98-10.81c2.43-4.39,2-7.44,3.77-10.28.73-1.18,3.52-1.58,3.49-3.86-.07-4.34,2.83-7.68,3.98-11.6l1.95-6.62,4.65-11.97c.44-1.13.12-3.86,1.16-4.47,5.13-3.01,2.87-7.25,8.06-14.27.99-1.34,2.03-2.07,1.77-3.84-.9-6.08,4.63-4.06,3.03-9.24-.58-1.89,2.05-2.17,2.72-3.18l6.57-9.88c2.35-3.53,3.55-7.76,5.68-11.4,8.09-13.8,1.91-8.06,10.18-22.19,6.48-11.06,4.25-10.7,8.64-18.61l3.46-6.24c2.94-5.3,1.38-7.02,3.88-14.46,1.77-5.26.8-5.42,3.28-13.59.71-2.32,2.31-4.72,2.49-7.11l.93-12.42c.19-2.51.82-5.19,1.29-7.78.35-1.95,3.66-1.67,4.99-.72l9.06,6.45c2.39,1.7,4.72,4.16,7.26,5.54,1.85,1.01,3.47,1.69,5.17,2.93l10.55,7.68c2.31,1.69,12.18,15.73,14.48,19.07,1.08,1.58,2.23,2.67,2.16,4.77-.03.87.74,2.48,1.33,2.97,2.58,2.16,3.69,4.69,5.1,7.63l2.39,5,3.6,7.01c1.04,2.02,2.22,3.68,3.51,5.65s1.33,5.85,2.83,7.9c2.41,3.29,2.46,6.5,3.05,10.34l1.13,7.36c.35,2.3.48,4.55.18,6.97-.23,1.84.84,4.18.81,5.76l-.19,9.81c.55.4,1.69.94,1.57,1.33l-.69,2.23c-.72,2.31.58,4.81,1.03,7.08l2.62,13.38c1.02,5.22,2.41,11.23,8.66,10.22,3.17,6.16,3.24,13.49,4.18,20.32l1.11,8.08c.33,2.39,1.18,12.43,1.12,14.29-.14,4.62-.66,9.01-.14,13.58.27,2.36.27,4.59.24,6.88l-.11,8.01-.02,5.55-.17,8.86-.25,13.02c-.11,5.73-1.19,11.22-1.81,16.86-.25,2.26.06,4.5-.54,6.88-1.74,6.88-.12,6.76-1.74,13.65-.59,2.5-.43,5.74-1.22,8.1l-2.62,7.84c-.47,1.41-.49,3.47-.44,4.71-1.02,1.6-1.68,3.19-2.21,5.19l-1.48,5.59-3.29,11.59c-.53,1.86-1.98,4.76-3.38,6.26l-3.74,3.98c-1.5,1.6-2.68,3.67-4.65,4.51-2.68,1.13-3.55,3.67-5.4,5.42l-9.63,9.16c-1.45,1.38-2.46,2.79-3.73,4.3-5.32,6.31-7.77,7.4-11.93,11.81l-4.14,4.38-7.55,7.18c-3.03,2.88-5.64,5.71-7.56,9.55l-3.56,2.08-10.16,10.9c-2.02,2.16-4.23,3.98-6.4,6.02-2.11,1.97-3.58,4.49-6.92,5.22-1.07.29-1.19,3.35-1.98,4.14l-4.2,4.2c-2.18,2.17-4.28,3.96-6.16,6.42-2.83,3.69-9.65,9.88-13.02,14.21-5.64,7.24-10.74,14.32-16.66,21.33l-10.43,12.36c-1.48,1.76-2.58,3.39-3.87,5.3s-2.96,3.85-4.43,5.68l-4.57,5.69c-1.92,2.39-3.44,4.73-5.32,7.16l-10.6,13.76c-1.63,2.12-2.85,4.7-5.7,5.09-4.88.68-10.71,2.84-13.43,7.21-1.46,2.33-3.76,4.13-5.92,5.94-7.59,6.37-3.56,5.67-10.02,11.47-1.89,4.41-1.98,3.28-5.74,8.81Z"/>
  <path class="cls-1" d="M302.16,833.84c2.72.51,5.79.41,8.49.82l9.92,1.5,7.08-.09c1.41,2.4-4.5,5.64-7.15,8.01-2.11,1.88-4.82,2.92-6.94,4.56l-9.3,7.18c-3.53,2.73-6.93,5.57-10.93,7.78-3.72,2.06-6.99,4.49-10.61,6.77-2.84,1.79-6.23,2.52-8.98,4.86-1.3,1.11-3.27,2.1-4.85,2.88l-9.87,4.86-13.52,6.6c-2.5,1.22-5.94.43-8.63,1.14l-4.24,1.12c-6.01,1.59-11.29,3.26-15.81,7.08-1.61,1.36-10.58,3.5-11.92,4.39-1.88,1.55-3.43,1.58-5.41,2.4-6,2.49-14.46,6.54-21.23,4.31l-6.93-2.28c-.47-2.21-8.83-6.21-11.02-8.31l-5.2-4.99c-.55-.53-1.63-.88-2.12-1.18s.05-2.31-.22-2.81c-10.79-19.61-4.28-3.98-11.16-26.81-2.17-7.22-1.06-9.24-2.06-17.28-1.09-8.79-2.37-20.35-1.28-29.03l1.14-9.08,1.63-11.36,2-10.29,3.65-21.06,3.57-16.28c.36-1.64,3.09-10.47,3.84-12.52.66-1.79,1.52-3.24,1.58-5.21s1.1-3.53,1.95-5.31c1.77-3.71,1.99-7.97,2.8-12.09.43-2.21,2.16-4.33,3.23-6.19l2.14-3.72c.71-1.23,1.93-2.22,2.86-3.39l5.76-7.25c.21-.27,1.04-.71,1.23-.47s.51,1.29.37,1.56l-2.66,5.09c-1.61,3.07-3.74,5.24-3.6,9.08,1.21.83,2.54,1.74,3.79,2.43,2.05,1.13,4.29-.91,5.42-2.46,1.94-2.66,4.67-5.21,5.87-8.07.92-2.19.62-4.15,3.32-5.55.26,1.25.12,2.27.08,3.62l-.4,13.49c-.05,1.52-.37,3.49-.26,4.95.18,2.48.65,4.65-.08,6.94-.84,2.62-.15,5.28-.4,7.77-.65,6.32-1.07,12.59.32,18.54l-4.24,7.93,4.26.44c3.59,4.58-.72,10.81,7.37,15.19,7.71-.44,5.75,2.4,11.29-1.78,3.44-2.59,7.56-5.38,11.3-7.28,4.31.96,10.93.27,14.64-1.16l5.05-1.95,3.69-.45c2.73-1.56,5.62-4.37,8.63-5.16,9.76-2.58,3.49-2.03,14.79-9.97,9.7-6.81,11.48-15.46,18.41-13.38,2.06,6.17.06,1.88-1.74,8.69-1.24,4.68-4.67,8.47-6.87,12.6l-3.01,5.68-3.27,5.89c-.64,1.15-1.45,2.93-1.92,4.12l-2.61,6.56-2.53,6.04c-.43,1.02-1.7,3.12-1.86,4.35l-1.33,10.48c-.3,2.37-.49,3.77-2.2,5.48l.54,7.65c.23,3.27,2.17,6.7,3.91,9.5,6.23,3.64,6.33,3.17,13.4,4.85,8.07,13.75,17.84,6.94,29.03,9.04Z"/>
  <path class="cls-1" d="M436.31,405.95l-9.77,8.69c-1.95,1.73-3.71,3.44-5.49,5.32l-5.82,6.14-4.82,4.75c-2.27,2.24-4.46,4.82-6.8,6.83-2.83,2.44-5.51,4.63-8.13,7.2l-3.74,3.68c-1.45,1.43-3.03,2.58-4.68,3.87-5.5,4.28-3.15,3.9-9.04,9.17-1.26-1.76,1.05-6.81,2.26-11.37l1.39-5.24c.81-3.05,1.75-5.85,2.64-8.91l2.98-10.26c.87-3,1.63-5.21,1.9-8.42.31-3.72,1.87-7.6,2.55-11.35l.79-4.32,2.61-15.52c.41-2.44.52-4.3,1.36-6.47,1.49-3.88.81-8.21,1.24-12.22l.71-6.7c.26-2.5.58-4.68.64-7.16l.29-11.03c.26-10.02.74-8.66-1.12-18.76-.55-2.98-1.12-5.63-1.34-8.72-.16-2.19-.18-4.64-.83-6.62l-1.15-3.52-1.02-4.91c-.48-2.3-.69-4.97-.78-7.54,1.37-1.29,4.28-.54,5.96.08,3.28,1.21,8.93-6.69,11.02-9.2,2.72-3.28,5.16-6.44,7.61-10.04,1.28-1.88,3.47-3.44,4.91-5.27l7.85-9.96,1.22-2.13c1.71-2.98,4.3-5.88,6.26-9.06,1.69-.33,3.12,1.77,4.3,3.02.58.62,2.51,1.08,2.65,1.85l.7,3.89,1.93,1.15c.49.29.07,1.83.21,2.47,2.48,1.26,4.32,3.66,5.93,5.98,1.35,1.96,2.88,3.73,3.79,5.93.99,2.41,2.17,4.8,2.89,7.16l1.36,4.47c.98,3.22,2.16,6.82,2.57,10.15l1.19,9.8c.16,1.3.42,2.73.49,3.97l.65,11.82c.18,3.24-1.19,6.86-1.33,10.2-.26,6.39-3.71,1.8-4.03,7.16-.09,1.44,1.29,3.24,3.24,3.21,1.7-.02,4.04-.73,5.18-1.57l2.03-7.77c2.12-8.12.88-16.13.3-24.3-.37-5.26-1.28-9.85-2.49-14.98l-1.33-5.59c-.11-.46-.12-1.19.03-1.51s1.59.21,1.7.58l2.38,8.02c.58,1.95,4.73,10.6,5.15,16.25.23,3.08.13,15.72-.34,18.06l-1.16,5.79c-.36,1.79-.28,4.44-.85,5.95-2.86,7.65-3.23,12.73-4.05,20.69-1.06,1.49-2.91,3.29-2.51,5.82.26,1.65-.6,3.59-.86,5.17l-2.2,13.45c-1.3,1.47-4.11,2.6-5.71,3.8l-6.86,5.13c-6.39,4.78-7.11,7.96-11.69,9.42l-4.92,4.31Z"/>
  <path class="cls-1" d="M635.13,647.25l-7.01.43c-1.72.1-3.36-.01-5.13-.09-9.97-.42-15.63.61-23.79.15-2.74-.15-5.49,1.26-7.91-1.12l-12.15,1.58c-5.26.68-10.1,1.22-15.42,2.41-2.2.49-5.14.4-7.61.52-1.35-.57.45-2.36.98-3.16l4.96-7.48c2.91-4.38,6.02-8.22,9.46-12.19l5.28-6.11c1.72-1.99,3.5-4.08,5.04-6.11,3.55-4.68,4-6.71,8.03-10.36,1.23-1.11,2.83-2.21,3.71-3.69l2.3-3.83,10.67-10.94c1.01-1.03,1.46-3.07,3.47-2.77,1.99.3,5.72,1.1,7.23-.15,3.18-2.64,6.16-4.04,9.81-5.82l5.83-2.85c2.4-1.17,4.34-1.81,6.08-3.88l4.64-1.33c2.31-1.87,4.38-3.17,7.21-3.33l9.77-.54c2.08-.11,4.42-.24,6.41-.88l2.3-.73c.61-.2,1.64,1.23,2.25,1.52l6.43.52c2.21.18,4.69.6,6.7,1.23l12.16,3.77c1.23.38,3.79,1.67,4.85,2.53,6.87,5.58,9.95,8.44,17.92,13.22,2.14,1.28,3.85,2.84,5.74,4.4,3.12,2.57,7.2,4.02,9.36,8.07.63,1.18-1.22,2.59-2.26,3.3-7.17,4.9-2.29.58-10.23,6.17l-6.4,4.51c-2.97,2.09-8.7,8.74-10.87,12.31l-4.09,6.72c-1.53,2.51-2.9,4.47-4.5,7.13-.8,1.32-5.99,6.63-8.88,7.76l-7.45,2.93c-6.17,2.43-11.72-.8-15.46-1.26l-8.77-1.08c-2.54-.31-5.28-.61-7.8-.55-1.28.03-3.78-1.5-12.84-.95Z"/>
  <path class="cls-1" d="M587.03,591.82c4.81-8.42,1.8-4.16,4.55-13.92l1.77-6.3,1.51-5.78c1.2-4.61,3.47-19.2,3.83-24.11.31-4.37,2.26-.77,4.01-7.25,2.75-10.19-.91-3.21,2.63-10.31,1.56-3.13,1.65-7.55,2.09-10.92.51-.27,1.87-1.1,1.88-1.64.29-11.17,1.35-5.52,3.82-16.27,3.39-14.77,5.83-9.75,7.77-18.22.54-2.35,1.75-4.53,2.77-6.66l2.25-4.7c2.91-6.09,2.2-5.7,6.47-12.38,1-1.56.61-4.7,1.52-6.52.8-1.61,3.86-3.25,4.1-4.96.44-3.17,1.47-4.81,2.62-7.32l3.76-8.22.88-1.77c.2-.41,1.77-.23,1.93-.14l-1.28,7.06c-.71,3.91-2.05,7.76-1.6,11.58-1.67,7.38-4.51,8.51-4.35,16.69-4.08,7.43-3.56,12.32-6.02,21.24-.82,2.96-1.1,6.24-1.72,9.23l-2.68,13.01c-1.46,7.11-3.46,13.79-5.3,20.74-.69,2.58-1.7,4.75-2.28,7.44l-2.43,11.36-4.01,13.02c-1.2,3.91-4.66,10.03-6.76,13.11l-5.54,8.12-4.36,5.98c-1,1.37-2.39,2.45-3.07,4.17-.62,1.58-1.96,2.51-3.04,3.77l-3.99,4.66c-1.05,1.22-1.93,2.89-2.39,4.38-3.44,1.85.36-7.62.68-8.18Z"/>
  <path class="cls-1" d="M393.08,466.66c1.12-1.94,4.41-3.96,6.34-5.32,1.37-.96,2.58-2.06,3.96-2.92,1.79-1.11,3.7-2.01,5.28-3.27l9.68-7.73c2.24-1.79,4.41-3.13,6.58-4.88l5.4-4.35c5.35-4.31,11.3-7.64,17.18-10.97,1.71-2.28,4.53-2.94,6.79-4.39s3.91-2.66,6.59-3.61l3.16-2.96c2.81.35,4.25-1.64,6.19-2.73l5.88-3.32,6.14-3.47,8.33-4.72,6.99-4.21,5.91-3.35,14.82-8.45,4.71-2.6c3.65-2.01,6.95-3.78,10.32-6.26,2.36-1.74,4.83-3.7,7.5-5l10.68-5.2c1.31-.64,2.55-2.33,3.86-2.86,3.24-1.32,5.96-3.07,8.56-5.19,2.98-1,5.57-2.25,8.87-3.93,1.51,3.84-6.51,4.62-8.76,9-1.14,2.21-1.95,1.59-3.92,2.69-2.09,1.17-4.52,3.52-6.63,5.04l-11.93,8.58-5.83,4.35c-4.02,3-7.91,5.8-12.35,8.17-2.02,1.08-3.84,2.53-5.72,3.72l-6.33,3.98-6.6,4.24-7.34,4.46c-1.34.81-3.14,2.24-4.42,2.85l-5.52,2.66c-5.23,2.52-9.04,6.43-13.97,9.4l-8.11,4.89c-1.49.9-2.65,1.87-4.16,2.76-7.54,4.43-15.3,7.69-23.01,11.49l-9.1,4.49c-2.1,1.03-4.59,1.57-6.47,2.76-2.61,1.66-5.18,2.62-7.73,4.16l-13.04,7.87c-2.5,1.51-5.64,3.33-7.06,5.14-.28.35-1.18.69-1.48.78s-.41-1.5-.24-1.81Z"/>
  <path class="cls-1" d="M513.69,671.73c-.38.31-2.19.26-2.2-.14,0-.54.45-1.13,1.09-1.75,2.54-2.45,4.31-5.49,6.39-8.28l3.92-5.26,5.99-8.72c3.61-5.25,7.71-10.05,11.06-15.48,1.03-1.68,1.65-3.51,2.9-5.1,1.32-1.68,2.34-3.89,3.77-5.37,1.9-1.97,3.35-3.86,4.96-5.94l8.14-10.58c1.2-1.56,2.18-2.87,3.24-4.66l1.39-2.36c1.22-2.07-4.19-4.08-.04-8.22.66-.66,1.26-2.47,1.79-3.27,1.89-2.91,4.04-5.54,5.64-8.53,2.02-3.8,3.91-7.45,5.62-11.37,1.42-3.25,3.67-5.81,5.19-9.07l2.21-4.72c.68-1.45,1.38-2.6,1.66-4.18l5.09-9.54c2.34-4.38,1.55-7.01,2.78-6.47.48.21,1.41.79,1.81,1.14,1.56,1.37-3.06,1.75-3.06,5.1,0,2.17-.73,3.62-1.4,5.47-.98,2.72-1.83,5.38-2.67,8.23-1.67,5.7-.41,7.31-2.23,12.37l-2.16,9.22c-1.46,6.23-2.57,12.44-4.59,18.45-1,2.98-2.75,6.04-3.99,8.94l-2.55,5.99-1.69,3.2c-2.37,4.48-3.93,9.23-7.51,13.16-3.66,4.02-6.9,8-10.38,12.35.36-.45-6.53,6.27-6.91,6.56l-4.48,3.47c-8.29,6.43-8.77,9.36-12.83,12.61l-11.44,9.15-4.52,3.61Z"/>
  <path class="cls-1" d="M200.27,680.28c-.89-2.63-.13-6.38.64-8.86l1.12-3.64c2.58-1.76,3.9-3.9,5.38-6.67s4.76-4.69,5.97-7.41c3.17-7.13,4.21-7.23,9.55-13.96l6-7.57c3.54-4.46,7.53-7.96,10.56-12.82,1.55-2.48,3.58-4.69,5.68-6.67-.32-3.18,3.01-3.62,4.46-5.35l7.16-8.52,5.09-6.4,2.83-3.44c2.39-2.9,4.48-5.74,6.6-8.81,1.22-1.77,4.87-3.09,5.66-5.35,1.03-2.97,3.89-3.97,5.4-6.06,2.56-3.52,4.95-6.18,8.33-9.03,2.66-2.25,4.94-5.6,7.55-8.08l4.43-4.23,5.43-4.78,7.98-6.78c1.97-1.67,3.81-3.21,6.24-3.75.54,3.43-2.16,3.62-4.03,5.03-2.39,1.81-4.54,4.5-6.87,6.52-7.11,6.15-3.23,4.14-9.25,9.63-3.23,2.94-6.41,5.98-9.33,9.25-2.68,3-5.22,5.68-8.73,7.9-1.52,3.96-4.75,6.76-7.55,9.94-2.48,2.8-4.78,5.18-7.67,7.77-1.4,1.26-1.78,5.01-3.5,5.9-2.85,1.47-3.58,3.32-5.29,5.83l-4.06,5.96c-2.13,3.12-4.29,5.85-7.31,8.08-.79,3.25-2.75,5.63-6.09,7.16-.46,4.81-4.86,7.66-6.88,11.46-1.65,3.11-3.09,5.07-5.55,7.82-2.84,3.16-10.43,17.7-11.7,19.35-1.63,2.11-3.65,4.13-4.9,6.29-5.57,9.62-4.07,3.6-8.52,12.59-.52,1.05-1.05,1.92-1.6,2.37s-2.95.1-3.21-.66Z"/>
  <path class="cls-1" d="M220.48,909.05c-9.49-.32-3.96,1.2-10.53,1.09-1.14-.95.76-2.56,1.89-2.61,2.03-.09,3.08-1.02,4.61-2.22,1.23-.96,3.62-1.53,4.98-2.48,2.09-1.46,4.95-1.74,6.96-2.8,3.01-1.58,4.96-2.63,8.41-3.11l7.45-1.03c2.7-.37,6.02-1.53,8.68-2.53,4.14-1.56,7.71-4.2,11.43-6.55,3.48-2.19,7.02-3.65,10.74-5.37l6.9-3.19c4.12-1.9,8-4.46,11.64-7.06l6.05-4.32c1.84-1.31,3.59-3.82,5.83-4.97.86.78.56,2.22-.05,2.84l-5.43,5.56-4.48,5.14c-.8.91-12.24,11.19-12.8,11.58l-9.79,6.72c-1.28.88-3.54,2.36-4.81,2.88l-7.78,3.21-7.07,3.57-11.13,3.09c-4.43,1.23-8.72,1.59-13.28,1.71-2.74.07-5.78.94-8.41.85Z"/>
  <path class="cls-1" d="M706.67,659.42c-.88-.2-2.89.68-3.43.17-.64-.6-1.32-1.64-1.85-2.54l-1.8-3.07,2.15-3.19c.53-3.24,2-4.91,4.96-6.21,1.27-.56,2.59-2.21,3.78-3.39,1.05-1.03,3.75-2.08,4.43-3.3,2-3.57,5.58-4.1,8.37-6.15l5.23-3.84,9.74-7.71,4.03-2.88c.47-.34,1.87-.54,2.32-.25s.19,1.43.19,2.22l.04,4.94c-5.03,6.26-3.43,6.33-7.49,11.47l-3.53,4.46c-1.99,2.52-4.31,4.23-5.83,7.26l-2.84,2.25c-2.02,1.61-4.53,3.38-6.63,4.59-2.38,4.59-6.35,6.43-11.86,5.16Z"/>
  <path class="cls-1" d="M840.92,725.06l3.91,3.96c0,1.11-1.83,2.19-3.17,2.39-1.76.26-2.98-.51-4.68-1.39.38.2-16.98-8.11-15.04-7.33l-6.4-2.55c.68.27-18.67-13.21-21.04-12.38-.93-1.41-2.26-2.77-3.91-3.47s-3.06-2.53-4.53-3.36l-4.55-2.58c-2.94-1.67-5.5-3-8.39-5.03-1.69-1.18-4.09-2.4-6.15-3.41-5.15-2.53-6.25-1.37-8.86-3.73-6.73-6.07-6.69-1.94-8.18-3.82-.65-.82-1.13-1.95-.69-2.46l6.86,2.15c2.16.68,4.61,1.51,6.71,2.4l5.93,2.51,5.91,2.64,5.03,2.34c6.61,3.08,5.52-.12,6.03,3.86.06.47,1.43-.06,2.02-.03,1.93,1.69,4.32,2.38,6.63,3.6l4.95,2.62c1.75.93,2.83,1.1,4.21,2.29l6.47,2.63c2.64,1.08,15.02,7.8,17.29,9.35l5.14,3.49c2.58,1.76,6.24,3.01,8.49,5.31Z"/>
  <path class="cls-1" d="M494.82,390.38c3.21-2.77,6.66-4.48,9.92-6.75,4.16-2.89,8.16-5.37,12.76-7.59,3.36-1.62,11.58-7.47,15.2-9.9,7.88-5.3,5.47-2.24,14.03-8.07l4.41-3c1.77-1.2,3.48-2.88,5.28-4.29,1.6-1.25,1.99-2.78,2.76-4.89.63-1.73,2.97-4.84,4.76-5.64,4.43-1.98,8.54-3.4,12.71-5.62,1.9-1.01,3.71-1.65,5.81-2.24l6.4-1.82,8.95-3.42c.3-.11,1.46.62,1.34.89-1.17,2.61-4.08,2.87-6.99,5.59-7.17,6.71-4.11,1.02-9.25,6.9-.75.86-2.6,1.71-3.76,2.41l-5.39,3.27c-2.74,1.66-5.12,3.08-7.97,4.59-4.27,2.25-11.44,7.5-16.49,9.87-2.05.96-3.61,2.08-5.57,3.11l-5.76,3.02c-6.12,3.2-11.42,7.33-17.43,10.48-2.61,1.37-4.7,2.75-7.21,4.14l-9.97,5.51c-2.61,1.44-4.88,3.6-8.56,3.46Z"/>
  <path class="cls-1" d="M170.3,367.15c4.74-6.37,5.42-9.55,9.49-15.95,2.32-3.65,4.74-6.97,6.26-11.2.81-2.24,2.84-4.06,4.19-6.01.65-.95,1.22-3.23,1.83-4.27l2.35-4.01,8.31-14.4c2.2-3.81,1.71-5.86,5.61-11.47,1.04-1.49,1.24-3.31,3.23-4.72,1.8,1.27-4.52,14.4-5.37,16.1-4.28,8.58-2.48,6.87-6.2,14.12l-2.7,5.26c-1.31,2.55-2.32,5-4.18,7.33-2.07,2.58-3,5.91-4.96,8.61l-3.51,4.83c-2.16,2.97-3.65,5.66-5.95,8.39l-3.65,4.33c-1.25,1.48-1.44,4.24-4.74,3.06Z"/>
  <path class="cls-1" d="M648.76,399.78c-.68-5.24,2.54-5.38,1.79-10.49,2.06-.15,2.56-1.28,3.24-3.1,3.1-8.28,3.21-5.5,5.36-10.51.93-2.18,2.66-4.44,3.27-6.61,1.2-4.22,4.59-6.61,6.35-10.33l3.82-8.05,4.78-7.31c1.3-1.98,2.35-8.19,6.64-8.87,1.89-.3-2.08,4.31-2.08,4.31-1.81,3.67-3.67,7.38-5.61,10.89l-5.32,9.61c-.94,1.7-2.23,3.02-2.96,5.07-.51,1.43-1.52,2.99-2.12,4.4-2.51,5.96-6.11,12.88-9.42,18.39-2.44,4.05-6.01,14.62-7.74,12.6Z"/>
  <path class="cls-1" d="M909.43,749.38c-.99,3.7-4.77,2.44-7.23,1.81l-7.75-1.99-6.71-1.82-10.96-2.65-12.48-3.99c-.46-.15-1.29-1.33-1.02-1.67.33-.43,1.52-.82,2.15-.7l10.75,2.02,6.27,1.53c2.67.65,5.18.76,8.01,1.06,3.6.38,6.87,3,10.42,3.63,2.77.49,6.08,1.12,8.55,2.78Z"/>
  <path class="cls-1" d="M135.07,422.7c.95-1.56,1.58-3.55,2.58-4.9l2.75-3.72.85-2.49c1.94-1.3,2.95-2.94,4.15-4.99,1.28-2.18,3.53-4.28,4.64-6.51.86-1.74,1.4-2.51,2.85-3.63l6.81-5.28c1.44,3.15-1.66,4.73-3.01,6.89-2.56,4.09-5.31,7.73-8.3,11.58l-3.49,4.5-5.09,7.91c-.94,1.46-2.65,2.44-3.46,3.95s-2.67,2.49-3.99,1.17l2.71-4.48Z"/>
  <path class="cls-1" d="M468.25,396.96c1.43-2.74,5.38-2.91,11.23-7.18l5.96-4.35,3.76-2.92,7.87-5.36,3.76-1.24c.86-1.95,2.46-2.79,4.48-3,.94-1.89,2.57-2.27,4.34-3.17,1.18-.6,2.39-1.92,3.97-2.16,4.77-.71,3-3.45,5.7-2.94.48.09.58,1.99.15,2.21l-3.67,1.89c-3.04,1.57-8.75,5.51-11.66,7.59l-4.67,3.32-6.33,3.52c-4.99,2.78-9.19,6.58-14.26,9.43l-3.8,2.14c-4.1,2.31-4.17,4.14-6.68,3.89-.34-.03-.34-1.29-.14-1.67Z"/>
  <path class="cls-1" d="M390.71,370.74c-5.15.36-1.61-7.51-1.79-10.04l-.69-10.12-.33-5.54.94-9.89-.16-10.05v-2.01c0-.52,1.86-.34,1.92.24l1.05,9.1-.38,13.37c-.04,1.45.89,3.49.78,5.18l-1.34,19.76Z"/>
  <path class="cls-1" d="M418.95,435.03c-3.75,2.3-5.39,3.81-8.38,6.61-.38.35-1.48-.02-2.23-.5l5.3-5.5.86-3.55,3.06-3.79c1.79-2.22,5.08-3.11,7.63-4.31.68-.32,1.58-1.38,2.16-1.29,1.43.22,3.04,2.26,3.52,4.16.14.58-1.89.84-2.38,1.28-1.49,1.34-4.03,3.51-5.89,4.64l-3.66,2.24Z"/>
  <path class="cls-1" d="M715.22,629.34c-2.56-1.09-.27-3.13.85-4.14l3.91-3.52c1.66-1.49,2.94-3.44,4.83-4.82l4.47-3.27,8.87-5.45c3.63,4.93-8.23,10.75-12.11,13.49l-6.32,4.46-4.49,3.24Z"/>
  <path class="cls-1" d="M240.1,755.94c-2.83.76-5.36,1.44-8.42,1.07,1.44-3.35,4.64-3.79,7.22-5.43,3.29-2.1,6.27-4.25,10.35-4.9,2.12-.34,3.67-1.73,5-3.47.74-.98,3.14-1.8,3.68-.84,2.29,4.09-5.06,2.72-7.01,6.53-1.07,2.09-3.6,2.03-4.9,3.15-2.05,1.75-3.29,3.18-5.93,3.9Z"/>
  <path class="cls-1" d="M357.68,191.34c.11.32-.07,1.4-.27,1.65-1.22,1.45-5.21-7.31-5.5-8.06-1.19-3.01-1.92-5.13-3.55-8.04-.7-1.25-.37-4.15-.15-5.79l.24-1.75c.06-.44,1.53.39,1.7.85l3.93,10.74,2.12,6.02,1.49,4.39Z"/>
  <path class="cls-1" d="M743.02,267.98c1.63.83-11.17,9.65-12.34,8.42,1.19-2,2.53-4.17,3.83-5.87l6.82-2.76c.4-.16,1.36.04,1.68.21Z"/>
  <path class="cls-1" d="M131.28,646.53c.49,2.16.26,3.78-.93,4.94-.36-.85-.96-2.01-1.08-2.67l-1.58-8.1c-.08-.41.2-1.5.4-1.83.26-.44,1.58.52,1.69,1.02l1.51,6.64Z"/>
  <path class="cls-1" d="M382.59,288.51c-.35.88-1.92-.71-1.98-1.6-.17-2.48-.62-4.43-1.17-7.11,3.57.75,4.72,4.72,3.15,8.71Z"/>
  <path class="cls-1" d="M918.1,753.71l-5.73-1.42c-.3-.07-1-.5-1.24-.67-.32-.24,1.27-1.11,1.67-1.05l5.03.85c.43.07,1.34.57,1.7.81s-.99,1.59-1.43,1.48Z"/>
  <path class="cls-1" d="M369.43,261.23c1.87-.86,2.4,5.11.9,5.7-2.13.86-2.55-4.94-.9-5.7Z"/>
  <path class="cls-1" d="M625.66,319.13c-.66,2.71-3.46,4.46-6.21,3.7,1.52-2.18,3.44-3.87,6.21-3.7Z"/>
  <path class="cls-1" d="M869.38,779.16c-1.23-.01-3.8-.71-5.08-1.48,1.5-1.75,5.21-2.22,6.12.08.13.34-.68,1.41-1.04,1.4Z"/>
  <path class="cls-1" d="M626.01,570.39c-.43-2.31,1.76-3.33,4.26-3.34-.19.66-.57,1.81-.86,2.62s-2.91,1.37-3.4.72Z"/>
  <path class="cls-1" d="M216.67,285.49c-.81,1.07-2.17,2.15-2.77,1.73-.53-.91.13-3.15.93-3.58.33-.18,1.49-.19,1.85-.15.48.05.28,1.61-.01,2Z"/>
  <path class="cls-1" d="M145.09,739.09c-.63-1.09,1.03-3.92,2.49-3.28l-.03,3.09c0,.63-2.14.73-2.46.19Z"/>
  <path class="cls-1" d="M212.48,293.51c-1.21,0-.82-3.7.56-3.82,1.88-.16,1.67,3.81-.56,3.82Z"/>
</svg>