<?xml version="1.0" encoding="UTF-8"?>
<svg id="Camada_1" data-name="Camada 1" xmlns="http://www.w3.org/2000/svg" viewBox="0 0 1024 1024">
  <defs>
    <style>
      .cls-1 {
        fill: #fff;
      }
    </style>
  </defs>
  <path d="M504.85,960.64c-8.51,7.84-14.49,3.7-18.28,7.79-.48.48-2.31.53-2.99.58-6.09.46-5.86-5-7.27-7.17-.4-.62-2.6-.22-3.18-.59l-3.15-3.76c-.53-.64-.47-2.71-.83-3.46-1.79-3.76-3.61-7.37-5.88-10.79-1.44-2.16-2.95-4.06-3.93-6.54s-2.16-4.21-3.55-6.34c-2.96-4.55-2.51-5.81-6.85-11.19l-4.91-6.09c-3.66-4.54-2.32-.87-6.74-6.56-2.17-6.91-2.68-.17-7.26-9.78-.76-1.59-1.48-3.46-2.78-4.37-2.38-1.66-4.04-3.39-4.8-6.22-.48-1.79-1.91-2.67-3.12-4.02-3.68-4.11-3.12-5.2-6.43-8.91-5.77-6.46-3.17-4.68-6.27-8.73l-3.68-4.81-2.92-3.76c-.79-1.02-1.32-3.16-2.1-4.31-9.08-13.34-6.57-14.98-11.24-27.27-.54-1.43-2.35-2.71-2.4-4.57-.1-3.44-.61-6.85-2.05-9.92-1.66-3.54-2.42-7.27-3.61-11.01l-1.53-4.8c-.7-2.21-1.25-4.43-2.04-6.51l-1.38-3.68c-1.08-2.86-2.3-5.44-2.32-8.51-.06-6.35-1.1-12.89.99-18.48,1.03-1.24,1.21-2.22,1.35-3.87l.45-5.2c-3.71.1-6.98.05-10.59-.27l-5.53-.48c-2.18-.19-4.11-.1-6.16-.85l-3.59-1.31c-2.16-.79-4.61-1.22-7.02-1.61l-3.92-.63c-2.38-1.01-4.01-.61-6.39.23l-6.64,2.33c-6.35,2.22-17.3,9.49-24.04,12.1-3.22,1.25-6.34,3.29-9.82,3.97-2.19.43-3.72,1.56-5.66,2.42-3.44,1.53-6.95,3.03-10.54,4.32-4.04,1.45-12.64.95-19.97,6.17l-4.76,3.39c-2.59,1.84-4.87,4.03-7.59,5.8-2.5,1.63-4.92,3.07-7.56,4.44l-6.33,3.29c-2.61,1.36-6.04,3.18-8.01,5.34l-8.84,9.69c-2.04,2.24-2.42,4.02-1.82,6.91-3.34,5.11-8.9,2.15-10.06,6.67-1.38,5.38-5.72-.15-12.11,6.38-1.95,1.99-3.88,2.93-6.81,2.32-1.82-.38-3.18,1.15-4.79,2.23-2.43,1.62-6.85.95-9.05-1.18s-2.94-5.45-3.52-8.26c-.49-2.39-1.27-3.16-3.46-4.01-1.99-.77-3.19-3.6-4.5-5.15-3.43-4.03-4.5-8.41-5.89-13.43-.33-1.17-2.13-2.93-2.34-4.44l-.86-6.12c-.56-3.96,1.86-6.67,2.29-10.1l1.07-8.57c.29-2.35.81-4.71,1.05-7.06l1.19-11.79c.06-.6-.5-1.94-.56-2.49-.47-4.37-.43-9.03-.44-13.56,0-2,.52-3.75.75-5.63.76-6.1.09-14.02.68-17.4l1.44-8.28c.4-2.29,1.03-4.61,1.61-6.85l1.35-5.22c1.69-6.53,1.7-6.43,4.35-12.5l2.92-6.67c.33-.76,1.36-2.12,1.98-2.89,1.72-2.12,2.99-4.24,4.5-6.55l2.77-4.23c1.76-2.68,4.29-8.82,5.64-11.93l3.16-7.29c.37-.85,1.53-2.31,1.65-3.28.7-5.78,3.19-5.1,7.13-12.4l4.22-7.83c.67-1.24,1.62-2.89,2.39-3.96l2.81-3.88c1.25-1.72,3.53-3.66,5.34-4.78l5.65-3.48c-.74.45,11.96-5.75,12.12-5.81l14.4-5.76c.93-.37,2.18-2.34,3.01-2.86,2.66-1.68,5.3-2.99,7.69-4.94s5.99-2.37,8.3-4.05c3.08-2.23,5.44-4.72,9.01-6.16l6.99-2.81,6.35-2.19c.7-.24,1.67-.66,1.95-1.11.58-.91-2.96-3.65-4.28-4.7l-3.1-2.47c-2.55-2.03-5.94-3.41-8.3-5.58-2.16-1.98-3.8-3.5-6.29-4.94-4.99-2.88-3.2-3.34-8.44-7.03l-3.79-2.67c-2.22-1.56-4.12-3.45-6.22-5.26-1.08-.93-1.94-2.53-2.94-3.51-1.87-1.84-3.88-3.44-5.74-5.23l-7.38-7.13c-2.52-2.43-8.03-7.31-9.77-10.24l-2.46-4.14-2.42-3.43c-.78-1.11-1.57-2.06-2.49-3.08-5.09-5.6-1.54-4.11-9.79-10.19l-4.04-2.98-6.22-4.25-3.66-2.87c-2.06-1.62-3.95-3.35-5.56-5.44l-4.35-5.65c-2.1-2.73-3.79-5.74-4.91-9.05-1.84-2.63-2.47-5.08-4.39-9.01-4.23-8.68-.15-8.62-3.61-15.97-2.44-5.18-5.56-10.58-5.83-16.43l-.54-11.55c-.15-3.15-1.03-6.05-1.32-9.07l-.85-8.95c-.41-4.27-.86-8.2-1.2-12.42l-.44-5.53-.11-5.93c-.08-4.43-.93-8.61-.74-13.11.13-3.07-.02-6.27-1.79-8.66-1.36-1.83-2.44-4.03-3.88-5.66-5.22-5.91-4.54-7.68-7.72-12.85-2.19-3.56-4.54-6.8-6.43-10.54l-2.36-4.66c-1.29-2.54-1.86-4.71-1.99-7.64-.2-4.6-1.03-9.11.7-13.63,1.36-3.55,7.32-5.27,4.08-10.61-1.01-1.67-3.25-5.19-2.39-7.17.79-1.82,4.55-1.87,7.88-5.42,1.25-1.33,2.5-3.19,4.32-3.48,3.93-.64,6.91-2.13,10.46-3.61l3.89-1.62c4.62-1.92,6.86-4.21,10.23-5.17,3.61-1.03,6.71-2.07,10.15-3.42,9.13-3.6,9.97-2.18,15.58-3.02l4.49-.67c4.82-.72,9.32-.94,14.27-1.07l7.83-.2,6.54.5,6.16.26c7.85.33,12.65,2.66,25.41,2.56l3.59-.03c4.62-.04,9.31-.41,13.91.1l9.29,1.04c7.5.84,13.61.64,22.24,2.7,6.27,1.5,11.89,3.92,17.07,7.89,3.8,2.92,3.93,1.88,8.43,4.54,2.18,1.28,4.44,2.78,6.62,3.89l8.31,4.25c1.32.67,2.51,1.45,3.81,2.21l5.7,3.35c3.9,2.29,7.28,4.7,11.33,6.74,1.42.71,3.07,1.7,4.36,2.56l4.87,3.28c2.29,1.54,4.57,3.92,6.97,5.29,2.23-.75,3.15-3.17,3.32-5.29.19-2.26,1.42-4.47,1.82-6.5,3.24-16.51,11.17-13.76,13.02-26.28.6-4.07,1.69-8.98,3.98-12.34,2.4-3.53,4.25-6.68,6.28-10.23,1.52-2.66,3.9-4.33,4.6-7.69.71-1.98,4.24-3.65,4.85-5.67.78-2.58,1.81-3.99,3.11-6.02,2.42-3.75,4.63-7.11,7.65-10.41l7.63-8.35,3.77-3.75c1.03-1.02,1.78-2.22,2.64-3.47,1.62-2.35,4.31-4.09,6.15-6.21,1.28-1.47,2.26-3.05,3.69-4.33,1.66-1.49,2.38-3.39,3.12-5.52,1.21-3.52,2.53-7.02,4.12-10.34.98-2.03,1.6-3.94,2.59-5.97l5.07-10.4c2.38-4.88,3.26-10.69,4.88-16.2l1.71-5.83c.62-2.11,2.09-4.26,2.92-6.37.98-2.5,2.71-4.22,4.07-6.28l3.62-5.52c.62-.95,1.27-2.11,1.82-3.15,1.4-2.64,3.23-4.5,5.14-6.91.83-1.04,1.54-3.3,2.37-4.56l9.63-14.54c1.79-1.63,4.71-3.55,6.85-4.8,2.56-1.51,6.34.07,8.62-1.56,1.66-1.19,3.56-2.7,4.99-4.08,1.19-1.15,1.17-4.7,3.66-5.26,5.21-1.19,7.41,3.83,9.21,7.42l3.69,7.33,4.96,9.07c2.47,4.52,4.39,9.32,7.43,13.6l2.91,4.11c1.33,1.88,3.06,3.62,4.53,5.42l6.93,8.5,3.31,4.21c2.82,3.59,5.53,7.31,7.72,11.25,1.44,2.59,2.17,5.41,3.16,8,2.27,5.9,3.74,9.3,4.78,15.78.24,1.53,1.75,3.46,2.15,5.03.96,3.77,2.42,6.91,4.55,10.03l2.49,3.64.85,3.54c1.83,1.93,2.89,3.86,2.97,6.57.07,2.39,2.38,6.59,3.41,12.83l1.65,9.97,2.57,18.12c.33,2.36,2.32,5.02,2.35,7.37.06,4.53,1.46,7.98,2.26,12.32l1.42,7.67c.79,4.27,2,8.38,2.23,12.76.21,3.96.87,7.51,2.24,11.24,2.89,7.9,1.25,8.1,3.46,15.97l8.56-4.88,5.88-3.13,8.66-4.87c8.37-4.7,10.9-3.29,17.47-6.07l6.7-2.84c2.4-1.02,5.17-1.3,7.5-2.05,2.49-.8,4.42-1.91,7.43-2.05l6.29-.3,7.63.96,13.87,1.12c4.78.39,12.51,3.16,16.47,2.06,6.53-1.81,12.95-1.7,19.46-3.24l5.12-1.21,11.04-1.79c1.97-.32,3.48-.79,5.34-1.14l11.96-2.23c4.07-.76,7.47-2.98,11.55-3.97,3.15-.76,5.83-2.71,8.82-4.02,1.54-.68,3.79-.93,5.09-1.93l7.1-5.49c4.58-3.54,6.1-9.69,8.46-14.64,1.35-2.83,2.4-5.26,3.34-8.26.7-2.24,3.56-3.22,5.18-4.63,1.84-1.61,2.8-2.12,5.47-1.42,1.58.42,4.45-.27,5.94.94,4.37,3.59,9.65,6.16,12.72,10.68l5.89,8.65c1.44,2.12,2.23,4.7,3.54,6.95l2.96,5.08c1.29,2.22,2.26,4.39,3.23,6.77l2.93,7.13c.37.91,1.42,2.31,1.5,3.24.25,3.09,1.88,4.5,4.03,6.31,5.5,4.62,5.57,7.59,5.97,13.86.12,1.89-.44,3.65-1.08,5.31l-2.94,7.66-2.15,4.88c-1.2,2.72-1.45,5.99-2.07,9-.7,3.37-1.42,6.92-.45,10.19,1.78,6.01.51,11.82.24,18.05l-.25,5.76c-3.89,8.62-2.46,8.33-7.18,17.72l-2.19,4.35c-1.04,2.06-2.33,3.7-3.16,5.92l-1.87,5.05c-.9,2.41-2.45,4.1-3.11,6.58-.94,3.54-2.72,6.98-4.94,9.84l-4,5.17c-1,1.29-1.98,3.31-2.77,4.66-2.27,2.46-4.48,4.73-6.24,7.68-1.44,2.42-3.14,4.44-4.86,6.64s-3.12,4.88-4.92,7.05l-3.01,3.65-2.47,3.1-5.58,5.14-3.4,4.22-2.88,3.51c-1.7,2.07-3.18,3.4-5.06,5.09l-6.48,5.84-4.46,3.04c-1.69,1.15-3.42,2.25-4.96,3.55l-5.53,4.68-5.79,4.17-6.52,5.43-3.94,3.06-7.68,5.93-4.95,4.9-5.97,4.44c-1.12.83-2.04,1.62-3.11,2.54l-8.33,7.16-6.53,5.47c-2.08,1.75-4.35,2.94-6.55,4.48-3.47,2.42-6.38,5.36-10.4,7.07-3.54,1.5-6.41,3.71-9.36,6.23-.75.64-2.92,1.09-3.85,1.64-1.7.99-3.14,1.73-4.96,2.46l-8.63,3.47-5.17,2.39c-.34.16-.94,1.54-.59,1.62l1.63.37c.85.19,1.95.65,2.84,1.02l5.25,2.19c2.72,1.14,5.71,2.07,6.8,5.14l2.79.33,3.74,7.09,5.41,10.6c2.57,5.04,1.97,1.18,6.65,7.25s7.03,8.37,11.27,14.1l7.07,3.18c1.95.88,2.86,3.41,4.73,4.38,14.16,7.3,10.06,6.49,20.95,14.24l4.2,2.99c2.23,1.59,4.28,2.76,6.58,3.99l8.16,4.36c1.54.82,2.85,1.82,4.21,2.77,5.55,3.88,9.57,8.78,13.16,14.39,1.65,2.58,3.25,4.71,4.22,7.84.75,2.44,1.89,5.44,3.52,7.43l2.72,3.32c1.48,1.81,2.11,3.77,2.92,6.05,2.81,7.97,4.39,6.14,6.38,11.39l2.36,6.22c1.02,2.7,2.09,10.79,2.77,12.88,3.57,11.04.79,10.78,2.93,18.09.52,1.79,1.01,3.24.83,5.1l-1.22,12.52c-.13,1.36.33,3.03-.55,4.19-1.32,1.74-2.32,3.51-3.41,5.26-6.73,3.47-8.02.89-15.29.95-3.88.03-7.66.08-11.49-.2-2.96-.21-5.63-.25-8.53-.15-1.84.06-3.77-.14-5.69.15-1.57.24-2.55-.39-4.05-.92-2.9-1.03-6.52.07-9.59-.15-2.8-.2-6.3-1.12-8.81-.98-.65.04-2.18.8-2.81.78-1.16-.04-3.32-.11-4.24.25-3.51,1.37-6.67,1.85-10.23,2.68l-6.48,1.52-5.03,1.24c-3.28.81-6.28,1.06-9.69.49l-5.53-.93c-4.25-.71-5.26-2.22-7.17-2.93l-7.69-2.84c-4.08-1.51-7.53-2.48-12.02-2.21l-7.46.45-7.87.16c-3.62.07-6.16.49-9.74.01-1.84-.24-4.57-.31-6.5-.42-3.06-.18-5.3.31-8.21-1.23-4.06-2.15-15.38,5.97-24.9-5.44-1.87-2.24-5.74-1.7-10.5-3.21l-7.26-2.31c-6.56-2.08-10.52-6.99-13.41-8.33-2.45-1.13-4.49-2.33-6.7-3.79l-3.35-2.21c-1.54-1.02-3.79-2.07-4.96-3.38-1.34-1.5-3.03-3.1-3.99-4.44-1.22-1.69-1.37-3.66-3.24-4.98l-5.52-3.89c-.4,1.1-.81,2.62-.55,3.33.88,2.44.94,4.46,1.33,6.94l.72,4.51.13,13.03c.08,7.29,3.6,8.08,5.11,15.13.99,4.59,3.17,10.39,5.34,14.38.96,1.75,1.27,4.16,2.09,5.98,2.1,4.64,3.52,9.02,4.51,13.97,2.39,11.93,1.99,12.67,2.61,24.5.18,3.43-.2,6.22-.48,9.71l-.41,5.15c-.16,2.02-1.08,3.71-1.33,5.67l-2.25,17.39c-.27,2.07-.63,4.34-1.05,6.37l-1.55,7.51c-.3,1.44-.76,3.39-1.25,4.73l-1.6,4.38c-2.94,8.03-5.04,7.46-5.76,13.66-.42,3.6-5.46,7.54-6.19,10.99-.52,2.46-2.11,3.26-3.1,4.99-1.76,3.06-2.56,6.62-5.68,9.03-1.98,1.52-2.84,3.94-3.79,6.24l-4.54,10.93c-2.91,7-3.41,5.16-5.04,11.65-.53,2.1-1,4.38-1.39,6.66-.47,1.38-1.78,4.45-2.9,5.47-2.41,2.19-4.84,4.26-7.39,6.35-2.84,2.33-5.6,4.24-7.92,7.16-1.16,1.46-2.88,2.56-4.26,3.72l-4.9,4.14-2.29,2.6c-2.26,2.56-5.03,4.19-7.72,6.66ZM510.49,427.64c.83.5,2.66.85,3.54,1.32l5.36,2.81c2.49,1.3,4.55,2.4,7.34,3.21,2.48.73,4.96,2.35,7.36,3.46l8.88,4.12c6.87,3.18,5.39,2.85,12.46.62,2.32.99,4.47,2.64,6.9,3.03l7.71,1.22,5.66,1.57c4.19,1.16,6.09,6.07,9.67,6.78.99-5.85,5.53-6.4,5.6-11.17.04-2.93-4.45-1.75-5.76-2.44-.34-.18-.68-1.3-.52-1.65,1.23-2.63,4.54-.8,10.06-4.17,3.39-2.07,5.49-4.4,6.26-8.39l1.73-8.91,1.68-8.1c.77-3.7,1.99-6.81,3.19-10.24l2.26-6.48c.3-.86.18-2.82-.14-3.8-1.15-3.59-.19-6.92-.4-10.47-.26-4.26-.61-8.58-1.62-12.7l-1.66-6.78c-.21-.87.68-3.05.48-3.89l-1.44-4.74c-1.77-5.85-2.57-11.72-4.59-18.52-.77-2.59-3.02-5.51-4.6-7.7l-2.81-3.87-4.36-6.94c-3.64-5.8-6.94-10.75-7.62-17.67l-.75-7.63c-.27-2.72-.16-5.28-.24-7.94-.05-1.6-.7-3.74-.65-5.55.09-3.49-.02-6.6-.29-10.04-.13-1.57-.8-2.98-.92-4.61l-.44-5.74c-.25-3.29-.66-5.88-.46-9.14l.54-8.99c.12-2.01-.55-4.17-.02-6.17.7-2.65.33-5.11.28-7.85s1.04-5.81-.21-8.39c-1.61-3.33-2.91-8.7-3.57-12.54-.34-1.96-2.44-3.97-2.89-5.8-1.1-4.39-2.58-8.16-4.35-12.29l-4.2-9.78-3.3-8.81c-5.54-14.77,2.23-21.37-6.22-33.45l-4.21-12.54-3.3-9.31c-.39-1.09-1.42-2.18-1.43-3.57-.06-7.95-6.29-2.05-11.53-16.59-.97-2.7-5.01-3.99-7.37-5.12-1.76,1.62-4,2.88-5.07,4.59l-2.94,4.68c-2.68,4.27-5.94,7.57-9.51,10.96-2.18,2.07-4.18,4.75-6.55,6.42s-3.85,3.12-5.55,5.61c-1.51,2.22-5.08,3.55-6.08,6.27-2.56,7-2.08,8.21-5.36,16.17-1.63,3.95-3.61,7.47-5.81,11.24-2.01,3.45,2.3,6.36-7.41,22.61-1.17,1.96-1.5,4.8-2.42,7.03-3.75,9.13-2.77,2.34-5.44,12.4-.71,2.69-5.87,11.84-7.77,14.46-6.48,8.94-8.89,8.52-14.55,16.49-1.22,1.72-2.28,3.32-2.92,5.5-.59,1.99-1.82,3.42-2.84,5.04l-4.26,6.77c-4.89,7.76-2.93,6.07-5.7,11.36-4.33,8.26-5.16,14.71-12.64,22.85-5.57,6.07-4.31,3.8-11.29,8.74-1.68,1.19-4.67,2.65-4.81,5.13-.21,3.68-.25,7.19-.13,10.95.09,2.71,2.09,5.32,3.06,7.73,2.55,6.35,5.38,8.15,4.73,11.75-.24,1.34-2.08,2.5-3.01,3.68-1.72,2.17.44,5.15,1.23,7.18,6.38,16.46-1.61,23.75,10.57,26.02.58.8.71,3.32-.11,3.88-3.23,2.07-8.3,2.22-10.89-.8-.81-.95-1.03-2.34-2.54-2.61l1.22,14.38c.2,2.39.64,4.31.26,6.8-.58,3.77,4.3,3.22.55,24.92l-.82,4.77c-2.39,13.83,2.95,17.37,2.64,22.29-.08,1.31.67,2.13,1.28,3.21,2.29,4.09,3.05,9.65,5.07,8.16,5.14-3.8,10.1-6.65,15.66-9.48,1.12-.57,2.57-1.83,3.72-2.08,7.64-1.68,6.24-2.83,13.27-4.76,13.2-3.62,9.22-7.78,28.02-5.58l12.58,1.47c2.4.28,5.33-1.41,7.51.15,1.18.84,2.36,1.76,3.94,1.39,2.13-.49,5.05-.65,6.55.83,4.68,4.65,2.93-.16,9.49,3.78ZM495.01,109.45l4.27-5.26c2.38-2.16,4.39-4.64,5.98-7.41l4.5-5.68c.63-.8.92-2.32.45-3.24-2.75.87-4.52,2.31-6.52,3.91-1.13.91-3.13,1.9-3.72,3.05-3.48,6.87-2.9.96-6.95,14.02-.1.32.35,1.32.66,1.27s1.12-.4,1.32-.65ZM576.68,138.01c-.81-4.05-1.43-7.89-3.36-10.76l-3.85-5.71c-1.65-2.44-3.69-4.59-5.69-6.78-1.25-1.37-2.03-3.24-4.56-2.6l2.42,6.99c1.21,3.49,3.23,5.88,5.57,8.67.44.52,8.27,11.46,9.47,10.19ZM584.73,176.15l2.95,3.7c.31.32,1.9-.45,2-.94.42-1.95-.71-4.73-1.21-6.73-2.65-10.71-7.3-20.69-16.58-27.66.21,2.79.91,5.42,1.94,7.61l2.42,5.15,3.45,7.64c1.62,3.58,4.83,7.19,5.03,11.22ZM622.93,347l-.37-6.95-.99-3.07c.12-2.4-.48-4.54-2.22-6.34-.41-7.34-.71-3.42-1.98-10.57l-1.66-9.4c-.99-.77-2.73.5-3.75,1.39-1.17,1.02-3.37-.69-4.29-1.62-1.8-1.82-2.48-4.17-.74-5.92l6.06-6.12c.28-5.29-.12-10.79-1.47-15.84-.23-.85-.93-2.11-.96-2.91l-.23-6.16c-.06-1.5.26-3.45-.32-4.86-1.41-3.38-2.61-6.67-4.29-9.8-1.41-2.62-2.97-4.48-2.61-7.96.12-1.11-.53-2.89-.72-4.09l-2.26-13.84c-1.14-6.99-2.74-14.12-5.48-20.64-.98-2.33-2.06-3.89-2.52-6.58-.48-2.82-2.2-5.78-3.21-8.53-1.39-3.8-3.24-6.67-5.77-9.79l-2.95-3.65c-1.45-1.79-3.03-4.12-4.03-6.19l-2.51-5.14-7.44-16.04c-.64-1.37-.88-2.71-2.93-2.94.33,4.26,1.52,7.93,2.73,11.93,1.63,5.41,4.63,10.77,6.8,16.67l2.29,6.2,2.65,7.33,3.75,10.36c2.05,5.67,3.04,11.95,3.21,18.15.15,5.57-.65,10.99-1.04,16.58-1.17,16.75,1.89,22.63,1.68,30.83-.09,3.47-.48,6.6-.05,10.02.36,2.87-.12,6.03.45,8.7l2.31,10.86c1.76,8.3,14.08,21.34,17.16,30.58l2.99,8.98c2.67,8.02,2.25,7.43,3.35,16.31.19,1.5,1.16,2.5,2.63,2.78-.81,2.61-.83,5.29-.1,8.06.83,3.16.12,6.48.11,9.65l-.02,4.84c0,.46.61,1.9.99,1.66.3-.19.96-.98,1.04-1.43,1.12-6,8.11-9.48,6.72-35.52ZM462.41,181.13l2.23-2.56c.13-7.3,2.26-5.85,2.79-10.16-2.68.97-3.63,3.26-4.5,5.6l-4.4,11.79c3.04.63,3.19-2.5,3.88-4.68ZM411.23,239.38l9.83-10.88,5.64-6.85c1.89-2.3,4.72-4.09,6.23-6.68.95-1.64,1.84-3.26,2.98-4.73,1.78-2.28,4.61-4.34,5.54-7.23l1.51-4.7c.8-2.49,1.81-5.01,1.47-7.63-1.1-1.59-5.03,3.47-6.4,4.78-6.75,6.51-2.34,1.99-7.41,9.21l-6,8.55c-1.15,1.64-1.76,3.45-2.75,5.27-3.29,6.02-7.69,11.2-11.38,16.95-1.58,2.47-2.84,4.88-3.36,7.67,2.67-.15,2.8-2.29,4.11-3.74ZM838.09,233.73c1.06-.42,2.46-.87,2.82-1.65.34-.73-.02-2.71-.73-3.32l-4.95-4.21c-1.67,2.56-2.98,4.83-4.46,7.37-1.08,1.85-2.71,3.16-2.89,5.62,3.8.49,5.31-1.87,10.22-3.82ZM774.08,437.59c3.19-2.38,6.12-5.33,9.4-7.44,3.01-1.94,5.66-3.47,8.07-6.02,3.23-1.26,4.14-2.59,7.98-5.62,3.88-3.06,7.26-6.64,10.93-9.97l5.56-5.03c5.12-4.64,10.42-8.86,14.04-15,1.56-2.65,3.02-4.96,5.25-7.37.75-.81.56-3.38.93-4.47,2.27-6.59,1.96-8.22,5.55-11.89l2.98-3.04.96-3.52,3.57-3.84c.28-2.71,1.33-4.31,2.56-6.48l2.04-3.59c1.1-1.93,1.39-4.41,2.19-6.4.73-1.84,1.93-3.25,1.94-5.5,0-.95.72-2.6.79-3.49.39-4.94,1.69-9.11,4.43-13.23.81-1.21.85-4.24,1.38-5.56,1.69-4.26.28-8.04.65-12.15.66-7.25,3.63-17.01,2.39-23.1-.29-1.44.11-3.84-.28-5.22-1.69-6.08-1.25-7.56-8.04-10.1l-3.57-4.21c-.27-.31-1.63-.51-2.06-.45s-.74,1.02-.68,1.47c.64,5.37-.85,8.9.11,14.96l.96,6.11c.28,1.77.19,3.73-.22,5.51l-1.34,5.82-2.28,10.15-1.22,6.3c-.18.94-1.86,2.45-1.68,3.71.45,3.04-.09,5.84-2.09,8.07l-5.3,5.9c-2.46,2.74-4.24,5.65-6.51,8.57l-6.82,8.78c-1.01,1.31-2.19,3.5-2.73,5.04l-3.12,8.94c-.65,1.86-1.2,3.75-2.14,5.54-3.24,6.12-1.03,3.58-4.64,9.86-1.1,1.91-1.92,3.72-2.62,5.88-.79,2.42-1.96,4.59-2.94,6.85l-4.73,10.91c-.88,2.04-5.45,8.87-6.91,9.9-6.13,4.32-2.19,3.25-7.38,7.23l-3.43,2.63-2.02,2.66-6.72,4.9-3.79,3.34c-3.98,3.51-7.7,6.49-10.78,10.89-1.95,1.46-4.8,3.07-7.28,4.5-.47-2.86,1.42-4.18,3.38-5.57.85-.6,1.53-2.41,2.2-3.23l3.85-4.74,2.45-3.08c1.3-1.64,3.9-2.83,5.47-4.38,1.99-1.96,3.89-3.7,6.12-5.36,5.87-4.37.98-2.16,7.62-7.58,1.33-1.09,7.2-7.49,7.54-8.11l3.77-6.87c1.2-2.18,1.65-4.34,3.33-6.31s.48-5.99,5.16-10.43c1.25-10.75,3.99-6.13,7.74-20.76,1.09-4.26,3.5-8.09,5.11-12.13.62-1.56,1.17-2.69,2.19-3.89l3.25-3.8c1.26-1.48,3.04-3.21,4.05-4.8,2.02-3.16,3.88-5.87,6.35-8.84,5.42-6.54,5.24-8.11,7.69-16.74,1.51-5.31,1.44-11.11,3.44-16.44,1.28-3.41,1.04-7.18.38-10.76-1.78-9.7,2.28-20.03-.31-28.33-.91-2.91-1.94-5.4-2.47-8.7l-4.84.78c-3.01,3.53-7.92,5.76-12.06,7.63-1.82.82-3.97,2.45-5.83,2.86-6.72,1.5-5.47,6.4-10.49,11.77-2.59,2.77-6.41,4.3-9.25,6.61-4.79,3.89-9.79,5.96-15.8,7.05l-11.74,2.13c-7.52,1.37-9.87,3.4-18.55,3.91-5.53.33-11.05.3-16.64.08-1.61-.06-2.96-.1-4.62,0-13.43.81-5.37-.92-12.9-1.43l-10.73-.73c-4.57-.31-9.15-.1-13.67-.05l-12.16.13c-2.32.03-5.03-.29-7.46-.41l-9.96-.5c-3.3-.17-5.47.85-8.12,2.5-3.77,2.35-8.22,3.96-10.36,8.28-.55,1.11-1.61,2.1-2.33,3.08-3.82,5.18-5.53,11.46-7.8,17.41-1.21,3.18-3.81,5.96-4.54,9.32l-1.24,5.72c-.64,2.93-.09,6.31-.32,9.38-.64,8.23-.36,11.2-1.21,20.05-.12,1.22.39,3.66.36,4.87-1.4,3.41-1.12,6.55-1.71,10.1l-1.55,9.26c-.56,3.34-.95,6.54-1.57,9.86l-1.18,6.35-2.71,11.26c-1.06,4.41-1.78,8.82-3.51,12.99l-3.08,7.45c-2.22,5.38-6.42,16.45-10.03,20.39-6.83,7.45-5.76,3.31-11.94,10.53l-3.6.54c-2.27.34-2.95,3.56-2.37,5.47,3.12,10.25,2.94,5.43,6.34,14.42l2.72,7.18c.54,1.42.68,3.15.68,4.74l.04,7.05c.03,4.65,1.57,12.01,1.13,16.75l-1.48,16.18c-.08.9.2,7.24,1.97,8.28,3.5,2.06,7.13.38,10.14-1.49,1.86.2,3.98.36,5.95.09,11.47-1.58,14.13,2.84,16.35.93,1.03-.89,3.78-.29,4.89-.89l6.45-3.48c11.68-6.29,12.11-.98,23.21-3.15l-4.11-6.82c-.61-1.01-2.32-2.67-2.37-3.84-.11-2.57-.79-4.05-2.22-5.93l-4.42-5.78c1.1-1.73,4.77-2.6,7.66-.04,7.97,7.03,1.94,8.62,8.7,13.43,1.84,1.31,2.11,4.51,2.97,6.46,2.31,1.32,4.59-1.26,6.42-2.33s3.82-2.17,5.14-3.98l5.93-8.12c3.25-4.44,6.15-4.57,8.05-6.3,2.06-1.88,4.01-3.24,5.93-4.73,2.61-2.03,4.9-3.96,7.79-5.82,1.32-.85,5-5.69,6.9-6.92,3.81-2.48,6.61-6.06,9.93-9.03,1.92-1.72,3.33-3.15,4.75-5.5,1.04-1.73,3.03-3.28,4.45-4.85l8.09-8.94c1.62-1.79,3.35-3.24,5.16-4.91.91-.83,1.86-2.26,2.85-3.04l9.49-7.54,5.79-4.24,4.57-3.41ZM240.89,252.54c1.01-.03,2.4-1.94,2.2-2.78-.18-.75-1.7-1.84-2.49-1.85l-7.42-.05c-10.5-.07-.3-1.4-12.17-.47-1.23.1-2.1.64-2.07,1.92.02.64,1.01,1.18,1.88,1.4l4.31,1.05c2.15.52,5.2,1.13,7.31,1.06l8.44-.28ZM294.06,248.4c-1.22-.32-3.35-.88-4.39-.77l-5.71.57c-1.23,2.4,11.8,4.01,10.1.2ZM404.36,276.3c1.35-1.63,2.66-3.14,4.28-4.08,1.83-1.06,2.26-3.38,3.39-4.55,2.7-2.79,3.42-5.41,5.07-8.84l3.16-6.57c-2.67-.78-4.97,1.4-5.58,3.94s-2.37,4.14-3.62,6.27l-2.8,4.79-2.93,5.04c-.77,1.32-2.56,2.34-.97,3.99ZM792.24,261.64l4.39-2.82c1.37-.88,3.61-1.26,2.52-3.65l-2.21,1.71c-3.39.93-7.21,1.61-9.11,5.26,1.28.84,2.96.43,4.41-.5ZM359.75,313.51c1.31,1.28,2.69,2.14,3.58,3.63.99,1.66,2.51,2.56,3.88,3.75l5.03,4.39,3.38,2.95c1.44-1.3.69-2.83.73-4.45.2-8.06,1.74-11.73-3.42-15.26l-12.19-8.35c-1.09-.75-2.39-1.32-3.57-2.05l-6.7-4.14c-3.51-2.17-8.47-5.48-11.59-7.89-2.24-1.74-4.61-3.59-7.02-4.89-7.08-3.84-3.47-3.24-11.16-6.06-2.89-1.06-12.32-3.32-15.71-3.74-2.57-.32-4.92-.88-7.39-1.51-7.54-1.92-5.53-3.04-13.08-4.93-7.29-5.39-15.64-5.9-24.59-5.61l-9.79.32c.45-.01-13.87,1.5-14.68,1.89l-.03,2.3,3.69.9c2.87.7,5.31,1.63,7.82,3.3.71.47,2.46.86,3.23,1.29,1.91,1.07,3.65,2.28,5.82,2.63s4.5,1.22,6.46,1.33l9.05.54c6.13.37,12.17-.05,18.24,1.05,2.55.46,5.06,1.65,7.67,1.55s5.9-1.27,8.35-.73l7.97,1.74c5.16,1.13,9.03,3.95,9.43,4.07l4.58,1.27,9.83,5.66c3.65,2.1,5.05,6.02,7.3,9.26,1.99,2.85,5.87,7.04,8.39,9.49l6.47,6.3ZM786.45,262.42c-2.86-.7-8.4,2.66-8.38,2.98l.09,1.7c.4,1.01,9.84-2.31,8.29-4.69ZM223.78,497.82c.86,1.29,1.25,2.81,2.24,3.65,3.05,2.57,3.37,3.84,7.44,7.53l6.59,5.98c1.89,1.71,3.89,3.16,6.01,4.53,3.34,4.01,3.92,3.16,8.2,7.67,1.92,2.02,4.01,3.61,5.84,5.69l5.37,6.13,10.38,9.3c.82.74,2.37,1.77,3.32,2.46l9.64,7.01c1.02.74,3.76,1.13,5.08,1.38,2.22-1.98,4.77-3.68,7.18-4.91l8.68-4.42c1.51-.77,3.46-1.83,4.94-2.32l5.03-1.65c3.3-1.08,6.74-1.98,9.85-3.42s5.57-2.13,8.89-2.75c1.33-.25,2.89-1.15,4.59-1.22,1.52-.06,2.42-1.98,2.51-3.4l.25-4.16c.17-2.78,1.18-5,1.77-7.65l1.55-6.94c2.68-12.02,1.88-.1,3.96-15.74.19-1.41.29-2.51.65-3.83.9-3.27.58-7.22,1.81-10.3l1.99-5.01,2.55-6.46c.76-1.92,4.41-6.99,5.38-7.91l3.15-2.96,4.85-4.59c1.65-1.57,3.69-1.97,5.73-.26,1.64-.99,3.45-2.06,4.88-3.2l4.71-3.76,7.66-6.01c.68-9.62-.36-1.58-2.04-11.29l-1.47-8.49c-.25-1.42-1.48-2.7-2.44-3.98-1.49-2-1.71-4.8-2.17-7.28-.37-2-1.15-4.25-1.15-6.15.02-7.03-2.17-2.83-2.89-13.1-.86-12.24.19-14.75-.96-26.45-.44-4.44-.18-8.43-2.12-12.56-1.49-3.17-.62-7.17-1.56-10.18-.56-1.8-1.86-3.02-1.69-5.34.14-2.01-.71-5.32-2.54-6.24-5.44-2.73-6.97-3.48-11.08-8.01l-5.28-5.81c-8.11-8.94-8.21-5.68-18.67-19.33l-4.34-5.66c-.69-.9-2.14-2.69-3.07-3.23l-9.58-5.05c-1.62-.86-3.09-1.75-4.58-2.9l-3.2-.34c-10.75-5.72-12.25-.95-26.2-3.18-2.29-.37-5-.38-7.37-.59l-5.61-.5-10.41-.22c-2.11-.04-4.37-.21-6.4-.7l-6.72-1.61c-8.98-2.15-5.18-3.29-14.12-6.18l-7.77-2.51-4.46-1.49c-10.98-3.66-.75-3.99-16.45-2.97l-5.1.33-13.59,1c-1.04.08-14.66.2-12.94,3.46.96,1.82,8.22-.06,15.59,1.82,2.27.58,4.34.73,6.67,1.31l7.8,1.96,4.81.89c2.95.54,6.52.29,9.35,1.13l6.99,2.08c1.31.39,3.16,2.66,4.01,3.8,4.27,5.75,9.15,5.64,14.51,7.71,2.39.93,4.36,3.69,6.9,4.39,2.27.63,4.85-.32,7.14,1,.64.37.27,2.2-.41,2.42-1.17.38-2.42,1.27-2.43,2.07s.63,2.15.9,2.86c1.86,4.93,5.53,7.34,9.85,10.27l6.73,4.56,5.56,2.65,2.72,3.09c2.58-.17,4.06,1.55,5.9,2.56l5.52,3.05c1.36.75,3.38,1.27,4.81,2.2,4.62,2.98,6.61-.02,8.72,3.03.4.58.07,2.34-.6,2.35-6.58-2.24-3.24.45-8.04-1.92l-4.64-2.29-6.81-2.2c-1.79-.58-3.06-1.86-4.6-3.07s-4.28-1.92-5.6-3.24c-1.54-1.54-2.61-1.85-4.62-2.76-1.42-.64-3.36-1.93-4.81-2.85l-5.26-3.32c-2.44-1.54-4.4-4-6.43-6.1-4.9-5.09-.92-3.44-5.74-8.65-2.19-2.36-4.52-3.45-7.64-3.98-5.38-.92-3.18-2.89-12.42-5.36l-8.33-2.22c-3.7-.99-.72,1.81-11.06-4.02-8.84-4.98-10.98-5.88-20.83-7.88-3.04-.62-5.64-.36-8.71-.27l-13.22.4c-7.01.21-13.69.22-20.88.23-.84,0-2.13.68-2.53,1.25s-.46,2.32-.03,2.96l4.19,6.29c1.15,1.73,2.06,2.84,2.17,5.02l.45,8.61c.09,1.74,1.35,4.12,1.81,5.94.93,3.74,1.91,7.27,3.31,10.77l2.19,5.46c2.4,6,6.03,17.4,6.81,23.63.56,4.43,1.58,8.84,1.45,13.24l-.35,11.88c-.17,5.8.08,11.19.16,17.04l.17,12.39,1.64,12.02c.43,3.16,2.52,6.75,4.35,9.26l2.37,3.24c2.29,3.13,4.8,5.93,6.63,9.35l7.13,13.34,2.32,4.61c1.05,2.08,2.1,3.62,3.7,5.48,1.02,1.19,1.6,3.6,2.56,4.92l6.56,9.02c1.34,1.84,2.42,3.98,3.07,6.11.6,1.96,2.24,2.53,3.28,3.85,3.7,4.67,7.03,9.55,10.45,14.67ZM370.31,295.7c-2.49-3.3-5.02-6.33-8.07-8.4-1.21-.82-2.17-1.38-3.18-2.36-2.35-2.26-5.73-3.13-8.47-4.6s-5.41-2.7-8.38-3.77c-1.81-.65-3.43-2.16-5.4.11,1.45,1.09,2.76,2.03,4.22,2.88,3.22,1.87,5.9,4.38,9.04,6.28l5.37,3.25,9.87,6.12,2.15,1.74c.56.45,2.89.12,2.84-1.25ZM229.06,283.94c-2.61-1.65-10.96-5.4-12.4-2.27,1.02,1.45,2.65,2.3,4.48,2.75,2.24,1.7,5.43,2.94,7.92-.49ZM149.58,324.85l-1.01-11.88c-.4-4.7-3.26-8.45-5.41-12.39-1.75-3.22-3.9-5.71-6.36-8.4-1.01-1.1-2.21-3.5-4.17-1.76-.08,2.01-.55,5.79.11,7.95,1.91,6.25,5.7,11.4,9.09,16.8l2.11,3.35c1.51,2.4,2.02,5.24,5.64,6.33ZM394.4,361.09c-.44-3.38.03-6.1.85-9.33,1.02-4.04-.15-8.54.4-12.66.24-1.8.56-3.38-.11-4.93-1.39-3.2-2.22-6.42-5.51-8.49-.03,4.76-.23,8.98.12,13.3.38,4.69,2.03,9.27,1.65,13.99l-.69,8.58c-.21,2.66.16,6.07,3.46,6.95,1.8.48.19-4.62-.17-7.41ZM394.82,392.97c.64-4.22,1.67-14.31-2.84-15.58l1.38,12.07c.15,1.34-1.46,3.22,1.45,3.51ZM728.81,490.86c2.54.73,2.3-1.05,3.23-1.85,2.21-1.91,4.46-3.87,6.77-5.63,1.4-1.06,2.71-1.77,2.94-3.64,3.35.63,6.24-4.61,7.33-5.82,1-1.1,3.64-2.03,5.01-3.27l9.46-8.61,2.98-2.55c2.14-1.84,4.24-3.34,6.49-4.97s4.26-3.75,6.4-5.62l10.16-8.82c1.49-1.3,2.3-2.87,4.24-3.83.83-.41,1.39-1.72,2.06-2.52,5.7-6.8,9.4-8.13,16.6-13.58-2.29-1.71-3.17.26-4.52,1.29l-3.3,2.52c-1.93,1.47-4.09,2.14-5.96,3.56l-9.5,7.23-5.49,4.44-5.69,4.33c-1.62,1.23-3.19,2.36-4.76,3.69l-4.3,3.65c-1.6,1.36-3.21,2.42-4.72,3.82l-5.99,5.57c-1.83,1.7-5.06,5.49-6.4,7.68-.71.49-2.1,1.33-2.83,2l-6.05,5.54c-1.63,1.5-2.96,2.82-4.41,4.67-3.51,4.47-6.84,6.52-9.75,10.71ZM771.61,467.5c1.07-.49,2.29-2.34,3.25-3.05,1.84-1.34,3.41-2.48,5.07-4.04s3.91-2.5,5.58-3.88c2.69-2.23,5.14-4.49,7.97-6.57,2.44-1.79,4.58-3.54,6.85-5.59,2.81-2.53,5.71-3.97,7.51-6.55l3.48-5.02c1.9-2.74,4.86-4.46,6.23-7.91-2.03,1.15-4.45,2.01-5.84,3.19l-5.19,4.41-4.35,3.29c-6.12,4.62-2.79,5.12-7.35,8.01-1.72,1.09-2.96,2.82-4.41,4.07l-7.82,6.71-4.39,3.66-8.27,7.22-3.96,3.41c-1.8,1.55-4.94,1.93-4.11,5.48,7.05-3.4,3.13-3.82,9.76-6.84ZM434.79,457.86l1.23-5.68c1.12,1.28,1.75,2.19,2.57,3.32,1.22,1.71,3.55-.31,4.97-.86,10.56-4.12,16.92.51,24.83-6.36,2.29-1.99,5.28-3.3,7.83-5.05l4.17-2.85c2.11-1.44,4.11-2.8,6.46-4,1.11-.57,3.81-1.45,3.05-3.38-.89-2.27-4.14-3.01-6.34-3.66-3.37-.99-8.42.41-11.09,2.01l-7.27,4.35c-6.75,4.04-10.28,6.7-18.05,10.3-2.36,1.09-5.29,1.46-7.75,2.38-8.93,3.33-7.28.05-13.84,4.6-1.46,1.01-3.67,1.21-5,2.82-.56.68,1.11,1.74,1.87,1.61,2.17-.35,3.95-.21,6.1-.05l6.27.48ZM414.29,452.42l8.12-5.55c4-2.74,9.23-4.06,14.07-4.7,2.67-.35,4.87-.77,7.16-1.9,1.26-.29,2.68-.65,3.71-1.26l10.12-5.96c.51-.3,1.17-1.23,1.06-1.72-.48-2.08-9.76.47-11.94.95l-7.67,1.72c-2.12.47-4.89,1.53-6.72,2.63l-4.42,2.66-7.2,3.8-7.77,4.26c-.86.47-1.5,2.33-1.28,3.19s1.86,2.48,2.76,1.86ZM403.77,479.34c2.97,4.39,2.87,11.06,6.75,14.07,4.41,3.42,5.01,5.3,11.21,7.71,2.12.82,2.83,1.72,4.36,3.32,4.56,4.77,5.92,6.35,9.94,11.72,1.6,2.14,3.55,4.45,4.83,6.86.13.24.55.73.72.85.15.11.29.05.44-.1.14-.14.17-1.39.03-1.53-1.66-1.6-2.47-6.36-3.91-8.31-2.46-3.34-5.01-5.78-6.4-9.77-1.13-3.24-3.06-6.42-3.99-9.72-.74-2.65.55-5.92-1.71-8.04-1.09-1.02-1.83-2.49-2.73-3.77l-3.89-5.51c-2.1-2.97-3.92-5.65-5.73-8.85-.9-1.59-3.28-4.08-5.48-3.07-3.99,1.83-12.18,13.19-14.53,17.44-1.21,2.19-2.07,3.86-3.8,5.81-4.74,5.32-3.03,12.5-9.69,17.86-.56,1.64-1.59,4.76-1.66,6.56l-.35,9.1-.29,9.97-.19,5.03-.18,5.04c-.1,2.78.3,5.27.82,8.05.42,2.25.08,5.02.89,7.16l4.09,10.83c.88,2.32,2.92,1.62,4.54,1.66,3.34.09,1.85,5.72,7.71,9.4,2.04.49,3,1.11,4.41,2.47l5.44,2.49c9.71,4.44,4.11.94,12.32,3.43,2.78.84,6.03,1.04,8.98,1.37l7.77.89c2.76.32,5.71,1.18,8.57,1.86,1.75.42,4.83,2.43,5.67,3.97,1.31,2.41,2.08,5,3.1,7.61l2.84.13c1.13.05,3.23-.38,4.32-.5,3.85.85,7.93,1.59,11.94,1.98,1.49.15,3.49,1.17,4.76.04,1.71-1.52,2.7.47,3.76.35,2.08-.24,3.88-.67,6.05-.56,4.68.25,10.84,1.39,14.9-1.24,2.22-1.89,5.58-4.66,8.54-1.79l1.66,3.29c.44.88,1.88,1.84,2.68,1.77,1.77-.16,2.51-1.41,5.87-3.57,2.71-1.75,5.37-3.35,8.3-4.66l4.57-2.04c2.01-.9,3.46-1.7,5.8-2.3,6.51-5.2,8.91-13.32,14.77-18.67l1.59-3.66c1.99-1.91,4.79-6.05,5.84-8.45s3.91-4.65,4.27-7.4c.24-1.87.81-3.03,1.89-4.33l1.71-8.25.36-3.75c.52-5.48,1.57-10.54,1.27-16.15-.11-1.98.8-4.28,1.34-5.95l-1.57-12.89c-.14-1.14-.89-2.83-.77-4.04.38-3.9-.92-7.19-1.66-10.65-.64-3.02-.78-5.43-2.94-7.82-.63-.7-1.23-2.73-2.53-2.93l-5-.76c-1.7,2.56,3.13,2.74,4.12,4.07,1.26,1.69,2.7,4.81,2.21,6.8-.67,2.71-2.45,8.35-3.85,10.07l-5.19,6.37c-4.03,4.95-7.66,3.22-9.25,12.68-1.44,1.44-2.71,3.14-3.57,5.11-.58,1.33-2.7,2.59-3.43,3.84-1.99,3.39-4.81,9.52-4.63,13.59-1.63-.05-4.31-.53-5.38-1.77-.62-.72-1.08-2.99-1.08-3.67,2.7-1.64,1.27-.84,3.67-6.31,1.65-3.76,3.38-7.01,6.7-9.46.43-1.41.87-2.92,1.43-4.13,2.22-4.76,2.98-8.76,7.84-11.37,1.77-.95,2.06-1.47,3.01-2.89,1.97-2.93,3.86-5.74,5.65-8.85.89-1.54,1.1-3.1.23-4.82-2.73-5.38-.3-3.5-.77-9.61-9.92-.64-5.23,1.07-13.95-1.98-1.91-.67-4.89-2.38-5.99-4.01l-3.32-4.92c-.89-1.31-1.88-3.32-2.35-5.06l-.98-3.65c-.67-2.5-1.82-4.37-2.68-6.86-.73-2.11-4.87-6.67-6.95-8.62-1.14-1.08-2.36-1.44-4.1-2.07-1.32-.47-2.89-2.92-4.29-3.13-2.67-.4-4.51-.72-7.52-1.33.29,4.16-.52,8.96,1.05,12.54.81,1.86,4.22,7.47,1.59,9.6-.6.49-2.39.99-2.91.31-4.58-5.98-2.82-12.17-5.73-12.63l-2.3,4.41c-.37.72-2.67.25-3.17-.39-2.39-3.1,1.23-5.1.04-9.14-2.28,1.01-3.84,1.91-5.69,3.15l-9.85,6.66c-2.32,1.57-4.32,3.4-6.77,4.73-10.51,5.71-11.15,1.57-21.34,4.11-.7.17-1.67.96-1.98,1.63,3.95,2.71,7.01,7.67,8.09,12.12l1.76,7.3c.58,2.4,1.44,4.88,2.22,7.26,2.75,8.33.13,6.43,2.88,12.49.4.94-3.72,4.34-5.63,2.94-.83-.61-1.59-2.38-1.07-3.29,1.82-3.2-.61-5.92-1.07-8.46-.86-4.7-1.41-9-3.24-13.48-.84-2.04-.11-5.24-1.44-7.1l-4.62-6.49-4.82-1.16c-.78,1.24-.65,8.83-.26,10.75l1.03,4.98,1.55,7.41c.56,2.67,1.52,5.55-.72,8.17-1.63-1.41-1.96-2.92-1.87-5.1.04-.92-1.46-2.15-1.93-3.04-1.95-3.76-1.78-8.13-2.4-12.24-.45-2.99-1.04-5.77-1.65-8.74-.34-1.65-1.99-2.35-3.64-2.55-2.11-.26-5.43-1.7-7.18-.39-2.3,1.72-1.27,5.46.55,7.14,2.68,2.48,3.78,5.75,5.66,8.41,2.19,3.11,4.07,5.48,4.82,9.42.3,1.55,3.23,11.5,4.04,12.88l3.94,6.74c1.37,2.34,1.75,4.6,3.37,6.84.9,1.23,1.38,3.42,2.2,4.73,1.72,2.73,2.9,5.23,2.7,8.83l-5.33-2.1c.57,3.1,1.99,4.69,3.58,6.77,1.37,1.8,2.28,4.03,4.51,4.86-.69-2.99-1.99-6.16-1.6-8.77,4.05-3.83,3.7-8.33,8.69-12.05,1.27-.95,2.3-1.87,3.54-3.15.77-.79,3.13-.19,4.27.41,3.33,1.77,2.37,12.28,1.01,16.6-.55,1.74-1.47,4.19-.56,5.83-.38,1.52,9.66-2.13,10.41-2.62l5.88,2.06,1.11-5.62-4.96-1.4c-.83-.24-1.49-2.12-1.32-2.88.53-2.3,1.25-1.14,4.01-5.88,3.06-5.25,3.59-6.31,7.68-10.37,1.56-1.54,5.78.59,5.28,2.84-.95,4.23-3.99,11.38-1.44,13.33,1.95-.43,2.64-3.23,2.63-5.04l5.53.45c.89.07,1.49,1.56,1.29,2.58-1.26,6.31-3.23.22-1.06,8.98-1.46,1.43-1.73,2.85-2.11,4.73-.65,3.16-3.27,5.97-2.08,9.57,1.38.96,3.82,1.03,5.93,1.22,1.24.11,1.67,2.34,1.58,3.49-.07.88-1.2,2.62-2.1,2.57-7.11-.41-6.45-2.58-8.58-1.74-3.74,1.47-1.95,6.87-8.08,6.56-1.06-.05-3.02-.41-3.56-1.21-3.26-4.88,3.03-6.18.61-11.2-1.45-3.01-2.92-6.12-5.37-8.34l-4.23,1.59c-1.06.4-2.86,1.79-3.9,2.54l.56,4.85c.34,2.92,1.01,4.2,3.07,6.27,1.51,1.51,2.44,4.12,3.94,6.02.75.95,3.05,1.19,4.1,1.92,1.47,1.02,1.75,3.75,1.64,5.47-3.83-.53-7.91-.88-10.42-3.56l-6.89-7.36c-1.08-1.16-2.35-2.25-3.43-3.52-.69-.81-3.05-.93-4.23-1.44-.76-.38-.26-2.67-.37-3.54-.71-5.38-8.88-1.75-10.95-7.89l-2.89-1.01c-.57-4.28-2.18-2.88-5-8.48-5.55-11.06-7.3-10.13-13.65-20.2l-3.07.35c-.43-2.47-1.48-4.42-3.48-5.72-2.87-1.87-5.71-3.6-8.71-5.29-3.81-2.15-7.06-5.55-7.88-10.1-.47-2.61-1.05-5.51-1.17-8.18-.04-.86,2.45-2.22,3.19-1.7ZM563.1,472.61c-.48-4.42-1.66-6.95-3.43-10.46.43-3.38-1.59-9.38-5.57-9.86l-12.03-1.46c-1.37-.17-2.77-.27-4.15-.68l-6.16-1.83c-2.19,2.6.1,5.55,1.25,7.97l5.72,12.01c1.74,2,9.06,3.99,10.92,4.03l13.45.28ZM382.45,483.84c2.16-2.26,2.87-4.18,3.52-6.91l1.69-7.05c.99-4.13,3.55-5.71,7.36-6.61l6.34-1.5c1.83-.43,3.38-2.3,4.9-3.46,1.36-1.03,2.3-1.19,1.66-2.91-.59-1.59-1.68-1.38-3.18-1.33-4.41.14-7.58,2.03-10.77,4.94l-4.68,4.26c-1.67,1.52-4.05,2.43-5.72,3.74-1.16.91-2.11,1.74-3.59,2.65l-.09,17.17c2.34.5,1.71-2.12,2.55-3ZM572.61,465.84s-4.56-9.05-6.32-7.46c1.31,3.6,2.35,6.64,2.21,10.15-.02.5.82,1.62,1.3,1.57,1.17-.12,3.16-3.4,2.81-4.26ZM356.78,531.79c-.57-8.09,1.82-8.96,3.05-16.77.39-2.47.64-4.01,2.6-5.77.14-1.83-.09-4.74.25-6.59l1.13-6.17c1.11-6.04,1.15-9.92,2.5-16.32l2.27-3.13c.29-.4-.24-2.32-.66-2.07-1.26.76-4.7,5.44-5.14,7.18l-2,7.95c-1.05,4.18-1.77,11.07-2.5,14.07l-2.17,8.87-1.34,5.07-1.35,4.71c-2.19,7.65-1.55,6.17-2.28,13.27-.08.74,1.42,1.67,2.14,1.64,2.67-.12,1.47-3.01,3.5-5.96ZM582.04,487.88c1.35-3.06-1.33-8.2-4.36-10.86l-2.25,2.79,3.36,3.96c.92,1.09,2.4,6.07,3.26,4.11ZM751.27,483.68c2.48-1.68,4.48-3.88,5.68-6.29l-5.75,3.43c-.93.2-1.03,2.44.07,2.86ZM369.44,515.62c2.35-1.05,3.26-4.53,3.42-6.17l1.22-11.84,1.01-8.34c.32-2.62-.13-6.33.72-8.98.16-.51-.63-1.98-1.11-1.91-.5.07-1.14.74-1.32,1.36-1.6,5.49-3.01.46-3.37,13.23-.05,1.67-.42,3.2-.73,4.77-.66,3.43-.92,7.07-2.17,10.32s-1.81,6.2-1.79,9.38l4.12-1.85ZM736.12,496.35l4.23-2.9c3.24-2.22,5.65-4.98,8.54-8.1-1.64-.27-3.28.35-4.27,1.19l-5.99,5.17c-1.81,1.56-3.36,3.41-5.25,5.4,1.03.78,1.64,0,2.75-.76ZM580.61,521.03c.81-3.03,2.44-5.99,2.71-9.04l.7-7.98c0-.54-2.12-.83-2.54-1.26-1.4-1.46-3.79-4.27-4.78-6.13-1.07-2-.89-3.79-2.93-5.4-1.16,2.59,1.27,9.48,1.46,11.32l1.67,15.98c.16,1.5-2.04,7.86-.21,8.09,2.78.35,3.24-2.97,3.94-5.58ZM726.74,503.21c2.86-.53,3.54-2.07,4.97-3.74-.77-.55-1.36-.96-1.6-.62l-1.02,1.42c-.75,1.04-2.39,1.73-2.35,2.94ZM719.47,509.74l4.04-3.46c.18-.15.92-.42,1.13-.47s-.62-1.2-.8-1.08l-5.7,3.69c-.23.15-.61,1.07-.65,1.34s.44.82.69.72,1.02-.49,1.3-.73ZM462.73,541.12l-2.69-4.11c1.46-5.34,2.38-10.54,3.09-16,.07-.57-1.36-1.77-1.82-1.46-.39.26-1.04,1.15-1.1,1.64-.4,3.18-3.03,5.67-3.87,8.56-1.45,4.95,3.45,13.21,6.27,12.65.27-.05.29-1.05.13-1.29ZM579.22,547.18c1.24-1.75,2.02-2.31,1.63-4.33-.87-4.49-.15-5.41,1.61-8.82,4.43-2.83,1.14-3.32,3.61-7.96.63-1.18,1.03-2.66-.42-3.25-2.78,7.14-2.23,3.92-4.62,10.08-1.03,2.64-3.79,5.16-4.49,8.08-1.38,5.72-1,6.89-2.84,11.91-.12.33-.13,1.23.06,1.16s.85-.32,1-.53l4.47-6.32ZM367.41,549.78c.37-2.64.07-4.19-.12-6.43-.24-2.86-.24-5.88-.17-8.8.03-1.38,1.34-2.61-.31-4.11-4.63,9.48-2.54,5.6-3.77,12.66-.66,3.81.47,4.1,4.37,6.69ZM490.95,532.15c-2.32-.45-3.23,3.4-2.06,5.4,1.45-1.33,2.66-3.22,2.06-5.4ZM788.86,695.85c-.52-2.29-2.27-3.07-3.55-4.64-2.82-3.46-4.1-5.77-7.47-10.01l-6.39-8.02c-4.62-5.8-7.36-12.68-12.93-17.73-3.72-3.37.76-1.52-6.15-6.71-1.62-1.22-3-2.27-4.52-3.6-2.02-1.76-4.11-2.9-6.27-4.32l-4.53-2.97-4.33-2.41c-1.39-2.16-3.27-4.12-5.85-4.82l-1.34-2.66c-3.31-2.96-7.03-6.88-9.33-10.69-1.87-3.1-8.56-10.9-11.43-13.08l-5.97-4.54c-1.25-.95-2.26-3.58-3.72-4.6l-1.25-2.43c-.54-1.05-1.24-2.29-1.3-3.25-.05-.86,1.52-2.75,2.33-2.29,1.91,1.08,3.01,3.73,4.07,5.42.79,1.24,2.43-.04,7.04,4.92,1.64,1.77,3.2,3.08,4.8,4.84l4.02,4.42c.96,1.05,1.87,1.68,2.71,2.75,2.85,3.68,5.35,7.38,7.72,11.24,2.79,1.08,6.99,6,10.22,8.38l6.38,4.71c.78.57,2.62,1.15,3.63,1.71,1.52.84,2.54,2.17,3.8,3.26l10.99,9.54c3.91,3.4,1.99,4.69,3.98,4.27.31-.07.27-1.09.13-1.38-3.57-7.17-.1-2.19-3.17-8.68-2.48-5.23-5.16-9.88-8.3-14.75-1.96-3.05-3.58-8.84-7.82-15.67-.6-.97-1.23-2.29-1.94-3.16-1.94-2.38-5.1-3.32-7.19-5.41-4.94-4.93-4.68-11.21-12.34-14.25-3.24-1.29-5.56-3.96-8.35-5.94-2.57-1.83-5.08-3.42-7.43-5.6-5.55-5.13-2.22-3.63-6.87-7.23-1.3-1.01-1.97-2.66-3.17-3.83l-4.24-4.15c-2.07-2.03-3.8-4.13-5.88-6.15l-3.06-2.98c-4.17-4.07-4.48-1.08-7.67-4.79-3.49-4.06-11.15-2.84-12.23-3.1-3.2-.77-5.09-2.69-8.86-1.72l-5.06,1.31c-3.56.27-7.39-.69-10.94.3-2.1.59-4.11.25-6.23.44-1.92.16-4.03.65-6.05.36-.84-.12-2.37,1.17-3.08,1.6-4.39-.72-6.98.3-12.98.86-11.06,1.03-5.23-.55-9.77-.82-1.68-.1-.78,6.82-.46,7.91.91,3.17.92,5.73-1.39,8.36l.46,6.02c.15,1.93-.84,3.98-1.4,5.79-1.04,3.41-2.96,5.59-5.31,8.26-8.81,10.04-5.02,9.79-16.97,17.53-8.16,5.28-7.72,7.13-19.48,6.68-.52-.02-1.77.47-1.64.89,1.8,5.55.3,2.77,2.31,6.8,1.39,2.79,1.86,5.93,2.64,8.92.98,3.78,2.85,7.17,4.09,10.75.69,1.99,1.24,3.51,2.25,5.33l2.34,4.25c4.36,7.93,16.71,19.96,23.61,26.4l5.47,5.11c5.45,5.09,10.98,9.78,18.04,12.51l7.57,2.93c4.63,1.79,8.8,3.88,13.45,5.56l7.67,2.77,3.47,2.51c2.98,2.15,7.27.52,11.1.07,1.21-.12,3.78.48,4.92.88.6.22.53,2.26.24,2.59l-3.39,1.6c-.19,2.08,1.88,1.45,3.11,1.9,5.35,1.96,10.39,3.18,16.05,3.08l3.97-.07c2.63-.05,4.94-.22,7.58-.57,6.34-.85.93,2.97,9.69-.8,4.07-1.75,6.6.75,12.14-.61l2.79,1.77c3.11-.65,5.69,1.58,8.48,1.81l9.87.81,10.48.72,3.22.6,15.54.07c2.85.01,4.34.08,6.94-1.29,1.88-.99,4.73-1.71,6.92-2.36,4.86-1.45.56-1.02,6.77-4.27,1.82.35,2.91-.64,4.04-1.08l8.85-1.4c-1.98-5.77-8.08-7.2-8.87-10.69ZM354.74,549.57c-.02-.74-.79-2.19-1.4-2.17-2.61.11-1.84,4.69-.65,6.59.69,0,2.16-.91,2.14-1.55l-.09-2.88ZM560,603.02l3.73-.31,5.56-2.92c2.31-1.21,4.37-2.89,6.6-4.3,1.2-.76,2.16-1.91,3.21-2.82,1.35-1.18,2.8-2.19,3.84-3.73l4.47-6.64c1.33-1.98,2.83-3.81,4.06-5.96,3.97-6.9.59-7.5,4.11-17.74,1.61-4.69-2.34-8.48-3.33-8.51-.83-.03-1.78,1.23-2.2,2l-2.46,4.54c-.97,1.79-1.57,4.38-3.12,6.04-2.35,2.52-3.72,4.76-4.86,8.21-.5,1.52-2.71,3.12-3.73,4.47-1.48,1.95-3.8,2.32-5.5,3.59l-5.19,3.84-8.83,7.08c-1.17.94-3.69,4.5-2.16,5.11,2.17.87,1.31-1.91,4.72,4.55-.63,1.07-1.14,2.16-1.03,2.78.1.52,1.52.79,2.09.74ZM275.4,729.38l4.97-1.86c1.63-.61,3.73-1.69,5.3-2.07l8.62-2.05c9.8-2.33,11.6-1.9,21.19-2.81l8.68-.82c3.58-.34,7.61-.44,11.1.07,1.36.2,1.81.36,2.97.07,2.4-.6,5.04-.64,7.3-1.37,2.6-.84,5.12-1.25,7.89-1.74,1.93-.34,4.22-1.59,6.21-.98.92.28,2.85,1.59,3.76,1.2,2.42-1.06,4.83-2.63,7.11-3.85s4.02-2.57,6.08-4.04l6.17-4.4c1.56-1.11,3.58-2.15,4.85-3.62,8.44-9.78,9.64-5.63,13.06-10.99,2.82-4.43,6.58-7.56,10.77-10.71l2.21-3.72c1.18-2,2.3-3.69,3.48-5.46l1.9-4.74c.48-1.2,2.06-2.91,2.3-4l.99-4.63c.47-2.2.77-5.08.71-7.23-.95-1.87-1.99-4.16-2.99-5.66-.92-1.39-2.49-2.08-2.93-3.99-.4-1.74-1.47-3.19-2.29-4.73l-3.5-6.6c-.83-1.57-2.75-2.69-3.97-3.98-4.74-4.99-3.01-3.13-6.05-8.76.04-2.49-1.21-6.2-4.02-6.19-1.58,1.14-3.05,1.36-5.18.67-2.45-.79-4.85-1.1-6.34-3.72-.84-1.47-3.56-2.3-4.4-3.39l-5.03-6.55-3.31-4.82-5.03-7.42c-1.21-1.78-2.91-3.64-3.59-5.66-.76-2.28-1.7-3.78-3.58-5.21-7.49-5.71-2.43-10.78-7.51-11.71.54,2.84,1.05,5.54,1.9,7.99.6,1.74,1.67,3.11,1.36,5.1-.32,2.09,1.09,3.38,1.89,5.06l3.18,6.66,2.37,5.72c.6,1.45.47,3.87,1.28,5.23,1.06,1.8,1.93,3.37,2.73,5.13-.81.45-2.04.8-2.54.56-.42-.2-1.11-.9-1.33-1.31l-1.94-3.72c-.61-1.16-1.21-3.46-1.39-4.81-.28-2.13-1.32-2.66-2.21-4.07-1.41-2.25-2.87-4.87-4.11-7.27-1.44-2.79-1.42-6.41-4.44-8.11l-.94-6.2c-2.23-.66-2.57,3.64-4.45,4.09-.77.19-2.45-.16-2.93-.61-.97-4.11,1.21-8.53,5.37-9.94l-1.28-6.04c-.18-.87.26-2.53.18-4.01-2.9.4-4.78,1.11-7.2,2.36-1.27.66-4.05.47-5.19,1.21-2.64,1.72-4.82,3.23-7.45,4.66-2.1,1.14-4.7.36-6.64.77-2.92.62-5.75,2.89-9.01,3.02-1.46.06-2.62.55-3.83,1.11-1.85.85-3.93.85-5.05,2.96l4.96,3.86c.69,3.48,2.32,6.15,5.85,7.3l-.27,5.02-6.43-1.61-4.32-3.47c-2.28-1.84-4.65-2.77-6.62-4.9-1.21-1.31-2.27,1.15-3.04,1.63-2.99,1.91-5.87,4.03-8.71,6.24s-6.14,3.45-9.02,5.42l-5.38,3.69-12.37,8.64c-5.65,3.95-9.63,9.63-14.21,14.59l-11.14,12.07-6.51,6.46c-1.53,1.52-3.21,2.86-4.46,4.6l-3.37,4.68c-2.87,3.98-6.58,7.08-10.64,12.32l-3.29,4.24-7.8,8.63c-1.44,1.59-2.46,3.55-3.69,5.38-4.18,6.22-7.51,8.57-12.69,16.84l-4.62,7.38-2.69,4.82c-2.64,4.73-4.75,9.14-6.02,14.49-.75,3.17-1.64,6.22-1.93,9.51l-1.02,11.39-.41,8.73c-.93,19.77,1.83,12.86,3.48,28.89.28,2.75,2.28,8.94,3.37,11.48l1.83,4.27,3.52,8.25c.6,1.41,2.54,3.84,3.59,4.99l4.05,4.41c1.21.16,2.61-1.59,3.37-2.77l3.9-6.03c.91-1.41,1.83-2.75,2.86-4.09l4.12-5.39c3.94-5.15,3.05-1.03,8.48-8.64,1.04-1.45,2.09-2.85,3.02-4.41,3.14-5.32,4.74-5.87,8.64-10.81l3.99-5.04c2.38-3.01,4.15-6.33,7.2-8.78,1.51-1.21,2.44-2.99,3.66-4.41,2.3-2.67,4.63-5.35,7.04-7.86,6.95-7.27,3.99-7.14,12.57-14.32,2.87-2.4,7.06-2.36,9.5.36,2.66,2.96,6,3.94,9.95,4.31,1.77.16,3.64.29,5.49-.41ZM280.03,578.86c5.14-1.38,1.84-3.46,7.61-6.17.41-.19,1.21-1.12.93-1.45-1.76-2.08-14.11,7.54-15.65,10,3.32.96,4.56-1.69,7.11-2.38ZM381.53,593.63c-.82-5.28-4.68-15.75-10.51-16.13-1.09,1.54,3.25,7.31,4.03,8.34,2.08,2.74,2.99,6.24,6.48,7.79ZM385.74,589.35c-.81-1.95-1.56-3.25-2.73-4.77-1.37,2.21-.09,5.18,2.73,4.77ZM423.52,597.88c1.32-.88,3.68-.84,4.84-2.05-.26-.88-1.72-1.59-2.77-1.6l-5.7-.07c-2.69-.03-5.45-1.11-8.1-1.84s-5.06-1.88-7.75-2.86l-5.05-1.85c-4.61-1.69,1.8,4.7,2.31,5.87l2.73,6.34c.38.88.58,2.8.9,3.66,1.53,2.34,4.25-2.37,8.23-1.19.87.26,2.31,1.09,2.86.69l1.98-1.44,5.52-3.67ZM433.66,605.78c3.42-1.46,7.38-1.29,11.28-1.9.3-5.15-5.68-7.82-10.3-8.6-1.33-.22-2.31-.86-3.69-1.7-1.41,1.34,1.49,4.99-.75,5.97-3.15,1.38-6.9,2.71-8.18,5.9.95,2.49,4.28,2.59,6.51,2.31,2.1-.26,3.4-1.24,5.12-1.98ZM186.01,668.72l11.76-15.46c.84-1.1,1.52-2.02,2.46-2.99l4.94-5.1c1.22-1.26,2.15-2.38,3.22-3.96,5.61-3.66,5.64-4.26,8.8-10.59.87-1.03,2.4-2.46,3.51-3.29,2.4-1.79,4.17-3.83,6.41-5.77l3.42-2.96c1.76-1.53,3.26-3.08,4.68-4.91l2.2-2.83c1.65-2.13,3.59-4.04,5.39-6.08,1.52-1.71,2.54-3.61,4.55-4.92,1.88-1.23,3.31-3.2,4.25-5.5-.98-.48-2.25-.11-3.17.49l-4.26,2.79-10.46,8.99c-1.08.93-2.81,1.61-3.97,2.55l-8.07,6.52-6.87,6.14c-5.96,5.33-7.07,6.58-11.72,13.87-1.11,1.51-1.84,3.54-2.85,5.13l-4.65,7.28c-.85,1.34-1.8,3.11-2.67,4.25-1.88,2.45-3.48,4.57-4.89,7.28l-2.05,3.94-2.46,4.65-2.1,2.73c-.24.31-.3,1.39.05,1.45,1.26.2,3.52-2.37,4.54-3.7ZM391.24,603.5l-3.77-4.48c-1.05-1.65-2.57-2.81-4.42-3.32.41,3.55,3.08,4.72,5.34,6.43.84.64,1.37,3.13,2.85,1.36ZM196.59,628.54c.86-1.06,2.11-1.85,3.15-2.79l6.28-5.7,8.79-7.79c1.75-1.55,2.41-3.53,3.57-5.61.97-1.72,3.07-3.29,4.38-5.03-1.72.39-4.26.56-5.29,1.25l-9.03,6.05c-1.58,1.06-2.8,3.08-4.13,4.29l-4.53,4.11c-1.19,1.08-1.43,2.67-2.2,3.91-1.83,2.93-4.17,5.56-5.73,8.72l-1.91,3.87c2.04,2.45,3.95-1.92,6.68-5.28ZM445.93,612.29c.89-.4.2-2.15-.43-2.64-.51-.39-2.35.17-2.34.81.02.97,1.89,2.22,2.77,1.83ZM465.64,611.58l-11.49-.52c-.2,1.25.12,2.78.74,3.37.51.49,2.19.54,2.97.78,7.19,2.15,14.67,1.53,20.55-3.54-4.68-1.53-7.37.16-12.77-.09ZM444.68,621.66c.39-1.48.51-2.96-.11-3.57-1.69-1.64-3.99-1.21-5.79-1.97l-4.3-1.82c-.94-.4-3.5-.3-3.77.8-.44,1.83-.21,4.04.66,5.6.54.96,2.56-.18,3.41-.35,2.24-.46,5.15-.39,7.44-.11l2.45,1.43ZM490.5,618.48c1.72.22,3.46.68,4.95.62l7.58-.32c2.81-.12,5.83-.77,8.51-1.41.66-.16,2.55.04,2.56-.6.04-4.02-7.21-1.43-10.05-1.54l-10.65-.42c-1.65-.07-3.94.85-5.46,1.29-.58.17-1.93-.02-2.5.07-.48.08-.99,1.33-.93,1.88,1.56.86,4.14.19,5.97.42ZM799,697.16l5.28,5.51,2.02-3.38,3.54,2.37c.31-.95.35-2.62-.17-3.75-1.04-2.27-1.03-5.45-2.22-7.35s-1.67-3.16-2.4-5.22l-4.92-14.05-2.2-6.8-4.45-12.39c-.23-.63-1.65-1.57-2-2.11-2.01-3.1-4.32-6.54-5.84-9.87-1.36-2.97-1.49-6.35-4.22-8.61-1.85-1.54-4.05-3.61-6.19-4.62l-4.46-2.11c-5.5-2.6-10.7-5.42-15.9-9.19-1.27,1.35.32,2.13.86,3.11l4.05,7.39c.95,1.74,1.97,3.26,3.07,4.97,3.67,5.68,3.16,8.26,5.91,13.51l1.44,2.74c1.12,2.14,1.88,4.83,3.08,6.87,2,3.38,4.18,6.47,6.44,9.7,1.7,2.43,7.53,3.47,5.43,11.47-3.1.12-3.36-3.77-5.68-2.74-.41.18-.2,1.26.13,1.66l8.14,10,3.66,4.31,4.16,4.77,3.41,3.82ZM420.8,616.79c-1.68-.55-3.56-.64-4.17.44-.39.69,1.46,1.97,2.22,1.8s1.55-1.02,1.96-2.25ZM529.3,635.22c1.58-4.33,2.62-7.8,1.37-12.13l-5.04,3.85c1.11,3.15,2.03,5.51,3.67,8.28ZM448.95,628.07c.63-1.05-.27-2.78-1.24-3.03-.78-.2-2.53.6-2.59,1.41-.14,1.68,2.97,3.05,3.83,1.62ZM485.31,650.52c1.99-1.17,4.3-2.97,5.74-4.34,4.79-4.55,3.59.12,11.72-6.36l6.18-4.92c4.25-3.38,4.75-.93,9.4-8.31l-8.93,1.08c-1.13.14-3.17.22-4.34.14l-6.6-.45c-2.4-.17-5.55-1.68-7.84-1.22l-7.42,1.48c-2.56.51-4.89.92-7.44,1.5-2.05.46-4.46.52-6.48,1.1-1.89.54-3.71,1.1-5.57,1.1-.65,0-2.16-.09-2.16.45,0,2.56,6.21,10.36,8.28,12.9l2.21,2.71c1.87,1.08,3.82,2.34,5.75,3.26,1.63.77,5.88.85,7.51-.11ZM616.23,697.9c-.62-1.47-1.49-2.48-2.47-2.69-5.18-1.1-9.02-3.82-13.27-6.71-4.78-3.25-.19-1.44-6.75-6.65-1.55-1.23-2.51-2.39-3.98-3.65l-4.81-4.1-2.77-2.9c-.66-.69-2.49-1.64-3.1-2.39-1.71-2.12-3.86-4.2-5.64-6.23l-4.45-5.1c-2.56-2.93-4.19-6.71-6.49-9.93-4.19-5.85-5.59-12.25-9.72-19.4-.09,4.26,1.21,8.19,2.71,11.88l2.73,6.74c1.12,2.76,3.11,5.26,4.49,7.91,1.49,2.87,4.64,7.33,6.7,9.89l6.01,7.47,2.47,3.07c.76.95,1.4,2.29,2.42,3.07,2.51,1.92,4.21,3.99,6.25,6.34,3.5,4.03,3.93,3.16,6.57,7.38,1.54,2.46,4.99,2.31,7.43,3.16,2.04.71,3.42.98,5.59.8,1.29-.11,3.5,1.45,4.78,1.56l5.33.47ZM469.79,659.56c1.69-.69,2.79-1.2,4.88-2.31l-6.19-.55c-2.58-.23-8.63-1.17-9.77-3.72-.8-1.77-1.71-3.84-2.53-5.48l-2.74-5.46c-1.54-3.07-4.93-6.75-8.88-6.23l-6.57.86c0,5.57-.16,11.1-2.1,16.49l1.31,4.15c1.89,1.15,3.54,2.28,5.31,3.74.65.53,2.49.81,3.31,1.19,2.93,1.35,5.63,2.45,8.81,2.08,2.89-.34,5.54-.82,8.31-1.95l6.85-2.8ZM459.7,850.28l-.21-14.28c-.01-.98-.35-2.4-.54-3.46-1.03-5.83,1.14-10.25-1.65-21.3l-1.74-6.89c-.76-3.02-3.7-6.3-4.19-8.7l-1.03-5.1c-.18-.9-.17-2.62.45-3.09l3.54,1.35.52,3.43c.56,3.72,1.9,6.35,4.07,9.36,2.48,3.44,2.98,8.15,4.3,12.21.56,1.72.58,2.91.49,4.77-.09,2.09.83,4.73.61,6.88-.6,5.66-.31,12.71.31,18.15l.52,4.56c1.25,2.14,1.56,3.93,1.84,6.34l.86,7.53c.52,4.55,1.49,8.79,3.57,12.88l2.87,5.65c2.49,4.9,3.08,6.66,5.69,11.28l3.97,7.05c1.45,2.58,2.91,5.21,4.19,7.78l3.34,6.73c1.31,2.65,5.59,14.23,6.55,17.28,1.3,4.13,1.46,8.57,3.21,8.5.66-.03,1.54-.77,2.08-1.45,1.25-1.59,3.58-3.16,4.55-4.7,1.93-3.06,3.8-4.56,6.54-6.71,4.38-3.42,12.53-15.5,14.78-20.79l1.91-4.51c1.07-2.53,2.47-4.47,3.66-6.93l2.1-4.33,2.1-4.46c.52-1.09.8-2.55,1.3-3.72l5.96-13.87c1.02-2.37.96-5.31,2.88-7.19l2.17-7.69,1.07-4.5c.29-1.24,1.29-2.57,1.71-3.68,2.5-6.59,3.75-8.24,4.78-14.57.34-2.11,1.46-4.44,1.68-6.61.8-7.8-.15-9.73.33-18.99.13-2.43.25-5.04,0-7.44l-1.15-11.07c-.22-2.09-.95-4.64-1.31-6.48.93-9.7-1.45-8.07-1.36-16.46-1.77-3.94-1.57-7.84-1.8-12.07l-4.1-8.89c-1.05-2.28-1.29-4.63-2.18-6.9l-4.5-11.49-1.52-4.92-1.9-4.68-4.35-11.05c-.84-2.14-1.43-3.98-2.52-5.86l-2.31-4c-.96-1.66-1.87-4.01-2.34-5.95-2.05-8.48-2.32-5.65-4.33-15.7-1.46-7.28.08-11.18-.29-19.07-.07-1.52.02-3.24-.45-4.63l-1.89-5.59c-.68-2.02-1.21-3.6-2.2-5.85-5.09,4.18-2.3,3.05-6.32,10.13-1.53,2.69-3,5.55-5.42,7.46l-3.09,2.45c-2.32,1.84-4.51,3.45-5.88,6.17l-4.94,1.22c-2.44.6-4.64,1.27-7.1.97-1.12.29-2.77,1.56-4.15,2.56-2.69-4.94-9.43-1.88-13.81-.27-8.12,2.99-3.17.7-10.82,3.05-2.26.69-5.31.13-7.73.5s-4.43.28-6.71-.48c-7.54-2.51-5.96-6.52-11.02-6.65-.31,2.51-1.94,10.44-2.36,11.63l-1.83,5.22c-.48,1.38-.97,3.01-1.58,4.3l-3.67,7.75c-1.34,2.82-2.75,5.54-4.17,8.25-3.86,7.38-2.35,2.49-4.95,8.66l-1.82,4.33c-.95,2.25-2.47,4.51-3.77,6.59l-3.45,5.53c-.88,1.41-2.05,3.61-3.17,4.65-2.66,2.32-5.28,4.13-8.2,6.13-1.8,1.24-1.05,3.98-1.52,5.96-2.24,9.39.24,5.4-.69,15.63-.25,2.74.09,5.55.25,8.38.34,5.99.57,7.71,2.2,13.21l1.18,3.99c.43,1.46,1.23,3.43,1.42,4.85.43,3.16.92,6.41.94,9.43.02,2.83.01,5.01,1.07,7.8l2.45,6.48,2.13,5.47c.46,1.17,1.68,2.66,2.17,3.69,2.36,5.02,5.66,8.37,10.04,11.76,1.94,1.5,3.77,3.94,5.61,5.76l5.77,5.72c1.83,1.81,3.6,3.59,4.62,5.87,4.29,2.93,3.35,4.37,8.48,9.62,2.29,2.35,3.69,5.55,5.64,8.24l2.98,4.12,3.74,5.65c2.05,3.09,7.4,7.7,9.72,11.99.81,1.49,1.29,2.99,1.85,4.57,3.12,8.83,1.47,12.32,6.23,23.75.98,2.35,2.74,4.67,4.01,6.91,1.93,3.39,6.36,7.21,9.63,9.5l5.59,3.92c.56.4,2.41.16,2.72-.45.26-.52.46-1.84.25-2.4l-3.38-9.28c-2.37-6.52-1.45-6.83-5.41-14.54l-4.06-7.9c-3.72-7.25-.84-3.41-5.35-11.16-.92-1.58-1.62-3.74-2.71-5.38-2.35-3.54-2.63-4.26-5.32-8.3-1.86-2.79-2.59-6.68-3.99-9.92l.33-2.85c-.53-1.75-.54-3.32-.92-5.14l-2.31-11.19ZM536.85,641.31c-.54-.97-.77-3.24-1.7-4.04-1.6.46-2.33,2.23-2.43,3.52-.08,1.01.95,2.74,1.98,3.49,1.4,1.02,1.42,2.11,2.19,3.53.87,1.6,2.23,3.21,3.59,5.18-.42-4.83-1.19-7.23-3.64-11.67ZM183.06,659.67c1.16-.63,1.42-2.34,2.03-3.3l3.3-5.19,3.58-5.6c.19-.31-1.02-.92-1.18-.65s-.53.99-.76,1.29l-3.83,5.13-5.2,6.98c-.27.36.02,2,.39,2.02s.53-.11,1.65-.66ZM490.98,654.28c4.86,1.67,12.23-4.91,13.72-8.22-1.9.27-2.93,1.48-4.54,2.12l-6.13,2.44c-1.11.44-2.2,2.42-3.05,3.65ZM817.76,681.42c-3.57-4.21-.56-6.27-4.33-9.34-4.36-3.56-1.19-5.89-6.01-7.69.37,3.49.85,6.84,2.47,9.66,4.52,7.9,1.02,7.15,4.81,13.16,4.45,7.05,1.96,14.04,6.06,14.6-2.87-9.31-1.49-12.3-3-20.39ZM566.73,795.53c2.89-4.82.45-9.5,1.48-14.04,2.57-11.41-.43-13.1-2.41-23.96-.47-2.57-1.26-4.39-1.87-6.82l-1.35-5.32c-.2-.8-1.81-2.03-1.88-2.92-.14-1.89-.94-3.32-1.54-5.07l-2.2-6.34c-.88-2.53-2.52-4.55-3.43-7.08l-3.31-9.23-1.89-5.07c-1.4-3.77-2.23-7.4-3.26-11.35-1.21-4.66-4.22-8.85-5.77-13.44-.34-1.01-7.22-19.18-8.59-17.95-.78,2.69.76,4.7,1.19,7.03,1.35,7.38,2.2,8.07,4.92,15.13.99,2.57,2.17,5.02,3.33,7.57l3.31,7.28c1.59,3.5,2.05,6.74,4.4,12.08,1.98,4.5,3.79,8.92,5.45,13.58l1.94,5.47,2.87,8.17c.94,2.68,2.19,5.47,2.76,8.21l1.82,8.69c1.15,5.5,0,8.23,2.21,14.06-.72.75-1.69,1.86-1.93,2.53-.21.59,1.43,1.66,1.62,2.34,1.99,6.78.93,9.49,2.16,16.46ZM560.41,699.06c-.06-8.54-1.93-8.92-3.7-15.15-1.08-3.81-4.22-6.94-6.31-6.75-.38.03-.51,1.35-.32,1.76l4.41,9.53c.59,1.27,1.63,2.62,2.06,3.85.87,2.53,1.67,4.77,3.86,6.77ZM575.33,683.91l-3-4.09c-.11-.15-.83-.29-1.02-.33-1.74-.44,1.94,5.12,4.01,4.42ZM412.61,699.7l3.12-5.01,2.75-5.17c.26-.48-.11-2.21-.63-2.14-.42.06-1.31.58-1.52.99l-3.48,6.53c-.3.56-.72,1.94-1.16,2.43-1.4,1.59-3.4,4.25-1.27,6.55l2.18-4.17ZM635.22,707.52c-3.98-1.14-5.67-.98-8.81-.89-3.57.1-7.07-1.72-10.5-2.39l-4.86-.95c-.31,3.78,7.24,4.6,12.67,8.11l5.43,3.51,1.68-5.38c1.86.09,3.67.37,4.4-2.01ZM642.51,712.7c3.37-.78,5.32-.68,5.23-1.83-.13-1.6-3.49-2.93-4.38-2.87-1.41.1-1.94,3.23-5.72,4.2-.39.1-.88,1.21-.64,1.53s1,.02,1.57-.11l3.93-.91ZM401.12,719.98c1.52-.33,8.1-10.11,5.41-10.01-2.4,5.65-6.6,6.16-5.41,10.01ZM797.02,718.82c3.26-1.6,8.02-1.52,11.42-1.31l6.06.37c.17-.55.02-2.49-.55-2.79-6.45.13-9.17-1.31-14.9-.34-3.23-1.22-12.96.73-14.77,3.47l-3.76.33c-.49.04.12,1.93.64,2.03,6.23,1.19,8.09-1.94,8.92-1.37l1.56,1.06c1.51-.88,3.31-1.27,5.38-1.45ZM663.62,719.27c-.92-2.62-3.14-2.14-5.19-2.39-3.91-.49-8.58-.35-11.36,2.63,1.1,3.25,4.43,2.55,6.99,1.92,3.12-.77,6.48-.38,9.56-2.16ZM724.69,724.06c-1.44-1.61-4.7-2.62-5.94-.5,1.04,1.6,4.4,1.61,5.94.5ZM736.95,725.43c-.01-.92-.43-2.02-.82-2.11l-5.17-1.14c-.72-.16-2.14,1.33-1.98,2,.14.58,1.34,1.47,1.95,1.45l6.02-.21ZM803.66,726.64c.48.02,1.19-1.68.84-1.89l-1.24-.72c-.64-.37-2.44-.79-3.04-.41l-3.68,2.32c1.86.3,4.85.63,7.12.71ZM813.78,725.72c-.45-1.34-.69-1.86-.94-2.03l-4.24.3c-.31.02-.97.57-1.19.79s.73,1.22,1.04,1.2l5.33-.26ZM370.27,740.28l5.04-1.57c2.51-1.23,1.78-5.03,2.02-7.3l.64-6.01-5.32,2.65c-2.44,1.22-4.01,2.69-6.12,4.48-2.28,1.94-6.24,2.88-6.01,7.14,1.31.37,3.3.19,5.02.05,1.24-.1,3.53.93,4.72.56ZM351.9,736.98l4.92-4.03c1.4-1.15,2.43-1.7,3.29-3.47.64-1.33,2.98-1.45,2.81-3.68-1.68.41-3,1.17-4.44,2.2-2.44,1.75-5.72,2.36-8.42,3.6l-4.77,2.2c-.6.28-1.47.89-1.47,1.39,0,.4,1.04,1.1,1.49,1.14l6.59.64ZM247.33,745.95l6.04-2.4c2.46-.98,4.2-2.29,6.22-3.95l3.85-3.15c.34-.28.75-1.25.59-1.62-.8-1.84-4.07.24-8.2-3.81-3.61,1.08-6.45,4.17-8.96,6.89l-8.14,8.84c-1.46,1.59-2.84,3.18-3.54,5.22,2.86.03,3.67-2.14,5.56-3.17,1.99-1.09,4.38-1.97,6.57-2.84ZM271.89,760.87l4.99-1.16c2.34-.54,5.95-5.9,9.62-3.61l3.83-2.79c2.74,1.14,3.86-.51,5.67-1.73,4.1-2.75,9.11-4.42,13.62-7.38,1.84.06,3.79-.39,4.09-3.1-4.36-.58-8.38.2-12.73,1.25-1.01.24-3.18.01-4.14.4l-5.16,2.09c2.81-1.14-18.93,9.56-16.19,7.84l-7.23,4.54c-.71.45-5.84,2.94-4.61,4.81.15.23,1.01.52,1.33.45l6.91-1.61ZM390.92,788.56c-.55-1.97-.98-3.4-1.86-5.12-.6-1.17-.3-3.58-.74-4.82-.88-2.47-1.89-4.62-2.06-7.26l-.89-13.33.65-6.57c.48-4.86,1.81-3.15,1.13-5.73-.09-.33-1-.43-1.3-.26s-.69.76-.79,1.15l-1.47,5.51c-.36,1.33-.06,3.74-.19,5.24l-.32,3.55-.75,5.56c-.71,5.27-.45,10.24,1.6,15.23l1.57,3.82,7.04,13.88c1.71-3.84-.59-7.23-1.6-10.85ZM250.06,760.02c4.46-4.08,3.38-3.35,8.31-6.54,2.32-1.5,4.58-2.85,6.76-4.76-3.22-2.11-5.11-.18-7.22,1.07-1.89,1.13-3.78,1.88-4.75,3.9-2.27,1.47-4.82,3.33-5.66,6.32-.18.63,2.08.43,2.55,0ZM578.98,771.99l-2.31-10.92c-.69.06-1.73.37-1.65.76l.41,1.91,2.02,8.57c.07.29.66.92.8,1.1s.8-1.07.73-1.42ZM227.18,772.88c3.76-2.51,6.79-5.61,8.73-9.42-.39-2.56-11.99,7.99-8.73,9.42ZM155.26,791.53c-2.02-4.46,0-4.35-2-6.1-3.26,2.48.27,7.44,2.09,10.48,1.43-1.48.6-2.85-.09-4.38ZM176.94,817.31c2.63-4.58-2.46-6.84-5.31-11.76l-3.17-5.49c-1.06-1.83-1.97-3.54-2.18-5.67-.24-2.46-1.02-4.88-4.05-5.48.75,2.86,1.3,5.51,2.45,7.9l1.61,3.35,2.06,4.59,1.37,3.13c.23.51,5.82,9.93,7.21,9.43ZM195.81,808.09c1.71-5.16,2.04-6.19,5.92-8.93l.88-5.2c-1.72-1.84-11.87,13.41-12.6,14.54-.61.94-3.07,3.11-.99,4.01,2.5,1.08,5.91-1.76,6.79-4.42ZM565.04,849.3c1.97-4.35,3.17-1.87,3.21-7.25,1.44-2.34,2.45-5.3,3.53-8.04.39-.99,3.74-4.81,3.97-8.39l.37-5.65c.53-8.14,2.29-7.11.59-12.02-.75-2.19.64-4.76-2.11-6.78l-1.6,10.63-1.12,4.65c-.46,1.92-3.71,13.16-4.12,13.99-6.73,13.54-4.03,13.82-9.6,25.83-.28,1.54-.41,3.55-.56,5.81l4.55-1.58v-4.86s2.89-6.35,2.89-6.35ZM452.38,908.82c-1.43-1.9-.66-5.23-1.65-6.97-1.63-2.86-3.29-5.28-4.16-8.42-.43-1.53-1.21-2.97-1.99-4.34l-2.73-4.8c-4.44-7.8-3.5-4.54-7.53-10.53l-3.06-4.54-3.18-.69c-.6-3.72-3.8-4.59-6.01-6.66-1.74-1.63-3.44-2.76-5.44-4.13-2.58-1.77-4.34-5.12-8.46-4.33,2.48,4.61,5.93,9.1,8.96,12.89,4.94,6.18,4.53,7.49,9.96,14.21,3.71,4.59,5.1,7.93,9.52,13.28l3.44,4.15,6.04,6.88c1.55,1.76,2.73,3.52,4.67,4.97l1.76,2.41c.45-.32,1.31-1.44,1.02-1.83l-1.17-1.56ZM509.48,941.19c2.67-1.49,4.41-2.53,6.76-3.46,5.93-5.26,8.49-10.35,13.56-17.07.86-1.14,1.31-3.48,2.07-4.8l4.92-8.64c.57-1,1.62-1.87-.03-3.21-3.88,5.45-4.15,7.88-7.22,13.02-2.07,3.48-4.99,7.48-7.58,10.42-1.81,2.06-3.04,4.02-5.6,5.49.09-.05-8.71,6.93-6.88,8.24ZM484.9,944.61l-6.66-5.02c-.95-.72-2.26-2.17-3.19-3.11l-3.24-3.25c.43,5.65,7.47,9.84,7.71,14.65.04.81-1.06,2.52-.72,3.23.3.63,1.39,1.95,2.09,2.06l6.18,1.01c.86.14,2.75-1.08,2.86-1.94.22-1.72-3.12-6.19-5.04-7.63Z"/>
  <path class="cls-1" d="M163.78,972.34c-2.86,1.07-4.15-1.76-3.87-4.08,1.85.89,3.01,2.09,3.87,4.08Z"/>
  <path class="cls-1" d="M510.49,427.64c-6.56-3.94-4.81.86-9.49-3.78-1.5-1.49-4.42-1.32-6.55-.83-1.58.36-2.76-.56-3.94-1.39-2.18-1.55-5.12.14-7.51-.15l-12.58-1.47c-18.8-2.2-14.82,1.97-28.02,5.58-7.03,1.93-5.63,3.08-13.27,4.76-1.15.25-2.6,1.51-3.72,2.08-5.56,2.83-10.52,5.68-15.66,9.48-2.02,1.49-2.78-4.07-5.07-8.16-.61-1.08-1.36-1.9-1.28-3.21.31-4.93-5.03-8.46-2.64-22.29l.82-4.77c3.75-21.69-1.12-21.15-.55-24.92.38-2.49-.06-4.42-.26-6.8l-1.22-14.38c1.51.28,1.73,1.66,2.54,2.61,2.59,3.03,7.66,2.88,10.89.8.81-.56.69-3.07.11-3.88-12.18-2.27-4.19-9.56-10.57-26.02-.79-2.04-2.95-5.01-1.23-7.18.94-1.18,2.77-2.34,3.01-3.68.65-3.59-2.18-5.4-4.73-11.75-.97-2.41-2.97-5.02-3.06-7.73-.12-3.77-.08-7.27.13-10.95.14-2.48,3.13-3.94,4.81-5.13,6.98-4.94,5.71-2.67,11.29-8.74,7.48-8.15,8.31-14.59,12.64-22.85,2.77-5.29.81-3.59,5.7-11.36l4.26-6.77c1.02-1.62,2.25-3.05,2.84-5.04.64-2.18,1.7-3.78,2.92-5.5,5.66-7.97,8.06-7.56,14.55-16.49,1.9-2.62,7.06-11.77,7.77-14.46,2.67-10.05,1.69-3.27,5.44-12.4.92-2.23,1.25-5.07,2.42-7.03,9.71-16.25,5.39-19.15,7.41-22.61,2.2-3.78,4.18-7.29,5.81-11.24,3.29-7.96,2.8-9.17,5.36-16.17,1-2.72,4.57-4.06,6.08-6.27,1.7-2.49,3.16-3.94,5.55-5.61s4.37-4.35,6.55-6.42c3.57-3.39,6.84-6.69,9.51-10.96l2.94-4.68c1.07-1.71,3.31-2.96,5.07-4.59,2.37,1.12,6.4,2.41,7.37,5.12,5.24,14.54,11.47,8.63,11.53,16.59.01,1.4,1.04,2.48,1.43,3.57l3.3,9.31,4.21,12.54c8.45,12.08.68,18.68,6.22,33.45l3.3,8.81,4.2,9.78c1.78,4.13,3.25,7.9,4.35,12.29.46,1.83,2.55,3.84,2.89,5.8.67,3.84,1.96,9.21,3.57,12.54,1.25,2.58.15,5.62.21,8.39s.42,5.2-.28,7.85c-.53,2,.14,4.16.02,6.17l-.54,8.99c-.2,3.26.21,5.85.46,9.14l.44,5.74c.13,1.63.8,3.04.92,4.61.27,3.44.38,6.55.29,10.04-.05,1.81.6,3.95.65,5.55.09,2.65-.03,5.22.24,7.94l.75,7.63c.68,6.91,3.98,11.87,7.62,17.67l4.36,6.94,2.81,3.87c1.59,2.18,3.83,5.1,4.6,7.7,2.03,6.8,2.82,12.67,4.59,18.52l1.44,4.74c.2.84-.7,3.02-.48,3.89l1.66,6.78c1.01,4.12,1.36,8.44,1.62,12.7.22,3.55-.75,6.88.4,10.47.32.98.44,2.94.14,3.8l-2.26,6.48c-1.2,3.43-2.43,6.54-3.19,10.24l-1.68,8.1-1.73,8.91c-.78,3.99-2.87,6.32-6.26,8.39-5.53,3.37-8.83,1.54-10.06,4.17-.16.35.17,1.47.52,1.65,1.3.69,5.8-.5,5.76,2.44-.07,4.77-4.61,5.32-5.6,11.17-3.58-.7-5.48-5.61-9.67-6.78l-5.66-1.57-7.71-1.22c-2.42-.38-4.58-2.04-6.9-3.03-7.07,2.23-5.59,2.56-12.46-.62l-8.88-4.12c-2.4-1.11-4.88-2.74-7.36-3.46-2.79-.82-4.85-1.91-7.34-3.21l-5.36-2.81c-.88-.46-2.71-.82-3.54-1.32ZM551.79,282.31c.22.58,1.92.96,2.42.57.42-.32.42-1.73.22-2.27l-1.77-4.91c-.54-1.49-.08-4.55-.95-5.83-2.1-3.07-1.56-5.58-1.52-9.01.03-2.89.07-6.36-.41-9.29l-1.6-9.89c-.39-2.43-.58-4.69-.82-7.2-.32-3.47-1.69-6.84-2.11-10.32l-1.63-13.47-1.5-6.91c-.91-4.18-.89-8.49-1.48-12.56-.76-5.21-.9-9.3.66-14.31.9-2.91,1.72-5.64,2.89-8.55.93-2.32,1.22-5.16,2.04-7.54,2.52-7.33,4.62-14.9,2.31-22.49l-1.96-6.42c-3.54-2.78-6.24-5.94-8.98-9.54-1.22-1.6-2.81-3.01-4.06-4.4l-5.64-6.29c-.76-.85-1.39-2-2.07-2.44-.74-.48-2.59-.2-3.69.23,1.5,2.79,4.83,8.04,6.75,9.59s2.91,3.36,4.27,5.42c4.12,6.22,15.14,9.74,10.33,27.92-.64,2.42-.74,5.14-1.68,7.34-.86,2.02-1.5,3.54-1.3,5.82.4,4.48-2.89,4.52-3.8,9-.58,2.87-1.2,5.32-1.99,8.05-.85,2.94.39,5.91.84,8.81l1.47,9.61c.69,4.52,1.27,9.04,1.66,13.65.45,5.32,1.46,10.17,2.43,15.45.44,2.39.33,5.09.99,7.67,1.43,5.52,1.14,7.4,2.24,12.81l.8,3.89,1.76,12.89c.02.15,4.39,13.72,4.85,14.93Z"/>
  <path class="cls-1" d="M223.78,497.82c-3.42-5.13-6.75-10-10.45-14.67-1.05-1.32-2.69-1.88-3.28-3.85-.65-2.14-1.74-4.28-3.07-6.11l-6.56-9.02c-.96-1.33-1.55-3.74-2.56-4.92-1.6-1.87-2.66-3.4-3.7-5.48l-2.32-4.61-7.13-13.34c-1.83-3.43-4.34-6.22-6.63-9.35l-2.37-3.24c-1.84-2.51-3.92-6.11-4.35-9.26l-1.64-12.02-.17-12.39c-.08-5.85-.34-11.25-.16-17.04l.35-11.88c.13-4.4-.89-8.81-1.45-13.24-.78-6.23-4.41-17.63-6.81-23.63l-2.19-5.46c-1.4-3.5-2.38-7.02-3.31-10.77-.45-1.83-1.72-4.2-1.81-5.94l-.45-8.61c-.11-2.18-1.02-3.28-2.17-5.02l-4.19-6.29c-.43-.64-.37-2.39.03-2.96s1.69-1.25,2.53-1.25c7.18,0,13.87-.01,20.88-.23l13.22-.4c3.07-.09,5.67-.35,8.71.27,9.85,2,11.99,2.9,20.83,7.88,10.34,5.83,7.36,3.03,11.06,4.02l8.33,2.22c9.24,2.46,7.04,4.44,12.42,5.36,3.12.53,5.45,1.62,7.64,3.98,4.82,5.21.83,3.56,5.74,8.65,2.02,2.1,3.98,4.56,6.43,6.1l5.26,3.32c1.45.92,3.39,2.21,4.81,2.85,2.01.91,3.08,1.21,4.62,2.76,1.32,1.32,4.07,2.04,5.6,3.24s2.81,2.49,4.6,3.07l6.81,2.2,4.64,2.29c4.8,2.37,1.46-.32,8.04,1.92.67-.01.99-1.77.6-2.35-2.1-3.05-4.09-.04-8.72-3.03-1.43-.92-3.45-1.44-4.81-2.2l-5.52-3.05c-1.84-1.02-3.32-2.73-5.9-2.56l-2.72-3.09-5.56-2.65-6.73-4.56c-4.32-2.92-7.99-5.34-9.85-10.27-.27-.7-.9-2.06-.9-2.86s1.25-1.68,2.43-2.07c.68-.22,1.06-2.05.41-2.42-2.29-1.32-4.86-.37-7.14-1-2.55-.7-4.51-3.46-6.9-4.39-5.36-2.08-10.24-1.97-14.51-7.71-.85-1.14-2.71-3.41-4.01-3.8l-6.99-2.08c-2.83-.84-6.41-.59-9.35-1.13l-4.81-.89-7.8-1.96c-2.33-.58-4.4-.73-6.67-1.31-7.37-1.89-14.64,0-15.59-1.82-1.71-3.26,11.9-3.38,12.94-3.46l13.59-1,5.1-.33c15.7-1.02,5.47-.69,16.45,2.97l4.46,1.49,7.77,2.51c8.94,2.89,5.14,4.03,14.12,6.18l6.72,1.61c2.03.49,4.29.66,6.4.7l10.41.22,5.61.5c2.37.21,5.08.22,7.37.59,13.96,2.23,15.45-2.54,26.2,3.18l3.2.34c1.49,1.15,2.96,2.04,4.58,2.9l9.58,5.05c.93.54,2.38,2.33,3.07,3.23l4.34,5.66c10.46,13.65,10.56,10.39,18.67,19.33l5.28,5.81c4.11,4.53,5.64,5.28,11.08,8.01,1.83.92,2.68,4.24,2.54,6.24-.16,2.33,1.13,3.54,1.69,5.34.94,3.01.07,7.01,1.56,10.18,1.94,4.13,1.68,8.12,2.12,12.56,1.15,11.7.11,14.21.96,26.45.72,10.26,2.91,6.07,2.89,13.1,0,1.91.78,4.15,1.15,6.15.46,2.48.68,5.28,2.17,7.28.96,1.28,2.19,2.57,2.44,3.98l1.47,8.49c1.68,9.71,2.72,1.67,2.04,11.29l-7.66,6.01-4.71,3.76c-1.43,1.14-3.24,2.21-4.88,3.2-2.05-1.71-4.08-1.31-5.73.26l-4.85,4.59-3.15,2.96c-.97.91-4.62,5.98-5.38,7.91l-2.55,6.46-1.99,5.01c-1.22,3.08-.91,7.03-1.81,10.3-.36,1.32-.46,2.43-.65,3.83-2.07,15.64-1.28,3.72-3.96,15.74l-1.55,6.94c-.59,2.65-1.61,4.86-1.77,7.65l-.25,4.16c-.09,1.43-.99,3.34-2.51,3.4-1.71.07-3.27.97-4.59,1.22-3.32.62-5.93,1.37-8.89,2.75-3.12,1.45-6.56,2.34-9.85,3.42l-5.03,1.65c-1.48.49-3.44,1.55-4.94,2.32l-8.68,4.42c-2.41,1.23-4.96,2.93-7.18,4.91-1.33-.25-4.06-.63-5.08-1.38l-9.64-7.01c-.95-.69-2.5-1.72-3.32-2.46l-10.38-9.3-5.37-6.13c-1.82-2.08-3.92-3.67-5.84-5.69-4.28-4.51-4.86-3.67-8.2-7.67-2.12-1.37-4.12-2.82-6.01-4.53l-6.59-5.98c-4.06-3.69-4.39-4.96-7.44-7.53-.99-.83-1.38-2.36-2.24-3.65Z"/>
  <path class="cls-1" d="M774.08,437.59l-4.57,3.41-5.79,4.24-9.49,7.54c-.98.78-1.94,2.21-2.85,3.04-1.81,1.66-3.54,3.12-5.16,4.91l-8.09,8.94c-1.42,1.57-3.41,3.11-4.45,4.85-1.41,2.35-2.82,3.78-4.75,5.5-3.32,2.97-6.12,6.55-9.93,9.03-1.89,1.23-5.58,6.07-6.9,6.92-2.89,1.85-5.18,3.79-7.79,5.82-1.93,1.5-3.87,2.86-5.93,4.73-1.9,1.73-4.81,1.85-8.05,6.3l-5.93,8.12c-1.32,1.81-3.22,2.86-5.14,3.98s-4.12,3.65-6.42,2.33c-.86-1.95-1.13-5.15-2.97-6.46-6.76-4.81-.73-6.4-8.7-13.43-2.9-2.56-6.56-1.69-7.66.04l4.42,5.78c1.44,1.88,2.12,3.36,2.22,5.93.05,1.17,1.76,2.83,2.37,3.84l4.11,6.82c-11.1,2.17-11.53-3.14-23.21,3.15l-6.45,3.48c-1.11.6-3.86,0-4.89.89-2.22,1.91-4.88-2.5-16.35-.93-1.96.27-4.09.12-5.95-.09-3,1.88-6.64,3.55-10.14,1.49-1.77-1.04-2.05-7.39-1.97-8.28l1.48-16.18c.43-4.74-1.11-12.1-1.13-16.75l-.04-7.05c0-1.59-.15-3.32-.68-4.74l-2.72-7.18c-3.4-8.99-3.23-4.18-6.34-14.42-.58-1.91.09-5.13,2.37-5.47l3.6-.54c6.18-7.23,5.11-3.08,11.94-10.53,3.61-3.94,7.81-15.01,10.03-20.39l3.08-7.45c1.72-4.17,2.45-8.58,3.51-12.99l2.71-11.26,1.18-6.35c.62-3.32,1.01-6.52,1.57-9.86l1.55-9.26c.59-3.56.31-6.69,1.71-10.1.03-1.21-.48-3.65-.36-4.87.85-8.84.57-11.81,1.21-20.05.24-3.07-.31-6.45.32-9.38l1.24-5.72c.73-3.36,3.33-6.14,4.54-9.32,2.26-5.96,3.98-12.23,7.8-17.41.73-.99,1.78-1.97,2.33-3.08,2.15-4.31,6.59-5.93,10.36-8.28,2.65-1.65,4.81-2.67,8.12-2.5l9.96.5c2.44.12,5.14.44,7.46.41l12.16-.13c4.52-.05,9.1-.26,13.67.05l10.73.73c7.53.51-.53,2.24,12.9,1.43,1.66-.1,3.01-.07,4.62,0,5.6.22,11.11.24,16.64-.08,8.68-.51,11.02-2.54,18.55-3.91l11.74-2.13c6.01-1.09,11.01-3.16,15.8-7.05,2.84-2.31,6.66-3.84,9.25-6.61,5.02-5.38,3.77-10.27,10.49-11.77,1.86-.42,4.01-2.04,5.83-2.86,4.15-1.88,9.05-4.11,12.06-7.63l4.84-.78c.53,3.3,1.56,5.79,2.47,8.7,2.59,8.3-1.47,18.63.31,28.33.66,3.58.9,7.35-.38,10.76-2,5.33-1.93,11.13-3.44,16.44-2.45,8.63-2.27,10.21-7.69,16.74-2.46,2.97-4.33,5.68-6.35,8.84-1.01,1.58-2.79,3.32-4.05,4.8l-3.25,3.8c-1.02,1.2-1.57,2.33-2.19,3.89-1.61,4.04-4.01,7.87-5.11,12.13-3.75,14.63-6.49,10.01-7.74,20.76-4.68,4.44-3.41,8.38-5.16,10.43s-2.13,4.13-3.33,6.31l-3.77,6.87c-.34.61-6.21,7.02-7.54,8.11-6.64,5.42-1.74,3.21-7.62,7.58-2.23,1.66-4.14,3.4-6.12,5.36-1.58,1.55-4.17,2.74-5.47,4.38l-2.45,3.08-3.85,4.74c-.66.82-1.35,2.63-2.2,3.23-1.97,1.39-3.86,2.71-3.38,5.57,2.48-1.43,5.32-3.04,7.28-4.5,3.08-4.39,6.8-7.38,10.78-10.89l3.79-3.34,6.72-4.9,2.02-2.66,3.43-2.63c5.19-3.98,1.25-2.9,7.38-7.23,1.46-1.03,6.02-7.86,6.91-9.9l4.73-10.91c.98-2.26,2.15-4.43,2.94-6.85.7-2.16,1.52-3.96,2.62-5.88,3.62-6.28,1.4-3.74,4.64-9.86.94-1.78,1.49-3.67,2.14-5.54l3.12-8.94c.54-1.55,1.72-3.74,2.73-5.04l6.82-8.78c2.26-2.92,4.05-5.83,6.51-8.57l5.3-5.9c2-2.22,2.54-5.03,2.09-8.07-.18-1.25,1.49-2.76,1.68-3.71l1.22-6.3,2.28-10.15,1.34-5.82c.41-1.78.5-3.74.22-5.51l-.96-6.11c-.95-6.06.53-9.59-.11-14.96-.05-.45.26-1.41.68-1.47s1.79.13,2.06.45l3.57,4.21c6.79,2.54,6.35,4.02,8.04,10.1.38,1.38-.02,3.78.28,5.22,1.24,6.09-1.73,15.85-2.39,23.1-.37,4.11,1.04,7.9-.65,12.15-.53,1.32-.57,4.34-1.38,5.56-2.74,4.12-4.04,8.29-4.43,13.23-.07.89-.78,2.54-.79,3.49,0,2.25-1.2,3.66-1.94,5.5-.8,2-1.09,4.47-2.19,6.4l-2.04,3.59c-1.24,2.17-2.29,3.77-2.56,6.48l-3.57,3.84-.96,3.52-2.98,3.04c-3.6,3.66-3.28,5.3-5.55,11.89-.38,1.09-.18,3.66-.93,4.47-2.23,2.41-3.68,4.72-5.25,7.37-3.62,6.14-8.91,10.36-14.04,15l-5.56,5.03c-3.67,3.33-7.05,6.9-10.93,9.97-3.84,3.03-4.74,4.36-7.98,5.62-2.41,2.56-5.06,4.08-8.07,6.02-3.29,2.12-6.21,5.06-9.4,7.44Z"/>
  <path class="cls-1" d="M459.7,850.28l2.31,11.19c.38,1.83.39,3.39.92,5.14l-.33,2.85c1.4,3.24,2.13,7.13,3.99,9.92,2.69,4.04,2.96,4.75,5.32,8.3,1.09,1.64,1.79,3.81,2.71,5.38,4.52,7.75,1.63,3.92,5.35,11.16l4.06,7.9c3.96,7.71,3.04,8.02,5.41,14.54l3.38,9.28c.21.56.01,1.88-.25,2.4-.31.61-2.16.85-2.72.45l-5.59-3.92c-3.27-2.3-7.7-6.11-9.63-9.5-1.28-2.24-3.03-4.56-4.01-6.91-4.76-11.42-3.11-14.92-6.23-23.75-.56-1.58-1.05-3.08-1.85-4.57-2.32-4.29-7.67-8.89-9.72-11.99l-3.74-5.65-2.98-4.12c-1.95-2.69-3.35-5.89-5.64-8.24-5.13-5.25-4.19-6.7-8.48-9.62-1.02-2.28-2.8-4.06-4.62-5.87l-5.77-5.72c-1.84-1.83-3.68-4.26-5.61-5.76-4.39-3.39-7.68-6.74-10.04-11.76-.49-1.03-1.71-2.52-2.17-3.69l-2.13-5.47-2.45-6.48c-1.06-2.79-1.05-4.97-1.07-7.8-.02-3.03-.51-6.27-.94-9.43-.19-1.42-.99-3.39-1.42-4.85l-1.18-3.99c-1.63-5.5-1.86-7.22-2.2-13.21-.16-2.83-.5-5.63-.25-8.38.93-10.23-1.55-6.24.69-15.63.47-1.98-.29-4.73,1.52-5.96,2.92-2,5.54-3.81,8.2-6.13,1.12-1.04,2.29-3.24,3.17-4.65l3.45-5.53c1.3-2.08,2.83-4.34,3.77-6.59l1.82-4.33c2.6-6.18,1.09-1.28,4.95-8.66,1.42-2.71,2.83-5.43,4.17-8.25l3.67-7.75c.61-1.29,1.09-2.92,1.58-4.3l1.83-5.22c.42-1.2,2.05-9.12,2.36-11.63,5.07.13,3.49,4.14,11.02,6.65,2.28.76,4.31.85,6.71.48s5.47.19,7.73-.5c7.65-2.35,2.7-.06,10.82-3.05,4.38-1.61,11.12-4.67,13.81.27,1.38-1.01,3.04-2.27,4.15-2.56,2.46.3,4.66-.37,7.1-.97l4.94-1.22c1.37-2.72,3.55-4.33,5.88-6.17l3.09-2.45c2.42-1.91,3.9-4.77,5.42-7.46,4.02-7.09,1.23-5.95,6.32-10.13.99,2.25,1.51,3.83,2.2,5.85l1.89,5.59c.47,1.39.38,3.11.45,4.63.37,7.89-1.17,11.79.29,19.07,2.01,10.05,2.28,7.22,4.33,15.7.47,1.95,1.38,4.29,2.34,5.95l2.31,4c1.09,1.89,1.68,3.72,2.52,5.86l4.35,11.05,1.9,4.68,1.52,4.92,4.5,11.49c.89,2.26,1.13,4.62,2.18,6.9l4.1,8.89c.23,4.23.03,8.12,1.8,12.07-.09,8.39,2.29,6.76,1.36,16.46.36,1.84,1.09,4.39,1.31,6.48l1.15,11.07c.25,2.4.12,5,0,7.44-.48,9.26.47,11.19-.33,18.99-.22,2.18-1.34,4.5-1.68,6.61-1.03,6.33-2.28,7.98-4.78,14.57-.42,1.11-1.41,2.44-1.71,3.68l-1.07,4.5-2.17,7.69c-1.92,1.88-1.86,4.82-2.88,7.19l-5.96,13.87c-.5,1.17-.78,2.63-1.3,3.72l-2.1,4.46-2.1,4.33c-1.19,2.46-2.58,4.4-3.66,6.93l-1.91,4.51c-2.25,5.29-10.4,17.37-14.78,20.79-2.75,2.14-4.61,3.64-6.54,6.71-.97,1.54-3.3,3.11-4.55,4.7-.54.69-1.42,1.42-2.08,1.45-1.75.08-1.9-4.37-3.21-8.5-.96-3.05-5.24-14.63-6.55-17.28l-3.34-6.73c-1.28-2.57-2.74-5.2-4.19-7.78l-3.97-7.05c-2.6-4.63-3.2-6.39-5.69-11.28l-2.87-5.65c-2.08-4.08-3.05-8.33-3.57-12.88l-.86-7.53c-.28-2.41-.59-4.2-1.84-6.34l-.52-4.56c-.63-5.44-.91-12.49-.31-18.15.23-2.16-.7-4.8-.61-6.88.08-1.87.06-3.06-.49-4.77-1.32-4.05-1.82-8.77-4.3-12.21-2.17-3.01-3.51-5.64-4.07-9.36l-.52-3.43-3.54-1.35c-.62.47-.64,2.19-.45,3.09l1.03,5.1c.49,2.4,3.42,5.68,4.19,8.7l1.74,6.89c2.79,11.05.62,15.47,1.65,21.3.19,1.06.52,2.48.54,3.46l.21,14.28Z"/>
  <path class="cls-1" d="M275.4,729.38c-1.85.69-3.72.57-5.49.41-3.94-.37-7.28-1.35-9.95-4.31-2.44-2.72-6.63-2.76-9.5-.36-8.58,7.18-5.62,7.05-12.57,14.32-2.41,2.52-4.74,5.2-7.04,7.86-1.22,1.42-2.15,3.2-3.66,4.41-3.05,2.45-4.82,5.77-7.2,8.78l-3.99,5.04c-3.9,4.94-5.5,5.49-8.64,10.81-.92,1.56-1.98,2.96-3.02,4.41-5.43,7.61-4.54,3.48-8.48,8.64l-4.12,5.39c-1.03,1.34-1.95,2.68-2.86,4.09l-3.9,6.03c-.76,1.18-2.16,2.93-3.37,2.77l-4.05-4.41c-1.05-1.15-2.99-3.58-3.59-4.99l-3.52-8.25-1.83-4.27c-1.09-2.54-3.09-8.72-3.37-11.48-1.65-16.03-4.41-9.12-3.48-28.89l.41-8.73,1.02-11.39c.3-3.29,1.18-6.33,1.93-9.51,1.27-5.35,3.38-9.77,6.02-14.49l2.69-4.82,4.62-7.38c5.18-8.27,8.5-10.62,12.69-16.84,1.23-1.83,2.25-3.79,3.69-5.38l7.8-8.63,3.29-4.24c4.06-5.23,7.77-8.33,10.64-12.32l3.37-4.68c1.25-1.73,2.93-3.08,4.46-4.6l6.51-6.46,11.14-12.07c4.58-4.96,8.56-10.64,14.21-14.59l12.37-8.64,5.38-3.69c2.88-1.97,6.27-3.28,9.02-5.42s5.72-4.33,8.71-6.24c.76-.49,1.82-2.94,3.04-1.63,1.97,2.13,4.34,3.06,6.62,4.9l4.32,3.47,6.43,1.61.27-5.02c-3.54-1.14-5.17-3.82-5.85-7.3l-4.96-3.86c1.13-2.11,3.2-2.12,5.05-2.96,1.21-.55,2.37-1.05,3.83-1.11,3.26-.14,6.09-2.4,9.01-3.02,1.94-.41,4.54.37,6.64-.77,2.63-1.43,4.82-2.94,7.45-4.66,1.13-.74,3.92-.56,5.19-1.21,2.42-1.25,4.3-1.96,7.2-2.36.08,1.48-.37,3.14-.18,4.01l1.28,6.04c-4.16,1.41-6.34,5.82-5.37,9.94.48.44,2.16.79,2.93.61,1.88-.45,2.22-4.75,4.45-4.09l.94,6.2c3.03,1.7,3,5.32,4.44,8.11,1.24,2.4,2.7,5.02,4.11,7.27.89,1.41,1.93,1.94,2.21,4.07.18,1.35.78,3.65,1.39,4.81l1.94,3.72c.21.41.91,1.11,1.33,1.31.5.24,1.73-.11,2.54-.56-.81-1.76-1.67-3.32-2.73-5.13-.8-1.37-.68-3.78-1.28-5.23l-2.37-5.72-3.18-6.66c-.8-1.68-2.21-2.97-1.89-5.06.31-1.98-.76-3.36-1.36-5.1-.85-2.45-1.36-5.15-1.9-7.99,5.07.94.02,6.01,7.51,11.71,1.87,1.43,2.82,2.93,3.58,5.21.67,2.02,2.38,3.88,3.59,5.66l5.03,7.42,3.31,4.82,5.03,6.55c.83,1.09,3.56,1.91,4.4,3.39,1.49,2.62,3.89,2.93,6.34,3.72,2.13.69,3.6.48,5.18-.67,2.81,0,4.05,3.71,4.02,6.19,3.04,5.63,1.32,3.77,6.05,8.76,1.22,1.29,3.14,2.41,3.97,3.98l3.5,6.6c.82,1.55,1.89,2.99,2.29,4.73.44,1.91,2.01,2.61,2.93,3.99.99,1.5,2.03,3.79,2.99,5.66.07,2.15-.24,5.04-.71,7.23l-.99,4.63c-.23,1.09-1.81,2.81-2.3,4l-1.9,4.74c-1.18,1.77-2.3,3.47-3.48,5.46l-2.21,3.72c-4.2,3.15-7.95,6.28-10.77,10.71-3.42,5.36-4.61,1.21-13.06,10.99-1.27,1.47-3.29,2.51-4.85,3.62l-6.17,4.4c-2.06,1.47-3.8,2.83-6.08,4.04s-4.69,2.79-7.11,3.85c-.9.39-2.83-.92-3.76-1.2-1.99-.61-4.28.64-6.21.98-2.77.49-5.29.9-7.89,1.74-2.26.73-4.9.77-7.3,1.37-1.16.29-1.61.13-2.97-.07-3.49-.52-7.52-.41-11.1-.07l-8.68.82c-9.59.91-11.39.48-21.19,2.81l-8.62,2.05c-1.58.38-3.67,1.45-5.3,2.07l-4.97,1.86ZM176.55,791.96c2.11-.6,4.01-1.36,4.66-2.58l-.21-6.83,3.41-21.58c.38-2.37,1.1-4.49,1.64-6.76.66-2.79,1.22-5.82,1.73-8.72.36-2.04.38-3.44,1.52-5.11.57-.83,1.52-2.31,1.84-3.16,1.35-3.66,2.83-6.95,4.43-10.48s2.84-6.79,5.9-9.26c.76-.76.98-3.39,1.72-4.23l3.75-4.22c1.78-2,2.38-5.71,4.01-8.05,2.79-4,5.49-7.94,7.76-12.22,3.47-6.54,1.99-2.66,5.65-9.38,1.33-2.44,1.9-2.7,4.01-6.51l4.06-7.33c.8-1.45,1.24-2.98,2.26-4.3,2.08-2.7,3.93-5.39,6.17-7.84.52-.57,1.11-1.22,1.33-1.67s-.59-1.77-1.09-1.92l-2.97,2.75c-2.13.79-5.1,4.85-5.19,7.44-2.46,1.52-3.68,3.94-5.06,6.45-1.18,2.15-2.55,4.41-3.97,6.48-1.7,2.5-2.47,5.23-3.77,7.91-.57,1.18-2.58,2.46-3.29,4.17-.76,1.83-3.89,5.75-5.87,9.53-.68,1.3-1.4,3.15-2.13,4.26l-4.2,6.38-2.89,4.12c-1.05,1.5-1.68,2.67-2.63,4.54-.84,1.65-3.68,3.81-4.89,5.2-.36.42-.55,1.95-.84,2.41l-5.88,9.45c-.7,1.12-4.5,18.21-5.12,21.03l-2.74,12.39c-1.63,7.36-4.65,20.33-3.12,27.64Z"/>
  <path class="cls-1" d="M788.86,695.85c.8,3.49,6.89,4.92,8.87,10.69l-8.85,1.4c-1.13.44-2.22,1.43-4.04,1.08-6.2,3.25-1.91,2.82-6.77,4.27-2.19.65-5.04,1.37-6.92,2.36-2.6,1.37-4.1,1.3-6.94,1.29l-15.54-.07-3.22-.6-10.48-.72-9.87-.81c-2.79-.23-5.37-2.46-8.48-1.81l-2.79-1.77c-5.55,1.36-8.07-1.14-12.14.61-8.76,3.77-3.35-.05-9.69.8-2.63.35-4.95.53-7.58.57l-3.97.07c-5.65.1-10.7-1.12-16.05-3.08-1.23-.45-3.3.18-3.11-1.9l3.39-1.6c.29-.33.37-2.37-.24-2.59-1.14-.4-3.71-1-4.92-.88-3.83.45-8.12,2.08-11.1-.07l-3.47-2.51-7.67-2.77c-4.65-1.68-8.82-3.76-13.45-5.56l-7.57-2.93c-7.07-2.74-12.59-7.42-18.04-12.51l-5.47-5.11c-6.9-6.44-19.25-18.47-23.61-26.4l-2.34-4.25c-1-1.83-1.56-3.35-2.25-5.33-1.24-3.58-3.11-6.97-4.09-10.75-.78-3-1.25-6.14-2.64-8.92-2.01-4.03-.5-1.26-2.31-6.8-.14-.42,1.12-.91,1.64-.89,11.76.45,11.32-1.39,19.48-6.68,11.95-7.74,8.16-7.49,16.97-17.53,2.35-2.67,4.27-4.85,5.31-8.26.55-1.81,1.55-3.86,1.4-5.79l-.46-6.02c2.31-2.63,2.3-5.19,1.39-8.36-.31-1.09-1.22-8.01.46-7.91,4.53.26-1.29,1.85,9.77.82,6-.56,8.59-1.58,12.98-.86.71-.43,2.23-1.72,3.08-1.6,2.02.29,4.13-.2,6.05-.36,2.12-.18,4.13.15,6.23-.44,3.54-.99,7.37-.03,10.94-.3l5.06-1.31c3.77-.97,5.66.95,8.86,1.72,1.09.26,8.74-.95,12.23,3.1,3.19,3.71,3.5.72,7.67,4.79l3.06,2.98c2.07,2.02,3.81,4.12,5.88,6.15l4.24,4.15c1.2,1.17,1.87,2.83,3.17,3.83,4.65,3.6,1.32,2.1,6.87,7.23,2.36,2.18,4.86,3.77,7.43,5.6,2.79,1.98,5.12,4.65,8.35,5.94,7.66,3.04,7.4,9.32,12.34,14.25,2.09,2.09,5.25,3.03,7.19,5.41.71.87,1.34,2.19,1.94,3.16,4.24,6.83,5.85,12.62,7.82,15.67,3.14,4.87,5.82,9.52,8.3,14.75,3.07,6.49-.39,1.51,3.17,8.68.14.29.18,1.32-.13,1.38-1.99.41-.07-.88-3.98-4.27l-10.99-9.54c-1.26-1.09-2.29-2.42-3.8-3.26-1-.56-2.85-1.13-3.63-1.71l-6.38-4.71c-3.23-2.38-7.43-7.31-10.22-8.38-2.37-3.86-4.86-7.56-7.72-11.24-.83-1.08-1.75-1.7-2.71-2.75l-4.02-4.42c-1.6-1.76-3.16-3.07-4.8-4.84-4.6-4.96-6.25-3.68-7.04-4.92-1.07-1.69-2.16-4.34-4.07-5.42-.82-.46-2.39,1.43-2.33,2.29.06.96.76,2.2,1.3,3.25l1.25,2.43c1.46,1.03,2.47,3.65,3.72,4.6l5.97,4.54c2.86,2.18,9.56,9.98,11.43,13.08,2.3,3.81,6.02,7.73,9.33,10.69l1.34,2.66c2.58.7,4.47,2.66,5.85,4.82l4.33,2.41,4.53,2.97c2.16,1.42,4.25,2.56,6.27,4.32,1.52,1.33,2.9,2.38,4.52,3.6,6.91,5.19,2.43,3.35,6.15,6.71,5.58,5.05,8.32,11.93,12.93,17.73l6.39,8.02c3.38,4.24,4.66,6.55,7.47,10.01,1.28,1.57,3.03,2.36,3.55,4.64Z"/>
  <path class="cls-1" d="M403.77,479.34c-.73-.52-3.23.84-3.19,1.7.12,2.68.7,5.57,1.17,8.18.82,4.54,4.06,7.95,7.88,10.1,3,1.69,5.84,3.43,8.71,5.29,2,1.3,3.05,3.25,3.48,5.72l3.07-.35c6.34,10.08,8.1,9.15,13.65,20.2,2.81,5.6,4.42,4.2,5,8.48l2.89,1.01c2.07,6.15,10.24,2.52,10.95,7.89.12.87-.39,3.16.37,3.54,1.17.51,3.54.64,4.23,1.44,1.08,1.27,2.35,2.36,3.43,3.52l6.89,7.36c2.51,2.68,6.6,3.03,10.42,3.56.12-1.73-.17-4.45-1.64-5.47-1.04-.73-3.35-.97-4.1-1.92-1.5-1.9-2.44-4.5-3.94-6.02-2.06-2.07-2.73-3.35-3.07-6.27l-.56-4.85c1.04-.75,2.84-2.14,3.9-2.54l4.23-1.59c2.45,2.21,3.92,5.33,5.37,8.34,2.42,5.02-3.87,6.32-.61,11.2.54.8,2.5,1.16,3.56,1.21,6.13.31,4.34-5.09,8.08-6.56,2.13-.83,1.48,1.33,8.58,1.74.9.05,2.03-1.68,2.1-2.57.09-1.15-.34-3.38-1.58-3.49-2.12-.19-4.55-.27-5.93-1.22-1.18-3.6,1.43-6.42,2.08-9.57.38-1.87.65-3.3,2.11-4.73-2.17-8.76-.2-2.67,1.06-8.98.2-1.02-.4-2.5-1.29-2.58l-5.53-.45c.02,1.81-.68,4.61-2.63,5.04-2.55-1.95.49-9.11,1.44-13.33.51-2.25-3.72-4.38-5.28-2.84-4.09,4.05-4.62,5.12-7.68,10.37-2.76,4.74-3.48,3.58-4.01,5.88-.18.76.48,2.64,1.32,2.88l4.96,1.4-1.11,5.62-5.88-2.06c-.75.49-10.8,4.15-10.41,2.62-.91-1.64.01-4.09.56-5.83,1.36-4.31,2.32-14.83-1.01-16.6-1.14-.6-3.5-1.2-4.27-.41-1.24,1.28-2.27,2.2-3.54,3.15-4.99,3.72-4.64,8.22-8.69,12.05-.38,2.61.91,5.78,1.6,8.77-2.22-.83-3.14-3.07-4.51-4.86-1.58-2.08-3-3.67-3.58-6.77l5.33,2.1c.2-3.6-.99-6.09-2.7-8.83-.82-1.31-1.31-3.5-2.2-4.73-1.63-2.23-2-4.49-3.37-6.84l-3.94-6.74c-.81-1.39-3.74-11.33-4.04-12.88-.76-3.94-2.63-6.32-4.82-9.42-1.88-2.66-2.98-5.93-5.66-8.41-1.81-1.68-2.85-5.41-.55-7.14,1.75-1.31,5.07.13,7.18.39,1.65.2,3.31.89,3.64,2.55.6,2.97,1.2,5.75,1.65,8.74.62,4.11.44,8.48,2.4,12.24.46.89,1.97,2.13,1.93,3.04-.09,2.17.23,3.68,1.87,5.1,2.24-2.62,1.28-5.5.72-8.17l-1.55-7.41-1.03-4.98c-.4-1.92-.53-9.51.26-10.75l4.82,1.16,4.62,6.49c1.32,1.86.6,5.06,1.44,7.1,1.84,4.48,2.38,8.78,3.24,13.48.47,2.54,2.89,5.26,1.07,8.46-.52.91.24,2.68,1.07,3.29,1.91,1.4,6.03-2,5.63-2.94-2.74-6.07-.12-4.16-2.88-12.49-.78-2.37-1.64-4.85-2.22-7.26l-1.76-7.3c-1.08-4.46-4.14-9.42-8.09-12.12.31-.67,1.28-1.46,1.98-1.63,10.19-2.53,10.83,1.6,21.34-4.11,2.44-1.33,4.45-3.16,6.77-4.73l9.85-6.66c1.85-1.25,3.4-2.14,5.69-3.15,1.19,4.04-2.43,6.05-.04,9.14.5.64,2.79,1.11,3.17.39l2.3-4.41c2.9.45,1.14,6.65,5.73,12.63.52.67,2.31.17,2.91-.31,2.64-2.13-.78-7.74-1.59-9.6-1.56-3.58-.76-8.38-1.05-12.54,3.01.61,4.85.93,7.52,1.33,1.4.21,2.97,2.65,4.29,3.13,1.73.62,2.96.99,4.1,2.07,2.08,1.96,6.22,6.52,6.95,8.62.86,2.49,2.01,4.36,2.68,6.86l.98,3.65c.47,1.74,1.46,3.74,2.35,5.06l3.32,4.92c1.1,1.63,4.09,3.34,5.99,4.01,8.72,3.05,4.04,1.34,13.95,1.98.47,6.11-1.96,4.23.77,9.61.87,1.72.66,3.27-.23,4.82-1.79,3.11-3.69,5.92-5.65,8.85-.95,1.42-1.24,1.94-3.01,2.89-4.86,2.61-5.63,6.61-7.84,11.37-.56,1.21-1,2.72-1.43,4.13-3.32,2.45-5.05,5.7-6.7,9.46-2.4,5.46-.98,4.66-3.67,6.31,0,.68.45,2.95,1.08,3.67,1.07,1.24,3.75,1.72,5.38,1.77-.18-4.06,2.64-10.19,4.63-13.59.73-1.25,2.85-2.51,3.43-3.84.86-1.96,2.13-3.67,3.57-5.11,1.59-9.46,5.22-7.73,9.25-12.68l5.19-6.37c1.39-1.71,3.18-7.36,3.85-10.07.49-1.99-.94-5.11-2.21-6.8-1-1.33-5.82-1.51-4.12-4.07l5,.76c1.3.2,1.9,2.23,2.53,2.93,2.16,2.39,2.29,4.8,2.94,7.82.74,3.46,2.04,6.75,1.66,10.65-.12,1.2.64,2.9.77,4.04l1.57,12.89c-.53,1.68-1.44,3.98-1.34,5.95.3,5.61-.74,10.67-1.27,16.15l-.36,3.75-1.71,8.25c-1.09,1.31-1.65,2.47-1.89,4.33-.36,2.75-3.19,4.97-4.27,7.4s-3.85,6.54-5.84,8.45l-1.59,3.66c-5.85,5.35-8.26,13.47-14.77,18.67-2.34.6-3.8,1.4-5.8,2.3l-4.57,2.04c-2.94,1.31-5.6,2.91-8.3,4.66-3.35,2.16-4.1,3.41-5.87,3.57-.8.07-2.24-.89-2.68-1.77l-1.66-3.29c-2.96-2.86-6.32-.09-8.54,1.79-4.06,2.63-10.23,1.48-14.9,1.24-2.16-.11-3.97.32-6.05.56-1.06.12-2.05-1.86-3.76-.35-1.27,1.13-3.27.11-4.76-.04-4-.39-8.08-1.13-11.94-1.98-1.09.11-3.19.55-4.32.5l-2.84-.13c-1.02-2.6-1.79-5.2-3.1-7.61-.84-1.54-3.92-3.55-5.67-3.97-2.86-.68-5.81-1.54-8.57-1.86l-7.77-.89c-2.95-.34-6.2-.53-8.98-1.37-8.22-2.49-2.61,1.01-12.32-3.43l-5.44-2.49c-1.41-1.37-2.36-1.99-4.41-2.47-5.86-3.68-4.37-9.31-7.71-9.4-1.63-.04-3.67.66-4.54-1.66l-4.09-10.83c-.81-2.13-.47-4.91-.89-7.16-.52-2.78-.92-5.27-.82-8.05l.18-5.04.19-5.03.29-9.97.35-9.1c.07-1.79,1.1-4.92,1.66-6.56,6.67-5.36,4.96-12.54,9.69-17.86,1.74-1.95,2.59-3.62,3.8-5.81,2.34-4.25,10.54-15.61,14.53-17.44,2.2-1.01,4.58,1.47,5.48,3.07,1.81,3.2,3.63,5.88,5.73,8.85l3.89,5.51c.9,1.28,1.64,2.75,2.73,3.77,2.26,2.11.96,5.38,1.71,8.04.93,3.3,2.86,6.48,3.99,9.72,1.4,3.98,3.94,6.43,6.4,9.77,1.44,1.95,2.25,6.71,3.91,8.31.14.14.11,1.39-.03,1.53-.15.15-.29.2-.44.1-.17-.12-.59-.62-.72-.85-1.29-2.41-3.23-4.72-4.83-6.86-4.02-5.37-5.37-6.95-9.94-11.72-1.53-1.6-2.24-2.5-4.36-3.32-6.21-2.41-6.8-4.29-11.21-7.71-3.88-3.01-3.78-9.68-6.75-14.07ZM516.11,507.8l4.67-1.04c.47-4.62.66-8.64,1.53-13.05.49-2.49.6-4.58.37-7.3-.25-2.91,1.05-6.28.04-9.16-2.18-6.24.16-7.33-2.08-8.24-.37-.15-1.56.27-1.58.67l-.38,6.25c-.17,2.73-.02,5.36-.41,7.84-.34,2.2-.83,3.78.12,5.94.64,1.45-.03,2.88-1.29,4l.29,3.89c-1.67,3.38-2.66,6.23-1.27,10.2Z"/>
  <path class="cls-1" d="M622.93,347c1.39,26.04-5.6,29.52-6.72,35.52-.08.45-.75,1.24-1.04,1.43-.37.24-.99-1.2-.99-1.66l.02-4.84c.01-3.17.72-6.49-.11-9.65-.73-2.77-.71-5.45.1-8.06-1.47-.28-2.44-1.29-2.63-2.78-1.1-8.88-.68-8.29-3.35-16.31l-2.99-8.98c-3.08-9.25-15.39-22.28-17.16-30.58l-2.31-10.86c-.57-2.67-.09-5.83-.45-8.7-.43-3.42-.04-6.54.05-10.02.21-8.2-2.85-14.08-1.68-30.83.39-5.6,1.19-11.02,1.04-16.58-.17-6.21-1.16-12.48-3.21-18.15l-3.75-10.36-2.65-7.33-2.29-6.2c-2.17-5.9-5.18-11.26-6.8-16.67-1.2-4-2.4-7.67-2.73-11.93,2.05.23,2.3,1.57,2.93,2.94l7.44,16.04,2.51,5.14c1.01,2.07,2.59,4.4,4.03,6.19l2.95,3.65c2.52,3.13,4.37,6,5.77,9.79,1.01,2.74,2.72,5.71,3.21,8.53s1.54,4.25,2.52,6.58c2.74,6.53,4.34,13.65,5.48,20.64l2.26,13.84c.2,1.2.84,2.98.72,4.09-.37,3.47,1.19,5.33,2.61,7.96,1.68,3.12,2.89,6.42,4.29,9.8.59,1.41.27,3.35.32,4.86l.23,6.16c.03.8.74,2.06.96,2.91,1.35,5.05,1.75,10.55,1.47,15.84l-6.06,6.12c-1.74,1.75-1.06,4.11.74,5.92.92.93,3.12,2.63,4.29,1.62,1.02-.89,2.76-2.16,3.75-1.39l1.66,9.4c1.27,7.15,1.57,3.24,1.98,10.57,1.74,1.8,2.34,3.94,2.22,6.34l.99,3.07.37,6.95Z"/>
  <path class="cls-1" d="M799,697.16l-3.41-3.82-4.16-4.77-3.66-4.31-8.14-10c-.33-.4-.54-1.48-.13-1.66,2.31-1.03,2.58,2.86,5.68,2.74,2.1-8-3.73-9.04-5.43-11.47-2.26-3.23-4.44-6.32-6.44-9.7-1.2-2.03-1.96-4.73-3.08-6.87l-1.44-2.74c-2.75-5.25-2.24-7.83-5.91-13.51-1.1-1.71-2.12-3.23-3.07-4.97l-4.05-7.39c-.54-.98-2.13-1.76-.86-3.11,5.2,3.77,10.4,6.59,15.9,9.19l4.46,2.11c2.14,1.01,4.34,3.08,6.19,4.62,2.73,2.26,2.86,5.64,4.22,8.61,1.52,3.33,3.83,6.77,5.84,9.87.35.54,1.77,1.49,2,2.11l4.45,12.39,2.2,6.8,4.92,14.05c.72,2.07,1.2,3.31,2.4,5.22s1.18,5.08,2.22,7.35c.52,1.13.48,2.8.17,3.75l-3.54-2.37-2.02,3.38-5.28-5.51Z"/>
  <path class="cls-1" d="M359.75,313.51l-6.47-6.3c-2.52-2.46-6.4-6.64-8.39-9.49-2.26-3.24-3.66-7.16-7.3-9.26l-9.83-5.66-4.58-1.27c-.4-.11-4.27-2.94-9.43-4.07l-7.97-1.74c-2.45-.53-5.67.63-8.35.73s-5.13-1.09-7.67-1.55c-6.07-1.1-12.12-.68-18.24-1.05l-9.05-.54c-1.95-.12-4.35-1-6.46-1.33s-3.91-1.56-5.82-2.63c-.77-.43-2.51-.82-3.23-1.29-2.51-1.66-4.95-2.6-7.82-3.3l-3.69-.9.03-2.3c.81-.39,15.13-1.9,14.68-1.89l9.79-.32c8.95-.29,17.3.22,24.59,5.61,7.55,1.89,5.54,3.01,13.08,4.93,2.46.63,4.81,1.19,7.39,1.51,3.39.42,12.82,2.67,15.71,3.74,7.69,2.82,4.09,2.23,11.16,6.06,2.41,1.31,4.78,3.16,7.02,4.89,3.12,2.42,8.08,5.72,11.59,7.89l6.7,4.14c1.17.72,2.47,1.3,3.57,2.05l12.19,8.35c5.16,3.54,3.62,7.2,3.42,15.26-.04,1.62.7,3.15-.73,4.45l-3.38-2.95-5.03-4.39c-1.37-1.2-2.9-2.1-3.88-3.75-.89-1.49-2.27-2.36-3.58-3.63Z"/>
  <path class="cls-1" d="M485.31,650.52c-1.63.96-5.88.88-7.51.11-1.93-.91-3.89-2.18-5.75-3.26l-2.21-2.71c-2.07-2.53-8.28-10.34-8.28-12.9,0-.55,1.51-.46,2.16-.45,1.86,0,3.68-.56,5.57-1.1,2.03-.58,4.43-.63,6.48-1.1,2.55-.58,4.88-.99,7.44-1.5l7.42-1.48c2.29-.46,5.44,1.06,7.84,1.22l6.6.45c1.17.08,3.21,0,4.34-.14l8.93-1.08c-4.65,7.39-5.15,4.93-9.4,8.31l-6.18,4.92c-8.13,6.47-6.93,1.81-11.72,6.36-1.44,1.37-3.75,3.17-5.74,4.34Z"/>
  <path class="cls-1" d="M560,603.02c-.57.05-1.99-.22-2.09-.74-.12-.62.39-1.71,1.03-2.78-3.41-6.46-2.55-3.68-4.72-4.55-1.53-.61.99-4.18,2.16-5.11l8.83-7.08,5.19-3.84c1.71-1.26,4.02-1.64,5.5-3.59,1.02-1.34,3.23-2.94,3.73-4.47,1.14-3.45,2.5-5.68,4.86-8.21,1.55-1.66,2.15-4.24,3.12-6.04l2.46-4.54c.42-.77,1.37-2.03,2.2-2,.99.03,4.95,3.82,3.33,8.51-3.52,10.23-.14,10.84-4.11,17.74-1.24,2.15-2.73,3.99-4.06,5.96l-4.47,6.64c-1.04,1.54-2.49,2.55-3.84,3.73-1.04.91-2.01,2.06-3.21,2.82-2.24,1.42-4.3,3.09-6.6,4.3l-5.56,2.92-3.73.31Z"/>
  <path class="cls-1" d="M434.79,457.86l-6.27-.48c-2.15-.16-3.94-.3-6.1.05-.77.12-2.43-.93-1.87-1.61,1.33-1.62,3.54-1.81,5-2.82,6.57-4.56,4.91-1.27,13.84-4.6,2.46-.92,5.39-1.29,7.75-2.38,7.77-3.6,11.3-6.26,18.05-10.3l7.27-4.35c2.67-1.6,7.72-3,11.09-2.01,2.2.65,5.45,1.39,6.34,3.66.76,1.93-1.94,2.81-3.05,3.38-2.34,1.2-4.35,2.56-6.46,4l-4.17,2.85c-2.55,1.74-5.54,3.06-7.83,5.05-7.91,6.88-14.27,2.24-24.83,6.36-1.41.55-3.74,2.57-4.97.86-.81-1.14-1.45-2.05-2.57-3.32l-1.23,5.68Z"/>
  <path class="cls-1" d="M186.01,668.72c-1.01,1.33-3.28,3.91-4.54,3.7-.35-.06-.29-1.13-.05-1.45l2.1-2.73,2.46-4.65,2.05-3.94c1.41-2.71,3-4.83,4.89-7.28.87-1.13,1.82-2.91,2.67-4.25l4.65-7.28c1.01-1.59,1.74-3.62,2.85-5.13,4.65-7.29,5.75-8.54,11.72-13.87l6.87-6.14,8.07-6.52c1.16-.93,2.89-1.62,3.97-2.55l10.46-8.99,4.26-2.79c.91-.6,2.19-.96,3.17-.49-.94,2.3-2.37,4.27-4.25,5.5-2.01,1.31-3.03,3.2-4.55,4.92-1.8,2.03-3.74,3.94-5.39,6.08l-2.2,2.83c-1.41,1.82-2.91,3.38-4.68,4.91l-3.42,2.96c-2.24,1.94-4,3.97-6.41,5.77-1.11.83-2.64,2.26-3.51,3.29-3.16,6.32-3.19,6.93-8.8,10.59-1.07,1.58-2,2.7-3.22,3.96l-4.94,5.1c-.94.97-1.62,1.88-2.46,2.99l-11.76,15.46Z"/>
  <path class="cls-1" d="M469.79,659.56l-6.85,2.8c-2.77,1.13-5.42,1.61-8.31,1.95-3.17.37-5.87-.73-8.81-2.08-.82-.38-2.67-.66-3.31-1.19-1.77-1.46-3.42-2.59-5.31-3.74l-1.31-4.15c1.94-5.39,2.11-10.92,2.1-16.49l6.57-.86c3.95-.51,7.34,3.16,8.88,6.23l2.74,5.46c.82,1.64,1.73,3.71,2.53,5.48,1.14,2.55,7.19,3.49,9.77,3.72l6.19.55c-2.09,1.11-3.19,1.62-4.88,2.31Z"/>
  <path class="cls-1" d="M452.38,908.82l1.17,1.56c.29.39-.57,1.51-1.02,1.83l-1.76-2.41c-1.93-1.44-3.12-3.2-4.67-4.97l-6.04-6.88-3.44-4.15c-4.43-5.35-5.82-8.69-9.52-13.28-5.43-6.72-5.02-8.03-9.96-14.21-3.03-3.79-6.49-8.28-8.96-12.89,4.12-.79,5.88,2.57,8.46,4.33,2,1.37,3.7,2.5,5.44,4.13,2.21,2.06,5.41,2.94,6.01,6.66l3.18.69,3.06,4.54c4.03,5.99,3.09,2.73,7.53,10.53l2.73,4.8c.78,1.37,1.56,2.81,1.99,4.34.87,3.14,2.53,5.56,4.16,8.42.99,1.74.21,5.07,1.65,6.97Z"/>
  <path class="cls-1" d="M563.1,472.61l-13.45-.28c-1.86-.04-9.18-2.03-10.92-4.03l-5.72-12.01c-1.15-2.41-3.44-5.36-1.25-7.97l6.16,1.83c1.38.41,2.78.52,4.15.68l12.03,1.46c3.99.48,6,6.48,5.57,9.86,1.76,3.51,2.95,6.05,3.43,10.46Z"/>
  <path class="cls-1" d="M616.23,697.9l-5.33-.47c-1.29-.11-3.49-1.67-4.78-1.56-2.17.18-3.55-.09-5.59-.8-2.43-.85-5.89-.7-7.43-3.16-2.64-4.22-3.07-3.35-6.57-7.38-2.04-2.35-3.74-4.42-6.25-6.34-1.02-.78-1.66-2.12-2.42-3.07l-2.47-3.07-6.01-7.47c-2.06-2.56-5.2-7.02-6.7-9.89-1.38-2.65-3.37-5.16-4.49-7.91l-2.73-6.74c-1.49-3.68-2.8-7.62-2.71-11.88,4.14,7.15,5.54,13.55,9.72,19.4,2.3,3.22,3.93,7,6.49,9.93l4.45,5.1c1.78,2.04,3.93,4.11,5.64,6.23.61.75,2.44,1.7,3.1,2.39l2.77,2.9,4.81,4.1c1.47,1.25,2.43,2.42,3.98,3.65,6.56,5.21,1.98,3.4,6.75,6.65,4.25,2.89,8.09,5.61,13.27,6.71.98.21,1.85,1.21,2.47,2.69Z"/>
  <path class="cls-1" d="M566.73,795.53c-1.23-6.97-.17-9.68-2.16-16.46-.2-.67-1.83-1.75-1.62-2.34.24-.67,1.21-1.78,1.93-2.53-2.22-5.83-1.06-8.56-2.21-14.06l-1.82-8.69c-.57-2.73-1.82-5.53-2.76-8.21l-2.87-8.17-1.94-5.47c-1.65-4.65-3.47-9.08-5.45-13.58-2.35-5.34-2.81-8.58-4.4-12.08l-3.31-7.28c-1.16-2.55-2.34-5-3.33-7.57-2.71-7.06-3.57-7.75-4.92-15.13-.43-2.34-1.97-4.34-1.19-7.03,1.37-1.23,8.25,16.94,8.59,17.95,1.55,4.59,4.56,8.77,5.77,13.44,1.03,3.95,1.86,7.59,3.26,11.35l1.89,5.07,3.31,9.23c.91,2.53,2.56,4.55,3.43,7.08l2.2,6.34c.61,1.75,1.4,3.18,1.54,5.07.07.89,1.67,2.12,1.88,2.92l1.35,5.32c.62,2.43,1.4,4.25,1.87,6.82,1.99,10.86,4.98,12.55,2.41,23.96-1.02,4.54,1.42,9.22-1.48,14.04Z"/>
  <path class="cls-1" d="M728.81,490.86c2.9-4.19,6.24-6.23,9.75-10.71,1.45-1.85,2.78-3.17,4.41-4.67l6.05-5.54c.73-.67,2.12-1.5,2.83-2,1.34-2.19,4.57-5.98,6.4-7.68l5.99-5.57c1.51-1.41,3.12-2.46,4.72-3.82l4.3-3.65c1.57-1.33,3.15-2.46,4.76-3.69l5.69-4.33,5.49-4.44,9.5-7.23c1.87-1.42,4.02-2.09,5.96-3.56l3.3-2.52c1.35-1.03,2.22-3,4.52-1.29-7.2,5.45-10.9,6.78-16.6,13.58-.67.79-1.23,2.11-2.06,2.52-1.94.96-2.74,2.53-4.24,3.83l-10.16,8.82c-2.15,1.86-4.12,3.96-6.4,5.62s-4.35,3.13-6.49,4.97l-2.98,2.55-9.46,8.61c-1.36,1.24-4.01,2.17-5.01,3.27-1.09,1.21-3.98,6.45-7.33,5.82-.23,1.87-1.54,2.57-2.94,3.64-2.32,1.76-4.56,3.73-6.77,5.63-.92.79-.69,2.57-3.23,1.85Z"/>
  <path class="cls-1" d="M411.23,239.38c-1.31,1.45-1.44,3.59-4.11,3.74.52-2.79,1.77-5.2,3.36-7.67,3.69-5.76,8.09-10.94,11.38-16.95.99-1.82,1.6-3.63,2.75-5.27l6-8.55c5.07-7.23.66-2.71,7.41-9.21,1.37-1.32,5.31-6.38,6.4-4.78.34,2.62-.67,5.14-1.47,7.63l-1.51,4.7c-.92,2.88-3.76,4.94-5.54,7.23-1.15,1.47-2.03,3.09-2.98,4.73-1.51,2.6-4.34,4.39-6.23,6.68l-5.64,6.85-9.83,10.88Z"/>
  <path class="cls-1" d="M271.89,760.87l-6.91,1.61c-.32.07-1.18-.22-1.33-.45-1.23-1.87,3.9-4.37,4.61-4.81l7.23-4.54c-2.75,1.72,18.99-8.98,16.19-7.84l5.16-2.09c.95-.39,3.12-.16,4.14-.4,4.35-1.05,8.38-1.83,12.73-1.25-.3,2.71-2.25,3.16-4.09,3.1-4.51,2.95-9.52,4.63-13.62,7.38-1.81,1.22-2.93,2.87-5.67,1.73l-3.83,2.79c-3.67-2.29-7.29,3.07-9.62,3.61l-4.99,1.16Z"/>
  <path class="cls-1" d="M565.04,849.3l-2.88,6.35v4.86s-4.56,1.58-4.56,1.58c.16-2.27.28-4.27.56-5.81,5.57-12.01,2.87-12.29,9.6-25.83.41-.83,3.66-12.08,4.12-13.99l1.12-4.65,1.6-10.63c2.76,2.01,1.36,4.59,2.11,6.78,1.69,4.92-.06,3.89-.59,12.02l-.37,5.65c-.23,3.58-3.58,7.4-3.97,8.39-1.08,2.73-2.08,5.69-3.53,8.04-.04,5.38-1.24,2.9-3.21,7.25Z"/>
  <path class="cls-1" d="M414.29,452.42c-.9.61-2.54-1.01-2.76-1.86s.42-2.72,1.28-3.19l7.77-4.26,7.2-3.8,4.42-2.66c1.83-1.1,4.6-2.16,6.72-2.63l7.67-1.72c2.18-.49,11.46-3.03,11.94-.95.11.49-.55,1.42-1.06,1.72l-10.12,5.96c-1.03.61-2.45.97-3.71,1.26-2.29,1.14-4.49,1.55-7.16,1.9-4.84.63-10.06,1.96-14.07,4.7l-8.12,5.55Z"/>
  <path class="cls-1" d="M356.78,531.79c-2.03,2.95-.84,5.84-3.5,5.96-.72.03-2.21-.89-2.14-1.64.73-7.1.09-5.63,2.28-13.27l1.35-4.71,1.34-5.07,2.17-8.87c.73-3,1.45-9.89,2.5-14.07l2-7.95c.44-1.74,3.87-6.42,5.14-7.18.42-.26.95,1.67.66,2.07l-2.27,3.13c-1.34,6.4-1.39,10.28-2.5,16.32l-1.13,6.17c-.34,1.85-.11,4.76-.25,6.59-1.97,1.75-2.21,3.29-2.6,5.77-1.23,7.8-3.62,8.68-3.05,16.77Z"/>
  <path class="cls-1" d="M149.58,324.85c-3.62-1.09-4.13-3.93-5.64-6.33l-2.11-3.35c-3.39-5.4-7.18-10.55-9.09-16.8-.66-2.15-.18-5.93-.11-7.95,1.96-1.74,3.16.66,4.17,1.76,2.47,2.69,4.61,5.18,6.36,8.4,2.14,3.93,5.01,7.69,5.41,12.39l1.01,11.88Z"/>
  <path class="cls-1" d="M771.61,467.5c-6.63,3.01-2.71,3.44-9.76,6.84-.82-3.55,2.32-3.93,4.11-5.48l3.96-3.41,8.27-7.22,4.39-3.66,7.82-6.71c1.45-1.25,2.69-2.97,4.41-4.07,4.56-2.89,1.23-3.39,7.35-8.01l4.35-3.29,5.19-4.41c1.39-1.18,3.81-2.04,5.84-3.19-1.37,3.45-4.33,5.16-6.23,7.91l-3.48,5.02c-1.79,2.59-4.69,4.02-7.51,6.55-2.27,2.05-4.41,3.8-6.85,5.59-2.83,2.08-5.28,4.34-7.97,6.57-1.67,1.38-3.99,2.39-5.58,3.88s-3.23,2.69-5.07,4.04c-.97.7-2.18,2.56-3.25,3.05Z"/>
  <path class="cls-1" d="M423.52,597.88l-5.52,3.67-1.98,1.44c-.55.4-1.99-.43-2.86-.69-3.98-1.19-6.7,3.52-8.23,1.19-.32-.86-.52-2.78-.9-3.66l-2.73-6.34c-.51-1.18-6.91-7.56-2.31-5.87l5.05,1.85c2.69.99,4.98,2.1,7.75,2.86s5.41,1.81,8.1,1.84l5.7.07c1.05.01,2.51.72,2.77,1.6-1.16,1.21-3.52,1.17-4.84,2.05Z"/>
  <path class="cls-1" d="M196.59,628.54c-2.72,3.36-4.63,7.73-6.68,5.28l1.91-3.87c1.56-3.16,3.9-5.79,5.73-8.72.77-1.24,1.01-2.83,2.2-3.91l4.53-4.11c1.33-1.21,2.55-3.23,4.13-4.29l9.03-6.05c1.03-.69,3.57-.86,5.29-1.25-1.31,1.73-3.41,3.31-4.38,5.03-1.16,2.08-1.82,4.05-3.57,5.61l-8.79,7.79-6.28,5.7c-1.04.95-2.29,1.74-3.15,2.79Z"/>
  <path class="cls-1" d="M382.45,483.84c-.84.88-.21,3.5-2.55,3l.09-17.17c1.48-.9,2.43-1.73,3.59-2.65,1.67-1.32,4.05-2.22,5.72-3.74l4.68-4.26c3.19-2.91,6.36-4.79,10.77-4.94,1.49-.05,2.58-.27,3.18,1.33.64,1.72-.3,1.87-1.66,2.91-1.52,1.16-3.07,3.03-4.9,3.46l-6.34,1.5c-3.81.9-6.37,2.48-7.36,6.61l-1.69,7.05c-.65,2.72-1.36,4.65-3.52,6.91Z"/>
  <path class="cls-1" d="M247.33,745.95c-2.19.87-4.58,1.75-6.57,2.84s-2.69,3.2-5.56,3.17c.7-2.04,2.08-3.63,3.54-5.22l8.14-8.84c2.51-2.72,5.34-5.81,8.96-6.89,4.13,4.05,7.4,1.97,8.2,3.81.16.37-.24,1.34-.59,1.62l-3.85,3.15c-2.03,1.66-3.77,2.97-6.22,3.95l-6.04,2.4Z"/>
  <path class="cls-1" d="M369.44,515.62l-4.12,1.85c-.01-3.19.59-6.25,1.79-9.38s1.51-6.89,2.17-10.32c.3-1.57.68-3.11.73-4.77.36-12.77,1.77-7.75,3.37-13.23.18-.63.82-1.29,1.32-1.36.48-.07,1.27,1.39,1.11,1.91-.85,2.65-.4,6.36-.72,8.98l-1.01,8.34-1.22,11.84c-.17,1.64-1.07,5.12-3.42,6.17Z"/>
  <path class="cls-1" d="M584.73,176.15c-.2-4.03-3.42-7.65-5.03-11.22l-3.45-7.64-2.42-5.15c-1.03-2.19-1.72-4.82-1.94-7.61,9.28,6.97,13.93,16.95,16.58,27.66.49,2,1.62,4.78,1.21,6.73-.1.49-1.69,1.26-2,.94l-2.95-3.7Z"/>
  <path class="cls-1" d="M580.61,521.03c-.7,2.61-1.16,5.92-3.94,5.58-1.83-.23.37-6.59.21-8.09l-1.67-15.98c-.19-1.84-2.62-8.73-1.46-11.32,2.04,1.61,1.87,3.41,2.93,5.4.99,1.86,3.38,4.67,4.78,6.13.41.43,2.54.72,2.54,1.26l-.7,7.98c-.27,3.06-1.89,6.01-2.71,9.04Z"/>
  <path class="cls-1" d="M390.92,788.56c1.01,3.62,3.31,7.01,1.6,10.85l-7.04-13.88-1.57-3.82c-2.05-4.99-2.32-9.96-1.6-15.23l.75-5.56.32-3.55c.13-1.51-.16-3.91.19-5.24l1.47-5.51c.1-.39.49-.98.79-1.15s1.22-.07,1.3.26c.68,2.59-.65.88-1.13,5.73l-.65,6.57.89,13.33c.18,2.65,1.18,4.79,2.06,7.26.44,1.24.14,3.64.74,4.82.88,1.72,1.31,3.15,1.86,5.12Z"/>
  <path class="cls-1" d="M433.66,605.78c-1.72.73-3.02,1.72-5.12,1.98-2.23.28-5.56.18-6.51-2.31,1.28-3.19,5.03-4.51,8.18-5.9,2.23-.98-.66-4.63.75-5.97,1.37.84,2.36,1.47,3.69,1.7,4.63.78,10.61,3.45,10.3,8.6-3.9.61-7.86.44-11.28,1.9Z"/>
  <path class="cls-1" d="M370.31,295.7c.05,1.37-2.28,1.7-2.84,1.25l-2.15-1.74-9.87-6.12-5.37-3.25c-3.14-1.9-5.81-4.41-9.04-6.28-1.46-.85-2.78-1.8-4.22-2.88,1.97-2.27,3.59-.76,5.4-.11,2.96,1.06,5.58,2.27,8.38,3.77s6.12,2.34,8.47,4.6c1.01.98,1.97,1.54,3.18,2.36,3.04,2.07,5.58,5.1,8.07,8.4Z"/>
  <path class="cls-1" d="M394.4,361.09c.36,2.8,1.97,7.89.17,7.41-3.3-.88-3.67-4.3-3.46-6.95l.69-8.58c.38-4.72-1.27-9.31-1.65-13.99-.35-4.32-.15-8.53-.12-13.3,3.29,2.07,4.12,5.3,5.51,8.49.67,1.54.35,3.13.11,4.93-.54,4.12.62,8.62-.4,12.66-.82,3.23-1.29,5.95-.85,9.33Z"/>
  <path class="cls-1" d="M370.27,740.28c-1.19.37-3.48-.66-4.72-.56-1.71.13-3.71.31-5.02-.05-.23-4.26,3.73-5.2,6.01-7.14,2.11-1.79,3.67-3.26,6.12-4.48l5.32-2.65-.64,6.01c-.24,2.27.49,6.06-2.02,7.3l-5.04,1.57Z"/>
  <path class="cls-1" d="M576.68,138.01c-1.2,1.27-9.03-9.67-9.47-10.19-2.34-2.79-4.36-5.18-5.57-8.67l-2.42-6.99c2.52-.65,3.31,1.23,4.56,2.6,1.99,2.19,4.04,4.33,5.69,6.78l3.85,5.71c1.94,2.87,2.55,6.71,3.36,10.76Z"/>
  <path class="cls-1" d="M817.76,681.42c1.51,8.09.13,11.09,3,20.39-4.1-.56-1.62-7.55-6.06-14.6-3.79-6.01-.29-5.26-4.81-13.16-1.62-2.82-2.1-6.17-2.47-9.66,4.82,1.8,1.65,4.13,6.01,7.69,3.77,3.08.76,5.13,4.33,9.34Z"/>
  <path class="cls-1" d="M484.9,944.61c1.92,1.45,5.26,5.92,5.04,7.63-.11.86-2,2.08-2.86,1.94l-6.18-1.01c-.71-.12-1.8-1.44-2.09-2.06-.34-.72.76-2.42.72-3.23-.24-4.81-7.28-9-7.71-14.65l3.24,3.25c.93.93,2.24,2.39,3.19,3.11l6.66,5.02Z"/>
  <path class="cls-1" d="M797.02,718.82c-2.07.18-3.87.57-5.38,1.45l-1.56-1.06c-.83-.57-2.69,2.56-8.92,1.37-.52-.1-1.14-1.98-.64-2.03l3.76-.33c1.81-2.73,11.54-4.69,14.77-3.47,5.73-.98,8.45.46,14.9.34.58.3.73,2.24.55,2.79l-6.06-.37c-3.4-.21-8.16-.29-11.42,1.31Z"/>
  <path class="cls-1" d="M495.01,109.45c-.2.25-1.01.6-1.32.65s-.76-.95-.66-1.27c4.04-13.06,3.47-7.15,6.95-14.02.58-1.15,2.59-2.14,3.72-3.05,1.99-1.6,3.77-3.04,6.52-3.91.47.93.18,2.45-.45,3.24l-4.5,5.68c-1.59,2.77-3.6,5.25-5.98,7.41l-4.27,5.26Z"/>
  <path class="cls-1" d="M240.89,252.54l-8.44.28c-2.12.07-5.17-.54-7.31-1.06l-4.31-1.05c-.87-.21-1.87-.76-1.88-1.4-.03-1.28.83-1.83,2.07-1.92,11.88-.93,1.67.4,12.17.47l7.42.05c.79,0,2.3,1.11,2.49,1.85.2.84-1.19,2.75-2.2,2.78Z"/>
  <path class="cls-1" d="M635.22,707.52c-.73,2.37-2.54,2.09-4.4,2.01l-1.68,5.38-5.43-3.51c-5.43-3.51-12.99-4.34-12.67-8.11l4.86.95c3.44.67,6.93,2.49,10.5,2.39,3.15-.09,4.83-.24,8.81.89Z"/>
  <path class="cls-1" d="M509.48,941.19c-1.83-1.31,6.97-8.29,6.88-8.24,2.56-1.47,3.79-3.43,5.6-5.49,2.59-2.95,5.5-6.95,7.58-10.42,3.07-5.14,3.34-7.57,7.22-13.02,1.65,1.34.6,2.21.03,3.21l-4.92,8.64c-.75,1.32-1.2,3.65-2.07,4.8-5.07,6.72-7.64,11.81-13.56,17.07-2.35.92-4.09,1.97-6.76,3.46Z"/>
  <path class="cls-1" d="M490.5,618.48c-1.83-.23-4.41.44-5.97-.42-.06-.56.45-1.81.93-1.88.57-.09,1.92.1,2.5-.07,1.52-.44,3.81-1.36,5.46-1.29l10.65.42c2.84.11,10.09-2.48,10.05,1.54,0,.64-1.9.44-2.56.6-2.68.64-5.7,1.29-8.51,1.41l-7.58.32c-1.5.06-3.23-.4-4.95-.62Z"/>
  <path class="cls-1" d="M465.64,611.58c5.4.25,8.09-1.44,12.77.09-5.88,5.07-13.36,5.69-20.55,3.54-.79-.24-2.47-.29-2.97-.78-.62-.59-.94-2.12-.74-3.37l11.49.52Z"/>
  <path class="cls-1" d="M404.36,276.3c-1.59-1.65.21-2.67.97-3.99l2.93-5.04,2.8-4.79c1.25-2.14,3.02-3.79,3.62-6.27s2.91-4.73,5.58-3.94l-3.16,6.57c-1.65,3.43-2.37,6.04-5.07,8.84-1.13,1.17-1.56,3.49-3.39,4.55-1.63.94-2.93,2.45-4.28,4.08Z"/>
  <path class="cls-1" d="M579.22,547.18l-4.47,6.32c-.15.21-.81.45-1,.53s-.18-.83-.06-1.16c1.83-5.02,1.46-6.19,2.84-11.91.7-2.92,3.47-5.43,4.49-8.08,2.39-6.16,1.84-2.93,4.62-10.08,1.44.59,1.04,2.08.42,3.25-2.47,4.64.83,5.13-3.61,7.96-1.76,3.42-2.48,4.34-1.61,8.82.39,2.02-.39,2.58-1.63,4.33Z"/>
  <path class="cls-1" d="M462.73,541.12c.16.24.14,1.23-.13,1.29-2.82.55-7.72-7.7-6.27-12.65.85-2.9,3.47-5.38,3.87-8.56.06-.49.71-1.39,1.1-1.64.46-.31,1.9.9,1.82,1.46-.71,5.45-1.63,10.66-3.09,16l2.69,4.11Z"/>
  <path class="cls-1" d="M838.09,233.73c-4.91,1.95-6.42,4.3-10.22,3.82.19-2.47,1.82-3.77,2.89-5.62,1.48-2.54,2.79-4.81,4.46-7.37l4.95,4.21c.71.61,1.07,2.59.73,3.32-.36.78-1.76,1.22-2.82,1.65Z"/>
  <path class="cls-1" d="M195.81,808.09c-.88,2.65-4.29,5.5-6.79,4.42-2.08-.9.39-3.07.99-4.01.72-1.12,10.87-16.38,12.6-14.54l-.88,5.2c-3.88,2.75-4.2,3.78-5.92,8.93Z"/>
  <path class="cls-1" d="M176.94,817.31c-1.39.5-6.99-8.92-7.21-9.43l-1.37-3.13-2.06-4.59-1.61-3.35c-1.15-2.39-1.7-5.04-2.45-7.9,3.03.6,3.81,3.02,4.05,5.48.21,2.12,1.12,3.84,2.18,5.67l3.17,5.49c2.85,4.92,7.94,7.18,5.31,11.76Z"/>
  <path class="cls-1" d="M560.41,699.06c-2.19-1.99-2.99-4.24-3.86-6.77-.42-1.23-1.47-2.58-2.06-3.85l-4.41-9.53c-.19-.4-.06-1.72.32-1.76,2.09-.19,5.23,2.94,6.31,6.75,1.77,6.23,3.63,6.61,3.7,15.15Z"/>
  <path class="cls-1" d="M351.9,736.98l-6.59-.64c-.45-.04-1.48-.74-1.49-1.14,0-.5.87-1.11,1.47-1.39l4.77-2.2c2.7-1.25,5.98-1.86,8.42-3.6,1.44-1.03,2.76-1.8,4.44-2.2.17,2.22-2.16,2.35-2.81,3.68-.86,1.77-1.89,2.32-3.29,3.47l-4.92,4.03Z"/>
  <path class="cls-1" d="M444.68,621.66l-2.45-1.43c-2.29-.28-5.19-.35-7.44.11-.85.18-2.88,1.31-3.41.35-.87-1.56-1.11-3.77-.66-5.6.27-1.1,2.83-1.19,3.77-.8l4.3,1.82c1.8.76,4.09.33,5.79,1.97.63.61.5,2.09.11,3.57Z"/>
  <path class="cls-1" d="M663.62,719.27c-3.08,1.78-6.44,1.39-9.56,2.16-2.56.63-5.9,1.34-6.99-1.92,2.78-2.98,7.45-3.12,11.36-2.63,2.05.25,4.27-.22,5.19,2.39Z"/>
  <path class="cls-1" d="M250.06,760.02c-.48.44-2.73.64-2.55,0,.83-2.99,3.39-4.85,5.66-6.32.97-2.02,2.86-2.78,4.75-3.9,2.1-1.26,4-3.18,7.22-1.07-2.18,1.91-4.44,3.26-6.76,4.76-4.93,3.19-3.85,2.46-8.31,6.54Z"/>
  <path class="cls-1" d="M367.41,549.78c-3.9-2.59-5.03-2.87-4.37-6.69,1.23-7.06-.86-3.18,3.77-12.66,1.65,1.5.34,2.73.31,4.11-.07,2.93-.07,5.94.17,8.8.19,2.24.49,3.8.12,6.43Z"/>
  <path class="cls-1" d="M381.53,593.63c-3.49-1.55-4.4-5.05-6.48-7.79-.78-1.02-5.12-6.8-4.03-8.34,5.83.38,9.69,10.85,10.51,16.13Z"/>
  <path class="cls-1" d="M280.03,578.86c-2.55.69-3.79,3.34-7.11,2.38,1.54-2.46,13.89-12.08,15.65-10,.28.33-.52,1.26-.93,1.45-5.77,2.71-2.47,4.79-7.61,6.17Z"/>
  <path class="cls-1" d="M536.85,641.31c2.45,4.44,3.21,6.85,3.64,11.67-1.37-1.97-2.72-3.57-3.59-5.18-.77-1.42-.79-2.51-2.19-3.53-1.03-.75-2.06-2.48-1.98-3.49.11-1.28.84-3.06,2.43-3.52.93.8,1.16,3.07,1.7,4.04Z"/>
  <path class="cls-1" d="M229.06,283.94c-2.49,3.43-5.68,2.19-7.92.49-1.83-.45-3.46-1.3-4.48-2.75,1.44-3.13,9.79.62,12.4,2.27Z"/>
  <path class="cls-1" d="M490.98,654.28c.85-1.24,1.94-3.21,3.05-3.65l6.13-2.44c1.61-.64,2.65-1.86,4.54-2.12-1.49,3.31-8.86,9.89-13.72,8.22Z"/>
  <path class="cls-1" d="M412.61,699.7l-2.18,4.17c-2.14-2.3-.14-4.96,1.27-6.55.44-.5.86-1.87,1.16-2.43l3.48-6.53c.22-.41,1.11-.93,1.52-.99.52-.07.88,1.66.63,2.14l-2.75,5.17-3.12,5.01Z"/>
  <path class="cls-1" d="M529.3,635.22c-1.64-2.77-2.56-5.13-3.67-8.28l5.04-3.85c1.25,4.33.21,7.8-1.37,12.13Z"/>
  <path class="cls-1" d="M462.41,181.13c-.69,2.17-.84,5.3-3.88,4.68l4.4-11.79c.87-2.34,1.82-4.63,4.5-5.6-.53,4.31-2.67,2.85-2.79,10.16l-2.23,2.56Z"/>
  <path class="cls-1" d="M736.12,496.35c-1.11.76-1.71,1.54-2.75.76,1.9-1.99,3.44-3.84,5.25-5.4l5.99-5.17c.98-.85,2.63-1.46,4.27-1.19-2.88,3.12-5.29,5.88-8.54,8.1l-4.23,2.9Z"/>
  <path class="cls-1" d="M572.61,465.84c.35.86-1.64,4.13-2.81,4.26-.48.05-1.32-1.07-1.3-1.57.15-3.51-.89-6.55-2.21-10.15,1.75-1.59,6.33,7.5,6.32,7.46Z"/>
  <path class="cls-1" d="M394.82,392.97c-2.91-.29-1.3-2.16-1.45-3.51l-1.38-12.07c4.51,1.27,3.47,11.36,2.84,15.58Z"/>
  <path class="cls-1" d="M582.04,487.88c-.86,1.96-2.33-3.02-3.26-4.11l-3.36-3.96,2.25-2.79c3.04,2.66,5.71,7.8,4.36,10.86Z"/>
  <path class="cls-1" d="M642.51,712.7l-3.93.91c-.57.13-1.33.44-1.57.11s.25-1.43.64-1.53c3.77-.97,4.31-4.1,5.72-4.2.89-.06,4.25,1.28,4.38,2.87.09,1.15-1.86,1.05-5.23,1.83Z"/>
  <path class="cls-1" d="M183.06,659.67c-1.12.55-1.28.68-1.65.66s-.66-1.66-.39-2.02l5.2-6.98,3.83-5.13c.22-.3.6-1.01.76-1.29s1.37.33,1.18.65l-3.58,5.6-3.3,5.19c-.61.97-.87,2.67-2.03,3.3Z"/>
  <path class="cls-1" d="M227.18,772.88c-3.26-1.43,8.34-11.98,8.73-9.42-1.94,3.81-4.97,6.91-8.73,9.42Z"/>
  <path class="cls-1" d="M792.24,261.64c-1.44.93-3.13,1.33-4.41.5,1.9-3.65,5.72-4.33,9.11-5.26l2.21-1.71c1.09,2.4-1.15,2.77-2.52,3.65l-4.39,2.82Z"/>
  <path class="cls-1" d="M294.06,248.4c1.71,3.81-11.33,2.19-10.1-.2l5.71-.57c1.04-.1,3.17.45,4.39.77Z"/>
  <path class="cls-1" d="M786.45,262.42c1.55,2.38-7.88,5.69-8.29,4.69l-.09-1.7c-.02-.32,5.52-3.68,8.38-2.98Z"/>
  <path class="cls-1" d="M578.98,771.99c.07.35-.59,1.6-.73,1.42s-.73-.81-.8-1.1l-2.02-8.57-.41-1.91c-.08-.39.96-.7,1.65-.76l2.31,10.92Z"/>
  <path class="cls-1" d="M736.95,725.43l-6.02.21c-.61.02-1.81-.87-1.95-1.45-.16-.68,1.26-2.16,1.98-2l5.17,1.14c.39.09.81,1.19.82,2.11Z"/>
  <path class="cls-1" d="M155.26,791.53c.69,1.53,1.52,2.9.09,4.38-1.82-3.04-5.35-8.01-2.09-10.48,2,1.75-.03,1.64,2,6.1Z"/>
  <path class="cls-1" d="M391.24,603.5c-1.48,1.77-2.01-.72-2.85-1.36-2.26-1.72-4.93-2.89-5.34-6.43,1.85.51,3.37,1.67,4.42,3.32l3.77,4.48Z"/>
  <path class="cls-1" d="M401.12,719.98c-1.19-3.86,3.01-4.36,5.41-10.01,2.69-.1-3.89,9.69-5.41,10.01Z"/>
  <path class="cls-1" d="M354.74,549.57l.09,2.88c.02.64-1.44,1.54-2.14,1.55-1.2-1.9-1.96-6.48.65-6.59.61-.03,1.37,1.42,1.4,2.17Z"/>
  <path class="cls-1" d="M803.66,726.64c-2.27-.07-5.26-.4-7.12-.71l3.68-2.32c.61-.38,2.41.04,3.04.41l1.24.72c.35.21-.37,1.9-.84,1.89Z"/>
  <path class="cls-1" d="M751.27,483.68c-1.1-.42-1-2.67-.07-2.86l5.75-3.43c-1.2,2.42-3.2,4.62-5.68,6.29Z"/>
  <path class="cls-1" d="M448.95,628.07c-.86,1.43-3.97.06-3.83-1.62.07-.81,1.82-1.6,2.59-1.41.97.25,1.87,1.98,1.24,3.03Z"/>
  <path class="cls-1" d="M719.47,509.74c-.28.24-1.05.64-1.3.73s-.74-.46-.69-.72.43-1.19.65-1.34l5.7-3.69c.18-.11,1,1.03.8,1.08s-.95.32-1.13.47l-4.04,3.46Z"/>
  <path class="cls-1" d="M490.95,532.15c.6,2.18-.61,4.07-2.06,5.4-1.17-2-.27-5.85,2.06-5.4Z"/>
  <path class="cls-1" d="M813.78,725.72l-5.33.26c-.31.02-1.27-.99-1.04-1.2s.88-.77,1.19-.79l4.24-.3c.25.17.49.68.94,2.03Z"/>
  <path class="cls-1" d="M724.69,724.06c-1.54,1.1-4.9,1.1-5.94-.5,1.24-2.12,4.49-1.11,5.94.5Z"/>
  <path class="cls-1" d="M385.74,589.35c-2.82.41-4.09-2.56-2.73-4.77,1.17,1.52,1.92,2.82,2.73,4.77Z"/>
  <path class="cls-1" d="M420.8,616.79c-.41,1.23-1.18,2.08-1.96,2.25s-2.61-1.11-2.22-1.8c.62-1.08,2.49-.99,4.17-.44Z"/>
  <path class="cls-1" d="M726.74,503.21c-.04-1.21,1.61-1.9,2.35-2.94l1.02-1.42c.25-.34.83.07,1.6.62-1.44,1.68-2.11,3.21-4.97,3.74Z"/>
  <path class="cls-1" d="M575.33,683.91c-2.08.7-5.75-4.86-4.01-4.42.18.05.91.18,1.02.33l3,4.09Z"/>
  <path class="cls-1" d="M445.93,612.29c-.88.39-2.75-.86-2.77-1.83-.01-.64,1.83-1.2,2.34-.81.63.49,1.32,2.24.43,2.64Z"/>
  <path d="M551.79,282.31c-.45-1.21-4.83-14.79-4.85-14.93l-1.76-12.89-.8-3.89c-1.11-5.41-.82-7.29-2.24-12.81-.67-2.58-.55-5.28-.99-7.67-.97-5.28-1.98-10.13-2.43-15.45-.39-4.62-.97-9.14-1.66-13.65l-1.47-9.61c-.44-2.9-1.68-5.87-.84-8.81.78-2.73,1.41-5.18,1.99-8.05.9-4.48,4.19-4.52,3.8-9-.2-2.27.44-3.8,1.3-5.82.93-2.2,1.04-4.92,1.68-7.34,4.81-18.18-6.22-21.69-10.33-27.92-1.36-2.05-2.31-3.84-4.27-5.42s-5.25-6.8-6.75-9.59c1.1-.43,2.95-.71,3.69-.23.67.43,1.31,1.59,2.07,2.44l5.64,6.29c1.25,1.39,2.84,2.8,4.06,4.4,2.74,3.6,5.43,6.76,8.98,9.54l1.96,6.42c2.31,7.59.21,15.17-2.31,22.49-.82,2.38-1.11,5.22-2.04,7.54-1.17,2.91-1.99,5.64-2.89,8.55-1.56,5.01-1.42,9.1-.66,14.31.59,4.07.57,8.38,1.48,12.56l1.5,6.91,1.63,13.47c.42,3.48,1.79,6.85,2.11,10.32.23,2.51.42,4.77.82,7.2l1.6,9.89c.48,2.94.44,6.4.41,9.29-.04,3.43-.58,5.94,1.52,9.01.87,1.28.41,4.34.95,5.83l1.77,4.91c.19.53.19,1.95-.22,2.27-.5.38-2.2,0-2.42-.57Z"/>
  <path d="M176.55,791.96c-1.53-7.31,1.49-20.28,3.12-27.64l2.74-12.39c.62-2.81,4.42-19.9,5.12-21.03l5.88-9.45c.28-.46.48-1.99.84-2.41,1.21-1.39,4.05-3.55,4.89-5.2.95-1.87,1.58-3.04,2.63-4.54l2.89-4.12,4.2-6.38c.73-1.11,1.45-2.96,2.13-4.26,1.98-3.78,5.11-7.71,5.87-9.53.72-1.71,2.72-2.99,3.29-4.17,1.3-2.67,2.07-5.4,3.77-7.91,1.41-2.08,2.79-4.34,3.97-6.48,1.38-2.51,2.6-4.92,5.06-6.45.08-2.59,3.06-6.66,5.19-7.44l2.97-2.75c.49.15,1.32,1.47,1.09,1.92s-.82,1.11-1.33,1.67c-2.24,2.45-4.09,5.14-6.17,7.84-1.01,1.32-1.46,2.86-2.26,4.3l-4.06,7.33c-2.11,3.81-2.68,4.07-4.01,6.51-3.66,6.72-2.19,2.84-5.65,9.38-2.27,4.27-4.97,8.21-7.76,12.22-1.63,2.34-2.23,6.05-4.01,8.05l-3.75,4.22c-.74.83-.96,3.47-1.72,4.23-3.06,2.48-4.34,5.81-5.9,9.26s-3.07,6.81-4.43,10.48c-.31.85-1.26,2.33-1.84,3.16-1.14,1.66-1.16,3.07-1.52,5.11-.51,2.9-1.07,5.93-1.73,8.72-.54,2.27-1.26,4.38-1.64,6.76l-3.41,21.58.21,6.83c-.65,1.22-2.55,1.98-4.66,2.58Z"/>
  <path d="M516.11,507.8c-1.39-3.97-.4-6.82,1.27-10.2l-.29-3.89c1.27-1.12,1.93-2.54,1.29-4-.95-2.16-.46-3.74-.12-5.94.38-2.49.24-5.11.41-7.84l.38-6.25c.02-.4,1.22-.82,1.58-.67,2.24.91-.1,2,2.08,8.24,1.01,2.88-.29,6.25-.04,9.16.23,2.72.13,4.81-.37,7.3-.87,4.41-1.06,8.43-1.53,13.05l-4.67,1.04Z"/>
</svg>