<?xml version="1.0" encoding="UTF-8"?>
<svg id="Camada_1" data-name="Camada 1" xmlns="http://www.w3.org/2000/svg" viewBox="0 0 1024 1024">
  <defs>
    <style>
      .cls-1 {
        fill: #fff;
      }
    </style>
  </defs>
  <path class="cls-1" d="M225.5,1023.75V0h573v1024H225.5v-.25ZM491.72,773.61l-1.27-5.2c-.77-3.16,3.45-3.92,5.65-3.88,3.1.05,6.03-.08,8.89-.66,4.15-.84,8.21-.89,12.49-1.15,1.87-.12,3.87-1.73,5.67-.39.41.3,1.36.45,1.72.26-1.23.67,1.56-2.53,7.35-3.6l2.2,1.55c.51.36.69-1.21,1.84-2.81.84-1.17,1.47,2.44,3.52,1.67l2.04-.77c1.21-.46,4.65-4.23,5.09-7.6l2.09-15.99,1.22-4.51c.61-2.27,1.29-3.47,2.36-5.37,1.94-3.45,3.59-9.21,7.22-8.97.2-3.56.36-3.87,2.13-7.11,2.86-1.92,2.97-7,5.75-5.33.92.56,2.42.68,3.06.15,2.38-1.95-1.29-6.44-.57-9.33.32-1.29,1.3-3.74,2.13-4.67l4.76-5.33c1.94-2.17,4.1-4.39,5.71-6.62l4.64-6.46,2.13-3.35,3.52-5.11c.72-1.05,1.37-2.73,2.21-3.77,1.91-2.37,3.03-5.07,4.57-7.47,1.32-2.05,2.15-3.6,3.03-6.08s3.32-5.07,4.58-7.63l3.09-6.3c1.17-2.38,2.08-3.59,4.64-4.93,1.38-1.29,3.23-3.75,4.42-5.61.81-1.25.98-4.13,2.05-4.9,2.22-1.58,2.76-3.18,3.17-5.61l1.68-3.2c.59-1.14,1.62-2.17,2.26-3.15l2.24-3.39c.46-.7,1.23-2.41,1.43-3.33.69-3.14,2.46-6.06,4.17-8.95.92-1.57,1.91-3.47,2.78-5.07l2.7-4.94,1.84-5.22c.48-1.35,1.55-2.92,2.09-4.29l2.4-6.14c.52-1.34,1.18-3.16,2.7-2.9l-1.89,7.68c-.43,1.76-1.31,4.18-2.04,5.85l-4.34,9.95-2.76,4.95c-.55.98-.93,2.81-1.43,3.58-3.29,5.08-3.52,6.2-5.78,11.43-.47,1.08-2.21,1.72-2.11,3.72.05.96-2.28,6.93-4.39,7.13l-.44,2.64c-.08.48-.76,1.13-1.43,1.61-1.67,1.22-2.12,3.98-3.15,5.58l-2.07,3.22c-.74,1.15-1.29,3.31-1.71,4.61-2.07,1.84-3.51,3.69-4.89,6.13-.72,1.27-1.9,2.57-2.65,3.63l-2.54,3.57-2.39,3.28c-1.25,1.72-2.29,4.01-3.43,5.98l-1.96.99c.15.82.44,1.67.13,1.89l-1.41,1c-1.6,1.13-2.92,3.98-2.9,5.88,0,.41-1.24,1.12-1.48,1.51l-5.03,8.02c-1.36,2.17-2.57,3.93-3.45,6.24l-2.09,5.47c-.34.88-1.35,1.95-1.59,3.15-.43,2.23-1.02,4.71-1.97,6.61-.7,1.41-1.6,3.4-2.38,4.53l-4.94,7.17c-1.09,1.58-1.68,3.23-2.79,4.91l-2.88,4.35c-.98,1.49-2.43,3.23-3.03,4.78s-.38,4.1-1.23,5.52c-1.03,1.73-3.61,6.92-2.24,8.42,1.04,1.13,4.01,1.82,5.45,1.72,2.56-.18,10.66-16.08,11.94-18.23l2.57-4.29,2.29-4.23c3.98-7.34,4.41-5.25,6.28-12.12l1.78-1.08c.42-.26-.02-2.05.28-2.46l2.73-3.75c-.49-4.89,3.89-3.29,3.15-5.39-.59-1.67,1.27-4.41,1.91-6,1.04-2.58,1.68-4.55,3.27-6.63l2.63-3.43c.78-1.02,1.71-2.41,2.35-3.5l3.8-6.44,8.47-14.08c1.45-2.42,2.94-4.32,3.64-7.32,6.69-6.24,2.85-2.19,7.38-9.52.68-1.11,1.3-3.37,2.25-4.13,2.43-1.92,3.7-3.89,5.45-6.3l3.53-4.85c1.62-2.23,2.67-4.51,4.21-6.74l2.65-3.87,3.81-5.56c.92-1.34,1.74-2.6,2.78-3.86l2.97-3.61c.86-1.04,1.89-3.26,3.08-3.65,2.62-.84,1.59-3.31,2.68-4.53,3.87-4.35,7.51-8.58,10.25-13.76l1.78-3.36,2.85-3.88,3.62-7.46,1.46-3.56,3.77-8.23,1.57-3.42c.75-1.63,1.54-3.53,2.07-5.36l1.13-3.9,1.44-4.56c.48-1.52,1.13-3.43,1.41-4.89l1.18-6.01.93-4.94c.38-2.02.72-3.8,1.17-5.66,2.27-9.3,2.31-4.66,4.01-15.84.29-1.9,1.6-3.39,1.69-5.29l.27-6.17c.09-2.05,1.34-3.91,1.59-5.97l.79-6.41c.36-2.95.94-5.54.6-8.68-.15-1.39.72-3.16.88-4.45l1-8.12c.22-1.78-.33-4.5.16-6.04,3-9.54,2.16-11.52,3.43-18.75l.93-5.33.84-13.22c.21-3.32.33-6.3.12-9.58l-.54-8.46-.28-15.9-.1-3.66c-.1-3.45-1.16-7.29-.54-10.68.95-5.25-.06-5.88-.2-12.75l-.41-20.37c-.03-1.6.09-3.06.15-4.68l.3-8.95.61-5.96c.28-2.77.24-5.38.2-8.12l-.08-6.53c-.02-1.51,1.13-3.02,1.86-4.07l.61-14.06c.11-2.55.78-4.42.47-7.02-.21-1.73,0-4.25.4-5.99,1.62-7.12-2.46-1.11,2.04-11.89,1.2-2.88-2.76-5.23.56-10.12.04-1.42-.52-4.12-.15-5.54.91-3.51-.13-6.42-.37-9.77-.18-2.5,1.8-4.97-.19-7.7-1.15-1.58.05-4.46-.33-6.12l-1.62-6.97c-.38-1.65-.74-3.34-.67-5.12.14-3.34-.38-6.3-.74-9.49-.38-3.37-.65-6.51-1.41-9.79-.71-3.06-.88-6.61-2.24-9.36-1.1-2.21-1.25-3.46-.81-6.16.29-1.78-1.11-4.43-1.45-6.41-.41-2.44-1.43-4.71-1.96-6.91-.7-2.87-.65-5.3-2.49-7.86-.95-1.33-1.91-2.89-2.54-4.5l-3.09-7.81c-1.11-2.81-2.53-4.47-3.21-7.58-.26-1.2-1.6-3.21-2.2-4.54l-1.74-3.92c-1.07-2.4-2.13-4.65-3.31-7.1l-1.74-3.62c-1.67-3.47-1.85-7.59-3.61-10.99-3.49-6.73-2.81-9.13-5.38-14.63-1.59-3.41-2.46-6.54-4.05-9.99l-3.43-7.43c-.39-.85-.34-3.24-1.24-3.41-3.02-.58-5.15-2.43-4.27-5.57.57-2.03,1.21-4.15,1.3-6.47.05-1.35-2.3-3.43-3.57-3.24-7.53,5.52-2.8,8.43-8.22,11.99-1.47.97-.52,4.27-3.48,7.75-1.94,1.83-3.44,3.52-4.99,5.52-1.83,2.38-4.22,4.19-6.2,6.32-.25.27-2.54,4.67-5.65,6.19.03.65.74,3.19.07,3.82l-3.34,3.15c-3.23,3.04-4.06-7.44-4.24-9.28-.23-2.28-.85-4.18-1.63-6.36-3.76-10.54-4.9-1.94-9.23-8.35-1.04-1.54-2.63-3.04-2.84-5.01s-1.19-3.12-2.35-4.59c-1.39-1.76-2.71-3.68-4.21-5.34-1.91-2.11-3.48-3.93-5.16-6.33l-5.32-.59-3.74,5.48c-3.4,4.99-4.88,3.47-8.06,8.39-1.16,1.79-3.77,6.45-5.93,6.07-.99-.18-.95-4.05-3.52-4.53-1.43-.27-3.65.2-3.91,1.79l-1.31,7.96c-.05.33-.51.99-.7,1.16-.13.11-.57-.24-.77-.37l-7.12-4.93c-1.58-1.09-4.08-1.23-5.6-1.99-1.77-.89-3.49-1.84-5.16-2.81-1.12-.65-2.22-1.74-3.4-1.86-.93-.1-2.84,1.38-2.79,2.32l.3,5.46c.01.25.02.97-.22.98-.16.01-.64.02-.82,0l-4.85-.47c-9.56-6.27-4.8-5.45-15.37-7.51-2.34-.46-5.03-.09-7.06-1.18-6.12-3.27-12.69-2.95-18.24,1.22-2.71,2.03-2.49-2.81-8.92-.99-2.37,4.65-9.53,10.19-11.46,12.96l-1.84,2.64-4.74,5.37c-.95,1.08-1.99,3.17-2.7,4.54-3.16,6.09-2.76,3.29-6.21,11.9-.23.59-.64,1.3-1.04,1.42s-1.26-.57-1.5-.98l-3.18-5.68c-2.62-4.69-2.59-8.06-9.57-12.33-4.24,0-7.91-.55-11.93-1.64-6.4-1.74-9.04.11-12.35-2.13-1.7-1.15-3.88-.94-5.34.57-.87.89-2.58,2.2-3.16,3.18-4.71,8.07-7.26,17.3-7.36,26.76-1.55.42-2.8-.43-4.21-.99l-12.54-4.96c-2.73-1.08-6.02-.78-9.02-1.07-2.79-.27-6.22-1.66-8.76-.47l-5.89,2.75c-2.48,1.16-.81,3.17-5.84,4.22l-3.03,3.62c-2.02,2.42-3.98,2.52-6.52,9.56-2.96,8.2.01,3.3-2.52,11.34-.79,2.53-1.58,5.11-2.19,7.71l-1.34,5.73c-1.06,4.54-1.52,9.43-1.88,14.09-.23,2.96-.07,4.66-2.85,6.61-1.42,1-1.5,4.06-1.93,5.86-1.28,5.37-2.18,10.45-2.6,15.89-.14,1.84-.57,4-.59,5.81l-.17,20.42c-.02,2.02-.84,4.48-.74,6.45.14,2.83-.57,4.99-.84,7.75l-2.16,21.56-1,5.12c-.25,1.29-.84,2.49-.4,3.78.53,1.57-.2,2.44-.84,3.78-1.37,2.85-1.22,6.37-1.71,9.48l-1.62,10.12c-.38,2.39-.97,4.63-1.48,6.97-1.17,5.42-.52,10.97-.78,16.48l-.36,7.5-.29,6.99c-.3,7.16-.76,13.88-1.52,21.01-.4,3.79-.7,17.01-.49,20.95.17,3.13.74,8.43-1.86,9.97-2.03,1.2-.21,1.9.21,8.1.18,2.73-1.18,5.73-1.24,8.41-.05,2.48.49,5.07-.07,7.31-.36,1.43-.4,2.36-.38,3.79l.19,12.96.1,7.01c.07,4.77,0,9.44-.38,14.14-.22,2.66-1.73,8.34-1.95,9.94-.48,3.57.26,7.25.28,10.94.03,5.55-5.91,2.52-2.67,10.94-1.96,7.15,1.4,2.48.98,12.5-.05,1.12.65,2.9.32,4.11-1.55,5.71-.15,9.14-.95,17.31-.19,1.91.07,3.71.07,5.67l-.05,16.43c-.01,3.53-.1,6.63-1.14,10.04-.44,1.43-.19,3.66.82,4.55.77.68,2.81,1.58,3.88,1.46l3.73-4.14.58,3.38c5.88,6.45,4.02,12.01,7.22,19.71,4.45,4.05,1.56,9.36,6.12,14.34,3.34,3.65,1.37.31,4.04,7.47.63,1.67,1.21,2.89,2.32,4.26,1.34,1.66,2.16,4.29,3.64,5.85,2.04,2.16,2.95,4.42,4.22,7.04l2.27,4.69c.45.93,2.48,1.7,3.8,2.06.17,4.59,3.45,6.93,7.18,8.98s3.92,9.69,5.61,10.86c3.15,2.18,4.65-1.92,8.32,2.53,2.3,2.78,4.6,5.27,7.05,7.93,1.53,1.66,2.66,4.15,4.01,5.95l4.76,6.33,2,3.4,2.84,3.71c2.87,3.75,4.85,8.39,8.21,11.73,1.65,1.64,2.26,3.17,3.74,5.02l2.64,3.29c.8,1,1.42,2.91,2.13,3.76,1.87,2.22,3.78,4.13,5.78,6.15l3.3,1.1c.95,2.09,1.92,3.76,3.22,5.49,1.92,2.56,3.06,5.63,4.47,8.55,1,2.08,1.36,4.26,2.1,6.55l1.7,5.27,3.83,8.49c.65,1.45,1.01,2.56,2.64,3.17,1.14.43,2.04-.06,3.87-1.15,3.11,6.05-.1,6,4.57,11.4,6.56,7.59,7.37,2.97,9.85,10.87l2.64,4.06c1.31,2.02,1.87,4.09,3.01,6.05l3.38,5.79c.68,1.17,1.13,2.18,1.81,3.84l5.69.36.53-3.28c2.61,6.77.04,3.88,1.02,8.41.49,2.27,1.39,5.11.79,6.98-.85,1.27-2.27,2.56-1.93,3.77.38,1.35,1.36,2.55,2.72,2.99,3.85,1.25,2.05,5.82,1.37,8.06-.45,1.48.63,4.03.55,5.57-.2,3.64-.08,7.16,1.05,10.59.3.92-.24,2.9-.13,3.84l1.23,9.9.78,4.6c.85,4.97.38,10.38,1.83,16.3s2.76,5.98,2.35,8.94c-.6,4.42-.43,10.69-.63,11.91l-.85,5.19-.3,7.03c-.15,3.57-1.26,6.78-.98,10.56l-1.31,2.14c.28,3.36.27,6.42-.23,9.87-.83,5.73,4.1,7.03-.38,11.65l-.49,6.55c-.28,3.76-.73,7.34-.61,11.24l.16,5.11.13,4.39c.06,2.04.6,9.56,1.66,10.07.47.23,1.36.43,2.14.59,6.7,1.4,4.87,1.6,11.34-1.61-.33-2.03.3-3.66,1.74-4.75l-.13-2.77.04-5.11c.02-3.08,1.31-10.58-3.14-9.25l.64,4.15c-1.79,3.03-.63,1.84-1.77,8.32l-.56,3.18c-2.51-1.05-.9-2.58-.99-3.95l-.63-9.59c-.25-3.79-.72-7.45-1.2-11.41-.95-7.95,1.17-8.11,1.26-13.33.05-2.92.02-5.57-.18-8.57-.18-2.63.88-5.31.73-8.02l-.31-5.33.67-6.11.34-8.01c.3-7.05,2.62-13.88.99-21.04l1.82-1.05c.96-.55-1.18-3.34.08-7.89.66-2.4-.5-4.62-.51-6.7-.01-2.78.93-5.07-.28-8.03-.56-1.36-.15-3.96-.61-5.43-2.62-8.35-1.24-13.33-3.3-21.75ZM507.15,949.27l-1.31,5.98-.57,12.24c-.12,2.65.27,4.85-.02,7.57-.41,3.78,1.6,3.37.3,9.19-1.47,6.62-.77,3.3.11,11.75.09.82.48,1.99.91,2.58.36.48,1.65.68,2.33.38-1.17-4.82-.94-9.19-.87-13.98l.1-6.51c.03-2.15-.4-4.5-.03-6.67.57-3.35.28-6.43.5-9.85l.55-8.39c.1-1.47,1.16-3.47.78-5.03-.69-2.89,1.41-17.45,1.44-18.6l.26-8.31c-.18,5.83,2.99-19,1.72-13.85l1.88-7.66,1.03-7.43c.42-3,1.58-5.4,1.91-8.54l1.17-3.61c.95-2.95,1.04-6.01,2.95-8.64-.29,3.34-1.72,6.58,1.21,9.39l.57-2.44c.09-.38,1.42-.43,1.92-.59l1.26-5.56c.32-1.41.64-2.65.72-4.2.65-12.66,1.65-4.97,2.13-10.76.12-1.42.7-2.36,1.67-3.54l.34-4.13.66-8.16,1.85-.56c.37-.11.36-1.41.11-1.83-.8-1.28.71-3.36.82-4.52.45-4.51,1.1-8.31,4.01-11.9l1.46-4.8,1.8-6.63c.38-1.39.09-3.47.1-4.85,2.58-3.33,2.99-7.09,3.55-10.84l.81-5.47c.42-2.85.32-6.1-.11-8.82l-1.05-6.65c-.3-1.91-3.06-3.46-3.9-5.28-.9-1.96-2.52-4.7-5.15-4-.81.21-2.49,1.12-3.16,1.46l-1.29,4.87-1.42,9.18c-.99,6.43.39,4.35-1.05,7.71-.15.34.67,1.32.99,1.11,1.97-1.36.62-1.42,2.22-5.6l2.67-6.99.71-1.88c.15-.4,1.47-.38,1.52.03l.69,5.78c-1.74,2.99-2.41,6.14-2.39,9.62.01,2.1-.73,4.6-1.17,6.68l-1.56,7.32c-.43,2.01-.66,3.37-1.69,5.08-1.46,2.44-.71,5.88-1.41,8.64-1.77,6.98-1.33,8.74-3.2,13.7-1.67,4.45-1.84,9.5-3.96,14.1l-2.05,4.44c-1.39,3.01-1.46,5.82-2.13,9.05l-4.5,21.67c-.7,3.35-.85,6.31-2.73,9.37-1.33,2.17-3.27,8.74-3.79,11.27-.4,1.96.62,4.02-1.76,5.31-.7,8.2-1.77,3.78-2.26,8.71-.34,3.45-1.85,6.55-2.96,9.86l-1.49,4.43c-.72,2.13-1.22,4.46-2.09,6.55-2.78,6.67-3.44,13.65-1.62,20.66.67,2.58.95,5.79,4.17,6.58.89-1.35,1.03-3.26.53-4.93-2.91-9.8-.66-2.6-1.05-12.93.66-6.99-.19-1.62,1.16-7.27.63-2.65,1.49-4.64,2.58-7.05.95-2.11,1.76-4.57,2.6-6.9.34-.93-.1-3.11.96-3.74.59-.35,1.87,1.02,1.98,1.72s-.96,1.71-1.41,2.32l-.78,6.73c-.19,1.63-.64,3.89-.05,5.15.91,1.94,1.62,3.88.24,5.44-2.03,2.32.47,4.09,0,6.27Z"/>
  <path d="M491.72,773.61c2.06,8.41.67,13.4,3.3,21.75.46,1.47.05,4.07.61,5.43,1.21,2.96.27,5.25.28,8.03,0,2.08,1.17,4.3.51,6.7-1.26,4.55.88,7.34-.08,7.89l-1.82,1.05c1.63,7.15-.69,13.98-.99,21.04l-.34,8.01-.67,6.11.31,5.33c.16,2.71-.91,5.39-.73,8.02.21,3,.23,5.65.18,8.57-.09,5.22-2.21,5.38-1.26,13.33.47,3.96.95,7.62,1.2,11.41l.63,9.59c.09,1.36-1.52,2.9.99,3.95l.56-3.18c1.14-6.48-.02-5.29,1.77-8.32l-.64-4.15c4.45-1.33,3.16,6.17,3.14,9.25l-.04,5.11.13,2.77c-1.44,1.09-2.07,2.72-1.74,4.75-6.47,3.21-4.64,3.01-11.34,1.61-.78-.16-1.67-.37-2.14-.59-1.07-.51-1.6-8.03-1.66-10.07l-.13-4.39-.16-5.11c-.12-3.9.33-7.48.61-11.24l.49-6.55c4.48-4.62-.44-5.92.38-11.65.5-3.44.5-6.5.23-9.87l1.31-2.14c-.27-3.77.83-6.99.98-10.56l.3-7.03.85-5.19c.2-1.22.03-7.49.63-11.91.4-2.96-.91-3.07-2.35-8.94s-.99-11.33-1.83-16.3l-.78-4.6-1.23-9.9c-.12-.94.43-2.91.13-3.84-1.13-3.43-1.25-6.94-1.05-10.59.08-1.54-1-4.09-.55-5.57.68-2.25,2.47-6.81-1.37-8.06-1.36-.44-2.33-1.64-2.72-2.99-.34-1.2,1.08-2.5,1.93-3.77.6-1.87-.3-4.71-.79-6.98-.98-4.53,1.6-1.64-1.02-8.41l-.53,3.28-5.69-.36c-.68-1.66-1.12-2.67-1.81-3.84l-3.38-5.79c-1.14-1.96-1.7-4.03-3.01-6.05l-2.64-4.06c-2.48-7.91-3.29-3.28-9.85-10.87-4.67-5.4-1.47-5.35-4.57-11.4-1.84,1.09-2.73,1.58-3.87,1.15-1.64-.61-1.99-1.72-2.64-3.17l-3.83-8.49-1.7-5.27c-.74-2.29-1.09-4.47-2.1-6.55-1.41-2.91-2.55-5.99-4.47-8.55-1.3-1.73-2.27-3.4-3.22-5.49l-3.3-1.1c-2-2.02-3.91-3.93-5.78-6.15-.71-.85-1.33-2.76-2.13-3.76l-2.64-3.29c-1.48-1.84-2.09-3.38-3.74-5.02-3.36-3.33-5.34-7.98-8.21-11.73l-2.84-3.71-2-3.4-4.76-6.33c-1.35-1.8-2.48-4.29-4.01-5.95-2.44-2.66-4.75-5.15-7.05-7.93-3.68-4.45-5.17-.35-8.32-2.53-1.7-1.17-2.01-8.87-5.61-10.86s-7.01-4.39-7.18-8.98c-1.31-.37-3.35-1.13-3.8-2.06l-2.27-4.69c-1.27-2.62-2.18-4.89-4.22-7.04-1.47-1.56-2.3-4.19-3.64-5.85-1.11-1.37-1.69-2.59-2.32-4.26-2.68-7.16-.7-3.82-4.04-7.47-4.55-4.98-1.67-10.29-6.12-14.34-3.2-7.7-1.34-13.26-7.22-19.71l-.58-3.38-3.73,4.14c-1.08.12-3.12-.78-3.88-1.46-1.01-.89-1.26-3.12-.82-4.55,1.04-3.41,1.13-6.51,1.14-10.04l.05-16.43c0-1.96-.25-3.76-.07-5.67.8-8.17-.6-11.59.95-17.31.33-1.21-.37-2.99-.32-4.11.41-10.02-2.94-5.34-.98-12.5-3.25-8.42,2.7-5.39,2.67-10.94-.02-3.68-.76-7.37-.28-10.94.22-1.6,1.72-7.29,1.95-9.94.39-4.69.45-9.36.38-14.14l-.1-7.01-.19-12.96c-.02-1.43.03-2.36.38-3.79.56-2.23.02-4.83.07-7.31.06-2.68,1.42-5.69,1.24-8.41-.42-6.21-2.24-6.9-.21-8.1,2.6-1.54,2.03-6.84,1.86-9.97-.21-3.94.09-17.16.49-20.95.76-7.14,1.22-13.85,1.52-21.01l.29-6.99.36-7.5c.27-5.51-.39-11.05.78-16.48.5-2.34,1.1-4.58,1.48-6.97l1.62-10.12c.5-3.11.35-6.63,1.71-9.48.64-1.34,1.36-2.21.84-3.78-.43-1.29.15-2.49.4-3.78l1-5.12,2.16-21.56c.28-2.76.98-4.92.84-7.75-.1-1.97.73-4.44.74-6.45l.17-20.42c.02-1.82.45-3.97.59-5.81.42-5.45,1.33-10.52,2.6-15.89.43-1.8.5-4.86,1.93-5.86,2.78-1.95,2.62-3.65,2.85-6.61.36-4.67.82-9.56,1.88-14.09l1.34-5.73c.61-2.6,1.39-5.19,2.19-7.71,2.53-8.05-.44-3.14,2.52-11.34,2.54-7.04,4.5-7.14,6.52-9.56l3.03-3.62c5.04-1.05,3.37-3.06,5.84-4.22l5.89-2.75c2.54-1.19,5.97.2,8.76.47,3.01.29,6.29-.01,9.02,1.07l12.54,4.96c1.41.56,2.66,1.41,4.21.99.1-9.46,2.65-18.69,7.36-26.76.57-.98,2.29-2.29,3.16-3.18,1.46-1.51,3.64-1.72,5.34-.57,3.31,2.24,5.95.38,12.35,2.13,4.01,1.09,7.69,1.64,11.93,1.64,6.98,4.27,6.95,7.65,9.57,12.33l3.18,5.68c.23.42,1.1,1.11,1.5.98s.81-.83,1.04-1.42c3.45-8.61,3.06-5.8,6.21-11.9.71-1.37,1.75-3.46,2.7-4.54l4.74-5.37,1.84-2.64c1.93-2.76,9.09-8.3,11.46-12.96,6.43-1.82,6.21,3.02,8.92.99,5.56-4.17,12.13-4.49,18.24-1.22,2.03,1.08,4.72.72,7.06,1.18,10.57,2.06,5.81,1.24,15.37,7.51l4.85.47c.18.02.66,0,.82,0,.24-.02.23-.73.22-.98l-.3-5.46c-.05-.94,1.86-2.42,2.79-2.32,1.18.12,2.28,1.21,3.4,1.86,1.68.97,3.39,1.92,5.16,2.81,1.51.76,4.02.9,5.6,1.99l7.12,4.93c.2.14.64.48.77.37.19-.16.65-.83.7-1.16l1.31-7.96c.26-1.59,2.48-2.05,3.91-1.79,2.57.48,2.52,4.35,3.52,4.53,2.17.38,4.78-4.27,5.93-6.07,3.17-4.92,4.65-3.4,8.06-8.39l3.74-5.48,5.32.59c1.68,2.4,3.24,4.22,5.16,6.33,1.5,1.66,2.81,3.58,4.21,5.34,1.17,1.47,2.13,2.58,2.35,4.59s1.81,3.48,2.84,5.01c4.33,6.41,5.47-2.19,9.23,8.35.78,2.18,1.4,4.08,1.63,6.36.19,1.84,1.01,12.33,4.24,9.28l3.34-3.15c.67-.63-.04-3.17-.07-3.82,3.11-1.51,5.4-5.92,5.65-6.19,1.98-2.13,4.36-3.94,6.2-6.32,1.54-2,3.05-3.69,4.99-5.52,2.96-3.48,2-6.79,3.48-7.75,5.42-3.56.69-6.47,8.22-11.99,1.27-.19,3.62,1.89,3.57,3.24-.09,2.32-.73,4.44-1.3,6.47-.88,3.14,1.25,4.99,4.27,5.57.9.17.85,2.57,1.24,3.41l3.43,7.43c1.59,3.44,2.46,6.58,4.05,9.99,2.57,5.5,1.89,7.9,5.38,14.63,1.76,3.4,1.94,7.51,3.61,10.99l1.74,3.62c1.17,2.45,2.24,4.7,3.31,7.1l1.74,3.92c.59,1.33,1.93,3.34,2.2,4.54.69,3.11,2.1,4.77,3.21,7.58l3.09,7.81c.64,1.61,1.59,3.17,2.54,4.5,1.84,2.56,1.79,4.99,2.49,7.86.53,2.2,1.56,4.48,1.96,6.91.33,1.99,1.74,4.64,1.45,6.41-.45,2.7-.29,3.95.81,6.16,1.36,2.74,1.53,6.3,2.24,9.36.76,3.28,1.03,6.42,1.41,9.79.36,3.19.88,6.14.74,9.49-.07,1.79.28,3.47.67,5.12l1.62,6.97c.39,1.66-.82,4.54.33,6.12,1.99,2.73.01,5.19.19,7.7.24,3.35,1.28,6.26.37,9.77-.37,1.42.19,4.12.15,5.54-3.32,4.89.65,7.25-.56,10.12-4.5,10.77-.42,4.77-2.04,11.89-.39,1.74-.6,4.26-.4,5.99.31,2.61-.36,4.47-.47,7.02l-.61,14.06c-.73,1.05-1.88,2.57-1.86,4.07l.08,6.53c.03,2.74.08,5.35-.2,8.12l-.61,5.96-.3,8.95c-.05,1.63-.18,3.08-.15,4.68l.41,20.37c.14,6.87,1.15,7.5.2,12.75-.61,3.38.45,7.22.54,10.68l.1,3.66.28,15.9.54,8.46c.21,3.28.09,6.26-.12,9.58l-.84,13.22-.93,5.33c-1.26,7.23-.42,9.21-3.43,18.75-.49,1.54.06,4.26-.16,6.04l-1,8.12c-.16,1.29-1.04,3.07-.88,4.45.35,3.14-.23,5.73-.6,8.68l-.79,6.41c-.25,2.06-1.5,3.92-1.59,5.97l-.27,6.17c-.08,1.9-1.4,3.39-1.69,5.29-1.71,11.19-1.74,6.54-4.01,15.84-.46,1.86-.79,3.65-1.17,5.66l-.93,4.94-1.18,6.01c-.29,1.46-.93,3.37-1.41,4.89l-1.44,4.56-1.13,3.9c-.53,1.83-1.32,3.73-2.07,5.36l-1.57,3.42-3.77,8.23-1.46,3.56-3.62,7.46-2.85,3.88-1.78,3.36c-2.74,5.18-6.39,9.41-10.25,13.76-1.09,1.22-.06,3.69-2.68,4.53-1.18.38-2.22,2.61-3.08,3.65l-2.97,3.61c-1.04,1.26-1.86,2.52-2.78,3.86l-3.81,5.56-2.65,3.87c-1.53,2.24-2.59,4.51-4.21,6.74l-3.53,4.85c-1.75,2.41-3.02,4.37-5.45,6.3-.96.76-1.57,3.02-2.25,4.13-4.53,7.33-.69,3.28-7.38,9.52-.7,3-2.19,4.9-3.64,7.32l-8.47,14.08-3.8,6.44c-.64,1.09-1.57,2.48-2.35,3.5l-2.63,3.43c-1.59,2.08-2.23,4.04-3.27,6.63-.64,1.58-2.5,4.33-1.91,6,.74,2.11-3.64.5-3.15,5.39l-2.73,3.75c-.29.41.14,2.2-.28,2.46l-1.78,1.08c-1.87,6.87-2.3,4.78-6.28,12.12l-2.29,4.23-2.57,4.29c-1.29,2.14-9.39,18.05-11.94,18.23-1.43.1-4.41-.59-5.45-1.72-1.37-1.5,1.21-6.69,2.24-8.42.85-1.43.6-3.91,1.23-5.52s2.05-3.3,3.03-4.78l2.88-4.35c1.11-1.68,1.7-3.33,2.79-4.91l4.94-7.17c.78-1.13,1.68-3.13,2.38-4.53.95-1.9,1.54-4.38,1.97-6.61.23-1.2,1.25-2.27,1.59-3.15l2.09-5.47c.88-2.31,2.09-4.07,3.45-6.24l5.03-8.02c.24-.38,1.48-1.1,1.48-1.51-.02-1.9,1.3-4.75,2.9-5.88l1.41-1c.31-.22.02-1.07-.13-1.89l1.96-.99c1.13-1.97,2.18-4.26,3.43-5.98l2.39-3.28,2.54-3.57c.75-1.06,1.94-2.36,2.65-3.63,1.38-2.44,2.82-4.3,4.89-6.13.42-1.3.97-3.46,1.71-4.61l2.07-3.22c1.03-1.6,1.48-4.36,3.15-5.58.67-.48,1.35-1.14,1.43-1.61l.44-2.64c2.11-.2,4.44-6.17,4.39-7.13-.1-2,1.64-2.63,2.11-3.72,2.26-5.24,2.49-6.35,5.78-11.43.5-.77.88-2.59,1.43-3.58l2.76-4.95,4.34-9.95c.73-1.67,1.61-4.09,2.04-5.85l1.89-7.68c-1.52-.27-2.18,1.56-2.7,2.9l-2.4,6.14c-.54,1.37-1.61,2.93-2.09,4.29l-1.84,5.22-2.7,4.94c-.87,1.6-1.86,3.5-2.78,5.07-1.7,2.89-3.48,5.81-4.17,8.95-.2.92-.97,2.63-1.43,3.33l-2.24,3.39c-.64.98-1.67,2.01-2.26,3.15l-1.68,3.2c-.41,2.43-.96,4.03-3.17,5.61-1.07.77-1.25,3.65-2.05,4.9-1.2,1.86-3.04,4.32-4.42,5.61-2.56,1.34-3.47,2.55-4.64,4.93l-3.09,6.3c-1.25,2.56-3.67,5.08-4.58,7.63s-1.71,4.03-3.03,6.08c-1.54,2.39-2.66,5.1-4.57,7.47-.84,1.04-1.49,2.73-2.21,3.77l-3.52,5.11-2.13,3.35-4.64,6.46c-1.61,2.24-3.77,4.45-5.71,6.62l-4.76,5.33c-.83.93-1.81,3.38-2.13,4.67-.72,2.88,2.94,7.38.57,9.33-.64.53-2.14.41-3.06-.15-2.78-1.67-2.89,3.41-5.75,5.33-1.77,3.24-1.93,3.54-2.13,7.11-3.63-.24-5.28,5.52-7.22,8.97-1.07,1.9-1.74,3.1-2.36,5.37l-1.22,4.51-2.09,15.99c-.44,3.37-3.88,7.14-5.09,7.6l-2.04.77c-2.04.77-2.68-2.84-3.52-1.67-1.15,1.6-1.34,3.17-1.84,2.81l-2.2-1.55c-5.79,1.08-8.59,4.27-7.35,3.6-.36.19-1.31.05-1.72-.26-1.8-1.34-3.8.27-5.67.39-4.28.26-8.34.31-12.49,1.15-2.85.58-5.79.71-8.89.66-2.2-.03-6.42.72-5.65,3.88l1.27,5.2ZM600.82,97.61c2.36-1.46,4.97-1.49,6.39.54.27.38,1.22,1.15,1.53.93l1.38-.97c9.05-6.34,6.22-6.76,11.7-10.7,2.16-1.55,1.9-3.6,1.14-5.9-.56-1.68-.76-4.16-1.76-5.57-2.15-3.04-2.77-5.9-4.04-9.34-1.12-3.04-6.2-11.62-8.24-15-2.19-3.64-4.43-7-6.95-10.43-.77-1.05-1.47-2.44-2.69-2.35-2.7.19-7.38,5.39-9.22,7.72l-6.04,7.62c-.5.63-1.15,2.24-.98,2.96s1.14,1.82,1.75,2.6c1.9,2.42,3.28,5.4,5.27,7.64,1.37,1.54,2.28,2.69,3.04,4.49,2.17,5.13,2.87,10.21,1.38,15.78l.33,4.35c-.01-.19-1.44,10.24.52,9.02l1.05-.65,4.43-2.73ZM516.84,51.72c-.9-3.57-3.72-3.72-6.12-3.87-2.05-1.52-3.57-.92-5.31.62-.46.4-1.89.74-2.24,1.74,4.43,1.72,9.05,2.41,13.66,1.51ZM592.04,627.26c-1.4,1.54-4.3.5-5.43-2.09-.25-.57,1.1-1.26,1.4-1.74l3.75-6.12,2.18-3.75c1.44-1.32,1.89-2.41,2.67-4.24,2.8-6.54,1.8-2.3,4.25-5.99,5.05-7.64,1.51-6.9,5.84-11.1l2.51-2.43c1.15-3.82,3.31-7.21,5.3-10.57,1.64-2.77,3.37-5.24,5.57-7.66l2.8-3.07c.6-.66,1.41-2.54,1.61-3.42,1.95-8.61,6.41-12.09,6.75-13.24l1.92-6.55c.63-2.15.96-2.92.58-4.88l1.46-5.23,2.41-2.08c-.44-4.16,1.08-7.49,3.58-10.45,1.25-1.49,1.79-4.03,2.79-5.74.75-1.28.95-2.37,1.39-4,.65-2.44,3.18-4.83,4.07-7.51l.31-4.98,2.56-.85c1.56-.52-.88-3.71,2.98-7.09,1.07-.94,3.92-1.23,5.02.1,1.57,1.89-.33,4.51-.63,6.44-.35,2.25-.19,4.75-1.09,6.63-.65,1.37-1.04,2.32-1.36,3.85-1.77,8.39-4.27,5.13-3.37,9.61.26,1.29-.37,2.02-1.46,2.85-.85,1.48-.91,4.27-1.65,5.93l-2.62,5.91c-3.21,7.23-3.18,5.83-4.18,7.88-1.31,2.69-2.2,5.38-4.72,7.03-1.16,3.81-7.1,8-7.13,13.12-1.23,2.26-2.5,4.95-3.41,7.56l-3.64,10.44c.97-.02,2.15-.12,2.47-.62.27-.42.45-1.42.68-2.31.2-.78,2.34-.36,3.08.1,2.06,1.3.45,3.55,1.9,6.36.18.34,1.62-.08,1.61-.46l-.1-2.24c.84-1.72,1.88-4.27,2.76-5.62,2-1.93,2.94-3.11,3.26-6.17.39-3.76,4.74-3.02,2.92-10.17l3.85-2.33,2.79-10.09c.48-1.73,2.1-3.22,2.59-4.47.74-1.9,1.08-3.63,2.12-5.33,1.15-1.88.2-5.21,1.92-7.12.88-.98,1.64-2,1.64-3.3.02-4.28,3.35-10.61,3.49-11.12l1.79-6.75c.71-2.69,2.08-4.74,2.4-7.64.39-3.55,1.81-3.95,1.7-10.84,1.93-2.01,1.26-3.74,1.35-5.9l.37-9.36,2.51-4.36c1.28,1.39,2.3,2.45,3.93,2.5,2.68-3.82,1.01-11.68,1.7-12.01l1.68-.81c.42-2.73-.58-5.35-1.57-8.05-1.5-4.11-1.73-8.7-1.95-12.72l1.26,1.64c2.06,2.67.98-5.72.24-7.9-.96-2.84-.77-4.26-.21-7.01.79-3.85.09-8.13-.22-12.21-.12-1.61.38-3.19.78-4.73.93-3.58-.48-7.57.09-11.14l.81-5.11.54-7.04c.18-2.35-.02-4.29-.4-6.6-1.34-8.21-1.43-8.19-.42-16.94l3.14-2.73,3.87,3.13.35,6.62.5,9.46.46,8.58c.07,1.37.47,2.81.77,4.19.43,1.99.23,4.66.81,6.46.54,1.64.69,2.58.76,4.33l.24,5.98c.06,1.47-.02,3.14.13,4.34,3.49-.83,1.34-3.48,1.47-4.73l.68-6.54c.74-7.09-1.13-2.63,1.06-7.86.38-.91,1.18-2.73,1.36-3.62.69-3.42-1.23-7.13-.06-10.28.58-1.57,1.16-2.99,1.11-4.73l-.25-8.51c-.12-4.1.11-7.97-.13-12.03l-.36-5.93c-.09-1.53-.04-3.06-.04-4.67,0-3.12-1.09-6.61-.41-9.66.35-1.61.71-3.07.6-4.75l-.66-9.98-1.03-14.4c-.24-3.39-1.38-7.23-.98-10.55.54-4.45.88-8.2.51-12.72-.34-4.15.97-8.05-.12-17.88-.51-4.57.41-9.4-.35-13.9-1.81-10.69-.91-7.25-1.64-17.59l-.49-7.03c-.17-2.4-.25-5.33-1.11-7.44-1.42-3.47-.04-5.99.22-9.23,1.16-14.15-1.03-31.42-3.21-45.77l-.73-4.78c-.37-2.42-1.19-5.32-1.16-7.68.03-2.6-.21-3.72-1.15-6.05-.66-1.63-1.14-3.92-1.71-5.88-1.35-4.69-3.66-9.24-4.14-14.12-.28-2.82-.49-5.34-.94-8.02l-1.74-10.47c-.35-2.09-.68-4.36-1.2-6.48l-2.84-11.52c-1.05-4.28-1.73-8.47-3.05-12.64-.37-1.16-2.21-2.93-2.49-4.36l-2.02-10.61c-.57-2.97,2.85-4.87,0-7.64-.52-.5-2.52-.45-2.95.25-1.85,3.04-3.81,6.13-6.13,8.87-1.42,1.67-1.52,3.41-2.23,5.48s-2.37,4.08-3.17,6.14l-1.43,3.69c-2.12,5.45-4.61,5.15-7.34,8.29-.16,2.58-1.67,3.17-2.92,4.76l-3.21,4.06c-.93,3.51,7.04,6.18,4.5,10.73-.96,1.73-2.94,2.33-4.7,1.84-3.85-1.09-2.08-5.72-4.67-5.94-2.38-.21-5.31,5.3-5.05,4.98l-4.58,5.57c-1.44,1.75-2.34,3.57-4.06,5.01-1.31,1.1-2.92,2.84-4.24,3.47-2.07.97-2.61,1.71-3.92,3.59-5.99,8.58-9.63,7.42-13.97,12.39-1.91,2.19-1.33,5.44-2.3,9.43-.45,1.85-2.19,4-1.66,6.07.1.4-.34,1.68-.62,2.1-5.84-1.33-5.4-6.46-8.47-3.74-3.09,2.74-4.73,5.94-6.74,9.41-1.03,1.78-3.04,3.52-3.97,5.41-1.1,2.23-2.31,3.86-3.81,5.84l-1.26,6.66c-.13.67-4.29,11.4-4.16,17.93.04,2.04-1.48,4.42-1.81,6.39-.31,1.81-.34,3.73-.96,5.25-1.92,4.74.91.79-1.3,10.23l-1.64,6.97c-.9,3.82-2.64,7.64-3.14,11.56-.25,1.98-.18,3.23-1.26,4.95-.68,1.08.11,3.38-.1,4.69-.53,3.27-2.19,6.57-2.48,9.9s-1.14,6.36-1.92,9.61c-.98,4.02.27,8.78-1.56,12.67-.27.58-1.59,1.78-1.3,2.35l1.28,2.47c-2.92,3.11-2.46,8.04-3.06,11.41-.31,1.74-1.2,3.89-1.64,5.78-.54,2.31-.3,4.4-.45,6.72-.13,2.03-.66,4.26-.66,6.46v10.81c.01,1.71-.14,3.35-.1,5.24l.26,15.44c.03,1.51.34,2.97-.35,4.33-.84,1.62.24,2.94.39,4.5.55,5.53-.35,5.7.17,10.76.92,8.91-2.47,6.52-3.32,9.87l-1.9,7.5c1.72,5.84-.94,10.07-.64,13.77.06.74-.72,1.79-1.23,2.4l-.29,8.85c-.08,2.39.47,3.79,3.35,4.1.72,7.9,1.43,13.46-.07,21.38-1,5.28-1.57,10.2-2.1,15.48l-.43,4.27c-.76,7.64-1.73,7.03-.98,15.1.57,6.13-1.72,2.82-2.2,7.77l-.65,6.65c-.05.52.5,1.59.56,2.03s-1.06,1.22-1.1,1.72l-1.21,15.98-.78,6.05-.07,6.19.02,2.72-1.21,7.58c-.11.7,3.21,4.5,1.77,4.01l-1.36-.46c-1.43,5.23.51,10.45-1.84,14.72-.19.35-.53,1.43-.84,1.25l-1.2-.69c-.6-.35-2.29-1-2.83-.6-2.62,3.74,1.41,4.62-.03,14.02-.1.63-1.09,1.96-.77,2.45l1.14,1.73-.03,10.12c0,2.48-.1,4.98-.24,7.51l-.29,5.41.03,5.06c0,1.56.08,2.99.28,4.6.51,4.14.33,8.24.61,12.43l.61,8.99c.05.7.76,2.33.84,3.02-.04,2.52.73,4.71,1.24,7.1l1.18,5.54c.36,1.68,0,4.51.41,6.07,1.69,3.28,1.96,6.21,2.35,9.82l2.35,21.93c.2,1.91.35,3.4.78,5.1l1.66,6.46c.51,1.98.61,3.75,1.44,5.56s.37,4.32.92,6.29l2.56,9.11c.6,2.13,1.01,4,1.43,6.12l2.51,12.63c.48,2.39,1.21,4.05,1.59,7.17,2.12-2.43,3.25-5.58,3.75-8.88.2-1.31,1.23-2.43,1.86-3.68,1.56-3.1,1.6-9.58,4.91-9.33.81.06,2.04.6,2.98.98l1.31.53c.27.11.41-1.37.64-1.59,4-3.72,2.03-6.36,4.55-11.71,3.18-6.76,3.29-4.53,4.94-10.78.3-1.12,1.3-3.37,1.96-4.3,3.53-4.98,3.16-5.81,4.33-7.57,1.47-2.21,5.58-8.29,6.29-10.17s1.19-2.79,2.93-3.85c.78-1.03,1.19-3.83,1.87-5l2.03-3.49c1.54-2.64,2.93-5.28,4.77-7.74,2.93-3.94.43-2.05,5.1-8.9.69-1.01,1.44-2.49,1.94-3.52l1.59-1.17c.38-.28-1.34-1.73-1.69-1.41-1.05.93-2.67,2.65-3.82,3.92ZM523.59,143.6c-2.5,5.07-.14,5.56-1.67,7.69-5.32,7.4,1.6,6.3-.19,16.96-.81,4.83.76,6.12-.03,14.44l-2.05,21.62c-.12,1.26-.82,2.79-.68,4.14.25,2.33-.19,4.27-1.43,6.11-2.28,3.4.14,5.34-3.85,12.64-1.08,1.99-1.73,3.32-1.03,5.54l3.1,9.86,1.19,4.24c.86,3.07,1.57,5.84,2.84,8.74,1.8,4.11,2.93,8.2,4.26,12.34l2.65,8.26c2.59-1.1,1.33-3.42,2.12-5.01,1.04-2.09.98-3.85,1.43-6.16l2.37-12.03c.73-3.71.77-7.22,1.25-10.93l1.3-10.05,2.86-3.98c-.33-2.86.54-4.7,2.07-7.03.87-1.32.74-4.12,1.21-5.75l1.8-6.17c.58-2,1.34-3.88,2.08-5.86l1.49-3.95,3.02-7.39c1.12-2.74,1.45-5.98,2.17-8.95.21-.88,1-2.02,1.2-2.71l1.76-5.95c.3-1.01.28-2.97.57-3.84l1.58-3.68,3.48-7.94c1.52-3.46,2.8-6.91,4.06-10.48.74-2.08,1.99-3.72,2.31-6.25.14-1.14,1.82-2.64,2.41-3.78.62-1.22,1.11-3.58,2.06-4.25l3.75-1.32,2.95-4.2c1.13-1.61,1.73-4,2.95-5.53,1.05-1.32,3.5-3.92,1.54-5.44-2.33-1.8-3.66-3.31-3.74-6.54-.05-1.78-.3-3.8.07-5.66.49-2.46.27-5.77,1.19-7.76s1.5-3.04,1.73-5.09c.56-5.1.34-10.02-2.29-14.71-2.11-1.5-3.84-3.56-5.44-5.8l-3.16-4.45c-2.32-3.26-5.61-5.59-8.63-8.37-3.23-2.97-13.31-7.03-15.2-1.41l-6.92,1.87c-2.21.6-6.68-1-8.18-2.78-1.92-2.28-3.05-3.38-6.17-2.67-2.05.46-4.2.79-6.26,1.79-2.58,1.25-6.02.78-8.93,1.23-9.14,1.4-8.72-1.61-15.86-3.18l-6.05,5.19c-1.31,1.13-2.56,1.83-4.3,1.08-4.06-1.73-4.43,2.41-8.01,7.07-6.88,8.97-2.58,3.65-7.86,12.49-1.68,2.81-3.36,10.75-3.02,14.38,1.83-.1,5.89-3.78,8.01-1.8,2.58,2.42,1.74,6.14.2,8.69l-2.84,4.71c-.4.66-1.03,1.55-1.57,1.75-1.34.49-2.73-3.3-3.91-2.09-.88.9-1.99,8.79-3.1,12.39-.43,1.4-3.1,6.78-1.32,9.87l2.24-.72c.43-.14.84,1.28.93,1.76.79,3.88,3.09,2.55,3.28,4.5.04.45-.8,1.52-.82,1.99-.36,6.47.98,9.6-1.3,14.85-2.51-.16-1.76-2.12-3.27-5.43-.17-.38-1.74-.31-2.06.08-1.22,1.46-.22,4.74,1.15,6.46l3.39,4.25,4.26,5.72c3.58,4.81,4.27,4.4,8.72,9.74l5.69,6.83c1.55,1.86,2.91,4.1,4.36,6.07l2.98,4.06,5.11,6.98c3.9,5.33,3.87-10.9,5.82-17.18s1.15-5.38,2.28-12.35l1.6-9.83c.45-2.74.69-5.07,1.66-7.62,1.08-2.84,1.3-6.25,2.13-9.34.69-2.59,1.05-5.3,1.31-8.08.22-2.4,1.07-4.47,1.72-6.76.58-2.07.81-4.45,1.58-6.53l2.02-5.52c.58-1.58,1.17-3.74,1.45-5.4,1.5-8.83,2.7-7.69,4.26-20.32l1.46-11.84c.21-1.71.65-3.21.66-5.2l1.48-2.94c-1.33-3.98,4.9-5.74,4.72-5.74.53,0,1.51.59,2.01.89,2.18,1.33,1.44,2.9,1.3,4.91l-.53,7.48c-.35,4.92.55,9.82.15,14.79l-1.14,14.18c-.35,4.33-.62,8.47-2.12,12.46-.07,5-.44,11.21-2.54,15.33-4.19,8.22-1.39,9.43-3.32,13.34ZM446.51,131.24c1.49,2.03,4.14,4.2,6.5,2.82l.39-7.01c.21-3.76,1.4-6.99,1.87-10.63l1.08-8.47,2.03-9.08c.61-2.73-.25-3.99-1.67-6.09-1.61-2.37-3.35-5.05-4.77-7.53s-2.16-4.11-5.32-4.51c-4.39-.57-8.01-4.47-8.87-8.81-.93-4.73-12.84-5.03-13.53-3.94-.27.43-.53,1.34-.73,2.07l-.56,2.06c-.13.46-1.86.39-2.16.81-1.1,1.57-3.23,4.55-3.75,6.4l-1.92,6.81c-.72,2.55-1.26,5.71.31,7.92,1.09,1.54,1.3,3.01,1.88,4.82.81,2.54,4.37,4.28,5.76,6.38,1.62,2.45,3.75,3.58,5.62,5.69l6.02,6.79c1.88,2.12,4.76,3.85,6.37,6.04l5.45,7.45ZM587.32,73.87c.67,3.27,1.58,5.65,2.91,8.55,2.74-.79-1.51-9.17-2.91-8.55ZM401.7,98.11c-.98-2-2.34-2.92-4.1-3.81-5.91-3.01-3.18.23-9.34-3.05l-3.95-.59c-2-.3-3.85-1.63-5.86.66l3.65.58c1.26,1.85,3.09,2.75,5.38,2.64,5.71-.27,8.33,3.71,14.21,3.58ZM429.68,614.39c-.7-1.63,1.31-5.28,2.45-4.3l1.27,1.08c1.24,1.05,1.82,1.99,2.35,3.51l2.25,6.44c1.22,3.49,2.5,6.81,3.57,10.37,1.54,5.13-.33,1.81,1.29,7.08.75.99,1.55,2.1,1.87,3.13l1.58,5.05c.68,2.19,1.38,4.16,1.94,6.46.32,1.34,1.04,2.59,1.6,3.8l3.46,7.52c.84,1.82,1.05,4.38,1.27,6.19.61.08,1.4.02,1.56.41l.63,1.57c.94,2.37,1.37,4.56,2.01,7.1.5,1.97,2.55,4.04,3.3,5.99.7,1.83,1.83,3.75,2.35,5.36.81,2.52,1.41,4.05,2.96,5.95l1.46,6.82c1.17,5.45,2.74,10.23,4.87,15.3.54,1.28.71,2.14,1.73,3.32.77.88,1.16,2.6,1.7,3.79,1.59,3.55,2.3,7.2,3.49,10.74.9,2.67,2.16,4.92,2.7,7.79l1.22,6.56c.18.94.26,2.99.8,3.68,1.24,1.57,4.11,3.11,6,2.75l6.04-1.17c1.07-.21,2.57-1.29,3.93-1.35l8.15-.39c2.57-.12,8.9-.05,9.84-.32l7.1-2.01c5.42-1.53,5.24-5.29,7.04-10.34.53-1.48,2.07-4.15,1.53-5.53-1.62-2.47-2.35-3.87-2.04-6.85.21-2-1.24-4.48-1.59-6.45l-1.71-9.4c-.54-3-1.03-5.93-1.39-9.05-.21-1.86,0-4.95-2.09-5.46-1.21.65-2.97,1.57-4.31,1.4-.94-.12-2.07-1.58-2.42-2.69l-1.68-5.41c-.6-1.94-3.1-6.76-3.7-8.97l-1.67-6.16.41-4.6c.19-2.16.6-4.1.07-6.17l-1.79-7.01c-.49-1.91.66-4.25.38-6.62l-1.14-9.84-.05-6.88c-.05-6.38-1.87-5.81-.23-13.55.96-4.55.61-8.62.54-13.06l-.29-17.5.1-9.45c.03-2.59.38-4.98.09-7.73-.41-4-.39-8.19-.18-12.26l.49-9.56c.61-12.03-1.52-6.23-1.63-7.99.01.2-.02.81.05.98,1.29,3.4-.27,1.95-.89,9.58-.52,6.34.25,9.17-1.28,16.15-.46,2.11-1.12,3.76-.83,5.95.25,1.91-.3,3.41-.93,5.11-1.72,4.63-1.43,9.64-2.22,14.4-.44,2.68-1.47,5.28-2.06,7.83l-1.3,5.63c-.71,3.08-.84,6.42-1.92,9.19-1.4,3.61-1.77,7.21-2.01,11.16-.1,1.61-1.08,3.18-1.39,4.75l-1.15,5.72c-.49,2.42-1.41,4.52-2.08,6.99l-1.6,5.93c-.48,1.76-1.1,2.4-.58,4.53,3.58,14.89.38,5.85,1.6,13.87l1.63,10.75c.38,2.49.69,5.06,1.95,6.99-.8,4.41,1.2,2.78,1.02,5.09-.19,2.46-2.11.89-2.6,4.75-1.17.41-4.6-.06-5.1-1.41-.6-1.65-1.08-2.58-2.09-3.96-1.13-1.47-2.05-20.71-3.17-19.38l-.51.61c-2.04,2.43-1.41,5.14-1.42,7.79-.02,4.37.18,8.02,1.43,12.13.81,2.68,2.24,4.72,3.04,7.44l2.59,8.86c.75,2.56,1.59,4.65,3.58,6.68l1.25,3.27c.36.94.8,2.21.43,3.01-.92,1.96-3.39,1.22-4.33,2.12-1.72,1.65,1.97,6.17,3,8.21.64,1.26-1.06,4.13-2.21,4.98-2.22-1.35-4.15-3.23-5.42-5.23l-.55-3.86-2-3.74-2.62-4.8c-1.48-2.72-2.68-8.4-3.03-11.53l-.71-6.35-1.64-10.37c-.34-2.13-.52-3.74-.37-6.02.5-7.59-2.35-8.33-2.26-10.67s-.39-3.71-1.67-5.43c-.83-1.12-.58-3.72-1.18-4.81-.99-1.83-1.67-3.25-2.43-5.09l-3.08-7.4c-1.35-3.25-2.56-6.67-2.85-10.13-.9-.85-2.15-2.18-2.49-3.22l-1.74-5.23-1.5-4.48c-.78-2.32-.98-4.36-2.22-6.44l-3.7-6.19c-.59-.99-1.43-7.51-5.05-11.12-2.45-2.44-2.13-5.84-3.33-8.79s-3.99-5.94-4.33-9.47c-.28-2.98-.65-5.85-1.56-8.64,3.15-2.94,4.57,7.17,5.57,10.04l1.42,4.1c.24.69,2.04,1.77,1.78,2.51-.7,2.04,1.21,2.72,1.62,3.82,1.48,4,3,7.79,4.75,11.66.94,2.07.71,5.07,2.57,6.62,1.58,1.32,2.42,2.41,2.25,4.79-.05.76,1.24,2.08,1.57,2.81,1.99,4.41,3.86,9.98,5.67,12.91s3.8,10.46,4.96,12.52l2.19,3.9c2.52,4.49-.65,2.73,4.97,12.14,1.56,2.61,1.29,8.69,2.58,7.04.16-.2.61-.8.63-1.06.63-9.27.11-1.16,2.49-9.77,3.1-11.25.53-13.98,2.53-18.82.67-1.63,2.51-1.81,3.89-2.09.22-1.29.49-3.38,1.55-4.48l.53-4.1,1.09-6.14c1.64-9.31,3.41-5.44,2.18-10.1-.36-1.36-.26-4.4.22-5.73,1.98-3.99,2.96-12.62,2.82-17.14l-3.63-.12c-.26,0-.95-.11-.89-.29l.28-.96c.32-1.09.69-2.47.67-3.64-.07-3.32.99-6,1.57-9.02l1-5.22,1.25-6.35c.65-3.27,1.72-6.73,2.98-9.49l1.3-2.84c-.39-1.99.04-4.57.82-6.5.82-2.04.62-4.14,2.4-5.8l.44-3.53c1.56-1.46,1.05-2.75.53-4.56-.88-3.06.05-6.82-.15-10.01-.37-5.84.24-11.25.84-17.01l1.63-15.68.31-5.77c.06-1.15.35-2.06.3-3.46-.05-1.16.14-3.55.39-4.62,4.04-3.81-2.11-4.85,2.32-7.34.96-6.16,2.24-12.61,2.87-18.86.36-3.59,1.14-6.64,1.43-10.23l.55-7.04c.15-1.93,1.98-4.6-.01-6.07-.92-.68-3.49-1.48-3.61-2.58-.22-2.19-.43-4.51-.79-6.33-.05-.27.38-1.23.61-1.05l4.85,3.75c1.04-5.13-.09-10.06-.36-15.17-.17-3.26-.74-6.09-1.5-9.28l-.92-3.86c-.35-1.46-.68-2.58-1.21-4.02-.93-2.51-1.41-5.39-2.12-8.1l-2.97-11.41c-.45-1.71-.13-4.34-.59-5.84-1.31-4.29-1.46-7.87-1.79-12.06-.16-2.06-.9-4.84-1.2-7.15-.7-5.44-.53-10.62-.79-15.86-.12-2.42-.83-5.01-.79-7.81.04-3.26-1.32-6.94-1.56-10.38l-.32-4.56c.14,2.05-3.39-18.65-2.54-16l-2.36-7.37-2.7-10.63c-1.64-6.45-1.9-6.75-3.43-13.98-.37-1.76-.27-4.16-1.03-5.69-1.57-3.16-2.54-6.05-3.11-9.46-1.61-9.65.96-7.26-1.98-19.47-1.31-5.45-2.14-4.61-3.3-10.78-.24-1.27-1.22-2.64-1.95-3.88-1.24-2.1-.28-5.34-1.17-7.39s-1.9-3.88-2.3-6.15c-.79-4.45-1.32-9.12-3.43-13.07-.91-1.69-2.05-2.79-2.21-4.89-.09-1.22-1.32-3.92-2.56-3.55-1.04.31-2.09,1.46-2.77,1.25-.92-.29-1.68-1.19-2.14-2.22-.48-1.09-2.8-2.08-3.32-3.07l-3.26-6.18c-1.45-2.75-5.19-4.9-7.96-11.96-1.15-2.93-2.81-5.21-4.2-7.84-1.71-3.24-3.4-6.02-5.56-8.98-1.25-1.71-2.35-3.71-3.72-5.37-2.66-3.23-5.21-5.93-8.19-8.88-.75-.74-1.77-2.43-2.5-3.36l-3.79-4.81c-1.97-2.5-4.28-4.33-6.78-6.3-2.22-1.75-4.32-3.44-6.88-4.69-4.51-2.22-8.74-4.1-13.54-5.98-2.35-.92-6.16-1.4-8.39-.07-.94.56-2.3,3.47-3.79,1.85-6.06-6.61-3.74-8.95-6.3-9.12-.96-.06-2.66.36-3.19,1.36l-2.1,4.01c-1.5,1.5-2.23,2.72-3.03,4.56l-3.65,8.45c-1.05,2.42-2.07,5.58-1.95,8.39l.45,10.34c.11,2.61.35,4.93,0,7.53-.4,3,.3,6.39-.36,9.33l-1.85,8.17c-1.42,6.27-5.86,15.15-5.7,18.49l.31,6.46.27,4.86c.11,1.95-.03,3.37-.75,5.37l.85,5.22.29,10.51,1.7,6.99c.02.1,2.06,14.14,1.7,15.57-.48,1.93-1.56,3.19-3.3,3.14-1.86-.05-2.89-1.21-3.24-3.19-.75-4.28-2.78-5.8-3.32-10.59l-.9-7.92c-.04-.33-.96-1.25-1.12-1.01s-.62.95-.64,1.28l-.46,6.27c-.22,3.04-.87,5.79-1.29,8.72-.87,5.95-.86,11.95-2.33,17.83-.59,2.35-.31,4.68-.36,7.11-.11,4.83.55,9.15,1.52,14.05.61,3.09-.82,6.96-.72,10.24.16,4.99-1.2,5.33-1.37,10.52-.14,4.41-.1,8.55-.35,12.84l-.52,9.13-1,7.57c-1.85,14.04.71,4.29,0,16.15l-.35,5.91c-.11,1.79-.27,4.08-.66,5.69l-1.49,6.13c-1,4.12-2.75,8.03-2.89,12.51-.11,3.56.94,7.43,1.58,11.31,2.85-.64,1.31-2.74,2.79-5.62.23-.45,2.49.79.7,5.14l-1.83,4.44c-.67,1.64.74,4.48.3,6.23-1.74,6.94-.39,9.45-.63,12.44-.26,3.24-1.15,6.05-.43,9.24,1,4.47.82,8.8.2,13.42-.27,1.99.49,4.32.51,5.98.06,8.74.67,5.56.84,13.05l.26,10.99c.05,2.35.42,5.53.67,7.69.1.84,1.83,2.32,1.65,3.2-.53,2.63-.24,5.04-.33,7.6-.08,2.31,1.02,4.13,1.36,6.05l2.08,11.51c.5,2.74-.26,6.87,2.11,9.22.7,3.57.81,5.85,1.49,8.93l1.8,8.05,1.38,5.03,2.87,9.53,1.58,5.97,2.21,9.81,1.91,6.45c.9,3.02,2.24,5.14,1.36,8.65-.23.92,1.35,1.89,2.23,2.44,1.43.9.33,4,1.08,5.26,1.39,2.35,2.67,5.19,4.79,6.73l6.61,4.78c1.15.83,1.78,2.25,3.13,1.25-2.31-2.84-3.3-5.7-4.44-8.95-.54-1.55-2.72-3.51-2.86-5.2-.23-2.75-1.12-4.25-2.16-6.51-2.59-5.59.19-13.19-.48-13.83-.39-.38-1.82-.73-1.94-.56.14,1.34.49,2.62-.79,3.06-1.28-2.21-1.38-4.73-1.66-7.17s-1.25-5.24-1.13-7.86c.03-.64.71-2.24.24-2.58l-1.71-1.22.34-2.68-1.82-4.38c-.72-1.75-.63-3.27.14-4.85-3.96-3.78.28-5.52-3.44-10.33-.74-4.25-1.68-4.35,1.11-8.21.77.6.97,1.58.95,2.56-.04,1.76.44,3.13.69,4.78l1.08,7.24,1.47,7.47c.41,2.08,1.26,4.18,2.25,6.11,1.4,2.72,1.35,5.43,1.84,8.39,1.22,7.39,2.03,5.79,2.92,8.32,1.12,3.15.58,6.8,1.84,9.73,2.11,4.91.19,4.77,1.79,7.08,1.39,2.02.61,5.01,1.55,6.68,1.17,2.09,2.4,3.92,3.37,6.01l2.11,4.57c.75,1.62,1.31,2.78,1.9,4.65,2.59,8.19,5.04,8.39,7.24,12.04,1.03,1.72,2.16,3.61,3.33,5.14l10.23,13.37c2.75,3.6,9.81,6.95,12.6,15.32.2.6,1.23,1.65,1.69,2.1,1.45-1.47.74-2.78,0-4.35-1.04-2.21-1.49-4.75-2.25-7.19-2.18-6.91-3.05-6.86-5.63-13.42-.47-1.2-.86-2.62-.81-3.98.07-1.92-1.05-3.32-1.48-4.86l-3.26-11.82c-1.02-3.68-.54-8.05-3.53-11.13l1.81-3.05-2.89-2.02-3.21-17.64c-.39-2.12.27-4.59-.22-6.55l-1.19,3.3c-2.62-2.17-.45-1.03-2.57-7.25s.71-6.63-3.43-15.6c-.81-1.74-.39-4.75-1.06-6.77-.53-1.59-2.68-3.42-2.78-5.22l-.58-10.36c-.08-1.45-.16-2.87-.32-4.31l-1.03-9.2c-.15-1.33.04-3.13-.4-4.37l-1.33-3.78c-.6-1.69-1.48-3.38.49-5.04.62,1.93.87,3.7,1.22,5.66.19,1.06,1.43,2.75,1.47,4.14.11,4,1.27,7.51,1.83,11.4.35,2.39.46,5,.66,7.44l.38,4.58c.25,3.06,1.64,5.68,2.27,8.58.41,1.88.54,3.49,1.31,5.26l1.73,3.95c1.06,2.41.42,5.94,1.2,8.57.23.78,1.25,2.2,1.17,3-.2,2.11,1.17,3.16,1.97,4.82,1.27,2.63.51,6.43,1.49,9.29,1.09,3.17,1.67,6.45,2.18,9.54.11.68.9,2.04.9,2.88,0,1.35.92,2.21,1.21,3.37l2.59,10.39c.61,2.45,1.27,4.39,1.71,6.91.47,2.73,1.73,5.55,2.5,8.27l2.77,9.76c.74,2.62.86,5.13,2.71,7.4,1.01,1.24,1.12,3.86,1.93,5.07.9,1.36,1.85,2.46,2.41,3.95l4.07,10.88c.69,1.86,1.16,4.24,1.67,6.27.48,1.92,1.53,3.12,2.36,4.8l3.29,6.69c1.15,2.34,2.06,4.61,3.06,7.01l3.44-.58c-2.6-11.33-2.76-5.83-5.99-15.42-.6-1.79-1.76-3.72-2.22-5.62l-1.79-7.44c-.41-1.7-1.33-4.29-2.11-5.81-1.49-2.91-2.51-5.64-3.61-8.58s-3.54-5.58-4-9.24c-.72-5.71-2.97-4.51-3.96-11.03l-1.29-8.42c-.23-1.14-1.31-3.11-1.73-4.46l-2.35-7.43.91-1.51c-.28.47-2.96-9.23-3.31-11.21l-.76-4.25c-.46-2.57-.79-5.29-1.03-8.02-.19-2.13.1-4.4-.4-6.7s-.53-5.04.22-7.03c2.66,0,1.54,2.21,1.71,3.53l1.57,12.53,1.69,7.03c.52,2.15.63,3.81,1.33,5.83.87,2.48,1.02,5.36,1.57,8.04.45,2.22.86,4.3.8,6.6-.04,1.86,1.03,2.75,1.82,4.21,2.11,3.89,2.5,8.75,4.12,12.97,1.03,2.7,1.75,5.17,2.65,8.03.32,1.01,1.57,2.58,1.88,3.94.29,1.3.44,3.52.9,4.55l3.56,7.96,1.98,5.01,2.2,5.11,1.86,4.66c.57,1.41.96,3.49,1.29,5.18s1.91,3.31,2.25,4.51c1.06,3.78,2.67,6.5,4.31,9.85,1.17,2.4,2.16,4.95,4.03,7.08.9,1.03,2.15,3.17,2.6,4.3,1.33,3.31,3.3,6.49,4.81,9.49l3.26,6.47c1.21,2.41,2.95,5.15,3.89,7.44,1.65,4.04,2.69,7.6,5.91,11.03l1.8,1.91c1.27-2.85-1.25-4.18-2.13-6.09l-3.48-7.55c-.86-1.86-.27-4.85-1.34-6.69-4.94-8.52-2.97-1.85-3.74-12.5-3.08-1.7-2.99-4.05-3.41-6.99s-1.93-6.32-2.94-9.36c-1.78-5.33-4.1-5.02-4.21-14.55l-2.25-6.55-2.16-6.38c-1.01,1.64.76,13.06,1.35,14.9l-1.83,1.45c-2.5-4.87,1.12-2.76-2.17-8.23-2.01-3.33.41-8.5-3.02-13.33ZM586.79,105.8c.55-1.64.44-4.17-.87-5.91-.7,1.52-1.06,3.41-1.04,5.05,0,.55,1.73,1.41,1.91.86ZM597.16,114.12c2.67-1.75,5.08-5.2,3.26-8.92-2.78.93-8.02,9.52-4.35,12.24.65-.89.96-2.28,1.08-3.32ZM712,260.8c.04.2.62.9.75,1.08,1.35,1.89-.21-8.64.09-11.08.23-1.85.87-3.24.33-4.89-.62-1.89-.09-3.31,1.91-3.91.74-4.95.17-9.61.08-14.52l-.3-15.28c-.05-2.44-1.46-4.53-1.48-6.98l-.05-5.07-1.1-5.06-.97-4.48c-.98-4.56-1.97-10.14-1.31-14.69.43-2.95-1.1-5.68-1.66-8.51l-.97-4.92c-.39-1.95-.62-3.36-1.2-5.02-1.71-4.84-2.87-9.8-4.12-14.9-.88-3.56-7.08-16.7-8.02-19.43l-2.18-6.32c-1.04-3.01-2.99-5.09-4.93-7.68-.7-.93-1.08-2.58-2.05-3.72-.63,1.21-.6,2.53-.11,3.73,1.81,4.47,5.16,13.88,5.62,18.31.42,4.03,2.73,9.16,4.53,12.48.79,1.45.65,4,1.9,5.2,1.04,1,2.02,2.17,2.2,3.16.79,4.48-2.58-.39-1.11,11.15l.79,6.17c.73,5.69.13,7.63.7,10.98l2.22,13.19,2.15,11.88c.2,1.09.2,3.12.35,4.17,1.2,2.51,2.03,4.87,1.9,7.65s.8,5.18,1.55,7.87c3.49,12.38,1.43,13.6,3.21,23.2l.91,4.93c.85,4.6-1.59,1.18.39,11.32ZM524.02,106.89l-.44,5.3c-.03.32.1,1.17.41,1.2l1.29.13c.6.06.77-5.79-1.26-6.64ZM504.78,194.44c.35-1.51,1.14-3.4,1.35-4.62,1.76-10.04,2.27-6.97,4.69-16.27l2.97-11.4c3.69-7.79,3.96-15.18,6.36-24.16.93-3.49,1.71-6.74,2.28-10.4.92-5.87,1.2-1.91-1.33-10.17-.19-.62-2.02-1.25-2.19-.67-.15.52-.4,1.57-.54,2.24l-2.38,11.21c-.64,3.02-1.46,5.94-1.92,9.02-.34,2.33-.1,4.47-.71,6.84l-1.07,4.13c-.82,3.19-1.38,6.27-1.99,9.48l-1.57,8.39c-.62,3.31-.32,6.96-1.49,10.13l-3.08,2.45c.44,3.25-1.78,14.62-.93,15.36.24.21,1.19.05,1.26-.26l.3-1.29ZM580.32,139.21c4.87-5.47,3.86-3.25,6.65-7.88,1.42-2.36,3.41-4.59.84-7.5-3.51,3.39-3.26,4.01-4.23,7.01-.88,2.69-4.06,5.59-4.6,7.86-.08.35,1.07.81,1.34.51ZM443.86,138.32c-4.13-4.9-1.54-4.6-8.88-10.67-1,1.57-.47,3.14.48,4.35,2.44,3.12,4.84,6.14,7,9.43,1.12,1.71,1.4,3.98,4.07,3.93.2-2.52-.88-4.92-2.67-7.04ZM455.63,161.57l-1.91-4.19c-4.28-3.28-.99-7.72-6.48-9.58-1.25,3.57.92,5.42,2.81,7.74,2.39,2.94,2.35,5.67,5.11,7.59.16.11.58-1.32.47-1.56ZM512.58,219.7l2.11-10.36c.47-2.32.99-3.88,2.12-6.04.38-1.46.51-4.54.49-6.25-.05-5.5.75-10.25,1.6-15.61.34-2.1.34-4.73.45-6.91l.41-7.56c.08-1.49.08-2.78.42-4.21.09-.36.14-1.1-.15-1.17s-1.3-.07-1.44.07l-1.95,5.36c-.17,4.05-.64,8.11-3.51,11.29-.27,2.63-.58,5.46-1.49,7.86-1.63,4.31-2.38,8.04-3,12.75l-.93,6.99c-.42,3.11-.16,5.62.41,8.74l1.16,6.42c.09.49,1.85.65,2.16.26.25-.31,1.06-1.18,1.15-1.64ZM492.87,233.88c1.27-7.85.73-9.42,2.24-16.92.37-1.85,1.87-4.7,1.09-6.41l-2.77-6.11c-4.89-10.78-1.52-2.35-7.15-11.99-.88-1.5-7.49-7.58-11.86-14.52-.92-1.46-2.88-2.95-4.43-4.29-1.27,2.3.94,3.66,1.44,5.42.96,3.4,2.18,6.5,3.6,9.8.94,2.19.89,5.12,2.42,7.07,2.04,2.61,2.88,5.31,3.72,8.44l2.77,10.33c2.18,8.1,3.99,5.54,4.16,10.58.11,3.21,1.89,11.33,3.03,15.06,2.48-2.05,1.37-4.17,1.75-6.47ZM704.26,262.74c2.28-2.2.15-3.85.19-5.68.3-14.74-1.26-15.72-3.31-29.03-.24-1.57-1.48-3.7-1.61-5.47l-.41-5.56c-.18-2.47-.07-5.05-2-7.09-.18,4.65-.64,9.39.15,13.92.41,2.34,1.13,4.59,1.39,6.96.29,2.68,1.04,4.88,2.02,7.39.47,1.19.31,3.28.47,4.65l1.71,14.64c.23,1.94.35,3.76,1.41,5.26ZM519.63,393.87c.55.1,2.04-.51,2.38-1.04.3-.45.18-1.56.01-2.27-.58-2.37.6-3.97,1-5.75.72-3.23,1.25-6.56,1.81-9.86l1.13-6.59c.53-3.11-.79-6.2-.69-9.38.05-1.58,3.34-17.19,3.2-20.94s-.3-7.29-.67-10.89l-1.53-14.81-.78-8.82-1.67-11.42c-.25-1.68-.79-3.63-1.24-5.28l-1.84-6.69c-.58-2.12-1.24-4.35-2.05-6.43l-1.98-5.09-4.13-10.78c-.88-2.29-1.27-4.35-1.89-6.67l-2.27-8.59-2.44-7.52c-.71-2.18-.76-4.76-1.75-6.82-1.47-3.06-2.65-5.92-3.97-9.2s-1.87,10.13-1.95,7.74l.32,9.59c.05,1.39-.96,3.18-1.38,4.55-1.6,5.24-1.37,16.4-1.05,22.27l.39,7.07c1.52,2.71,2.64,5.17,2.4,8.28-.32,4.09,2.25,7.41,3.04,11.04l1.56,7.09,1.27,5.76,1.95,10.39c.38,2.04,1.23,4.05,1.18,6.17-.06,2.66.58,4.62,1.54,7.17l.08,4.66c2.64,2.33,2.9,17.38,2.76,16.78l1.22,4.89c.69,2.76.21,5.33.55,8.14l.7,5.92c.2,1.66.61,2.67,2.36,3.45l.53,8.9,1.05,5.46c.99,5.15-1.1,1.73.84,9.53ZM704.34,319.11c.49-.03,1.09-12.41-.14-11.57-1.86.21-1.77,11.11.14,11.57ZM651.65,582.06c-1.08,1.94-1.95,3.66-2.48,5.72l-1.94,2.37c-.19.23-.22,1.21-.2,1.5s1,.55,1.18.32l.76-.95,3.56-4.48c1.09-1.37,2.21-2.91,3.3-4.13.97-1.08,1.37-1.43,1.86-2.91.96-2.87,3.24-5.32,5.02-7.77,3.3-4.53,2.37-1.74,5.25-6.9l3.22-5.76c1.25-2.23,2.53-4.21,3.12-6.85l1.38-2.05c.91-3.57,3.06-8.41,4.8-10.82.23-.32,1.09-.05,1.74-.11l-1.35-2.52c1.84-2.16,2.39-4.26,3.42-6.64l1.65-3.8c2.33-5.38-.03-.12,2.05-6.73,1.97-6.26,1.14-2.72,1.78-9.13.32-3.19,1.49-6.08,2.36-9.09l2.01-6.92,1.52-5.15c.5-1.69.17-4.32.6-6.1,1.58-6.58,2.81-12.45,3.42-19.14l.96-10.54c.17-1.9.49-3.86.72-5.74l.66-5.31,1.4-10.93,1.39-7.28c.3-1.57.8-3.08,1.33-4.51l1.32-3.57c-2.25-4.43-.06-8.74.26-13.04.19-2.51-1.15-5.05-.43-7.78,1.03-3.94-.52-7.76-.28-12.85.1-2.18-.48-5.44-.08-7.16.82-3.51.59-5.39-.43-8.81-.71-2.37.44-6.17,0-8.94-.75-4.62-.39-8.89-.14-13.5,0,.05-.07-6.02-1.55-5.5-.51.18-.87,15.57-1.09,13l.63,7.35c.17,2.01-.22,3.65-.06,5.68.12,1.54-.1,3.29-.47,4.86-.57,2.37.04,4.33.33,6.74,1.04,8.82-.73,8.24-.87,16.81l-.09,5.49c-.12,7.38,1.46,6.74-1.54,10.3-1.13,1.35-1.37,4.18-2.21,5.81-1.05,2.04-2.19,3.92-1.93,6.4s-.86,4.33-1.52,6.43c-.76,2.42-1.48,4.49-2.82,6.72l-.86,3.24c-1.13,4.26-2.05,10.85-3.25,14.33-.76,2.21-1.22,3.48-1.57,5.75l-1.31,8.5c-.36,2.32-1.25,4.9-1.78,7.23l-1.61,7-1.7,7.8-2.48,10.56c-.31.71-1.41,2.17-1.65,2.94l-2.27,7.22c-.22.71-1.01,1.91-1.64,2.03-.54.1-1.66-.18-2.32-.35l-1.32-.35c-.28-.07-.65.87-.68,1.15l-.84,6.36c-.69,5.2-4.7,11.49-3.01,14.74l4.21-8.28,2.71-4.33c.59,3.39.09,6.37-1.07,9.49-.78,2.12-1.27,4.43-1.95,6.66l-1.34,4.42-1.42,4.62-2.49,9.13c-1.47,5.37-2.73,6.29-4.23,11.27l-1.19,3.92c-.22.72-1.23,2.03-1.57,2.91l-1.51,3.96-3.32,5.99ZM328.71,427.01c2.73-3.46-.07-3.69-.1-7.49s1.48-7.18,1-10.5l-.79-5.47c-.33-2.3-.28-4.28.06-6.65.09-.65-.37-6.27.32-11.78.37-2.96.53-5.2-.84-7.96-.75-1.52.04-4.03-2.79-4.42.22,3.3.6,6.52.54,9.75l-.23,13.96c-.03,2.01-.69,4.1-.09,6.07-2.11,5.9-.33,14.28.67,20.45l.74,4.59-.48,3.95c1.58.52,2.13,1.37,2.09,2.64-.09,2.6,3.51,2.12-.11-7.13ZM680.52,449.61c.36.42,1.02,1.14,1.13.88.07-.17.39-.91.46-1.2l2.09-8.84.99-7.56.08-5.1c.08-5.59.63-20.52-2.08-25.29.57-1.05,1.44-3.03,1.28-4.41-5,.3.11,9.68-2.98,14.96l.02,5.94c.02,4.6-.07,8.92-.34,13.42-.09,1.43-.08,3.1-.01,4.58.1,2.11-.59,3.67-.6,5.69l-.02,6.94ZM517.78,492.31l1.32-9.78c.37-2.77.63-5.54.7-8.34.11-4.64.54-9.25,1.1-13.87l.41-3.36v-4.3c-.01-3.52,1.19-6.65,1.36-10.18l.33-7,.84-8.61.24-6.83c.15-4.12,2.5-8.12.72-12.62-4.82,11.47-2.12,15.48-4.61,25.78-.61,2.52-.84,5.4-1.01,8.02l-.41,6.26c-.46,7.07.33,6.3-.72,15.23-.23,1.96-1.1,4.32-1.06,6.24.18,7.85-1.64,11.33-1.21,18.98l.35,6.19c.05.81-.07,1.75.11,2.29.17.51,1.7-.13,1.53-.68-.39-1.21-.16-2.12.01-3.41ZM342.75,516.09c.05-1.99-.17-2.83-1.43-4.47-1.5-1.96-.59-5.44-1.22-7.66-.47-1.67-1.24-3.25-1.06-4.94.26-2.53-1.75-4.53-2.1-6.71l-1.17-7.35c-1.02-6.4-2.05-4.42-2.54-11.03-.14-1.91-.73-3.24-.86-5.15l-.68-10.03c-.15-2.28-1.51-4.41-1.3-6.75.26-2.79.17-5.54-.44-8.16-1.26.16-2.36.02-3.25-.76-2.21-1.94.92-1.94-3.24-5.07-1.25,4.09-.23,7.71.31,11.61l1.02,7.41c.34,2.47.43,4.87.85,7.34,2.9,17.26-.28,19.9,5.45,39.83l1.52,5.3c.83,2.89.7,5.03,2.37,7.48.73,1.07,1.66,2.9,2.12,4.26l2.12,6.32c.11.32,1.28.97,1.57.81,3.9-2.16,1.87-8.23,1.97-12.27ZM643.39,535.56l-.76-2.79c.76-.6,1.8-1.45,1.99-2.12.42-1.52,1.75-3.31,2.24-4.63l2.95-8.14c1.26-3.49,3.34-4.58,1.76-5.08-.9-.28-2.89.4-3.63,2.73l-1.24,3.89-2.18,2.3c.61,2.69-1.79,4.44-2.51,6.53s-1.1,4.39-2.36,6.45c-.76,1.23-1.15,2.62-.96,3.87l4.69-3.02ZM343.02,533.77c1.26-2.03-.1-3.6-1.94-3.77-.03,1.54.57,3.07,1.94,3.77ZM662.05,544.79c1.08.17,2.09-3.27.78-3.66-1.68-.5-2.25,3.44-.78,3.66ZM651.07,559.36c1.94-1.25,2.79-2.96,2.91-5.45-3.13.62-3.3,2.94-2.91,5.45ZM359.53,580.31c-.73-3.24-2.27-5.74-5.72-6.42l2.73,4.59c.63,1.06,1.89,2.06,2.99,1.82ZM382.22,601.71c-1.04-2.47-2.29-4-3.61-5.88l-3.07-4.36-5.62-7.11c-1.05,2.18,2.53,5.9,2.64,6.04l3.86,5.14c1.89,2.51,3.39,6.52,5.81,6.18ZM600.58,618.61l1.79-3.11,3.1-5.61c.59-1.06,1.57-1.78,2.67-2.31l3.44-6.86,1.51-2.52,4.58-8.18c.61-1.08-.13-3.6-1.08-4.71-1.52.88-.72,3.02-1.3,3.92l-2.42,3.25c-.94,1.26-2.59,2.63-3.31,3.94l-4.36,7.87c-.66,1.19-1.25,3.17-1.88,4.54l-2.5,5.49c-4.43,2.47-5.3,9.65-3.12,8.71,1.27-.55.8-.83,2.87-4.42ZM617.61,612.81c1.22-.18,1.6-3.52.49-3.6-1.57-.12-2.22,3.6-.49,3.6ZM397.76,627.39c.84,3.11,1.02,3.7,2.93,4.22,2.06.56-1.33-3.87-2.93-4.22ZM572.3,682.45c2.23-.13-.21.04,3.74-4.85,5.48-6.77,6.88-8.43,11.1-15.84l4.97-8.74c.57-1,1.47-1.76,2.34-2.65.73-.75,1.04-2.89,2.15-3.71l.73-3.2c6.56-1.47.22-4.46,5.05-6.61l.65-4.17c-2.61,1.46-4.71,5.12-5.86,7.73-.62,1.4-2.89,3.07-3.69,4.52-3.59,6.48-1.51,1.11-4.55,6.68l-3.7,6.79-2.17,3.65-1.56,1.41c-1.06,2.12-2.6,3.86-3.51,6.03l-1.89,4.53-2.21,3.41c-.23.36-3.24,5.11-1.6,5.02ZM405.88,637.03c-.3-.53-.67-1.46-.84-1.84-.11-.26-.88-.04-1.38.16.55,1.92,1.28,4.64,4.21,5.2l-1.99-3.51ZM412.72,647.17c1.16-1.39-2.78-5.28-3.75-4.88-.29.12-.32,1.22-.07,1.45l3.82,3.43ZM439.17,668.4c-.65-2.98-1.26-5.03-2.08-7.46-.87-.71-1.91-1.46-2.85-1.33.39,2.76,1.39,8.88,4.93,8.79ZM487.5,903.31l-.42-1.61c-.08-.29-1.22-.46-1.28-.16l-.3,1.5c-.24,1.21-.03,3.45.89,3.89,1.33-.22,1.45-2.34,1.11-3.62Z"/>
  <path d="M507.15,949.27c.48-2.18-2.03-3.94,0-6.27,1.37-1.56.67-3.5-.24-5.44-.59-1.26-.14-3.52.05-5.15l.78-6.73c.45-.61,1.52-1.65,1.41-2.32-.12-.71-1.4-2.07-1.98-1.72-1.06.63-.63,2.81-.96,3.74-.84,2.33-1.65,4.78-2.6,6.9-1.09,2.42-1.94,4.4-2.58,7.05-1.35,5.65-.5.28-1.16,7.27.39,10.32-1.86,3.13,1.05,12.93.5,1.67.36,3.58-.53,4.93-3.22-.79-3.5-3.99-4.17-6.58-1.82-7.01-1.17-13.98,1.62-20.66.87-2.08,1.37-4.42,2.09-6.55l1.49-4.43c1.11-3.31,2.62-6.41,2.96-9.86.49-4.93,1.56-.52,2.26-8.71,2.38-1.29,1.36-3.36,1.76-5.31.52-2.53,2.46-9.1,3.79-11.27,1.88-3.06,2.03-6.01,2.73-9.37l4.5-21.67c.67-3.23.75-6.04,2.13-9.05l2.05-4.44c2.12-4.6,2.28-9.64,3.96-14.1,1.87-4.96,1.43-6.71,3.2-13.7.7-2.75-.05-6.2,1.41-8.64,1.02-1.71,1.26-3.07,1.69-5.08l1.56-7.32c.44-2.08,1.19-4.58,1.17-6.68-.02-3.48.65-6.63,2.39-9.62l-.69-5.78c-.05-.41-1.37-.44-1.52-.03l-.71,1.88-2.67,6.99c-1.6,4.18-.25,4.24-2.22,5.6-.31.22-1.13-.77-.99-1.11,1.44-3.35.05-1.28,1.05-7.71l1.42-9.18,1.29-4.87c.67-.34,2.35-1.25,3.16-1.46,2.64-.7,4.25,2.04,5.15,4,.84,1.82,3.6,3.37,3.9,5.28l1.05,6.65c.43,2.72.53,5.97.11,8.82l-.81,5.47c-.56,3.75-.97,7.52-3.55,10.84-.01,1.38.28,3.46-.1,4.85l-1.8,6.63-1.46,4.8c-2.91,3.59-3.56,7.39-4.01,11.9-.12,1.16-1.62,3.24-.82,4.52.26.41.27,1.71-.11,1.83l-1.85.56-.66,8.16-.34,4.13c-.98,1.18-1.56,2.12-1.67,3.54-.48,5.79-1.48-1.9-2.13,10.76-.08,1.55-.4,2.79-.72,4.2l-1.26,5.56c-.5.16-1.83.21-1.92.59l-.57,2.44c-2.93-2.8-1.5-6.04-1.21-9.39-1.91,2.62-1.99,5.69-2.95,8.64l-1.17,3.61c-.33,3.13-1.5,5.53-1.91,8.54l-1.03,7.43-1.88,7.66c1.27-5.15-1.91,19.68-1.72,13.85l-.26,8.31c-.04,1.15-2.14,15.71-1.44,18.6.37,1.56-.69,3.56-.78,5.03l-.55,8.39c-.22,3.42.07,6.5-.5,9.85-.37,2.16.06,4.52.03,6.67l-.1,6.51c-.07,4.79-.31,9.16.87,13.98-.67.31-1.97.1-2.33-.38-.44-.59-.83-1.76-.91-2.58-.88-8.45-1.59-5.13-.11-11.75,1.3-5.82-.71-5.41-.3-9.19.29-2.72-.1-4.91.02-7.57l.57-12.24,1.31-5.98ZM538.83,810.98c.13-.36-.6-1.1-.96-.99-3.16,1.02-1.61,8.11-.52,6.46,1.66-2.52-.48-.22,1.49-5.47Z"/>
  <path class="cls-1" d="M429.68,614.39c3.43,4.84,1.02,10,3.02,13.33,3.29,5.47-.32,3.37,2.17,8.23l1.83-1.45c-.6-1.84-2.36-13.26-1.35-14.9l2.16,6.38,2.25,6.55c.11,9.53,2.43,9.22,4.21,14.55,1.02,3.03,2.5,6.3,2.94,9.36s.33,5.29,3.41,6.99c.76,10.65-1.21,3.98,3.74,12.5,1.07,1.84.48,4.83,1.34,6.69l3.48,7.55c.88,1.92,3.4,3.25,2.13,6.09l-1.8-1.91c-3.22-3.42-4.26-6.98-5.91-11.03-.94-2.29-2.68-5.04-3.89-7.44l-3.26-6.47c-1.51-3-3.49-6.18-4.81-9.49-.45-1.13-1.7-3.27-2.6-4.3-1.87-2.12-2.85-4.68-4.03-7.08-1.64-3.35-3.25-6.07-4.31-9.85-.34-1.2-1.93-2.89-2.25-4.51s-.72-3.76-1.29-5.18l-1.86-4.66-2.2-5.11-1.98-5.01-3.56-7.96c-.46-1.02-.61-3.25-.9-4.55-.3-1.37-1.56-2.93-1.88-3.94-.9-2.87-1.62-5.33-2.65-8.03-1.62-4.21-2.01-9.07-4.12-12.97-.79-1.46-1.87-2.36-1.82-4.21.05-2.3-.35-4.39-.8-6.6-.54-2.68-.7-5.55-1.57-8.04-.7-2.02-.81-3.68-1.33-5.83l-1.69-7.03-1.57-12.53c-.17-1.32.95-3.54-1.71-3.53-.75,1.99-.73,4.69-.22,7.03s.21,4.57.4,6.7c.24,2.73.57,5.45,1.03,8.02l.76,4.25c.35,1.98,3.03,11.68,3.31,11.21l-.91,1.51,2.35,7.43c.43,1.35,1.51,3.32,1.73,4.46l1.29,8.42c1,6.52,3.25,5.32,3.96,11.03.46,3.66,2.86,6.19,4,9.24s2.12,5.67,3.61,8.58c.78,1.52,1.7,4.11,2.11,5.81l1.79,7.44c.45,1.89,1.62,3.83,2.22,5.62,3.23,9.6,3.39,4.09,5.99,15.42l-3.44.58c-.99-2.4-1.9-4.67-3.06-7.01l-3.29-6.69c-.82-1.67-1.88-2.88-2.36-4.8-.51-2.03-.97-4.42-1.67-6.27l-4.07-10.88c-.56-1.49-1.51-2.6-2.41-3.95-.81-1.22-.92-3.84-1.93-5.07-1.85-2.28-1.97-4.78-2.71-7.4l-2.77-9.76c-.77-2.72-2.03-5.54-2.5-8.27-.43-2.52-1.1-4.46-1.71-6.91l-2.59-10.39c-.29-1.16-1.21-2.02-1.21-3.37,0-.83-.79-2.2-.9-2.88-.5-3.1-1.08-6.38-2.18-9.54-.99-2.85-.23-6.66-1.49-9.29-.8-1.66-2.17-2.72-1.97-4.82.08-.81-.94-2.22-1.17-3-.78-2.63-.14-6.15-1.2-8.57l-1.73-3.95c-.78-1.77-.9-3.38-1.31-5.26-.64-2.9-2.02-5.51-2.27-8.58l-.38-4.58c-.2-2.44-.31-5.05-.66-7.44-.57-3.88-1.72-7.39-1.83-11.4-.04-1.4-1.28-3.08-1.47-4.14-.35-1.96-.6-3.73-1.22-5.66-1.97,1.66-1.09,3.35-.49,5.04l1.33,3.78c.44,1.24.25,3.04.4,4.37l1.03,9.2c.16,1.45.24,2.86.32,4.31l.58,10.36c.1,1.8,2.25,3.63,2.78,5.22.67,2.01.26,5.02,1.06,6.77,4.14,8.97,1.28,9.27,3.43,15.6s-.05,5.07,2.57,7.25l1.19-3.3c.48,1.97-.17,4.44.22,6.55l3.21,17.64,2.89,2.02-1.81,3.05c2.99,3.08,2.51,7.45,3.53,11.13l3.26,11.82c.42,1.54,1.55,2.93,1.48,4.86-.05,1.37.34,2.78.81,3.98,2.58,6.57,3.45,6.51,5.63,13.42.77,2.43,1.21,4.97,2.25,7.19.73,1.56,1.45,2.88,0,4.35-.45-.45-1.48-1.5-1.69-2.1-2.79-8.36-9.85-11.72-12.6-15.32l-10.23-13.37c-1.18-1.54-2.3-3.42-3.33-5.14-2.2-3.66-4.66-3.85-7.24-12.04-.59-1.87-1.15-3.03-1.9-4.65l-2.11-4.57c-.97-2.09-2.2-3.92-3.37-6.01-.94-1.67-.15-4.66-1.55-6.68-1.6-2.31.32-2.16-1.79-7.08-1.26-2.93-.73-6.58-1.84-9.73-.9-2.53-1.7-.93-2.92-8.32-.49-2.96-.44-5.67-1.84-8.39-.99-1.92-1.84-4.03-2.25-6.11l-1.47-7.47-1.08-7.24c-.25-1.65-.73-3.02-.69-4.78.02-.98-.18-1.96-.95-2.56-2.78,3.87-1.84,3.96-1.11,8.21,3.72,4.8-.52,6.55,3.44,10.33-.77,1.57-.87,3.1-.14,4.85l1.82,4.38-.34,2.68,1.71,1.22c.47.34-.21,1.93-.24,2.58-.12,2.61.85,5.35,1.13,7.86s.38,4.96,1.66,7.17c1.28-.44.93-1.72.79-3.06.12-.17,1.55.19,1.94.56.67.64-2.11,8.24.48,13.83,1.05,2.26,1.94,3.77,2.16,6.51.14,1.69,2.32,3.64,2.86,5.2,1.13,3.24,2.12,6.11,4.44,8.95-1.35,1-1.98-.42-3.13-1.25l-6.61-4.78c-2.12-1.54-3.4-4.38-4.79-6.73-.75-1.26.36-4.36-1.08-5.26-.88-.55-2.46-1.52-2.23-2.44.88-3.51-.46-5.62-1.36-8.65l-1.91-6.45-2.21-9.81-1.58-5.97-2.87-9.53-1.38-5.03-1.8-8.05c-.69-3.07-.79-5.36-1.49-8.93-2.37-2.35-1.61-6.48-2.11-9.22l-2.08-11.51c-.35-1.93-1.44-3.74-1.36-6.05.09-2.56-.2-4.96.33-7.6.18-.88-1.56-2.36-1.65-3.2-.25-2.15-.62-5.34-.67-7.69l-.26-10.99c-.17-7.49-.78-4.31-.84-13.05-.01-1.66-.77-4-.51-5.98.62-4.61.8-8.94-.2-13.42-.71-3.19.17-6,.43-9.24.24-2.99-1.12-5.5.63-12.44.44-1.75-.98-4.59-.3-6.23l1.83-4.44c1.79-4.35-.47-5.59-.7-5.14-1.48,2.87.06,4.97-2.79,5.62-.64-3.88-1.69-7.76-1.58-11.31.14-4.48,1.88-8.39,2.89-12.51l1.49-6.13c.39-1.61.55-3.9.66-5.69l.35-5.91c.71-11.86-1.85-2.11,0-16.15l1-7.57.52-9.13c.24-4.28.21-8.43.35-12.84.16-5.2,1.52-5.53,1.37-10.52-.1-3.28,1.33-7.15.72-10.24-.97-4.9-1.63-9.22-1.52-14.05.05-2.43-.22-4.75.36-7.11,1.46-5.88,1.46-11.88,2.33-17.83.43-2.93,1.07-5.68,1.29-8.72l.46-6.27c.02-.33.48-1.04.64-1.28s1.08.69,1.12,1.01l.9,7.92c.54,4.79,2.57,6.3,3.32,10.59.35,1.98,1.38,3.14,3.24,3.19,1.74.05,2.82-1.21,3.3-3.14.36-1.43-1.68-15.47-1.7-15.57l-1.7-6.99-.29-10.51-.85-5.22c.71-2,.85-3.41.75-5.37l-.27-4.86-.31-6.46c-.16-3.34,4.28-12.22,5.7-18.49l1.85-8.17c.67-2.94-.04-6.33.36-9.33.35-2.6.11-4.92,0-7.53l-.45-10.34c-.12-2.81.9-5.97,1.95-8.39l3.65-8.45c.8-1.84,1.53-3.05,3.03-4.56l2.1-4.01c.53-1.01,2.23-1.43,3.19-1.36,2.56.17.24,2.51,6.3,9.12,1.48,1.62,2.85-1.29,3.79-1.85,2.23-1.33,6.03-.85,8.39.07,4.8,1.88,9.02,3.76,13.54,5.98,2.55,1.26,4.65,2.94,6.88,4.69,2.5,1.97,4.81,3.8,6.78,6.3l3.79,4.81c.73.93,1.75,2.62,2.5,3.36,2.98,2.94,5.53,5.65,8.19,8.88,1.37,1.66,2.47,3.66,3.72,5.37,2.16,2.96,3.85,5.74,5.56,8.98,1.39,2.63,3.05,4.9,4.2,7.84,2.77,7.05,6.51,9.2,7.96,11.96l3.26,6.18c.52.99,2.83,1.98,3.32,3.07s1.22,1.93,2.14,2.22c.68.22,1.73-.93,2.77-1.25,1.24-.38,2.47,2.33,2.56,3.55.16,2.1,1.3,3.2,2.21,4.89,2.11,3.95,2.64,8.62,3.43,13.07.4,2.26,1.38,4.04,2.3,6.15s-.07,5.29,1.17,7.39c.73,1.24,1.71,2.61,1.95,3.88,1.16,6.16,1.98,5.33,3.3,10.78,2.94,12.21.37,9.82,1.98,19.47.57,3.42,1.54,6.3,3.11,9.46.76,1.53.66,3.93,1.03,5.69,1.53,7.23,1.79,7.52,3.43,13.98l2.7,10.63,2.36,7.37c-.85-2.65,2.69,18.05,2.54,16l.32,4.56c.24,3.45,1.6,7.12,1.56,10.38-.04,2.8.67,5.39.79,7.81.26,5.23.09,10.42.79,15.86.3,2.31,1.04,5.08,1.2,7.15.32,4.19.48,7.77,1.79,12.06.46,1.5.14,4.13.59,5.84l2.97,11.41c.71,2.71,1.19,5.59,2.12,8.1.53,1.43.86,2.56,1.21,4.02l.92,3.86c.76,3.19,1.32,6.02,1.5,9.28.27,5.11,1.39,10.04.36,15.17l-4.85-3.75c-.24-.18-.67.79-.61,1.05.36,1.81.57,4.14.79,6.33.11,1.1,2.69,1.9,3.61,2.58,2,1.47.17,4.14.01,6.07l-.55,7.04c-.28,3.59-1.06,6.64-1.43,10.23-.63,6.25-1.91,12.7-2.87,18.86-4.43,2.49,1.72,3.53-2.32,7.34-.25,1.07-.44,3.46-.39,4.62.06,1.4-.24,2.31-.3,3.46l-.31,5.77-1.63,15.68c-.6,5.76-1.21,11.16-.84,17.01.2,3.19-.73,6.95.15,10.01.52,1.82,1.03,3.1-.53,4.56l-.44,3.53c-1.78,1.66-1.58,3.76-2.4,5.8-.78,1.93-1.2,4.51-.82,6.5l-1.3,2.84c-1.26,2.77-2.34,6.22-2.98,9.49l-1.25,6.35-1,5.22c-.58,3.03-1.64,5.7-1.57,9.02.02,1.17-.35,2.55-.67,3.64l-.28.96c-.05.18.63.28.89.29l3.63.12c.14,4.52-.84,13.15-2.82,17.14-.47,1.33-.57,4.37-.22,5.73,1.23,4.67-.54.8-2.18,10.1l-1.09,6.14-.53,4.1c-1.06,1.1-1.33,3.19-1.55,4.48-1.38.28-3.21.46-3.89,2.09-2,4.84.58,7.57-2.53,18.82-2.37,8.61-1.85.5-2.49,9.77-.02.26-.47.86-.63,1.06-1.3,1.66-1.02-4.42-2.58-7.04-5.62-9.41-2.44-7.65-4.97-12.14l-2.19-3.9c-1.16-2.06-3.2-9.69-4.96-12.52s-3.69-8.5-5.67-12.91c-.33-.73-1.63-2.05-1.57-2.81.17-2.39-.67-3.47-2.25-4.79-1.86-1.55-1.63-4.55-2.57-6.62-1.75-3.86-3.27-7.66-4.75-11.66-.41-1.1-2.32-1.78-1.62-3.82.25-.74-1.54-1.82-1.78-2.51l-1.42-4.1c-1-2.88-2.43-12.98-5.57-10.04.91,2.79,1.28,5.65,1.56,8.64.34,3.54,3.08,6.42,4.33,9.47s.88,6.35,3.33,8.79c3.62,3.61,4.45,10.13,5.05,11.12l3.7,6.19c1.24,2.08,1.45,4.13,2.22,6.44l1.5,4.48,1.74,5.23c.35,1.04,1.6,2.37,2.49,3.22.3,3.46,1.5,6.88,2.85,10.13l3.08,7.4c.76,1.84,1.44,3.26,2.43,5.09.6,1.1.35,3.7,1.18,4.81,1.28,1.73,1.76,3.17,1.67,5.43s2.77,3.08,2.26,10.67c-.15,2.28.03,3.89.37,6.02l1.64,10.37.71,6.35c.35,3.13,1.55,8.81,3.03,11.53l2.62,4.8,2,3.74.55,3.86c1.28,2,3.2,3.88,5.42,5.23,1.15-.85,2.85-3.72,2.21-4.98-1.03-2.04-4.72-6.55-3-8.21.95-.91,3.42-.16,4.33-2.12.37-.8-.07-2.07-.43-3.01l-1.25-3.27c-1.99-2.03-2.83-4.12-3.58-6.68l-2.59-8.86c-.79-2.71-2.22-4.75-3.04-7.44-1.25-4.11-1.45-7.77-1.43-12.13.01-2.65-.61-5.36,1.42-7.79l.51-.61c1.12-1.33,2.04,17.91,3.17,19.38,1,1.38,1.48,2.31,2.09,3.96.49,1.35,3.92,1.82,5.1,1.41.49-3.86,2.41-2.29,2.6-4.75.18-2.32-1.82-.68-1.02-5.09-1.26-1.93-1.57-4.5-1.95-6.99l-1.63-10.75c-1.22-8.02,1.99,1.02-1.6-13.87-.51-2.13.11-2.78.58-4.53l1.6-5.93c.67-2.47,1.59-4.57,2.08-6.99l1.15-5.72c.32-1.57,1.29-3.14,1.39-4.75.24-3.95.61-7.55,2.01-11.16,1.08-2.77,1.21-6.11,1.92-9.19l1.3-5.63c.59-2.55,1.62-5.15,2.06-7.83.79-4.77.5-9.78,2.22-14.4.63-1.7,1.18-3.2.93-5.11-.28-2.19.37-3.84.83-5.95,1.53-6.97.76-9.81,1.28-16.15.62-7.63,2.18-6.18.89-9.58-.07-.18-.03-.78-.05-.98.11,1.76,2.25-4.04,1.63,7.99l-.49,9.56c-.21,4.08-.23,8.27.18,12.26.28,2.75-.07,5.14-.09,7.73l-.1,9.45.29,17.5c.07,4.44.42,8.51-.54,13.06-1.63,7.74.18,7.17.23,13.55l.05,6.88,1.14,9.84c.27,2.37-.87,4.71-.38,6.62l1.79,7.01c.53,2.07.12,4.01-.07,6.17l-.41,4.6,1.67,6.16c.6,2.21,3.1,7.03,3.7,8.97l1.68,5.41c.34,1.11,1.48,2.57,2.42,2.69,1.34.17,3.1-.75,4.31-1.4,2.08.51,1.87,3.6,2.09,5.46.35,3.11.84,6.05,1.39,9.05l1.71,9.4c.36,1.97,1.8,4.45,1.59,6.45-.31,2.98.42,4.38,2.04,6.85.53,1.38-1.01,4.06-1.53,5.53-1.8,5.06-1.63,8.81-7.04,10.34l-7.1,2.01c-.94.27-7.27.19-9.84.32l-8.15.39c-1.36.07-2.86,1.15-3.93,1.35l-6.04,1.17c-1.88.36-4.76-1.18-6-2.75-.54-.69-.63-2.73-.8-3.68l-1.22-6.56c-.54-2.87-1.8-5.12-2.7-7.79-1.19-3.54-1.9-7.19-3.49-10.74-.53-1.19-.92-2.91-1.7-3.79-1.02-1.17-1.2-2.03-1.73-3.32-2.13-5.07-3.7-9.85-4.87-15.3l-1.46-6.82c-1.55-1.9-2.15-3.43-2.96-5.95-.51-1.6-1.64-3.53-2.35-5.36-.75-1.94-2.8-4.01-3.3-5.99-.64-2.54-1.07-4.73-2.01-7.1l-.63-1.57c-.16-.39-.95-.33-1.56-.41-.22-1.81-.43-4.38-1.27-6.19l-3.46-7.52c-.56-1.21-1.27-2.46-1.6-3.8-.56-2.3-1.25-4.28-1.94-6.46l-1.58-5.05c-.32-1.03-1.12-2.13-1.87-3.13-1.62-5.28.26-1.95-1.29-7.08-1.07-3.56-2.35-6.88-3.57-10.37l-2.25-6.44c-.53-1.52-1.11-2.46-2.35-3.51l-1.27-1.08c-1.15-.97-3.15,2.67-2.45,4.3ZM347.22,441.42l-.39-7.32c-.28-5.2.55-4.46-.18-6.95-.06-.2-1.18.02-1.19.23-.09,1.86.03,5.36.33,7.58-2.33,4.41.96,8.2,1.21,7.27.03-.12.23-.67.22-.8ZM348.34,462.58c1.92-3.27-1.47-9.91-1.66-7.49-.02.28-.06,1.17.06,1.43,2.03,4.28-1.08,5.54,1.6,6.06ZM349.58,473.49c-.2-2.05-.39-3.76-.82-5.87-.16-.78-2.28-1.34-2.65-.72l1.71,4.06c.4.96-.84,2.58,1.76,2.53ZM351.89,491.44l-1.25-5.86c-1.47-6.86,1.58-8.28-1.81-9.37-1.46,7.96.21,7.35.52,11.86l.3,4.39c.04.52,1.27,1.22,1.63.94s.72-1.45.61-1.96Z"/>
  <path class="cls-1" d="M592.04,627.26c1.15-1.27,2.77-3,3.82-3.92.36-.31,2.07,1.13,1.69,1.41l-1.59,1.17c-.5,1.03-1.25,2.51-1.94,3.52-4.67,6.85-2.17,4.96-5.1,8.9-1.84,2.46-3.23,5.1-4.77,7.74l-2.03,3.49c-.68,1.17-1.09,3.96-1.87,5-1.73,1.06-2.2,1.92-2.93,3.85s-4.81,7.96-6.29,10.17c-1.17,1.76-.8,2.59-4.33,7.57-.66.93-1.66,3.18-1.96,4.3-1.65,6.25-1.76,4.02-4.94,10.78-2.52,5.34-.55,7.99-4.55,11.71-.23.21-.36,1.7-.64,1.59l-1.31-.53c-.94-.38-2.17-.92-2.98-.98-3.31-.25-3.36,6.23-4.91,9.33-.63,1.25-1.66,2.37-1.86,3.68-.5,3.3-1.63,6.45-3.75,8.88-.38-3.12-1.11-4.78-1.59-7.17l-2.51-12.63c-.42-2.12-.84-3.99-1.43-6.12l-2.56-9.11c-.55-1.97-.08-4.47-.92-6.29s-.94-3.58-1.44-5.56l-1.66-6.46c-.44-1.7-.58-3.19-.78-5.1l-2.35-21.93c-.39-3.61-.66-6.54-2.35-9.82-.41-1.56-.05-4.39-.41-6.07l-1.18-5.54c-.51-2.39-1.28-4.58-1.24-7.1-.08-.69-.79-2.31-.84-3.02l-.61-8.99c-.28-4.2-.1-8.29-.61-12.43-.2-1.61-.27-3.04-.28-4.6l-.03-5.06.29-5.41c.14-2.53.23-5.03.24-7.51l.03-10.12-1.14-1.73c-.32-.48.67-1.81.77-2.45,1.45-9.4-2.59-10.28.03-14.02.54-.41,2.23.25,2.83.6l1.2.69c.31.18.65-.9.84-1.25,2.35-4.27.41-9.49,1.84-14.72l1.36.46c1.44.49-1.88-3.31-1.77-4.01l1.21-7.58-.02-2.72.07-6.19.78-6.05,1.21-15.98c.04-.5,1.16-1.28,1.1-1.72s-.61-1.51-.56-2.03l.65-6.65c.48-4.95,2.77-1.64,2.2-7.77-.75-8.07.21-7.46.98-15.1l.43-4.27c.53-5.28,1.1-10.2,2.1-15.48,1.5-7.91.79-13.48.07-21.38-2.89-.31-3.43-1.72-3.35-4.1l.29-8.85c.52-.6,1.29-1.66,1.23-2.4-.3-3.7,2.37-7.93.64-13.77l1.9-7.5c.85-3.35,4.24-.96,3.32-9.87-.52-5.06.37-5.23-.17-10.76-.15-1.55-1.23-2.88-.39-4.5.7-1.35.38-2.82.35-4.33l-.26-15.44c-.03-1.89.12-3.52.12-5.24v-10.81c-.02-2.2.52-4.43.65-6.46.14-2.32-.09-4.41.45-6.72.44-1.88,1.33-4.03,1.64-5.78.6-3.37.13-8.31,3.06-11.41l-1.28-2.47c-.29-.57,1.02-1.76,1.3-2.35,1.82-3.89.58-8.65,1.56-12.67.79-3.24,1.62-6.15,1.92-9.61s1.96-6.63,2.48-9.9c.21-1.31-.58-3.61.1-4.69,1.08-1.72,1.01-2.97,1.26-4.95.5-3.91,2.24-7.73,3.14-11.56l1.64-6.97c2.22-9.44-.62-5.49,1.3-10.23.62-1.52.65-3.44.96-5.25.34-1.97,1.86-4.35,1.81-6.39-.13-6.52,4.04-17.26,4.16-17.93l1.26-6.66c1.5-1.99,2.71-3.62,3.81-5.84.93-1.89,2.94-3.63,3.97-5.41,2.01-3.47,3.65-6.67,6.74-9.41,3.07-2.72,2.63,2.41,8.47,3.74.28-.42.72-1.7.62-2.1-.53-2.07,1.21-4.22,1.66-6.07.97-3.99.38-7.24,2.3-9.43,4.33-4.96,7.97-3.8,13.97-12.39,1.31-1.88,1.86-2.61,3.92-3.59,1.32-.62,2.93-2.36,4.24-3.47,1.71-1.44,2.61-3.25,4.06-5.01l4.58-5.57c-.26.32,2.66-5.19,5.05-4.98,2.59.23.82,4.85,4.67,5.94,1.76.5,3.73-.11,4.7-1.84,2.53-4.55-5.44-7.23-4.5-10.73l3.21-4.06c1.25-1.59,2.76-2.18,2.92-4.76,2.72-3.14,5.22-2.84,7.34-8.29l1.43-3.69c.8-2.06,2.49-4.16,3.17-6.14s.81-3.81,2.23-5.48c2.33-2.74,4.29-5.83,6.13-8.87.43-.71,2.43-.76,2.95-.25,2.85,2.77-.57,4.67,0,7.64l2.02,10.61c.27,1.43,2.12,3.2,2.49,4.36,1.32,4.18,2,8.37,3.05,12.64l2.84,11.52c.52,2.11.85,4.39,1.2,6.48l1.74,10.47c.45,2.68.66,5.2.94,8.02.48,4.89,2.78,9.43,4.14,14.12.56,1.96,1.05,4.25,1.71,5.88.94,2.33,1.18,3.45,1.15,6.05-.03,2.36.8,5.26,1.16,7.68l.73,4.78c2.18,14.35,4.37,31.62,3.21,45.77-.27,3.24-1.64,5.76-.22,9.23.86,2.1.94,5.03,1.11,7.44l.49,7.03c.73,10.34-.17,6.9,1.64,17.59.76,4.49-.15,9.32.35,13.9,1.09,9.83-.22,13.73.12,17.88.37,4.52.03,8.27-.51,12.72-.4,3.32.73,7.17.98,10.55l1.03,14.4.66,9.98c.11,1.68-.25,3.14-.6,4.75-.67,3.05.41,6.53.41,9.66,0,1.61-.05,3.14.04,4.67l.36,5.93c.24,4.06.01,7.93.13,12.03l.25,8.51c.05,1.74-.53,3.16-1.11,4.73-1.17,3.15.75,6.86.06,10.28-.18.89-.98,2.7-1.36,3.62-2.19,5.24-.31.77-1.06,7.86l-.68,6.54c-.13,1.26,2.02,3.91-1.47,4.73-.15-1.19-.07-2.86-.13-4.34l-.24-5.98c-.07-1.75-.22-2.68-.76-4.33-.59-1.8-.39-4.47-.81-6.46-.3-1.39-.69-2.83-.77-4.19l-.46-8.58-.5-9.46-.35-6.62-3.87-3.13-3.14,2.73c-1.01,8.75-.92,8.72.42,16.94.38,2.3.58,4.24.4,6.6l-.54,7.04-.81,5.11c-.57,3.57.84,7.56-.09,11.14-.4,1.54-.9,3.12-.78,4.73.31,4.09,1.01,8.36.22,12.21-.56,2.75-.75,4.17.21,7.01.74,2.19,1.82,10.58-.24,7.9l-1.26-1.64c.22,4.02.45,8.62,1.95,12.72.98,2.7,1.99,5.32,1.57,8.05l-1.68.81c-.69.33.98,8.2-1.7,12.01-1.64-.05-2.66-1.11-3.93-2.5l-2.51,4.36-.37,9.36c-.09,2.16.58,3.89-1.35,5.9.11,6.89-1.31,7.29-1.7,10.84-.32,2.9-1.68,4.94-2.4,7.64l-1.79,6.75c-.13.5-3.47,6.84-3.49,11.12,0,1.31-.76,2.32-1.64,3.3-1.72,1.91-.76,5.24-1.92,7.12-1.04,1.69-1.38,3.43-2.12,5.33-.49,1.25-2.11,2.74-2.59,4.47l-2.79,10.09-3.85,2.33c1.81,7.15-2.54,6.41-2.92,10.17-.31,3.06-1.25,4.24-3.26,6.17-.88,1.35-1.92,3.9-2.76,5.62l.1,2.24c.02.38-1.43.8-1.61.46-1.46-2.81.16-5.06-1.9-6.36-.74-.47-2.88-.88-3.08-.1-.23.89-.41,1.89-.68,2.31-.33.5-1.5.6-2.47.62l3.64-10.44c.91-2.61,2.18-5.3,3.41-7.56.03-5.12,5.97-9.31,7.13-13.12,2.52-1.65,3.41-4.34,4.72-7.03,1-2.05.97-.65,4.18-7.88l2.62-5.91c.74-1.66.8-4.45,1.65-5.93,1.09-.83,1.72-1.56,1.46-2.85-.9-4.48,1.6-1.22,3.37-9.61.32-1.53.71-2.48,1.36-3.85.9-1.88.74-4.39,1.09-6.63.3-1.94,2.21-4.55.63-6.44-1.11-1.33-3.96-1.04-5.02-.1-3.85,3.38-1.42,6.57-2.98,7.09l-2.56.85-.31,4.98c-.89,2.69-3.42,5.08-4.07,7.51-.43,1.62-.64,2.71-1.39,4-1,1.71-1.54,4.26-2.79,5.74-2.5,2.97-4.02,6.29-3.58,10.45l-2.41,2.08-1.46,5.23c.37,1.96.05,2.73-.58,4.88l-1.92,6.55c-.34,1.15-4.8,4.63-6.75,13.24-.2.88-1.01,2.76-1.61,3.42l-2.8,3.07c-2.21,2.42-3.93,4.89-5.57,7.66-1.99,3.37-4.15,6.75-5.3,10.57l-2.51,2.43c-4.33,4.19-.79,3.46-5.84,11.1-2.44,3.7-1.44-.55-4.25,5.99-.78,1.83-1.23,2.92-2.67,4.24l-2.18,3.75-3.75,6.12c-.3.48-1.65,1.17-1.4,1.74,1.13,2.59,4.04,3.63,5.43,2.09Z"/>
  <path class="cls-1" d="M523.59,143.6c1.93-3.9-.87-5.12,3.32-13.34,2.1-4.12,2.47-10.34,2.54-15.33,1.49-3.98,1.77-8.12,2.12-12.46l1.14-14.18c.4-4.97-.5-9.87-.15-14.79l.53-7.48c.14-2.01.88-3.58-1.3-4.91-.49-.3-1.48-.89-2.01-.89.18,0-6.05,1.77-4.72,5.74l-1.48,2.94c-.01,1.99-.45,3.48-.66,5.2l-1.46,11.84c-1.56,12.63-2.76,11.5-4.26,20.32-.28,1.66-.88,3.82-1.45,5.4l-2.02,5.52c-.76,2.08-.99,4.46-1.58,6.53-.65,2.29-1.5,4.36-1.72,6.76-.25,2.78-.61,5.49-1.31,8.08-.82,3.09-1.05,6.5-2.13,9.34-.97,2.55-1.21,4.88-1.66,7.62l-1.6,9.83c-1.13,6.97-.43,6.37-2.28,12.35-1.95,6.28-1.91,22.52-5.82,17.18l-5.11-6.98-2.98-4.06c-1.45-1.97-2.81-4.21-4.36-6.07l-5.69-6.83c-4.45-5.34-5.14-4.93-8.72-9.74l-4.26-5.72-3.39-4.25c-1.37-1.72-2.36-5-1.15-6.46.32-.39,1.89-.46,2.06-.08,1.51,3.31.75,5.27,3.27,5.43,2.28-5.25.94-8.38,1.3-14.85.03-.47.87-1.54.82-1.99-.19-1.95-2.49-.62-3.28-4.5-.1-.48-.5-1.9-.93-1.76l-2.24.72c-1.78-3.09.89-8.47,1.32-9.87,1.11-3.6,2.22-11.49,3.1-12.39,1.18-1.21,2.56,2.58,3.91,2.09.54-.19,1.17-1.09,1.57-1.75l2.84-4.71c1.54-2.56,2.38-6.27-.2-8.69-2.12-1.99-6.18,1.69-8.01,1.8-.34-3.63,1.34-11.57,3.02-14.38,5.28-8.84.98-3.52,7.86-12.49,3.58-4.67,3.95-8.8,8.01-7.07,1.74.74,2.99.04,4.3-1.08l6.05-5.19c7.14,1.58,6.72,4.58,15.86,3.18,2.91-.44,6.35.02,8.93-1.23,2.06-1,4.21-1.33,6.26-1.79,3.12-.7,4.25.4,6.17,2.67,1.5,1.78,5.97,3.38,8.18,2.78l6.92-1.87c1.9-5.62,11.98-1.55,15.2,1.41,3.02,2.78,6.32,5.1,8.63,8.37l3.16,4.45c1.59,2.24,3.32,4.3,5.44,5.8,2.63,4.7,2.85,9.61,2.29,14.71-.23,2.06-.84,3.16-1.73,5.09s-.69,5.29-1.19,7.76c-.37,1.86-.12,3.88-.07,5.66.09,3.23,1.42,4.75,3.74,6.54,1.96,1.52-.49,4.12-1.54,5.44-1.22,1.53-1.83,3.92-2.95,5.53l-2.95,4.2-3.75,1.32c-.94.67-1.43,3.03-2.06,4.25-.59,1.14-2.26,2.64-2.41,3.78-.32,2.53-1.57,4.16-2.31,6.25-1.27,3.57-2.54,7.02-4.06,10.48l-3.48,7.94-1.58,3.68c-.3.87-.28,2.84-.57,3.84l-1.76,5.95c-.2.69-.99,1.83-1.2,2.71-.72,2.97-1.05,6.21-2.17,8.95l-3.02,7.39-1.49,3.95c-.75,1.98-1.5,3.85-2.08,5.86l-1.8,6.17c-.47,1.63-.34,4.42-1.21,5.75-1.53,2.33-2.41,4.17-2.07,7.03l-2.86,3.98-1.3,10.05c-.48,3.71-.52,7.22-1.25,10.93l-2.37,12.03c-.46,2.31-.39,4.07-1.43,6.16-.79,1.58.47,3.91-2.12,5.01l-2.65-8.26c-1.33-4.13-2.46-8.23-4.26-12.34-1.27-2.9-1.98-5.68-2.84-8.74l-1.19-4.24-3.1-9.86c-.7-2.22-.05-3.55,1.03-5.54,3.99-7.3,1.57-9.24,3.85-12.64,1.24-1.85,1.68-3.79,1.43-6.11-.14-1.35.56-2.88.68-4.14l2.05-21.62c.79-8.32-.79-9.61.03-14.44,1.79-10.66-5.12-9.56.19-16.96,1.53-2.13-.83-2.62,1.67-7.69Z"/>
  <path class="cls-1" d="M519.63,393.87c-1.94-7.8.15-4.38-.84-9.53l-1.05-5.46-.53-8.9c-1.75-.77-2.16-1.79-2.36-3.45l-.7-5.92c-.33-2.81.14-5.38-.55-8.14l-1.22-4.89c.15.59-.12-14.45-2.76-16.78l-.08-4.66c-.96-2.55-1.6-4.5-1.54-7.17.05-2.13-.8-4.13-1.18-6.17l-1.95-10.39-1.27-5.76-1.56-7.09c-.8-3.62-3.37-6.95-3.04-11.04.24-3.11-.87-5.58-2.4-8.28l-.39-7.07c-.33-5.87-.56-17.03,1.05-22.27.42-1.38,1.42-3.16,1.38-4.55l-.32-9.59c.08,2.39.67-10.92,1.95-7.74s2.5,6.13,3.97,9.2c.99,2.06,1.05,4.64,1.75,6.82l2.44,7.52,2.27,8.59c.61,2.32,1.01,4.37,1.89,6.67l4.13,10.78,1.98,5.09c.81,2.08,1.47,4.31,2.05,6.43l1.84,6.69c.45,1.65,1,3.6,1.24,5.28l1.67,11.42.78,8.82,1.53,14.81c.37,3.6.53,7.13.67,10.89s-3.16,19.35-3.2,20.94c-.1,3.18,1.22,6.27.69,9.38l-1.13,6.59c-.56,3.3-1.09,6.63-1.81,9.86-.4,1.78-1.58,3.38-1,5.75.17.7.28,1.81-.01,2.27-.35.53-1.83,1.14-2.38,1.04Z"/>
  <path class="cls-1" d="M651.65,582.06l3.32-5.99,1.51-3.96c.34-.88,1.35-2.19,1.57-2.91l1.19-3.92c1.5-4.98,2.77-5.89,4.23-11.27l2.49-9.13,1.42-4.62,1.34-4.42c.68-2.22,1.17-4.54,1.95-6.66,1.15-3.12,1.66-6.1,1.07-9.49l-2.71,4.33-4.21,8.28c-1.69-3.26,2.32-9.54,3.01-14.74l.84-6.36c.04-.29.41-1.23.68-1.15l1.32.35c.67.18,1.78.46,2.32.35.63-.12,1.42-1.31,1.64-2.03l2.27-7.22c.24-.78,1.35-2.24,1.65-2.94l2.48-10.56,1.7-7.8,1.61-7c.54-2.33,1.43-4.91,1.78-7.23l1.31-8.5c.35-2.27.81-3.54,1.57-5.75,1.2-3.48,2.12-10.07,3.25-14.33l.86-3.24c1.33-2.23,2.06-4.31,2.82-6.72.66-2.1,1.78-4.03,1.52-6.43s.88-4.36,1.93-6.4c.84-1.63,1.08-4.47,2.21-5.81,2.99-3.56,1.42-2.91,1.54-10.3l.09-5.49c.14-8.57,1.91-7.99.87-16.81-.28-2.41-.9-4.37-.33-6.74.38-1.58.6-3.32.47-4.86-.16-2.03.23-3.67.06-5.68l-.63-7.35c.22,2.57.58-12.82,1.09-13,1.49-.52,1.55,5.55,1.55,5.5-.25,4.62-.61,8.88.14,13.5.45,2.76-.7,6.56,0,8.94,1.02,3.42,1.25,5.3.43,8.81-.4,1.71.18,4.98.08,7.16-.24,5.09,1.31,8.91.28,12.85-.71,2.73.62,5.27.43,7.78-.32,4.3-2.52,8.61-.26,13.04l-1.32,3.57c-.53,1.43-1.03,2.94-1.33,4.51l-1.39,7.28-1.4,10.93-.66,5.31c-.23,1.88-.55,3.85-.72,5.74l-.96,10.54c-.61,6.7-1.84,12.56-3.42,19.14-.43,1.78-.1,4.4-.6,6.1l-1.52,5.15-2.01,6.92c-.87,3.01-2.04,5.9-2.36,9.09-.64,6.41.19,2.86-1.78,9.13-2.08,6.61.28,1.35-2.05,6.73l-1.65,3.8c-1.03,2.38-1.58,4.48-3.42,6.64l1.35,2.52c-.64.06-1.5-.22-1.74.11-1.74,2.41-3.89,7.25-4.8,10.82l-1.38,2.05c-.59,2.64-1.87,4.61-3.12,6.85l-3.22,5.76c-2.88,5.16-1.95,2.37-5.25,6.9-1.78,2.45-4.07,4.9-5.02,7.77-.49,1.48-.89,1.83-1.86,2.91-1.09,1.22-2.22,2.76-3.3,4.13l-3.56,4.48-.76.95c-.18.23-1.16-.02-1.18-.32s.02-1.27.2-1.5l1.94-2.37c.52-2.06,1.4-3.78,2.48-5.72Z"/>
  <path class="cls-1" d="M446.51,131.24l-5.45-7.45c-1.6-2.19-4.48-3.91-6.37-6.04l-6.02-6.79c-1.87-2.11-4-3.24-5.62-5.69-1.39-2.1-4.95-3.84-5.76-6.38-.58-1.82-.79-3.28-1.88-4.82-1.56-2.21-1.03-5.37-.31-7.92l1.92-6.81c.52-1.84,2.66-4.82,3.75-6.4.29-.42,2.03-.35,2.16-.81l.56-2.06c.2-.73.46-1.64.73-2.07.69-1.09,12.6-.79,13.53,3.94.86,4.34,4.48,8.25,8.87,8.81,3.16.41,3.92,2.07,5.32,4.51s3.16,5.15,4.77,7.53c1.42,2.09,2.28,3.35,1.67,6.09l-2.03,9.08-1.08,8.47c-.46,3.64-1.66,6.88-1.87,10.63l-.39,7.01c-2.36,1.38-5.01-.79-6.5-2.82Z"/>
  <path class="cls-1" d="M600.82,97.61l-4.43,2.73-1.05.65c-1.96,1.22-.54-9.21-.52-9.02l-.33-4.35c1.48-5.57.79-10.65-1.38-15.78-.76-1.79-1.67-2.94-3.04-4.49-2-2.24-3.37-5.22-5.27-7.64-.61-.77-1.58-1.88-1.75-2.6s.48-2.33.98-2.96l6.04-7.62c1.85-2.33,6.53-7.53,9.22-7.72,1.23-.09,1.92,1.3,2.69,2.35,2.52,3.43,4.76,6.79,6.95,10.43,2.03,3.38,7.11,11.96,8.24,15,1.27,3.44,1.89,6.3,4.04,9.34,1,1.41,1.21,3.89,1.76,5.57.76,2.3,1.03,4.34-1.14,5.9-5.47,3.93-2.65,4.35-11.7,10.7l-1.38.97c-.31.22-1.26-.54-1.53-.93-1.42-2.03-4.03-1.99-6.39-.54Z"/>
  <path class="cls-1" d="M712,260.8c-1.98-10.14.47-6.72-.39-11.32l-.91-4.93c-1.78-9.59.28-10.82-3.21-23.2-.76-2.69-1.69-5-1.55-7.87s-.69-5.14-1.9-7.65c-.15-1.05-.15-3.08-.35-4.17l-2.15-11.88-2.22-13.19c-.56-3.35.03-5.29-.7-10.98l-.79-6.17c-1.48-11.54,1.9-6.67,1.11-11.15-.18-.99-1.15-2.16-2.2-3.16-1.25-1.2-1.11-3.75-1.9-5.2-1.8-3.33-4.11-8.45-4.53-12.48-.46-4.43-3.81-13.84-5.62-18.31-.49-1.2-.52-2.52.11-3.73.97,1.14,1.36,2.79,2.05,3.72,1.95,2.59,3.89,4.67,4.93,7.68l2.18,6.32c.94,2.73,7.15,15.87,8.02,19.43,1.26,5.11,2.42,10.06,4.12,14.9.58,1.66.82,3.07,1.2,5.02l.97,4.92c.56,2.82,2.09,5.56,1.66,8.51-.66,4.55.33,10.13,1.31,14.69l.97,4.48,1.1,5.06.05,5.07c.02,2.45,1.43,4.53,1.48,6.98l.3,15.28c.1,4.91.67,9.56-.08,14.52-2,.59-2.52,2.02-1.91,3.91.54,1.65-.1,3.04-.33,4.89-.3,2.43,1.26,12.97-.09,11.08-.13-.18-.71-.87-.75-1.08Z"/>
  <path class="cls-1" d="M342.75,516.09c-.09,4.05,1.94,10.12-1.97,12.27-.29.16-1.46-.49-1.57-.81l-2.12-6.32c-.46-1.36-1.39-3.19-2.12-4.26-1.67-2.44-1.54-4.59-2.37-7.48l-1.52-5.3c-5.72-19.93-2.54-22.57-5.45-39.83-.42-2.47-.51-4.87-.85-7.34l-1.02-7.41c-.54-3.9-1.56-7.52-.31-11.61,4.16,3.13,1.03,3.12,3.24,5.07.89.78,1.99.92,3.25.76.62,2.62.7,5.38.44,8.16-.22,2.33,1.14,4.46,1.3,6.75l.68,10.03c.13,1.92.71,3.25.86,5.15.5,6.61,1.52,4.63,2.54,11.03l1.17,7.35c.35,2.18,2.36,4.18,2.1,6.71-.17,1.69.6,3.27,1.06,4.94.62,2.22-.29,5.7,1.22,7.66,1.26,1.64,1.48,2.48,1.43,4.47Z"/>
  <path class="cls-1" d="M492.87,233.88c-.37,2.3.74,4.42-1.75,6.47-1.14-3.73-2.92-11.85-3.03-15.06-.17-5.04-1.98-2.48-4.16-10.58l-2.77-10.33c-.84-3.13-1.69-5.83-3.72-8.44-1.52-1.95-1.48-4.88-2.42-7.07-1.41-3.3-2.63-6.4-3.6-9.8-.5-1.77-2.72-3.12-1.44-5.42,1.55,1.34,3.51,2.83,4.43,4.29,4.38,6.93,10.99,13.02,11.86,14.52,5.63,9.64,2.26,1.21,7.15,11.99l2.77,6.11c.78,1.71-.72,4.56-1.09,6.41-1.51,7.5-.97,9.07-2.24,16.92Z"/>
  <path class="cls-1" d="M512.58,219.7c-.09.46-.9,1.33-1.15,1.64-.31.39-2.07.23-2.16-.26l-1.16-6.42c-.56-3.12-.82-5.63-.41-8.74l.93-6.99c.63-4.71,1.37-8.44,3-12.75.91-2.41,1.23-5.23,1.49-7.86,2.87-3.17,3.34-7.23,3.51-11.29l1.95-5.36c.15-.14,1.14-.13,1.44-.07s.24.81.15,1.17c-.35,1.42-.34,2.71-.42,4.21l-.41,7.56c-.12,2.18-.12,4.81-.45,6.91-.86,5.36-1.65,10.12-1.6,15.61.02,1.71-.11,4.79-.49,6.25-1.13,2.16-1.65,3.72-2.12,6.04l-2.11,10.36Z"/>
  <path class="cls-1" d="M504.78,194.44l-.3,1.29c-.07.31-1.02.48-1.26.26-.84-.74,1.37-12.11.93-15.36l3.08-2.45c1.17-3.17.87-6.82,1.49-10.13l1.57-8.39c.6-3.22,1.16-6.29,1.99-9.48l1.07-4.13c.61-2.36.37-4.51.71-6.84.45-3.07,1.28-6,1.92-9.02l2.38-11.21c.14-.67.39-1.72.54-2.24.17-.58,2,.05,2.19.67,2.54,8.26,2.25,4.3,1.33,10.17-.57,3.66-1.35,6.91-2.28,10.4-2.4,8.98-2.67,16.37-6.36,24.16l-2.97,11.4c-2.42,9.3-2.93,6.23-4.69,16.27-.22,1.23-1.01,3.12-1.35,4.62Z"/>
  <path class="cls-1" d="M517.78,492.31c-.17,1.3-.4,2.2-.01,3.41.17.55-1.36,1.18-1.53.68-.18-.54-.06-1.49-.11-2.29l-.35-6.19c-.43-7.65,1.38-11.13,1.21-18.98-.04-1.92.83-4.27,1.06-6.24,1.05-8.93.26-8.16.72-15.23l.41-6.26c.17-2.62.41-5.5,1.01-8.02,2.49-10.3-.21-14.31,4.61-25.78,1.78,4.5-.57,8.5-.72,12.62l-.24,6.83-.84,8.61-.33,7c-.17,3.53-1.37,6.66-1.36,10.18v4.3s-.4,3.36-.4,3.36c-.56,4.62-.99,9.23-1.1,13.87-.07,2.8-.33,5.57-.7,8.34l-1.32,9.78Z"/>
  <path class="cls-1" d="M328.71,427.01c3.61,9.26.02,9.73.11,7.13.04-1.27-.51-2.12-2.09-2.64l.48-3.95-.74-4.59c-1-6.17-2.77-14.55-.67-20.45-.6-1.97.06-4.06.09-6.07l.23-13.96c.05-3.22-.32-6.45-.54-9.75,2.83.39,2.04,2.9,2.79,4.42,1.37,2.76,1.21,4.99.84,7.96-.7,5.51-.23,11.14-.32,11.78-.34,2.38-.39,4.36-.06,6.65l.79,5.47c.48,3.32-1.03,6.87-1,10.5s2.83,4.03.1,7.49Z"/>
  <path class="cls-1" d="M572.3,682.45c-1.64.1,1.37-4.66,1.6-5.02l2.21-3.41,1.89-4.53c.91-2.17,2.45-3.91,3.51-6.03l1.56-1.41,2.17-3.65,3.7-6.79c3.04-5.57.96-.2,4.55-6.68.8-1.45,3.07-3.12,3.69-4.52,1.15-2.6,3.25-6.26,5.86-7.73l-.65,4.17c-4.83,2.15,1.51,5.14-5.05,6.61l-.73,3.2c-1.11.81-1.42,2.96-2.15,3.71-.87.89-1.77,1.65-2.34,2.65l-4.97,8.74c-4.22,7.42-5.61,9.07-11.1,15.84-3.95,4.88-1.52,4.72-3.74,4.85Z"/>
  <path class="cls-1" d="M680.52,449.61l.02-6.94c0-2.02.7-3.57.6-5.69-.07-1.47-.08-3.14.01-4.58.27-4.5.36-8.82.34-13.42l-.02-5.94c3.1-5.27-2.02-14.66,2.98-14.96.17,1.38-.71,3.36-1.28,4.41,2.71,4.77,2.16,19.7,2.08,25.29l-.08,5.1-.99,7.56-2.09,8.84c-.07.28-.39,1.03-.46,1.2-.11.25-.77-.47-1.13-.88Z"/>
  <path class="cls-1" d="M600.58,618.61c-2.07,3.6-1.59,3.87-2.87,4.42-2.18.94-1.32-6.24,3.12-8.71l2.5-5.49c.62-1.37,1.22-3.34,1.88-4.54l4.36-7.87c.72-1.31,2.37-2.68,3.31-3.94l2.42-3.25c.58-.91-.22-3.04,1.3-3.92.94,1.11,1.68,3.63,1.08,4.71l-4.58,8.18-1.51,2.52-3.44,6.86c-1.1.53-2.09,1.25-2.67,2.31l-3.1,5.61-1.79,3.11Z"/>
  <path class="cls-1" d="M704.26,262.74c-1.06-1.5-1.19-3.32-1.41-5.26l-1.71-14.64c-.16-1.37,0-3.46-.47-4.65-.98-2.51-1.73-4.71-2.02-7.39-.26-2.38-.98-4.63-1.39-6.96-.79-4.54-.33-9.27-.15-13.92,1.94,2.04,1.82,4.62,2,7.09l.41,5.56c.13,1.77,1.37,3.91,1.61,5.47,2.05,13.31,3.62,14.29,3.31,29.03-.04,1.83,2.09,3.48-.19,5.68Z"/>
  <path class="cls-1" d="M643.39,535.56l-4.69,3.02c-.19-1.25.2-2.64.96-3.87,1.27-2.05,1.62-4.28,2.36-6.45s3.12-3.84,2.51-6.53l2.18-2.3,1.24-3.89c.74-2.33,2.73-3.02,3.63-2.73,1.58.5-.5,1.59-1.76,5.08l-2.95,8.14c-.48,1.33-1.81,3.11-2.24,4.63-.19.67-1.22,1.52-1.99,2.12l.76,2.79Z"/>
  <path class="cls-1" d="M401.7,98.11c-5.88.13-8.5-3.85-14.21-3.58-2.29.11-4.13-.79-5.38-2.64l-3.65-.58c2.01-2.29,3.87-.96,5.86-.66l3.95.59c6.16,3.29,3.43.04,9.34,3.05,1.75.89,3.11,1.81,4.1,3.81Z"/>
  <path class="cls-1" d="M443.86,138.32c1.79,2.12,2.87,4.52,2.67,7.04-2.67.05-2.95-2.22-4.07-3.93-2.16-3.29-4.56-6.3-7-9.43-.95-1.22-1.47-2.79-.48-4.35,7.34,6.06,4.75,5.77,8.88,10.67Z"/>
  <path class="cls-1" d="M580.32,139.21c-.27.31-1.43-.15-1.34-.51.54-2.27,3.72-5.17,4.6-7.86.98-3,.73-3.62,4.23-7.01,2.57,2.91.58,5.13-.84,7.5-2.79,4.63-1.78,2.41-6.65,7.88Z"/>
  <path class="cls-1" d="M516.84,51.72c-4.61.89-9.23.21-13.66-1.51.34-1,1.77-1.34,2.24-1.74,1.74-1.53,3.26-2.14,5.31-.62,2.39.14,5.22.3,6.12,3.87Z"/>
  <path class="cls-1" d="M455.63,161.57c.11.24-.31,1.68-.47,1.56-2.76-1.92-2.72-4.65-5.11-7.59-1.89-2.32-4.06-4.17-2.81-7.74,5.5,1.86,2.2,6.3,6.48,9.58l1.91,4.19Z"/>
  <path class="cls-1" d="M597.16,114.12c-.12,1.04-.43,2.43-1.08,3.32-3.67-2.72,1.57-11.31,4.35-12.24,1.82,3.72-.6,7.18-3.26,8.92Z"/>
  <path class="cls-1" d="M382.22,601.71c-2.42.35-3.92-3.66-5.81-6.18l-3.86-5.14c-.11-.14-3.69-3.85-2.64-6.04l5.62,7.11,3.07,4.36c1.32,1.88,2.58,3.41,3.61,5.88Z"/>
  <path class="cls-1" d="M439.17,668.4c-3.55.08-4.55-6.03-4.93-8.79.94-.13,1.99.62,2.85,1.33.82,2.43,1.42,4.48,2.08,7.46Z"/>
  <path class="cls-1" d="M704.34,319.11c-1.9-.46-2-11.36-.14-11.57,1.23-.84.63,11.54.14,11.57Z"/>
  <path class="cls-1" d="M359.53,580.31c-1.1.24-2.35-.76-2.99-1.82l-2.73-4.59c3.45.67,4.99,3.18,5.72,6.42Z"/>
  <path class="cls-1" d="M587.32,73.87c1.4-.61,5.64,7.77,2.91,8.55-1.33-2.91-2.24-5.29-2.91-8.55Z"/>
  <path class="cls-1" d="M487.5,903.31c.34,1.28.22,3.41-1.11,3.62-.92-.44-1.13-2.68-.89-3.89l.3-1.5c.06-.3,1.2-.13,1.28.16l.42,1.61Z"/>
  <path class="cls-1" d="M586.79,105.8c-.18.55-1.9-.31-1.91-.86-.02-1.64.34-3.53,1.04-5.05,1.31,1.74,1.42,4.27.87,5.91Z"/>
  <path class="cls-1" d="M651.07,559.36c-.39-2.5-.22-4.83,2.91-5.45-.12,2.49-.98,4.2-2.91,5.45Z"/>
  <path class="cls-1" d="M524.02,106.89c2.03.84,1.86,6.7,1.26,6.64l-1.29-.13c-.31-.03-.43-.88-.41-1.2l.44-5.3Z"/>
  <path class="cls-1" d="M412.72,647.17l-3.82-3.43c-.25-.23-.22-1.32.07-1.45.97-.4,4.91,3.49,3.75,4.88Z"/>
  <path class="cls-1" d="M405.88,637.03l1.99,3.51c-2.92-.56-3.66-3.28-4.21-5.2.49-.2,1.27-.41,1.38-.16.16.38.53,1.31.84,1.84Z"/>
  <path class="cls-1" d="M397.76,627.39c1.6.35,4.98,4.78,2.93,4.22-1.9-.52-2.09-1.11-2.93-4.22Z"/>
  <path class="cls-1" d="M617.61,612.81c-1.73,0-1.09-3.72.49-3.6,1.11.08.73,3.42-.49,3.6Z"/>
  <path class="cls-1" d="M343.02,533.77c-1.36-.69-1.96-2.22-1.94-3.77,1.84.17,3.2,1.74,1.94,3.77Z"/>
  <path class="cls-1" d="M662.05,544.79c-1.46-.22-.9-4.16.78-3.66,1.31.39.3,3.83-.78,3.66Z"/>
  <path class="cls-1" d="M538.83,810.98c-1.96,5.25.17,2.95-1.49,5.47-1.09,1.65-2.64-5.43.52-6.46.36-.12,1.09.63.96.99Z"/>
  <path d="M351.89,491.44c.11.51-.24,1.68-.61,1.96s-1.6-.42-1.63-.94l-.3-4.39c-.31-4.51-1.98-3.9-.52-11.86,3.39,1.09.34,2.51,1.81,9.37l1.25,5.86Z"/>
  <path d="M347.22,441.42c0,.13-.19.68-.22.8-.25.93-3.55-2.86-1.21-7.27-.3-2.21-.42-5.71-.33-7.58.01-.21,1.13-.43,1.19-.23.73,2.49-.1,1.76.18,6.95l.39,7.32Z"/>
  <path d="M349.58,473.49c-2.6.06-1.35-1.57-1.76-2.53l-1.71-4.06c.37-.62,2.49-.06,2.65.72.43,2.1.62,3.82.82,5.87Z"/>
  <path d="M348.34,462.58c-2.69-.52.43-1.78-1.6-6.06-.12-.26-.08-1.15-.06-1.43.2-2.42,3.58,4.23,1.66,7.49Z"/>
</svg>