<?xml version="1.0" encoding="UTF-8"?>
<svg id="Camada_1" data-name="Camada 1" xmlns="http://www.w3.org/2000/svg" viewBox="0 0 1024 1024">
  <defs>
    <style>
      .cls-1 {
        fill: #1e1e1e;
      }
    </style>
  </defs>
  <path class="cls-1" d="M477.9,963.81l2.54-1.22-6.67-.12,2.55,1.35c-2.73.56-5.88-.65-7.53-2.71l-3.11,1.22c-.15.06-.01-.83-.06-.98l-.16-.5c-.07-.23-1.1.51-1.33.47l-8.99-1.54c-.37-.77-.52-1.86-1.02-1.97l-2.5-.58c-2.6-.6-4.81-.91-7.77-.9l-2-2.3-5.8.99,1.22-2.33c-7.7.92-6.58-4.07-11.16-1.39-1.11-6.7-4.95-2.33-17.45-9.96-.59-.36-2.77.01-3.25-.39-.57-.48-.9-1.36-1.65-2.62-1.05-1.77-4.65-1.76-6.24-2.84-2.24-1.53-4.33-2.54-6.7-3.16-5.39-5.07-4.57-1.04-10.71-7.18-9.28-4.14-4.96.06-16.05-4.28-2.53-.99-5.04-1.56-7.91-2.43-.82.07-.65.45.4,1.47h-3.51s2.87-2.7,2.87-2.7c-3.88-2.06-7.41,2.79-10.93-1.47-.84-1.02-3.81-.25-5.26-.45-1.29-.18-3.43-2.66-4.83-2.24-2.28.69-3.89.69-5.53-.16l-1.21.71c-.22.13-.6-1.09-.85-1.12l-4.91-.66c-.22-.03-1.01.61-1.19.75-.27.21-1.02-.5-.8-.75l1.46-1.64-7.56-.42c-3.04-1.49-5.96-2.73-9.1-3.3-.21-.48-.26-1-.56-1.09s-1.57-.06-1.85-.22c-1.16-.66-4.05-1.31-5.08.14l-3.75-1.68c-4.99-2.24-3.63-6.54-3.37-6.71.55-.35,1.23-.72,2.23-1.28l1.11-1.13c.55-.56.35.73,3.73,1.77.42.13.1-.9.08-1.49l.55,2.81c.11.54,1.94.57,2.44.32l3.65-1.8-3.97-1.08c-1.42-1.76-3.74-2.08-6.08-2.97l-7.45-2.82c-1.2-.45-2.97-2.57-4.01-3.56-2.99-.65-5.36-2.49-8.14-3.8l-5.96-2.8c-1.45-.68-3.29-2.65-4.62-3.19-7.14-2.93-5.74-.66-14.48-6.38-1.45-.95-3.41-1.52-4.62-2.9-2.68-3.07-.71,1.07-7.11-4.67-8.98-8.04-7.18-3.89-12.52-8.77l-3.66-3.34c-.73-.67-1.63-1.92-2.14-2.82l-8.27-5.41c.9-1.7-6.84-8.35-7.81-9.03-1.65-1.16-2.07-1.79-3.13-3.35l-6.13-9.1-4.69-4.12-2.02-3.87c-.22-.42-.66-1.66-1.09-1.66l-2.47.03.98-1.14c.74-.86-2.43-1.39-3.06-5.79l-1.04-.41c-.36-.14-.48-1.24-.51-1.93-.09-2.17-3.16-3.12-4.04-4.55l-4.06-6.63-4.05-7.85-2.78-4.34c-.64-1-1.95-2.03-3.06-2.57-.76-2.39-1.8-5.17-3.64-7.02,1.33-.39,2.03-.64.29-.84.57-3.25-2.48-4.25-3.46-6.2l-3.26-6.49c-.99-1.97-2.03-3.86-3.57-5.47-.02-.42.48-2.31-.05-2.65l-1.75-1.13c-.88-.57.64-1.46.65-4.3,0-.55-1.89-.13-2.35-.01l-2.49-6.53c-1.51-3.95-3.02-7.33-5.43-11.01-1.37-2.1-1.44-5.28-2.41-7.77l-2.34-6.01c-.1-.25-1.29-.08-1.5.08,1.8-1.4-3.97-5.36-3.47-10.8l-1.48-1.47,1.09-2.36c.29-.63-1.47-1.78-1.73-2.48l-2.43-6.56c-1.28-3.45-2.71-6.62-3.97-10.29l-2.44-7.1-3.26-8.65c-.68-1.82-2.03-3.86-2.27-6.13-1.14-10.71-4.15-5.83-3.16-11.47.06-.34-1.44-.82-1.26-1.11s.81-1.08.77-1.42l-.62-6.19c-.04-.43-.33-1.59-.46-2l-3.03-9.59c-.53-1.69.27-5.11-.45-6.64s-1.55-2.97-1.82-4.53l-.73-4.21-.89-6.14c-.78-.99-.44-.67.74.54l-.65-5.09c-.31-2.41.84-5.32.48-7.7-.61-3.94-1.11-7.66-1.2-11.46-.04-1.62,1.73-3.93.57-5.25l-.82,1.88c-.39-2.7-.58-5.57-1.19-7.84-2.16-7.94,1.28.04.41-13.43-.17-2.56-1.39-5.72-.54-7.85l1.18-2.94c.23-.56-1.15-.62-2.32-.84,3.19-4.71.8-9.35,1.18-14.03l.7-8.73c.27-3.38-.42-6.13-.84-9.5-.27-2.16.83-5.35.7-8.07-.14-2.95.52-7.46,1.08-9.81.1-.4-.26-1.25-.28-1.62-.03-.45,1.48-1.46,1.36-1.89-2.32-8.03,1.03-7.6,1.15-13.41l.21-10.35.11-3.24.87-4.61,1.09-2.5.04-6.33.84,5.23.73-6.98.86-4.39c.19-.95,1.38-2.45,1.35-3.64-.06-2.36.25-4.05.7-6.09l1.46-6.62,1.09-6.31.88-7.08-1.79,1c3.89-10.21,1.82-5.97,2.59-11.36.37-2.6,1.44-4.98.63-8.08-.55-2.11.77-4.33,1.07-6.07.36-2.09.64-4,1.24-6.22,1.24-4.57,1.39-9.28,1.73-14.21.09-1.39,1.3-3.65,1.46-4.87.28-2.18.55-4.41,1.35-6.72.75-2.17.9-4.11,1.49-6.25l3.63-13.21c.36-1.31.38-2.79.93-3.94.66-1.38.7-2.62.42-3.93l1.37-.21c.27-.04-.03-1.1-.1-1.46l-.27-1.35c-.04-.22-.08-.18.93.31,0,.87,0,.82,0-.02.34-2.28.8-3.94,1.88-5.75l2.39-3.99,3.18-5c.65-1.02,1.41-2.06,1.87-3.06l2.84-6.26c.6-1.32,2.08-3.4,2.99-4.66l4.52-6.24,9.04-12.86c1.74-2.47,2.61-5.39,4.79-7.71,6.34-6.75,4.83-6.96,10.89-14.15,1.77-2.09,2.79-5.53,5.03-7.39,2.49-2.05,4.46-4.73,6.91-6.83l6.43-5.47c1.67-1.42,3.43-2.9,5.08-4.14l3.67-2.77,5.17-3.65c5.4-3.81.56-2.73,7.27-7.04l4.49-2.88c.37,1.79.51,2.17.34.49.94-1.29,2.11-3.21,3.05-4.05l8.93-7.93,5.66-5.09c1.57-1.41,3.15-3.38,5.29-4.24l7.32-2.94c2.63-3.52,11.1-8.24,15.07-10.1l7.29-3.42,12.54-6.7c5.6-2.99,10.27-6.88,15.79-9.77l4.82-2.52c2.08-1.09,3.57-2.13,5.32-3.68l4.05-2.87c5.29-3.75,11.8-6.59,13.41-7.8,4.61-3.46,9.09-5.83,14.08-8.86l3.24-1.97c8.03-4.89,5.74.05,8.47-5.08.26-.49,1.56-.23,2.18-.34,2.57-2.06,5.99-3.15,8.99-4.63l5.24-2.58c1.72-.84,3.31-1.45,4.94-2.26l7.5-3.71c2.04-1.01,3.87-2.01,6.49-2.19l5-3.39c.11-.07.55-.91.56-.92.02,0,.66.17.84.22l5.93-2.38,3.58-2.43,1.57.75c-.65-.31,6-4.76,7.37-5.38l4.81-2.17,10.02-4.45c4.35-1.93,8.98-4.49,13.43-5.49,4.13-.93,7.79-1.77,10.98-4.43.91-.76,8.72-2.18,12.67-5.33,2.92-2.34,4.16-3.68,8.25-2.89s9.58-8,13.91-2.08c4.02-1.15,8.3-3.07,12.33-3.94l6.35-1.38c3.45-.75,7.08-.55,10.63-.97l7.01-.83,8.7-.62,1.25,1.07c.32.27,2-.67,1.88-.79-1.58-.55-1.87-.64-1.82-.68l7.93.23-.64-.5c-2.19-1.69,3.3.09,7.22-1.08,6.94-2.07,3.15,3.06,17.39-1.69,1.89-.63,5.43.6,7.11.14,2.59-.72,3.65-.94,6.12.14,2.62,1.15,6.08-.96,8.63-1.19l8.71-.77,6.93-.16c2.69-.06,4.95-.91,7.59-1.54,5.09-1.21,16.38-.37,21.2,1.22.18.06,1.32-.67,1.22-.83-.16-.25,0,.02.82,1.36l1.13-.58c1.32.03,3.39.12,5.15.39l4.66.71c2.99.46,5.78.71,8.53,1.73l5.45,2.03c1.79.67,3.46,1.02,5.14,1.71l3.84,1.57c2.25-.39,3.35.43,5.11,1.33l5.86,3.01c1.44.74,3.35,1.2,4.95,2.07l4.43,2.42c3.22,1.76,6.62,2.48,9.81,4.38l13.74,8.19,4.76.94c2.54,3.7,12.24,7.44,12.42,7.55l8.02,5c1.37.85,3.75,1.49,4.56,2.76,2.02,3.19,5.26,2.82,7.41,4.09l6.74,3.99c5.96,3.53,6.91,1.11,5.98,4.45-1.12.64-1.07.6-.82.6h1.62c4.57,0,6.13,4.15,8.5,5.63,3.8,2.37,7.28,4.25,10.18,7.67,2.44,2.87,6.98,4.25,9.69,6.97l5.09,5.11,4.56,3.01,7.97,7.46c1.9,1.78,3.61,3.74,6.02,4.51.22.67.77,2.24,1.1,2.7,6.39,2.31,4.01,3.56,9.58,5.5,2.43,4.19,6.77,6.42,11.03,8.52l3.44,3.25c2.55,2.41,12.13,10.23,15.8,10.01l3.47,5.76c5.64,3.11,10.4,7.06,15.61,10.37,1.86,1.18,2.9,1.44,4.58,3.31,2.13,2.38,5.32,4.17,7.8,6.58,2.69,2.61,7.63,4.14,8.02,5.22,1,2.74-1.44,3.54-.49,3.72l1.1.21c2.69.52,3.8,1.46,4.51,3.97.43,1.52,2.51,3.08,3.5,4.52l2.76,4.05c1.84,2.69,3.84,6.04,6.17,8.23,6.51,6.12-.84-.07,6.22,10.13,1.08,1.55,2.15,2.87,3.05,4.39l2.77,4.68,3.92,6.6c.13.08,1,.12.87.35l-.94,1.66c-.46.82,1.36,2.14,2.62,2.68l3.76,7.95c.71,1.51,1.64,2.75,2.07,4.19.61,2.01,1.1,4.12,1.76,5.91.72,1.97,1.43,3.76,2.05,5.9l1.33,4.59c.14,1.09.34,2.37.98,2.76.72.43,1.46.79,1.28,1.04l-1.15,1.65,2.06,3.49,1.42,10.59c4.2,3.84-2.14,1.63,2.38,12.68l1.03,2.52c-2.05,4.28.18,7.2.2,5.39-.06,7.87-.14-17.52.82-3.5.02.28.06.83.04,1.33l-.18,5.34c1.54,3.97,1.22,7.42,1.24,11.58.02,5.6,1.45,9.24,1.48,16.19.02,4.31-.35,8.44-.7,12.83-.19,2.5,2.6,5.1.26,8.55-.79,1.17-.28,3.15-.14,4.6l.52,5.29c.52,5.22-.1,11.1,1.52,13.64,1.55,2.43-1.66,5.06-1.62,6.91.08,3.7.03,6.67-.61,10.19l-1.13,6.18-.79-2.06c-.8,1.33-.14,3.5.81,4.54,1.37,1.51-.29,4.44-.37,4.45l-1.39.26c-2.07.4,3.5,2.73.35,10.03-1.32,3.07.52,6.83-1.63,9.73-.7.94-.01,3.16.26,3.73l-1.17,2.08-.48.88c-.13.24-.53,1.23-.29,1.21l1.52-.09c1.09-.06-1.95,5.59-.72,8.26.36,1.07.84,2.56.57,1.12l1.15-.02-.52,1.2c-.04.1-.69.54-.75.63l-1.18,1.93-.23.37c-.57.14-1.24.32-1.1.57l.75,1.41c.82,1.54-.55,4.9-.88,6.63,1.02,3.05,1.3,6.34-1.82,8.26v4.47c-.03,4.38,1.82,4.66-1.25,13.24l2.12,4.73-1.99,1.44c-.15.11.17,1.36.36,1.36.28,0-1.11-.07-1.4-.09s-.98.37-.9.65c2.14,8.33-3.65,10.4-.62,16.41,1.05,2.09-2.09,4.88-1.85,6.74.4,3.17.86,5.92,1.07,9.25.13,2-.71-.16-.84.03-1.2,1.7-.69,4.09,1.2,6.84.65.96-.09,3.83-.78,4.78-1.81,2.47-1.18,5.48-2.07,7.86-1.3,3.49-2.52,6.72-3.19,10.51-1.15,6.57.79,2.91-1.42,10.44l-.72-3.28c-1.8,3.65.98,9.23-1.44,10.64-1.86,1.08-3.58,5.44-.66,8.52.56.59.45,1.22-.62,2.72l-.63,5.52c.29-2.49-3.26,6.82-2.49,12.34l-.62,1.12-.69,1.24c2.21,12.19,1.22,6.31-.2,14.82l-.18,1.05-.19,1.1c-.03.2-.09.75-.11,1l-.08,1.26-.32,5.19-.06.97.03.87c0,.06-.09.45-.13.49l-.55.47-.72-.64c-.44-.96-.6-1.21-.4-.16,1.1,3.06,1.03,6.2-.67,8.83-1.39,2.15,2.12,1.71-1.65,7.59-1.21,1.87-.51,3.26-1.2,5.38l-2.74,8.43c-.96,2.96-1.18,3.88-2.61,6.45l-2.47,4.46.45,3.2c.12.85-1.85,1.47-3.08,1.96l.02,1.22c.65,2.92-2.72,2.27-3.64,8.82-.22,1.61-2.12,3.44-2.51,4.66-.78,2.44-1.6,5.25-2.97,7.67l-3,5.29.1,1.45c.03.4-.36.68-1.38,1.26-.72.41-1.06,1.73-.95,2.98l-2.28,2.22c-3.5,7.34-5.78,4.34-6.52,9.92-.1.75-1.65,1.84-2.45,1.85-2.41.02.46-.04-3.66,5.78l-2.57,3.62c-7.24,10.22-2.46,10.8-10.14,16.73-.07,1.16.22,3.12.49,4.57l-2.04.25c-2.11.26,1.12,3.63-5.47,10.08-1.09,1.07-1.89,2.68-2.78,4.14l-3.16,5.11c-.16.26.36,1.44.13,1.63l-1.25,1.01c-.44.35-.92,1.19-1.34,2.03,1.3.43,1.19.4.11.04-1.78,6.4-3.84,2.54-5.01,6.44l-1.56,5.19-2.6,3.33-1.17-.86c-.14-.1-.63-.24-.86-.33-.24-.09.15,1.1.16,1.36l.06,1.26c.03.73-1.58,1.27-2.73,1.35-3.25,5.6-2.89,7.9-9.01,11.62-2.17,1.32.93,2.28-3.81,6.08-6.09,4.9-1.36,6.38-10.03,11.3-2.65,1.5-3.46,5.07-5.98,6.62l-8.84,5.45-3.95,3.53-3.31,2.96c-.87.78-1.99,2.27-3,2.5-1.59.38-2.4,1.22-2.86,2.67l-2.8,2.38c-.19.16-1.47.52-1.56.3l-.56-1.42-.57-1.38c-.43-1.04-5.84,5.32-1.92,4.83l-3.18.38c-.41.51-.78.85-.62.89l1.73.32.66.42-1.09.55c-.11.06-.69.15-.88.17l-1.33.08-1.22.08-1.03.06-.98.05c-1.72.09-2.58.23-4.34,1.86l.7.87c.27.34.64.92.37.85l-1.74-.44c-.51-.13-1.9.07-2.04.18l-3.05,2.47-3.64,1.99c1.61.51,2.6.83,1.08.39-1.99-.11-5.55-.33-6.4.98-3.17,4.9-3.51-.67-5.71,3.75.19.15-.34-.27-1-.8-.78.19-3.55.61-4.5,1.2l-5.15,3.14c.22.21.8.79.81.77,0-.02-.19.5-.35.47l-1.27-.26-1.16-.24c-.4.75-1.05,1.97-1.58,2.23l-2.67,1.27c-1.52.03-2.67.47-3.93.89l-9.32,3.06c-.87.29-3.17.31-3.82.91-5.52,5.15-6.65,1.33-7.24,3.03l-1.09,3.09-.82-.93c-.72-.82-3.33,3.06-5.68,3.85-2.92.99-5.21,1.99-7.11,3.94-2.26,2.32.47-.98-6.51,1.66-.28.08-1.34-.03-1.23.2l.66,1.36-2.96.87c.51-.15-.3,1.67-.59,1.7l-3.36.4c-1.2.14-3.16,1.17-4.8,1.83l1.2,1.74-5.7-.55.24.62c.22.85-.83,2.04-1.54,2.1l-4.01.3,1.06,1.52-1.63.17-2.91.3c-.34-.05-.6-.16-.58,0l.2,1.68-5.25,1.2-4.79-.95c-1.55.13-.14,2.91-1.31,2.98l-2.22.14c-1.27.08-2.81.25-3.72.64l-.88.38c-.07.03-.28-.05-.52-.11-.42-.11-1.02-.22-1.05.05l-.15,1.44c-.06.54-2.95-.32-4.24.59-.51.36-.91,1.73-1.28,2.25-.44.62-2.34.93-3.1.83l-1.47-.18c-.3-.04-1.16-.12-1.29-.06l-1.78.87c-.36.17-.81-.14-1.5-.47l-.92-.44-.86.5,1.19.46c.26.1.21,1.06-.06.98l-1.41-.44-1.85-.58-.98,1.9-2.86.24c-.71.06-.87,1.99-.97,2.59l-.78-.64.33-.96c-.13.38-5.56.85-6.35.94-3.18.38-6.53,2.26-9.8-.34l-1.25,2.04c-.3.48-2.06-.41-2.61-.33l-5.91.92c-.31.05-1.57-.37-1.71-.08l-.6,1.18-2.49-.3c-.49-.06-1.58.69-1.94,1.04l-6.02-.34c-2.77-.16-7.06-.68-8.66,1.65l-5.56-.64c-1.28-.15-3.25-.13-3.59.77l-.64,1.7c-2.33.7-8.22-1.13-8.55-.37-.14.34-.59,1.51-.96,1.58-.29.05-1.6-.39-1.88-.49-.37-.14.18-.66.97-1.71-4.95-.08-10.33.84-16.64-.05-7.43-1.05-14.85-1.13-22.5-2.22-.53-1.02-.76-.97-1.54-1.37l-.87-.44-.85-.43-.77-.4c-2-1.05-.8-.05-3.08-.75l-.83-.25-.97-.29c-.23-.07-.69-.19-.9-.23l-1.13-.22-1.19-.24-1.33-.28.77-.37.76-.32-1.28-.35-.63-.17-.23.55-.2.48s-.23.15-.29.12l-.66-.24c-.92-.33-1.74-.79-2.92-.34l-.85.32-.7.26c-.6.22-1.22-.08-2.16.71.08.05-.16-.1-.32-.19l-.04-.73c-.13-2.11-4.04.82-4.67.24l-.65-.61c-.14-.13.31-.74.53-.85ZM667.15,76.67l-11.66-3.18c-.86-.23-1.88-2.08-3.14-1.88-2.37.37-4.19-.73-6.29-1.15-5.48-1.1-9.53-.99-13.27-2.54l-5.78,1.04c-.19-1.36-1.52-2.13-2.48-1.92l-2.85.62,2.05,1.19c.24.14-.08,1.56.19,1.63,6.27,1.65,8.67-1,13.79,3.59.6.53,2.21.16,2.96.23,1.14.1,3.4.94,4.46.52,3.16-1.27,4.48,1.05,6.6,1.4,3.19.53,5.54,1.2,8.33,2.8l7.33-.14c.09.41.2-2.07-.24-2.19ZM780.44,157.39c.43-.06,1.08-1.05.81-1.39l-1.14-1.49c-1.25-1.64-2.56-2.48-4.55-2.93l-4.04-4.14c-1.26-1.29-2.53-2.4-3.96-3.48l-3.95-2.97-4.37-3.17c-2.65-1.92-5.35-3.37-8.18-5.05-1.83-1.09-3.61-3.73-5.71-4.72-3.18-1.5-6.3-2.87-9-4.7-2.03-1.37-3.43-2.84-6.11-2.91-1.4-.04-2.37-2-3.3-2.52l-14.52-8.22-4.56-1.48c-1.4-.46-3.05-2.29-4.12-2.77-3.84-1.73-8.56-2.16-12.24-4.1-5.37-2.83-1.45-.2-9.01-3.45l-9.28-3.98-4.54-1.99c-8.6-3.77-16.4-3.14-16.82-5.86-2.1-.06-6.49-.14-8.86-.41-1.51-.18-8.84-3.86-12.75-3.78l-1.99.04c-.36,0-.15-1.1-.27-1.42-7.22.9-11.57-3.26-14.21-3.81l-6.62-1.38-6.25-1.44-5.13-1.28c-.23-.06-.24-.05-.02.19l.88.97-5.84.13-8.58-.78c-1.74-.16-4.4.72-5.92.44l-5.3-.97c-3.45-.63-6.43.73-9.05,2.43-2.2-.62-5.42-3.22-8.57-.16l7.93,1.73c3.05.66,5.96,2.05,9.09,2.17l5.89.24c.62-.61.89-.88.68-.67-2.03,1.99,3.85.27,7.85,2.68,1.49.9,3.85.61,5.44,1.03,8.51,2.23,2.27.13,9.82,1.71,2.74.57,6.66-.06,9.05,1.07,2.16,1.02,3.4,1.25,5.72.98,1.56-.12,5.15.44,6.44,1.34,4.02,2.81,8.86,2.33,13.34,3.23,4.06.82,7.56,3.06,11.93,1.97-1.32,1.41-.93,1.31.06,1.71,2.83,1.04,4.96,1.58,7.49,2.11l4.51,2.97c4.12-.18,10.1,3.07,10.6,2.5l1.04-1.18c1.34,3.38,4.6,2.9,7.41,3.71l7.6,2.21c1.22,1.79,6.53,2.25,10.32,4.04l8.03,3.8c.29.14,1.09.62,1.33.78s-.66,1.16-.37,1.19c4.26.55,8.51,2.68,11.38,5.56,1.91,1.93,4.6,2.76,6.72,4.04l5.53,3.32c1.68,1.01,3.74,1.62,5.61,2.48,3.81,1.74,11.55,7.22,12.44,7.54,8.66,3.13,5.85,4.44,15.35,8.54,2.97.69,5.4.96,6.55,3.77,4,1.11,10.06,6.29,12.25,6ZM687.26,88.58c.41.16.91-1.82.5-1.95l-1.26-.4c-3.24.3-4.92-3.32-7.71-3.95-7-1.57-1.14-1.26-9.72-4.47-.72-.27-1.95,2.55-1.3,2.98,2.37,1.56,7.54,3.99,10.55,2.59,1.08.98,2.08,1.12-.13,1.95l3.11.85,5.96,2.39ZM451.07,98.14l5.22-2c2.02.52,2.52-.24,3.91-.71l6.69-2.27c1.68-.57,4.84.52,6.62.07,11.78-2.99,1.26-2.55,10.86-3.99-.94-.66-1.96-1.18-3.49-2.01l6.4.11,7.58-2.96c.85-.33,1.11-2.65.38-3s-2.52.26-3.32.38c-9.9,1.52-5.76,2.05-17.46,4.92-2.49.61-4.81,1.24-7.23,1.98l-3.17.97c-6.61,2.02-4.45,5.93-8.94,3.48-.93-.24-3.19-.01-4.04.44l-3.05,1.74,3.02,2.88ZM446.03,101.19l2.48-3.24c-2.7.16-4.79.59-6.79,1.53,1.44.89,2.25,1.55,2.59,1.1l1.04-1.4c.11-.14.14.45.2.62l.48,1.4ZM542.82,912.6s.25.35.71.99c3.26,2.42,13.7,2.78,14.5,3.02,4.39,1.32,14.11,3.32,18.49,3.29,2.42-.01,5.7,1.55,7.95.81,5-1.65,3.95-.08,4.7-1.61.45-.92,2.15-.57,3.54-.65,2.31-.12,4.88-.32,7.01.24,2.7.72,3.73-1.46,5.3-1.85l6.08-1.5c.77-.19,24.88-8.29,23.06-7.27l13.77-7.76c5.63-3.17,2-.06,11.55-4.44,2.56-1.17,4.86-2.63,7.44-2.67.34-.36,1.04-1.02,1.51-1.09l3.4-.54,1.36-.22c.21-.03.18-.7.14-.76l-1.66.19-1.52.17c-.25.03-.1-.92.16-.92l4.4.03c1.1-2.25,4.2-3.87,6.78-3.58l3.4-1.81c.26-.14,1.42-.55,1.73-.68.17-.07,0-.48-.19-.49l-1.42-.08s.5-.68.72-.98c.17-.22.95-.1,1.28.01,3.5,1.19,7.65-1.76,9.52-1.22.45.17,1.27-.14,1.5-.5.18-.3-.59-.85-.92-.97l-1.08-.38-1.11-.4c-.21-.07.15-.51.37-.51,15.82-.24,12.6-5,15.97-3.9,6.36,2.07,1.32-3.64,12.89-5.38l5.83-3.74v-1.9c-.01-.29,1.08-.54,1.42-.64l4.76-1.51c4.74-6.86,6.95-1.09,9.95-9.44,2.89-.87,5.75-2.37,7.68-4.69l3.27-3.93c.07-.34.08-1.09.34-1.08l1.62.06c1.8-2.29,3.86-5.1,6.63-6.45.55-.27,2.19-.02,2.4-.55.18-.44.17-1.46.12-2.52,3.57-.51,5.28-2.98,7.41-5.92,1.59-2.2,4.07-4.43,5.9-6.66l1.32.94c1.02.73.27-2.88,3.08-3.66s3.42-2.87,4.23-5.42c1.25-1.44,3.6-3.48,4.76-5.12l6.22-8.85,3.97-7.76c.65-1.27,1.09-1.68,1.49-2.82.69-1.96,4.72-12.12,5.04-12.25,4.16-1.74,1.84-3.3,3.53-7.08.52-1.15,1.15-2.54,1.69-3.89l2.49-6.27c.51-1.28-1.21-.91-.24-1.95l2.44-2.64-1.36-.88c-.64-.41,1.24-.4,1.68-1.28,2.35-4.67,5.96-11.63,8.72-16.41,1.01-1.75,1.42-2.37,2-4.49.79-2.9,3.96-5.67,5.31-8.66l2.28-5.02c.24-.53,1.26-1.23,1.86-1.51l1.26-3.18c5.56-7.01.81-5.28,6.45-11.44.21-.23,1.22-.24,1.54-.19.23.04.23.09-.38-1.5l2.38-3.52c.74-1.09,2.09-2.67,2.65-3.64l5.26-9.16,1.31-5.12,2.05-3.69c3.67-6.62,5.57-10.9,5.83-18.44l1.46-.2c.2-.03.31-.54.43-.89l1.09-4.76c2.14-9.34,10.52-15.43,6.75-17.96,2.37-1.54,3.21-4.12,3.9-6.88l3.94-4.68c.95-9.62,5.92-6.7,4.99-13.31.42-.58.92-1.35,1.18-1.86l1.43-2.79,3.5-6.78c.6-1.16,1.09-2.11,1.41-3.41l.24-.98c1.08-4.41-.16-3.79,1.07-5.32,2.14-2.68,3.11-7.58,3.61-10.5.07-.39,1.41-1.21,1.18-1.51-.45-.58-1.06-1.34-.8-1.64.2-.23,1.32-.97,1.36-1.27.3-2.12.53-6.29,2.81-8.1,1.47-1.17.05-3.59.05-4.95l-.02-7.69c0-2.39.42-5.94.99-8.1.25-.93,2.28-2.55,1.71-3.24-4.58-5.53,2.77-2.32.55-12.37-.52-2.33.76-4.4,1.81-6.15,2.17-3.62.57-8.44.51-12.53-.03-1.81.47-4.4-.54-5.51-2.37-2.6.74-5.37.54-8.3-.37-5.36-.72-11.22-.18-16.29-.47-.74-1.94-2.08-1.63-2.7l1.15-2.38-.89-4.97c.26-.06-.29-.31-1.23-.61l-1.02-9.75c-.3-2.86-1.9-4.96-3.08-7.49s-.98-6.1-1.86-8.61l-1.74-4.99c-.12-.34-.1-1.29-.05-1.63.03-.22,1-.41,1.49-.57.96-2.98-.4-6.28-1.04-9.4-.24-1.18-.33-2.74-.82-3.77l-1.66-3.47c-.19-.4-.21-1.65-.18-2.1.15-1.78,3.76,2.01,4.17.7l-1.9-4.25-4.38-.16.94-1.1.26-2.59-1.08.11-1.28.15c-.67.08.17-2.28.83-2.1l2.76.75c.07-.42.1-2.21,0-3.12-.14-1.18-1.83-2.26-3.46-2.1.58,1.22.89,1.69-.32,1.38-1.47-.43-2.64-1.71-2.39-2.68l.78-3.03.71,1.98c.77.06,2.54-.3,2.48-1.14-.08-1.17-.66-2.37-1.32-3.01-9.37-9.29-1.57-8.83-8.76-16.46l-3.19-.13c.67-6.35-2.91-6.76-5.43-12.73-.84-2-.01-3.97-2.61-5.29-1.33-.68-1.82-3.2-2.66-4.21-1.65-1.99-3.75-4.65-5.39-6.91s-2.31-4.72-3.43-7.32l-4.93-11.39c-.84-1.95-2.73-4.45-3.01-6.48-1.26-8.88-4.94-2.81-3.52-10.26l-4.1-6.53c-.4-.65-.14-3.03-.52-3.71l-2.21-4.01c-3.93-7.12,1-8.82-6.04-9.46.31-13.47-1.88-7.41-3.79-15.01-.38-1.53-.93-3.77-1.72-5.11l-3.92-6.63c-.84-1.43-2.03-2.64-3.55-3.58-.07-3.59-2.05-7.65-5.73-8.53l.57-2.06c-2.03-1.87-3.54-4.08-4.33-6.63l-4.15-2.44c-.32-2.71-1.66-4.92-2.91-6.95-.27-.45-.15-1.82-.6-2.06l-2.17-1.17c.16-2.27-.64-3.75-1.98-5.54s-2.35-5.04-3.98-6.55c-1.22-1.14-1.94-1.86-2.77-3.02l-2.65-3.72c-2.78-3.91-3.75-8.1-6-9.55l-6.25-4.06c-1.53-1-3.51-1.74-5.03-2.5l-1.46-2.42-10.13-5.91c-1.55-.9-9.2-4-13.27-7.62-1.86-1.66-4.1-3.1-5.77-4.88-2.13-2.27-4.46-3.85-7.46-4.42-.67-1.6-1.86-3.58-3.29-4.76-4.5-3.71-7.91-7.87-12.38-10.11-1.66-.83-2.82-1.72-4.07-2.61s-3.97-1.1-5.41-2.3c-.84-.7-1.47-1.15-2.1-1.29-.74-.16-1.91.95-2.57,1.75-1.59,1.94-5.5-1.36-5.33-1.65l.86-1.42c-4.21.17-7.71-.98-11.79-2.22l-5.57-1.69c-1.4.09-3.69.58-4.66.02-.84-.48-1.81-2.48-2.71-2.82-1.15-.43-3.49-.36-4.3-1.21-4.77-4.98-17.22-4.94-12.28-6.48-3.27.74-6.01-.25-9.31-1.39-7.37-2.55-2.1-2.58-10.27-3.1l.79-.93-3.28-1.93c-.34-.2-.66-.43-.66-.25l-.02.95-10.36-3.06c-1.18-.35-2.66-1.29-4.21-1.41-2.08-.16-3.87-.67-5.57-1.24.74-.74,1.14-1.09.96-1.15s-.93-.36-1.13-.38l-3.06-.31c-.44-.04-1.26-1.12-1.52-1.42l-1.24.77c-.57.35-2.9-3.9-5.65-1.89l-9.47-5.54-6.46-2.88-7.79-3.02c-2.02-.78-7.14-3.91-8.12-3.17l-.14-1.15c-.37-2.99,0,1.92-2.97.62-3.24-1.42-7.02-1.22-9.79-1.69-1.89-.32-4.07-1.08-6.3-.79-3.55.45-6.94,1.26-10.12,2.44l-2.43-.07-2.96-.56c-1.05,1.05-2.08,2.03-3.09,2.53-1.35.65-4.09-.72-5.23-1.19-.89-.25-2.49,1.81-3.32,2.41l-5.5.73c-1.58,2.06-3.17,3.22-5.66,3.41l-5.58.42c-.48,3.3-1.26.15-10.49,3.04-2.35.74-3.77,1.53-4.41,3.36-1.06-.46-3.14-.29-4.48.17-3.36-1.38-7.67-.31-10.35,2.3-6.34-.08-21.1,5.9-26.27,8.91-6.88,4.01-4.63,6.46-15.61,12.68-4.27,2.42-6.26,4.95-7.76,5.7-3.21,1.6-6.08,2.94-8.91,5.19l-6.91,5.5-3.15,2.29c-1.9,1.38-4.94,6.43-9.64,9.27l-2.55,4.16c-3.42.55-5.22,2.72-6.34,5.69-3.37,3.39-10.19,5.59-11.59,7.66-1.4,2.07-4.27,2.4-5.66,3.74s-2.58,3.14-3.97,4.26c-6.34,5.07-10,5.42-10.12,9.85l-3.56.82c-2.38.55-7.73,5.75-8.77,7.61l-5.63,2.85c-5.06,2.56-5.65,3.62-11.38,7.42-2.25,1.49-5.53,1.54-6.62,4.64l-2.91-.39c-6.24,4.78-7.72,1.58-13.81,8.71-9.18.93-3.18,2.4-13.54,8.51-10.39,6.13-7.16,5.68-14.42,10.72l-3.71,2.58c-.97,1.65-3.81,3.29-4.98,4.58-2.8,3.07-4.57,6.62-8.66,8.54l-2.72,1.28c-2.45,1.15-4.81,3.93-7.28,5.42-1.7,1.03-2.84,2.03-4.49,3.08l-6.12,3.9c-1.83,1.16-3.19,2.58-5.43,3.2-2.1.57-3.38,1.99-4.28,4.17l-1.98-.95-2.28,3.25c-2.45,2.21-6.22,3.68-8.45,6.17l-4.88,5.42c-1.36,1.51-1.92,3.25-4.37,3.58l-2.15,4.38c-1.59,3.24-2.95,6.73-5.91,9.26l.09,5.24c.02,1.02-.97,2.86-1.32,3.92-1.29,3.89-3.05,7.55-5.12,10.81,2.13,2.19-.37,3.01-3.14,10.56-.83,2.27-2.15,4.63-2.82,6.94-.83,2.83-1.94,5.01-3.56,7.17-.27.93-1.08,2.24-1.58,3.36l-3.05,6.83c-2.18,4.88-5.26,8.56-6.71,13.64-1.19,4.15-4.97,7.66-4.98,12.19,0,1.35-.32,2.5-1.06,3.53l-3.31,4.59c-.15,2.94-1.43,5.69-1.95,8.51-.94,5.16-2,9.97-3.35,14.94l-1.57,5.81c-.15.54-1.37,5.63-1.5,5.55l.94.5-.1,7.88c-1.15.34-1.49.41-.6.02l-1.48-1.14c-.15-.11,0,.6.1.76l.58.96c1.01,1.68,1.25,3.11,1.28,5.14l.14,8.13-1.83.05c-.25,0-.14.93-.15,1.2l-.09,6.29c1.28-.42,2.01-.59.67.14l-1.08,4.37,1.47,6.4-.23,4.65c-.15,2.98-.88,5.32.33,8.51.69,1.82.52,5.58.15,7.37-.06.29-1.4.67-1.68.77s.68.84.97.8l1.94-.25-1.59,1.37,1.68.81c.41.2-.2,1.64-.41,2.09-1.23,2.78-.28,5.31.09,7.95l.73,5.16c.52,3.71,1.18,6.95-1.47,9.42-.11.16,1.92.58,2.08.15l.71-1.88.18,6.4.25,4.41.39,8.5c.02.47,1.03,1.53.95,1.97l-.31,1.7c.37.3,1.39.88,1.17,1.23l-1.01,1.6c.44,6.98,3.05,9.09,3.21,9.47.18.43-.53,1.43-.47,1.94l.68,5.65c4.02,3.63.71,1.77,3.16,11.89l1,4.13-1.11,1.24c-.29.33.18,1.6.43,1.99,3.58,5.67-.29,4.61,2.81,10.97,1.57,3.22,1.86,7.17,2.43,10.9.87,5.71-1.01,2.66,2.88,8.74l2.81,14.48c.3,1.54-.37,4.58.55,5.6,3.53,3.93.09,3.95,3.48,6.84,1.4,1.19,1.97,2.51,1.65,4.41-.23,1.38.57,2.83.9,4.14,1.15,4.63,2.38,8.8,5.1,12.9.38.57.39,2.39.28,2.8.86,1.07,1.76,2.51,2.13,3.92l2.36,8.89c.13.5.43,1.48.56,1.87.13.35.84.24,1.77.34-.6,3.5,2.26,5.47,3.31,8.22l2.73,7.14,2.56,6.34c.46,1.14.67,3.18,1.11,4.88l1.47-1.93c.12,3.41,1.37,6.27,2.71,9.4l3.06,7.15c3.75,8.77,3.57,3.34,5.62,10.4,2.71,1.06,2.71,4.79,5.72,9.53,5.77,9.1,2.35.76,7.85,9.49l2.69,4.27c1.45,2.3,2.4,4.73,2.98,7.16l.82-2.24c1.47,1.59,1.87,3.36,2.71,4.51,2.17,2.96,4.61,5.96,6.95,8.56s5.09,5.75,4.08,9.92c5.33-2.75,1.68.64,9.06,4.51l-3.41.32c9.61,1.62,4.11,5.67,8.7,7.71,3.88,1.72,5.91,5.95,8.42,9.07-.22-.28,4.35,3.33,4.69,5.84-.09.07.78-.67,1.36-1.18l4.95,5.63c2.12,2.41,4.67,4.08,7.43,5.53,1.03,1,2.68,2.75,3.85,3.63l4.75,3.62c2.19,1.66,4.3,3.69,6.74,5.02,3.35,1.82,5.81,3.89,8.25,6.89l3.91,2.19,7.71,4.8,6.81,3.98c2.51,1.47,6.38,1.44,7.12,4.88,1.1-1.23,2.27-1.2,3.29-.39,3.07,2.45,6.3,3.43,10.11,4.31l-1.26.82c5.85,2.2,7.68.7,11.5,3.96,1.25,1.06,3.16,1.09,4.88,1.54,10.35,2.66,6.68,2.69,13.53,5.01,1.85.63,3.99,2.4,6.35,2.99,1.2.3,2.78,1.29,3.85,1.45,2.67.24,6.66,1.38,8.44,3.88l6.77-.29-2.19,1.8c3.09,1.08,5.91,1.8,8.93,2.53,1.6.38,3.36,1.55,5.04,1.96l6.26,1.51c5.56,4.23,3.6.94,10.77,3.8,1.99.8,3.86,1.09,5.96,1.59,11.25,2.66,6.78.64,17.85,2.76l4.55.87c3.33.64,6.02,1.19,9.49,1.63l6.13.77,4.51.59c2.88.38,5.71.07,8.69-.24.78.07,2.8-.13.94.56,1.09.9,2.89.18,3.81-.51,3.18,1.95,8.96,2.83,12.17,1.51l4.49.74,9.18,1.47c.34.05,1.41,1.58,1.59,1.28l.94-1.53ZM700.91,129.56c-2.38-5.4-2.81-2.76-11.23-5.62-.66-.22-2.09.62-2.51.91l-4.56-1.11.1,1.64c.03.46,1.55.94,2.09,1.03l5.68.95c7.13,1.19-1.01,1.63,10.42,2.2ZM244.21,271.74c1.59.62,4.58,1.01,5.22-.06,2.38-4.61,4.62-2.64,12.29-8.88,2.36-1.92,4.41-4.77,7.39-6.61l4.76-2.93,6.18-5.82,5.73-3.43c2.98-1.79,3.13-3.71,6.47-7.15,2.88-1.91,6.4-4.49,9.23-6.53l9.43-6.77c5.78-4.15,2.83-.18,5.03-3.2l6.12-2.31c1.18-.44,2.71-.58,3.55-1.44l2.56-2.61c5.76-1.45,5.5-2.16,9.23-4.31,1.55-.89,3.41-1.69,4.72-3.08,1.12-1.18,3.11-1.66,4.75-1.77l.09-1.44c1.49.03,2.87-.48,3.91-1.73,1.68-2.02,4.25-3.12,5.98-4.68,1.52-1.36,2.24-2.65,4.34-3.26,1.65-1.39,3.4-3.79,5.08-4.83,2.86-1.77,5.16-3.97,7.74-5.96l6.95-5.33.76.64c.14.12.32.09.4-.1,2.03-5.02-.15.65,6.79-5.1l6.64-5.5c1.38-1.14,2.39-2.4,3.84-3.7l2.93-2.63c2.64-2.37,2.68-7.82,10.23-9.58.43-1.5,1.4-3.13,2.71-3.65l2.75-1.09c.28-.99,1.15-2.52,2.15-3.37l4.82-4.1c3.96-3.36,7.59-3.94,8.57-6.29.58-1.39,1.47-2.34,2.47-2.63l-2.13,4.43c2.35-.95,2.99-3.28,2.81-5.36-1.22-.29-3.93.25-4.28,1.18l-.19,1.92c.02-.19-7.25,2.55-8.77,3.19-7.84,3.26-3.73,5.07-8.95,3.87l-.04,2.22-1.65-1.2c-.29-.21-1.17.72-.93.99l.91,1.05c-2.83-.13-4.38.34-6.28,2.04l-4.42.41c-1.36,2.54-4.07,2.61-6.1,3.54-1.56.72-2.58,3.84-5.1,3.55-1.1-.13-2.87,1-3.8,1.34-3.17,1.16-6.91,1.31-8.5,5.23l-.74-1.5c-.09-.19-.84.44-1.04.53l-4.57,1.92-2.54.64-4.22,2.28-4.71,2.63c-1.81,1.01-4.45,1.08-6.41.85-3.32,5.22-1.24,2.18-9.17,7.1l-3.44,2.13c-1.76,1.09-4.05,1.88-5.48,3.46-1.73,1.91-5.07,1.66-6.4,2.77-2.51,2.08-4.77,4.34-7.29,6.16-5.73,4.12-8.98,4.72-11.41,9.22l-3.58.57c-4.96,8.39-1.83,2.96-7.25,9.1l-6.14,6.96-2.85,3.38c-1.45,1.71-4.13,2.57-4.84,5.09l-4.88,3.08c2.67,4.79-4.08,1.76-6.93,8.52-1.31,1.79-4.23,3.46-5.75,5.08-.33.35-.67,1.93-1.11,1.93h-1.73s-2.09,3.32-2.09,3.32l-4.8,7.62c-1.37,2.17-2.79,3.79-4.68,5.55-1.22,1.14-2.34,3.2-3.41,4.47l-2.97,3.5-1.96,1.26-2.01,5.18ZM356.39,140.45c-.9-2.55-3.53-2.02-4.56-1.19s-1.24,3.4-.46,4.71l5.01-3.52ZM113.27,457.11c-.14,1.57-.26,4.03-.64,5.6l-1.1,4.5c1.12.17,3.64.22,4.18-.56.71-1.03,1.95-3.53,2.09-4.75.39-7.86,5.54-10.2,6.81-14.91.68-2.54,1.68-6.92,3.71-9.15l-.99-.12c-.89-.11,5.31-8.94,4.85-13.75.88-.86,1.12-.91,1.19-1.35.05-.35-.65-1.8-.63-2.22l.61-12.24c.18-3.57.54-6.32,1.14-9.64.6-3.3.38-7.15,1.61-10.16.59-1.44,1.08-2.59,1.12-4.05.07-2.62,1.51-4.35,1.94-6.69l2.21-11.97,1.21-3.14c.74-1.92.62-5.02,1.32-6.63.82-1.87,1.73-3.38,2.19-5.26l2.36-9.56c.46-1.85,1.19-3.84,1.96-5.6l4.2-9.67,2.42-5.49,6.02-10.74c1.69-3.01,2.67-5.94,4.47-8.73l7.09-11.04c.61-.94,1.37-1.8,1.96-2.48l2.85-3.28,3.42-4.11,4.37-4.46,4.39-4.57c.29.25-.58-.63-.35-.85l1.25-1.22c1.58-1.56,2.03-3.62,3.72-5.12l5.73-5.1c-2.11,1.88,8.61-11.01,8.1-10.34l5.11-6.69c4.5-5.89,1.55-2.08,7.2-7.3,2.49-2.3,4.85-5.38,7.99-6.78,1.78-.79,2.91-1.52,4.35-2.61l4.93-3.73c1.1-.83,2.2-1.61,3.27-2.52,7.95-6.77,6.18-2.22,8.83-5.46,7.89-9.64,3.92-2.77,10.68-8.89,12.02-10.88,9.61-4.8,15.08-9.76,3.06-2.78,6.29-4.67,10.23-5.72,5.29-3.69,4.43-7.22,8.09-7.19,7.77.07,4.96-7.65,11.58-7.81,3.24-.08,5.49-1.38,7.49-3.27,1.05-1,3.19-2.17,4.71-3.22l1.54-1.06c.3-.21-.34-1.11-.66-1.78,2.83.48,4.92-1.84,6.97-3.92,2.96-3.01,6.87-5.19,10.13-7.89,1.19-.99,2.18-1.88,3.47-2.73,6.67-4.38-.98-2.43,9.36-5.88-.4-1.38-7.8-.08-8.05.4l-.81,1.51c-2.65.08-4.98,1.38-6.46,3.49l-1.89-.59c-1.79-.56-.78,3.39-8.43,6.6-1.86.78-3.65,2.28-5.33,3.16-3.49,1.84-9.15,5.48-9.38,5.59-3.09,1.46-6.37,2.09-6.47,6.16l-4.69,2.54c-1.71.93-3.92,1.5-5.62,1.97l-3.68,2.97c-1.23.99-3.07,3.04-4.39,3.43-2.14.64-4.13,1.15-6.03,2.25l-6.84,3.98c-4.32,2.51-15.51,6.97-16.5,7.92l-3.68,3.56c-2.09,2.02-5.07,2.94-7.27,4.76l-3.71,3.06c-1.8,1.49-3.26,3.21-5.09,4.65l-7.49,5.9c-3.72,2.93-8.66,5.23-11.18,11.42l-3.26,1.26-2.41.93c1.27,3.64-2.63,1.41-4.63,5.64-.27.57-1.65,2.02-2,1.54l-1.47-1.99-.17,3.22c-.04.68-1.71.81-2.55,1.22-3.95,1.93-2.48,4.43-8.58,7.41-2.21,1.08-3.17,1.89-4.23,4.19l-4.29,3.47c-4.37,9.83-2.54,2.08-7.41,11.2-.94,1.76-3.68,3.21-4.25,5.57-.85,3.54-4.38,5.55-6.33,8.49-1.4,2.13-2.41,4.75-3.7,7.02-1.62,2.86-4,5.25-5.74,7.82l-5.21,7.71c-3.23,4.78-6.26,8.94-9.2,14.59-1.51,2.91-2.11,5.86-4.16,8.64-1.18,1.6-2.67,4.17-3.34,6.02-3.89,10.77-.98,9.08-2.86,13.53-2.9,6.84-4.02,9.59-3.51,16.74.23,3.25-.91,2.23-2.44,9.44l-1.78,8.36c-.25,1.19.43,3.96-.07,5.08-3.19,7.14,2.31,6.6-2.11,11.54l.8,2.11-.38,9.84-.99-1.3-.48,4.42-.6,7.15c-1.3,2.26-1.47,4.3.88,6.18l-1.42,1.5c.18,5.18-2.63,8.95-2.54,12.1.17,5.87-.39,12.5-3.67,17.73ZM933.62,332c.6.09,2.12.08,2.74,0,1.64-2.13-.69-5.03-.76-6.78-.09-2.26-.47-4.52-1.86-5.69-.47-.4-1.37-2.03-1.03-2.43l1.49-1.78-2.8-6.92c-.85-2.09-2.37-4.52-3.35-6.27-.09-1.36.73-4.31-.2-6.03-2.12-3.93-3.92-7.6-5.67-11.77l-1.71-4.1c-.73-.96-3-2.2-3.38-3.78-1.35-5.66-3.71-10.14-7.45-14.41-2.74-9.5-3.56-3.79-7.25-11.06l-3.17-6.25c-4.34-8.54-7.25-8.52-8.21-10.72-1.2-2.77-3.33-3.27-4.77-4.67-1.19-1.16-2.2-4.04-3.81-5.19l-4.49-3.21-5.49-4.79-4.49-3.24-8.04-5.58-9.25-7.01c-3.28-2.49-6.59-4.49-9.18-7.82l-3.96-2.73c-3.74-2.57-7.55-4.78-10.13-8.36-.72.08-1.69.34-1.99.04s-.87-1.31-1.25-1.61l-4.3-3.43c-.78-.58-2.95.6-3.92,1.57l3.5.34c1.49,4.63,5.36,5.04,8.01,8.7,5.68,7.84,5.63,5.68,11.57,14.28,1.2,1.74,2.03,4.9,3.01,6.78,5.01,1.24,1.75,1.76,6.07,7l.2,3.07c.05.8,3.05,1.27,3.43,1.96,1.39,2.46,3.4,6.95,4.7,9.91,3.79.33,5.7,2.72,7.67,6.06,6.23,7.37,4.05,2.4,10.43,9.78.87,1.01,1.7,1.92,2.01,2.87,3.23,1.81,5.97,4.98,8.67,7.49l8.38,7.78c1.55,1.44,2.56,2.91,4.06,4.38,6.85,6.7,2.08,3.62,6.55,8.12l2.3,4.67c.98.08,2.54,1.98,3.2,3.1.68,2.42,2.45,4.42,3.36,6.5,1.56,3.55,3.81,6,5.95,8.95.57.79,3.16,10.31,7.54,12.22.59.26,1.14,1.88.69,2.29l-1.57,1.45c.95.83,1.74,1.97,2.46,3.33l3.53,6.63c1.77,3.34.48,6.13,1.94,6.35ZM895.62,361.41l-1.9-5.51-1.59-5.23-2.12-8.15c-1.18-4.53-4.76-8.3-4.43-13.51l-2.17-4.15c-1.08-2.07-.21-4.81-.81-6.58-.72-2.14-2.84-4.34-3.4-6.65l-1.15-4.75c-3.43-14.15-3.86-6.08-8.26-15,.77-3.1-2.26-7.74-4.14-9.74l-.37-3.9c-3.29-2.37-3.18-4.93-6.06-10.29l-2.86-5.32c-1.32-2.46-2.4-5.38-3.34-7.98-4.18-4.52-4.99-7.05-9.72-12.01-6.66-6.98-9.13-12.74-17.5-16.67,1.04-1.94-4.43-5.6-5.08-5.61-.73-.02-2.38.65-3.17,1.16l3.61,3.91c1.14,3.63,4.49,6.21,5.96,9.26,1.9,3.95,3.88,6.65,7.06,9.64,3.61,3.4,4.82,9.26,8.06,12.97,4.13,4.73,7.16,14.69,7.98,16,1.43,2.31,2.17,5,2.03,7.78l3.43,4.15c.41,2.81,1.08,5.54,2.52,8.11,3.07,5.48,5.14,11.12,6.66,17.12l2.3,1.28c.43.24,0,2.05.19,2.59l3.66,10.53c.69,1.98.83,3.33,2.11,4.75l.96,1.08c.2.22.95,0,1.7-.11-1.25,3.25,6.54,13.75,5.78,11.95l3.49,8.31c1.92,1.59,3.12,2.75,3.88,5.07l1.08,3.31,1.27-.86c1.02-.69-.23,3.22.62,3.59l2.24.97,1.86,4.48c.45.35,1.88,1.14,1.75,1.61l-.57,2.02c.31.15,2.84-.88,2.41-1.49l-2.31-3.3-1.63-4.82ZM250.05,234.22l3.89-4.4-4.05-.03c-1.11,0-3.27,4.07-2.11,5,.38.31,1.81-.05,2.27-.57ZM191.77,317.22c1.84-1.94,2.82-3.57,3.62-6.27l5.43-4.14c.22-.17,1.42.29,1.69.35s.47-1.1.71-1.3l7.29-6.29c2.01-1.73,2.64-4.37,2.82-6.5.53-.79,1.51-2.33,2.04-3.01l3.69-4.74c.69-.88,2.58-9.22,5.26-14.07l1.98-3.59,2.82-6.54c1.22-2.84,6.61-6.38,6.64-10.25l1.21-.05c1.67-.07-2.43-1.81,3.43-6.52,1.12-.9,1.67-1.3,3.1-2.14.21-.73-.79-2.77-1.56-3.95l-3.69,3.65c.1,1.66-.2,1.12-.64-.44-1.05,1.75-3.22,2.75-4.49,4.31l-5.65,6.95c-1.54,1.9-2.96,4.15-4.34,6.25-3.29,5.01-2.47,1.86-8.01,8.81l-3.66,4.59c-1.11,1.4-.8,4.16-2.89,5.24-2.52,1.31-3.54,4.17-5,6.33-1.08,1.6-2.19.95-5.93,7.78-2.09,3.83-4.88,7.39-6.37,11.51l-3.75,10.37-1.58,4.11c-.13.34-.44,1.3-.13,1.32,4.38.32,3.48.85,5.94-1.75ZM923.45,364.06l-.81-4.9c-.51-3.1-1.37-6.07-2.07-9.05-.82-3.49-2.33-5.84-3.32-8.89l-3.2-9.91c-.53-1.65-2.21-3.5-3.11-4.91-.12-2.24-1.02-3.8-2.15-5.97-.89-1.71-1.04-4.11-2.55-5.64-2.41-2.43-4.99-8.62-3.08-9.58-1.79-.94-3.18-2.29-4.27-3.73l-3.01-3.96c-1.04-1.37-2.22-2.65-3.16-4.23s-2.35-2.72-3.44-4.16c-1.68-2.21-3.07-6.32-5.07-8.38-.42-.43-2.63-.77-2.73-1.37l-.4-2.36-1.72.24c-.31.04-.47-.41-.92-1.17l1.1-.47c.14-.06.38-.46.23-.51l-1.24-.45c-.4-.15-1.36-.77-1.07-1.04l1.04-.95-3.77-2.19c.24,1.24.98,2.74,1.59,3.94l3.4,6.72,3.84,7.74c1.16,2.34,2.42,5.74,3.88,7.73,1.99,2.7,3.83,4.36,4.12,7.9.53,6.58,6.63,1.91,7.18,13.33l3.37,4.48c1.22,4.46,7.65,17.94,9.95,20.28,1.97,2,2.09,3.8,1.71,7.03l1.46-.9c.26,5.33.27,2.26,2.34,8.52,1.7,5.16,3.05,9.99,3.9,15.46.17,1.08,1.05,2.31,2.12,3l1.85-4.43c-1.18-2.48-1.54-4.39-2-7.2ZM150.44,372.51l1.77-1.44.73,7.35c2.29.6.7-5.14,3.5-10l4.6-7.98c.77-1.33,1.4-2.6,2.07-4.12l3.4-7.73,2.27-5.36c.82-1.94.95-5.47,1.08-7.56l2.02-2.24c1.62-1.79-4.46-5.6.82-10.07.26-1.28-.35-3.36-1.05-4.43-1.14.63-2.73,1.84-3.31,2.57,1.14,2.03,1.5,3.61.86,5.32l-.61,1.62s-4.13-.8-5.61,7.79l-.66,3.82-2.72,2.87-1.46.15c-.33.03-.03,1.32.3,1.32h1.19s-1.27,4.8-1.27,4.8l-2.11,2.6c.6,1.64-.05,2.89-.61,4.6-2.54,7.7-1.68,4.6-1.85,12.3-1.14.35-2.7.74-2.84,1.42l-.49,2.39ZM177.93,384.96c.38-.55,1.66-2.36,1.75-3.36.26-3.03,3.28-5.64,4.47-8.15,1.17-2.45,1.49-4.91,3.33-6.85l2.74-7.56c1.16-3.19,1.77-6.03,4.4-8.67,1.21-1.21,1.28-4.41,2-6.08l3.96-9.18c.16-.38,1.11-1.34.78-1.57l-1.32-.93-1.16-.81c-.23-.16-.79.6-.78.87l.05,1.31c-2.88,1.72-5.83,3.91-7.43,6.38l-6.23,9.58-3.62,5.66c-1.78,2.78-3.73,5.04-4.18,8.53l-1.02,7.8c-.18,1.34.48,3.44.65,4.79.38,3-1.84,6.26,1.6,8.25ZM914.77,378.4l-2.73-6.28c-1.6,1.48-1.21-1.82-.7-3.01-.41-2.3-1.88-5.02-2.51-7.37s-.31-5.83-4.13-5.84c.65-.47,2.09-.98,1.86-1.3l-1.24-1.8c.21-1.26-.08-1.04-.71.13l-1.73-6.4c-.46-1.71-1.09-2.94-3.04-3.23l1.18,6.82c.18,1.06,1.24,3.34,1.79,4.29,3.42,5.91,1.17,5.37,3.73,12.71,5.25,8.38,1.41,4.53,5.32,12.47,1.22,2.47.2,6.18,4.15,7.55l-.7-6.85-1.52.12c-.26.02-.04-.92.15-1.11l.83-.88ZM936.1,427.18l2.26-.59c.3-.08.61-.94.68-1.22-1.23-.57-2.01-2.37-2.2-3.68l3.26,1.57-.03-9.71-.8-7.16c.49-2.17,1.56-4.67.74-7.25-.13-1.1.72-3.67.6-4.84l-1.13-10.79-1.31-2.95c0-2.1-.63-3.94-1.49-5.38l.88-2.94c.2-.65-2.95-1.14-1.94-7.31-1.42.6-1.78.4-.86-.8.15-1.22.16-2.26-.91-1.08l-.4,5.12c.59.11,1.63.01,1.47.34l-.89,1.79c-1.59,3.21.66,6.93,1.38,9.86.58,2.38-2.14,5.74.09,8.53,1.67,2.09.66,4.47.4,6.9l-.56,5.16v4.83c0,3.92.31,7.7.82,11.41-2.93,6.81.26,4.55-1.22,12.71l3.3.55-2.54.37c-.7,1.48-.75,4.33,1.25,5.56,1.46-1.12,1.8-7.6,1.27-8.19-.37-.41-1.15-.41-2.11-.81ZM161.31,413.37v-1.46c0-.31,1.33-.85,1.47-1.15.58-1.26,1.07-10.36-.04-10.53.21-.4.68-1.6.69-2.24.01-.53-.93-1.49-1.52-1.85l.08,2.85c-.71-.63-2.59.21-2.53,1.32.03.6.3,1.11.63,1.93l-.85,8.73c-.04.43.03,1.58.08,2,.04.32.91.28,1.98.39ZM144.87,433.63c.05.44-.91,1.8-.52,1.96,4.16,1.64,3.47-8.18,3.37-11.2-1.59.27-2.95,1.29-3.3,2.67-.23.9,0,2.4.13,3.57l.33,3.01ZM145.38,460.76l1.39.5c.16.06.43-.08.3-.18l-.98-.8c2.27-2.88,1.8-6.42,1.85-9.91.02-1.66.58-3.73.16-5.59-.56-2.44-.55-3.99-.6-6.87-.83.29-1.99,1.42-2.52,2.36l-1.43-1.28.28,5.09c.52,9.49.27.5,2.7,10.68l-1.76-.33c-2.72-.51,2.03,2.77.62,6.33ZM152.44,678.77c.54.77,2.43,2,3.07,2.64.25.09,1.16-.02,1.3.22l.77,1.35c2.8-4.09-.87-5.6-.62-9.68.41-6.54-1.56-3.56-3.62-8.47-1.2-2.87-.85-5.66-1.42-4.8l-.78,1.18-1.61-8.3-.96,2.69c.45-11.78-1.15-5.83-2.41-10.7l-4.38-17.02c-.46-1.78-2.74-3.64-3.51-5.18-2.78-5.56.51-7.14-2.92-9.44h1.68c-2.57-2.26-3.77-9.49-.19-9.79,3.07-.26,2.63.94,3.19,3.07.51,1.9,2.45,4.02,1.27,6.2l3.76.15c.69-1.52,1.31-4.75.57-6.4-2.87-6.49-.58-4.16-3.23-7.62,3.61-5.95-.03-9.37,2.73-13.36l-3.64-.18c.16-.18,1.54-.89,1.25-1.18l-1.33-1.35c-1.08-1.1.25-4-.12-5.29l-3.92-13.64-1.59-5.97c-.93-3.48-.52-7.87-.89-11.69-1.39-14.48,1.51-6.79.59-16.24-.21-2.17-.38-4.29-.46-6.3l-.2-5.05c-.08-2.13-.51-4.89-.31-6.75l.53-4.97c.32-2.96.58-5.67-.94-8.06l1.69.09-1.28-11.46c-.53-4.72-.25-8.76-.35-13.43l-.2-9.21c-.03-1.23.43-2.98.34-3.85-.07-.61-.86-1.92-.49-2.3l1.61-1.62-4.03-.93-.17,2.02c-.03.38-1.79.84-1.59,1.16l.94,1.51c.14.23-1.02.94-1.04,1.21l-.41,6.17-2.47.07c.48.51,1.59,2.11,1.52,2.94s-1,2.33-1.8,2.54c-.64.17-1.91.54-2.48.75-.33.12-.24,5.51,2.96,6.12l.53,11.21c.06,1.34-1.43,2.87-2.9,2.62l-1.57-7.3c-.17-.8-1.6-2.18-2.24-2.07-.18,6.49-4.28,4.16-2.72,8.8.12.35-1.66,1.17-1.32,1.32,2.65,1.18.63,7.02-2.46,8.4l1.67,2.24c.3.4-1.07,1.2-1.42,1.23l-.47-1.14c-.07-.18-.49-.25-.51-.04l-.14,1.44c-.32,3.22.51,5.6,1.6,8.52l.11,6.06c-.32.85-1.03,2.51-1.19,3.5l-.85,5.16c-.39.56-2.02,2.07-.55,2.37-.08,13.11-1.9,4.52-.27,17,.28,2.11-2.17,5.52-.49,8.05l-1.37,3.69c.41,2.35,1.08,5.35.22,7.18-1.19,2.51-.17,3.42.02,5.73l1.19,14.76c.31,3.78,2.02,7.06,2.04,11.05.01,3.27,3.27,6.05,4.38,8.98.94,2.49.94,5.63,2.43,7.71,1.14,1.59,1.2,2.64,1.57,4.54,1.63,8.34,2.71,6.77,4.14,14.03l2.81,1.98c.6.43-.16,2.07-.24,2.5l1.99,3.77c.87,1.66,1.57,3.27,2.05,4.72,1.95,1.38,1.31,5.01,3.17,7.31l2.56,3.2,2.94,3.66c1.29,1.61,2.96,3.08,4.49,4.28l-.14,3.4c.68-.12,2.06-.56,2.23-.08l.71,1.9c.67,1.8,2.47,4.91,3.56,6.48ZM200.16,708.2l1.24,1.57c.28.36-.6,1.79-.4,2.2.56,1.11,2.99,2.83,3.74,2.96l1.74-2.86-2.87-2.1c.05-2.78-.45-6.95-1.39-9.16-.19-.45-1.73-.97-1.67-1.4l.3-2.01c.03-.22-.18-1.26-.39-1.17-.24.1-.44.16-.57.36l-.81,1.26-.66-3.5c-.53-2.79-7.75-22.05-9.11-24.64-.66-1.26-1.13-2.21-1.54-3.53-.73-2.33-3.1-4.57-.97-7.44l-3.65-4c.26-.45.94-1.14.67-1.35l-1.66-1.29c-.1,0,.67-.18.88-.13l1.17.29c-3.01-3.24-1.13-5.97-3.52-7.15-.07-2.32-.72-4.81-1.71-7.43-4.16-11.01-1.95-7.22-3.23-14.76-.47-2.8-.51-6.12-1.76-8.4-1.85-3.38-2.25-6.39-2.62-10.27s-3.45-8-2.24-11.51.16-5.64-.85-8.77c-3.39-10.52.36-10.96-4.19-18.48l-3.32-.41-1.21,3.65,1.09,2.19-.57,7.31c4.91,2.31,1.4,5.11,2.13,10.16-1.06,1.1-1.32,2.4-.98,4.03l1.31,6.28c.07.35.16,1.48-.13,1.48l-1.43.04c-.15.63-.44,2.75.2,3.16l2.3,1.46,1.91,1.18c.4.25-.25,1.44-.31,1.94.31,7.51,4.37,9.89,1.47,14.22l3.23,5.91,1.24,2.28c-2.98,4.92.28,4.74.99,8.36.55,2.78.53,6.13,1.73,8.47,3.52,6.84,3.37,10.32,4.69,12.65,1.48,2.62,1.7,3.54,1.68,6.55-.03,3.22,3.18,6.66,4.57,9.58l2.14,4.49c.48,1,.97,3.05,1.44,4.45l.88,2.67c.16.48,1.65.47,2.34.63-.4.53-1.35,1.46-1.14,1.98l.77,1.9c1.26,3.11,2.62,5.81,4.86,8.36.42.47,1.1,1.14.89,1.51l-.7,1.22,3.94,4.98ZM921.09,575.25c1.84-.1,2.48-.29,2.74-.07l1.28,1.1c.81-2.17,1.7-5.2.06-7.07l-.45,3.95c-1.54.81-2.97,1.62-3.63,2.09ZM294.24,875.92c-1.56-.04-2.06-.7-3.18-1.66l-3.42-2.93c-1.07-.91-3.37-2.35-4.75-3.08l-4.89-2.6c-1.03-.55-2.79-1.07-3.88-1.83l-4.43-3.07c-2.83-.35-4.67-.97-6.86-2.57l-3.89-2.84c-.34-.25-1.51-.73-1.84-.94s-.06-1.22-.12-1.29l-4.16-1.9c-.69-.31-2.48,0-3.2-.24s-1.45-2.09-2.11-2.5c-1.54-.96-3.88-2.43-4.95-3.44-.22-.21-.08-1.55-.39-1.51-3.42.46-3.35-3.37-4.77-4.95-3.48-1.87-12.72-8.27-12.26-12.68l-3.19-2.45c-3.98-3.06-6-5.56-8.52-9.92-1.11-1.91-4.06-4.87-5.35-6.58-.3-.39.08-2.32-.4-2.25-2.65.4-.75-1.12-3.23-5.48l-4.11-7.22c-.77-1.36-.42-3.24-2.51-4.08-3.83-1.54-.68-6.78-5.99-11.78l-1.25-5.03c-1.77-7.12-5.17-5.96-5.1-8.35.02-.54.89-1.67,1.02-2.23.63-2.76-2.29-5.08-2.89-7.32-1.13-4.2-1.6-6.7-4.19-11.15-.52-.89-.39-3.26-.77-4.23-1.64-4.19-3.41-8.55-5.61-12.43-.78-1.38-2.52-2.81-3.05-4.42-.56-.37-1.82-1.21-1.5-1-.36-7.84-3.72-5.18-4.86-10.87l-3.46-1.26,2.54-.52-3.81-2.81c-.6-.44-2.12-1.08-2.44-1.78l-2.37-5.25c-3.35-2.5-8.93-9.79-10.16-13.58-.88-2.71-2.71-4.23-5.17-5.64-3.46-8.73-3.93-5.15-6.56-10.11l-4.74-8.92c-1.24,2.41-1.4,4.86-.41,6.57.85,1.47.79,2.18,1.18,4.07.06.27,3.23,8.56,4.09,11.24.57,1.74,2.22,3.39,1.54,5.23l1.64,4.26c.16,1.6.53,2.23,1.15,3.58l3.53,7.61c1.14,2.47,2.77,3.95,1.4,6.84l1.45.56c.48,1.92,2.79,3.82,3.45,5.42l3.91,9.42c.42,1.01.75,3.42.97,4.62,3.41,2.35,5.58,7.39,7.15,11.23l2.39,5.86,3.62,2.18-2.69,1.25c2.06.49,1.97,2.44,2.67,4.34l1.97,5.37c.46.54,1.41,1.62,1.7,2.25l4.46,9.77,4.65,6.8c.75,1.1.85,1.67,1.75,2.68,1.02,1.13,2.05,2.35,2.91,3.5l3.79,5.04c1.65,2.19,1.97,6.8,4.4,8.62,3.78,2.84,5.49,6.12,7.7,10.07,1.21,2.16,3.25,4.86,4.81,6.93,1.9,2.53,6.38,2.93,7.26,6.41,1.26,4.96,2.66.88,4.35,6.23,2.74,1.53,8.64,6.68,9.86,9.45l2.54.37c.51.07.67,1.51,1,1.91l4.34,4.38,2.99,2.75c.36-.36.92-1.17,1.1-.93s.85,1.1,1.07,1.3l4.9,4.43c2.2,1.99,6.02,2.65,7.35,6.17l3.51.82c3.58,5.04,1.66.48,10.64,6.39.72.47,2.85.65,3.2-.07l1.32-2.7c.13-.26,1.11-.24,1.02.04l-.46,1.44c-1.49,4.68.88,1.29,7.12,6.07,7.95,6.08,5.42,2.07,12.41,8.2l2.57.33c.62.08,1.15,1.7,1.52,2.43,1.15,2.23,4.73,2.48,6.47-.05l-4.48-4.02ZM869.43,722.75c4.54,1.22,6.4-4.64,7.05-6.92l1.68.1c.47.03.46-1.64.5-2.26.37-5.66,1.34-.82,3.45-9.54,4.6.53-1.36-5.52,3.63-7.53l.6-5.77c2.38-3.4,3.74-6.78,4.34-10.74l.32-2.14c.06-.37-.96-.62-1.71-1.01.79-.62,1.64-1.07,3.13-.33l.48-4.73.7-6.37c.07-.66.69-1.96.4-2.46s-1.84-.39-2.23.14l-2.13,2.95c.55,1.28,1.25,4.18.42,5.2-1.71,2.09-2.19,4.18-3.28,6.57l-2.26,5c-1.05,2.32-1.78,4.02-1.12,6.26l-1.37-.46c-.22-.07-.04.76-.03,1.35.11,5.06-.58-2.3-.61,5.1,0,.43-1.4.82-1.45,1.25-1.06,9.39-2.34,6.37-5.5,15.08.19-.06-1.34,0-1.44.35l-1.77,5.78-1.8,5.12ZM765.09,880.18c-.98-.72-1.85-1.34-2.4-1.59s-1.06,2.08-1.6,2.42c-8.36,5.04-3.21,7.16-12.24,8.46l-2.69,4.62c7.1.95,5.35-2.95,11.47-3.29l.87-1.77c.16-.33,1.69-.22,2.07-.47,2.25-1.49,5.89-3.44,8.58-4.82l5.67-2.91c5.79-7.96,2.46,1.4,13.63-10.9,3.94-4.34,12.09-7.81,21.16-18.67,1.66-1.98,4.4-4,5.31-6.96.3-.97,2.4-2.2,2.98-3.01l3.64-5.1c3.03-4.24,5.22-6.39,7.43-9.95,1.03-1.66,1.87-3.2,3.17-4.6l7.11-7.62,1.32-3.79c.18-.51.34-1.67.47-2.17s1.18-.88,1.99-1.23c1.63-.71,1.88-2.02,2.63-3.8,1.98-4.71,4.14-8.52,7.01-12.27l3.5-4.57c-.51-2.77.18-5.16,2.33-7.11,1.67-1.52,2.19-3.49,3.2-5.42l3.06-5.85,8.5-13c1.66-2.55,3.19-5.2,5.02-7.77,1.66-2.32,4.05-4.54,5.2-7.2.63-1.46.68-4.19,1.53-5.12,1.73-1.9,2.15-2.96,2.74-5.41.43-1.75,2.93-4.29,3.26-6.2.41-2.4,1.15-3.51,2.05-5.36,5.81-12,3.46-3.13,8.14-16.96.53-1.58.93-3.55,1.32-5.02.82.64,1.23.95.97.68l1.35-7.07.3-1.58c.05-.28,1.19.21,1.29-.06l1.79-4.93c.84-2.32.78-4.7-.73-7.02l-1.42,3.14c-1.3-1.04-1.27-.74-.49.65-4.56,7.31-1.94,4.69-5.36,11.34-1.63,3.16-1.54,7.64-3.21,10.39-1.15,1.9-2.06,2.97-2.29,4.97l-.66,5.83c-.63-.08-.75-.05-.83-.2l-.82-1.48-1.93,5.4c-.17.47-.55,1.39-.94,1.35l-1.53-.19,1.01,1.54c.14.21-3.46,6.75-5.58,8.24l-1.04,3.26c-1.23,1.62-2.27,3.32-2.3,5.25l-1.11.18c-.36.06-.67,1.25-.91,1.55l-4.58,5.8c-3.28.76-4.44,2.09-5.63,4.76l-2.98,6.69c-1.08.63-2.17,1.7-3.18,2.78l-2.94,3.14c-3.37,6.78-7.49,4.69-8.49,13.63l-.82-1.35c-.36,1.09-.96,2.64-1.74,2.88-2.26.7-3.2,3.03-4.44,4.99l-2.74,4.33c-1.17,1.84-2.25,3.8-2.68,5.71l-4.39,1.57,2.1.9c-2.76.31-2.3,1.44-3.34,2.96l-5.97,8.69c-1.64,2.39-2.79,5.47-6.22,5.76l-.55,3.27-5.04,4.53c-.34,2.53-1.09,2.94-2.98,4.31-1.81,1.32-3.97,3.88-5.29,5.61-.19,1.27-.62,2.53-1.39,3.09l-4,2.88c-.91,7.14-3.48,5.93-10.4,14.82-4.02,5.16.3,7.2-10.77,12.42-.98,1.83-2.37,4.33-4.87,5-2.17.58-2.2,3.66-3.2,4.71-2.66,2.78-5.45,5.67-6.46,9.3ZM212.91,726.53l-6.06-8.32c-1.8,2.97-.61,4.4,1.03,6.12,1.29,1.36,2.23,4.7,5.02,2.2ZM825.07,781.66l1.82-3.33c1.48-2.7,2.68-5.41,5.03-7.56,2.07-1.9,3.41-4.19,3.4-6.76,2.38-.64,3.99-2.24,4.54-4.36l-2.49.22c3.83-3.67,1.32-1.41,4.65-8.91.58-1.32.33-4.42.82-5.87l3.53-10.35,2.37-6.96-1.99,1c-2.7.63-3.8,2.28-4.79,4.69l-2.07,4.98c-.74,1.77-2.8,4.14-3.87,5.85.84,3.66-1.73,5.96-3.15,8.5l-2.4,5.77-3.85,8.98-3.08,6.79c-.8,1.77-.6,4.15-2.73,5.42-.87.52-1.42,2.94-.54,3.17,1.66.44,3.43-.57,3.66-2.31l1.13,1.03ZM252.26,831.8c-1.61-2.65-4.03-4.16-6.35-5.37l1.02-1.79c.12-.2-.5-.43-.74-.42l-1.37.06c.08-.88.47-2.39-.13-2.7l-2.42-1.24.93-1.07c-2.02-1.79-2.85-3.4-4.17-5.52l-3.84-6.19c-.33-.53-1.26-1.72-.99-2.19l1.16-2.02c-1.89-1.03-2.83-2.79-3.07-4.2-4.63-1.75-3.79-4.28-6.84-5.66.68-3.25-2.31-4.83-4.49-6.09l-5.47-8.6-2.77-4.22c-1.95-2.97.14-5.72-5.45-8.79-2.23-1.22-3.83-8.89-4.85-7.37l.83-1.24-3.11-2-3.99-7.56c-1.13.65.41,1.75.65,2.11l-1.87,2.62c-.39.55.3,2.05.79,2.59l2.14,2.4c.41,1.82.96,3.98,1.69,5.88l2.29,6.03c.57,7.84,2.68,7.02,7.01,14.06l.06,2.38c2.32.9,1.64,4.02,2.47,5.36,1.91,3.09,4.96,5.85,6.73,9.08,1.3,2.38,2.41,4.16,5.49,4.17.77,1.48,1.38,4.38,2.23,5.73l3.9,6.22c2.43-.85,3.11,1.14,4.18,2.62.51.4,2.27.53,2.39,1.14l.48,2.38c1.42,1,3.39,2.8,4.38,3.99l3.4,1.9c.39.22,1.84.4,1.78.86l-.26,2.13,3.92-.47c.68.98,1.65,1.97,2.27.97ZM232.27,761.85l-4-6.04c-.67.04-1.98.22-1.98-.16l-.03-1.47c0-.48-.2-1.74-.67-1.69s-1.59.16-1.3.13c2.48,1.99-.82,5.31,1.6,7.33,1.48,1.24,2.18,2.48,3.06,4.32l1.17-1.94c.18-.3,1.09-.23,2.15-.49ZM237.89,772.02c-1.32-2.08-2.06-3.49-2.97-4.43l-2.48-2.58-.8,2.15c.27-.73,2.26,6.8,6.25,4.86ZM242.41,776.42l-3.72-4.04-.71,4.53,4.43-.49ZM286.81,840.58l-2.5-4.97-1.84,2.5c-.45.61,1.03,1.72,1.9,1.92l2.44.56ZM484.68,921.11c-.44.55-1.28,1.82-1.42,1.51l-.79-1.77c-1.34-.92-4.61-1.83-6.28-1.59l2.95,1.75c-1.28-.01-3.36.25-4.31.07l-4.59-.87-.51-1.43c-.12-.35-1.42-.5-1.39-.38.39.92.8,1.61.52,1.58-.32-.04-1.35.1-1.29-.17.03-.18-.03-.7-.09-1.19l-6.13.98c-2.37-3.79-4,.16-6.29-2.83-2.97.27-5.92-1.05-8.72-2.72-3.37-2.02-8.23-2.38-12.09-2.97l.95-1.35c-7.62-2.37.56,1.13-10.08-2.07l-5.09-1.53-4.07-1.17-3.43-1.5c0-.48.3-1.32-.14-1.41l-2.53-.55c-.88.54-.6.34.47-.38-2.17-.78-2.93-1.11-4.44-2.18l-4.13-.19c-2.89-2.62-3.09,0-7.06-.85-.84-.18-1.68-2.68-2.6-2.93l-9.33-2.54c-1.66-.45-3.79-.37-5.43-1.23l-4.17-2.19c-8.11-4.27-5.05.66-9.05-4.32-.98-1.21-4.49-.06-6.01-.16-.66-.04-2.27-1.13-2.71-.63l-1.91,2.12-1.45-3.63-3.91-2.12c-1.03-.56-3.25-1.83-4.32-2.2-2.63-.34-4.48-1.64-6.31-3.23-2.39-2.08-5.86-3.69-8.64-5.18-1.94-1.04-5.03-1.29-6.61-2.55l-4.01-3.2c-2.01-1.6-3.49-2.6-5.77-3.88-12.74-7.14-4.67-2.69-11.09-8.42l-4.74-4.23c-.58-.52-1.18-1.54-1.76-1.65-.46-.09-1.58.24-1.82.36l.35,4.45c5.16,4.89,10.81,8.98,15.49,14.04,2.37,2.56,5.64,4.42,8.34,6.72,4.89,4.16,1.16-.04,7.06,4.43,1.02.77,2.22,1.94,3.36,2.62l6.5,3.94c1.46.89,3.03,1.72,4.49,2.72l5.5,3.77c1.33.91,2.6,1.57,4.07,2.35l6.52,3.47c1.32.7,4.1,1.27,5.12,2.1l4.96,4.03c1.38,1.12,3.37,1.68,4.87,2.44l7.9,4c7.4,3.75,9.54,2.66,13.14,3.94s6.11,2.79,9.96,3.18c1.59.16,5.39.43,6.05,1.81,1.03,2.16,3.28,1.58,4.6,2.37,4.06,2.45,7.53,4.03,11.9,4.88l8.5,1.64c1.42.27,3.88-.54,5.25.72,1.93,1.79,12.85,4.02,15.59,1.36,1.4,1.49,2.69,2.53,5.34,3.1l-1.88-1.94c1.25-.19,3.3-.37,4.76-.22l5.22.55c.93.1,2.22.71,2.74,1.15.61-2.45,7.23-.99,8.98-1.38,2.11-.47,4.18-.92,6.13-1.25l4.3-.72c.96-.16,2.92-1.06,3.55-.49l2.37,2.13c.52.47,2.15-.42,2.85-.71l3.4-.6c-.47-.79-.73-1.5-1.03-1.52l-1.3-.09-1.13-.08c-1.35-.09,1.38-.74.84-1.42-2.47-3.12-9.72,3.42-10.27-1.99l-2.78-.46ZM676.18,904.29l4.91-2.57-2.36-1.09,2.94-.15c1.34-1.09,2.84-1.94,4.99-2.98-1.41-.17-7.3.91-8.3,2.87-.38.74-1.94,2-2.61,1.72l-1.8-.77-3.42,1.19.93,2.86c1.63-.24,3.64-.51,4.73-1.08ZM660.91,911.31c.64-1.12.79-1.65,1.08-1.61l1.78.26c1.65.24,5.78-3.46,5.3-3.95l-.91-.94c-.75-.77-1.92,2.2-5.1,1.96l.2-2.12-4.58,1.93,1.74,1c-2.41.55-4.34.97-5.44,2.16l-1.04,1.13c-.12.13-.16-.49-.13-.67l.19-1.05c-1.04.39-1.96,2.25-1.13,3.12,2.49-.19,5.68-.73,8.04-1.21ZM456.44,939.51l7.08,4.32c.66-.96,1.1-1.87,1.42-1.65,5.03,3.39,6.15,2.58,13.19,2.89l-.02,1.91c8.66-.11,4.02-1.77,9.66-2.03,14.3-.64,10.73-1.95,23.33-4.17.83-1.23.93-.55.61,1.01l3.23-.56c1.91.04,3.84-.13,5.68-.72l5.12-1.65c1.72-.56,4.82-.23,6.34-1.23.98-.64,2.19-1.66,2.87-1.38l2.41.99c.92-.97,7.78-1.74,7.49-2.05l1.38,1.51c1.15-.17,3.56-2,3.31-3.4-.64-3.64-8.72-2.66-11.55-2.47-5.36.36-8.54-1.21-8.54-.27v1.56c-.58-.04-2.13-.52-2.37-.03l-.85,1.78-3.98-.49-3.8-.4c-1.87-.2-3.72-.78-5.8-1.45l.58,2.65c-.44.06-1.84-.72-2.61-1.36-1.55,1.55-4.4,1.71-7.18,1.11l2.78,2.23c-3.94-.73-7.23-2.74-9.79-1.95-5.59,4.95-5.08-.81-14.18,1.48-1.33.34-3.64.84-4.77.76l-3.8-.28c-1.36-.1-3.61-1.39-4.64-.84.43.28,1.55.77,1.62.62.16-.31.03-.07-.33.64-4.62-1.7-6.1.18-13.65-1.53l.27,1.54c.05.28-.57.83-.71.96l-.82-2.42c-.18-.52-2.04-.07-2.68.11-.94.27-.64,3.29.31,3.57.82.24,2.46.53,3.38.69ZM563.35,957.99c1.93.29,2.98-.04,3.6-1.47,3.15,2.47,1.67-.9,8.27,2.03,2.56-.93,6.23-2.43,8.65-2.7.33.48.9,1.95,1.16,1.66l1.34-1.46c1.52.96,4.15,1.25,5.68.18-2.49-1.17-3.59.78-5.05-1.61l6.66-.2c.07-.56.03-1.26.35-1.25l1.47.05c.95.03,1.95-.11,2.71-1.12l-9.03.54c-1.13-.87-2.68-1.39-3.74-1.26l2.27,1.49c.35.23-.76,1.27-1.05,1.77-4.52-1.47-7.57-2.17-13.07-1.29l2.2-1.84c-.66-.15-2.35-.29-2.61.28l-1.37,2.94c-1.45-.13-3.78-1.14-5.42-2.16-.35,1.07-.71,1.64-1.04.19l-4.86-1.05c-.46.32-1.3,1.06-1.61.86l-1.55-1.05c-1.4-.95-4.09.77-4.62,2.12l-1.26-1.13c-.16-.14-.77.52-.97.6l-3.26,1.3-3.04-1.68,2.54-.54c-2.01-1-3.72-.03-5.61.85l-4.19,1.95c-1.29.6-10.93-1.38-11.23.43l-.19,1.16c-1.23.45-2.72,1.76-3.06,2.65,2.96.03,4.32.07,6.18.46l1.4-.73c.29-.15.95.46,1.28.63l4.11-.64c.37-.06,1.08-.98,1.27-1.29.13-.21-.56-.35-1.49-.76,3.56-.12,2.1,3.18,7.01,2.42l2.81.7c.55.14,1.34-1.05,1.97-1.4,1.65-.92,4.05-.24,5.32,1.13l3.27-.57-3.38-.71c1.18-1.56,2.82-.21,4.17-.28,2.21-.1,4.64-.53,6.99-.18Z"/>
  <path class="cls-1" d="M135.75,592.14c.08.93-1.1,3.4-.5,4.08s1.82,1.48,3.01,2.22c.11-.12-.52.94-.83.83l-1.78-.66-1.67,1.88c-3.88-.18-2.12-3.92-2.8-6.04s-1.33-4.35-1.71-6.34l-1.2-6.28c-.37-1.91-.32-3.32-2.56-3.64l2.03-3.28c-2.67-11.31-3.94-11.77-3.94-23.64v-6.55c0-1.73-1.3-4.51-1.21-5.97.1-1.57.29-3.19.25-5.14l-.34-14.51c0-.35,1.58-1.42,1.41-1.67l-.96-1.49c-4.35-6.79,3.49.51-1.45-7.21l4.85,1.74c2.01,10.72,3.02,4.98.21,15.93l-3.28-.14c1.34.38,2.29.57,3.07.7.72.12,1.67,1.53,1.66,2.35l-.08,6.22-.02,5.15c0,.92-.2,2.29-.27,3.72-.8.74-1.74,1.35.49.91,2.25,2.83,2.02,15.39,1.37,19.38l2.6,6.64c.1.25.1,1.56.06,1.83-.05.36-.84.24-1.23.29l1.12,5.02c.33,1.48.39,2.15.48,4.47-.27.09,1.35-.45,2.38-.8l.84,10.01Z"/>
  <path class="cls-1" d="M126.23,505.08l-3.91-1.42.58-4.6c.32-.45,2.87-.15,3.32.52v5.5Z"/>
</svg>