<?xml version="1.0" encoding="UTF-8"?>
<svg id="Camada_1" data-name="Camada 1" xmlns="http://www.w3.org/2000/svg" viewBox="0 0 1024 1024">
  <defs>
    <style>
      .cls-1 {
        fill: #1e1e1e;
      }
    </style>
  </defs>
  <path class="cls-1" d="M581.29,822.01l-13.73,7.02c-2.38,1.22-5.2,1.18-7.39,2.04-2.62,1.03-6.09,3.54-8.77,4.97-7.8,4.18-2.77-1.86-14.9,6.41-2.15,1.47-4.66,1.8-7.2,2.25s-5.41,1.44-7.96,1.73l-7.21.8c-4.05.45-7.51,2.38-10.53,5.02-1.39.83-5.08.92-6.33,2.06-2.37,2.15-4.68,2.92-7.41,4.34-8.63,4.5-13.51,9.55-21.16,10.66-3.54.52-6.47,3.78-15.76,6.11l-5.67,1.42c-8.04,2.02-11.22,3.84-18.24,8.22l-4.78,2.98c-2.45,1.53-7.19-.17-9.58,1.88-1.85,1.59-3.22,1.61-5.72,2.25-25.73,6.59-27.62,12-44.92,30.31-3.01-.22-5.28,2.45-7.68,3.68l-8.06.81-1.15,1.82c-.22.34-1.51.11-1.86-.1-2.12-1.25-3.85,1.02-5.56,1.22-14.86,1.76-14.06-.67-28.27,3.94-3.76,1.22-8.44,1.61-11.4,4.16-2.63,2.26-4.81,3.78-8.31,4.08l-4.62,2.95-8.49,1.38c-2.2.36-5.84-1.11-8.18-.98-3.81.2-5.75-.93-8.62-3.05-3.14-2.33-18.39-2.16-23.75.05-1.24.51-2.66,1.51-3.85,1.56l-6.23.25c-1.63,1.11-4.08,2.58-5.82,1.81-3.34-1.48-5.27,1.72-7.35,1.72h-11.91c-8.91-3.58-5.92-3.14-12.1-6.34-2.92-1.52-11.09-6.84-11.81-9.77-2.26-9.18,1.12-12.65-.84-18.04-.7-1.92-3.85-3.62-5.32-5.15-2.93-3.04-4.51-7.21-6.46-10.57-2.27-3.91-2.24-6.17-.94-10.29,1.11-3.5.52-7.99,4-10.37-2.81-8.95,3.27-12.36-2.07-18.79.03-1.69.17-4.97.3-6.68.78-10.02-3.01-2.49-1.71-17.09,1.54-1.15,2.37-2.38,1.98-4.49-.5-2.72.8-6.05.6-8.11-.46-4.68-1.75-9.49.28-13.98,1.27-2.82-.2-7,.57-9.55,1.7-5.66.32-9.98-1.01-15.62-1.09-4.64-2.22-14.3-2.2-19.74,0-1.95,1.27-5.46,2.08-7.53l3.51-8.97c1.12-2.87.73-5.78,1.57-8.88.47-1.72-.92-3.46-1.09-4.84l-1.56-12.53-.36-7.65c-.6-12.8-4-9.53-5.42-24.86-.59-6.39-2.7-14.21-2.62-16.31.14-3.43-.72-6.22-1.14-9.5l-.98-7.7c-.29-2.33,0-3.46,2.37-5.16l-2.31-3.01c-.12-3.84-.21-8.95.2-13,.46-4.6.04-8.41-.07-12.88l-.47-19.13c-.07-2.66-.41-5-.41-7.6,0-4.15-.57-8.23-1.36-12.44l-1.22-6.54c-.86-4.58-.57-9.71-1.67-13.97-1.31-5.09-1.23-9.82-1.92-15.01l-1.05-7.88c-.24-1.8-2.56-11.56-3.46-13.43-2.06-4.28-2.83-8.7-2.32-13.5-1.56-1.98-2.3-4.58-2.45-7.41l-.94-17.92c-.23-4.43-1.32-7.68-1.51-12.13l-1.05-24.97c-.07-1.74-1.32-4.03-1.22-5.72l.49-8.28c.05-.86-.4-3.01.01-3.67,1.21-1.93,1.5-5.49.16-7.43,2.72-7.51-1.12-14.29,2.38-24.37.67-1.94.52-3.99.99-6.1l2.2-9.81c1.6-7.13,2.01-9.46,1.71-17.27-.38-10.26,3.13-7.17,2.55-17.04-.19-3.22.35-5.32,2.33-8.21l.33-9.18c4.71-7.17,1.02-2.84,3.81-14.03l1.42-5.68c.49-1.95,1.11-3.51,1.73-5.36,1.21-3.62,1.57-9.29.88-13.21-.62-3.5-1.01-6.22-.8-9.89l.4-6.93.66-11.45c.07-1.14.09-3.82.07-5.03-1.62-3.51-1.41-7.27-.74-11.47.44-2.72-1.01-6.47-1.5-9.35-.96-5.77-3.82-6.67-6.41-22.3l-1.32-7.98c-.3-1.8.03-3.88.07-5.73l.42-19.82,1.49-6.37.24-9.42c.07-2.87.96-5.29,1.7-7.98.89-3.2,1.62-6.13,3.25-9.08l3.14-5.68c1.47-2.65,2.25-4.99,3.54-7.88l4.45-9.96c1.6-3.58.94-7.66,2.15-11.45l1.91-6c.56-1.77,1.2-3.67,1.65-5.38l2.26-8.46c.91-3.4,2.24-5.19,5.23-7.12l4.37-4.45c2.24-.04,3.96-1.65,5.61-2.23,10.41-3.71,12.64-8.56,16.03-19.36,1.2-1.03,3.59-2.66,5.41-3.55,2.57-1.26,5.12,1.14,6.81,2.75l5.53,5.31c2.92,2.8,10.89,2.94,14.06,6.19,6.84,1.07,13.71,5.42,20.54,7.16,9.92,2.54,13.42,5.85,23.44,9.57l5.9.28c4.14,4.58,2.56.92,14.75,4.35l4.57,1.29,6.79,1.63c3.31.8,5.91,2.25,8.71,3.91-.47-.28,11.18,5.44,9.49,4.87,5.05,1.7,9.22,4.09,13.6,6.35,7.52,3.89,15.19,6.65,22.1,11.57l12.46,8.89,8.55,5.61c7.59,4.98,19.97,9.69,23.64,12.73l7.4,6.13c.99.82,2.95,1.96,4.33,2.67,1.87.96,2.78,2.16,4.38,3.65,5.37,4.99,11.67,6.31,19.14,12.9,1.23,1.09,3.81,2.34,5.33,3.53l9.29,7.31,11.93,9.35,5.14,4.14,8.96,7.47c1.46,1.22,3.21,3.57,4.7,5.05l5.43,5.37,8.66,8.35,6.13,6.02c2.89,2.84,5.97,5.38,9.05,7.81l6.17,5.51,4.7,4.42c2.87,2.7,6.03,5.01,9.27,6.96.73,3.13,6.03,4.19,12.36,8.16l7.56,4.74,15.27,9.62c4.54,2.86,7.91,6.06,11.78,9.6l4.85,4.44,9.32,8.26c2.04,1.8,3.37,3.86,5.74,5.07l6.73,3.43c1.43.73,6.06,5.18,10.36,7.93l12.12,7.76,5.47,3.19c4.46,2.61,8.24,6.34,12.68,8.78,2.11,1.16,4.68,2.37,6.44,3.87,3.38,2.88,6.76,4.51,10.54,6.73l6.93,4.07c2.91,1.71,5.45,2.84,8.36,4.83,1.37.94,3.83,1.47,5.65,2.24,2.34.99,5.08,3.6,7.41,4.2,2.47.64,3.9,1.05,5.7,2.31l4.77,3.32,4.54.8c1.58,3.52,21.35,11.73,25.03,12.97l6.63,2.22c1.75.59,5.39,1.67,6.87,2.75,3.39,2.46,7.46,2.23,10.81,3.64,17.79,7.5,11.48,4.18,27.96,15,3.47,2.28,5.47,4.79,8.04,7.84,3.41,4.05,11.46,8.61,19.02,20.74l4.18,6.7c5.53,8.88,16.31,15.25,23.3,22.73,2,2.14,5.3,3.73,7.54,5.77l8.59,7.85,3.07,3.41c3.53,3.92,8.93,7,11.81,11.43,2.4,3.69,4.07,8.22,7.8,10.83,2.9,7.9,5.03,4.57,5.84,14.23.98,11.78,2.12,9.99,3.59,22,.83,6.8-.81,4.92,5.12,11,2.84,2.91,6.7,4.43,10.08,2.62,6.3.9,9.07,5.62,10.67,10.97,1.3,4.33,1.67,7.93-1.19,12-3.23,4.61-.62-2.16-10.24,7.48-1.42,1.43.29,4.37.75,5.93l1.43,4.86,3.45,5.52c2.21,3.53-.11,16.91-8.89,16.41-2.72-.16-5.82-1.33-8.47-2.06-2.27-.63-4.28-1.93-6.22-2.82-6.04-2.74-15.98,13.25-15.88,20.42.09,6.64-3.89,9.93-6.36,15.39l-2.76,6.12c-1.8,3.99-5.16,5.52-8.45,8.27-1.6,1.33-2.61,2.84-4.93,3.76s-4.64,4.04-7.02,5.24c-3.3,1.66-5.75,3.43-8.37,6.04-2.79,2.77-6.06,4.85-9.13,7.2l-5.69,4.36-9.04,7.3-4.82,4.35-12.39,8.96c-2.31,1.67-4.23,3.04-6.67,4.48-1.52.9-3.04,2.48-4.9,3.13-7.5,2.58-12.33,5.19-21.11,5.21-7.28,3.35-6.08-.68-10.38,3.34-11.2,5.2-5.74-.91-14.2,7.05-2.36,2.22-6.42,3.73-8.35,6.36-3.06,4.18-6.79,5.53-11.13,7.62-9.47,4.56-9.99,8.93-13.71,9.51-6.68,1.03-6.25,2.88-14.39,6.95-2.9,1.45-5.64,2.75-8.45,4.64-4.12,2.77-10.2,3.5-17.44,6.67-14.42,6.32-16.38,3.71-28.6,17.43-2.22,1.3-5.32,3.41-7.39,4.33-2.91,1.29-5.15,1.5-7.56,3.58-1.44,1.24-11.72,7.45-12.82,7.89-6.63,2.67-12.55,5.06-18.64,8.34l-5.61,3.03-8.17,1.79ZM486.4,233.06c3.82-10.5-5.26-9.5-9.69-16.48-1.44-2.26-2.31-3.18-4.34-4.53-13.28-8.87-13.7-11.15-24.66-18.76l-7.4-5.14-8.23-5.43c-3.02-1.99-5.66-4.05-8.55-6.22-2.42-1.81-6.24-3.32-8.19-5.36-2.06-2.16-2.88-3.34-6.12-3.33-8.2-7.34-2.59-4.12-12.99-8.19-2.17-.85-4.31-1.65-6.12-3.13-5.62-4.63-9.49-5.97-15.04-9.91-4.55-3.23-8.62-6.02-13.61-8.56-3.12-1.59-6.08-4.48-9.09-6.37-.72-.45-2.82-1-3.45-1.64-1.96-2-4.94-3-7.87-3.81-1.18-.32-3.1-1.54-4.22-1.7s-3.85,1.26-3.92,2.43l2.03,9.09c3.68,1.85,5.58,4.9,8.35,7.49l11.3,10.62,3.67,3.48,6.08,6.08,6.5,6.34c1.45,1.42,2.95,2.71,4.58,3.89,11.24,8.17,14.94,7.4,25.66,13.01,1.85.97,3.31,1.25,5.45,1.75,2.8.66,5.5,4.53,8.71,4.36,6.4-.34,10.11,3.73,17.55,7.33,2.83,1.37,5.82,2.05,8.34,3.88s5.1,3.35,8.08,4.88c1.56.8,2.8,2.48,4.08,3.52,3.98,3.22,8.53,5.77,13,8.43,2.83,1.68,5.23,3.59,7.81,5.46,8.24,6.01,4.09,5.06,12.33,6.52ZM211.55,128.45c-.08-1.51-1.58-3.15-2.69-3.06-.82.07-2.29,1.34-2.51,2.18-.53,2.06.8,4.73,2.78,4.97,1.62.2,2.54-1.93,2.42-4.09ZM189.72,329.73l.44-6.62c.51-7.63,1.51-11.51,1.25-17.21-.2-4.49-.17-9.49.23-13.72s1.14-8.53-.1-12.61c-.5-1.64.02-2.5.28-4.25,1.06-7.21-.48-12.85,1.3-23.14.63-3.65,1.91-6.52.34-10.14-2.64-6.07,2.02-6.3.2-17.22-1.09-6.57,1.22-7.59.2-18.11-.23-2.38-1.67-4.89-.34-7.23,1.58-2.77-.22-5.26-.26-7.79l-.16-8.79.95-16.88c.24-4.25-.85-7.93.08-12.18.84-3.83,1.06-7.83.54-11.5l-5.56-4.16c-6.69,2.28-10.33,25.13-10.8,31.25l-.67,8.66c-.12,1.56-.9,4.65-.14,5.99,1.41,2.52,1.97,5.83-.98,7.99l.55,5.13c-1.44,4.06-1.55,7.89-1.03,11.94-1.02,10.66.34,20.88,1.36,31.41.18,1.87.79,3.53,1.23,5.37l1.82,7.56c.39,1.61,0,4.99.84,6.23,1.79,2.66-.2,4.44-.42,6.72-.76,7.67-.09,15.43-.35,23.19-.23,7.15,1.21,5.27-1.51,8.27.19,4.65.03,10.34.53,15.17.36,3.47,1.08,6.51.65,10.1-.15,1.24,1.62,3.27,2.12,4.67,2.83,7.82-5.64,17.32,1.59,26.16.62.76,2.59,1.59,3.46,1.54,5.86-.34,2.07-21.55,2.36-25.82ZM619.35,685.43c1.93-2.14,5.66-3.56,8.34-5.04l6.42-3.55c1.75-.97,3.58-1.68,5.3-2.52,3.5-1.71,6.77-4.58,10.11-6.76l4.75-3.1,11.9-7.21,4.55-2.67c1.46-.85,3.97-2.9,5.48-3.44l10.46-3.78c2.22-.8,4.34-1.28,6.22-2.41l7.28-4.37c4.13-2.48,8.01-4.67,12.59-6.09l4.82-1.5,3.29-1.35,12.07-3.66c2.41-.73,12.31-4.27,14.13-5.26l7.31-3.98,19.16-14.07,4.46-2.85,10.07-6.34,13.47-11.39c2.33-1.97,4.93-3.75,7.44-5.28l7.52-4.59c5.24-3.2,12.33-4.35,17.96-7.68l2.69-4.8c-.71-2.15-3.19-3.55-5.27-4.66l-5.64-3c-1.69-.9-2.78-4.11-4.08-5.42-3.91-3.9-7.9-8.93-10.39-11.07l-14.37-12.36c-2.98-2.56-11.96-17.07-18.11-19.31l-2.45-2.99-7.18-5.73c-3.06-2.44-8.13-7.66-10.89-10.41l-5.44-5.45c-1.4-1.4-4.92-1.36-6.85-2.18-15.28-6.52-5.82-3.15-16.71-9.13-2.77-1.52-6.08-1.93-8.83-3.18-3.36-1.53-7.13-3.24-9.94-5.6l-10.57-8.91-7.59-4.28c-2.25-1.27-3.76-2.59-6.38-3.66-2.04-.84-4.07-2.57-5.98-3.84l-14-9.37c-2.73-1.83-4.61-3.36-8.18-4.02l-3.95-4.74c-4.08.89-6.42-2.63-9.11-3.75-4.06-1.68-7.39-3.41-11.03-5.68l-9.14-5.7c-1.97-1.23-4.76-1.78-6.41-3.68-1.28-1.48-3.31-2.13-4.76-3.19l-17.26-12.55c-1.48-1.08-2.35-1.87-3.54-3.46-1.69-2.26-5.39-3.41-7.45-5.35-3.55-3.35-7.18-8.05-10.05-9.16-4.19-1.61-6.83-4.37-10.18-6.89l-6.63-4.98-8.9-6.06c-3.61-2.46-6.79-4.63-10.49-7.16l-26.59-18.15-4.86-2.75c-7.97-4.52-5.81-3.4-12.25-8.45-2.32-1.82-4.86-3.21-7.1-5.14l-6.78-5.84-14.02-9.44-9.74-6.65-9.53-6.83c-2.76-1.97-5.84-3.51-8.47-5.95-1.69-1.57-3.91-2.81-5.9-4.05l-6.63-4.14c-1.78-1.11-3.47-3.23-5.67-4.09-2.69-1.05-4.6-2.79-6.87-4.53-6.47-4.98-9.12-4.65-13.56-9.93-5.4-6.42-6.95-4.27-17.39-12.53-1.58-1.25-3.94-1.21-4.76-3.81-.46-1.46-3.08-2.06-4.03-2.82l-6.05-4.83c-3.25-2.6-6.6-4.74-10.2-6.87l-7.08-4.19c-2.77-1.64-5.74-3.38-8.18-5.34-1.58-1.26-2.79-2.37-4.56-3.21-7.92-3.79-1.73-2.94-10.82-6.82-3.2-1.36-5.69-3.13-8.61-4.91-1.42-.87-3.17-1.73-4.5-2.75l-5.71-4.39c-1.93-1.48-5.12-2.66-7.19-4.13l-9.28-6.6c-2.59-1.84-5.11-4.26-7.67-6.37-2.17-1.79-4.64-3.08-6.82-4.55s-3.71-2.77-6.5-3.65c-2.11-1.55-4.72-4.32-6.88-6.27l-5.98-.61c-10.2-1.74-3.13-.1-13.46-3.75-2.17-.77-4.9-3.72-6.71-5.14-3.97.37-3.8,5.55-4.93,7.89-2.17,4.52-2.4,8.77-1.03,13.7,1.18,4.27.76,8.85.87,13.09.03,1.19.69,3.42.6,4.81-.28,4.15-.59,7.98-.63,11.98l-.16,17.45c-.01,1.64.11,4.01.34,5.77l1.25,9.74c-.81,1.74-1.04,2.94-.35,4.76,1.33,3.48-.2,7.51.02,11.01l.72,11.38c.65,10.27-1.47,11-1.43,13.46l.21,13.58.02,11.65c0,.56-1.41,1.76-1.19,2.22s1.09,1.7,1.14,2.21l.8,8.9.32,16.28c.1,5.23.9,10.07.04,15.35-.29,1.79.37,4.28,1.4,5.79,1.87,2.75-.23,4.91-.55,7.46-.31,2.4-.84,15.75-.87,18.88l-.14,16.67-1.31,8.44c-.95,6.15-.67,12.93.32,18.85.58,3.48,1.8,5.83,1.21,9.75-.74,4.89,1.85,9.32,1.98,14.09s2.06,9.26,4.2,13.5c.04,1.6,0,4.15.27,5.56l1.5,7.91,3.69,12.93c3.2,11.21-.45,6.9,5.35,22.39,2.13,5.68-.86,12.66.92,18.51.48,1.57,1.18,3.56,1.19,5.07l.05,11.74c.04,8.9-.76,16.25-.38,23.91l.58,11.71c.13,2.6-1.13,5.9-1.29,8.21-.38,5.46-1.69,9.97-2.97,15.18-1.34,5.5,0,11.78-1.06,17.5-2.64,14.37,2.85,9.08-5.53,32.82-1.09,3.08-2.14,6.04-3.72,9.03l-3.3,6.25c-1.61,3.04-2.37,7.29-3.21,11-.67,2.96-2.97,6.24-3.27,9.04l-.79,7.49c-1.35,12.85,2.26,8.98.93,19.82l-.88,7.18-.57,17.47c-.11,3.49-1.15,6.57-1.12,10.18.02,2.3.13,4.8-.08,6.96l-.89,9.35c-.53,5.53-1.11,10.69-1.12,16.35l-.03,43.15c0,3.92-.43,7.62-.9,11.7-.28,1.4,1.57,12.16,4.13,10.47l2.64-1.74,8.61-4.29,10.45-4.41,8.07-4.16,7.38-3.99c1.6-.87,4.02-2.79,5.49-3.3,2.12-.74,3.58-.95,5-2.58,3.21-3.69,8.48-3.9,12.48-6.17,5.33-3.03,7.32-2.05,15.37-5.16l6.29-2.44c3.08-1.19,16.6-5.99,18.72-6.29,3.05-.43,5.1-.81,7.76-1.8,2.28-.85,5.14-.99,7.56-1.77l7.05-2.27,11.22-.54c2.35-.11,4.4-.9,6.64-1.28l17.85-3.05,7.34-1.93c1.41-.37,3.34-1.08,4.73-1.71,6.54-2.97,3.48.27,16.19-5.53,1.97-.9,3.88-1.52,5.88-2.19l12.79-4.29,14.77-7.59c-11.44,5.88,20.21-8.34,11.11-4.67l8.63-3.48,6.94-2.74,11.14-4.59c8.12-3.34,12.3-7.08,19.09-9.37,7.63-2.58,10.52-4.94,18.86-8.98l9.11-4.42,5.35-2.48,8.08-3.86c5.94-2.83,11.43-6,17.06-9.45,1.94-1.19,4.94-.88,6.37-3.52,9.4-2.83,4.92-2.17,12.04-5.98l5.66-3.02c1.28-.69,3.27-1.08,4.54-1.57l11.91-4.61c2.23-.86,5.42-3.1,7.55-3.36,3.09-.38,4.02-.43,6.23-2.88ZM639.53,358.93l-1.95-4.95-4.62,1.49c-.75-6.65-5.9-6.99-13.67-13.95-.43-.38-.71-2.43-1.22-2.48l-2.09-.21c-7.2-4.52-3.87-2.2-8.86-9.02l-3.02-.68c-3.12-3.34-13.47-5.43-12.82-2.7,2.45,10.25,15.12,12.61,22.8,18.41,1.45.57,4.76.01,6.54-.26.83,9.92,9.61,13.24,18.91,14.35ZM701.29,405.54l3.57,2.76c.59.45,1.91-1.72,1.43-2.21-.38-.4-1.21-1.24-1.58-1.7l-7.96-9.89c-3.5-4.34-6.7-5.75-12.6-10.88l-10.63-9.24c-1.79-1.56-4.54-2.6-6.71-3.41-8.76-7.85-8.1-4.99-16.49-9.84-2.04-1.18-4.9-1.73-6.72.41-1.15,1.35-1.09,5.65.41,6.51l5.53,3.18c2.18,1.26,3.66,2.73,5.53,4.44l5.61,5.13c1.14,1.04,4.34,1.86,5.34,3.01l3.52,4.07c.63.73,2.37.97,3.55,1.45,3.34,1.35,6.34,4.44,9.12,6.79l4.75,4.02c7.69,6.5,11.57,3.29,14.33,5.41ZM164.68,510.47c1,.51,3.34-1.1,3.55-2.09.26-1.21-.53-2.6-.64-4.27l-.61-9.35c-.17-2.63-2.25-4.7.05-6.97l-.77-11.04c-.61-8.73,4.73-8.25-.52-14.92.39-3.23.44-6.03.02-9.28-.01-.09,3.02-25.87,3.04-26.66l.89-39.11,1.61-15.81-1.63-4.88c-.26-.78-.9-2.34-1.59-2.31s-2.28.32-3.01.57c-2.64.91-2.63,2.59-3.08,4.92-.71,3.69-2.25,7.58-2.28,11.26-.02,2.49-.38,4.3-.62,6.74l-1.01,10.52c-.2,2.1-.62,4-1.05,6-2.83,13.19.58,19.27-2.3,29.69-1.38,4.98.9,9.91,1.75,14.87.66,3.87-1.31,8.2-1.1,12.01.24,4.38.4,8.42.48,12.82l.17,9.3c.08,4.5,2.79,7.39,3.65,11.66l1.77,8.75c.47,2.33.18,6,3.23,7.58ZM208.31,498.66c.47-6.17,1.24-10.92,1.19-16.29l-.08-7.88.06-12.81-.49-18.39c-.11-4.23-.18-16.67,2.16-19.98-2.24-4.55-2.38-9.78-1.39-14.8-.52-4.28-.59-8.41-.41-12.63l.33-7.51c.2-4.53,1.09-20.54-1.23-23.03-2.72-2.92-6.78,7.78-7.06,12.05l-.52,8.11c-.32,5.05-1.27,9.44-.48,14.54.65,4.18,1.13,8.38,1.45,12.7.44,6.03-.2,12.48,2.02,18.04,4.5,11.25-3.5,13.94-1.95,23.95l2.22,14.38c1.09,7.07-2.36,10.3-.17,16.23,3.27,8.86-1.07,13.35,4.35,13.32ZM798.48,443.26c1.49-1.52,2.85-3.09,3.05-4.65s-.86-3.4-1.87-4.77c-2.84-3.83-5.4-8.05-9.18-10.71l-10.57-7.43c-4.06-2.86-9.35-5.49-14.44-3.92-1.22.38-.92,3.95-.2,5.04,5.15,7.82,8.76,6.98,14.14,13.58,1.18.68,2.67,1.74,3.62,2.9,3.81,4.68,9.37,8.98,15.44,9.96ZM228.66,624.83c6.61-2.23.42-4.8,4.05-14.28,1.61-4.2,1.19-7.79,1.39-11.92.38-7.95,4.07-13.02,3.72-22.38-.27-7.11-.04-14.03.13-21.07l.61-25.05.76-7.84c.17-1.77.12-3.15-.36-4.8-1.52-5.19-.72-10.9-1.94-16.1l-1.9-8.14-1.38-5.62c-.21-.87-1.47-2.5-2.29-3.54-.69-.87-3.12.69-3.16,1.86l-.4,10.01.07,6.41-.17,5.02-.55,15.87-.56,18.87c-.07,2.51-.52,4.96-.14,7.51,2.72,18.57,1.36,3.51-.43,18.84l-1.17,10.02c-1.46,12.51,1.27,17.02,1.1,21.76-.66,18.6,1.6,7.89,2.63,24.58ZM208.53,520.4c1.01-1.97,1.46-5.44.25-7.08-1.05-1.43-5.68,2.67-4.27,6.06.46,1.1,3.49,2.06,4.02,1.02ZM724.01,685.23c-.56.94-1.22,2.1-1.14,2.88s2.4,1.03,3.1,1.52c2.87,2,5.62.09,8.26-1.07,12.12-5.38,5-3.75,15.12-8.56l7.71-3.66c1.84-.87,3.29-1.99,5.25-2.77l11.08-4.41c1.52-.6,15.3-10.8,18.11-12.75l5.37-3.73c4.82-3.35,9.08-7.3,13.66-11.15,6.29-5.27,12.84-10.47,19.71-14.85l10.89-6.95c2.49-1.59,4.7-2.56,7.01-4.72,1.9-1.78,5.72-3.44,5.85-6.5.03-.68-1.08-2.4-1.65-2.19-.46.17-1.75.98-2.25.95-10.11-.55-2.13-.13-12.49,2.32-1.66.39-9.66,3.34-11.39,4.27l-4.13,2.21c-6.8,3.64-13.35,5.73-20.87,6.87-4.62.7-8.67,3.1-12.85,4.76l-7.68,3.05-4.04,1.72c-7.21,3.07-13.53,7.12-18.7,13.49-2.23,2.73-5.19,4.85-8.36,6.55-4.62,5.8-3.93,5.42-8.96,10.82l-8.3,8.91c-1.14,1.22-2.79,3.69-3.72,5.25l-4.59,7.76ZM206.6,638c1.69-3.25.55-7.65-2.47-9.16-5.37,4.01-.18,14.26,1.02,11.96l1.45-2.8ZM431.43,803.34c2.49,1.43,3.89-.75,5.5-.98,5.35-.74,10.07-1.86,15.26-3.52l9.67-3.09,20.38-5.9c5.68-1.64,12.45-3.89,17.06-4.97,2.35-.55,4.74-.73,6.83-1.64l5.44-2.37,5.15-2.13c2.35-.97,4.98-2,7.3-2.64,4.43-1.21,11.28-5.63,15.58-8.66,2.78-1.96,7.05-2.66,10.13-4.15l12.96-6.24,6.63-3.38,8.66-4.38c3.93-1.99,7.72-4.03,11.88-5.82l6.93-2.97c8.99-3.86,9.53-4.88,17.34-8.25l10.25-4.42c1.47-.63,3.26-1.39,4.62-2.08,2.91-1.48,5.48-4.1,8.98-4.27,2.14-.1,3.34-1.08,5.14-1.99,10.33-5.21,13.67-4.72,26.47-11.28,4.61-2.36,9.73-3.85,12.21-9.1,4.87-2.6,8.39-6.75,12.03-10.76l4.12-4.53c.96-1.06,3.93-2.34,4.76-3.53l4.52-6.54c2.49-3.61,12.25-8.77,6.66-18.81-9.96,1.82-10.22,6.06-14.25,6.54-6.48.77-18.26,7.82-22.69,12.63-3.12.35-5.21,2.12-7.53,3.95-3.56,2.83-7.32,4.81-11.25,6.87-7.67,4.02-14.94,8.69-23.05,12.2-5.53,2.4-9.82,5.31-14.82,8.68-3.3,2.23-8.47,3.62-12.26,5.25l-11.6,4.99c-2.99,1.29-6.28,3.57-9.01,4.47-5.94,1.97-4.92,1.15-11.69,5.32l-13.73,8.46c-.89.55-3.19,1.08-4.29,1.5-1.87,2.86-5.72,2.61-8.46,3.85-1.4.64-3.76,2.73-5.45,3.45l-8.93,3.84c-2.79,1.2-5.5,3.06-8.33,4.46-4.7,2.33-9.54,3.55-14.03,6.73-1.56,1.11-4.06,1.59-6.07,1.76-3.64,3.22-8.03,5.41-12.52,7.63l-7.04,3.49c-3.33,1.65-6.43,3.94-10.01,4.66-9.37,1.88-11.12,6.57-13.33,5.88-2.86-.89-3.95-.14-6.13,1.06-1.81.99-5.32,1.54-6.5,3.3-1.51,2.24-3.45,3.13-5.92,2.41-.95-.28-2.86,1.06-3.81,1.38-3.11,1.04-6.23,2.16-9.39,3.42-6.35,2.52-5.04,2.64-10.93,4.63-3.04,1.02-6.42,1.49-6.95,5.39,12.5,3.45,6.26,2.6,17.51.17ZM440.2,859.74c1.38-.34,3.77-2.32,5.29-2.85,2-.7,5.05-.88,6.43-2.1,2.65-2.33,5.47-3.52,8.65-4.51,1.34-.41,3.55-2.26,4.83-2.51,3.86-.74,7.17-1.97,10.35-4.11,1.85-1.24,4.67-2.32,6.29-3.59l3.73-2.9c11.43-8.9,11.03-6.81,25.23-10.11l12.33-2.86c1.65-.38,4.13.06,5.9-.85l5.32-2.73c1.41-.72,3.57-2.11,4.81-2.56,3.46-1.24,6.04-2.22,8.83-4.43,3.38-2.67,8.11-2.95,12-4.55,2.91-1.2,6.19-2.58,8.81-3.94,3.71-1.94,6.7-4.1,11.55-4.01,1.45.03,2.99-1.2,4.36-1.95,5.53-3.03,16.33-7.16,17.93-8.36,3.92-2.94,7.89-4.82,12.14-7.18l11.06-6.15c2.81-1.56,5.6-4.99,8.48-6.95,5.83-3.96,2.51-4.15,10.1-7.79,4.51-2.16,8.82-4.21,13.72-5.37,4.14-.98,7.28-3.57,11.37-4.94l5.75-1.92,6.67-3.22,11.55-4.98c4.36-1.88,9.3-5.92,12.44-9.61.67-.79,2.85-2.61,2.23-3.47-1.9-2.63-6.19-1.47-8.72-.27l-8.04.49c-6.72,5.12,1.09-3.85-11.27,3.58-2.14,1.29-3.77,2.58-5.99,3.37-12.89,4.56-6.05,5.44-17.56,9.36-4.89,1.67-9.08,3.84-13.27,6.95-6.43,4.78-21.07,11.6-21.75,12.07-3.15,2.17-5.53,3.47-9.03,4.82-5.61,2.18-11.04,4.95-16.6,7.75l-6.1,3.06c-2.5,1.26-4.47,1.65-7.37,2.58l-6.71,2.14c-6.95,2.22-10.01,5.93-17.13,8.36l-5.66,1.93-15.93,7.23c-2.51,1.14-4.63,2.06-7.26,3.49-2.93,1.6-11.71,3.48-19.95,7.59l-5.84,2.92c-9.02,4.51-3.2,2.68-9.64,5.99l-14.5,7.46-8.48,4.22c-2.69,1.34-5.67,1.14-7.97,3.52-2.69,2.79-10.44,4.83-14.69,5.99s-8.54,3.58-12.69,5.47l-6.35,2.88-4.92,2.25c-3.89,1.78-8.01,3.15-11.39,5.77-8.18,6.32-6.69,1.5-12.56,8.15l9.26-.78c7.42-.62,20.55-7.02,29.95-7.88ZM268.8,847.93c3.14,1.9,7.72.46,11.16-.14l9.36-1.64,6.37-1.49c6.08-1.42,10.92-2.53,17.26-1.13,1-.45,2.64-1.52,3.74-1.73l9.67-1.83c4.45-.84,8.75-3.03,12.54-5.21,5.17-2.96,10.62-4.44,15.98-6.88,1.8-.82,3.39-1.68,5.07-2.19l8.23-2.52c1.27-.66,3.61-2.43,4.97-3.02l5.11-2.21c3.8-1.64,8.01-3.95,8.44-8.91-7.45-.74-15.85.21-22.65,1.82-.92.22-2.86-.87-3.6-1.27-5.36,2.54-15.39,3.47-20.83,6.64l-4.81.87c-1.5,1.1-2.6,1.42-4.12,1.85-14.6,4.14-14.19,2.18-29.88,9.09l-5.51,2.43-5.28,2.55-11.61,6.05c-2.41,1.25-4.67,3.92-7.77,4.16-.8.06-2.27,1.25-2.69,1.88-.36.53.04,2.34.86,2.83ZM250.29,890.32l8.02-1.8,9.18-2.28c8.26-2.05,9.73-5.65,19.53-7.49,4.91-4.57,17.7-6.83,16.62-13.44-3.36-.76-7.32-1.56-10.21-.57l-7.44,2.55-7.4,2.3c-9.18,2.85-12.44.87-20.62,7.37-3.5-.14-6.59,1.13-9.37,3.43-5.59.33-11.81,3.49-13.01,9.3,1.38,2.33,5.53,1.66,7.35.57l3.59,1.99c.83.46,2.76-1.71,3.75-1.93ZM283.41,923.33c4.11-.59,12.37-7.36,16.71-7.64s8.31-.29,12.29-1.83l5.08-1.97,7.2-1.6c4.52-1,9.81.27,17.32-1.61,3.39-.85,6.95-3.43,9.72-5.62,8.3-6.55,3.18-5.01,10.14-12.71.98-1.08,1.07-4.2.65-5.15l-5.3-.1c-.71-.01-2.35.75-2.98,1.03l-11.47,5c-2,.87-4.63,2.65-6.41,3.17-12.99,3.8-.42,2.18-15.47,5.49l-9.87,2.17-13.43,5.25-5.53,2.17-6.92,1.45-4.56,1.81c-4.02,1.6-13.26,4.34-10.76,10.15.65,1.5,3.3,2.02,5.23,1.74l8.36-1.21Z"/>
</svg>