<?xml version="1.0" encoding="UTF-8"?>
<svg id="Camada_1" data-name="Camada 1" xmlns="http://www.w3.org/2000/svg" viewBox="0 0 1024 1024">
  <defs>
    <style>
      .cls-1 {
        fill: #1e1e1e;
      }
    </style>
  </defs>
  <path class="cls-1" d="M290.91,885.14c-1.85-4.13-3.57-7.42-6.25-10.71-1.7-2.09-2.08-4.71-2.97-7.06-1.16-3.08-3.2-6.13-4.96-8.99,1.7-5.23-6.94-3.25-3.38-12.83,1.74-4.7-3.67-2.95-4.9-10.71l2.3-.49-1.43-4.86-.44,5.04-.83-3.87c-2.11-1.78-2.09-4.7-.92-7.14l-1.28-5.34c-.32-1.33-2.11-3.84-2.66-5.07-.17-.39.52-1.85.2-2.15l-1.7-1.59c.58-1.53,1.74-4.74,1.15-6.23l-2.34-5.93-.88,2.98-.98-7.37c-.37-2.78-.69-5.15-1.43-8.01-.78-3.05,1.16-12.72-4.17-14.11l2.1-.54c.68-.18,1.33-4.66,1.38-5.76.03-.68-1.85-1.51-2.54-1.94,1.97-8.69-1.45-4.76,1.73-9.27.27-.38-.7-1.2-.97-1.66.31-1.73.42-3.38.43-5.64l1.9-.31c-2.15-4.96-2.19-12.52-1.72-17.34l-.88-.44c-.31-.16-.32-1.64.02-1.55l1.87.47c1.27-.61.7-3.6-.28-5.19l.64-7.2-1.17-.39c-.33-.11-.45-1.04-.44-1.58.07-12.25,2.53-6.85,2.6-12.18.01-.89-1.87-2.03-2.07-2.9l-1.07-4.56c-2.81-11.95.93-4.69.1-15.55l-.67-8.82,1.45.04c.43.01.61-1.16.61-1.64l.04-4.86c0-.49.48-2.14.06-2.23l-2.54-.56,1.29-1.61c.27-.34-1.2-.87-1.93-1.24l1.04-5.11c2.98-3.69.08-4.16,2.09-12.46l-2.16-4.31c1.98-2.58.96-10.3-.29-12.93l1.9-7.88-1.86-.27c-.11-1.19-.34-4.13.3-5.19,4.03-5.95-4.74-7.94.98-10.02l-2.77-1.27,2.46-.43c-.61-.88-.84-3.05-.65-4.05.06-.32-.67-.62-.69-.93l-.11-1.67c-.6-9.34,1.64-.61.6-10.25,1.37-1.8,2.47-3.39,1.44-6.56.53-1.03.15-.79-1.23.42.18-2.18.64-4.71.64-7.04v-6.3s-1.28-1.1-1.28-1.1c-1.04-.9,3.97-2.71,1.93-10.41l-1.87,3.12c.59.24-.11-.04-.62-.26l1.61-5.3-1.96.14c-.28.02-.59-.39-.81-.75,1-1.54,1.57-2.37,2.34-3.32l-.78-1.09c-.18-.25-.33-1.06-.02-1.07l1.54-.04c-4.49-10.28.81-5.41-.36-12.66l-2.63-.41,1.24-3.37,1.79,3.17c1.39-3.26-2.7-4.51-1.05-6.57.39-.49,1.54-1.5,1.26-1.89l-1.3-1.77c.41-.64,1.77-2.47,1.11-2.87l-3.11-1.93.06-10.58c2.76-2.98,2.58-6.9-.27-8.94l1.61-3.71c.2-.46,1.48-1.04,1.52-1.51l.17-2.15c.25-3.08-.19-5.79-.51-8.81-.21-2,.1-3.94-.45-6.19l-1.37,3.15-.49-3.8c1.13-1.96,2.01-4.62,1.65-6.55-6.37-1.4-4.06-8.94-3.64-12.95.72-.39,2.44-.91,2.3-1.5s-.78-2.06-.8-2.71l-.2-7.52,1.62-1.38c.41-.35-.03-2.08-.42-2.46-.28-.27-1.13.47-1.71.87-.36-1.74-.04-3.3,1.34-5.74,1.32.94-1.02,3.73.05,3.32.19-.07,1.2-.11,1.23-.28l.64-3.66c-5.23-4.86-1.12-11.55-2.64-18.28l1.72-.42c1.2-.29-.08-11.16-.17-7.16-.9-.29-.34-2.68-.05-4.32-1.99-2.51-2.81-5.53.35-7.6l-2.45-3.62,2.22-2.03c.49-.45-.33-2.55-.72-3.13-.83,1.57-.83,1.82-1.86,3.14l1.74-7.9c-.03-1.29-.55-1.13-1.81.3l.66-3.33.16-5.72,1.43-.06c2.73-.11-3.83-5.82-2.11-9.77,2.18-.48,2.1-.74.12-1.05l.68-7.28,1.44-.22c1.55-.24-4.6-13.41-.89-18.32,1.43.46-1.03,6.93.86,6.13.45-.19,1.16-1.37,1.19-1.92l.37-6-1.14.99c-.14.12-.89-.47-.92-.65l-.51-3.72,1.47.48c2.45-.12,1.34-8.13-.75-10.55l.61-7.02c-1.52-3.69-1.08-6.49.77-10.02l-.87-7.45,2.43-1.86c.54-.41.22-2.31.04-3.06l-2.21,1.83c1.17-11.36-.94-5.59.57-17.94.21-1.69-1.09-4.4-1.17-5.99-.27-4.89,3.53-5.79,3.12-8.38.65-.32,2-1.15,1.69-1.8l-1.52-3.2c5.58-6.43-1.93-3.34,2-11.32.95-1.93.71-4.31,0-6.5-.61-1.89-.05-3.86-.03-5.59.04-2.54-.16-4.77.49-7.14.53-1.94,1.19-4.16,1.27-6l.15-3.55c.09-2.21-.09-4.43.21-6.55l.87-6.05c.39-2.7.33-4.73-.11-7.3l-.61-3.54,1.78-5.4c-.09-2.73.59-4.96,1.53-7.47l1.85-4.93-2.31-.84c-.39-.14,1.13-1.22,1.13-1.64.01-1.92,1.12-5.34,2.25-7.32l2.98-5.28c3.27-1.54,6.64-2.93,9.5-4.95,1.21-.85,2.4-2.02,3.81-2.1,2.86-.17,5.55-1.49,6.42-4.18.57-1.75,1.59-4.15,1.77-5.68l1.02-8.42c-3.19.98,10.82-6.6,7.28-4.96,1.11-.51,3.48-.44,4.57-1.11,3.45-2.09.11-2.68,5.02-7.17,1.56-1.43,4.74.58,6.15,1.67,4.01,3.12,2.57,6.98,2.44,11.47-.08,2.62.07,6.9.89,9.16,2.63,7.26,9.46,10.28,15.84,12.39l.1,3.31c.03.93,2.53.09,3.19.59l6.87,5.18-.37.97c-.08.21.36.72.59.84,8.88,4.62,3.28,3.04,10.58,12.68l4.57,6.04c.7.92,1.38,1.95,1.72,2.97l1.78,5.34.45-3.29c-.19-.23.43.52.81.98-1.14,2.29.89,2.75,1.87,4.16,1.25,1.8.37,6.21,2.45,7.79l2.66,2.03c2.82-8.4-1.62-5.78,4.14-10.87,2.63-2.33,4.54-4.18,8.27-4.55l1.77-.17c.49-.05.72,1.05,1.1,2.22l3.63-.67.7,3.83c.35.34,2.3,1,2.41,1.67l.47,2.79c.29,1.72.5,3.43.64,4.88,2.71,4.78-.15,3.77,2.33,10.18-.34-.02-1.38-.24-1.51.16-.16.49.11,1.8.39,2.28l3.83,6.34c-2.03,3.29-1.2,6.75.6,9.86s.62,5.75.82,8.91l.31,4.94c.18,2.81,2.32,6.13,1.89,8.9-.19,1.25-.71,3-.56,3.88,1.15,6.97-3.48,6.62-.26,12.92,1.89,3.7-1.16,8.29-.16,11.75.66,2.28,1.78,3.82,1.36,6.67l-1.06,7.21c-.12.83-.19,2.62-.16,3.41l.26,7.54c.09,2.6.78,6.67-.21,8.63-.16.31-1.85.56-1.73.85s.54,1.49.47,1.8l-1.5,6.42,1.45,2.43c.38.63-.64,2.2-.77,2.79,2.09,6.05.94,9.5.87,14.21l-.07,4.48.18,6.53c.27,9.61-2.08,13.52.58,23.44.84.44,2.06.84,1.95,1.37l-.56,2.66c-.08.37.63,1.4.93,1.63.37.29-1.53,1.19-1.51,1.66.06,1.85,1.06,11.25.75,11.02l1.95,1.39-1.51,7.04-1.21-3.99c-1.73,3.25,2.31,5.27,2.5,10.62l.19,5.38c.09,2.53.43,4.74.69,7.12l1.14,10.27c.29,2.59-1.35,6.09-.07,9.15.55,1.25.64,1.47-.04-.08,1.01-1.35,1.44-1.74,1-.32l2.8,21.4c.19,1.47,2.3,2.85,1.12,5.06-.61,1.15.23,3.1.75,4.46l.39,5.33.97.18c.26.05-.02.47-.37,1.28-1.93,4.47,2.33,1.9-.1,11.49l1.93,4.71,1.27,3.1c-1.1,3.46-.79,7.05,2.18,9.52l-.82,9.25c-.12,1.35.88,3.4,1.66,3.97,2.75-.23-.3.52-.02,1.28l1.07,2.91-1.85-.31c-.36-.06-.93.6-.89.96s.77,1.24,1.12,1.38c2.02.82,1.62,3.18,2.06,4.97l1.75,7.08c.36,1.47.66,2.45.66,4.25l1.76,3.23c-.8,1.39-1.39,2.8-1.15,4.53l.97-2.76,1.09,5.98c.2,1.08,0,2.76-.28,3.95,4.61,6.89-1.4,9.39,2.97,15.77.3,1.74.61,4.23.99,5.91l1.42,6.18,1.76,5.22-1.53.41c-.27.07-.09,1.24.08,1.53l3.34,5.63c-1.72,2.33-1.26,5.18.28,7.77l-.92,5.78c1.73,4.12,1.89,8.29,2.67,12.6,1.44,7.95,5.29,17.04,2.87,24.8l-.9.74,1.98,1.73c1.12.98-2.74,6.5,1.36,12.48-.12,2.58-.35,5.82-.15,8.36l.59,7.51c.53,6.83-.93-.44-.03,10.59.39,4.78-.47,9.6-1.88,14.24-.03,1.25,1.59,3.78,2.19,5.13-.38,1-.94,2.76-.85,3.77l.68,7.79c.86,9.85-1.47,3.47-1.22,15.28.04,2.02-.22,3.12-.69,5.07-.59,2.45-.95,12.66.01,15.66-1.27,2.46-1.61,5.17-.54,7.58-.56,1.03-1.31,3-1.16,4.08l.65,4.71c-.85.72-1.93.99-1.79,1.57l.67,2.64c1.08-1.45,1.32-1.78.5-.67l.63,2.4c.1.37.3,1.52-.03,1.69l-1.8.89.89,6.03c.11.72-.86,1.91-.98,2.52-.27,1.3-.88,4.02-.8,5.37l.34,5.82.02,5.54c0,1.08.34,6.42.78,6.11-3.34,2.32-2.48,4.12-2.85,8.77-.29,3.67-.6,7.38-1.73,10.83l-1.47,4.51-2.47,8.26c-.15.49-1.35,1.59-1,1.94.59.6.86.87.87.87.01.01-.53.68-.65.84-.97,1.71-2.23,3.92-3.48,5.55l-2.91,3.82c-.54.7-1.37,2.65-1.69,3.56l-2.46,7.05c-.56,1.59-.97,2.97-.73,4.25,1.05.22,1.06.23,1.25.24,1.18.11-.55,2.18-.78,4.17-1.96,16.59-2.51,5.69-3.27,11.93-.19,1.53-1.05,2.89-1.8,4.08-1.69,2.68-4.04,1.39-6.07,1.84-2.98.65-6.1,1.74-9.26,2.85l-.21,5.7-1.14,7.8c-.89,1.29-2.39,3.29-2.88,5.06l-1.81,6.61-2.55.97c-.64.24-.55,1.73-.6,2.53l-4.04,1.54-3.9,1.3c-.8.27-1.37.14-2.72-.35-1.76-.64-4.56.09-6.68.1-2.83.02-4.96,1.05-6.38,3.36l-1.01-.4c-2.93,3.95-8.01,2.49-12.66,7.83-.4.46-1.66-.47-2.15-.53-3.75-.45-7.44.85-11.09,1.44l-6.72,1.09c-2.41.39-5.77-1.51-8.13-2.99l-2.31.55c-.04-.1-.48-1.07-.47-1.07.02-.02.78-.32.94-.39l.86-.37c-3.91,1.67-2.41-16.56-7.04-15.32-.75-1.63-1.56-4.19-2.24-6.41l-4.29-4.58-4.74-7.85c-1.12-1.85-2.39-2.77-4.82-2.68l1.2-1.6c.9-1.21-3.58-2.7-4.26-4.32-.34-.81-.01-2.67.14-3.68l-1.73-.12c-.38-.03-.56-1.39-.72-1.75l-2.98-6.65ZM332.53,167.41l-3.75.26-.79-1.86c-.32-.75-6.63-.69-5.5-1.96l1.16-1.3c-2.54.07-3.74,2.69-3.53,5.62.12,1.64,1.22,2.74,2.47,3.71,1.17.91,1.59,4.21,2.13,5.66.26.71,2.55,1.5,3.06.93,3.74-4.28,2.05-3.98,6.25-5.49l-1.49-5.57ZM392.73,345.58c-.11.44,1.21,1.94,1.25,1.57l.17-1.58c.11-1,.99-2.41,1.81-3.28l.16-4.6c.03-.97-1.11-2.52-2.04-3.07,1.67-2.87,1.52-6.1.89-9.39l-1.09-5.67-.09-8.69c-.02-1.56.69-3.98.54-5.62l-.47-5.27c-.04-.47-.75-1.47-.5-1.84l.97-1.46-3.15-1.84c1.13-.78,1.5-1.03,1.86-1.35.27-.24-.38-1.73-.16-2.02.99-1.31,1.82-4.31,1.82-6.41,0-15.49-1.81-13.2-2.39-23.1-.53-8.95-1.31-8.79-1.57-15.81l-2.1.18c-.4.03.07-1.66.47-1.7l1.54-.14c0-.77-.22-2.79-.07-3.7l1.11-6.73c-1.27-1.47-1.45-1.94-1.75-3.26-1.72-7.79-2.58-.37-2.55-12.61.01-4.31-.22-7.92-1.96-12.45l-9.38,8.92,1.09,1.33c.18.22-.37.78-.66.74l-1.47-.17-1.6,5.82,1.24,3.04.34,9.89c.06,1.81-.19,3.16,1.35,4.49,3.04,2.62-1.53,3.63-.24,6.87l.9-1.78c.16-.31,1.51.17,1.45.52l-.19,1.06c-1.32,7.21,1.45,3.51.07,11.26,4.66,9.1-1.46,10.73.5,15.5l.95-3.55.6,4.17,2.67,12.69c.6,2.86.44,6.36,1.24,8.43,2.59.71,2.29,3.85,2.22,6.36l-.06,2.4c-.08,2.97.3,5.58,1.5,8.34l2.36,5.43-.79,4.74-.59,3.53c.84,8.42,5.64,12.76,3.84,19.83ZM294.64,453.48l-.46-6.38c-.06-.83-.94-2.09-.64-3.52l2.35,4.12c-.1-1.26-.75-3.43-.73-4.46l.08-4.84-2.59,4.05c-.2-1.28,1.13-9.29,1.86-10.61.82-1.47-.16-3.7-1.66-4.9-.19,0,.89-.95,1.13-.67l1.44,1.7.03-7.07c-1.08-.24-2.02-.33-1.79-.69l1.14-1.79-1.14-6.76c.82-.47,1.93-1.92,1.78-2.69l-1.06-5.4c-.67-3.4-.87-5.64-.18-8.92.57-2.75-.51-5.55-.11-8.13l1.36-8.75-.1-6.63c-.04-2.32-.71-4.53-.38-6.94l.63-4.47-1.11-2.71c.65-2.25,1.31-5.16,1.37-7.18-.53-.46-2.04-1.21-1.88-1.65s.82-1.56.89-2.06l.91-6.31,1.12-6.38-1.02-10.01c-.96-9.38,1.71.26-.31-12.17-.1-.64-.32-1.5-.02-1.69l1.74-1.08-2.47-1.19,2.63-2.01c-.4-1.97-.46-2.02-1.4-.53.19-4.09-1.03-10.88,2.47-14.5-.06-1.86-1.72-5.33-1.96-7.13l-.62-4.6c-.14-1.05-.49-2.24-.99-2.75-2.86,4.01-5.19,14.84-5.74,18.96-.12.93.75,2.83.46,3.74-1.79,5.57-.16,10.7-2.81,19.89-.99,3.44-1.59,6.12-1.87,9.63-.83,10.53-3.7,11.44-2.36,22.02.57,4.48-2.77,10.22-1.94,11.68l.95-1.31c1.93-2.67-1.07,5.96.64,10.89.35,1.01,1.26,1.98,1.1,2.59s-1,1.97-1.08,2.61l-.6,4.76c-.03.26.21,1.18,0,1.26l-.88.36c1.72,2.86.92,7.44,1.27,9.81.36,2.52.7,4.42.47,7.03-.56,6.48,1.83,18.13,2.26,22.26l.43,4.11c.19,1.83.04,4.52.39,5.9.51,2.04,1.19,4.25,1.28,6.48l.38,9.09c.3,7.29-2,12.63.04,18.16.68,1.84,1.35,3.69,1.09,5.18l-1.52-1.63c.3,1.92.46,3.88,1.01,5.94l2.13,7.91c.1.38,1.39,1.2,1.67,1.37-1.02.15-1.88,2.94-1.15,4.19.34.59,2.03.82,2.57.41.43-.33,1.07-1.67,1.07-2.27l-.04-7.46c-.2-.13-1.55-1-1.4-.84s.82-.78.85-1.05l.34-3.76c-4.31-15.02,3.02-9.69-1.31-16.35,1.71-.39,2.12-1.74,1.97-3.87ZM379.73,379.84c-.56-3.91-.77-6.36-.17-9.69-.16.91,1.43-14.4,1.57-11.76l-.32-6.24c-1.63,1.82-1.53,4.08-1.26,6.33-1.33-.95-1.58-2.37-2.15-4.7-.24,1.85.09,3.61.76,6.44.15.05-1.03-.32-2.13-.66-.17-.15-.27,2.62.23,3.18s1.06.72,2.29,1.42l-3.11,1.77c-.37.41,3.5,14.56,4.29,13.91ZM270.57,380.52l.24-6.59-1.66.52c-.36.11-1.06-.39-1.57-.6-.24-.08-.44,1.69-.07,1.91l1.5.9,1.57,3.85ZM269.83,388.43l1.01-6.56c-2.41-.74-2.66-1.87-3.55-4.3-.89.62-1.92,2.41-1.53,3.27.48,1.07,1.51,2.07,2.39,2.81l1.69,4.78ZM270.75,430.97c-.25-2.28-.58-3.75-.93-5.31,5.42-10.48-1.96-13.73,1.4-19.93.29-1.35-.09-4.21-.44-5.63-.76-3.1-.48-6.79-.61-10.51-5.68-.3-5.24,11.7-5.12,15.08l.17,4.99.3,12.16c.02.94,1.01,8.85,5.24,9.14ZM393.22,501.31c.42.29,2.13-1.23,2.09-1.89l-.3-4.88-1.26,2.46c-.17.33-1.17.52-1.6.66l1.08,3.65ZM278.73,514.84c.36-.33.71-2.2.22-3.01l-2.08-3.47-.21,6.47c.74-2.08,1.14-2.05,2.07.02ZM410.87,845.84l.2-12.05c.49-.13,1.37-.19,1.3-.5l-.42-1.85c-.32-1.42.03-2.53,1.17-4.07.9-1.22.31-4.32.75-5.75.8-2.61,1.96-4.5-.01-6.87l1.25-2.75c-1.78-2.13-2.08-4.79-1.16-7.22l1,5.19,1.58-8.7c.07-.36-1.09-1.72-1.36-1.54l-1.24.83-.36-3.29c.51-1.46.51-2.89.02-5.18l2.86-2.96c.36-.43.83-2.03,1.38-1.93l2.36.42c-1.62-4.44-1.58-8.46-1.39-13.06-4.43-9.75,1.2-5.12-.08-11.1-1.46-6.81-1.12-13.63-.34-20.08l1.19,1.95c-1.11-8.22-1.22-15.35-1.34-23.26-.04-2.91-.87-6.05-.08-8.81.09-9.07,1.15-.93.26-11.33-.16-1.85-.29-4.89-.31-6.63-.01-.93,1.03-2.92.75-3.81-.7-2.17-.21-8.73,1.17-10.17-2.5-6.37-2.49-12.44-.89-19.69l-2.65,1.43.73-3.56c.77.6,1.23,1.15,1.27.88.08-.51.22-1.4.2-1.37,0,.01-.88-.26-1.37-.41l-1.02-7.09c-.07-.46.33-1.81.73-1.79l1.41.08c-.51-1.24-1.52-2.52-1.11-2.97l1.58-1.74c-.57-.77-2.53-1.92-2.18-2.55l1.49-2.66-1.78-5.51c2.57-5.83-.82-9.3-.94-10.24-.25-1.92,1.72-13.74.41-14.55l-1.96-1.22c5.66-1.17-.59-4.98,0-8.25,1.51-1.59,2.06-2.86,1.45-4.88l-2.29.53c-1.05-11.39,1.72.44.07-14.02l-.91-7.97-.83-8.27c-.28-2.73-1.5-5.2-.42-8.12.79-2.15-1.06-3.88-2.39-5.08.39-2.12,1.27-5.19,1.09-6.91l-.18-1.74.76-.91-.8-7.41-1.27-2.82,2.31.83-.57-4.4c-.21-1.6-1.05-3.37-1.58-4.75-.39-2.41-.07-5.47.05-8.4l-3.7-1.41.68,1.44c.72,1.53-3.49,1.4-3.5,3.32l-.03,3.38,1.67-3.47.68,12.66c.08,1.55-.69,3.7-1.26,4.96,1.15,2.39,1.08,4.42.7,6.96-.58,3.89,1.91,8.48.34,12.29-.99,2.39-1.01,3.67.78,6.23-.09,1.83-.4,4.97-.82,6.95-2.23,10.57.73,3.74,1.04,11.98l-1.99-.63c-.25-.08.01.92.03,1.23l.24,3.79c.15,2.26.02,3.89-.43,5.84l-1.51,6.53c-.08.33-.1,1.47-.1,1.79,0,.2.59-.4.76-.49l.76-.43.32,4.65.56,7.88c.08,1.12-.29,3.17-.08,4.44.39,2.33,0,4.05-1.01,6.23l.97,4.57c-1.5,2.81-1.77,5.74-1.73,8.94l.06,4.5c.12,9.56,3.3,6.61,1.51,17.24-.41,2.44-1.86,4.51-.22,6.22,1.19,1.24.38,4.48-.39,6.35l1.51,2.25c.32.47-.43,1.57-.96,2.23l1.71.81c.38.18.22,1.68.18,2.17l-.67,6.89c-.18,1.8.25,3.25-.64,5.24l.91,6.48.48,3.45c.26,1.89-.7,4.67.34,6.39,2.06,3.42.03,6.1-.32,9.22-.27,2.36-.44,4.79-1.84,6.77,2.19,3.72,2.71,7.57,1.89,11.94-.55,2.96-.13,6.63-.36,9.68l-.4,5.39c-.31,4.24-1.67,8.83-1.35,13.2.3,4.02,0,7.38-.53,11.22-.37,2.69-.23,4.55-3.08,6.17l1.85-.02c.23,0,.51.78.31.87l-1.31.6c-2.61,1.2,1.8,1.72-.3,8.07-2.43,7.36.56,7.73.64,13.32l.06,4.36,1.21.56c.2.09.19.28.02.39-.18.12-1.45.51-1.47.72l-.37,4.67-.69,8.61-.48,5.94c-.16,1.98-.08,3.96.04,6.19.19,3.35.06,6.42,1.13,9.81.18.56.27,1.78.58,1.57l1.19-.77,1.05,4.34c2.49-2.48.56.86,6.4-.59l-.24,2.77c1.21-1.35,1.61-2.96,1.64-4.8ZM324.21,678.22l5.39.71c.67-9.78-1.02-3.86-1.35-11.33-.11-2.58-.07-6.89.34-9.39,1.18-7.23-3.41-9.89.5-17.4l-2.03-.47c-1.52-.35,3.01-4.19,2.46-5.6-.87.29-2.29.72-2.61.23-.75-1.57-.35-5.22.76-6.49-4-6.2-.54-1.05-1.74-13.4s1.14-13.54.42-17.37c-.65-3.52-1.09-7.02-1.98-10.39l-1.96-7.44-.72-.65c-.16-.15.13-1.27.28-1.1l1.09,1.25-.2-7.88.31-7,.07-8.26-1.78-2.83c-.19-.3.07-1.75.43-1.84l1.74-.39c-2.23-2.91-1.88-6.15-1.79-9.75l.22-8.7c.09-3.39-.46-6.47-1.14-10.3-.97.83-1.5,1.41-2.37,2.48l-1.1-.84-.6,3.7c.84.92,1.36,1.86,1.13,3.11-.13.68-1.01,1.21-2.27,1.87l1.77,4.13c.51,1.19-.86,3.08-2.03,4.08-.25.98-.22,3.34-.06,4.22.51.32,1.32,1.02,1.01,1.14l-1.29.47.24,7.16.3,5.97c-.07-1.44-1.39,10.94-1.21,9.94-.79,4.46-.69,9.53.46,13.82.19.72-.4,2.4-.36,3.06l.52,9.07-.43,5.9c-.7,9.72,2.12,9.13,1,15.97-1.72,10.53,1.44,13.78,1.25,22.46l-.15,7.12,1.61-.15.1,10.34,1.45-2.06c-1.11,3.94.33,4.97,1.28,7.68,1.08,3.1,1.02,7.84,4.52,9.09-.73,2.49-1.19,4.48-1.46,6.1ZM294.2,716.74c-2.55-12.46,1.44-7.89.75-13.66l-1.24-10.35-.68,7.05c-1.94-3.65-.16-7.7-.87-11.75-.28-1.62-1.76-4.15-1.8-5.94l-.11-6.12c-.17-9.85,1.06-2.67-.37-9.78l-1.84-9.09c-.48-2.37-.68-4.86-.66-7.04l1.59,2.46c3.17-5.38,1.77-9.85-2-12.87.09-2.48,0-4.87-.12-7.06l-.2-3.52c-.45-.96-.05-.72,1.17.51l-.18-1.79c-.06-.62-3.64.62-1.49-6.84l1.84,2.58c-.63-3.2-1.36-4.92-.73-7.39,1.07-4.21-2.1-3.91-3.03-10.42.17-2.32,1.03-6.03,1.16-8.37l.22-4.03.02-10.04c0-.37-.29-1.86-.64-1.81l-1.6.24.19-4.48.75,2.92c2.54-7.65-.16-6.93-.48-9.3-.23-1.72-.68-4.09-.66-5.53l.15-11.65-.18-4c-1.12.76-1.49,1.21-1.71.98-.15-.15-.73-.68-.7-.7.04-.02,1.2-.64,1.21-.85l.28-4.93-1.54,2.12c1.28-5.4,1.53-9.67.33-14.75l.81-4.02c-2.02-.34-3.89-.13-6.04.58l2.39,1.67-2.13,3.84-.24,11.86.59,7.3-.24,4.29-.49,9.5c-.03.64-.98,2.22-1.19,2.55l1.22,1.52c.25.31-.44,1.16-.58,1.57,4.62,8.28.32,7.57,1.77,10.17l1,1.79c.21.38-1,1.48-.92,1.91.32,1.82.95,5.55.44,7.6-.93,3.67,1.17,6.98.93,9.98-.31,3.95-1.08,7.58.4,11.35-2.07,8.67.37,15,.47,16.63l.5,8.05c.17,2.79,1.31,4.83,1.15,7.39-.37,5.82-.12,11.74.23,17.87.43,7.33,2.65,7.54,1.76,13.7-.31,2.16-.28,4.9.11,6.94l.91,4.75c1.05,5.51,2.43,8.11,2.25,12.09l.96,4.37c-1.3-2.02-.63-.09-.84,1.01l1.32,2.68.7,5.6c-.83,2.76-1.39,5.6-.4,8.62l2.24,6.81c.12.35,1.8.72,1.71,1.07l-.47,1.78c-.54,2.07.26,5.1,1.08,6.79.69.1,1.72.27,1.46.47-.21.15-1.23,1.21-1.22,1.46l.3,7.33,3.1-3.26,1.96,3.76-.52-7.69c-.04-.61-.82-1.38-1.52-1.76l.22-7.42c-3.82-9.88,4.05-11.32-2.04-17.3ZM386.08,599.68l1.37-3.72c.02.71.5,3.22,1.23,3.56l2.88,1.31c-.31.42.7-.94,1.04-1.4.27-.36-1.22-1.88-1.21-2.42l.25-16.99-2.23,5.89c-.94.19-2.33.42-2.26.89l.27,1.78-2.91,2.69,2.72-1.27-1,5.54c-.98.57-1.77,1.23-1.48,1.75l1.32,2.39ZM431.66,643.44c-.39-3.07-1-5.27-1.49-7.35.37-3.78,1.49-8.33-.72-11.74l.41-3.06c-.6-1.88-.86-4.63-.74-7l-2.65-2.07c.87-1.6,1.68-3.83.89-5.89-1.66,2.78-3.85,6.67-3.58,9.84l.29,3.4c.22,2.63.64,4.85,1.07,7.64l1.91-2.09c-.98,5.28-2.41,14.76.07,19.45.56,1.07,4.69,0,4.55-1.14ZM386.15,754.43c2.4-3.56-.59-7.06-.51-10.25l.14-5.19.18-5.93c-.78-.02-1.93.25-1.85-.12l.38-1.7c.83-3.69,1.59-7.7,1.56-11.12-.97-.39-2.07-.55-1.98-1s.71-1.79.73-2.32c.06-2.34.51-6.51,1.63-9.11.32-2.68.04-5.75-.22-9.07l-2.02,2.72.84-4.26-1.13-10.99-.68-6.71c-.13-1.24-.96-3.24-.97-4.67l-.06-8.69c-.02-2.6-2.33-7.32-.83-11.81-.53-2.72-.94-6.32-3.17-7.21-.27-.11.86-.69,1.47-1.06-1.8-2.62-1.19-6.81-.01-9.88l-1.31-1.93.54-11.06-5.11-.06,1.61,3.12c-2.06-.25-2.57-2.97-1.75-4.62l4.55.97c-.05-4.57-.25-7.81-1.66-12.4l-3.79,3.53-.44,9.66c-.08,1.68,1.4,4.46,2.04,6.26-.4.98-1.62,3.09-1.52,4.12l.88,9.08c.13,1.35,2.35,3.75,1.77,4.92-2.61,5.2.03,12.92.18,15.77l.67,12.87c.22,4.15-.47,8.19-1.4,12.15.26.29,1.1,1.14.76,1.21l-1.83.37c-.31.06-.55.78-.48,1.09s.54,1.19.79.99l1.19-.96c.88,5.46,1.88,10.43,2.15,15.76.11,2.11-.24,5.64.05,7.56.12.84-.95,2.47-1.27,3.17.11,1,1.31,3.56.96,4.74-1.75,5.8-1.27,12.58-1.46,18.39-.09,2.68.3,4.88.91,7.88.73,3.62,1.2,7.96,1.51,11.82l.37,4.61c.1,1.26.3,3.02.65,4.07l1.71,5.14c1.01-.21,2.61-.54,2.33-.48l1.85-4.61c.31-2.37.74-4.58,1.3-6.73l-1.6-1.16c.2.15-.57-4.01,1.34-6.84ZM434.91,723.2l-3.22.1,1.49-3.07-.26-5.34c-.02-.5-.12-1.3.17-1.47l1.56-.9c-.81-1.14-3.74-4.29-3.15-5.93l2.2-6.09c-.26-2.11.36-5.61,1.03-7.25.17-.4-.91-1.5-.72-1.82l.93-1.58c-.78-.06-1.63.17-1.69-.21l-.33-2.05c-.06-.37,1.02-.52,1.12-.14l.51,1.83c.97-1.3,1.03-3.81.41-5.2h-2.12c1.98-7.33-1.16-3.18.02-10.27.27-1.62-.31-3.35-1.16-4.49,1.62-1.98,2.24-5.16-.25-7.11,1.83-3.24-.16-5.9-.32-8.71l-.43-7.86c-1.53-.74-4.19,1.37-4.34,3.34-.13,1.77.57,4.3-.21,6.25-.33.83-.77,2.72-.18,3.06.49.28,1.15.42,2.43.74,1.55,3.54-2.56,7.17-.9,8.24l1.64,1.06c-1.26,1.29-1.2,1.89-1.34,3.63l-.52,6.87c-.02.28-.96,1.1-.8,1.33,3.15,4.48,1.38,7.68.79,12.39-.29,2.32.32,5.19-.1,7.48-.56,3.03.24,6.61,2.93,7.42-.5.18-2.47.11-2.51.7s-.11,1.95-.11,2.74l-.1,11.1-.08,7.2c-.01.89,1.03,2.95,1.22,3.47l1.36-.67c.21-.1.47.12,1.05.35.1-.3.37-2.31.7-2.94l3.29-6.2ZM328.74,744.11c-2.05-3.7-1.57-6.68-.25-10.35l-.1-7.99c-.4-.36-1.62-1.25-1.41-1.79l.66-1.68c1.34,1.63,1.28,1.24,1.17.1.12-1.57.17-3.58-.3-4.42-.4-.71-2.08-1.14-2.73-1.38,1.48-1.09,2.17-2.57,1.92-4.04l-3.04.15,2.28-3.69c.13-.2-.77-1-.87-.78l-.71,1.48-1.43-6.03c-.14-.6.26-2.06-.23-2.38l-1.71-1.11c.32-1.1.71-2.69.29-3.44-.47-.85-2.75-.66-3.05.17-1.55,4.29.32,8.65.83,12.78l1.14,9.21c.39,3.17,0,5.87-.09,9.05.02-.66.93,10.97,1.42,11.4-.89,2.77-1.7,6.01.88,8.21l-.83,1.28c-.16.25.8,1.24.81,1.54l.25,5.61c.03.59.85,1.7,1.05,2.26l2.18,6.02,1.62-4.32c-3.83-3.26,2.46-11.85.23-15.88ZM335.79,733.18c2.43-.52,3.72-.64,3.86-1.29l.69-3.03c-.92.61-1.19,1.06-1.63.92l-2.85-.89-.08,4.27ZM299.92,867.31l-2.29-4.75-1.47,1.24c2.1-10.8-3.38-9.03-3.78-16.61-.08-1.46-.47-2.56-.97-3.9l-2.43-6.57c1.35-2.44,1.42-5.41-1.29-7.11-.42-1.28-1-3.28-1.52-4.5l-2.82-6.62c-.27-.36-1.14-.98-1.13-1.42s.04-1.52.08-2.04l.77-9.25c-5.54-.8-.17-6.93-5.16-9.14l2.65-4.83-1.6.14-1.32-7.59c-.35-2.04,1.35-5.12-.5-6.52-2.32-1.75.34-1.91-2.65-5.55-.18-.22.79-1.11.76-1.39l-.65-5.31c-.16-1.31-.59-3.15-.92-4.46,1.36-6.49.61-13.67-2.23-19.53,2.54-4.28,1.96-5.28-.06-10.06-.14-.33-.32-.08-1.7,1.33.73.46.22.13-1.06-.67l.1,9.41c0,.56-.78,2.28-.32,2.25l1.65-.1c.68-.04.76,2.06.29,2.57l-2.02,2.19,1.84,1.21c.41.27-3.72,2-.28,9.86.52,1.2-.71,2.79-1.24,4-1.72,3.88.81,8.21,1.24,12.09l.74,6.59c.26,2.29,1.14,5.04,1.92,7.5-2.4,3.52-.93,7.38,1.74,10.12l1.07,12.23,1.11-1.28c.74,4.8.6,9.06,2.79,12.86l2.26,3.92,1.46,4.09.67,7.97,3.15,5.1,1.55,5.06.45,2.38.9-1.02c.16-.18.96.05.92.28s-.23,1.27-.17,1.49l1.98,7c1,3.56,4.54,5.94,7.41,7.96l-1.16,2.41c.8-.02,2.13-.3,1.97-.84-.14-.46-.56-1.8-.74-2.17ZM429.38,760.39c-.27-2.96-.31-4.49.08-7.37.12-.85-1.96-1.31-2.5-.69-2.42,2.74.53,5.2,2.42,8.06ZM429.5,769.61l.11-7.47c-2.12-1.06-5.64.67-5.06,2.68l1.43,4.98,3.52-.2ZM363.89,898.58l.86-4.06c.21-.98.95-2.49,1.26-3.56l1.86-6.32c4.61-15.68.66.56,2.98-16.36l.97-7.06c2.13-2.41,1.99-4.01,1.89-6.79-.43-11.87,1.09-3.94.9-11.91-.2-8.35,3.22-2.5.57-16.22l-2.15-2.58c.31-2.82-.2-5.13-.47-7.47s-.15-4.49-1.21-6.92c-.73-1.67.08-3.58-.02-4.77-.25-3.07-1.86-6.38-1.31-9.57s-.06-7.06-2.73-9.06c-3.52,2.03-3.15,6.69-3.52,10.08l-.54,4.84-.77,7.22c-.26,2.43-.95,5.4-.01,7.39l1.39,2.97c.29.63-1.13,1.84-1.78,2.3-5.26,3.7,1.65,5.69-3.38,16.12-.05,3.27.84,7.49,1.17,11.2.47,5.17-2.91,9.63-2.11,11.95.72,2.1.85,4.07.51,5.82-.33,7.29,2.69,5.46-.69,11.17,3.94,5.54,1.04,7.96,1.62,11.62l.78,4.87c.24,1.53,2.41,3.84,3.95,5.07ZM329.34,834.78c.19-.85-.47-3.28-1.23-3.14-.61.11-2.58.53-3.22.73-1.61,2.7-.72,8.35,2.72,10.21l1.74-7.8ZM405.41,880.53c-1.85-6.15,4.3-8.15,1.23-16.88-2,1.16-4.24.34-5.28-.88-3.59-.42-.78,2.6-3.86,8.11.31,1.51,2.4,3.98,3.18,5.58,1.09,2.26,2.21,4.29,4.73,4.06ZM329.75,903.62c1.97-.05,3.72-1.91,5.42-2.87,2.44-1.39,3.98-4.95,2.89-7.72-5.53-1.08-4.95-.31-8.85,4.15l-.65-1.85.06,4.09c-.26,1.03-.07,4.24,1.13,4.2Z"/>
  <path class="cls-1" d="M667.84,885.02c-.08-.31-1.6-.9-1.42-1.15l.94-1.32c-.8-1.63-1.55-3.68-1.91-5.53l-.65-3.36c.99-2.09-.38-5.93-2.82-6.91l-.93-7.42c-.3-2.42-1.84-4.81-3.65-6.85.3-3.72-.87-10.4-3.37-14.27-.81-1.25.04-4.55-.38-6.08l-3.22-11.66c-1.02-3.71-1.52-7.09-1.91-10.82l-.72-6.86c-.8-7.7-2.33-8.72-2.51-14.03.4-.77.01-.02-.66,1.29l-.96-1.36c-.3-.43.56-1.36.98-1.98l-1.5-8.97c-.76-.8-2.26-1.9-2.05-3.4.75-5.37.51-10.51-.78-15.43.17-.44.78-1.18.59-1.53l-1.03-1.94,1.2-2.07c.27-.47-.24-1.77-.63-2.43l-.57,2.07-.3-4.02-1.48-8.28c-.35-1.97-.44-3.85-.57-5.87l-.43-6.75c-.03-.49,0-1.41-.28-1.49l-1.09-.31-1.06-8.05-.5-6.74.39-3.13c-2.52-8.13,2.87-10.98-3.04-13.53l-.17-6.67c.1-.58,2.14-1.72,1.85-2.28-.33-.66-1.22-1.66-1.79-2.34-.22-3.62-.04-8.92.2-12.93l-.81,1.26-1.17-7.48c1.04-2.4.64-4.78.61-7.22-.18-11.65-2.37-6.27-.22-14.8.1-.41.47-2.07.06-2.1l-2.21-.15c3.22-1.32,1.3-6.58.62-10.33-.09-.47.85-2.22.41-2.37l-1.97-.69c.66-2.05,1.04-4.61,1.17-7.26l2.24-2.65-1.08.25c-.3.07-.9-.84-.64-1l1.3-.82c.18-.11,1.1-.23,1.32-.26.3-.05.11-.73.09-1.12-.02-.31-1.04.04-1.62-.01-.83-.09.41-2.16,1.23-2.93-2.19-3.78-2.79-7.95-1.71-12.4,2.01-8.28-1.82-7.9,1.16-13.99-3.33-10.5,2-16.94-1.22-21.32.52-1.47,1.64-3.69.83-5.71s.06-4.16-.04-6.01c-.13-2.42-.07-5,.19-7.59-1.37-1.71-3.77-5.14-3.36-7.49l1.93-.27c.22-.03.49-.64.31-.76l-1.67-1.01c1.56-3.34.34-7.03.08-10.76l-.41-5.78c-.19-2.69.33-4.78-1.27-7.15-1.48-2.18-.7-4.04.23-5.51l.21-4.29c1.45,1.84,1.6-.55,1.33-1.07-.36-.68-1.26-2.02-1.57-2.44l-.18-5.05c-.07-1.89.35-3.47-.61-5.2l-.7-1.25c-.15-.27.81-.25,1.27-.33-.89-8.75,1.05-8.24-1.29-17.45-1.05-4.12-.79-7.97.57-11.96l-.38-5.65,2.69.91-1.28-1.72,2.88-5.86c-.7-1.83-.84-1.47-1.49.35l-2.76-4.32,1.73-5.42c.11-.35.68-1.28.84-1.57s-.73-1.19-.96-.95l-1.7,1.85c0-1.43.69-3.01,1.82-4.43l-2.07.25c-2.17.27,1.59-3.83,1.69-5.23l1.74.51c.46.13.92-1.77.8-2.28-.78-3.13-.52-7.17-.45-10.42l.12-5.45c.05-2.08.51-7.36,1.27-9.46l-1.67-.76c1.08-.8,2.15-1.38,2.07-2.05l-.37-3.22c-.04-.36.59-1.19.72-1.54s-.71-1.14-.71-1.52v-3.96c1.33-1.71.27-3.92.25-5.61l-.05-5.31-.34-15.24-.11-8.22c-.04-2.85,1.43-.5.72-1.62l1.02,1.63c.42-.88-.52-2.65-1.37-3.54.3-.95.91-3.05.92-4.21l.06-4.67c-1.51-1.8.4-7.61,2.18-9.32-.88-.21-2.07-.42-2.13-.99-.09-.97.75-2.06,1.67-2.72-1.4-2.69-2.42-6.06-.3-8.51-.44-.88-1.21-2.53-.87-3.19s1.33-1.55,2.17-2.35l-1.44-10.77c-.19-1.4.32-4.53.52-5.87,4.24-4.42,2.34-11.88,1.06-17.08l.7-1.29c.2-.37-.69-1.2-1.05-1.74,2.99-4.51.39-10.77,1.46-11.02l2.07-.5c-.11-1.49-.83-3.24-2.11-5.14l2.16-5.35-.87-4.13,1.52,1.56,1.15-6.76c.29-1.7.17-3.06,1.46-4.58l.93-4.4c2.18-10.28-2.45-6.19.42-11.66.02.02-.5-.31-.77-.48-.33-.21.56-1.77.53-2.16l-.64-7.28c-.14-1.55-.65-3.6-.59-5.18l.3-7.66.73-4.7c.03-.22-.54-1.21-.33-1.28s.88-.29,1-.33l-.11-3.17c2.5-4.49-.75-9.27,1.99-5.47l1.19-7.29c.19-1.16,1.58-9.53,1.69-9.5l-1.32-.43c-.28-.09-1.04-1.08-.75-1.07l1.31.04c.86.03,1.51.23,1.83-.09,4.11-4.2,2.79-2.33,7.07-6.7l9.21.51c1.12-7.53,3.03-6.61,3.46-16.06.83-.47,2.12-1.53,2.2-2.37l.49-5.54c1.33-.28.93-.19.21-.04-1.47-1.02-2.18-1.76.35-1.6,1.03-2.35,2.84-8.25,1.82-11.02-.41-1.11,1.1-2.91,1.32-3.99.61-3.08,1.33-6.48,2.18-9.72.49-1.88,1.77-2.87,2.34-4.03l4.3-8.78c1.5-3.07,12.3-6.36,13.93-4.92l7.53,6.68,1.85,4c.71,1.53,1.47,2.28,3.56,2.8l.2,2.67c3.92,1.81,2.79,2.95,6.42,10.02,4.03,7.84,3.57,2.71,3.99,7.06l.32,3.32c.92.63,2.87,2.12,2.99,3.48.39,4.19,2.85,6.97,4.06,10.37l2.15,6.06,5.09,14.39c.6,1.71-.52,3.68-1.73,5.33l4.44,4.95,6.67,6.41,3.21,3.71c.55.34,1.07.67.86.53-1.08,2.75.12,3.69.74,5.75,2.52,8.42-.74,12.74,5.84,18.02l-.76,3.81c1.46,1.28,2.36,2.29,2.9,3.8.42,1.2-.46,3.06-1.08,4.35,1.02,3.09,3.17,6.84,3.68,9.86.46,2.74-.12,4.98,3.17,6.09v4.23s1.75,7.6,1.75,7.6c.33,1.44.74,2.45,1.24,3.84l2.13,5.99c-3.88,2.46,1.09,6.59,1.31,15.01l.32,12.36,1.34,2.24c-2.08,1.77-.33,3.85-.18,5.64l.49,6.01-.98,8.05.74,8.22c.49,5.44-2.08,7.23,1,6.26l-.13,7.26-1.69,3.93,2.23-1.33c-.3,2.5-.7,5.72-.84,7.95-.04.71,1.66,2.27,1.34,2.89l-1.62,3.19c-.32.62.91,2.1,1.34,2.68-.52,3.36.34,7,.64,10.28.32,3.53-1.04,7.33,1.29,10.6.72,1.01.46,3.81-.17,4.33-.82-1.56-1.05-1.91-1.49-.42l2.56,8.33c.31,1.01-.57,2.87-1.4,4.24-.44.73.58,2.26,1.43,3.03-.64,3.25-.46,7.42,1.68,10.46l-.63,5.53c.16-1.4-1.27,2.08-.44,1.92l1.37-.26c-.5,2.82-.62,5.55-.47,8.55l.24,4.55c.17,3.22-.17,6.24.29,9.51.69,4.86.08,9.69-.21,14.57-.24,4.02-.14,7.79.02,11.8.42,10.4-1.42,10.29.76,19.7l-1.3,6.5c-.09.47-.5,1.57-.61,1.94-.14.46.66,1.08.86,1.46-.1,2.23-.06,4.8-.04,7.36.03,3.02-1.08,6.17-.5,9.17.48,2.48.79,6.19.57,8.17-.02.2-1.58.79-1.7.62,3.24,4.55-.16-1.38,1.8,3.32l1.28,3.08c-3.97,8.22-.94,4.24-1.08,15.6-.03,2.43.16,4.67.64,6.62l-1.54,1.24c-.37.3.96,1.74.94,2.26-.08,2.1-.13,5.71.12,8.17.37,3.63-2.6,5.13-1.55,5.89l1.86,1.36c-1.13,1.02-3.2,3.04-2.89,4.24l1.99,7.73c-1.5,4.23-.5,9.15-1.22,13.1-.99,5.45-1.97,10.43-.82,15.96.48,2.32.04,5,.16,7.39.27,5.32-.2,10.47-1.5,15.61-.82,10,1.04,6.1.53,13.18l.12,2.77c-1-1.59-1.15-1.69-.61-.14-.09,2.72-.49,5.67-1.16,7.72l.35.88c.07.18.55.86.63.68l.9-1.91c.59,3.51-1.45,1.21-1.31,6.38l.15,5.7c.07,2.8-.22,10.96-2.03,14.12l1.11.06c.29-1.73.45-2.15,1.01-1.22-1.56,8.27-2.02,5.43-1.47,14.95.02.29.86,1.41,1.09,1.72.29.4.24.6-.96,1.13l.35,8.16c.11,2.52-1.08,5.79-1.51,8.01,2.12-.5,1.78,4.72,1.57,5.69-2.14,10.07,1.27,8.66.25,10.67-3.21,6.32,1.91,5.72-1.98,15.07l.48,4.55.93,8.77c.32,3,.7,5.64-1.52,7.8l1.14,1.93c-.2-.35-2.03,8.97-3.57,10.82l1.23,5.14c-2.32,1.08-1.21,2.36-1.53,4.11l-1.68,9.06-1.38,8.36c-.26.72-2.49,1.55-2.28,2.27l1,3.38c.3,1.01-.23,3.09-.54,4.43l-2.04,8.63.26,4.99c-.1.11-.9.89-.9.99v3.69c2.74.01.95.43,0,.83-.48,2.89-1.43,5.28-2.74,7.55l-.06,3.65c-.03,1.78.22,3.38.58,4.87.14,1.4-2.62,3.68-2.99,5.1l-1.96,7.6c-2.25.41,1.18,4.89-.95,7.22-.8.78-1.84,1.94-1.93,2.79l-.84,8.3c-.06,0-.44-1.24-.45-1.64l-.05-1.6c0-.23-.48-.36-.87-.58-.32-.18-.45,1.04-.33,1.4l1.82,5.44-1.98,5.15c-1.35,3.5-.77,6.79-1.07,11.1.7-.4,1.01-.64,1.08-.85,1.22-3.79.32,1.76.31,1.76l-2.34.86.82.76c.2.18-.35.81-.58,1.12l-2.46,3.34c1.03.38-2.95,9.49-3.19,12.2l-.25,2.78c-.05.53-1.32.59-2.34.89l.72.48c.21.14.07,1.04-.13,1.2l-3.59,2.88-1.47,3.35-3.35,4.63-3.22,1.17c-8.9,3.25-3.23-.1-11.79,2.65-.34.11-1.11.53-1.2.33-.13-.27-.58-.84-.87-.87l-4.91-.59-6.24-.75c-.4-.05-1.31-1.07-1.67-.96l-2.03.63c-.32.1-1.26.36-1.15.53l1.02,1.65-3.38-2.3c-1.87-.56-2.94-1.26-4.32-2.33l-3.72-2.89c-1.41-1.09-3.76-1.21-3.62-3.85.2-3.93-2.32-7.24-4.98-9.37l-1.74-3.13c-.1-.17-.08-.82-.02-1.02l.46-1.44c-1.4-2.06-2.5-4.75-3.25-7.26l-2.15-7.14c-.48-.29-1.77-.51-1.9-.99l-.68-2.51ZM695.08,159.64l3.25,2.88c1.78-.92,2.23-.61,3.76-.2l5.49,1.47c3.43.92,7.92.5,11.47-.56,3.91-3.51-6.64-23.26-6.59-23.06l-1.17-4.39c-.34-1.26-1.43-2.82-1.87-4.03l-2.26-6.2c-1.72.03-.96-.2.48-.62l-6.68-8.77c-1.44-1.89-2.58-3.33-4.11-5.56h-4.39s-3.13,5.4-3.13,5.4l.2,6.88-2.07,1.6c-.07,3.92-2.12,7.3-4.49,9.53.36,2.23-.4,4.46-.85,6.4l-1.56,6.65-.86,4.23c-.48,1.82-.78,3.17.13,4.82l1.53-2.69c.07.29-.15,2.27-.41,2.99-.4,1.09-4.9.95-3.26,1.9l1.47.84c1.08-.13,1.15.07-.71,1.17.01.02.74,1.06,1.06,1.49.25.34,1.53-.26,1.95-.42l5.48-2c2.1-.76,6.43-1.25,8.14.26ZM693.65,354.78c2.81-3.64-.59-1.77,1.34-8.96l1.53-5.71c1.5-5.59,1.89-8.89.94-15.44l1.24-5.44-.76-1.46c-.09-.18.57-.03.77,0l1.38.21c2.71-9.6-4-5.77-.37-10.24,1.63-2,1.34-4.83,1.62-7.26l1.52-13.37c.39-3.44,2.62-3.43,2.5-9.77l-.13-7.19c0-.38,1.32-.98,1.1-1.29s-1-1.46-1.02-1.84l-.43-9.87c-.15-3.5.18-6.13,1.61-9.28l-2.5-1.4-.22-9.21c-.03-1.33-2.38-2.72-.92-5.07.7-1.13-.25-3.51-.1-4.66.23-1.7.36-3.54-.39-5.37-1.09-2.66-1.38-4.54-4.45-4.79l1.96-.82c.18-.08-.3-.77-.5-.78-.76-.03-2.88-.15-2.96.51l-.35,3.02c-.12.99.11,2.98.31,4.13-1.69,3.78-3.37,7.78-3.99,11.96l-.76,5.1c-.06.41-.39,1.33-.5,1.73-.08.3.9,1.16.88,1.47-.08,1.48-1.9,4.24-2.06,5.7-.68,5.92-.85,4.45-.88,8.65,0,.47-1.48.94-1.66,1.38l-2.13,4.96c1.74,3.98.7,7.81-1.27,11.07l2.6.93c1.25.45-1.05,3.19-.97,7.36.07,3.63-.03,7.33-.65,10.83-.29,1.63-2.05,3.95-1.65,5.54.81,3.2,1.32,6.02,1.21,8.9-.53.68-1.32,1.33-1.19,1.8l.56,2.03c-1.57,1.33-2.13,3.6-1.78,5.84l.91,5.88-.9,3.52c.37,5.69.17,10.89-.8,16.56l3.61,5.48c1.98.71,3.15,1.4,3.83,2.74l3.05.81c-.83,1.44-1.3,1.95-1.04,2.55s1.94,1.65,2.01,1.25c.13-.8.39-2.07.86-2.67ZM737.36,276.01l-1.59-1.29c-.66-.54,3.34-.68,2.62-1.81l-1.11-1.74c-1.07-1.68-1.46-6.64-1.34-9.24l.34-7.63-1.7,4.31c-.18-5.67-.19-11.4-2.21-16.6-.59-1.53-.96-3.05-1.31-4.44-.27-1.04-1.49-2.29-1.45-4.11.03-1.63-.54-3.22-1.16-4.87l.67-4.47-2.22,2.3c.08-2.41-.51-3.52-2-5.15-1.01-1.11-4.05-1.66-5.38-.91-1.69.95,1.64,2.64,1.64,3.53l-.03,8.54,2.59.58-.94,1.5c-.58.93,1.08-.44,2.29,5.32l2.13,10.12c.33,1.56,1.7,9.33.8,10.48l2.12-.41.93,8.41c.24,2.21-.73,4.95-.11,7.4l1.84-1.42c.26-.2.91.69.85,1.02l-.41,2.05,4.14-1.49ZM755.29,256.72l.28-6.04-1.45,1.32c-.24.21-1.24-.69-1.06-.95l.74-1.03c.49-.68-.34-2.38-.86-3.06-.44-.57-2.5-1.12-2.92-.44-2.13,3.45-1.13,8.38-.12,11.92.64-.6.98-1.02,1.11-.88l.8.92c.45.51,2.14.69,2.76.3.48-.31.69-1.29.72-2.07ZM763.52,361.7l-2.21-.17c-.21-.02-.35-.41-.19-.53l.87-.66c.33-.25,1.19-1.08,1.58-1.46.21-.21-.31-.41-1.35-.88l.28-7.1c.12-3.01-.5-12.48.05-12.88l1.42-1.05c-4.82-3.32-1.64-12.35-5.33-12.21-1.11.04-3.03.86-3.1,1.81l-.45,6.12,1.56,1.34c-1.88,3.17-.94,13.77.36,15.51,1.61,2.17.97,3.66.8,6.01-.28,3.73-.36,6.98-.4,11.23l6.13-5.08ZM681.05,462.17l-.12,2.49,3.11.69,1.35-6.62c.45-2.21-2.84-9.2.31-11.31-1.52-5.66-.61-9.85.36-15.37.59-3.39.53-7.24.89-10.84l1.44-14.41.39-4.62.72-7.21c.11-1.1,2.06-2.41.42-4.39l2.05-1.12c.46-.25-.29-2.54-.19-3.08.85-4.7.47-11.94-3.19-15.82.11-2.12-1.36-6.94-2.27-7.91-.04-.04-4.28-.35-5.69,2-.46.77-.27,2.74.17,3.73.99,2.23-.32,3.51-.59,5.02-.34,1.88-.52,3.99-1.31,6.06l-.46,1.22c-.09.23.8.5.87.26l.54-1.83c1.46.56-2.11,7.08-2.34,8.48-.53,3.24,1.24,6.66.91,9.84l-.56,5.34c-.2,1.95-.25,3.44-.44,5.22l-.59,5.32c-.21,1.92,1.22,4.96.22,6.76-.68,1.23-1.3,2.5-1.52,3.37-.17.68,2.28,1.47,2.33,2.16l.66,10.16c.3,4.68,1.65,8.96,1.34,13.46.5,1.06,1.59,3.27,1.48,4.32-1.61,2.31-2.06,5.91-.31,8.65ZM759.35,377.54c.58,1.05,1.54,2.08,2.22,1.86s2.65-1.51,2.54-2.21l-1.04-6.65c-.1-.64.58-2.71.15-3.19-.36-.4-1.13-1.23-1.17-1.25l-.99,4.61-1.51-2.48c-.91,2.17-.88,4.3.19,6.87-.26.12-1.65.16-1.47.5l1.07,1.94ZM716.01,510.72l-3.47.57c-2.87,1-3.36,5.04-1.55,7.04l2.97-1.03c.75-3.85,3.03-1.59,2.05-6.57ZM709.79,586.05l-.2-4.86c-.02-.54,1.02-1.33,1.42-1.58-.14-.13-1.33-1.21-1.11-1.02s1.97-.68,1.98-.98c.09-5.37-3.23-9.04-.92-9.55l1.82-.4c-.51-.73-1.38-1.4-1.07-1.55l1.29-.62c-.44-.72-1.19-2.1-1.44-2.98-.22-.79,1.25-1.88,2.3-2.7l-1.65-3.76c.83-1.8,1.21-3.42.97-4.5l-1.81,2.33c-1.3-4.22,3.24-4.13-.94-6.12-.38-.18,1.71-1.1,1.98-1.39.05-1.62-.27-4.65-.48-6.48l1.36-4.63c-2.03.97-2.45,3.27-4.4,1.34l-1.28,5.31c-.41,1.7-.89,3.18-1.47,4.76l1.42.31c.27.06.31.9.27,1.05l-2.56.68c-.8.21.85,4.59-.17,9.71-1.86,9.3.99,11.82.59,22.78-.11,2.95.4,6.09-.23,9.08-.35,1.65-.44,3.91-.13,5.38l4.57,1.23c-.69-2.33-1.18-2.88-.59-4.65l1.89,2.98v-5.27c-2.14.21-1.77.19-1.8-.25-.03-.56-.25-1.65.07-1.61l1.78.25c.36.05.19-1.14-.16-1.3-.26-.12-1.29-.72-1.31-1ZM718.63,577.25c.98-1.51,1.1-4.62-.03-5.48l-3.5-.8c1.22,2.35,1.74,5.75,1.38,8.65.03.98,2.75,1.17,3.87.82l-1.72-3.19ZM749.25,624.12l.16-6.12c1.01-1.81.99-.43.64.93l-.09,1.69c-.02.32,1.04.46,1.08.13.69-5-1.68-3.12-.42-13.87.5-4.25-1.34-8.26.67-14.64,2.55-8.12-1.12-3.01-.19-11.84.29-2.8-.28-6.55-.85-8.98-.73,1.27-2.06,2.62-2.49,3.51-1.98,4.14-1.72,10.32-2.2,14.89-.31,2.92-.71,5.92-.66,8.59.05,2.33.97,5.17-.89,7.27-.67.75-.43,3.44-.27,4.01l1.98-2.77-1.06,8.99c-.16,1.36.19,4.23.34,5.69l4.23,2.53ZM651.24,586.46c.48-1.64.92-4.59.14-5.9l-2.35-3.97.72,5.01c.04,1.7-.22,2.96,1.49,4.87ZM709.28,610.54c-.11-.11.58.55.82.79.14.14.39.11.39-.1l.04-1.49-1.81-.77c-.42-.18.74-1.73.88-1.86l-2.27-.64c-.4-.11-.35-.98-.77-1.71-1.71,2.22-.3,4.51,1.18,6.16l-2.41,1.93,2.67,12.12c2.84-.34,1.61-12.53,1.29-14.43ZM718.41,627.67l-1.92,5.04c.06.51.75,1.98.5,2.5s-.73,1.24-1.33,2.24c3.98,2.43,3.97-11.48,2.76-9.77ZM717.16,676.39c1.07-1.25,1.57-2.98,1.07-4.54l-1.74,3.6c-.75-.93-1.5-3.13-1.51-4.5,0-1.23,2.08-2.66,3.33-3.14.38,1.61.32,2.27,1.26,3.01-.22-2.57-1.24-5.37-1.26-7.85l-.06-8.5.35-9.76c.02-.64-.23-1.99-.38-2.55-.12-.42-1.74.3-1.68.7.87,5.46-3.8,5.76-2.43,7.2l1.06,1.11-2.47.77-.27,3.59c1.6,2.48.73,5.61.64,8.17,0,.26,1.49,12.73,2.12,14.97l1.96-2.28ZM671.41,682.36c1.11-2.05,1.51-3.4,1.31-5.04l-.42-3.58-3.05,1.94,2.16,6.69ZM673.48,698.71c.3-.15,1.16-1.63.86-1.74-.22-.08-.42-.16-.65-.21l-.71-.14c.78-1.8.48-3.39-.53-4.69l.86-1.63c-4.05-.65-5.04,3.06-4.28,6.11l3.16-2.4c-.26,1.56-.44,2.48-.67,3.44l-.46,1.9c-.08.34.71.2,1.02.05l1.4-.69ZM674.74,704.52c.35-1.49-.46-4.06-2.25-4.02-.38,1.08-.4,3.52-.04,4.54.33.92,2.3,1.22,3.74,1.27l-1.44-1.78ZM672.47,733.21l2.11.2-2.1,2.8c2.16,1.08,3.5,1.67,5.57,2.46l-1.12-6-.89-5.71c-.42-2.68,1.8-6.38-.35-8.81l.51-5.43c-.84.28-2.28.48-3.15.25-.77-.21-.68-2.18-.76-3.75l-1.89,3.83c-.14.29.28,1.25.58,1.1l1-.49-.5,4.8,1.15-2.9.54,4.74.69-4.78,1.69,5.25c.22.67-.11,2.92-.77,3.13l-3.02.99c2.71,2.46-1.61,8.1.7,8.32ZM731.6,729.6l3.13-.82c.14-1.91-.1-3.88-.77-6.13l2.28-.82-3.38-4.76c-.12.07-1.31,1.68-1.09,2.28l.93,2.6c-.35-.02-.98-.04-1.1-.31-.09-.19-.4-.67-.9-1.51-1.24,1.51.79,3.83,2.09,4.62-.71,1.25-1.14,2.97-1.18,4.87ZM753.86,754.42l1.49.95c-.87,1.37-1.5,3.67-1.06,4.43l3.18-.89,1.32-5.99c.93-4.19,1.4-14.14.22-18.93l.89-6.39-1.79,2.63c-.99,1.87-1.22,3.52-1.22,5.83l-2.26-2.08-1.15,4.26c-.3,1.11-.07,2.7.02,3.87.08.99-.96,2.96-.29,3.9,3.12,4.41-1.31,7.17.65,8.41ZM661.78,771.3c.83-2.13,1.27-3.44,1.04-4.75-.27-1.56-1.48-2.05-3.42-2.9l3.47-1.17-3.79-3.79c-.72-.72,1.02-2.71,1.86-3.6-.34-6.99-.14-7.27-3.45-13.12,2.31-1.95,1.18-4.09.2-6.14l.06-3.18-2.74,2.39-1.35-2.76c-.17.65-.28,1.42-.29,2.34-.01,1.05.45,1.93,1.85,1.67l.78,3.79c4.17,3.61-4.03,4.28-1.11,9.55-1.06,1.31.08,7.46,1.51,9.19l.56,8.87,2.45-.99-1.97,3.03c-.41.63.55,2.7,1.13,3.15l4.26,3.27-1.06-4.85ZM682.08,792.06c.86-1.55.71-1.78,1.06-1.93l2.36-1.03-2.22-1.83c-1.64-1.36,1.85-5.66.67-7.67l-2.24,3.11c1.11-13.58-.16-7.78-1.39-15.18,0-.03-.77-8.08-.4-8.53l-1.78-2.53.36-9.29-1.85,2.83-.73-2.13-.98,2.15c-.13.29-.69.26-1.34.42l-.55,5.5,2.84,4.71c2.16.13,2.37.72.23,1.14-.4.15-.84,2.06-.42,2.48,1.32,1.33-.08,4.26.35,5.62l2.9,9.27c1.83,5.87-2.81,4.93,2.17,9.51l.97,3.37ZM705.42,804.34c.85,1.32,1.09,1.68,1.06,1.65l2.56-8.81c-.26-1.81-.85-4.58-2.68-5.96l2.39-.64v-6.96c.01-1.24-.64-8.51-1.3-8.07l1.59-1.06c-1.7-2.32-2.76-5.23-1.5-8.01l-3.02-5.01c-.14-.24-1.35.04-1.63.07-.19.02.39.53.51.67l.53.7-2.91.86c-.54.16-.8,2.36-.39,2.94,2.58,3.64.42,9.71-.23,13.6-.53,3.2.05,6.27-.71,9.38-.73,3-.31,6.26-1.58,9.01l1.16.02c.23,0,.42.7.43.94l.2,5.86,2.31,1.68c-.38,1.64,1.01,4.32,2.38,4.86.52.21,2.12-.53,2.05-1.08l-.25-2.27-1.23,1.66.27-6.04ZM708.37,868.27c1.24,1.74,4.03,1.96,4.86.32l-3.23-.59c3.42-.16,4.52-.87,6.35-2.27,2.41-1.85,4.22-3.31,5.15-6.4l.58-1.92c.08-.28,1.12-.01,1.08-.05.06-1.66.57-3.16,1.12-5.04l1.8-6.25c.76-2.64,1.18-5.45.77-7.95l.84-1.74c.33-.68,1.24-1.69,1.98-2.44l-1.79-1c-.31-.18.24-1.51.32-1.47.54.7,1.39,1.74,1.71,1.68,2.64-6.26-4.57-6.09,3.01-20.23,1-4.58-.35-10.37.13-15.35l1.35-13.88c.21-2.12.15-2.82,1.87-4.1,2.23-1.66,1.86-4.78.88-7.21l-5.03,1.9-1.69,6.69c-.31,1.23-1.94,3.31-1.79,4.66.38,3.27-.26,6.04-.61,9.65l-1.25,12.89c-.03.31,1.35,1.57,1.04,1.61-2.96.4-1.17,3.09-2.5,6.68-2.71,7.32,1,2.14-2,9.69-1.43,3.6-1.87,7.45-2.88,11.35l-4.12,5.12c-.98,1.22-3.63,2.35-4.17,4.08-1.41,4.49-5.33,7.21-9.3,8.53-.74.24-1.81,2.33-1.15,2.55l2.86.93-3.3,1.66,2.26,1.13,4.86,6.79ZM663.56,794.09c.24.16,2.32-.08,2.37-.61l.25-2.53c.31-3.14-.13-7.43-4.07-7.79.74,1.33,2.71,2.26,2.7,3.25l-.06,3.89c-.01.78.33,1.63.05,2.03l-1.24,1.75ZM667.83,801.88c1.31-2.96.51-4.83-.55-7.54l-2.9,2.09,3.45,5.45ZM732.59,876.81c2.98.66,5.15-2.6,5.06-5.85-1.95-.27-4.69,1.98-4.58,3.45.15,1.93,2.19.66.82,1.55l-1.31.85ZM712.71,891.72c.74-1.87.15-2.98-.78-3.98l2.39-.61c.48-.12-.24-1.72-.23-2.23l.07-2.15c.02-.48-1.82-.37-2.31-.45l-5.29-.91c-3.61-.62-3.21,2.81-9.5-5.12-1.38.18-2.78.13-4.82-.28-1.62,2.13,3.85,13.7,6.55,15.99l2.42,5.41c.6,1.33,1.2,2.69,2.06,3.27.96.65,3.4.95,3.81.18.54-1.01.91-1.58,1.62-2.58l1.15-3.57c1.08-1.45,1.4-2.83,1.63-5.16l1.22,2.18ZM724.74,908.4c.45-1.56,1.35-3.98,2.04-5.04.29-.44-.41-2.3.08-2.41l2.15-.49c.33-.07,1.12-.38,1.43-.52s.47-.99.14-1.08l-1.43-.39,1.5-1.91c.33-.43-.17-1.14-.79-2.26l2.77.22-1.23-4.51,2.72-4.06c1.1-1.64,1.94-2.98,1.28-4.78-.47-1.27-2.82-3.22-4.06-1.18-.86,1.42-.04,4.91-.27,6.59l-.79,5.81c-.54-.71-1.38-1.78-1.44-1.44l-.31,1.83c-.41,2.4-1.55,3.57-2.72,5.32l-6.72,10.14-1.3,6.3,5.46-1.04,1.48-5.11Z"/>
  <path class="cls-1" d="M416.34,782.29l-.98-5.4,2.6-2.56c.27,3.27.08,5.12-1.62,7.96Z"/>
</svg>